<svg xmlns="http://www.w3.org/2000/svg" width="466" height="282" viewBox="0 0 466 282" role="img">
<rect width="466" height="282" rx="12" fill="#0d1117"/>
<polygon points="79.50,40.50 86.00,44.00 79.50,47.50 73.00,44.00" fill="#161b22" stroke="#0d1117" stroke-width="0.65"/>
<polygon points="86.00,44.00 92.50,47.50 86.00,51.00 79.50,47.50" fill="#161b22" stroke="#0d1117" stroke-width="0.65"/>
<polygon points="73.00,44.00 79.50,47.50 73.00,51.00 66.50,47.50" fill="#161b22" stroke="#0d1117" stroke-width="0.65"/>
<polygon points="92.50,34.58 86.00,31.08 86.00,51.00 92.50,54.50" fill="#1b6527"/>
<polygon points="99.00,31.08 92.50,34.58 92.50,54.50 99.00,51.00" fill="#248735"/>
<polygon points="92.50,27.58 99.00,31.08 92.50,34.58 86.00,31.08" fill="#39d353" stroke="#0d1117" stroke-width="0.65"/>
<polygon points="79.50,47.50 86.00,51.00 79.50,54.50 73.00,51.00" fill="#161b22" stroke="#0d1117" stroke-width="0.65"/>
<polygon points="66.50,47.50 73.00,51.00 66.50,54.50 60.00,51.00" fill="#161b22" stroke="#0d1117" stroke-width="0.65"/>
<polygon points="99.00,51.00 105.50,54.50 99.00,58.00 92.50,54.50" fill="#161b22" stroke="#0d1117" stroke-width="0.65"/>
<polygon points="86.00,47.24 79.50,43.74 79.50,54.50 86.00,58.00" fill="#003418"/>
<polygon points="92.50,43.74 86.00,47.24 86.00,58.00 92.50,54.50" fill="#004520"/>
<polygon points="86.00,40.24 92.50,43.74 86.00,47.24 79.50,43.74" fill="#006d32" stroke="#0d1117" stroke-width="0.65"/>
<polygon points="73.00,51.00 79.50,54.50 73.00,58.00 66.50,54.50" fill="#161b22" stroke="#0d1117" stroke-width="0.65"/>
<polygon points="60.00,51.00 66.50,54.50 60.00,58.00 53.50,54.50" fill="#161b22" stroke="#0d1117" stroke-width="0.65"/>
<polygon points="105.50,49.00 99.00,45.50 99.00,58.00 105.50,61.50" fill="#003418"/>
<polygon points="112.00,45.50 105.50,49.00 105.50,61.50 112.00,58.00" fill="#004520"/>
<polygon points="105.50,42.00 112.00,45.50 105.50,49.00 99.00,45.50" fill="#006d32" stroke="#0d1117" stroke-width="0.65"/>
<polygon points="92.50,54.50 99.00,58.00 92.50,61.50 86.00,58.00" fill="#161b22" stroke="#0d1117" stroke-width="0.65"/>
<polygon points="79.50,54.50 86.00,58.00 79.50,61.50 73.00,58.00" fill="#161b22" stroke="#0d1117" stroke-width="0.65"/>
<polygon points="66.50,54.50 73.00,58.00 66.50,61.50 60.00,58.00" fill="#161b22" stroke="#0d1117" stroke-width="0.65"/>
<polygon points="53.50,54.50 60.00,58.00 53.50,61.50 47.00,58.00" fill="#161b22" stroke="#0d1117" stroke-width="0.65"/>
<polygon points="112.00,56.47 105.50,52.97 105.50,61.50 112.00,65.00" fill="#003418"/>
<polygon points="118.50,52.97 112.00,56.47 112.00,65.00 118.50,61.50" fill="#004520"/>
<polygon points="112.00,49.47 118.50,52.97 112.00,56.47 105.50,52.97" fill="#006d32" stroke="#0d1117" stroke-width="0.65"/>
<polygon points="99.00,58.00 105.50,61.50 99.00,65.00 92.50,61.50" fill="#161b22" stroke="#0d1117" stroke-width="0.65"/>
<polygon points="86.00,58.00 92.50,61.50 86.00,65.00 79.50,61.50" fill="#161b22" stroke="#0d1117" stroke-width="0.65"/>
<polygon points="73.00,58.00 79.50,61.50 73.00,65.00 66.50,61.50" fill="#161b22" stroke="#0d1117" stroke-width="0.65"/>
<polygon points="60.00,58.00 66.50,61.50 60.00,65.00 53.50,61.50" fill="#161b22" stroke="#0d1117" stroke-width="0.65"/>
<polygon points="47.00,58.00 53.50,61.50 47.00,65.00 40.50,61.50" fill="#161b22" stroke="#0d1117" stroke-width="0.65"/>
<polygon points="118.50,63.12 112.00,59.62 112.00,65.00 118.50,68.50" fill="#062013"/>
<polygon points="125.00,59.62 118.50,63.12 118.50,68.50 125.00,65.00" fill="#082b1a"/>
<polygon points="118.50,56.12 125.00,59.62 118.50,63.12 112.00,59.62" fill="#0e4429" stroke="#0d1117" stroke-width="0.65"/>
<polygon points="105.50,52.35 99.00,48.85 99.00,65.00 105.50,68.50" fill="#124f1f"/>
<polygon points="112.00,48.85 105.50,52.35 105.50,68.50 112.00,65.00" fill="#186a29"/>
<polygon points="105.50,45.35 112.00,48.85 105.50,52.35 99.00,48.85" fill="#26a641" stroke="#0d1117" stroke-width="0.65"/>
<polygon points="92.50,61.50 99.00,65.00 92.50,68.50 86.00,65.00" fill="#161b22" stroke="#0d1117" stroke-width="0.65"/>
<polygon points="79.50,63.12 73.00,59.62 73.00,65.00 79.50,68.50" fill="#062013"/>
<polygon points="86.00,59.62 79.50,63.12 79.50,68.50 86.00,65.00" fill="#082b1a"/>
<polygon points="79.50,56.12 86.00,59.62 79.50,63.12 73.00,59.62" fill="#0e4429" stroke="#0d1117" stroke-width="0.65"/>
<polygon points="66.50,61.50 73.00,65.00 66.50,68.50 60.00,65.00" fill="#161b22" stroke="#0d1117" stroke-width="0.65"/>
<polygon points="53.50,61.50 60.00,65.00 53.50,68.50 47.00,65.00" fill="#161b22" stroke="#0d1117" stroke-width="0.65"/>
<polygon points="40.50,61.50 47.00,65.00 40.50,68.50 34.00,65.00" fill="#161b22" stroke="#0d1117" stroke-width="0.65"/>
<polygon points="125.00,52.70 118.50,49.20 118.50,68.50 125.00,72.00" fill="#1b6527"/>
<polygon points="131.50,49.20 125.00,52.70 125.00,72.00 131.50,68.50" fill="#248735"/>
<polygon points="125.00,45.70 131.50,49.20 125.00,52.70 118.50,49.20" fill="#39d353" stroke="#0d1117" stroke-width="0.65"/>
<polygon points="112.00,58.09 105.50,54.59 105.50,68.50 112.00,72.00" fill="#124f1f"/>
<polygon points="118.50,54.59 112.00,58.09 112.00,72.00 118.50,68.50" fill="#186a29"/>
<polygon points="112.00,51.09 118.50,54.59 112.00,58.09 105.50,54.59" fill="#26a641" stroke="#0d1117" stroke-width="0.65"/>
<polygon points="99.00,61.24 92.50,57.74 92.50,68.50 99.00,72.00" fill="#003418"/>
<polygon points="105.50,57.74 99.00,61.24 99.00,72.00 105.50,68.50" fill="#004520"/>
<polygon points="99.00,54.24 105.50,57.74 99.00,61.24 92.50,57.74" fill="#006d32" stroke="#0d1117" stroke-width="0.65"/>
<polygon points="86.00,65.00 92.50,68.50 86.00,72.00 79.50,68.50" fill="#161b22" stroke="#0d1117" stroke-width="0.65"/>
<polygon points="73.00,65.00 79.50,68.50 73.00,72.00 66.50,68.50" fill="#161b22" stroke="#0d1117" stroke-width="0.65"/>
<polygon points="60.00,61.24 53.50,57.74 53.50,68.50 60.00,72.00" fill="#003418"/>
<polygon points="66.50,57.74 60.00,61.24 60.00,72.00 66.50,68.50" fill="#004520"/>
<polygon points="60.00,54.24 66.50,57.74 60.00,61.24 53.50,57.74" fill="#006d32" stroke="#0d1117" stroke-width="0.65"/>
<polygon points="47.00,65.00 53.50,68.50 47.00,72.00 40.50,68.50" fill="#161b22" stroke="#0d1117" stroke-width="0.65"/>
<polygon points="131.50,64.74 125.00,61.24 125.00,72.00 131.50,75.50" fill="#003418"/>
<polygon points="138.00,61.24 131.50,64.74 131.50,75.50 138.00,72.00" fill="#004520"/>
<polygon points="131.50,57.74 138.00,61.24 131.50,64.74 125.00,61.24" fill="#006d32" stroke="#0d1117" stroke-width="0.65"/>
<polygon points="118.50,60.39 112.00,56.89 112.00,72.00 118.50,75.50" fill="#124f1f"/>
<polygon points="125.00,56.89 118.50,60.39 118.50,75.50 125.00,72.00" fill="#186a29"/>
<polygon points="118.50,53.39 125.00,56.89 118.50,60.39 112.00,56.89" fill="#26a641" stroke="#0d1117" stroke-width="0.65"/>
<polygon points="105.50,61.59 99.00,58.09 99.00,72.00 105.50,75.50" fill="#124f1f"/>
<polygon points="112.00,58.09 105.50,61.59 105.50,75.50 112.00,72.00" fill="#186a29"/>
<polygon points="105.50,54.59 112.00,58.09 105.50,61.59 99.00,58.09" fill="#26a641" stroke="#0d1117" stroke-width="0.65"/>
<polygon points="92.50,70.12 86.00,66.62 86.00,72.00 92.50,75.50" fill="#062013"/>
<polygon points="99.00,66.62 92.50,70.12 92.50,75.50 99.00,72.00" fill="#082b1a"/>
<polygon points="92.50,63.12 99.00,66.62 92.50,70.12 86.00,66.62" fill="#0e4429" stroke="#0d1117" stroke-width="0.65"/>
<polygon points="79.50,68.50 86.00,72.00 79.50,75.50 73.00,72.00" fill="#161b22" stroke="#0d1117" stroke-width="0.65"/>
<polygon points="66.50,68.50 73.00,72.00 66.50,75.50 60.00,72.00" fill="#161b22" stroke="#0d1117" stroke-width="0.65"/>
<polygon points="53.50,68.50 60.00,72.00 53.50,75.50 47.00,72.00" fill="#161b22" stroke="#0d1117" stroke-width="0.65"/>
<polygon points="138.00,72.00 144.50,75.50 138.00,79.00 131.50,75.50" fill="#161b22" stroke="#0d1117" stroke-width="0.65"/>
<polygon points="125.00,72.00 131.50,75.50 125.00,79.00 118.50,75.50" fill="#161b22" stroke="#0d1117" stroke-width="0.65"/>
<polygon points="112.00,66.50 105.50,63.00 105.50,75.50 112.00,79.00" fill="#003418"/>
<polygon points="118.50,63.00 112.00,66.50 112.00,79.00 118.50,75.50" fill="#004520"/>
<polygon points="112.00,59.50 118.50,63.00 112.00,66.50 105.50,63.00" fill="#006d32" stroke="#0d1117" stroke-width="0.65"/>
<polygon points="99.00,72.00 105.50,75.50 99.00,79.00 92.50,75.50" fill="#161b22" stroke="#0d1117" stroke-width="0.65"/>
<polygon points="86.00,73.62 79.50,70.12 79.50,75.50 86.00,79.00" fill="#062013"/>
<polygon points="92.50,70.12 86.00,73.62 86.00,79.00 92.50,75.50" fill="#082b1a"/>
<polygon points="86.00,66.62 92.50,70.12 86.00,73.62 79.50,70.12" fill="#0e4429" stroke="#0d1117" stroke-width="0.65"/>
<polygon points="73.00,72.00 79.50,75.50 73.00,79.00 66.50,75.50" fill="#161b22" stroke="#0d1117" stroke-width="0.65"/>
<polygon points="60.00,72.00 66.50,75.50 60.00,79.00 53.50,75.50" fill="#161b22" stroke="#0d1117" stroke-width="0.65"/>
<polygon points="144.50,75.50 151.00,79.00 144.50,82.50 138.00,79.00" fill="#161b22" stroke="#0d1117" stroke-width="0.65"/>
<polygon points="131.50,75.50 138.00,79.00 131.50,82.50 125.00,79.00" fill="#161b22" stroke="#0d1117" stroke-width="0.65"/>
<polygon points="118.50,75.50 125.00,79.00 118.50,82.50 112.00,79.00" fill="#161b22" stroke="#0d1117" stroke-width="0.65"/>
<polygon points="105.50,70.00 99.00,66.50 99.00,79.00 105.50,82.50" fill="#003418"/>
<polygon points="112.00,66.50 105.50,70.00 105.50,82.50 112.00,79.00" fill="#004520"/>
<polygon points="105.50,63.00 112.00,66.50 105.50,70.00 99.00,66.50" fill="#006d32" stroke="#0d1117" stroke-width="0.65"/>
<polygon points="92.50,71.74 86.00,68.24 86.00,79.00 92.50,82.50" fill="#003418"/>
<polygon points="99.00,68.24 92.50,71.74 92.50,82.50 99.00,79.00" fill="#004520"/>
<polygon points="92.50,64.74 99.00,68.24 92.50,71.74 86.00,68.24" fill="#006d32" stroke="#0d1117" stroke-width="0.65"/>
<polygon points="79.50,75.50 86.00,79.00 79.50,82.50 73.00,79.00" fill="#161b22" stroke="#0d1117" stroke-width="0.65"/>
<polygon points="66.50,77.12 60.00,73.62 60.00,79.00 66.50,82.50" fill="#062013"/>
<polygon points="73.00,73.62 66.50,77.12 66.50,82.50 73.00,79.00" fill="#082b1a"/>
<polygon points="66.50,70.12 73.00,73.62 66.50,77.12 60.00,73.62" fill="#0e4429" stroke="#0d1117" stroke-width="0.65"/>
<polygon points="151.00,80.62 144.50,77.12 144.50,82.50 151.00,86.00" fill="#062013"/>
<polygon points="157.50,77.12 151.00,80.62 151.00,86.00 157.50,82.50" fill="#082b1a"/>
<polygon points="151.00,73.62 157.50,77.12 151.00,80.62 144.50,77.12" fill="#0e4429" stroke="#0d1117" stroke-width="0.65"/>
<polygon points="138.00,80.62 131.50,77.12 131.50,82.50 138.00,86.00" fill="#062013"/>
<polygon points="144.50,77.12 138.00,80.62 138.00,86.00 144.50,82.50" fill="#082b1a"/>
<polygon points="138.00,73.62 144.50,77.12 138.00,80.62 131.50,77.12" fill="#0e4429" stroke="#0d1117" stroke-width="0.65"/>
<polygon points="125.00,77.47 118.50,73.97 118.50,82.50 125.00,86.00" fill="#003418"/>
<polygon points="131.50,73.97 125.00,77.47 125.00,86.00 131.50,82.50" fill="#004520"/>
<polygon points="125.00,70.47 131.50,73.97 125.00,77.47 118.50,73.97" fill="#006d32" stroke="#0d1117" stroke-width="0.65"/>
<polygon points="112.00,79.00 118.50,82.50 112.00,86.00 105.50,82.50" fill="#161b22" stroke="#0d1117" stroke-width="0.65"/>
<polygon points="99.00,79.00 105.50,82.50 99.00,86.00 92.50,82.50" fill="#161b22" stroke="#0d1117" stroke-width="0.65"/>
<polygon points="86.00,73.50 79.50,70.00 79.50,82.50 86.00,86.00" fill="#003418"/>
<polygon points="92.50,70.00 86.00,73.50 86.00,86.00 92.50,82.50" fill="#004520"/>
<polygon points="86.00,66.50 92.50,70.00 86.00,73.50 79.50,70.00" fill="#006d32" stroke="#0d1117" stroke-width="0.65"/>
<polygon points="73.00,77.47 66.50,73.97 66.50,82.50 73.00,86.00" fill="#003418"/>
<polygon points="79.50,73.97 73.00,77.47 73.00,86.00 79.50,82.50" fill="#004520"/>
<polygon points="73.00,70.47 79.50,73.97 73.00,77.47 66.50,73.97" fill="#006d32" stroke="#0d1117" stroke-width="0.65"/>
<polygon points="157.50,82.50 164.00,86.00 157.50,89.50 151.00,86.00" fill="#161b22" stroke="#0d1117" stroke-width="0.65"/>
<polygon points="144.50,84.12 138.00,80.62 138.00,86.00 144.50,89.50" fill="#062013"/>
<polygon points="151.00,80.62 144.50,84.12 144.50,89.50 151.00,86.00" fill="#082b1a"/>
<polygon points="144.50,77.12 151.00,80.62 144.50,84.12 138.00,80.62" fill="#0e4429" stroke="#0d1117" stroke-width="0.65"/>
<polygon points="131.50,84.12 125.00,80.62 125.00,86.00 131.50,89.50" fill="#062013"/>
<polygon points="138.00,80.62 131.50,84.12 131.50,89.50 138.00,86.00" fill="#082b1a"/>
<polygon points="131.50,77.12 138.00,80.62 131.50,84.12 125.00,80.62" fill="#0e4429" stroke="#0d1117" stroke-width="0.65"/>
<polygon points="118.50,82.50 125.00,86.00 118.50,89.50 112.00,86.00" fill="#161b22" stroke="#0d1117" stroke-width="0.65"/>
<polygon points="105.50,82.50 112.00,86.00 105.50,89.50 99.00,86.00" fill="#161b22" stroke="#0d1117" stroke-width="0.65"/>
<polygon points="92.50,78.74 86.00,75.24 86.00,86.00 92.50,89.50" fill="#003418"/>
<polygon points="99.00,75.24 92.50,78.74 92.50,89.50 99.00,86.00" fill="#004520"/>
<polygon points="92.50,71.74 99.00,75.24 92.50,78.74 86.00,75.24" fill="#006d32" stroke="#0d1117" stroke-width="0.65"/>
<polygon points="79.50,71.62 73.00,68.12 73.00,86.00 79.50,89.50" fill="#124f1f"/>
<polygon points="86.00,68.12 79.50,71.62 79.50,89.50 86.00,86.00" fill="#186a29"/>
<polygon points="79.50,64.62 86.00,68.12 79.50,71.62 73.00,68.12" fill="#26a641" stroke="#0d1117" stroke-width="0.65"/>
<polygon points="164.00,86.00 170.50,89.50 164.00,93.00 157.50,89.50" fill="#161b22" stroke="#0d1117" stroke-width="0.65"/>
<polygon points="151.00,86.00 157.50,89.50 151.00,93.00 144.50,89.50" fill="#161b22" stroke="#0d1117" stroke-width="0.65"/>
<polygon points="138.00,86.00 144.50,89.50 138.00,93.00 131.50,89.50" fill="#161b22" stroke="#0d1117" stroke-width="0.65"/>
<polygon points="125.00,86.00 131.50,89.50 125.00,93.00 118.50,89.50" fill="#161b22" stroke="#0d1117" stroke-width="0.65"/>
<polygon points="112.00,86.00 118.50,89.50 112.00,93.00 105.50,89.50" fill="#161b22" stroke="#0d1117" stroke-width="0.65"/>
<polygon points="99.00,86.00 105.50,89.50 99.00,93.00 92.50,89.50" fill="#161b22" stroke="#0d1117" stroke-width="0.65"/>
<polygon points="86.00,87.62 79.50,84.12 79.50,89.50 86.00,93.00" fill="#062013"/>
<polygon points="92.50,84.12 86.00,87.62 86.00,93.00 92.50,89.50" fill="#082b1a"/>
<polygon points="86.00,80.62 92.50,84.12 86.00,87.62 79.50,84.12" fill="#0e4429" stroke="#0d1117" stroke-width="0.65"/>
<polygon points="170.50,89.50 177.00,93.00 170.50,96.50 164.00,93.00" fill="#161b22" stroke="#0d1117" stroke-width="0.65"/>
<polygon points="157.50,84.00 151.00,80.50 151.00,93.00 157.50,96.50" fill="#003418"/>
<polygon points="164.00,80.50 157.50,84.00 157.50,96.50 164.00,93.00" fill="#004520"/>
<polygon points="157.50,77.00 164.00,80.50 157.50,84.00 151.00,80.50" fill="#006d32" stroke="#0d1117" stroke-width="0.65"/>
<polygon points="144.50,89.50 151.00,93.00 144.50,96.50 138.00,93.00" fill="#161b22" stroke="#0d1117" stroke-width="0.65"/>
<polygon points="131.50,89.50 138.00,93.00 131.50,96.50 125.00,93.00" fill="#161b22" stroke="#0d1117" stroke-width="0.65"/>
<polygon points="118.50,89.50 125.00,93.00 118.50,96.50 112.00,93.00" fill="#161b22" stroke="#0d1117" stroke-width="0.65"/>
<polygon points="105.50,91.12 99.00,87.62 99.00,93.00 105.50,96.50" fill="#062013"/>
<polygon points="112.00,87.62 105.50,91.12 105.50,96.50 112.00,93.00" fill="#082b1a"/>
<polygon points="105.50,84.12 112.00,87.62 105.50,91.12 99.00,87.62" fill="#0e4429" stroke="#0d1117" stroke-width="0.65"/>
<polygon points="92.50,89.50 99.00,93.00 92.50,96.50 86.00,93.00" fill="#161b22" stroke="#0d1117" stroke-width="0.65"/>
<polygon points="177.00,93.00 183.50,96.50 177.00,100.00 170.50,96.50" fill="#161b22" stroke="#0d1117" stroke-width="0.65"/>
<polygon points="164.00,94.62 157.50,91.12 157.50,96.50 164.00,100.00" fill="#062013"/>
<polygon points="170.50,91.12 164.00,94.62 164.00,100.00 170.50,96.50" fill="#082b1a"/>
<polygon points="164.00,87.62 170.50,91.12 164.00,94.62 157.50,91.12" fill="#0e4429" stroke="#0d1117" stroke-width="0.65"/>
<polygon points="151.00,93.00 157.50,96.50 151.00,100.00 144.50,96.50" fill="#161b22" stroke="#0d1117" stroke-width="0.65"/>
<polygon points="138.00,93.00 144.50,96.50 138.00,100.00 131.50,96.50" fill="#161b22" stroke="#0d1117" stroke-width="0.65"/>
<polygon points="125.00,93.00 131.50,96.50 125.00,100.00 118.50,96.50" fill="#161b22" stroke="#0d1117" stroke-width="0.65"/>
<polygon points="112.00,91.47 105.50,87.97 105.50,96.50 112.00,100.00" fill="#003418"/>
<polygon points="118.50,87.97 112.00,91.47 112.00,100.00 118.50,96.50" fill="#004520"/>
<polygon points="112.00,84.47 118.50,87.97 112.00,91.47 105.50,87.97" fill="#006d32" stroke="#0d1117" stroke-width="0.65"/>
<polygon points="99.00,91.47 92.50,87.97 92.50,96.50 99.00,100.00" fill="#003418"/>
<polygon points="105.50,87.97 99.00,91.47 99.00,100.00 105.50,96.50" fill="#004520"/>
<polygon points="99.00,84.47 105.50,87.97 99.00,91.47 92.50,87.97" fill="#006d32" stroke="#0d1117" stroke-width="0.65"/>
<polygon points="183.50,96.50 190.00,100.00 183.50,103.50 177.00,100.00" fill="#161b22" stroke="#0d1117" stroke-width="0.65"/>
<polygon points="170.50,96.50 177.00,100.00 170.50,103.50 164.00,100.00" fill="#161b22" stroke="#0d1117" stroke-width="0.65"/>
<polygon points="157.50,96.50 164.00,100.00 157.50,103.50 151.00,100.00" fill="#161b22" stroke="#0d1117" stroke-width="0.65"/>
<polygon points="144.50,87.35 138.00,83.85 138.00,100.00 144.50,103.50" fill="#124f1f"/>
<polygon points="151.00,83.85 144.50,87.35 144.50,103.50 151.00,100.00" fill="#186a29"/>
<polygon points="144.50,80.35 151.00,83.85 144.50,87.35 138.00,83.85" fill="#26a641" stroke="#0d1117" stroke-width="0.65"/>
<polygon points="131.50,88.39 125.00,84.89 125.00,100.00 131.50,103.50" fill="#124f1f"/>
<polygon points="138.00,84.89 131.50,88.39 131.50,103.50 138.00,100.00" fill="#186a29"/>
<polygon points="131.50,81.39 138.00,84.89 131.50,88.39 125.00,84.89" fill="#26a641" stroke="#0d1117" stroke-width="0.65"/>
<polygon points="118.50,96.50 125.00,100.00 118.50,103.50 112.00,100.00" fill="#161b22" stroke="#0d1117" stroke-width="0.65"/>
<polygon points="105.50,94.97 99.00,91.47 99.00,100.00 105.50,103.50" fill="#003418"/>
<polygon points="112.00,91.47 105.50,94.97 105.50,103.50 112.00,100.00" fill="#004520"/>
<polygon points="105.50,87.97 112.00,91.47 105.50,94.97 99.00,91.47" fill="#006d32" stroke="#0d1117" stroke-width="0.65"/>
<polygon points="190.00,100.00 196.50,103.50 190.00,107.00 183.50,103.50" fill="#161b22" stroke="#0d1117" stroke-width="0.65"/>
<polygon points="177.00,100.00 183.50,103.50 177.00,107.00 170.50,103.50" fill="#161b22" stroke="#0d1117" stroke-width="0.65"/>
<polygon points="164.00,100.00 170.50,103.50 164.00,107.00 157.50,103.50" fill="#161b22" stroke="#0d1117" stroke-width="0.65"/>
<polygon points="151.00,100.00 157.50,103.50 151.00,107.00 144.50,103.50" fill="#161b22" stroke="#0d1117" stroke-width="0.65"/>
<polygon points="138.00,89.12 131.50,85.62 131.50,103.50 138.00,107.00" fill="#124f1f"/>
<polygon points="144.50,85.62 138.00,89.12 138.00,107.00 144.50,103.50" fill="#186a29"/>
<polygon points="138.00,82.12 144.50,85.62 138.00,89.12 131.50,85.62" fill="#26a641" stroke="#0d1117" stroke-width="0.65"/>
<polygon points="125.00,100.00 131.50,103.50 125.00,107.00 118.50,103.50" fill="#161b22" stroke="#0d1117" stroke-width="0.65"/>
<polygon points="112.00,100.00 118.50,103.50 112.00,107.00 105.50,103.50" fill="#161b22" stroke="#0d1117" stroke-width="0.65"/>
<polygon points="196.50,103.50 203.00,107.00 196.50,110.50 190.00,107.00" fill="#161b22" stroke="#0d1117" stroke-width="0.65"/>
<polygon points="183.50,103.50 190.00,107.00 183.50,110.50 177.00,107.00" fill="#161b22" stroke="#0d1117" stroke-width="0.65"/>
<polygon points="170.50,103.50 177.00,107.00 170.50,110.50 164.00,107.00" fill="#161b22" stroke="#0d1117" stroke-width="0.65"/>
<polygon points="157.50,103.50 164.00,107.00 157.50,110.50 151.00,107.00" fill="#161b22" stroke="#0d1117" stroke-width="0.65"/>
<polygon points="144.50,103.50 151.00,107.00 144.50,110.50 138.00,107.00" fill="#161b22" stroke="#0d1117" stroke-width="0.65"/>
<polygon points="131.50,105.12 125.00,101.62 125.00,107.00 131.50,110.50" fill="#062013"/>
<polygon points="138.00,101.62 131.50,105.12 131.50,110.50 138.00,107.00" fill="#082b1a"/>
<polygon points="131.50,98.12 138.00,101.62 131.50,105.12 125.00,101.62" fill="#0e4429" stroke="#0d1117" stroke-width="0.65"/>
<polygon points="118.50,103.50 125.00,107.00 118.50,110.50 112.00,107.00" fill="#161b22" stroke="#0d1117" stroke-width="0.65"/>
<polygon points="203.00,107.00 209.50,110.50 203.00,114.00 196.50,110.50" fill="#161b22" stroke="#0d1117" stroke-width="0.65"/>
<polygon points="190.00,108.62 183.50,105.12 183.50,110.50 190.00,114.00" fill="#062013"/>
<polygon points="196.50,105.12 190.00,108.62 190.00,114.00 196.50,110.50" fill="#082b1a"/>
<polygon points="190.00,101.62 196.50,105.12 190.00,108.62 183.50,105.12" fill="#0e4429" stroke="#0d1117" stroke-width="0.65"/>
<polygon points="177.00,107.00 183.50,110.50 177.00,114.00 170.50,110.50" fill="#161b22" stroke="#0d1117" stroke-width="0.65"/>
<polygon points="164.00,107.00 170.50,110.50 164.00,114.00 157.50,110.50" fill="#161b22" stroke="#0d1117" stroke-width="0.65"/>
<polygon points="151.00,107.00 157.50,110.50 151.00,114.00 144.50,110.50" fill="#161b22" stroke="#0d1117" stroke-width="0.65"/>
<polygon points="138.00,107.00 144.50,110.50 138.00,114.00 131.50,110.50" fill="#161b22" stroke="#0d1117" stroke-width="0.65"/>
<polygon points="125.00,107.00 131.50,110.50 125.00,114.00 118.50,110.50" fill="#161b22" stroke="#0d1117" stroke-width="0.65"/>
<polygon points="209.50,106.74 203.00,103.24 203.00,114.00 209.50,117.50" fill="#003418"/>
<polygon points="216.00,103.24 209.50,106.74 209.50,117.50 216.00,114.00" fill="#004520"/>
<polygon points="209.50,99.74 216.00,103.24 209.50,106.74 203.00,103.24" fill="#006d32" stroke="#0d1117" stroke-width="0.65"/>
<polygon points="196.50,110.50 203.00,114.00 196.50,117.50 190.00,114.00" fill="#161b22" stroke="#0d1117" stroke-width="0.65"/>
<polygon points="183.50,110.50 190.00,114.00 183.50,117.50 177.00,114.00" fill="#161b22" stroke="#0d1117" stroke-width="0.65"/>
<polygon points="170.50,110.50 177.00,114.00 170.50,117.50 164.00,114.00" fill="#161b22" stroke="#0d1117" stroke-width="0.65"/>
<polygon points="157.50,110.50 164.00,114.00 157.50,117.50 151.00,114.00" fill="#161b22" stroke="#0d1117" stroke-width="0.65"/>
<polygon points="144.50,110.50 151.00,114.00 144.50,117.50 138.00,114.00" fill="#161b22" stroke="#0d1117" stroke-width="0.65"/>
<polygon points="131.50,110.50 138.00,114.00 131.50,117.50 125.00,114.00" fill="#161b22" stroke="#0d1117" stroke-width="0.65"/>
<polygon points="216.00,114.00 222.50,117.50 216.00,121.00 209.50,117.50" fill="#161b22" stroke="#0d1117" stroke-width="0.65"/>
<polygon points="203.00,114.00 209.50,117.50 203.00,121.00 196.50,117.50" fill="#161b22" stroke="#0d1117" stroke-width="0.65"/>
<polygon points="190.00,114.00 196.50,117.50 190.00,121.00 183.50,117.50" fill="#161b22" stroke="#0d1117" stroke-width="0.65"/>
<polygon points="177.00,112.47 170.50,108.97 170.50,117.50 177.00,121.00" fill="#003418"/>
<polygon points="183.50,108.97 177.00,112.47 177.00,121.00 183.50,117.50" fill="#004520"/>
<polygon points="177.00,105.47 183.50,108.97 177.00,112.47 170.50,108.97" fill="#006d32" stroke="#0d1117" stroke-width="0.65"/>
<polygon points="164.00,114.00 170.50,117.50 164.00,121.00 157.50,117.50" fill="#161b22" stroke="#0d1117" stroke-width="0.65"/>
<polygon points="151.00,114.00 157.50,117.50 151.00,121.00 144.50,117.50" fill="#161b22" stroke="#0d1117" stroke-width="0.65"/>
<polygon points="138.00,114.00 144.50,117.50 138.00,121.00 131.50,117.50" fill="#161b22" stroke="#0d1117" stroke-width="0.65"/>
<polygon points="222.50,117.50 229.00,121.00 222.50,124.50 216.00,121.00" fill="#161b22" stroke="#0d1117" stroke-width="0.65"/>
<polygon points="209.50,117.50 216.00,121.00 209.50,124.50 203.00,121.00" fill="#161b22" stroke="#0d1117" stroke-width="0.65"/>
<polygon points="196.50,105.88 190.00,102.38 190.00,121.00 196.50,124.50" fill="#124f1f"/>
<polygon points="203.00,102.38 196.50,105.88 196.50,124.50 203.00,121.00" fill="#186a29"/>
<polygon points="196.50,98.88 203.00,102.38 196.50,105.88 190.00,102.38" fill="#26a641" stroke="#0d1117" stroke-width="0.65"/>
<polygon points="183.50,117.50 190.00,121.00 183.50,124.50 177.00,121.00" fill="#161b22" stroke="#0d1117" stroke-width="0.65"/>
<polygon points="170.50,117.50 177.00,121.00 170.50,124.50 164.00,121.00" fill="#161b22" stroke="#0d1117" stroke-width="0.65"/>
<polygon points="157.50,117.50 164.00,121.00 157.50,124.50 151.00,121.00" fill="#161b22" stroke="#0d1117" stroke-width="0.65"/>
<polygon points="144.50,117.50 151.00,121.00 144.50,124.50 138.00,121.00" fill="#161b22" stroke="#0d1117" stroke-width="0.65"/>
<polygon points="229.00,121.00 235.50,124.50 229.00,128.00 222.50,124.50" fill="#161b22" stroke="#0d1117" stroke-width="0.65"/>
<polygon points="216.00,121.00 222.50,124.50 216.00,128.00 209.50,124.50" fill="#161b22" stroke="#0d1117" stroke-width="0.65"/>
<polygon points="203.00,121.00 209.50,124.50 203.00,128.00 196.50,124.50" fill="#161b22" stroke="#0d1117" stroke-width="0.65"/>
<polygon points="190.00,114.09 183.50,110.59 183.50,124.50 190.00,128.00" fill="#124f1f"/>
<polygon points="196.50,110.59 190.00,114.09 190.00,128.00 196.50,124.50" fill="#186a29"/>
<polygon points="190.00,107.09 196.50,110.59 190.00,114.09 183.50,110.59" fill="#26a641" stroke="#0d1117" stroke-width="0.65"/>
<polygon points="177.00,121.00 183.50,124.50 177.00,128.00 170.50,124.50" fill="#161b22" stroke="#0d1117" stroke-width="0.65"/>
<polygon points="164.00,121.00 170.50,124.50 164.00,128.00 157.50,124.50" fill="#161b22" stroke="#0d1117" stroke-width="0.65"/>
<polygon points="151.00,121.00 157.50,124.50 151.00,128.00 144.50,124.50" fill="#161b22" stroke="#0d1117" stroke-width="0.65"/>
<polygon points="235.50,124.50 242.00,128.00 235.50,131.50 229.00,128.00" fill="#161b22" stroke="#0d1117" stroke-width="0.65"/>
<polygon points="222.50,124.50 229.00,128.00 222.50,131.50 216.00,128.00" fill="#161b22" stroke="#0d1117" stroke-width="0.65"/>
<polygon points="209.50,124.50 216.00,128.00 209.50,131.50 203.00,128.00" fill="#161b22" stroke="#0d1117" stroke-width="0.65"/>
<polygon points="196.50,126.12 190.00,122.62 190.00,128.00 196.50,131.50" fill="#062013"/>
<polygon points="203.00,122.62 196.50,126.12 196.50,131.50 203.00,128.00" fill="#082b1a"/>
<polygon points="196.50,119.12 203.00,122.62 196.50,126.12 190.00,122.62" fill="#0e4429" stroke="#0d1117" stroke-width="0.65"/>
<polygon points="183.50,122.97 177.00,119.47 177.00,128.00 183.50,131.50" fill="#003418"/>
<polygon points="190.00,119.47 183.50,122.97 183.50,131.50 190.00,128.00" fill="#004520"/>
<polygon points="183.50,115.97 190.00,119.47 183.50,122.97 177.00,119.47" fill="#006d32" stroke="#0d1117" stroke-width="0.65"/>
<polygon points="170.50,124.50 177.00,128.00 170.50,131.50 164.00,128.00" fill="#161b22" stroke="#0d1117" stroke-width="0.65"/>
<polygon points="157.50,124.50 164.00,128.00 157.50,131.50 151.00,128.00" fill="#161b22" stroke="#0d1117" stroke-width="0.65"/>
<polygon points="242.00,128.00 248.50,131.50 242.00,135.00 235.50,131.50" fill="#161b22" stroke="#0d1117" stroke-width="0.65"/>
<polygon points="229.00,128.00 235.50,131.50 229.00,135.00 222.50,131.50" fill="#161b22" stroke="#0d1117" stroke-width="0.65"/>
<polygon points="216.00,129.62 209.50,126.12 209.50,131.50 216.00,135.00" fill="#062013"/>
<polygon points="222.50,126.12 216.00,129.62 216.00,135.00 222.50,131.50" fill="#082b1a"/>
<polygon points="216.00,122.62 222.50,126.12 216.00,129.62 209.50,126.12" fill="#0e4429" stroke="#0d1117" stroke-width="0.65"/>
<polygon points="203.00,129.62 196.50,126.12 196.50,131.50 203.00,135.00" fill="#062013"/>
<polygon points="209.50,126.12 203.00,129.62 203.00,135.00 209.50,131.50" fill="#082b1a"/>
<polygon points="203.00,122.62 209.50,126.12 203.00,129.62 196.50,126.12" fill="#0e4429" stroke="#0d1117" stroke-width="0.65"/>
<polygon points="190.00,128.00 196.50,131.50 190.00,135.00 183.50,131.50" fill="#161b22" stroke="#0d1117" stroke-width="0.65"/>
<polygon points="177.00,129.62 170.50,126.12 170.50,131.50 177.00,135.00" fill="#062013"/>
<polygon points="183.50,126.12 177.00,129.62 177.00,135.00 183.50,131.50" fill="#082b1a"/>
<polygon points="177.00,122.62 183.50,126.12 177.00,129.62 170.50,126.12" fill="#0e4429" stroke="#0d1117" stroke-width="0.65"/>
<polygon points="164.00,126.47 157.50,122.97 157.50,131.50 164.00,135.00" fill="#003418"/>
<polygon points="170.50,122.97 164.00,126.47 164.00,135.00 170.50,131.50" fill="#004520"/>
<polygon points="164.00,119.47 170.50,122.97 164.00,126.47 157.50,122.97" fill="#006d32" stroke="#0d1117" stroke-width="0.65"/>
<polygon points="248.50,131.50 255.00,135.00 248.50,138.50 242.00,135.00" fill="#161b22" stroke="#0d1117" stroke-width="0.65"/>
<polygon points="235.50,131.50 242.00,135.00 235.50,138.50 229.00,135.00" fill="#161b22" stroke="#0d1117" stroke-width="0.65"/>
<polygon points="222.50,131.50 229.00,135.00 222.50,138.50 216.00,135.00" fill="#161b22" stroke="#0d1117" stroke-width="0.65"/>
<polygon points="209.50,131.50 216.00,135.00 209.50,138.50 203.00,135.00" fill="#161b22" stroke="#0d1117" stroke-width="0.65"/>
<polygon points="196.50,131.50 203.00,135.00 196.50,138.50 190.00,135.00" fill="#161b22" stroke="#0d1117" stroke-width="0.65"/>
<polygon points="183.50,131.50 190.00,135.00 183.50,138.50 177.00,135.00" fill="#161b22" stroke="#0d1117" stroke-width="0.65"/>
<polygon points="170.50,131.50 177.00,135.00 170.50,138.50 164.00,135.00" fill="#161b22" stroke="#0d1117" stroke-width="0.65"/>
<polygon points="255.00,135.00 261.50,138.50 255.00,142.00 248.50,138.50" fill="#161b22" stroke="#0d1117" stroke-width="0.65"/>
<polygon points="242.00,135.00 248.50,138.50 242.00,142.00 235.50,138.50" fill="#161b22" stroke="#0d1117" stroke-width="0.65"/>
<polygon points="229.00,135.00 235.50,138.50 229.00,142.00 222.50,138.50" fill="#161b22" stroke="#0d1117" stroke-width="0.65"/>
<polygon points="216.00,136.62 209.50,133.12 209.50,138.50 216.00,142.00" fill="#062013"/>
<polygon points="222.50,133.12 216.00,136.62 216.00,142.00 222.50,138.50" fill="#082b1a"/>
<polygon points="216.00,129.62 222.50,133.12 216.00,136.62 209.50,133.12" fill="#0e4429" stroke="#0d1117" stroke-width="0.65"/>
<polygon points="203.00,135.00 209.50,138.50 203.00,142.00 196.50,138.50" fill="#161b22" stroke="#0d1117" stroke-width="0.65"/>
<polygon points="190.00,135.00 196.50,138.50 190.00,142.00 183.50,138.50" fill="#161b22" stroke="#0d1117" stroke-width="0.65"/>
<polygon points="177.00,135.00 183.50,138.50 177.00,142.00 170.50,138.50" fill="#161b22" stroke="#0d1117" stroke-width="0.65"/>
<polygon points="261.50,138.50 268.00,142.00 261.50,145.50 255.00,142.00" fill="#161b22" stroke="#0d1117" stroke-width="0.65"/>
<polygon points="248.50,133.00 242.00,129.50 242.00,142.00 248.50,145.50" fill="#003418"/>
<polygon points="255.00,129.50 248.50,133.00 248.50,145.50 255.00,142.00" fill="#004520"/>
<polygon points="248.50,126.00 255.00,129.50 248.50,133.00 242.00,129.50" fill="#006d32" stroke="#0d1117" stroke-width="0.65"/>
<polygon points="235.50,136.97 229.00,133.47 229.00,142.00 235.50,145.50" fill="#003418"/>
<polygon points="242.00,133.47 235.50,136.97 235.50,145.50 242.00,142.00" fill="#004520"/>
<polygon points="235.50,129.97 242.00,133.47 235.50,136.97 229.00,133.47" fill="#006d32" stroke="#0d1117" stroke-width="0.65"/>
<polygon points="222.50,138.50 229.00,142.00 222.50,145.50 216.00,142.00" fill="#161b22" stroke="#0d1117" stroke-width="0.65"/>
<polygon points="209.50,138.50 216.00,142.00 209.50,145.50 203.00,142.00" fill="#161b22" stroke="#0d1117" stroke-width="0.65"/>
<polygon points="196.50,140.12 190.00,136.62 190.00,142.00 196.50,145.50" fill="#062013"/>
<polygon points="203.00,136.62 196.50,140.12 196.50,145.50 203.00,142.00" fill="#082b1a"/>
<polygon points="196.50,133.12 203.00,136.62 196.50,140.12 190.00,136.62" fill="#0e4429" stroke="#0d1117" stroke-width="0.65"/>
<polygon points="183.50,138.50 190.00,142.00 183.50,145.50 177.00,142.00" fill="#161b22" stroke="#0d1117" stroke-width="0.65"/>
<polygon points="268.00,142.00 274.50,145.50 268.00,149.00 261.50,145.50" fill="#161b22" stroke="#0d1117" stroke-width="0.65"/>
<polygon points="255.00,143.62 248.50,140.12 248.50,145.50 255.00,149.00" fill="#062013"/>
<polygon points="261.50,140.12 255.00,143.62 255.00,149.00 261.50,145.50" fill="#082b1a"/>
<polygon points="255.00,136.62 261.50,140.12 255.00,143.62 248.50,140.12" fill="#0e4429" stroke="#0d1117" stroke-width="0.65"/>
<polygon points="242.00,142.00 248.50,145.50 242.00,149.00 235.50,145.50" fill="#161b22" stroke="#0d1117" stroke-width="0.65"/>
<polygon points="229.00,143.62 222.50,140.12 222.50,145.50 229.00,149.00" fill="#062013"/>
<polygon points="235.50,140.12 229.00,143.62 229.00,149.00 235.50,145.50" fill="#082b1a"/>
<polygon points="229.00,136.62 235.50,140.12 229.00,143.62 222.50,140.12" fill="#0e4429" stroke="#0d1117" stroke-width="0.65"/>
<polygon points="216.00,142.00 222.50,145.50 216.00,149.00 209.50,145.50" fill="#161b22" stroke="#0d1117" stroke-width="0.65"/>
<polygon points="203.00,142.00 209.50,145.50 203.00,149.00 196.50,145.50" fill="#161b22" stroke="#0d1117" stroke-width="0.65"/>
<polygon points="190.00,142.00 196.50,145.50 190.00,149.00 183.50,145.50" fill="#161b22" stroke="#0d1117" stroke-width="0.65"/>
<polygon points="274.50,145.50 281.00,149.00 274.50,152.50 268.00,149.00" fill="#161b22" stroke="#0d1117" stroke-width="0.65"/>
<polygon points="261.50,147.12 255.00,143.62 255.00,149.00 261.50,152.50" fill="#062013"/>
<polygon points="268.00,143.62 261.50,147.12 261.50,152.50 268.00,149.00" fill="#082b1a"/>
<polygon points="261.50,140.12 268.00,143.62 261.50,147.12 255.00,143.62" fill="#0e4429" stroke="#0d1117" stroke-width="0.65"/>
<polygon points="248.50,147.12 242.00,143.62 242.00,149.00 248.50,152.50" fill="#062013"/>
<polygon points="255.00,143.62 248.50,147.12 248.50,152.50 255.00,149.00" fill="#082b1a"/>
<polygon points="248.50,140.12 255.00,143.62 248.50,147.12 242.00,143.62" fill="#0e4429" stroke="#0d1117" stroke-width="0.65"/>
<polygon points="235.50,145.50 242.00,149.00 235.50,152.50 229.00,149.00" fill="#161b22" stroke="#0d1117" stroke-width="0.65"/>
<polygon points="222.50,145.50 229.00,149.00 222.50,152.50 216.00,149.00" fill="#161b22" stroke="#0d1117" stroke-width="0.65"/>
<polygon points="209.50,145.50 216.00,149.00 209.50,152.50 203.00,149.00" fill="#161b22" stroke="#0d1117" stroke-width="0.65"/>
<polygon points="196.50,145.50 203.00,149.00 196.50,152.50 190.00,149.00" fill="#161b22" stroke="#0d1117" stroke-width="0.65"/>
<polygon points="281.00,149.00 287.50,152.50 281.00,156.00 274.50,152.50" fill="#161b22" stroke="#0d1117" stroke-width="0.65"/>
<polygon points="268.00,149.00 274.50,152.50 268.00,156.00 261.50,152.50" fill="#161b22" stroke="#0d1117" stroke-width="0.65"/>
<polygon points="255.00,147.47 248.50,143.97 248.50,152.50 255.00,156.00" fill="#003418"/>
<polygon points="261.50,143.97 255.00,147.47 255.00,156.00 261.50,152.50" fill="#004520"/>
<polygon points="255.00,140.47 261.50,143.97 255.00,147.47 248.50,143.97" fill="#006d32" stroke="#0d1117" stroke-width="0.65"/>
<polygon points="242.00,150.62 235.50,147.12 235.50,152.50 242.00,156.00" fill="#062013"/>
<polygon points="248.50,147.12 242.00,150.62 242.00,156.00 248.50,152.50" fill="#082b1a"/>
<polygon points="242.00,143.62 248.50,147.12 242.00,150.62 235.50,147.12" fill="#0e4429" stroke="#0d1117" stroke-width="0.65"/>
<polygon points="229.00,149.00 235.50,152.50 229.00,156.00 222.50,152.50" fill="#161b22" stroke="#0d1117" stroke-width="0.65"/>
<polygon points="216.00,142.09 209.50,138.59 209.50,152.50 216.00,156.00" fill="#124f1f"/>
<polygon points="222.50,138.59 216.00,142.09 216.00,156.00 222.50,152.50" fill="#186a29"/>
<polygon points="216.00,135.09 222.50,138.59 216.00,142.09 209.50,138.59" fill="#26a641" stroke="#0d1117" stroke-width="0.65"/>
<polygon points="203.00,147.47 196.50,143.97 196.50,152.50 203.00,156.00" fill="#003418"/>
<polygon points="209.50,143.97 203.00,147.47 203.00,156.00 209.50,152.50" fill="#004520"/>
<polygon points="203.00,140.47 209.50,143.97 203.00,147.47 196.50,143.97" fill="#006d32" stroke="#0d1117" stroke-width="0.65"/>
<polygon points="287.50,152.50 294.00,156.00 287.50,159.50 281.00,156.00" fill="#161b22" stroke="#0d1117" stroke-width="0.65"/>
<polygon points="274.50,154.12 268.00,150.62 268.00,156.00 274.50,159.50" fill="#062013"/>
<polygon points="281.00,150.62 274.50,154.12 274.50,159.50 281.00,156.00" fill="#082b1a"/>
<polygon points="274.50,147.12 281.00,150.62 274.50,154.12 268.00,150.62" fill="#0e4429" stroke="#0d1117" stroke-width="0.65"/>
<polygon points="261.50,152.50 268.00,156.00 261.50,159.50 255.00,156.00" fill="#161b22" stroke="#0d1117" stroke-width="0.65"/>
<polygon points="248.50,152.50 255.00,156.00 248.50,159.50 242.00,156.00" fill="#161b22" stroke="#0d1117" stroke-width="0.65"/>
<polygon points="235.50,150.97 229.00,147.47 229.00,156.00 235.50,159.50" fill="#003418"/>
<polygon points="242.00,147.47 235.50,150.97 235.50,159.50 242.00,156.00" fill="#004520"/>
<polygon points="235.50,143.97 242.00,147.47 235.50,150.97 229.00,147.47" fill="#006d32" stroke="#0d1117" stroke-width="0.65"/>
<polygon points="222.50,150.97 216.00,147.47 216.00,156.00 222.50,159.50" fill="#003418"/>
<polygon points="229.00,147.47 222.50,150.97 222.50,159.50 229.00,156.00" fill="#004520"/>
<polygon points="222.50,143.97 229.00,147.47 222.50,150.97 216.00,147.47" fill="#006d32" stroke="#0d1117" stroke-width="0.65"/>
<polygon points="209.50,152.50 216.00,156.00 209.50,159.50 203.00,156.00" fill="#161b22" stroke="#0d1117" stroke-width="0.65"/>
<polygon points="294.00,156.00 300.50,159.50 294.00,163.00 287.50,159.50" fill="#161b22" stroke="#0d1117" stroke-width="0.65"/>
<polygon points="281.00,156.00 287.50,159.50 281.00,163.00 274.50,159.50" fill="#161b22" stroke="#0d1117" stroke-width="0.65"/>
<polygon points="268.00,156.00 274.50,159.50 268.00,163.00 261.50,159.50" fill="#161b22" stroke="#0d1117" stroke-width="0.65"/>
<polygon points="255.00,157.62 248.50,154.12 248.50,159.50 255.00,163.00" fill="#062013"/>
<polygon points="261.50,154.12 255.00,157.62 255.00,163.00 261.50,159.50" fill="#082b1a"/>
<polygon points="255.00,150.62 261.50,154.12 255.00,157.62 248.50,154.12" fill="#0e4429" stroke="#0d1117" stroke-width="0.65"/>
<polygon points="242.00,156.00 248.50,159.50 242.00,163.00 235.50,159.50" fill="#161b22" stroke="#0d1117" stroke-width="0.65"/>
<polygon points="229.00,157.62 222.50,154.12 222.50,159.50 229.00,163.00" fill="#062013"/>
<polygon points="235.50,154.12 229.00,157.62 229.00,163.00 235.50,159.50" fill="#082b1a"/>
<polygon points="229.00,150.62 235.50,154.12 229.00,157.62 222.50,154.12" fill="#0e4429" stroke="#0d1117" stroke-width="0.65"/>
<polygon points="216.00,154.47 209.50,150.97 209.50,159.50 216.00,163.00" fill="#003418"/>
<polygon points="222.50,150.97 216.00,154.47 216.00,163.00 222.50,159.50" fill="#004520"/>
<polygon points="216.00,147.47 222.50,150.97 216.00,154.47 209.50,150.97" fill="#006d32" stroke="#0d1117" stroke-width="0.65"/>
<polygon points="300.50,159.50 307.00,163.00 300.50,166.50 294.00,163.00" fill="#161b22" stroke="#0d1117" stroke-width="0.65"/>
<polygon points="287.50,161.12 281.00,157.62 281.00,163.00 287.50,166.50" fill="#062013"/>
<polygon points="294.00,157.62 287.50,161.12 287.50,166.50 294.00,163.00" fill="#082b1a"/>
<polygon points="287.50,154.12 294.00,157.62 287.50,161.12 281.00,157.62" fill="#0e4429" stroke="#0d1117" stroke-width="0.65"/>
<polygon points="274.50,161.12 268.00,157.62 268.00,163.00 274.50,166.50" fill="#062013"/>
<polygon points="281.00,157.62 274.50,161.12 274.50,166.50 281.00,163.00" fill="#082b1a"/>
<polygon points="274.50,154.12 281.00,157.62 274.50,161.12 268.00,157.62" fill="#0e4429" stroke="#0d1117" stroke-width="0.65"/>
<polygon points="261.50,159.50 268.00,163.00 261.50,166.50 255.00,163.00" fill="#161b22" stroke="#0d1117" stroke-width="0.65"/>
<polygon points="248.50,161.12 242.00,157.62 242.00,163.00 248.50,166.50" fill="#062013"/>
<polygon points="255.00,157.62 248.50,161.12 248.50,166.50 255.00,163.00" fill="#082b1a"/>
<polygon points="248.50,154.12 255.00,157.62 248.50,161.12 242.00,157.62" fill="#0e4429" stroke="#0d1117" stroke-width="0.65"/>
<polygon points="235.50,159.50 242.00,163.00 235.50,166.50 229.00,163.00" fill="#161b22" stroke="#0d1117" stroke-width="0.65"/>
<polygon points="222.50,157.97 216.00,154.47 216.00,163.00 222.50,166.50" fill="#003418"/>
<polygon points="229.00,154.47 222.50,157.97 222.50,166.50 229.00,163.00" fill="#004520"/>
<polygon points="222.50,150.97 229.00,154.47 222.50,157.97 216.00,154.47" fill="#006d32" stroke="#0d1117" stroke-width="0.65"/>
<polygon points="307.00,163.00 313.50,166.50 307.00,170.00 300.50,166.50" fill="#161b22" stroke="#0d1117" stroke-width="0.65"/>
<polygon points="294.00,163.00 300.50,166.50 294.00,170.00 287.50,166.50" fill="#161b22" stroke="#0d1117" stroke-width="0.65"/>
<polygon points="281.00,163.00 287.50,166.50 281.00,170.00 274.50,166.50" fill="#161b22" stroke="#0d1117" stroke-width="0.65"/>
<polygon points="268.00,164.62 261.50,161.12 261.50,166.50 268.00,170.00" fill="#062013"/>
<polygon points="274.50,161.12 268.00,164.62 268.00,170.00 274.50,166.50" fill="#082b1a"/>
<polygon points="268.00,157.62 274.50,161.12 268.00,164.62 261.50,161.12" fill="#0e4429" stroke="#0d1117" stroke-width="0.65"/>
<polygon points="255.00,163.00 261.50,166.50 255.00,170.00 248.50,166.50" fill="#161b22" stroke="#0d1117" stroke-width="0.65"/>
<polygon points="242.00,163.00 248.50,166.50 242.00,170.00 235.50,166.50" fill="#161b22" stroke="#0d1117" stroke-width="0.65"/>
<polygon points="229.00,163.00 235.50,166.50 229.00,170.00 222.50,166.50" fill="#161b22" stroke="#0d1117" stroke-width="0.65"/>
<polygon points="313.50,166.50 320.00,170.00 313.50,173.50 307.00,170.00" fill="#161b22" stroke="#0d1117" stroke-width="0.65"/>
<polygon points="300.50,166.50 307.00,170.00 300.50,173.50 294.00,170.00" fill="#161b22" stroke="#0d1117" stroke-width="0.65"/>
<polygon points="287.50,166.50 294.00,170.00 287.50,173.50 281.00,170.00" fill="#161b22" stroke="#0d1117" stroke-width="0.65"/>
<polygon points="274.50,166.50 281.00,170.00 274.50,173.50 268.00,170.00" fill="#161b22" stroke="#0d1117" stroke-width="0.65"/>
<polygon points="261.50,166.50 268.00,170.00 261.50,173.50 255.00,170.00" fill="#161b22" stroke="#0d1117" stroke-width="0.65"/>
<polygon points="248.50,166.50 255.00,170.00 248.50,173.50 242.00,170.00" fill="#161b22" stroke="#0d1117" stroke-width="0.65"/>
<polygon points="235.50,164.97 229.00,161.47 229.00,170.00 235.50,173.50" fill="#003418"/>
<polygon points="242.00,161.47 235.50,164.97 235.50,173.50 242.00,170.00" fill="#004520"/>
<polygon points="235.50,157.97 242.00,161.47 235.50,164.97 229.00,161.47" fill="#006d32" stroke="#0d1117" stroke-width="0.65"/>
<polygon points="320.00,170.00 326.50,173.50 320.00,177.00 313.50,173.50" fill="#161b22" stroke="#0d1117" stroke-width="0.65"/>
<polygon points="307.00,170.00 313.50,173.50 307.00,177.00 300.50,173.50" fill="#161b22" stroke="#0d1117" stroke-width="0.65"/>
<polygon points="294.00,170.00 300.50,173.50 294.00,177.00 287.50,173.50" fill="#161b22" stroke="#0d1117" stroke-width="0.65"/>
<polygon points="281.00,170.00 287.50,173.50 281.00,177.00 274.50,173.50" fill="#161b22" stroke="#0d1117" stroke-width="0.65"/>
<polygon points="268.00,166.24 261.50,162.74 261.50,173.50 268.00,177.00" fill="#003418"/>
<polygon points="274.50,162.74 268.00,166.24 268.00,177.00 274.50,173.50" fill="#004520"/>
<polygon points="268.00,159.24 274.50,162.74 268.00,166.24 261.50,162.74" fill="#006d32" stroke="#0d1117" stroke-width="0.65"/>
<polygon points="255.00,170.00 261.50,173.50 255.00,177.00 248.50,173.50" fill="#161b22" stroke="#0d1117" stroke-width="0.65"/>
<polygon points="242.00,171.62 235.50,168.12 235.50,173.50 242.00,177.00" fill="#062013"/>
<polygon points="248.50,168.12 242.00,171.62 242.00,177.00 248.50,173.50" fill="#082b1a"/>
<polygon points="242.00,164.62 248.50,168.12 242.00,171.62 235.50,168.12" fill="#0e4429" stroke="#0d1117" stroke-width="0.65"/>
<polygon points="326.50,173.50 333.00,177.00 326.50,180.50 320.00,177.00" fill="#161b22" stroke="#0d1117" stroke-width="0.65"/>
<polygon points="313.50,173.50 320.00,177.00 313.50,180.50 307.00,177.00" fill="#161b22" stroke="#0d1117" stroke-width="0.65"/>
<polygon points="300.50,173.50 307.00,177.00 300.50,180.50 294.00,177.00" fill="#161b22" stroke="#0d1117" stroke-width="0.65"/>
<polygon points="287.50,173.50 294.00,177.00 287.50,180.50 281.00,177.00" fill="#161b22" stroke="#0d1117" stroke-width="0.65"/>
<polygon points="274.50,173.50 281.00,177.00 274.50,180.50 268.00,177.00" fill="#161b22" stroke="#0d1117" stroke-width="0.65"/>
<polygon points="261.50,173.50 268.00,177.00 261.50,180.50 255.00,177.00" fill="#161b22" stroke="#0d1117" stroke-width="0.65"/>
<polygon points="248.50,173.50 255.00,177.00 248.50,180.50 242.00,177.00" fill="#161b22" stroke="#0d1117" stroke-width="0.65"/>
<polygon points="333.00,177.00 339.50,180.50 333.00,184.00 326.50,180.50" fill="#161b22" stroke="#0d1117" stroke-width="0.65"/>
<polygon points="320.00,178.62 313.50,175.12 313.50,180.50 320.00,184.00" fill="#062013"/>
<polygon points="326.50,175.12 320.00,178.62 320.00,184.00 326.50,180.50" fill="#082b1a"/>
<polygon points="320.00,171.62 326.50,175.12 320.00,178.62 313.50,175.12" fill="#0e4429" stroke="#0d1117" stroke-width="0.65"/>
<polygon points="307.00,177.00 313.50,180.50 307.00,184.00 300.50,180.50" fill="#161b22" stroke="#0d1117" stroke-width="0.65"/>
<polygon points="294.00,177.00 300.50,180.50 294.00,184.00 287.50,180.50" fill="#161b22" stroke="#0d1117" stroke-width="0.65"/>
<polygon points="281.00,178.62 274.50,175.12 274.50,180.50 281.00,184.00" fill="#062013"/>
<polygon points="287.50,175.12 281.00,178.62 281.00,184.00 287.50,180.50" fill="#082b1a"/>
<polygon points="281.00,171.62 287.50,175.12 281.00,178.62 274.50,175.12" fill="#0e4429" stroke="#0d1117" stroke-width="0.65"/>
<polygon points="268.00,177.00 274.50,180.50 268.00,184.00 261.50,180.50" fill="#161b22" stroke="#0d1117" stroke-width="0.65"/>
<polygon points="255.00,177.00 261.50,180.50 255.00,184.00 248.50,180.50" fill="#161b22" stroke="#0d1117" stroke-width="0.65"/>
<polygon points="339.50,180.50 346.00,184.00 339.50,187.50 333.00,184.00" fill="#161b22" stroke="#0d1117" stroke-width="0.65"/>
<polygon points="326.50,175.00 320.00,171.50 320.00,184.00 326.50,187.50" fill="#003418"/>
<polygon points="333.00,171.50 326.50,175.00 326.50,187.50 333.00,184.00" fill="#004520"/>
<polygon points="326.50,168.00 333.00,171.50 326.50,175.00 320.00,171.50" fill="#006d32" stroke="#0d1117" stroke-width="0.65"/>
<polygon points="313.50,182.12 307.00,178.62 307.00,184.00 313.50,187.50" fill="#062013"/>
<polygon points="320.00,178.62 313.50,182.12 313.50,187.50 320.00,184.00" fill="#082b1a"/>
<polygon points="313.50,175.12 320.00,178.62 313.50,182.12 307.00,178.62" fill="#0e4429" stroke="#0d1117" stroke-width="0.65"/>
<polygon points="300.50,180.50 307.00,184.00 300.50,187.50 294.00,184.00" fill="#161b22" stroke="#0d1117" stroke-width="0.65"/>
<polygon points="287.50,180.50 294.00,184.00 287.50,187.50 281.00,184.00" fill="#161b22" stroke="#0d1117" stroke-width="0.65"/>
<polygon points="274.50,180.50 281.00,184.00 274.50,187.50 268.00,184.00" fill="#161b22" stroke="#0d1117" stroke-width="0.65"/>
<polygon points="261.50,180.50 268.00,184.00 261.50,187.50 255.00,184.00" fill="#161b22" stroke="#0d1117" stroke-width="0.65"/>
<polygon points="346.00,184.00 352.50,187.50 346.00,191.00 339.50,187.50" fill="#161b22" stroke="#0d1117" stroke-width="0.65"/>
<polygon points="333.00,185.62 326.50,182.12 326.50,187.50 333.00,191.00" fill="#062013"/>
<polygon points="339.50,182.12 333.00,185.62 333.00,191.00 339.50,187.50" fill="#082b1a"/>
<polygon points="333.00,178.62 339.50,182.12 333.00,185.62 326.50,182.12" fill="#0e4429" stroke="#0d1117" stroke-width="0.65"/>
<polygon points="320.00,184.00 326.50,187.50 320.00,191.00 313.50,187.50" fill="#161b22" stroke="#0d1117" stroke-width="0.65"/>
<polygon points="307.00,184.00 313.50,187.50 307.00,191.00 300.50,187.50" fill="#161b22" stroke="#0d1117" stroke-width="0.65"/>
<polygon points="294.00,184.00 300.50,187.50 294.00,191.00 287.50,187.50" fill="#161b22" stroke="#0d1117" stroke-width="0.65"/>
<polygon points="281.00,184.00 287.50,187.50 281.00,191.00 274.50,187.50" fill="#161b22" stroke="#0d1117" stroke-width="0.65"/>
<polygon points="268.00,184.00 274.50,187.50 268.00,191.00 261.50,187.50" fill="#161b22" stroke="#0d1117" stroke-width="0.65"/>
<polygon points="352.50,187.50 359.00,191.00 352.50,194.50 346.00,191.00" fill="#161b22" stroke="#0d1117" stroke-width="0.65"/>
<polygon points="339.50,187.50 346.00,191.00 339.50,194.50 333.00,191.00" fill="#161b22" stroke="#0d1117" stroke-width="0.65"/>
<polygon points="326.50,187.50 333.00,191.00 326.50,194.50 320.00,191.00" fill="#161b22" stroke="#0d1117" stroke-width="0.65"/>
<polygon points="313.50,187.50 320.00,191.00 313.50,194.50 307.00,191.00" fill="#161b22" stroke="#0d1117" stroke-width="0.65"/>
<polygon points="300.50,187.50 307.00,191.00 300.50,194.50 294.00,191.00" fill="#161b22" stroke="#0d1117" stroke-width="0.65"/>
<polygon points="287.50,187.50 294.00,191.00 287.50,194.50 281.00,191.00" fill="#161b22" stroke="#0d1117" stroke-width="0.65"/>
<polygon points="274.50,187.50 281.00,191.00 274.50,194.50 268.00,191.00" fill="#161b22" stroke="#0d1117" stroke-width="0.65"/>
<polygon points="359.00,191.00 365.50,194.50 359.00,198.00 352.50,194.50" fill="#161b22" stroke="#0d1117" stroke-width="0.65"/>
<polygon points="346.00,191.00 352.50,194.50 346.00,198.00 339.50,194.50" fill="#161b22" stroke="#0d1117" stroke-width="0.65"/>
<polygon points="333.00,191.00 339.50,194.50 333.00,198.00 326.50,194.50" fill="#161b22" stroke="#0d1117" stroke-width="0.65"/>
<polygon points="320.00,191.00 326.50,194.50 320.00,198.00 313.50,194.50" fill="#161b22" stroke="#0d1117" stroke-width="0.65"/>
<polygon points="307.00,191.00 313.50,194.50 307.00,198.00 300.50,194.50" fill="#161b22" stroke="#0d1117" stroke-width="0.65"/>
<polygon points="294.00,191.00 300.50,194.50 294.00,198.00 287.50,194.50" fill="#161b22" stroke="#0d1117" stroke-width="0.65"/>
<polygon points="281.00,189.47 274.50,185.97 274.50,194.50 281.00,198.00" fill="#003418"/>
<polygon points="287.50,185.97 281.00,189.47 281.00,198.00 287.50,194.50" fill="#004520"/>
<polygon points="281.00,182.47 287.50,185.97 281.00,189.47 274.50,185.97" fill="#006d32" stroke="#0d1117" stroke-width="0.65"/>
<polygon points="365.50,194.50 372.00,198.00 365.50,201.50 359.00,198.00" fill="#161b22" stroke="#0d1117" stroke-width="0.65"/>
<polygon points="352.50,194.50 359.00,198.00 352.50,201.50 346.00,198.00" fill="#161b22" stroke="#0d1117" stroke-width="0.65"/>
<polygon points="339.50,194.50 346.00,198.00 339.50,201.50 333.00,198.00" fill="#161b22" stroke="#0d1117" stroke-width="0.65"/>
<polygon points="326.50,194.50 333.00,198.00 326.50,201.50 320.00,198.00" fill="#161b22" stroke="#0d1117" stroke-width="0.65"/>
<polygon points="313.50,194.50 320.00,198.00 313.50,201.50 307.00,198.00" fill="#161b22" stroke="#0d1117" stroke-width="0.65"/>
<polygon points="300.50,192.97 294.00,189.47 294.00,198.00 300.50,201.50" fill="#003418"/>
<polygon points="307.00,189.47 300.50,192.97 300.50,201.50 307.00,198.00" fill="#004520"/>
<polygon points="300.50,185.97 307.00,189.47 300.50,192.97 294.00,189.47" fill="#006d32" stroke="#0d1117" stroke-width="0.65"/>
<polygon points="287.50,194.50 294.00,198.00 287.50,201.50 281.00,198.00" fill="#161b22" stroke="#0d1117" stroke-width="0.65"/>
<polygon points="372.00,198.00 378.50,201.50 372.00,205.00 365.50,201.50" fill="#161b22" stroke="#0d1117" stroke-width="0.65"/>
<polygon points="359.00,198.00 365.50,201.50 359.00,205.00 352.50,201.50" fill="#161b22" stroke="#0d1117" stroke-width="0.65"/>
<polygon points="346.00,198.00 352.50,201.50 346.00,205.00 339.50,201.50" fill="#161b22" stroke="#0d1117" stroke-width="0.65"/>
<polygon points="333.00,198.00 339.50,201.50 333.00,205.00 326.50,201.50" fill="#161b22" stroke="#0d1117" stroke-width="0.65"/>
<polygon points="320.00,198.00 326.50,201.50 320.00,205.00 313.50,201.50" fill="#161b22" stroke="#0d1117" stroke-width="0.65"/>
<polygon points="307.00,199.62 300.50,196.12 300.50,201.50 307.00,205.00" fill="#062013"/>
<polygon points="313.50,196.12 307.00,199.62 307.00,205.00 313.50,201.50" fill="#082b1a"/>
<polygon points="307.00,192.62 313.50,196.12 307.00,199.62 300.50,196.12" fill="#0e4429" stroke="#0d1117" stroke-width="0.65"/>
<polygon points="294.00,199.62 287.50,196.12 287.50,201.50 294.00,205.00" fill="#062013"/>
<polygon points="300.50,196.12 294.00,199.62 294.00,205.00 300.50,201.50" fill="#082b1a"/>
<polygon points="294.00,192.62 300.50,196.12 294.00,199.62 287.50,196.12" fill="#0e4429" stroke="#0d1117" stroke-width="0.65"/>
<polygon points="378.50,201.50 385.00,205.00 378.50,208.50 372.00,205.00" fill="#161b22" stroke="#0d1117" stroke-width="0.65"/>
<polygon points="365.50,201.50 372.00,205.00 365.50,208.50 359.00,205.00" fill="#161b22" stroke="#0d1117" stroke-width="0.65"/>
<polygon points="352.50,201.50 359.00,205.00 352.50,208.50 346.00,205.00" fill="#161b22" stroke="#0d1117" stroke-width="0.65"/>
<polygon points="339.50,201.50 346.00,205.00 339.50,208.50 333.00,205.00" fill="#161b22" stroke="#0d1117" stroke-width="0.65"/>
<polygon points="326.50,201.50 333.00,205.00 326.50,208.50 320.00,205.00" fill="#161b22" stroke="#0d1117" stroke-width="0.65"/>
<polygon points="313.50,201.50 320.00,205.00 313.50,208.50 307.00,205.00" fill="#161b22" stroke="#0d1117" stroke-width="0.65"/>
<polygon points="300.50,201.50 307.00,205.00 300.50,208.50 294.00,205.00" fill="#161b22" stroke="#0d1117" stroke-width="0.65"/>
<polygon points="385.00,205.00 391.50,208.50 385.00,212.00 378.50,208.50" fill="#161b22" stroke="#0d1117" stroke-width="0.65"/>
<polygon points="372.00,205.00 378.50,208.50 372.00,212.00 365.50,208.50" fill="#161b22" stroke="#0d1117" stroke-width="0.65"/>
<polygon points="359.00,205.00 365.50,208.50 359.00,212.00 352.50,208.50" fill="#161b22" stroke="#0d1117" stroke-width="0.65"/>
<polygon points="346.00,205.00 352.50,208.50 346.00,212.00 339.50,208.50" fill="#161b22" stroke="#0d1117" stroke-width="0.65"/>
<polygon points="333.00,201.24 326.50,197.74 326.50,208.50 333.00,212.00" fill="#003418"/>
<polygon points="339.50,197.74 333.00,201.24 333.00,212.00 339.50,208.50" fill="#004520"/>
<polygon points="333.00,194.24 339.50,197.74 333.00,201.24 326.50,197.74" fill="#006d32" stroke="#0d1117" stroke-width="0.65"/>
<polygon points="320.00,205.00 326.50,208.50 320.00,212.00 313.50,208.50" fill="#161b22" stroke="#0d1117" stroke-width="0.65"/>
<polygon points="307.00,205.00 313.50,208.50 307.00,212.00 300.50,208.50" fill="#161b22" stroke="#0d1117" stroke-width="0.65"/>
<polygon points="391.50,208.50 398.00,212.00 391.50,215.50 385.00,212.00" fill="#161b22" stroke="#0d1117" stroke-width="0.65"/>
<polygon points="378.50,208.50 385.00,212.00 378.50,215.50 372.00,212.00" fill="#161b22" stroke="#0d1117" stroke-width="0.65"/>
<polygon points="365.50,208.50 372.00,212.00 365.50,215.50 359.00,212.00" fill="#161b22" stroke="#0d1117" stroke-width="0.65"/>
<polygon points="352.50,208.50 359.00,212.00 352.50,215.50 346.00,212.00" fill="#161b22" stroke="#0d1117" stroke-width="0.65"/>
<polygon points="339.50,208.50 346.00,212.00 339.50,215.50 333.00,212.00" fill="#161b22" stroke="#0d1117" stroke-width="0.65"/>
<polygon points="326.50,208.50 333.00,212.00 326.50,215.50 320.00,212.00" fill="#161b22" stroke="#0d1117" stroke-width="0.65"/>
<polygon points="313.50,208.50 320.00,212.00 313.50,215.50 307.00,212.00" fill="#161b22" stroke="#0d1117" stroke-width="0.65"/>
<polygon points="398.00,212.00 404.50,215.50 398.00,219.00 391.50,215.50" fill="#161b22" stroke="#0d1117" stroke-width="0.65"/>
<polygon points="385.00,212.00 391.50,215.50 385.00,219.00 378.50,215.50" fill="#161b22" stroke="#0d1117" stroke-width="0.65"/>
<polygon points="372.00,212.00 378.50,215.50 372.00,219.00 365.50,215.50" fill="#161b22" stroke="#0d1117" stroke-width="0.65"/>
<polygon points="359.00,212.00 365.50,215.50 359.00,219.00 352.50,215.50" fill="#161b22" stroke="#0d1117" stroke-width="0.65"/>
<polygon points="346.00,212.00 352.50,215.50 346.00,219.00 339.50,215.50" fill="#161b22" stroke="#0d1117" stroke-width="0.65"/>
<polygon points="333.00,212.00 339.50,215.50 333.00,219.00 326.50,215.50" fill="#161b22" stroke="#0d1117" stroke-width="0.65"/>
<polygon points="320.00,212.00 326.50,215.50 320.00,219.00 313.50,215.50" fill="#161b22" stroke="#0d1117" stroke-width="0.65"/>
<polygon points="404.50,215.50 411.00,219.00 404.50,222.50 398.00,219.00" fill="#161b22" stroke="#0d1117" stroke-width="0.65"/>
<polygon points="391.50,215.50 398.00,219.00 391.50,222.50 385.00,219.00" fill="#161b22" stroke="#0d1117" stroke-width="0.65"/>
<polygon points="378.50,215.50 385.00,219.00 378.50,222.50 372.00,219.00" fill="#161b22" stroke="#0d1117" stroke-width="0.65"/>
<polygon points="365.50,215.50 372.00,219.00 365.50,222.50 359.00,219.00" fill="#161b22" stroke="#0d1117" stroke-width="0.65"/>
<polygon points="352.50,215.50 359.00,219.00 352.50,222.50 346.00,219.00" fill="#161b22" stroke="#0d1117" stroke-width="0.65"/>
<polygon points="339.50,215.50 346.00,219.00 339.50,222.50 333.00,219.00" fill="#161b22" stroke="#0d1117" stroke-width="0.65"/>
<polygon points="326.50,215.50 333.00,219.00 326.50,222.50 320.00,219.00" fill="#161b22" stroke="#0d1117" stroke-width="0.65"/>
<polygon points="411.00,208.12 404.50,204.62 404.50,222.50 411.00,226.00" fill="#124f1f"/>
<polygon points="417.50,204.62 411.00,208.12 411.00,226.00 417.50,222.50" fill="#186a29"/>
<polygon points="411.00,201.12 417.50,204.62 411.00,208.12 404.50,204.62" fill="#26a641" stroke="#0d1117" stroke-width="0.65"/>
<polygon points="398.00,219.00 404.50,222.50 398.00,226.00 391.50,222.50" fill="#161b22" stroke="#0d1117" stroke-width="0.65"/>
<polygon points="385.00,219.00 391.50,222.50 385.00,226.00 378.50,222.50" fill="#161b22" stroke="#0d1117" stroke-width="0.65"/>
<polygon points="372.00,219.00 378.50,222.50 372.00,226.00 365.50,222.50" fill="#161b22" stroke="#0d1117" stroke-width="0.65"/>
<polygon points="359.00,219.00 365.50,222.50 359.00,226.00 352.50,222.50" fill="#161b22" stroke="#0d1117" stroke-width="0.65"/>
<polygon points="346.00,219.00 352.50,222.50 346.00,226.00 339.50,222.50" fill="#161b22" stroke="#0d1117" stroke-width="0.65"/>
<polygon points="333.00,219.00 339.50,222.50 333.00,226.00 326.50,222.50" fill="#161b22" stroke="#0d1117" stroke-width="0.65"/>
<polygon points="417.50,222.50 424.00,226.00 417.50,229.50 411.00,226.00" fill="#161b22" stroke="#0d1117" stroke-width="0.65"/>
<polygon points="404.50,224.12 398.00,220.62 398.00,226.00 404.50,229.50" fill="#062013"/>
<polygon points="411.00,220.62 404.50,224.12 404.50,229.50 411.00,226.00" fill="#082b1a"/>
<polygon points="404.50,217.12 411.00,220.62 404.50,224.12 398.00,220.62" fill="#0e4429" stroke="#0d1117" stroke-width="0.65"/>
<polygon points="391.50,222.50 398.00,226.00 391.50,229.50 385.00,226.00" fill="#161b22" stroke="#0d1117" stroke-width="0.65"/>
<polygon points="378.50,217.00 372.00,213.50 372.00,226.00 378.50,229.50" fill="#003418"/>
<polygon points="385.00,213.50 378.50,217.00 378.50,229.50 385.00,226.00" fill="#004520"/>
<polygon points="378.50,210.00 385.00,213.50 378.50,217.00 372.00,213.50" fill="#006d32" stroke="#0d1117" stroke-width="0.65"/>
<polygon points="365.50,222.50 372.00,226.00 365.50,229.50 359.00,226.00" fill="#161b22" stroke="#0d1117" stroke-width="0.65"/>
<polygon points="352.50,222.50 359.00,226.00 352.50,229.50 346.00,226.00" fill="#161b22" stroke="#0d1117" stroke-width="0.65"/>
<polygon points="339.50,222.50 346.00,226.00 339.50,229.50 333.00,226.00" fill="#161b22" stroke="#0d1117" stroke-width="0.65"/>
<polygon points="411.00,226.00 417.50,229.50 411.00,233.00 404.50,229.50" fill="#161b22" stroke="#0d1117" stroke-width="0.65"/>
<polygon points="398.00,227.62 391.50,224.12 391.50,229.50 398.00,233.00" fill="#062013"/>
<polygon points="404.50,224.12 398.00,227.62 398.00,233.00 404.50,229.50" fill="#082b1a"/>
<polygon points="398.00,220.62 404.50,224.12 398.00,227.62 391.50,224.12" fill="#0e4429" stroke="#0d1117" stroke-width="0.65"/>
<polygon points="385.00,211.97 378.50,208.47 378.50,229.50 385.00,233.00" fill="#1b6527"/>
<polygon points="391.50,208.47 385.00,211.97 385.00,233.00 391.50,229.50" fill="#248735"/>
<polygon points="385.00,204.97 391.50,208.47 385.00,211.97 378.50,208.47" fill="#39d353" stroke="#0d1117" stroke-width="0.65"/>
<polygon points="372.00,226.00 378.50,229.50 372.00,233.00 365.50,229.50" fill="#161b22" stroke="#0d1117" stroke-width="0.65"/>
<polygon points="359.00,226.00 365.50,229.50 359.00,233.00 352.50,229.50" fill="#161b22" stroke="#0d1117" stroke-width="0.65"/>
<polygon points="346.00,226.00 352.50,229.50 346.00,233.00 339.50,229.50" fill="#161b22" stroke="#0d1117" stroke-width="0.65"/>
<polygon points="404.50,231.12 398.00,227.62 398.00,233.00 404.50,236.50" fill="#062013"/>
<polygon points="411.00,227.62 404.50,231.12 404.50,236.50 411.00,233.00" fill="#082b1a"/>
<polygon points="404.50,224.12 411.00,227.62 404.50,231.12 398.00,227.62" fill="#0e4429" stroke="#0d1117" stroke-width="0.65"/>
<polygon points="391.50,229.50 398.00,233.00 391.50,236.50 385.00,233.00" fill="#161b22" stroke="#0d1117" stroke-width="0.65"/>
<polygon points="378.50,231.12 372.00,227.62 372.00,233.00 378.50,236.50" fill="#062013"/>
<polygon points="385.00,227.62 378.50,231.12 378.50,236.50 385.00,233.00" fill="#082b1a"/>
<polygon points="378.50,224.12 385.00,227.62 378.50,231.12 372.00,227.62" fill="#0e4429" stroke="#0d1117" stroke-width="0.65"/>
<polygon points="365.50,229.50 372.00,233.00 365.50,236.50 359.00,233.00" fill="#161b22" stroke="#0d1117" stroke-width="0.65"/>
<polygon points="352.50,229.50 359.00,233.00 352.50,236.50 346.00,233.00" fill="#161b22" stroke="#0d1117" stroke-width="0.65"/>
<polygon points="398.00,233.00 404.50,236.50 398.00,240.00 391.50,236.50" fill="#161b22" stroke="#0d1117" stroke-width="0.65"/>
<polygon points="385.00,233.00 391.50,236.50 385.00,240.00 378.50,236.50" fill="#161b22" stroke="#0d1117" stroke-width="0.65"/>
<polygon points="372.00,233.00 378.50,236.50 372.00,240.00 365.50,236.50" fill="#161b22" stroke="#0d1117" stroke-width="0.65"/>
<polygon points="359.00,224.89 352.50,221.39 352.50,236.50 359.00,240.00" fill="#124f1f"/>
<polygon points="365.50,221.39 359.00,224.89 359.00,240.00 365.50,236.50" fill="#186a29"/>
<polygon points="359.00,217.89 365.50,221.39 359.00,224.89 352.50,221.39" fill="#26a641" stroke="#0d1117" stroke-width="0.65"/>
<polygon points="391.50,236.50 398.00,240.00 391.50,243.50 385.00,240.00" fill="#161b22" stroke="#0d1117" stroke-width="0.65"/>
<polygon points="378.50,238.12 372.00,234.62 372.00,240.00 378.50,243.50" fill="#062013"/>
<polygon points="385.00,234.62 378.50,238.12 378.50,243.50 385.00,240.00" fill="#082b1a"/>
<polygon points="378.50,231.12 385.00,234.62 378.50,238.12 372.00,234.62" fill="#0e4429" stroke="#0d1117" stroke-width="0.65"/>
<polygon points="365.50,234.97 359.00,231.47 359.00,240.00 365.50,243.50" fill="#003418"/>
<polygon points="372.00,231.47 365.50,234.97 365.50,243.50 372.00,240.00" fill="#004520"/>
<polygon points="365.50,227.97 372.00,231.47 365.50,234.97 359.00,231.47" fill="#006d32" stroke="#0d1117" stroke-width="0.65"/>
<polygon points="385.00,225.00 378.50,221.50 378.50,243.50 385.00,247.00" fill="#1b6527"/>
<polygon points="391.50,221.50 385.00,225.00 385.00,247.00 391.50,243.50" fill="#248735"/>
<polygon points="385.00,218.00 391.50,221.50 385.00,225.00 378.50,221.50" fill="#39d353" stroke="#0d1117" stroke-width="0.65"/>
<polygon points="372.00,240.00 378.50,243.50 372.00,247.00 365.50,243.50" fill="#161b22" stroke="#0d1117" stroke-width="0.65"/>
<polygon points="378.50,243.50 385.00,247.00 378.50,250.50 372.00,247.00" fill="#161b22" stroke="#0d1117" stroke-width="0.65"/>
<polyline points="60.00,54.50 66.50,58.00 73.00,61.50 66.50,65.00 73.00,68.50 79.50,72.00 86.00,70.12 92.50,68.24 99.00,82.50 105.50,86.00 112.00,82.50 118.50,86.00 125.00,89.50 131.50,93.00 138.00,96.50 144.50,93.00 151.00,96.50 157.50,100.00 164.00,103.50 170.50,107.00 177.00,110.50 183.50,114.00 190.00,117.50 196.50,114.00 203.00,117.50 209.50,121.00 216.00,124.50 222.50,128.00 229.00,131.50 235.50,135.00 242.00,138.50 248.50,135.00 255.00,138.50 261.50,142.00 268.00,145.50 274.50,149.00 281.00,152.50 287.50,156.00 294.00,159.50 300.50,163.00 307.00,166.50 313.50,170.00 320.00,173.50 326.50,177.00 333.00,180.50 339.50,184.00 346.00,187.50 339.50,191.00 333.00,194.50 339.50,198.00 346.00,201.50 352.50,205.00 359.00,208.50 365.50,212.00 372.00,215.50 378.50,219.00 385.00,222.50 391.50,226.00 398.00,224.12 391.50,233.00 398.00,236.50" fill="none" stroke="#7B7B7B" stroke-width="3" stroke-linecap="round" stroke-linejoin="round"/>
<circle cx="60.00" cy="54.50" r="3.5" fill="#000000" stroke="#0d1117" stroke-width="1"/>
<circle cx="398.00" cy="236.50" r="3.5" fill="#000000" stroke="#0d1117" stroke-width="1"/>
</svg>