<svg xmlns="http://www.w3.org/2000/svg" width="812" height="130" viewBox="0 0 812 130" role="img">
<rect width="812" height="130" rx="12" fill="#0d1117"/>
<rect x="10.00" y="18.00" width="12" height="12" rx="3" fill="#161b22" opacity="0.35"/>
<rect x="25.00" y="18.00" width="12" height="12" rx="3" fill="#161b22" opacity="0.35"/>
<rect x="40.00" y="10.42" width="12" height="12" rx="3" fill="#39d353" opacity="0.97"/>
<rect x="55.00" y="18.00" width="12" height="12" rx="3" fill="#161b22" opacity="0.35"/>
<rect x="70.00" y="13.25" width="12" height="12" rx="3" fill="#006d32" opacity="0.74"/>
<rect x="85.00" y="14.75" width="12" height="12" rx="3" fill="#006d32" opacity="0.61"/>
<rect x="100.00" y="15.95" width="12" height="12" rx="3" fill="#0e4429" opacity="0.52"/>
<rect x="115.00" y="10.66" width="12" height="12" rx="3" fill="#39d353" opacity="0.95"/>
<rect x="130.00" y="13.90" width="12" height="12" rx="3" fill="#006d32" opacity="0.68"/>
<rect x="145.00" y="18.00" width="12" height="12" rx="3" fill="#161b22" opacity="0.35"/>
<rect x="160.00" y="18.00" width="12" height="12" rx="3" fill="#161b22" opacity="0.35"/>
<rect x="175.00" y="15.95" width="12" height="12" rx="3" fill="#0e4429" opacity="0.52"/>
<rect x="190.00" y="18.00" width="12" height="12" rx="3" fill="#161b22" opacity="0.35"/>
<rect x="205.00" y="18.00" width="12" height="12" rx="3" fill="#161b22" opacity="0.35"/>
<rect x="220.00" y="18.00" width="12" height="12" rx="3" fill="#161b22" opacity="0.35"/>
<rect x="235.00" y="18.00" width="12" height="12" rx="3" fill="#161b22" opacity="0.35"/>
<rect x="250.00" y="18.00" width="12" height="12" rx="3" fill="#161b22" opacity="0.35"/>
<rect x="265.00" y="18.00" width="12" height="12" rx="3" fill="#161b22" opacity="0.35"/>
<rect x="280.00" y="18.00" width="12" height="12" rx="3" fill="#161b22" opacity="0.35"/>
<rect x="295.00" y="18.00" width="12" height="12" rx="3" fill="#161b22" opacity="0.35"/>
<rect x="310.00" y="13.90" width="12" height="12" rx="3" fill="#006d32" opacity="0.68"/>
<rect x="325.00" y="18.00" width="12" height="12" rx="3" fill="#161b22" opacity="0.35"/>
<rect x="340.00" y="18.00" width="12" height="12" rx="3" fill="#161b22" opacity="0.35"/>
<rect x="355.00" y="18.00" width="12" height="12" rx="3" fill="#161b22" opacity="0.35"/>
<rect x="370.00" y="18.00" width="12" height="12" rx="3" fill="#161b22" opacity="0.35"/>
<rect x="385.00" y="18.00" width="12" height="12" rx="3" fill="#161b22" opacity="0.35"/>
<rect x="400.00" y="18.00" width="12" height="12" rx="3" fill="#161b22" opacity="0.35"/>
<rect x="415.00" y="18.00" width="12" height="12" rx="3" fill="#161b22" opacity="0.35"/>
<rect x="430.00" y="18.00" width="12" height="12" rx="3" fill="#161b22" opacity="0.35"/>
<rect x="445.00" y="18.00" width="12" height="12" rx="3" fill="#161b22" opacity="0.35"/>
<rect x="460.00" y="18.00" width="12" height="12" rx="3" fill="#161b22" opacity="0.35"/>
<rect x="475.00" y="18.00" width="12" height="12" rx="3" fill="#161b22" opacity="0.35"/>
<rect x="490.00" y="18.00" width="12" height="12" rx="3" fill="#161b22" opacity="0.35"/>
<rect x="505.00" y="18.00" width="12" height="12" rx="3" fill="#161b22" opacity="0.35"/>
<rect x="520.00" y="18.00" width="12" height="12" rx="3" fill="#161b22" opacity="0.35"/>
<rect x="535.00" y="18.00" width="12" height="12" rx="3" fill="#161b22" opacity="0.35"/>
<rect x="550.00" y="18.00" width="12" height="12" rx="3" fill="#161b22" opacity="0.35"/>
<rect x="565.00" y="18.00" width="12" height="12" rx="3" fill="#161b22" opacity="0.35"/>
<rect x="580.00" y="18.00" width="12" height="12" rx="3" fill="#161b22" opacity="0.35"/>
<rect x="595.00" y="18.00" width="12" height="12" rx="3" fill="#161b22" opacity="0.35"/>
<rect x="610.00" y="18.00" width="12" height="12" rx="3" fill="#161b22" opacity="0.35"/>
<rect x="625.00" y="18.00" width="12" height="12" rx="3" fill="#161b22" opacity="0.35"/>
<rect x="640.00" y="18.00" width="12" height="12" rx="3" fill="#161b22" opacity="0.35"/>
<rect x="655.00" y="18.00" width="12" height="12" rx="3" fill="#161b22" opacity="0.35"/>
<rect x="670.00" y="18.00" width="12" height="12" rx="3" fill="#161b22" opacity="0.35"/>
<rect x="685.00" y="18.00" width="12" height="12" rx="3" fill="#161b22" opacity="0.35"/>
<rect x="700.00" y="18.00" width="12" height="12" rx="3" fill="#161b22" opacity="0.35"/>
<rect x="715.00" y="18.00" width="12" height="12" rx="3" fill="#161b22" opacity="0.35"/>
<rect x="730.00" y="18.00" width="12" height="12" rx="3" fill="#161b22" opacity="0.35"/>
<rect x="745.00" y="18.00" width="12" height="12" rx="3" fill="#161b22" opacity="0.35"/>
<rect x="760.00" y="18.00" width="12" height="12" rx="3" fill="#161b22" opacity="0.35"/>
<rect x="775.00" y="11.20" width="12" height="12" rx="3" fill="#26a641" opacity="0.90"/>
<rect x="790.00" y="18.00" width="12" height="12" rx="3" fill="#161b22" opacity="0.35"/>
<rect x="10.00" y="33.00" width="12" height="12" rx="3" fill="#161b22" opacity="0.35"/>
<rect x="25.00" y="33.00" width="12" height="12" rx="3" fill="#161b22" opacity="0.35"/>
<rect x="40.00" y="28.90" width="12" height="12" rx="3" fill="#006d32" opacity="0.68"/>
<rect x="55.00" y="33.00" width="12" height="12" rx="3" fill="#161b22" opacity="0.35"/>
<rect x="70.00" y="33.00" width="12" height="12" rx="3" fill="#161b22" opacity="0.35"/>
<rect x="85.00" y="26.86" width="12" height="12" rx="3" fill="#26a641" opacity="0.85"/>
<rect x="100.00" y="27.71" width="12" height="12" rx="3" fill="#26a641" opacity="0.78"/>
<rect x="115.00" y="27.25" width="12" height="12" rx="3" fill="#26a641" opacity="0.82"/>
<rect x="130.00" y="33.00" width="12" height="12" rx="3" fill="#161b22" opacity="0.35"/>
<rect x="145.00" y="33.00" width="12" height="12" rx="3" fill="#161b22" opacity="0.35"/>
<rect x="160.00" y="30.95" width="12" height="12" rx="3" fill="#0e4429" opacity="0.52"/>
<rect x="175.00" y="30.95" width="12" height="12" rx="3" fill="#0e4429" opacity="0.52"/>
<rect x="190.00" y="33.00" width="12" height="12" rx="3" fill="#161b22" opacity="0.35"/>
<rect x="205.00" y="28.25" width="12" height="12" rx="3" fill="#006d32" opacity="0.74"/>
<rect x="220.00" y="30.95" width="12" height="12" rx="3" fill="#0e4429" opacity="0.52"/>
<rect x="235.00" y="33.00" width="12" height="12" rx="3" fill="#161b22" opacity="0.35"/>
<rect x="250.00" y="33.00" width="12" height="12" rx="3" fill="#161b22" opacity="0.35"/>
<rect x="265.00" y="33.00" width="12" height="12" rx="3" fill="#161b22" opacity="0.35"/>
<rect x="280.00" y="30.95" width="12" height="12" rx="3" fill="#0e4429" opacity="0.52"/>
<rect x="295.00" y="33.00" width="12" height="12" rx="3" fill="#161b22" opacity="0.35"/>
<rect x="310.00" y="33.00" width="12" height="12" rx="3" fill="#161b22" opacity="0.35"/>
<rect x="325.00" y="33.00" width="12" height="12" rx="3" fill="#161b22" opacity="0.35"/>
<rect x="340.00" y="33.00" width="12" height="12" rx="3" fill="#161b22" opacity="0.35"/>
<rect x="355.00" y="33.00" width="12" height="12" rx="3" fill="#161b22" opacity="0.35"/>
<rect x="370.00" y="33.00" width="12" height="12" rx="3" fill="#161b22" opacity="0.35"/>
<rect x="385.00" y="33.00" width="12" height="12" rx="3" fill="#161b22" opacity="0.35"/>
<rect x="400.00" y="33.00" width="12" height="12" rx="3" fill="#161b22" opacity="0.35"/>
<rect x="415.00" y="28.25" width="12" height="12" rx="3" fill="#006d32" opacity="0.74"/>
<rect x="430.00" y="30.95" width="12" height="12" rx="3" fill="#0e4429" opacity="0.52"/>
<rect x="445.00" y="30.95" width="12" height="12" rx="3" fill="#0e4429" opacity="0.52"/>
<rect x="460.00" y="33.00" width="12" height="12" rx="3" fill="#161b22" opacity="0.35"/>
<rect x="475.00" y="30.95" width="12" height="12" rx="3" fill="#0e4429" opacity="0.52"/>
<rect x="490.00" y="33.00" width="12" height="12" rx="3" fill="#161b22" opacity="0.35"/>
<rect x="505.00" y="30.95" width="12" height="12" rx="3" fill="#0e4429" opacity="0.52"/>
<rect x="520.00" y="33.00" width="12" height="12" rx="3" fill="#161b22" opacity="0.35"/>
<rect x="535.00" y="33.00" width="12" height="12" rx="3" fill="#161b22" opacity="0.35"/>
<rect x="550.00" y="33.00" width="12" height="12" rx="3" fill="#161b22" opacity="0.35"/>
<rect x="565.00" y="33.00" width="12" height="12" rx="3" fill="#161b22" opacity="0.35"/>
<rect x="580.00" y="30.95" width="12" height="12" rx="3" fill="#0e4429" opacity="0.52"/>
<rect x="595.00" y="28.25" width="12" height="12" rx="3" fill="#006d32" opacity="0.74"/>
<rect x="610.00" y="30.95" width="12" height="12" rx="3" fill="#0e4429" opacity="0.52"/>
<rect x="625.00" y="33.00" width="12" height="12" rx="3" fill="#161b22" opacity="0.35"/>
<rect x="640.00" y="33.00" width="12" height="12" rx="3" fill="#161b22" opacity="0.35"/>
<rect x="655.00" y="33.00" width="12" height="12" rx="3" fill="#161b22" opacity="0.35"/>
<rect x="670.00" y="33.00" width="12" height="12" rx="3" fill="#161b22" opacity="0.35"/>
<rect x="685.00" y="33.00" width="12" height="12" rx="3" fill="#161b22" opacity="0.35"/>
<rect x="700.00" y="33.00" width="12" height="12" rx="3" fill="#161b22" opacity="0.35"/>
<rect x="715.00" y="33.00" width="12" height="12" rx="3" fill="#161b22" opacity="0.35"/>
<rect x="730.00" y="33.00" width="12" height="12" rx="3" fill="#161b22" opacity="0.35"/>
<rect x="745.00" y="33.00" width="12" height="12" rx="3" fill="#161b22" opacity="0.35"/>
<rect x="760.00" y="33.00" width="12" height="12" rx="3" fill="#161b22" opacity="0.35"/>
<rect x="775.00" y="30.95" width="12" height="12" rx="3" fill="#0e4429" opacity="0.52"/>
<rect x="790.00" y="33.00" width="12" height="12" rx="3" fill="#161b22" opacity="0.35"/>
<rect x="10.00" y="48.00" width="12" height="12" rx="3" fill="#161b22" opacity="0.35"/>
<rect x="25.00" y="48.00" width="12" height="12" rx="3" fill="#161b22" opacity="0.35"/>
<rect x="40.00" y="48.00" width="12" height="12" rx="3" fill="#161b22" opacity="0.35"/>
<rect x="55.00" y="48.00" width="12" height="12" rx="3" fill="#161b22" opacity="0.35"/>
<rect x="70.00" y="48.00" width="12" height="12" rx="3" fill="#161b22" opacity="0.35"/>
<rect x="85.00" y="43.90" width="12" height="12" rx="3" fill="#006d32" opacity="0.68"/>
<rect x="100.00" y="42.71" width="12" height="12" rx="3" fill="#26a641" opacity="0.78"/>
<rect x="115.00" y="43.25" width="12" height="12" rx="3" fill="#006d32" opacity="0.74"/>
<rect x="130.00" y="48.00" width="12" height="12" rx="3" fill="#161b22" opacity="0.35"/>
<rect x="145.00" y="44.75" width="12" height="12" rx="3" fill="#006d32" opacity="0.61"/>
<rect x="160.00" y="45.95" width="12" height="12" rx="3" fill="#0e4429" opacity="0.52"/>
<rect x="175.00" y="48.00" width="12" height="12" rx="3" fill="#161b22" opacity="0.35"/>
<rect x="190.00" y="48.00" width="12" height="12" rx="3" fill="#161b22" opacity="0.35"/>
<rect x="205.00" y="48.00" width="12" height="12" rx="3" fill="#161b22" opacity="0.35"/>
<rect x="220.00" y="48.00" width="12" height="12" rx="3" fill="#161b22" opacity="0.35"/>
<rect x="235.00" y="48.00" width="12" height="12" rx="3" fill="#161b22" opacity="0.35"/>
<rect x="250.00" y="48.00" width="12" height="12" rx="3" fill="#161b22" opacity="0.35"/>
<rect x="265.00" y="48.00" width="12" height="12" rx="3" fill="#161b22" opacity="0.35"/>
<rect x="280.00" y="48.00" width="12" height="12" rx="3" fill="#161b22" opacity="0.35"/>
<rect x="295.00" y="48.00" width="12" height="12" rx="3" fill="#161b22" opacity="0.35"/>
<rect x="310.00" y="40.92" width="12" height="12" rx="3" fill="#39d353" opacity="0.93"/>
<rect x="325.00" y="48.00" width="12" height="12" rx="3" fill="#161b22" opacity="0.35"/>
<rect x="340.00" y="48.00" width="12" height="12" rx="3" fill="#161b22" opacity="0.35"/>
<rect x="355.00" y="45.95" width="12" height="12" rx="3" fill="#0e4429" opacity="0.52"/>
<rect x="370.00" y="48.00" width="12" height="12" rx="3" fill="#161b22" opacity="0.35"/>
<rect x="385.00" y="48.00" width="12" height="12" rx="3" fill="#161b22" opacity="0.35"/>
<rect x="400.00" y="44.75" width="12" height="12" rx="3" fill="#006d32" opacity="0.61"/>
<rect x="415.00" y="48.00" width="12" height="12" rx="3" fill="#161b22" opacity="0.35"/>
<rect x="430.00" y="45.95" width="12" height="12" rx="3" fill="#0e4429" opacity="0.52"/>
<rect x="445.00" y="44.75" width="12" height="12" rx="3" fill="#006d32" opacity="0.61"/>
<rect x="460.00" y="48.00" width="12" height="12" rx="3" fill="#161b22" opacity="0.35"/>
<rect x="475.00" y="48.00" width="12" height="12" rx="3" fill="#161b22" opacity="0.35"/>
<rect x="490.00" y="45.95" width="12" height="12" rx="3" fill="#0e4429" opacity="0.52"/>
<rect x="505.00" y="48.00" width="12" height="12" rx="3" fill="#161b22" opacity="0.35"/>
<rect x="520.00" y="48.00" width="12" height="12" rx="3" fill="#161b22" opacity="0.35"/>
<rect x="535.00" y="48.00" width="12" height="12" rx="3" fill="#161b22" opacity="0.35"/>
<rect x="550.00" y="48.00" width="12" height="12" rx="3" fill="#161b22" opacity="0.35"/>
<rect x="565.00" y="48.00" width="12" height="12" rx="3" fill="#161b22" opacity="0.35"/>
<rect x="580.00" y="45.95" width="12" height="12" rx="3" fill="#0e4429" opacity="0.52"/>
<rect x="595.00" y="48.00" width="12" height="12" rx="3" fill="#161b22" opacity="0.35"/>
<rect x="610.00" y="48.00" width="12" height="12" rx="3" fill="#161b22" opacity="0.35"/>
<rect x="625.00" y="48.00" width="12" height="12" rx="3" fill="#161b22" opacity="0.35"/>
<rect x="640.00" y="48.00" width="12" height="12" rx="3" fill="#161b22" opacity="0.35"/>
<rect x="655.00" y="48.00" width="12" height="12" rx="3" fill="#161b22" opacity="0.35"/>
<rect x="670.00" y="48.00" width="12" height="12" rx="3" fill="#161b22" opacity="0.35"/>
<rect x="685.00" y="48.00" width="12" height="12" rx="3" fill="#161b22" opacity="0.35"/>
<rect x="700.00" y="48.00" width="12" height="12" rx="3" fill="#161b22" opacity="0.35"/>
<rect x="715.00" y="48.00" width="12" height="12" rx="3" fill="#161b22" opacity="0.35"/>
<rect x="730.00" y="48.00" width="12" height="12" rx="3" fill="#161b22" opacity="0.35"/>
<rect x="745.00" y="48.00" width="12" height="12" rx="3" fill="#161b22" opacity="0.35"/>
<rect x="760.00" y="48.00" width="12" height="12" rx="3" fill="#161b22" opacity="0.35"/>
<rect x="775.00" y="45.95" width="12" height="12" rx="3" fill="#0e4429" opacity="0.52"/>
<rect x="790.00" y="48.00" width="12" height="12" rx="3" fill="#161b22" opacity="0.35"/>
<rect x="10.00" y="63.00" width="12" height="12" rx="3" fill="#161b22" opacity="0.35"/>
<rect x="25.00" y="63.00" width="12" height="12" rx="3" fill="#161b22" opacity="0.35"/>
<rect x="40.00" y="63.00" width="12" height="12" rx="3" fill="#161b22" opacity="0.35"/>
<rect x="55.00" y="60.95" width="12" height="12" rx="3" fill="#0e4429" opacity="0.52"/>
<rect x="70.00" y="63.00" width="12" height="12" rx="3" fill="#161b22" opacity="0.35"/>
<rect x="85.00" y="60.95" width="12" height="12" rx="3" fill="#0e4429" opacity="0.52"/>
<rect x="100.00" y="63.00" width="12" height="12" rx="3" fill="#161b22" opacity="0.35"/>
<rect x="115.00" y="58.25" width="12" height="12" rx="3" fill="#006d32" opacity="0.74"/>
<rect x="130.00" y="63.00" width="12" height="12" rx="3" fill="#161b22" opacity="0.35"/>
<rect x="145.00" y="63.00" width="12" height="12" rx="3" fill="#161b22" opacity="0.35"/>
<rect x="160.00" y="63.00" width="12" height="12" rx="3" fill="#161b22" opacity="0.35"/>
<rect x="175.00" y="63.00" width="12" height="12" rx="3" fill="#161b22" opacity="0.35"/>
<rect x="190.00" y="63.00" width="12" height="12" rx="3" fill="#161b22" opacity="0.35"/>
<rect x="205.00" y="56.86" width="12" height="12" rx="3" fill="#26a641" opacity="0.85"/>
<rect x="220.00" y="63.00" width="12" height="12" rx="3" fill="#161b22" opacity="0.35"/>
<rect x="235.00" y="63.00" width="12" height="12" rx="3" fill="#161b22" opacity="0.35"/>
<rect x="250.00" y="63.00" width="12" height="12" rx="3" fill="#161b22" opacity="0.35"/>
<rect x="265.00" y="63.00" width="12" height="12" rx="3" fill="#161b22" opacity="0.35"/>
<rect x="280.00" y="59.75" width="12" height="12" rx="3" fill="#006d32" opacity="0.61"/>
<rect x="295.00" y="63.00" width="12" height="12" rx="3" fill="#161b22" opacity="0.35"/>
<rect x="310.00" y="57.71" width="12" height="12" rx="3" fill="#26a641" opacity="0.78"/>
<rect x="325.00" y="60.95" width="12" height="12" rx="3" fill="#0e4429" opacity="0.52"/>
<rect x="340.00" y="60.95" width="12" height="12" rx="3" fill="#0e4429" opacity="0.52"/>
<rect x="355.00" y="63.00" width="12" height="12" rx="3" fill="#161b22" opacity="0.35"/>
<rect x="370.00" y="60.95" width="12" height="12" rx="3" fill="#0e4429" opacity="0.52"/>
<rect x="385.00" y="63.00" width="12" height="12" rx="3" fill="#161b22" opacity="0.35"/>
<rect x="400.00" y="60.95" width="12" height="12" rx="3" fill="#0e4429" opacity="0.52"/>
<rect x="415.00" y="63.00" width="12" height="12" rx="3" fill="#161b22" opacity="0.35"/>
<rect x="430.00" y="60.95" width="12" height="12" rx="3" fill="#0e4429" opacity="0.52"/>
<rect x="445.00" y="63.00" width="12" height="12" rx="3" fill="#161b22" opacity="0.35"/>
<rect x="460.00" y="60.95" width="12" height="12" rx="3" fill="#0e4429" opacity="0.52"/>
<rect x="475.00" y="63.00" width="12" height="12" rx="3" fill="#161b22" opacity="0.35"/>
<rect x="490.00" y="60.95" width="12" height="12" rx="3" fill="#0e4429" opacity="0.52"/>
<rect x="505.00" y="63.00" width="12" height="12" rx="3" fill="#161b22" opacity="0.35"/>
<rect x="520.00" y="63.00" width="12" height="12" rx="3" fill="#161b22" opacity="0.35"/>
<rect x="535.00" y="63.00" width="12" height="12" rx="3" fill="#161b22" opacity="0.35"/>
<rect x="550.00" y="63.00" width="12" height="12" rx="3" fill="#161b22" opacity="0.35"/>
<rect x="565.00" y="63.00" width="12" height="12" rx="3" fill="#161b22" opacity="0.35"/>
<rect x="580.00" y="63.00" width="12" height="12" rx="3" fill="#161b22" opacity="0.35"/>
<rect x="595.00" y="63.00" width="12" height="12" rx="3" fill="#161b22" opacity="0.35"/>
<rect x="610.00" y="63.00" width="12" height="12" rx="3" fill="#161b22" opacity="0.35"/>
<rect x="625.00" y="63.00" width="12" height="12" rx="3" fill="#161b22" opacity="0.35"/>
<rect x="640.00" y="63.00" width="12" height="12" rx="3" fill="#161b22" opacity="0.35"/>
<rect x="655.00" y="63.00" width="12" height="12" rx="3" fill="#161b22" opacity="0.35"/>
<rect x="670.00" y="63.00" width="12" height="12" rx="3" fill="#161b22" opacity="0.35"/>
<rect x="685.00" y="63.00" width="12" height="12" rx="3" fill="#161b22" opacity="0.35"/>
<rect x="700.00" y="63.00" width="12" height="12" rx="3" fill="#161b22" opacity="0.35"/>
<rect x="715.00" y="63.00" width="12" height="12" rx="3" fill="#161b22" opacity="0.35"/>
<rect x="730.00" y="63.00" width="12" height="12" rx="3" fill="#161b22" opacity="0.35"/>
<rect x="745.00" y="58.25" width="12" height="12" rx="3" fill="#006d32" opacity="0.74"/>
<rect x="760.00" y="55.00" width="12" height="12" rx="3" fill="#39d353" opacity="1.00"/>
<rect x="775.00" y="63.00" width="12" height="12" rx="3" fill="#161b22" opacity="0.35"/>
<rect x="790.00" y="63.00" width="12" height="12" rx="3" fill="#161b22" opacity="0.35"/>
<rect x="10.00" y="78.00" width="12" height="12" rx="3" fill="#161b22" opacity="0.35"/>
<rect x="25.00" y="78.00" width="12" height="12" rx="3" fill="#161b22" opacity="0.35"/>
<rect x="40.00" y="78.00" width="12" height="12" rx="3" fill="#161b22" opacity="0.35"/>
<rect x="55.00" y="78.00" width="12" height="12" rx="3" fill="#161b22" opacity="0.35"/>
<rect x="70.00" y="78.00" width="12" height="12" rx="3" fill="#161b22" opacity="0.35"/>
<rect x="85.00" y="75.95" width="12" height="12" rx="3" fill="#0e4429" opacity="0.52"/>
<rect x="100.00" y="73.90" width="12" height="12" rx="3" fill="#006d32" opacity="0.68"/>
<rect x="115.00" y="78.00" width="12" height="12" rx="3" fill="#161b22" opacity="0.35"/>
<rect x="130.00" y="78.00" width="12" height="12" rx="3" fill="#161b22" opacity="0.35"/>
<rect x="145.00" y="78.00" width="12" height="12" rx="3" fill="#161b22" opacity="0.35"/>
<rect x="160.00" y="78.00" width="12" height="12" rx="3" fill="#161b22" opacity="0.35"/>
<rect x="175.00" y="78.00" width="12" height="12" rx="3" fill="#161b22" opacity="0.35"/>
<rect x="190.00" y="72.25" width="12" height="12" rx="3" fill="#26a641" opacity="0.82"/>
<rect x="205.00" y="71.20" width="12" height="12" rx="3" fill="#26a641" opacity="0.90"/>
<rect x="220.00" y="78.00" width="12" height="12" rx="3" fill="#161b22" opacity="0.35"/>
<rect x="235.00" y="78.00" width="12" height="12" rx="3" fill="#161b22" opacity="0.35"/>
<rect x="250.00" y="78.00" width="12" height="12" rx="3" fill="#161b22" opacity="0.35"/>
<rect x="265.00" y="78.00" width="12" height="12" rx="3" fill="#161b22" opacity="0.35"/>
<rect x="280.00" y="78.00" width="12" height="12" rx="3" fill="#161b22" opacity="0.35"/>
<rect x="295.00" y="78.00" width="12" height="12" rx="3" fill="#161b22" opacity="0.35"/>
<rect x="310.00" y="74.75" width="12" height="12" rx="3" fill="#006d32" opacity="0.61"/>
<rect x="325.00" y="78.00" width="12" height="12" rx="3" fill="#161b22" opacity="0.35"/>
<rect x="340.00" y="78.00" width="12" height="12" rx="3" fill="#161b22" opacity="0.35"/>
<rect x="355.00" y="78.00" width="12" height="12" rx="3" fill="#161b22" opacity="0.35"/>
<rect x="370.00" y="78.00" width="12" height="12" rx="3" fill="#161b22" opacity="0.35"/>
<rect x="385.00" y="78.00" width="12" height="12" rx="3" fill="#161b22" opacity="0.35"/>
<rect x="400.00" y="78.00" width="12" height="12" rx="3" fill="#161b22" opacity="0.35"/>
<rect x="415.00" y="78.00" width="12" height="12" rx="3" fill="#161b22" opacity="0.35"/>
<rect x="430.00" y="74.75" width="12" height="12" rx="3" fill="#006d32" opacity="0.61"/>
<rect x="445.00" y="78.00" width="12" height="12" rx="3" fill="#161b22" opacity="0.35"/>
<rect x="460.00" y="75.95" width="12" height="12" rx="3" fill="#0e4429" opacity="0.52"/>
<rect x="475.00" y="78.00" width="12" height="12" rx="3" fill="#161b22" opacity="0.35"/>
<rect x="490.00" y="78.00" width="12" height="12" rx="3" fill="#161b22" opacity="0.35"/>
<rect x="505.00" y="73.90" width="12" height="12" rx="3" fill="#006d32" opacity="0.68"/>
<rect x="520.00" y="78.00" width="12" height="12" rx="3" fill="#161b22" opacity="0.35"/>
<rect x="535.00" y="75.95" width="12" height="12" rx="3" fill="#0e4429" opacity="0.52"/>
<rect x="550.00" y="78.00" width="12" height="12" rx="3" fill="#161b22" opacity="0.35"/>
<rect x="565.00" y="78.00" width="12" height="12" rx="3" fill="#161b22" opacity="0.35"/>
<rect x="580.00" y="78.00" width="12" height="12" rx="3" fill="#161b22" opacity="0.35"/>
<rect x="595.00" y="78.00" width="12" height="12" rx="3" fill="#161b22" opacity="0.35"/>
<rect x="610.00" y="78.00" width="12" height="12" rx="3" fill="#161b22" opacity="0.35"/>
<rect x="625.00" y="78.00" width="12" height="12" rx="3" fill="#161b22" opacity="0.35"/>
<rect x="640.00" y="78.00" width="12" height="12" rx="3" fill="#161b22" opacity="0.35"/>
<rect x="655.00" y="73.90" width="12" height="12" rx="3" fill="#006d32" opacity="0.68"/>
<rect x="670.00" y="78.00" width="12" height="12" rx="3" fill="#161b22" opacity="0.35"/>
<rect x="685.00" y="78.00" width="12" height="12" rx="3" fill="#161b22" opacity="0.35"/>
<rect x="700.00" y="78.00" width="12" height="12" rx="3" fill="#161b22" opacity="0.35"/>
<rect x="715.00" y="78.00" width="12" height="12" rx="3" fill="#161b22" opacity="0.35"/>
<rect x="730.00" y="78.00" width="12" height="12" rx="3" fill="#161b22" opacity="0.35"/>
<rect x="745.00" y="78.00" width="12" height="12" rx="3" fill="#161b22" opacity="0.35"/>
<rect x="760.00" y="75.95" width="12" height="12" rx="3" fill="#0e4429" opacity="0.52"/>
<rect x="775.00" y="78.00" width="12" height="12" rx="3" fill="#161b22" opacity="0.35"/>
<rect x="790.00" y="78.00" width="12" height="12" rx="3" fill="#161b22" opacity="0.35"/>
<rect x="10.00" y="93.00" width="12" height="12" rx="3" fill="#161b22" opacity="0.35"/>
<rect x="25.00" y="93.00" width="12" height="12" rx="3" fill="#161b22" opacity="0.35"/>
<rect x="40.00" y="88.90" width="12" height="12" rx="3" fill="#006d32" opacity="0.68"/>
<rect x="55.00" y="93.00" width="12" height="12" rx="3" fill="#161b22" opacity="0.35"/>
<rect x="70.00" y="93.00" width="12" height="12" rx="3" fill="#161b22" opacity="0.35"/>
<rect x="85.00" y="93.00" width="12" height="12" rx="3" fill="#161b22" opacity="0.35"/>
<rect x="100.00" y="88.25" width="12" height="12" rx="3" fill="#006d32" opacity="0.74"/>
<rect x="115.00" y="88.90" width="12" height="12" rx="3" fill="#006d32" opacity="0.68"/>
<rect x="130.00" y="93.00" width="12" height="12" rx="3" fill="#161b22" opacity="0.35"/>
<rect x="145.00" y="90.95" width="12" height="12" rx="3" fill="#0e4429" opacity="0.52"/>
<rect x="160.00" y="89.75" width="12" height="12" rx="3" fill="#006d32" opacity="0.61"/>
<rect x="175.00" y="93.00" width="12" height="12" rx="3" fill="#161b22" opacity="0.35"/>
<rect x="190.00" y="93.00" width="12" height="12" rx="3" fill="#161b22" opacity="0.35"/>
<rect x="205.00" y="90.95" width="12" height="12" rx="3" fill="#0e4429" opacity="0.52"/>
<rect x="220.00" y="93.00" width="12" height="12" rx="3" fill="#161b22" opacity="0.35"/>
<rect x="235.00" y="93.00" width="12" height="12" rx="3" fill="#161b22" opacity="0.35"/>
<rect x="250.00" y="93.00" width="12" height="12" rx="3" fill="#161b22" opacity="0.35"/>
<rect x="265.00" y="93.00" width="12" height="12" rx="3" fill="#161b22" opacity="0.35"/>
<rect x="280.00" y="93.00" width="12" height="12" rx="3" fill="#161b22" opacity="0.35"/>
<rect x="295.00" y="93.00" width="12" height="12" rx="3" fill="#161b22" opacity="0.35"/>
<rect x="310.00" y="90.95" width="12" height="12" rx="3" fill="#0e4429" opacity="0.52"/>
<rect x="325.00" y="93.00" width="12" height="12" rx="3" fill="#161b22" opacity="0.35"/>
<rect x="340.00" y="93.00" width="12" height="12" rx="3" fill="#161b22" opacity="0.35"/>
<rect x="355.00" y="90.95" width="12" height="12" rx="3" fill="#0e4429" opacity="0.52"/>
<rect x="370.00" y="93.00" width="12" height="12" rx="3" fill="#161b22" opacity="0.35"/>
<rect x="385.00" y="93.00" width="12" height="12" rx="3" fill="#161b22" opacity="0.35"/>
<rect x="400.00" y="87.71" width="12" height="12" rx="3" fill="#26a641" opacity="0.78"/>
<rect x="415.00" y="89.75" width="12" height="12" rx="3" fill="#006d32" opacity="0.61"/>
<rect x="430.00" y="90.95" width="12" height="12" rx="3" fill="#0e4429" opacity="0.52"/>
<rect x="445.00" y="93.00" width="12" height="12" rx="3" fill="#161b22" opacity="0.35"/>
<rect x="460.00" y="93.00" width="12" height="12" rx="3" fill="#161b22" opacity="0.35"/>
<rect x="475.00" y="93.00" width="12" height="12" rx="3" fill="#161b22" opacity="0.35"/>
<rect x="490.00" y="93.00" width="12" height="12" rx="3" fill="#161b22" opacity="0.35"/>
<rect x="505.00" y="93.00" width="12" height="12" rx="3" fill="#161b22" opacity="0.35"/>
<rect x="520.00" y="93.00" width="12" height="12" rx="3" fill="#161b22" opacity="0.35"/>
<rect x="535.00" y="93.00" width="12" height="12" rx="3" fill="#161b22" opacity="0.35"/>
<rect x="550.00" y="93.00" width="12" height="12" rx="3" fill="#161b22" opacity="0.35"/>
<rect x="565.00" y="93.00" width="12" height="12" rx="3" fill="#161b22" opacity="0.35"/>
<rect x="580.00" y="93.00" width="12" height="12" rx="3" fill="#161b22" opacity="0.35"/>
<rect x="595.00" y="89.75" width="12" height="12" rx="3" fill="#006d32" opacity="0.61"/>
<rect x="610.00" y="90.95" width="12" height="12" rx="3" fill="#0e4429" opacity="0.52"/>
<rect x="625.00" y="93.00" width="12" height="12" rx="3" fill="#161b22" opacity="0.35"/>
<rect x="640.00" y="93.00" width="12" height="12" rx="3" fill="#161b22" opacity="0.35"/>
<rect x="655.00" y="93.00" width="12" height="12" rx="3" fill="#161b22" opacity="0.35"/>
<rect x="670.00" y="93.00" width="12" height="12" rx="3" fill="#161b22" opacity="0.35"/>
<rect x="685.00" y="93.00" width="12" height="12" rx="3" fill="#161b22" opacity="0.35"/>
<rect x="700.00" y="93.00" width="12" height="12" rx="3" fill="#161b22" opacity="0.35"/>
<rect x="715.00" y="93.00" width="12" height="12" rx="3" fill="#161b22" opacity="0.35"/>
<rect x="730.00" y="93.00" width="12" height="12" rx="3" fill="#161b22" opacity="0.35"/>
<rect x="745.00" y="93.00" width="12" height="12" rx="3" fill="#161b22" opacity="0.35"/>
<rect x="760.00" y="93.00" width="12" height="12" rx="3" fill="#161b22" opacity="0.35"/>
<rect x="775.00" y="90.95" width="12" height="12" rx="3" fill="#0e4429" opacity="0.52"/>
<rect x="790.00" y="86.20" width="12" height="12" rx="3" fill="#26a641" opacity="0.90"/>
<rect x="10.00" y="108.00" width="12" height="12" rx="3" fill="#161b22" opacity="0.35"/>
<rect x="25.00" y="108.00" width="12" height="12" rx="3" fill="#161b22" opacity="0.35"/>
<rect x="40.00" y="108.00" width="12" height="12" rx="3" fill="#161b22" opacity="0.35"/>
<rect x="55.00" y="108.00" width="12" height="12" rx="3" fill="#161b22" opacity="0.35"/>
<rect x="70.00" y="105.95" width="12" height="12" rx="3" fill="#0e4429" opacity="0.52"/>
<rect x="85.00" y="104.75" width="12" height="12" rx="3" fill="#006d32" opacity="0.61"/>
<rect x="100.00" y="101.20" width="12" height="12" rx="3" fill="#26a641" opacity="0.90"/>
<rect x="115.00" y="105.95" width="12" height="12" rx="3" fill="#0e4429" opacity="0.52"/>
<rect x="130.00" y="108.00" width="12" height="12" rx="3" fill="#161b22" opacity="0.35"/>
<rect x="145.00" y="104.75" width="12" height="12" rx="3" fill="#006d32" opacity="0.61"/>
<rect x="160.00" y="104.75" width="12" height="12" rx="3" fill="#006d32" opacity="0.61"/>
<rect x="175.00" y="108.00" width="12" height="12" rx="3" fill="#161b22" opacity="0.35"/>
<rect x="190.00" y="108.00" width="12" height="12" rx="3" fill="#161b22" opacity="0.35"/>
<rect x="205.00" y="108.00" width="12" height="12" rx="3" fill="#161b22" opacity="0.35"/>
<rect x="220.00" y="108.00" width="12" height="12" rx="3" fill="#161b22" opacity="0.35"/>
<rect x="235.00" y="108.00" width="12" height="12" rx="3" fill="#161b22" opacity="0.35"/>
<rect x="250.00" y="108.00" width="12" height="12" rx="3" fill="#161b22" opacity="0.35"/>
<rect x="265.00" y="108.00" width="12" height="12" rx="3" fill="#161b22" opacity="0.35"/>
<rect x="280.00" y="108.00" width="12" height="12" rx="3" fill="#161b22" opacity="0.35"/>
<rect x="295.00" y="104.75" width="12" height="12" rx="3" fill="#006d32" opacity="0.61"/>
<rect x="310.00" y="108.00" width="12" height="12" rx="3" fill="#161b22" opacity="0.35"/>
<rect x="325.00" y="108.00" width="12" height="12" rx="3" fill="#161b22" opacity="0.35"/>
<rect x="340.00" y="108.00" width="12" height="12" rx="3" fill="#161b22" opacity="0.35"/>
<rect x="355.00" y="108.00" width="12" height="12" rx="3" fill="#161b22" opacity="0.35"/>
<rect x="370.00" y="108.00" width="12" height="12" rx="3" fill="#161b22" opacity="0.35"/>
<rect x="385.00" y="104.75" width="12" height="12" rx="3" fill="#006d32" opacity="0.61"/>
<rect x="400.00" y="108.00" width="12" height="12" rx="3" fill="#161b22" opacity="0.35"/>
<rect x="415.00" y="104.75" width="12" height="12" rx="3" fill="#006d32" opacity="0.61"/>
<rect x="430.00" y="104.75" width="12" height="12" rx="3" fill="#006d32" opacity="0.61"/>
<rect x="445.00" y="108.00" width="12" height="12" rx="3" fill="#161b22" opacity="0.35"/>
<rect x="460.00" y="104.75" width="12" height="12" rx="3" fill="#006d32" opacity="0.61"/>
<rect x="475.00" y="105.95" width="12" height="12" rx="3" fill="#0e4429" opacity="0.52"/>
<rect x="490.00" y="108.00" width="12" height="12" rx="3" fill="#161b22" opacity="0.35"/>
<rect x="505.00" y="108.00" width="12" height="12" rx="3" fill="#161b22" opacity="0.35"/>
<rect x="520.00" y="108.00" width="12" height="12" rx="3" fill="#161b22" opacity="0.35"/>
<rect x="535.00" y="108.00" width="12" height="12" rx="3" fill="#161b22" opacity="0.35"/>
<rect x="550.00" y="108.00" width="12" height="12" rx="3" fill="#161b22" opacity="0.35"/>
<rect x="565.00" y="104.75" width="12" height="12" rx="3" fill="#006d32" opacity="0.61"/>
<rect x="580.00" y="108.00" width="12" height="12" rx="3" fill="#161b22" opacity="0.35"/>
<rect x="595.00" y="105.95" width="12" height="12" rx="3" fill="#0e4429" opacity="0.52"/>
<rect x="610.00" y="108.00" width="12" height="12" rx="3" fill="#161b22" opacity="0.35"/>
<rect x="625.00" y="108.00" width="12" height="12" rx="3" fill="#161b22" opacity="0.35"/>
<rect x="640.00" y="108.00" width="12" height="12" rx="3" fill="#161b22" opacity="0.35"/>
<rect x="655.00" y="108.00" width="12" height="12" rx="3" fill="#161b22" opacity="0.35"/>
<rect x="670.00" y="108.00" width="12" height="12" rx="3" fill="#161b22" opacity="0.35"/>
<rect x="685.00" y="108.00" width="12" height="12" rx="3" fill="#161b22" opacity="0.35"/>
<rect x="700.00" y="108.00" width="12" height="12" rx="3" fill="#161b22" opacity="0.35"/>
<rect x="715.00" y="108.00" width="12" height="12" rx="3" fill="#161b22" opacity="0.35"/>
<rect x="730.00" y="108.00" width="12" height="12" rx="3" fill="#161b22" opacity="0.35"/>
<rect x="745.00" y="102.25" width="12" height="12" rx="3" fill="#26a641" opacity="0.82"/>
<rect x="760.00" y="104.75" width="12" height="12" rx="3" fill="#006d32" opacity="0.61"/>
<rect x="775.00" y="108.00" width="12" height="12" rx="3" fill="#161b22" opacity="0.35"/>
<rect x="790.00" y="108.00" width="12" height="12" rx="3" fill="#161b22" opacity="0.35"/>
<line x1="31.00" y1="24.00" x2="46.00" y2="16.42" stroke="#c9d1d9" stroke-opacity="0.18" stroke-width="1"/>
<line x1="46.00" y1="16.42" x2="61.00" y2="24.00" stroke="#c9d1d9" stroke-opacity="0.18" stroke-width="1"/>
<line x1="61.00" y1="24.00" x2="76.00" y2="19.25" stroke="#c9d1d9" stroke-opacity="0.18" stroke-width="1"/>
<line x1="106.00" y1="21.95" x2="121.00" y2="16.66" stroke="#c9d1d9" stroke-opacity="0.18" stroke-width="1"/>
<line x1="121.00" y1="16.66" x2="136.00" y2="19.90" stroke="#c9d1d9" stroke-opacity="0.18" stroke-width="1"/>
<line x1="136.00" y1="19.90" x2="151.00" y2="24.00" stroke="#c9d1d9" stroke-opacity="0.18" stroke-width="1"/>
<line x1="301.00" y1="24.00" x2="316.00" y2="19.90" stroke="#c9d1d9" stroke-opacity="0.18" stroke-width="1"/>
<line x1="316.00" y1="19.90" x2="331.00" y2="24.00" stroke="#c9d1d9" stroke-opacity="0.18" stroke-width="1"/>
<line x1="766.00" y1="24.00" x2="781.00" y2="17.20" stroke="#c9d1d9" stroke-opacity="0.18" stroke-width="1"/>
<line x1="781.00" y1="17.20" x2="796.00" y2="24.00" stroke="#c9d1d9" stroke-opacity="0.18" stroke-width="1"/>
<line x1="31.00" y1="39.00" x2="46.00" y2="34.90" stroke="#c9d1d9" stroke-opacity="0.18" stroke-width="1"/>
<line x1="46.00" y1="34.90" x2="61.00" y2="39.00" stroke="#c9d1d9" stroke-opacity="0.18" stroke-width="1"/>
<line x1="76.00" y1="39.00" x2="91.00" y2="32.86" stroke="#c9d1d9" stroke-opacity="0.18" stroke-width="1"/>
<line x1="121.00" y1="33.25" x2="136.00" y2="39.00" stroke="#c9d1d9" stroke-opacity="0.18" stroke-width="1"/>
<line x1="196.00" y1="39.00" x2="211.00" y2="34.25" stroke="#c9d1d9" stroke-opacity="0.18" stroke-width="1"/>
<line x1="211.00" y1="34.25" x2="226.00" y2="36.95" stroke="#c9d1d9" stroke-opacity="0.18" stroke-width="1"/>
<line x1="406.00" y1="39.00" x2="421.00" y2="34.25" stroke="#c9d1d9" stroke-opacity="0.18" stroke-width="1"/>
<line x1="421.00" y1="34.25" x2="436.00" y2="36.95" stroke="#c9d1d9" stroke-opacity="0.18" stroke-width="1"/>
<line x1="586.00" y1="36.95" x2="601.00" y2="34.25" stroke="#c9d1d9" stroke-opacity="0.18" stroke-width="1"/>
<line x1="601.00" y1="34.25" x2="616.00" y2="36.95" stroke="#c9d1d9" stroke-opacity="0.18" stroke-width="1"/>
<line x1="76.00" y1="54.00" x2="91.00" y2="49.90" stroke="#c9d1d9" stroke-opacity="0.18" stroke-width="1"/>
<line x1="121.00" y1="49.25" x2="136.00" y2="54.00" stroke="#c9d1d9" stroke-opacity="0.18" stroke-width="1"/>
<line x1="136.00" y1="54.00" x2="151.00" y2="50.75" stroke="#c9d1d9" stroke-opacity="0.18" stroke-width="1"/>
<line x1="301.00" y1="54.00" x2="316.00" y2="46.92" stroke="#c9d1d9" stroke-opacity="0.18" stroke-width="1"/>
<line x1="316.00" y1="46.92" x2="331.00" y2="54.00" stroke="#c9d1d9" stroke-opacity="0.18" stroke-width="1"/>
<line x1="391.00" y1="54.00" x2="406.00" y2="50.75" stroke="#c9d1d9" stroke-opacity="0.18" stroke-width="1"/>
<line x1="406.00" y1="50.75" x2="421.00" y2="54.00" stroke="#c9d1d9" stroke-opacity="0.18" stroke-width="1"/>
<line x1="451.00" y1="50.75" x2="466.00" y2="54.00" stroke="#c9d1d9" stroke-opacity="0.18" stroke-width="1"/>
<line x1="106.00" y1="69.00" x2="121.00" y2="64.25" stroke="#c9d1d9" stroke-opacity="0.18" stroke-width="1"/>
<line x1="121.00" y1="64.25" x2="136.00" y2="69.00" stroke="#c9d1d9" stroke-opacity="0.18" stroke-width="1"/>
<line x1="196.00" y1="69.00" x2="211.00" y2="62.86" stroke="#c9d1d9" stroke-opacity="0.18" stroke-width="1"/>
<line x1="211.00" y1="62.86" x2="226.00" y2="69.00" stroke="#c9d1d9" stroke-opacity="0.18" stroke-width="1"/>
<line x1="271.00" y1="69.00" x2="286.00" y2="65.75" stroke="#c9d1d9" stroke-opacity="0.18" stroke-width="1"/>
<line x1="286.00" y1="65.75" x2="301.00" y2="69.00" stroke="#c9d1d9" stroke-opacity="0.18" stroke-width="1"/>
<line x1="301.00" y1="69.00" x2="316.00" y2="63.71" stroke="#c9d1d9" stroke-opacity="0.18" stroke-width="1"/>
<line x1="316.00" y1="63.71" x2="331.00" y2="66.95" stroke="#c9d1d9" stroke-opacity="0.18" stroke-width="1"/>
<line x1="736.00" y1="69.00" x2="751.00" y2="64.25" stroke="#c9d1d9" stroke-opacity="0.18" stroke-width="1"/>
<line x1="751.00" y1="64.25" x2="766.00" y2="61.00" stroke="#c9d1d9" stroke-opacity="0.18" stroke-width="1"/>
<line x1="766.00" y1="61.00" x2="781.00" y2="69.00" stroke="#c9d1d9" stroke-opacity="0.18" stroke-width="1"/>
<line x1="106.00" y1="79.90" x2="121.00" y2="84.00" stroke="#c9d1d9" stroke-opacity="0.18" stroke-width="1"/>
<line x1="181.00" y1="84.00" x2="196.00" y2="78.25" stroke="#c9d1d9" stroke-opacity="0.18" stroke-width="1"/>
<line x1="211.00" y1="77.20" x2="226.00" y2="84.00" stroke="#c9d1d9" stroke-opacity="0.18" stroke-width="1"/>
<line x1="301.00" y1="84.00" x2="316.00" y2="80.75" stroke="#c9d1d9" stroke-opacity="0.18" stroke-width="1"/>
<line x1="316.00" y1="80.75" x2="331.00" y2="84.00" stroke="#c9d1d9" stroke-opacity="0.18" stroke-width="1"/>
<line x1="421.00" y1="84.00" x2="436.00" y2="80.75" stroke="#c9d1d9" stroke-opacity="0.18" stroke-width="1"/>
<line x1="436.00" y1="80.75" x2="451.00" y2="84.00" stroke="#c9d1d9" stroke-opacity="0.18" stroke-width="1"/>
<line x1="496.00" y1="84.00" x2="511.00" y2="79.90" stroke="#c9d1d9" stroke-opacity="0.18" stroke-width="1"/>
<line x1="511.00" y1="79.90" x2="526.00" y2="84.00" stroke="#c9d1d9" stroke-opacity="0.18" stroke-width="1"/>
<line x1="646.00" y1="84.00" x2="661.00" y2="79.90" stroke="#c9d1d9" stroke-opacity="0.18" stroke-width="1"/>
<line x1="661.00" y1="79.90" x2="676.00" y2="84.00" stroke="#c9d1d9" stroke-opacity="0.18" stroke-width="1"/>
<line x1="31.00" y1="99.00" x2="46.00" y2="94.90" stroke="#c9d1d9" stroke-opacity="0.18" stroke-width="1"/>
<line x1="46.00" y1="94.90" x2="61.00" y2="99.00" stroke="#c9d1d9" stroke-opacity="0.18" stroke-width="1"/>
<line x1="91.00" y1="99.00" x2="106.00" y2="94.25" stroke="#c9d1d9" stroke-opacity="0.18" stroke-width="1"/>
<line x1="121.00" y1="94.90" x2="136.00" y2="99.00" stroke="#c9d1d9" stroke-opacity="0.18" stroke-width="1"/>
<line x1="166.00" y1="95.75" x2="181.00" y2="99.00" stroke="#c9d1d9" stroke-opacity="0.18" stroke-width="1"/>
<line x1="391.00" y1="99.00" x2="406.00" y2="93.71" stroke="#c9d1d9" stroke-opacity="0.18" stroke-width="1"/>
<line x1="586.00" y1="99.00" x2="601.00" y2="95.75" stroke="#c9d1d9" stroke-opacity="0.18" stroke-width="1"/>
<line x1="781.00" y1="96.95" x2="796.00" y2="92.20" stroke="#c9d1d9" stroke-opacity="0.18" stroke-width="1"/>
<line x1="91.00" y1="110.75" x2="106.00" y2="107.20" stroke="#c9d1d9" stroke-opacity="0.18" stroke-width="1"/>
<line x1="106.00" y1="107.20" x2="121.00" y2="111.95" stroke="#c9d1d9" stroke-opacity="0.18" stroke-width="1"/>
<line x1="136.00" y1="114.00" x2="151.00" y2="110.75" stroke="#c9d1d9" stroke-opacity="0.18" stroke-width="1"/>
<line x1="166.00" y1="110.75" x2="181.00" y2="114.00" stroke="#c9d1d9" stroke-opacity="0.18" stroke-width="1"/>
<line x1="286.00" y1="114.00" x2="301.00" y2="110.75" stroke="#c9d1d9" stroke-opacity="0.18" stroke-width="1"/>
<line x1="301.00" y1="110.75" x2="316.00" y2="114.00" stroke="#c9d1d9" stroke-opacity="0.18" stroke-width="1"/>
<line x1="376.00" y1="114.00" x2="391.00" y2="110.75" stroke="#c9d1d9" stroke-opacity="0.18" stroke-width="1"/>
<line x1="391.00" y1="110.75" x2="406.00" y2="114.00" stroke="#c9d1d9" stroke-opacity="0.18" stroke-width="1"/>
<line x1="406.00" y1="114.00" x2="421.00" y2="110.75" stroke="#c9d1d9" stroke-opacity="0.18" stroke-width="1"/>
<line x1="436.00" y1="110.75" x2="451.00" y2="114.00" stroke="#c9d1d9" stroke-opacity="0.18" stroke-width="1"/>
<line x1="451.00" y1="114.00" x2="466.00" y2="110.75" stroke="#c9d1d9" stroke-opacity="0.18" stroke-width="1"/>
<line x1="556.00" y1="114.00" x2="571.00" y2="110.75" stroke="#c9d1d9" stroke-opacity="0.18" stroke-width="1"/>
<line x1="571.00" y1="110.75" x2="586.00" y2="114.00" stroke="#c9d1d9" stroke-opacity="0.18" stroke-width="1"/>
<line x1="736.00" y1="114.00" x2="751.00" y2="108.25" stroke="#c9d1d9" stroke-opacity="0.18" stroke-width="1"/>
<line x1="751.00" y1="108.25" x2="766.00" y2="110.75" stroke="#c9d1d9" stroke-opacity="0.18" stroke-width="1"/>
<line x1="766.00" y1="110.75" x2="781.00" y2="114.00" stroke="#c9d1d9" stroke-opacity="0.18" stroke-width="1"/>
<line x1="46.00" y1="16.42" x2="46.00" y2="34.90" stroke="#c9d1d9" stroke-opacity="0.14" stroke-width="1"/>
<line x1="76.00" y1="19.25" x2="76.00" y2="39.00" stroke="#c9d1d9" stroke-opacity="0.14" stroke-width="1"/>
<line x1="91.00" y1="20.75" x2="91.00" y2="32.86" stroke="#c9d1d9" stroke-opacity="0.14" stroke-width="1"/>
<line x1="106.00" y1="21.95" x2="106.00" y2="33.71" stroke="#c9d1d9" stroke-opacity="0.14" stroke-width="1"/>
<line x1="136.00" y1="19.90" x2="136.00" y2="39.00" stroke="#c9d1d9" stroke-opacity="0.14" stroke-width="1"/>
<line x1="211.00" y1="24.00" x2="211.00" y2="34.25" stroke="#c9d1d9" stroke-opacity="0.14" stroke-width="1"/>
<line x1="316.00" y1="19.90" x2="316.00" y2="39.00" stroke="#c9d1d9" stroke-opacity="0.14" stroke-width="1"/>
<line x1="421.00" y1="24.00" x2="421.00" y2="34.25" stroke="#c9d1d9" stroke-opacity="0.14" stroke-width="1"/>
<line x1="601.00" y1="24.00" x2="601.00" y2="34.25" stroke="#c9d1d9" stroke-opacity="0.14" stroke-width="1"/>
<line x1="781.00" y1="17.20" x2="781.00" y2="36.95" stroke="#c9d1d9" stroke-opacity="0.14" stroke-width="1"/>
<line x1="46.00" y1="34.90" x2="46.00" y2="54.00" stroke="#c9d1d9" stroke-opacity="0.14" stroke-width="1"/>
<line x1="151.00" y1="39.00" x2="151.00" y2="50.75" stroke="#c9d1d9" stroke-opacity="0.14" stroke-width="1"/>
<line x1="211.00" y1="34.25" x2="211.00" y2="54.00" stroke="#c9d1d9" stroke-opacity="0.14" stroke-width="1"/>
<line x1="316.00" y1="39.00" x2="316.00" y2="46.92" stroke="#c9d1d9" stroke-opacity="0.14" stroke-width="1"/>
<line x1="406.00" y1="39.00" x2="406.00" y2="50.75" stroke="#c9d1d9" stroke-opacity="0.14" stroke-width="1"/>
<line x1="421.00" y1="34.25" x2="421.00" y2="54.00" stroke="#c9d1d9" stroke-opacity="0.14" stroke-width="1"/>
<line x1="601.00" y1="34.25" x2="601.00" y2="54.00" stroke="#c9d1d9" stroke-opacity="0.14" stroke-width="1"/>
<line x1="106.00" y1="48.71" x2="106.00" y2="69.00" stroke="#c9d1d9" stroke-opacity="0.14" stroke-width="1"/>
<line x1="151.00" y1="50.75" x2="151.00" y2="69.00" stroke="#c9d1d9" stroke-opacity="0.14" stroke-width="1"/>
<line x1="211.00" y1="54.00" x2="211.00" y2="62.86" stroke="#c9d1d9" stroke-opacity="0.14" stroke-width="1"/>
<line x1="286.00" y1="54.00" x2="286.00" y2="65.75" stroke="#c9d1d9" stroke-opacity="0.14" stroke-width="1"/>
<line x1="451.00" y1="50.75" x2="451.00" y2="69.00" stroke="#c9d1d9" stroke-opacity="0.14" stroke-width="1"/>
<line x1="751.00" y1="54.00" x2="751.00" y2="64.25" stroke="#c9d1d9" stroke-opacity="0.14" stroke-width="1"/>
<line x1="766.00" y1="54.00" x2="766.00" y2="61.00" stroke="#c9d1d9" stroke-opacity="0.14" stroke-width="1"/>
<line x1="106.00" y1="69.00" x2="106.00" y2="79.90" stroke="#c9d1d9" stroke-opacity="0.14" stroke-width="1"/>
<line x1="121.00" y1="64.25" x2="121.00" y2="84.00" stroke="#c9d1d9" stroke-opacity="0.14" stroke-width="1"/>
<line x1="196.00" y1="69.00" x2="196.00" y2="78.25" stroke="#c9d1d9" stroke-opacity="0.14" stroke-width="1"/>
<line x1="286.00" y1="65.75" x2="286.00" y2="84.00" stroke="#c9d1d9" stroke-opacity="0.14" stroke-width="1"/>
<line x1="511.00" y1="69.00" x2="511.00" y2="79.90" stroke="#c9d1d9" stroke-opacity="0.14" stroke-width="1"/>
<line x1="661.00" y1="69.00" x2="661.00" y2="79.90" stroke="#c9d1d9" stroke-opacity="0.14" stroke-width="1"/>
<line x1="751.00" y1="64.25" x2="751.00" y2="84.00" stroke="#c9d1d9" stroke-opacity="0.14" stroke-width="1"/>
<line x1="766.00" y1="61.00" x2="766.00" y2="81.95" stroke="#c9d1d9" stroke-opacity="0.14" stroke-width="1"/>
<line x1="46.00" y1="84.00" x2="46.00" y2="94.90" stroke="#c9d1d9" stroke-opacity="0.14" stroke-width="1"/>
<line x1="121.00" y1="84.00" x2="121.00" y2="94.90" stroke="#c9d1d9" stroke-opacity="0.14" stroke-width="1"/>
<line x1="166.00" y1="84.00" x2="166.00" y2="95.75" stroke="#c9d1d9" stroke-opacity="0.14" stroke-width="1"/>
<line x1="196.00" y1="78.25" x2="196.00" y2="99.00" stroke="#c9d1d9" stroke-opacity="0.14" stroke-width="1"/>
<line x1="211.00" y1="77.20" x2="211.00" y2="96.95" stroke="#c9d1d9" stroke-opacity="0.14" stroke-width="1"/>
<line x1="406.00" y1="84.00" x2="406.00" y2="93.71" stroke="#c9d1d9" stroke-opacity="0.14" stroke-width="1"/>
<line x1="421.00" y1="84.00" x2="421.00" y2="95.75" stroke="#c9d1d9" stroke-opacity="0.14" stroke-width="1"/>
<line x1="511.00" y1="79.90" x2="511.00" y2="99.00" stroke="#c9d1d9" stroke-opacity="0.14" stroke-width="1"/>
<line x1="601.00" y1="84.00" x2="601.00" y2="95.75" stroke="#c9d1d9" stroke-opacity="0.14" stroke-width="1"/>
<line x1="661.00" y1="79.90" x2="661.00" y2="99.00" stroke="#c9d1d9" stroke-opacity="0.14" stroke-width="1"/>
<line x1="796.00" y1="84.00" x2="796.00" y2="92.20" stroke="#c9d1d9" stroke-opacity="0.14" stroke-width="1"/>
<line x1="46.00" y1="94.90" x2="46.00" y2="114.00" stroke="#c9d1d9" stroke-opacity="0.14" stroke-width="1"/>
<line x1="91.00" y1="99.00" x2="91.00" y2="110.75" stroke="#c9d1d9" stroke-opacity="0.14" stroke-width="1"/>
<line x1="301.00" y1="99.00" x2="301.00" y2="110.75" stroke="#c9d1d9" stroke-opacity="0.14" stroke-width="1"/>
<line x1="391.00" y1="99.00" x2="391.00" y2="110.75" stroke="#c9d1d9" stroke-opacity="0.14" stroke-width="1"/>
<line x1="406.00" y1="93.71" x2="406.00" y2="114.00" stroke="#c9d1d9" stroke-opacity="0.14" stroke-width="1"/>
<line x1="466.00" y1="99.00" x2="466.00" y2="110.75" stroke="#c9d1d9" stroke-opacity="0.14" stroke-width="1"/>
<line x1="571.00" y1="99.00" x2="571.00" y2="110.75" stroke="#c9d1d9" stroke-opacity="0.14" stroke-width="1"/>
<line x1="751.00" y1="99.00" x2="751.00" y2="108.25" stroke="#c9d1d9" stroke-opacity="0.14" stroke-width="1"/>
<line x1="766.00" y1="99.00" x2="766.00" y2="110.75" stroke="#c9d1d9" stroke-opacity="0.14" stroke-width="1"/>
<line x1="796.00" y1="92.20" x2="796.00" y2="114.00" stroke="#c9d1d9" stroke-opacity="0.14" stroke-width="1"/>
<polyline points="16.00,69.00 31.00,69.00 46.00,69.00 46.00,84.00 61.00,84.00 76.00,84.00 91.00,81.95 106.00,79.90 121.00,84.00 136.00,84.00 136.00,69.00 151.00,69.00 166.00,69.00 181.00,69.00 196.00,69.00 196.00,54.00 211.00,54.00 226.00,54.00 241.00,54.00 256.00,54.00 271.00,54.00 286.00,54.00 301.00,54.00 301.00,39.00 316.00,39.00 331.00,39.00 346.00,39.00 361.00,39.00 376.00,39.00 391.00,39.00 406.00,39.00 406.00,24.00 421.00,24.00 436.00,24.00 451.00,24.00 466.00,24.00 481.00,24.00 496.00,24.00 511.00,24.00 526.00,24.00 541.00,24.00 556.00,24.00 571.00,24.00 586.00,24.00 601.00,24.00 616.00,24.00 631.00,24.00 631.00,39.00 631.00,54.00 646.00,54.00 661.00,54.00 676.00,54.00 691.00,54.00 706.00,54.00 721.00,54.00 736.00,54.00 751.00,54.00 766.00,54.00 781.00,51.95 781.00,69.00 796.00,69.00" fill="none" stroke="#C66D00" stroke-width="3" stroke-linecap="round" stroke-linejoin="round"/>
<circle cx="16.00" cy="69.00" r="4" fill="#F8F8F8"/>
<circle cx="796.00" cy="69.00" r="4" fill="#F8F8F8"/>
</svg>