<svg xmlns="http://www.w3.org/2000/svg" width="1067" height="157" viewBox="0 0 1067 157" role="img">
<rect width="1067" height="157" rx="12" fill="#0d1117"/>
<polygon points="64.80,115.00 82.80,115.00 89.60,126.00 71.60,126.00" fill="#161b22" stroke="#0d1117" stroke-width="0.7"/>
<polygon points="82.80,115.00 100.80,115.00 107.60,126.00 89.60,126.00" fill="#161b22" stroke="#0d1117" stroke-width="0.7"/>
<polygon points="100.80,115.00 118.80,115.00 125.60,126.00 107.60,126.00" fill="#161b22" stroke="#0d1117" stroke-width="0.7"/>
<polygon points="118.80,115.00 136.80,115.00 143.60,126.00 125.60,126.00" fill="#161b22" stroke="#0d1117" stroke-width="0.7"/>
<polygon points="154.80,108.63 161.60,119.63 161.60,126.00 154.80,115.00" fill="#072214"/>
<polygon points="143.60,119.63 161.60,119.63 161.60,126.00 143.60,126.00" fill="#092c1a"/>
<polygon points="136.80,108.63 154.80,108.63 161.60,119.63 143.60,119.63" fill="#0e4429" stroke="#0d1117" stroke-width="0.7"/>
<polygon points="172.80,104.90 179.60,115.90 179.60,126.00 172.80,115.00" fill="#072214"/>
<polygon points="161.60,115.90 179.60,115.90 179.60,126.00 161.60,126.00" fill="#092c1a"/>
<polygon points="154.80,104.90 172.80,104.90 179.60,115.90 161.60,115.90" fill="#0e4429" stroke="#0d1117" stroke-width="0.7"/>
<polygon points="190.80,93.82 197.60,104.82 197.60,126.00 190.80,115.00" fill="#135320"/>
<polygon points="179.60,104.82 197.60,104.82 197.60,126.00 179.60,126.00" fill="#186b2a"/>
<polygon points="172.80,93.82 190.80,93.82 197.60,104.82 179.60,104.82" fill="#26a641" stroke="#0d1117" stroke-width="0.7"/>
<polygon points="208.80,108.63 215.60,119.63 215.60,126.00 208.80,115.00" fill="#072214"/>
<polygon points="197.60,119.63 215.60,119.63 215.60,126.00 197.60,126.00" fill="#092c1a"/>
<polygon points="190.80,108.63 208.80,108.63 215.60,119.63 197.60,119.63" fill="#0e4429" stroke="#0d1117" stroke-width="0.7"/>
<polygon points="208.80,115.00 226.80,115.00 233.60,126.00 215.60,126.00" fill="#161b22" stroke="#0d1117" stroke-width="0.7"/>
<polygon points="244.80,104.90 251.60,115.90 251.60,126.00 244.80,115.00" fill="#072214"/>
<polygon points="233.60,115.90 251.60,115.90 251.60,126.00 233.60,126.00" fill="#092c1a"/>
<polygon points="226.80,104.90 244.80,104.90 251.60,115.90 233.60,115.90" fill="#0e4429" stroke="#0d1117" stroke-width="0.7"/>
<polygon points="262.80,104.90 269.60,115.90 269.60,126.00 262.80,115.00" fill="#072214"/>
<polygon points="251.60,115.90 269.60,115.90 269.60,126.00 251.60,126.00" fill="#092c1a"/>
<polygon points="244.80,104.90 262.80,104.90 269.60,115.90 251.60,115.90" fill="#0e4429" stroke="#0d1117" stroke-width="0.7"/>
<polygon points="262.80,115.00 280.80,115.00 287.60,126.00 269.60,126.00" fill="#161b22" stroke="#0d1117" stroke-width="0.7"/>
<polygon points="280.80,115.00 298.80,115.00 305.60,126.00 287.60,126.00" fill="#161b22" stroke="#0d1117" stroke-width="0.7"/>
<polygon points="298.80,115.00 316.80,115.00 323.60,126.00 305.60,126.00" fill="#161b22" stroke="#0d1117" stroke-width="0.7"/>
<polygon points="316.80,115.00 334.80,115.00 341.60,126.00 323.60,126.00" fill="#161b22" stroke="#0d1117" stroke-width="0.7"/>
<polygon points="334.80,115.00 352.80,115.00 359.60,126.00 341.60,126.00" fill="#161b22" stroke="#0d1117" stroke-width="0.7"/>
<polygon points="352.80,115.00 370.80,115.00 377.60,126.00 359.60,126.00" fill="#161b22" stroke="#0d1117" stroke-width="0.7"/>
<polygon points="370.80,115.00 388.80,115.00 395.60,126.00 377.60,126.00" fill="#161b22" stroke="#0d1117" stroke-width="0.7"/>
<polygon points="388.80,115.00 406.80,115.00 413.60,126.00 395.60,126.00" fill="#161b22" stroke="#0d1117" stroke-width="0.7"/>
<polygon points="424.80,104.90 431.60,115.90 431.60,126.00 424.80,115.00" fill="#072214"/>
<polygon points="413.60,115.90 431.60,115.90 431.60,126.00 413.60,126.00" fill="#092c1a"/>
<polygon points="406.80,104.90 424.80,104.90 431.60,115.90 413.60,115.90" fill="#0e4429" stroke="#0d1117" stroke-width="0.7"/>
<polygon points="424.80,115.00 442.80,115.00 449.60,126.00 431.60,126.00" fill="#161b22" stroke="#0d1117" stroke-width="0.7"/>
<polygon points="442.80,115.00 460.80,115.00 467.60,126.00 449.60,126.00" fill="#161b22" stroke="#0d1117" stroke-width="0.7"/>
<polygon points="460.80,115.00 478.80,115.00 485.60,126.00 467.60,126.00" fill="#161b22" stroke="#0d1117" stroke-width="0.7"/>
<polygon points="478.80,115.00 496.80,115.00 503.60,126.00 485.60,126.00" fill="#161b22" stroke="#0d1117" stroke-width="0.7"/>
<polygon points="496.80,115.00 514.80,115.00 521.60,126.00 503.60,126.00" fill="#161b22" stroke="#0d1117" stroke-width="0.7"/>
<polygon points="532.80,104.90 539.60,115.90 539.60,126.00 532.80,115.00" fill="#072214"/>
<polygon points="521.60,115.90 539.60,115.90 539.60,126.00 521.60,126.00" fill="#092c1a"/>
<polygon points="514.80,104.90 532.80,104.90 539.60,115.90 521.60,115.90" fill="#0e4429" stroke="#0d1117" stroke-width="0.7"/>
<polygon points="532.80,115.00 550.80,115.00 557.60,126.00 539.60,126.00" fill="#161b22" stroke="#0d1117" stroke-width="0.7"/>
<polygon points="568.80,104.90 575.60,115.90 575.60,126.00 568.80,115.00" fill="#072214"/>
<polygon points="557.60,115.90 575.60,115.90 575.60,126.00 557.60,126.00" fill="#092c1a"/>
<polygon points="550.80,104.90 568.80,104.90 575.60,115.90 557.60,115.90" fill="#0e4429" stroke="#0d1117" stroke-width="0.7"/>
<polygon points="586.80,104.90 593.60,115.90 593.60,126.00 586.80,115.00" fill="#072214"/>
<polygon points="575.60,115.90 593.60,115.90 593.60,126.00 575.60,126.00" fill="#092c1a"/>
<polygon points="568.80,104.90 586.80,104.90 593.60,115.90 575.60,115.90" fill="#0e4429" stroke="#0d1117" stroke-width="0.7"/>
<polygon points="586.80,115.00 604.80,115.00 611.60,126.00 593.60,126.00" fill="#161b22" stroke="#0d1117" stroke-width="0.7"/>
<polygon points="622.80,104.90 629.60,115.90 629.60,126.00 622.80,115.00" fill="#072214"/>
<polygon points="611.60,115.90 629.60,115.90 629.60,126.00 611.60,126.00" fill="#092c1a"/>
<polygon points="604.80,104.90 622.80,104.90 629.60,115.90 611.60,115.90" fill="#0e4429" stroke="#0d1117" stroke-width="0.7"/>
<polygon points="640.80,108.63 647.60,119.63 647.60,126.00 640.80,115.00" fill="#072214"/>
<polygon points="629.60,119.63 647.60,119.63 647.60,126.00 629.60,126.00" fill="#092c1a"/>
<polygon points="622.80,108.63 640.80,108.63 647.60,119.63 629.60,119.63" fill="#0e4429" stroke="#0d1117" stroke-width="0.7"/>
<polygon points="640.80,115.00 658.80,115.00 665.60,126.00 647.60,126.00" fill="#161b22" stroke="#0d1117" stroke-width="0.7"/>
<polygon points="658.80,115.00 676.80,115.00 683.60,126.00 665.60,126.00" fill="#161b22" stroke="#0d1117" stroke-width="0.7"/>
<polygon points="676.80,115.00 694.80,115.00 701.60,126.00 683.60,126.00" fill="#161b22" stroke="#0d1117" stroke-width="0.7"/>
<polygon points="694.80,115.00 712.80,115.00 719.60,126.00 701.60,126.00" fill="#161b22" stroke="#0d1117" stroke-width="0.7"/>
<polygon points="712.80,115.00 730.80,115.00 737.60,126.00 719.60,126.00" fill="#161b22" stroke="#0d1117" stroke-width="0.7"/>
<polygon points="748.80,104.90 755.60,115.90 755.60,126.00 748.80,115.00" fill="#072214"/>
<polygon points="737.60,115.90 755.60,115.90 755.60,126.00 737.60,126.00" fill="#092c1a"/>
<polygon points="730.80,104.90 748.80,104.90 755.60,115.90 737.60,115.90" fill="#0e4429" stroke="#0d1117" stroke-width="0.7"/>
<polygon points="748.80,115.00 766.80,115.00 773.60,126.00 755.60,126.00" fill="#161b22" stroke="#0d1117" stroke-width="0.7"/>
<polygon points="784.80,108.63 791.60,119.63 791.60,126.00 784.80,115.00" fill="#072214"/>
<polygon points="773.60,119.63 791.60,119.63 791.60,126.00 773.60,126.00" fill="#092c1a"/>
<polygon points="766.80,108.63 784.80,108.63 791.60,119.63 773.60,119.63" fill="#0e4429" stroke="#0d1117" stroke-width="0.7"/>
<polygon points="784.80,115.00 802.80,115.00 809.60,126.00 791.60,126.00" fill="#161b22" stroke="#0d1117" stroke-width="0.7"/>
<polygon points="802.80,115.00 820.80,115.00 827.60,126.00 809.60,126.00" fill="#161b22" stroke="#0d1117" stroke-width="0.7"/>
<polygon points="820.80,115.00 838.80,115.00 845.60,126.00 827.60,126.00" fill="#161b22" stroke="#0d1117" stroke-width="0.7"/>
<polygon points="838.80,115.00 856.80,115.00 863.60,126.00 845.60,126.00" fill="#161b22" stroke="#0d1117" stroke-width="0.7"/>
<polygon points="856.80,115.00 874.80,115.00 881.60,126.00 863.60,126.00" fill="#161b22" stroke="#0d1117" stroke-width="0.7"/>
<polygon points="874.80,115.00 892.80,115.00 899.60,126.00 881.60,126.00" fill="#161b22" stroke="#0d1117" stroke-width="0.7"/>
<polygon points="892.80,115.00 910.80,115.00 917.60,126.00 899.60,126.00" fill="#161b22" stroke="#0d1117" stroke-width="0.7"/>
<polygon points="910.80,115.00 928.80,115.00 935.60,126.00 917.60,126.00" fill="#161b22" stroke="#0d1117" stroke-width="0.7"/>
<polygon points="928.80,115.00 946.80,115.00 953.60,126.00 935.60,126.00" fill="#161b22" stroke="#0d1117" stroke-width="0.7"/>
<polygon points="964.80,97.10 971.60,108.10 971.60,126.00 964.80,115.00" fill="#135320"/>
<polygon points="953.60,108.10 971.60,108.10 971.60,126.00 953.60,126.00" fill="#186b2a"/>
<polygon points="946.80,97.10 964.80,97.10 971.60,108.10 953.60,108.10" fill="#26a641" stroke="#0d1117" stroke-width="0.7"/>
<polygon points="982.80,104.90 989.60,115.90 989.60,126.00 982.80,115.00" fill="#072214"/>
<polygon points="971.60,115.90 989.60,115.90 989.60,126.00 971.60,126.00" fill="#092c1a"/>
<polygon points="964.80,104.90 982.80,104.90 989.60,115.90 971.60,115.90" fill="#0e4429" stroke="#0d1117" stroke-width="0.7"/>
<polygon points="982.80,115.00 1000.80,115.00 1007.60,126.00 989.60,126.00" fill="#161b22" stroke="#0d1117" stroke-width="0.7"/>
<polygon points="1000.80,115.00 1018.80,115.00 1025.60,126.00 1007.60,126.00" fill="#161b22" stroke="#0d1117" stroke-width="0.7"/>
<polygon points="58.00,104.00 76.00,104.00 82.80,115.00 64.80,115.00" fill="#161b22" stroke="#0d1117" stroke-width="0.7"/>
<polygon points="76.00,104.00 94.00,104.00 100.80,115.00 82.80,115.00" fill="#161b22" stroke="#0d1117" stroke-width="0.7"/>
<polygon points="112.00,91.25 118.80,102.25 118.80,115.00 112.00,104.00" fill="#003619"/>
<polygon points="100.80,102.25 118.80,102.25 118.80,115.00 100.80,115.00" fill="#004620"/>
<polygon points="94.00,91.25 112.00,91.25 118.80,102.25 100.80,102.25" fill="#006d32" stroke="#0d1117" stroke-width="0.7"/>
<polygon points="112.00,104.00 130.00,104.00 136.80,115.00 118.80,115.00" fill="#161b22" stroke="#0d1117" stroke-width="0.7"/>
<polygon points="130.00,104.00 148.00,104.00 154.80,115.00 136.80,115.00" fill="#161b22" stroke="#0d1117" stroke-width="0.7"/>
<polygon points="148.00,104.00 166.00,104.00 172.80,115.00 154.80,115.00" fill="#161b22" stroke="#0d1117" stroke-width="0.7"/>
<polygon points="184.00,89.20 190.80,100.20 190.80,115.00 184.00,104.00" fill="#003619"/>
<polygon points="172.80,100.20 190.80,100.20 190.80,115.00 172.80,115.00" fill="#004620"/>
<polygon points="166.00,89.20 184.00,89.20 190.80,100.20 172.80,100.20" fill="#006d32" stroke="#0d1117" stroke-width="0.7"/>
<polygon points="202.00,91.25 208.80,102.25 208.80,115.00 202.00,104.00" fill="#003619"/>
<polygon points="190.80,102.25 208.80,102.25 208.80,115.00 190.80,115.00" fill="#004620"/>
<polygon points="184.00,91.25 202.00,91.25 208.80,102.25 190.80,102.25" fill="#006d32" stroke="#0d1117" stroke-width="0.7"/>
<polygon points="202.00,104.00 220.00,104.00 226.80,115.00 208.80,115.00" fill="#161b22" stroke="#0d1117" stroke-width="0.7"/>
<polygon points="238.00,97.63 244.80,108.63 244.80,115.00 238.00,104.00" fill="#072214"/>
<polygon points="226.80,108.63 244.80,108.63 244.80,115.00 226.80,115.00" fill="#092c1a"/>
<polygon points="220.00,97.63 238.00,97.63 244.80,108.63 226.80,108.63" fill="#0e4429" stroke="#0d1117" stroke-width="0.7"/>
<polygon points="256.00,93.90 262.80,104.90 262.80,115.00 256.00,104.00" fill="#072214"/>
<polygon points="244.80,104.90 262.80,104.90 262.80,115.00 244.80,115.00" fill="#092c1a"/>
<polygon points="238.00,93.90 256.00,93.90 262.80,104.90 244.80,104.90" fill="#0e4429" stroke="#0d1117" stroke-width="0.7"/>
<polygon points="256.00,104.00 274.00,104.00 280.80,115.00 262.80,115.00" fill="#161b22" stroke="#0d1117" stroke-width="0.7"/>
<polygon points="274.00,104.00 292.00,104.00 298.80,115.00 280.80,115.00" fill="#161b22" stroke="#0d1117" stroke-width="0.7"/>
<polygon points="310.00,97.63 316.80,108.63 316.80,115.00 310.00,104.00" fill="#072214"/>
<polygon points="298.80,108.63 316.80,108.63 316.80,115.00 298.80,115.00" fill="#092c1a"/>
<polygon points="292.00,97.63 310.00,97.63 316.80,108.63 298.80,108.63" fill="#0e4429" stroke="#0d1117" stroke-width="0.7"/>
<polygon points="310.00,104.00 328.00,104.00 334.80,115.00 316.80,115.00" fill="#161b22" stroke="#0d1117" stroke-width="0.7"/>
<polygon points="328.00,104.00 346.00,104.00 352.80,115.00 334.80,115.00" fill="#161b22" stroke="#0d1117" stroke-width="0.7"/>
<polygon points="346.00,104.00 364.00,104.00 370.80,115.00 352.80,115.00" fill="#161b22" stroke="#0d1117" stroke-width="0.7"/>
<polygon points="364.00,104.00 382.00,104.00 388.80,115.00 370.80,115.00" fill="#161b22" stroke="#0d1117" stroke-width="0.7"/>
<polygon points="382.00,104.00 400.00,104.00 406.80,115.00 388.80,115.00" fill="#161b22" stroke="#0d1117" stroke-width="0.7"/>
<polygon points="400.00,104.00 418.00,104.00 424.80,115.00 406.80,115.00" fill="#161b22" stroke="#0d1117" stroke-width="0.7"/>
<polygon points="436.00,97.63 442.80,108.63 442.80,115.00 436.00,104.00" fill="#072214"/>
<polygon points="424.80,108.63 442.80,108.63 442.80,115.00 424.80,115.00" fill="#092c1a"/>
<polygon points="418.00,97.63 436.00,97.63 442.80,108.63 424.80,108.63" fill="#0e4429" stroke="#0d1117" stroke-width="0.7"/>
<polygon points="436.00,104.00 454.00,104.00 460.80,115.00 442.80,115.00" fill="#161b22" stroke="#0d1117" stroke-width="0.7"/>
<polygon points="454.00,104.00 472.00,104.00 478.80,115.00 460.80,115.00" fill="#161b22" stroke="#0d1117" stroke-width="0.7"/>
<polygon points="490.00,97.63 496.80,108.63 496.80,115.00 490.00,104.00" fill="#072214"/>
<polygon points="478.80,108.63 496.80,108.63 496.80,115.00 478.80,115.00" fill="#092c1a"/>
<polygon points="472.00,97.63 490.00,97.63 496.80,108.63 478.80,108.63" fill="#0e4429" stroke="#0d1117" stroke-width="0.7"/>
<polygon points="490.00,104.00 508.00,104.00 514.80,115.00 496.80,115.00" fill="#161b22" stroke="#0d1117" stroke-width="0.7"/>
<polygon points="508.00,104.00 526.00,104.00 532.80,115.00 514.80,115.00" fill="#161b22" stroke="#0d1117" stroke-width="0.7"/>
<polygon points="544.00,87.52 550.80,98.52 550.80,115.00 544.00,104.00" fill="#003619"/>
<polygon points="532.80,98.52 550.80,98.52 550.80,115.00 532.80,115.00" fill="#004620"/>
<polygon points="526.00,87.52 544.00,87.52 550.80,98.52 532.80,98.52" fill="#006d32" stroke="#0d1117" stroke-width="0.7"/>
<polygon points="562.00,93.90 568.80,104.90 568.80,115.00 562.00,104.00" fill="#072214"/>
<polygon points="550.80,104.90 568.80,104.90 568.80,115.00 550.80,115.00" fill="#092c1a"/>
<polygon points="544.00,93.90 562.00,93.90 568.80,104.90 550.80,104.90" fill="#0e4429" stroke="#0d1117" stroke-width="0.7"/>
<polygon points="580.00,97.63 586.80,108.63 586.80,115.00 580.00,104.00" fill="#072214"/>
<polygon points="568.80,108.63 586.80,108.63 586.80,115.00 568.80,115.00" fill="#092c1a"/>
<polygon points="562.00,97.63 580.00,97.63 586.80,108.63 568.80,108.63" fill="#0e4429" stroke="#0d1117" stroke-width="0.7"/>
<polygon points="580.00,104.00 598.00,104.00 604.80,115.00 586.80,115.00" fill="#161b22" stroke="#0d1117" stroke-width="0.7"/>
<polygon points="598.00,104.00 616.00,104.00 622.80,115.00 604.80,115.00" fill="#161b22" stroke="#0d1117" stroke-width="0.7"/>
<polygon points="616.00,104.00 634.00,104.00 640.80,115.00 622.80,115.00" fill="#161b22" stroke="#0d1117" stroke-width="0.7"/>
<polygon points="634.00,104.00 652.00,104.00 658.80,115.00 640.80,115.00" fill="#161b22" stroke="#0d1117" stroke-width="0.7"/>
<polygon points="652.00,104.00 670.00,104.00 676.80,115.00 658.80,115.00" fill="#161b22" stroke="#0d1117" stroke-width="0.7"/>
<polygon points="670.00,104.00 688.00,104.00 694.80,115.00 676.80,115.00" fill="#161b22" stroke="#0d1117" stroke-width="0.7"/>
<polygon points="688.00,104.00 706.00,104.00 712.80,115.00 694.80,115.00" fill="#161b22" stroke="#0d1117" stroke-width="0.7"/>
<polygon points="706.00,104.00 724.00,104.00 730.80,115.00 712.80,115.00" fill="#161b22" stroke="#0d1117" stroke-width="0.7"/>
<polygon points="724.00,104.00 742.00,104.00 748.80,115.00 730.80,115.00" fill="#161b22" stroke="#0d1117" stroke-width="0.7"/>
<polygon points="742.00,104.00 760.00,104.00 766.80,115.00 748.80,115.00" fill="#161b22" stroke="#0d1117" stroke-width="0.7"/>
<polygon points="778.00,93.90 784.80,104.90 784.80,115.00 778.00,104.00" fill="#072214"/>
<polygon points="766.80,104.90 784.80,104.90 784.80,115.00 766.80,115.00" fill="#092c1a"/>
<polygon points="760.00,93.90 778.00,93.90 784.80,104.90 766.80,104.90" fill="#0e4429" stroke="#0d1117" stroke-width="0.7"/>
<polygon points="796.00,97.63 802.80,108.63 802.80,115.00 796.00,104.00" fill="#072214"/>
<polygon points="784.80,108.63 802.80,108.63 802.80,115.00 784.80,115.00" fill="#092c1a"/>
<polygon points="778.00,97.63 796.00,97.63 802.80,108.63 784.80,108.63" fill="#0e4429" stroke="#0d1117" stroke-width="0.7"/>
<polygon points="796.00,104.00 814.00,104.00 820.80,115.00 802.80,115.00" fill="#161b22" stroke="#0d1117" stroke-width="0.7"/>
<polygon points="814.00,104.00 832.00,104.00 838.80,115.00 820.80,115.00" fill="#161b22" stroke="#0d1117" stroke-width="0.7"/>
<polygon points="832.00,104.00 850.00,104.00 856.80,115.00 838.80,115.00" fill="#161b22" stroke="#0d1117" stroke-width="0.7"/>
<polygon points="850.00,104.00 868.00,104.00 874.80,115.00 856.80,115.00" fill="#161b22" stroke="#0d1117" stroke-width="0.7"/>
<polygon points="868.00,104.00 886.00,104.00 892.80,115.00 874.80,115.00" fill="#161b22" stroke="#0d1117" stroke-width="0.7"/>
<polygon points="886.00,104.00 904.00,104.00 910.80,115.00 892.80,115.00" fill="#161b22" stroke="#0d1117" stroke-width="0.7"/>
<polygon points="904.00,104.00 922.00,104.00 928.80,115.00 910.80,115.00" fill="#161b22" stroke="#0d1117" stroke-width="0.7"/>
<polygon points="922.00,104.00 940.00,104.00 946.80,115.00 928.80,115.00" fill="#161b22" stroke="#0d1117" stroke-width="0.7"/>
<polygon points="940.00,104.00 958.00,104.00 964.80,115.00 946.80,115.00" fill="#161b22" stroke="#0d1117" stroke-width="0.7"/>
<polygon points="958.00,104.00 976.00,104.00 982.80,115.00 964.80,115.00" fill="#161b22" stroke="#0d1117" stroke-width="0.7"/>
<polygon points="994.00,97.63 1000.80,108.63 1000.80,115.00 994.00,104.00" fill="#072214"/>
<polygon points="982.80,108.63 1000.80,108.63 1000.80,115.00 982.80,115.00" fill="#092c1a"/>
<polygon points="976.00,97.63 994.00,97.63 1000.80,108.63 982.80,108.63" fill="#0e4429" stroke="#0d1117" stroke-width="0.7"/>
<polygon points="1012.00,76.00 1018.80,87.00 1018.80,115.00 1012.00,104.00" fill="#1c6929"/>
<polygon points="1000.80,87.00 1018.80,87.00 1018.80,115.00 1000.80,115.00" fill="#258935"/>
<polygon points="994.00,76.00 1012.00,76.00 1018.80,87.00 1000.80,87.00" fill="#39d353" stroke="#0d1117" stroke-width="0.7"/>
<polygon points="51.20,93.00 69.20,93.00 76.00,104.00 58.00,104.00" fill="#161b22" stroke="#0d1117" stroke-width="0.7"/>
<polygon points="69.20,93.00 87.20,93.00 94.00,104.00 76.00,104.00" fill="#161b22" stroke="#0d1117" stroke-width="0.7"/>
<polygon points="87.20,93.00 105.20,93.00 112.00,104.00 94.00,104.00" fill="#161b22" stroke="#0d1117" stroke-width="0.7"/>
<polygon points="105.20,93.00 123.20,93.00 130.00,104.00 112.00,104.00" fill="#161b22" stroke="#0d1117" stroke-width="0.7"/>
<polygon points="123.20,93.00 141.20,93.00 148.00,104.00 130.00,104.00" fill="#161b22" stroke="#0d1117" stroke-width="0.7"/>
<polygon points="159.20,86.63 166.00,97.63 166.00,104.00 159.20,93.00" fill="#072214"/>
<polygon points="148.00,97.63 166.00,97.63 166.00,104.00 148.00,104.00" fill="#092c1a"/>
<polygon points="141.20,86.63 159.20,86.63 166.00,97.63 148.00,97.63" fill="#0e4429" stroke="#0d1117" stroke-width="0.7"/>
<polygon points="177.20,80.25 184.00,91.25 184.00,104.00 177.20,93.00" fill="#003619"/>
<polygon points="166.00,91.25 184.00,91.25 184.00,104.00 166.00,104.00" fill="#004620"/>
<polygon points="159.20,80.25 177.20,80.25 184.00,91.25 166.00,91.25" fill="#006d32" stroke="#0d1117" stroke-width="0.7"/>
<polygon points="177.20,93.00 195.20,93.00 202.00,104.00 184.00,104.00" fill="#161b22" stroke="#0d1117" stroke-width="0.7"/>
<polygon points="195.20,93.00 213.20,93.00 220.00,104.00 202.00,104.00" fill="#161b22" stroke="#0d1117" stroke-width="0.7"/>
<polygon points="213.20,93.00 231.20,93.00 238.00,104.00 220.00,104.00" fill="#161b22" stroke="#0d1117" stroke-width="0.7"/>
<polygon points="231.20,93.00 249.20,93.00 256.00,104.00 238.00,104.00" fill="#161b22" stroke="#0d1117" stroke-width="0.7"/>
<polygon points="249.20,93.00 267.20,93.00 274.00,104.00 256.00,104.00" fill="#161b22" stroke="#0d1117" stroke-width="0.7"/>
<polygon points="285.20,75.10 292.00,86.10 292.00,104.00 285.20,93.00" fill="#135320"/>
<polygon points="274.00,86.10 292.00,86.10 292.00,104.00 274.00,104.00" fill="#186b2a"/>
<polygon points="267.20,75.10 285.20,75.10 292.00,86.10 274.00,86.10" fill="#26a641" stroke="#0d1117" stroke-width="0.7"/>
<polygon points="303.20,71.82 310.00,82.82 310.00,104.00 303.20,93.00" fill="#135320"/>
<polygon points="292.00,82.82 310.00,82.82 310.00,104.00 292.00,104.00" fill="#186b2a"/>
<polygon points="285.20,71.82 303.20,71.82 310.00,82.82 292.00,82.82" fill="#26a641" stroke="#0d1117" stroke-width="0.7"/>
<polygon points="303.20,93.00 321.20,93.00 328.00,104.00 310.00,104.00" fill="#161b22" stroke="#0d1117" stroke-width="0.7"/>
<polygon points="321.20,93.00 339.20,93.00 346.00,104.00 328.00,104.00" fill="#161b22" stroke="#0d1117" stroke-width="0.7"/>
<polygon points="339.20,93.00 357.20,93.00 364.00,104.00 346.00,104.00" fill="#161b22" stroke="#0d1117" stroke-width="0.7"/>
<polygon points="357.20,93.00 375.20,93.00 382.00,104.00 364.00,104.00" fill="#161b22" stroke="#0d1117" stroke-width="0.7"/>
<polygon points="375.20,93.00 393.20,93.00 400.00,104.00 382.00,104.00" fill="#161b22" stroke="#0d1117" stroke-width="0.7"/>
<polygon points="393.20,93.00 411.20,93.00 418.00,104.00 400.00,104.00" fill="#161b22" stroke="#0d1117" stroke-width="0.7"/>
<polygon points="429.20,82.90 436.00,93.90 436.00,104.00 429.20,93.00" fill="#072214"/>
<polygon points="418.00,93.90 436.00,93.90 436.00,104.00 418.00,104.00" fill="#092c1a"/>
<polygon points="411.20,82.90 429.20,82.90 436.00,93.90 418.00,93.90" fill="#0e4429" stroke="#0d1117" stroke-width="0.7"/>
<polygon points="429.20,93.00 447.20,93.00 454.00,104.00 436.00,104.00" fill="#161b22" stroke="#0d1117" stroke-width="0.7"/>
<polygon points="447.20,93.00 465.20,93.00 472.00,104.00 454.00,104.00" fill="#161b22" stroke="#0d1117" stroke-width="0.7"/>
<polygon points="465.20,93.00 483.20,93.00 490.00,104.00 472.00,104.00" fill="#161b22" stroke="#0d1117" stroke-width="0.7"/>
<polygon points="483.20,93.00 501.20,93.00 508.00,104.00 490.00,104.00" fill="#161b22" stroke="#0d1117" stroke-width="0.7"/>
<polygon points="501.20,93.00 519.20,93.00 526.00,104.00 508.00,104.00" fill="#161b22" stroke="#0d1117" stroke-width="0.7"/>
<polygon points="519.20,93.00 537.20,93.00 544.00,104.00 526.00,104.00" fill="#161b22" stroke="#0d1117" stroke-width="0.7"/>
<polygon points="537.20,93.00 555.20,93.00 562.00,104.00 544.00,104.00" fill="#161b22" stroke="#0d1117" stroke-width="0.7"/>
<polygon points="573.20,82.90 580.00,93.90 580.00,104.00 573.20,93.00" fill="#072214"/>
<polygon points="562.00,93.90 580.00,93.90 580.00,104.00 562.00,104.00" fill="#092c1a"/>
<polygon points="555.20,82.90 573.20,82.90 580.00,93.90 562.00,93.90" fill="#0e4429" stroke="#0d1117" stroke-width="0.7"/>
<polygon points="573.20,93.00 591.20,93.00 598.00,104.00 580.00,104.00" fill="#161b22" stroke="#0d1117" stroke-width="0.7"/>
<polygon points="609.20,86.63 616.00,97.63 616.00,104.00 609.20,93.00" fill="#072214"/>
<polygon points="598.00,97.63 616.00,97.63 616.00,104.00 598.00,104.00" fill="#092c1a"/>
<polygon points="591.20,86.63 609.20,86.63 616.00,97.63 598.00,97.63" fill="#0e4429" stroke="#0d1117" stroke-width="0.7"/>
<polygon points="609.20,93.00 627.20,93.00 634.00,104.00 616.00,104.00" fill="#161b22" stroke="#0d1117" stroke-width="0.7"/>
<polygon points="627.20,93.00 645.20,93.00 652.00,104.00 634.00,104.00" fill="#161b22" stroke="#0d1117" stroke-width="0.7"/>
<polygon points="663.20,80.25 670.00,91.25 670.00,104.00 663.20,93.00" fill="#003619"/>
<polygon points="652.00,91.25 670.00,91.25 670.00,104.00 652.00,104.00" fill="#004620"/>
<polygon points="645.20,80.25 663.20,80.25 670.00,91.25 652.00,91.25" fill="#006d32" stroke="#0d1117" stroke-width="0.7"/>
<polygon points="663.20,93.00 681.20,93.00 688.00,104.00 670.00,104.00" fill="#161b22" stroke="#0d1117" stroke-width="0.7"/>
<polygon points="699.20,86.63 706.00,97.63 706.00,104.00 699.20,93.00" fill="#072214"/>
<polygon points="688.00,97.63 706.00,97.63 706.00,104.00 688.00,104.00" fill="#092c1a"/>
<polygon points="681.20,86.63 699.20,86.63 706.00,97.63 688.00,97.63" fill="#0e4429" stroke="#0d1117" stroke-width="0.7"/>
<polygon points="699.20,93.00 717.20,93.00 724.00,104.00 706.00,104.00" fill="#161b22" stroke="#0d1117" stroke-width="0.7"/>
<polygon points="717.20,93.00 735.20,93.00 742.00,104.00 724.00,104.00" fill="#161b22" stroke="#0d1117" stroke-width="0.7"/>
<polygon points="735.20,93.00 753.20,93.00 760.00,104.00 742.00,104.00" fill="#161b22" stroke="#0d1117" stroke-width="0.7"/>
<polygon points="753.20,93.00 771.20,93.00 778.00,104.00 760.00,104.00" fill="#161b22" stroke="#0d1117" stroke-width="0.7"/>
<polygon points="771.20,93.00 789.20,93.00 796.00,104.00 778.00,104.00" fill="#161b22" stroke="#0d1117" stroke-width="0.7"/>
<polygon points="789.20,93.00 807.20,93.00 814.00,104.00 796.00,104.00" fill="#161b22" stroke="#0d1117" stroke-width="0.7"/>
<polygon points="807.20,93.00 825.20,93.00 832.00,104.00 814.00,104.00" fill="#161b22" stroke="#0d1117" stroke-width="0.7"/>
<polygon points="843.20,80.25 850.00,91.25 850.00,104.00 843.20,93.00" fill="#003619"/>
<polygon points="832.00,91.25 850.00,91.25 850.00,104.00 832.00,104.00" fill="#004620"/>
<polygon points="825.20,80.25 843.20,80.25 850.00,91.25 832.00,91.25" fill="#006d32" stroke="#0d1117" stroke-width="0.7"/>
<polygon points="843.20,93.00 861.20,93.00 868.00,104.00 850.00,104.00" fill="#161b22" stroke="#0d1117" stroke-width="0.7"/>
<polygon points="861.20,93.00 879.20,93.00 886.00,104.00 868.00,104.00" fill="#161b22" stroke="#0d1117" stroke-width="0.7"/>
<polygon points="879.20,93.00 897.20,93.00 904.00,104.00 886.00,104.00" fill="#161b22" stroke="#0d1117" stroke-width="0.7"/>
<polygon points="897.20,93.00 915.20,93.00 922.00,104.00 904.00,104.00" fill="#161b22" stroke="#0d1117" stroke-width="0.7"/>
<polygon points="915.20,93.00 933.20,93.00 940.00,104.00 922.00,104.00" fill="#161b22" stroke="#0d1117" stroke-width="0.7"/>
<polygon points="933.20,93.00 951.20,93.00 958.00,104.00 940.00,104.00" fill="#161b22" stroke="#0d1117" stroke-width="0.7"/>
<polygon points="969.20,86.63 976.00,97.63 976.00,104.00 969.20,93.00" fill="#072214"/>
<polygon points="958.00,97.63 976.00,97.63 976.00,104.00 958.00,104.00" fill="#092c1a"/>
<polygon points="951.20,86.63 969.20,86.63 976.00,97.63 958.00,97.63" fill="#0e4429" stroke="#0d1117" stroke-width="0.7"/>
<polygon points="969.20,93.00 987.20,93.00 994.00,104.00 976.00,104.00" fill="#161b22" stroke="#0d1117" stroke-width="0.7"/>
<polygon points="987.20,93.00 1005.20,93.00 1012.00,104.00 994.00,104.00" fill="#161b22" stroke="#0d1117" stroke-width="0.7"/>
<polygon points="44.40,82.00 62.40,82.00 69.20,93.00 51.20,93.00" fill="#161b22" stroke="#0d1117" stroke-width="0.7"/>
<polygon points="62.40,82.00 80.40,82.00 87.20,93.00 69.20,93.00" fill="#161b22" stroke="#0d1117" stroke-width="0.7"/>
<polygon points="80.40,82.00 98.40,82.00 105.20,93.00 87.20,93.00" fill="#161b22" stroke="#0d1117" stroke-width="0.7"/>
<polygon points="116.40,75.63 123.20,86.63 123.20,93.00 116.40,82.00" fill="#072214"/>
<polygon points="105.20,86.63 123.20,86.63 123.20,93.00 105.20,93.00" fill="#092c1a"/>
<polygon points="98.40,75.63 116.40,75.63 123.20,86.63 105.20,86.63" fill="#0e4429" stroke="#0d1117" stroke-width="0.7"/>
<polygon points="116.40,82.00 134.40,82.00 141.20,93.00 123.20,93.00" fill="#161b22" stroke="#0d1117" stroke-width="0.7"/>
<polygon points="152.40,75.63 159.20,86.63 159.20,93.00 152.40,82.00" fill="#072214"/>
<polygon points="141.20,86.63 159.20,86.63 159.20,93.00 141.20,93.00" fill="#092c1a"/>
<polygon points="134.40,75.63 152.40,75.63 159.20,86.63 141.20,86.63" fill="#0e4429" stroke="#0d1117" stroke-width="0.7"/>
<polygon points="152.40,82.00 170.40,82.00 177.20,93.00 159.20,93.00" fill="#161b22" stroke="#0d1117" stroke-width="0.7"/>
<polygon points="188.40,67.20 195.20,78.20 195.20,93.00 188.40,82.00" fill="#003619"/>
<polygon points="177.20,78.20 195.20,78.20 195.20,93.00 177.20,93.00" fill="#004620"/>
<polygon points="170.40,67.20 188.40,67.20 195.20,78.20 177.20,78.20" fill="#006d32" stroke="#0d1117" stroke-width="0.7"/>
<polygon points="188.40,82.00 206.40,82.00 213.20,93.00 195.20,93.00" fill="#161b22" stroke="#0d1117" stroke-width="0.7"/>
<polygon points="206.40,82.00 224.40,82.00 231.20,93.00 213.20,93.00" fill="#161b22" stroke="#0d1117" stroke-width="0.7"/>
<polygon points="224.40,82.00 242.40,82.00 249.20,93.00 231.20,93.00" fill="#161b22" stroke="#0d1117" stroke-width="0.7"/>
<polygon points="242.40,82.00 260.40,82.00 267.20,93.00 249.20,93.00" fill="#161b22" stroke="#0d1117" stroke-width="0.7"/>
<polygon points="260.40,82.00 278.40,82.00 285.20,93.00 267.20,93.00" fill="#161b22" stroke="#0d1117" stroke-width="0.7"/>
<polygon points="296.40,62.88 303.20,73.88 303.20,93.00 296.40,82.00" fill="#135320"/>
<polygon points="285.20,73.88 303.20,73.88 303.20,93.00 285.20,93.00" fill="#186b2a"/>
<polygon points="278.40,62.88 296.40,62.88 303.20,73.88 285.20,73.88" fill="#26a641" stroke="#0d1117" stroke-width="0.7"/>
<polygon points="296.40,82.00 314.40,82.00 321.20,93.00 303.20,93.00" fill="#161b22" stroke="#0d1117" stroke-width="0.7"/>
<polygon points="314.40,82.00 332.40,82.00 339.20,93.00 321.20,93.00" fill="#161b22" stroke="#0d1117" stroke-width="0.7"/>
<polygon points="332.40,82.00 350.40,82.00 357.20,93.00 339.20,93.00" fill="#161b22" stroke="#0d1117" stroke-width="0.7"/>
<polygon points="350.40,82.00 368.40,82.00 375.20,93.00 357.20,93.00" fill="#161b22" stroke="#0d1117" stroke-width="0.7"/>
<polygon points="386.40,71.90 393.20,82.90 393.20,93.00 386.40,82.00" fill="#072214"/>
<polygon points="375.20,82.90 393.20,82.90 393.20,93.00 375.20,93.00" fill="#092c1a"/>
<polygon points="368.40,71.90 386.40,71.90 393.20,82.90 375.20,82.90" fill="#0e4429" stroke="#0d1117" stroke-width="0.7"/>
<polygon points="386.40,82.00 404.40,82.00 411.20,93.00 393.20,93.00" fill="#161b22" stroke="#0d1117" stroke-width="0.7"/>
<polygon points="422.40,65.52 429.20,76.52 429.20,93.00 422.40,82.00" fill="#003619"/>
<polygon points="411.20,76.52 429.20,76.52 429.20,93.00 411.20,93.00" fill="#004620"/>
<polygon points="404.40,65.52 422.40,65.52 429.20,76.52 411.20,76.52" fill="#006d32" stroke="#0d1117" stroke-width="0.7"/>
<polygon points="440.40,75.63 447.20,86.63 447.20,93.00 440.40,82.00" fill="#072214"/>
<polygon points="429.20,86.63 447.20,86.63 447.20,93.00 429.20,93.00" fill="#092c1a"/>
<polygon points="422.40,75.63 440.40,75.63 447.20,86.63 429.20,86.63" fill="#0e4429" stroke="#0d1117" stroke-width="0.7"/>
<polygon points="458.40,75.63 465.20,86.63 465.20,93.00 458.40,82.00" fill="#072214"/>
<polygon points="447.20,86.63 465.20,86.63 465.20,93.00 447.20,93.00" fill="#092c1a"/>
<polygon points="440.40,75.63 458.40,75.63 465.20,86.63 447.20,86.63" fill="#0e4429" stroke="#0d1117" stroke-width="0.7"/>
<polygon points="458.40,82.00 476.40,82.00 483.20,93.00 465.20,93.00" fill="#161b22" stroke="#0d1117" stroke-width="0.7"/>
<polygon points="494.40,75.63 501.20,86.63 501.20,93.00 494.40,82.00" fill="#072214"/>
<polygon points="483.20,86.63 501.20,86.63 501.20,93.00 483.20,93.00" fill="#092c1a"/>
<polygon points="476.40,75.63 494.40,75.63 501.20,86.63 483.20,86.63" fill="#0e4429" stroke="#0d1117" stroke-width="0.7"/>
<polygon points="494.40,82.00 512.40,82.00 519.20,93.00 501.20,93.00" fill="#161b22" stroke="#0d1117" stroke-width="0.7"/>
<polygon points="530.40,75.63 537.20,86.63 537.20,93.00 530.40,82.00" fill="#072214"/>
<polygon points="519.20,86.63 537.20,86.63 537.20,93.00 519.20,93.00" fill="#092c1a"/>
<polygon points="512.40,75.63 530.40,75.63 537.20,86.63 519.20,86.63" fill="#0e4429" stroke="#0d1117" stroke-width="0.7"/>
<polygon points="530.40,82.00 548.40,82.00 555.20,93.00 537.20,93.00" fill="#161b22" stroke="#0d1117" stroke-width="0.7"/>
<polygon points="566.40,75.63 573.20,86.63 573.20,93.00 566.40,82.00" fill="#072214"/>
<polygon points="555.20,86.63 573.20,86.63 573.20,93.00 555.20,93.00" fill="#092c1a"/>
<polygon points="548.40,75.63 566.40,75.63 573.20,86.63 555.20,86.63" fill="#0e4429" stroke="#0d1117" stroke-width="0.7"/>
<polygon points="566.40,82.00 584.40,82.00 591.20,93.00 573.20,93.00" fill="#161b22" stroke="#0d1117" stroke-width="0.7"/>
<polygon points="602.40,75.63 609.20,86.63 609.20,93.00 602.40,82.00" fill="#072214"/>
<polygon points="591.20,86.63 609.20,86.63 609.20,93.00 591.20,93.00" fill="#092c1a"/>
<polygon points="584.40,75.63 602.40,75.63 609.20,86.63 591.20,86.63" fill="#0e4429" stroke="#0d1117" stroke-width="0.7"/>
<polygon points="602.40,82.00 620.40,82.00 627.20,93.00 609.20,93.00" fill="#161b22" stroke="#0d1117" stroke-width="0.7"/>
<polygon points="638.40,75.63 645.20,86.63 645.20,93.00 638.40,82.00" fill="#072214"/>
<polygon points="627.20,86.63 645.20,86.63 645.20,93.00 627.20,93.00" fill="#092c1a"/>
<polygon points="620.40,75.63 638.40,75.63 645.20,86.63 627.20,86.63" fill="#0e4429" stroke="#0d1117" stroke-width="0.7"/>
<polygon points="638.40,82.00 656.40,82.00 663.20,93.00 645.20,93.00" fill="#161b22" stroke="#0d1117" stroke-width="0.7"/>
<polygon points="656.40,82.00 674.40,82.00 681.20,93.00 663.20,93.00" fill="#161b22" stroke="#0d1117" stroke-width="0.7"/>
<polygon points="674.40,82.00 692.40,82.00 699.20,93.00 681.20,93.00" fill="#161b22" stroke="#0d1117" stroke-width="0.7"/>
<polygon points="692.40,82.00 710.40,82.00 717.20,93.00 699.20,93.00" fill="#161b22" stroke="#0d1117" stroke-width="0.7"/>
<polygon points="710.40,82.00 728.40,82.00 735.20,93.00 717.20,93.00" fill="#161b22" stroke="#0d1117" stroke-width="0.7"/>
<polygon points="728.40,82.00 746.40,82.00 753.20,93.00 735.20,93.00" fill="#161b22" stroke="#0d1117" stroke-width="0.7"/>
<polygon points="746.40,82.00 764.40,82.00 771.20,93.00 753.20,93.00" fill="#161b22" stroke="#0d1117" stroke-width="0.7"/>
<polygon points="764.40,82.00 782.40,82.00 789.20,93.00 771.20,93.00" fill="#161b22" stroke="#0d1117" stroke-width="0.7"/>
<polygon points="782.40,82.00 800.40,82.00 807.20,93.00 789.20,93.00" fill="#161b22" stroke="#0d1117" stroke-width="0.7"/>
<polygon points="800.40,82.00 818.40,82.00 825.20,93.00 807.20,93.00" fill="#161b22" stroke="#0d1117" stroke-width="0.7"/>
<polygon points="818.40,82.00 836.40,82.00 843.20,93.00 825.20,93.00" fill="#161b22" stroke="#0d1117" stroke-width="0.7"/>
<polygon points="836.40,82.00 854.40,82.00 861.20,93.00 843.20,93.00" fill="#161b22" stroke="#0d1117" stroke-width="0.7"/>
<polygon points="854.40,82.00 872.40,82.00 879.20,93.00 861.20,93.00" fill="#161b22" stroke="#0d1117" stroke-width="0.7"/>
<polygon points="872.40,82.00 890.40,82.00 897.20,93.00 879.20,93.00" fill="#161b22" stroke="#0d1117" stroke-width="0.7"/>
<polygon points="890.40,82.00 908.40,82.00 915.20,93.00 897.20,93.00" fill="#161b22" stroke="#0d1117" stroke-width="0.7"/>
<polygon points="908.40,82.00 926.40,82.00 933.20,93.00 915.20,93.00" fill="#161b22" stroke="#0d1117" stroke-width="0.7"/>
<polygon points="944.40,67.20 951.20,78.20 951.20,93.00 944.40,82.00" fill="#003619"/>
<polygon points="933.20,78.20 951.20,78.20 951.20,93.00 933.20,93.00" fill="#004620"/>
<polygon points="926.40,67.20 944.40,67.20 951.20,78.20 933.20,78.20" fill="#006d32" stroke="#0d1117" stroke-width="0.7"/>
<polygon points="962.40,57.09 969.20,68.09 969.20,93.00 962.40,82.00" fill="#1c6929"/>
<polygon points="951.20,68.09 969.20,68.09 969.20,93.00 951.20,93.00" fill="#258935"/>
<polygon points="944.40,57.09 962.40,57.09 969.20,68.09 951.20,68.09" fill="#39d353" stroke="#0d1117" stroke-width="0.7"/>
<polygon points="962.40,82.00 980.40,82.00 987.20,93.00 969.20,93.00" fill="#161b22" stroke="#0d1117" stroke-width="0.7"/>
<polygon points="980.40,82.00 998.40,82.00 1005.20,93.00 987.20,93.00" fill="#161b22" stroke="#0d1117" stroke-width="0.7"/>
<polygon points="37.60,71.00 55.60,71.00 62.40,82.00 44.40,82.00" fill="#161b22" stroke="#0d1117" stroke-width="0.7"/>
<polygon points="55.60,71.00 73.60,71.00 80.40,82.00 62.40,82.00" fill="#161b22" stroke="#0d1117" stroke-width="0.7"/>
<polygon points="73.60,71.00 91.60,71.00 98.40,82.00 80.40,82.00" fill="#161b22" stroke="#0d1117" stroke-width="0.7"/>
<polygon points="91.60,71.00 109.60,71.00 116.40,82.00 98.40,82.00" fill="#161b22" stroke="#0d1117" stroke-width="0.7"/>
<polygon points="109.60,71.00 127.60,71.00 134.40,82.00 116.40,82.00" fill="#161b22" stroke="#0d1117" stroke-width="0.7"/>
<polygon points="145.60,58.25 152.40,69.25 152.40,82.00 145.60,71.00" fill="#003619"/>
<polygon points="134.40,69.25 152.40,69.25 152.40,82.00 134.40,82.00" fill="#004620"/>
<polygon points="127.60,58.25 145.60,58.25 152.40,69.25 134.40,69.25" fill="#006d32" stroke="#0d1117" stroke-width="0.7"/>
<polygon points="163.60,54.52 170.40,65.52 170.40,82.00 163.60,71.00" fill="#003619"/>
<polygon points="152.40,65.52 170.40,65.52 170.40,82.00 152.40,82.00" fill="#004620"/>
<polygon points="145.60,54.52 163.60,54.52 170.40,65.52 152.40,65.52" fill="#006d32" stroke="#0d1117" stroke-width="0.7"/>
<polygon points="181.60,56.20 188.40,67.20 188.40,82.00 181.60,71.00" fill="#003619"/>
<polygon points="170.40,67.20 188.40,67.20 188.40,82.00 170.40,82.00" fill="#004620"/>
<polygon points="163.60,56.20 181.60,56.20 188.40,67.20 170.40,67.20" fill="#006d32" stroke="#0d1117" stroke-width="0.7"/>
<polygon points="181.60,71.00 199.60,71.00 206.40,82.00 188.40,82.00" fill="#161b22" stroke="#0d1117" stroke-width="0.7"/>
<polygon points="217.60,60.90 224.40,71.90 224.40,82.00 217.60,71.00" fill="#072214"/>
<polygon points="206.40,71.90 224.40,71.90 224.40,82.00 206.40,82.00" fill="#092c1a"/>
<polygon points="199.60,60.90 217.60,60.90 224.40,71.90 206.40,71.90" fill="#0e4429" stroke="#0d1117" stroke-width="0.7"/>
<polygon points="235.60,64.63 242.40,75.63 242.40,82.00 235.60,71.00" fill="#072214"/>
<polygon points="224.40,75.63 242.40,75.63 242.40,82.00 224.40,82.00" fill="#092c1a"/>
<polygon points="217.60,64.63 235.60,64.63 242.40,75.63 224.40,75.63" fill="#0e4429" stroke="#0d1117" stroke-width="0.7"/>
<polygon points="235.60,71.00 253.60,71.00 260.40,82.00 242.40,82.00" fill="#161b22" stroke="#0d1117" stroke-width="0.7"/>
<polygon points="253.60,71.00 271.60,71.00 278.40,82.00 260.40,82.00" fill="#161b22" stroke="#0d1117" stroke-width="0.7"/>
<polygon points="271.60,71.00 289.60,71.00 296.40,82.00 278.40,82.00" fill="#161b22" stroke="#0d1117" stroke-width="0.7"/>
<polygon points="289.60,71.00 307.60,71.00 314.40,82.00 296.40,82.00" fill="#161b22" stroke="#0d1117" stroke-width="0.7"/>
<polygon points="307.60,71.00 325.60,71.00 332.40,82.00 314.40,82.00" fill="#161b22" stroke="#0d1117" stroke-width="0.7"/>
<polygon points="325.60,71.00 343.60,71.00 350.40,82.00 332.40,82.00" fill="#161b22" stroke="#0d1117" stroke-width="0.7"/>
<polygon points="343.60,71.00 361.60,71.00 368.40,82.00 350.40,82.00" fill="#161b22" stroke="#0d1117" stroke-width="0.7"/>
<polygon points="361.60,71.00 379.60,71.00 386.40,82.00 368.40,82.00" fill="#161b22" stroke="#0d1117" stroke-width="0.7"/>
<polygon points="379.60,71.00 397.60,71.00 404.40,82.00 386.40,82.00" fill="#161b22" stroke="#0d1117" stroke-width="0.7"/>
<polygon points="415.60,48.95 422.40,59.95 422.40,82.00 415.60,71.00" fill="#135320"/>
<polygon points="404.40,59.95 422.40,59.95 422.40,82.00 404.40,82.00" fill="#186b2a"/>
<polygon points="397.60,48.95 415.60,48.95 422.40,59.95 404.40,59.95" fill="#26a641" stroke="#0d1117" stroke-width="0.7"/>
<polygon points="415.60,71.00 433.60,71.00 440.40,82.00 422.40,82.00" fill="#161b22" stroke="#0d1117" stroke-width="0.7"/>
<polygon points="433.60,71.00 451.60,71.00 458.40,82.00 440.40,82.00" fill="#161b22" stroke="#0d1117" stroke-width="0.7"/>
<polygon points="469.60,64.63 476.40,75.63 476.40,82.00 469.60,71.00" fill="#072214"/>
<polygon points="458.40,75.63 476.40,75.63 476.40,82.00 458.40,82.00" fill="#092c1a"/>
<polygon points="451.60,64.63 469.60,64.63 476.40,75.63 458.40,75.63" fill="#0e4429" stroke="#0d1117" stroke-width="0.7"/>
<polygon points="469.60,71.00 487.60,71.00 494.40,82.00 476.40,82.00" fill="#161b22" stroke="#0d1117" stroke-width="0.7"/>
<polygon points="487.60,71.00 505.60,71.00 512.40,82.00 494.40,82.00" fill="#161b22" stroke="#0d1117" stroke-width="0.7"/>
<polygon points="523.60,60.90 530.40,71.90 530.40,82.00 523.60,71.00" fill="#072214"/>
<polygon points="512.40,71.90 530.40,71.90 530.40,82.00 512.40,82.00" fill="#092c1a"/>
<polygon points="505.60,60.90 523.60,60.90 530.40,71.90 512.40,71.90" fill="#0e4429" stroke="#0d1117" stroke-width="0.7"/>
<polygon points="523.60,71.00 541.60,71.00 548.40,82.00 530.40,82.00" fill="#161b22" stroke="#0d1117" stroke-width="0.7"/>
<polygon points="559.60,64.63 566.40,75.63 566.40,82.00 559.60,71.00" fill="#072214"/>
<polygon points="548.40,75.63 566.40,75.63 566.40,82.00 548.40,82.00" fill="#092c1a"/>
<polygon points="541.60,64.63 559.60,64.63 566.40,75.63 548.40,75.63" fill="#0e4429" stroke="#0d1117" stroke-width="0.7"/>
<polygon points="577.60,60.90 584.40,71.90 584.40,82.00 577.60,71.00" fill="#072214"/>
<polygon points="566.40,71.90 584.40,71.90 584.40,82.00 566.40,82.00" fill="#092c1a"/>
<polygon points="559.60,60.90 577.60,60.90 584.40,71.90 566.40,71.90" fill="#0e4429" stroke="#0d1117" stroke-width="0.7"/>
<polygon points="577.60,71.00 595.60,71.00 602.40,82.00 584.40,82.00" fill="#161b22" stroke="#0d1117" stroke-width="0.7"/>
<polygon points="595.60,71.00 613.60,71.00 620.40,82.00 602.40,82.00" fill="#161b22" stroke="#0d1117" stroke-width="0.7"/>
<polygon points="631.60,64.63 638.40,75.63 638.40,82.00 631.60,71.00" fill="#072214"/>
<polygon points="620.40,75.63 638.40,75.63 638.40,82.00 620.40,82.00" fill="#092c1a"/>
<polygon points="613.60,64.63 631.60,64.63 638.40,75.63 620.40,75.63" fill="#0e4429" stroke="#0d1117" stroke-width="0.7"/>
<polygon points="631.60,71.00 649.60,71.00 656.40,82.00 638.40,82.00" fill="#161b22" stroke="#0d1117" stroke-width="0.7"/>
<polygon points="649.60,71.00 667.60,71.00 674.40,82.00 656.40,82.00" fill="#161b22" stroke="#0d1117" stroke-width="0.7"/>
<polygon points="667.60,71.00 685.60,71.00 692.40,82.00 674.40,82.00" fill="#161b22" stroke="#0d1117" stroke-width="0.7"/>
<polygon points="685.60,71.00 703.60,71.00 710.40,82.00 692.40,82.00" fill="#161b22" stroke="#0d1117" stroke-width="0.7"/>
<polygon points="703.60,71.00 721.60,71.00 728.40,82.00 710.40,82.00" fill="#161b22" stroke="#0d1117" stroke-width="0.7"/>
<polygon points="739.60,64.63 746.40,75.63 746.40,82.00 739.60,71.00" fill="#072214"/>
<polygon points="728.40,75.63 746.40,75.63 746.40,82.00 728.40,82.00" fill="#092c1a"/>
<polygon points="721.60,64.63 739.60,64.63 746.40,75.63 728.40,75.63" fill="#0e4429" stroke="#0d1117" stroke-width="0.7"/>
<polygon points="739.60,71.00 757.60,71.00 764.40,82.00 746.40,82.00" fill="#161b22" stroke="#0d1117" stroke-width="0.7"/>
<polygon points="757.60,71.00 775.60,71.00 782.40,82.00 764.40,82.00" fill="#161b22" stroke="#0d1117" stroke-width="0.7"/>
<polygon points="775.60,71.00 793.60,71.00 800.40,82.00 782.40,82.00" fill="#161b22" stroke="#0d1117" stroke-width="0.7"/>
<polygon points="793.60,71.00 811.60,71.00 818.40,82.00 800.40,82.00" fill="#161b22" stroke="#0d1117" stroke-width="0.7"/>
<polygon points="811.60,71.00 829.60,71.00 836.40,82.00 818.40,82.00" fill="#161b22" stroke="#0d1117" stroke-width="0.7"/>
<polygon points="829.60,71.00 847.60,71.00 854.40,82.00 836.40,82.00" fill="#161b22" stroke="#0d1117" stroke-width="0.7"/>
<polygon points="847.60,71.00 865.60,71.00 872.40,82.00 854.40,82.00" fill="#161b22" stroke="#0d1117" stroke-width="0.7"/>
<polygon points="865.60,71.00 883.60,71.00 890.40,82.00 872.40,82.00" fill="#161b22" stroke="#0d1117" stroke-width="0.7"/>
<polygon points="883.60,71.00 901.60,71.00 908.40,82.00 890.40,82.00" fill="#161b22" stroke="#0d1117" stroke-width="0.7"/>
<polygon points="901.60,71.00 919.60,71.00 926.40,82.00 908.40,82.00" fill="#161b22" stroke="#0d1117" stroke-width="0.7"/>
<polygon points="919.60,71.00 937.60,71.00 944.40,82.00 926.40,82.00" fill="#161b22" stroke="#0d1117" stroke-width="0.7"/>
<polygon points="937.60,71.00 955.60,71.00 962.40,82.00 944.40,82.00" fill="#161b22" stroke="#0d1117" stroke-width="0.7"/>
<polygon points="973.60,64.63 980.40,75.63 980.40,82.00 973.60,71.00" fill="#072214"/>
<polygon points="962.40,75.63 980.40,75.63 980.40,82.00 962.40,82.00" fill="#092c1a"/>
<polygon points="955.60,64.63 973.60,64.63 980.40,75.63 962.40,75.63" fill="#0e4429" stroke="#0d1117" stroke-width="0.7"/>
<polygon points="991.60,64.63 998.40,75.63 998.40,82.00 991.60,71.00" fill="#072214"/>
<polygon points="980.40,75.63 998.40,75.63 998.40,82.00 980.40,82.00" fill="#092c1a"/>
<polygon points="973.60,64.63 991.60,64.63 998.40,75.63 980.40,75.63" fill="#0e4429" stroke="#0d1117" stroke-width="0.7"/>
<polygon points="30.80,60.00 48.80,60.00 55.60,71.00 37.60,71.00" fill="#161b22" stroke="#0d1117" stroke-width="0.7"/>
<polygon points="48.80,60.00 66.80,60.00 73.60,71.00 55.60,71.00" fill="#161b22" stroke="#0d1117" stroke-width="0.7"/>
<polygon points="84.80,47.25 91.60,58.25 91.60,71.00 84.80,60.00" fill="#003619"/>
<polygon points="73.60,58.25 91.60,58.25 91.60,71.00 73.60,71.00" fill="#004620"/>
<polygon points="66.80,47.25 84.80,47.25 91.60,58.25 73.60,58.25" fill="#006d32" stroke="#0d1117" stroke-width="0.7"/>
<polygon points="84.80,60.00 102.80,60.00 109.60,71.00 91.60,71.00" fill="#161b22" stroke="#0d1117" stroke-width="0.7"/>
<polygon points="102.80,60.00 120.80,60.00 127.60,71.00 109.60,71.00" fill="#161b22" stroke="#0d1117" stroke-width="0.7"/>
<polygon points="138.80,40.88 145.60,51.88 145.60,71.00 138.80,60.00" fill="#135320"/>
<polygon points="127.60,51.88 145.60,51.88 145.60,71.00 127.60,71.00" fill="#186b2a"/>
<polygon points="120.80,40.88 138.80,40.88 145.60,51.88 127.60,51.88" fill="#26a641" stroke="#0d1117" stroke-width="0.7"/>
<polygon points="156.80,43.52 163.60,54.52 163.60,71.00 156.80,60.00" fill="#003619"/>
<polygon points="145.60,54.52 163.60,54.52 163.60,71.00 145.60,71.00" fill="#004620"/>
<polygon points="138.80,43.52 156.80,43.52 163.60,54.52 145.60,54.52" fill="#006d32" stroke="#0d1117" stroke-width="0.7"/>
<polygon points="174.80,42.10 181.60,53.10 181.60,71.00 174.80,60.00" fill="#135320"/>
<polygon points="163.60,53.10 181.60,53.10 181.60,71.00 163.60,71.00" fill="#186b2a"/>
<polygon points="156.80,42.10 174.80,42.10 181.60,53.10 163.60,53.10" fill="#26a641" stroke="#0d1117" stroke-width="0.7"/>
<polygon points="174.80,60.00 192.80,60.00 199.60,71.00 181.60,71.00" fill="#161b22" stroke="#0d1117" stroke-width="0.7"/>
<polygon points="192.80,60.00 210.80,60.00 217.60,71.00 199.60,71.00" fill="#161b22" stroke="#0d1117" stroke-width="0.7"/>
<polygon points="228.80,53.63 235.60,64.63 235.60,71.00 228.80,60.00" fill="#072214"/>
<polygon points="217.60,64.63 235.60,64.63 235.60,71.00 217.60,71.00" fill="#092c1a"/>
<polygon points="210.80,53.63 228.80,53.63 235.60,64.63 217.60,64.63" fill="#0e4429" stroke="#0d1117" stroke-width="0.7"/>
<polygon points="246.80,53.63 253.60,64.63 253.60,71.00 246.80,60.00" fill="#072214"/>
<polygon points="235.60,64.63 253.60,64.63 253.60,71.00 235.60,71.00" fill="#092c1a"/>
<polygon points="228.80,53.63 246.80,53.63 253.60,64.63 235.60,64.63" fill="#0e4429" stroke="#0d1117" stroke-width="0.7"/>
<polygon points="246.80,60.00 264.80,60.00 271.60,71.00 253.60,71.00" fill="#161b22" stroke="#0d1117" stroke-width="0.7"/>
<polygon points="282.80,45.20 289.60,56.20 289.60,71.00 282.80,60.00" fill="#003619"/>
<polygon points="271.60,56.20 289.60,56.20 289.60,71.00 271.60,71.00" fill="#004620"/>
<polygon points="264.80,45.20 282.80,45.20 289.60,56.20 271.60,56.20" fill="#006d32" stroke="#0d1117" stroke-width="0.7"/>
<polygon points="300.80,53.63 307.60,64.63 307.60,71.00 300.80,60.00" fill="#072214"/>
<polygon points="289.60,64.63 307.60,64.63 307.60,71.00 289.60,71.00" fill="#092c1a"/>
<polygon points="282.80,53.63 300.80,53.63 307.60,64.63 289.60,64.63" fill="#0e4429" stroke="#0d1117" stroke-width="0.7"/>
<polygon points="300.80,60.00 318.80,60.00 325.60,71.00 307.60,71.00" fill="#161b22" stroke="#0d1117" stroke-width="0.7"/>
<polygon points="318.80,60.00 336.80,60.00 343.60,71.00 325.60,71.00" fill="#161b22" stroke="#0d1117" stroke-width="0.7"/>
<polygon points="336.80,60.00 354.80,60.00 361.60,71.00 343.60,71.00" fill="#161b22" stroke="#0d1117" stroke-width="0.7"/>
<polygon points="372.80,53.63 379.60,64.63 379.60,71.00 372.80,60.00" fill="#072214"/>
<polygon points="361.60,64.63 379.60,64.63 379.60,71.00 361.60,71.00" fill="#092c1a"/>
<polygon points="354.80,53.63 372.80,53.63 379.60,64.63 361.60,64.63" fill="#0e4429" stroke="#0d1117" stroke-width="0.7"/>
<polygon points="372.80,60.00 390.80,60.00 397.60,71.00 379.60,71.00" fill="#161b22" stroke="#0d1117" stroke-width="0.7"/>
<polygon points="390.80,60.00 408.80,60.00 415.60,71.00 397.60,71.00" fill="#161b22" stroke="#0d1117" stroke-width="0.7"/>
<polygon points="408.80,60.00 426.80,60.00 433.60,71.00 415.60,71.00" fill="#161b22" stroke="#0d1117" stroke-width="0.7"/>
<polygon points="426.80,60.00 444.80,60.00 451.60,71.00 433.60,71.00" fill="#161b22" stroke="#0d1117" stroke-width="0.7"/>
<polygon points="444.80,60.00 462.80,60.00 469.60,71.00 451.60,71.00" fill="#161b22" stroke="#0d1117" stroke-width="0.7"/>
<polygon points="462.80,60.00 480.80,60.00 487.60,71.00 469.60,71.00" fill="#161b22" stroke="#0d1117" stroke-width="0.7"/>
<polygon points="480.80,60.00 498.80,60.00 505.60,71.00 487.60,71.00" fill="#161b22" stroke="#0d1117" stroke-width="0.7"/>
<polygon points="498.80,60.00 516.80,60.00 523.60,71.00 505.60,71.00" fill="#161b22" stroke="#0d1117" stroke-width="0.7"/>
<polygon points="534.80,45.20 541.60,56.20 541.60,71.00 534.80,60.00" fill="#003619"/>
<polygon points="523.60,56.20 541.60,56.20 541.60,71.00 523.60,71.00" fill="#004620"/>
<polygon points="516.80,45.20 534.80,45.20 541.60,56.20 523.60,56.20" fill="#006d32" stroke="#0d1117" stroke-width="0.7"/>
<polygon points="552.80,53.63 559.60,64.63 559.60,71.00 552.80,60.00" fill="#072214"/>
<polygon points="541.60,64.63 559.60,64.63 559.60,71.00 541.60,71.00" fill="#092c1a"/>
<polygon points="534.80,53.63 552.80,53.63 559.60,64.63 541.60,64.63" fill="#0e4429" stroke="#0d1117" stroke-width="0.7"/>
<polygon points="570.80,53.63 577.60,64.63 577.60,71.00 570.80,60.00" fill="#072214"/>
<polygon points="559.60,64.63 577.60,64.63 577.60,71.00 559.60,71.00" fill="#092c1a"/>
<polygon points="552.80,53.63 570.80,53.63 577.60,64.63 559.60,64.63" fill="#0e4429" stroke="#0d1117" stroke-width="0.7"/>
<polygon points="570.80,60.00 588.80,60.00 595.60,71.00 577.60,71.00" fill="#161b22" stroke="#0d1117" stroke-width="0.7"/>
<polygon points="606.80,53.63 613.60,64.63 613.60,71.00 606.80,60.00" fill="#072214"/>
<polygon points="595.60,64.63 613.60,64.63 613.60,71.00 595.60,71.00" fill="#092c1a"/>
<polygon points="588.80,53.63 606.80,53.63 613.60,64.63 595.60,64.63" fill="#0e4429" stroke="#0d1117" stroke-width="0.7"/>
<polygon points="606.80,60.00 624.80,60.00 631.60,71.00 613.60,71.00" fill="#161b22" stroke="#0d1117" stroke-width="0.7"/>
<polygon points="642.80,53.63 649.60,64.63 649.60,71.00 642.80,60.00" fill="#072214"/>
<polygon points="631.60,64.63 649.60,64.63 649.60,71.00 631.60,71.00" fill="#092c1a"/>
<polygon points="624.80,53.63 642.80,53.63 649.60,64.63 631.60,64.63" fill="#0e4429" stroke="#0d1117" stroke-width="0.7"/>
<polygon points="642.80,60.00 660.80,60.00 667.60,71.00 649.60,71.00" fill="#161b22" stroke="#0d1117" stroke-width="0.7"/>
<polygon points="660.80,60.00 678.80,60.00 685.60,71.00 667.60,71.00" fill="#161b22" stroke="#0d1117" stroke-width="0.7"/>
<polygon points="678.80,60.00 696.80,60.00 703.60,71.00 685.60,71.00" fill="#161b22" stroke="#0d1117" stroke-width="0.7"/>
<polygon points="696.80,60.00 714.80,60.00 721.60,71.00 703.60,71.00" fill="#161b22" stroke="#0d1117" stroke-width="0.7"/>
<polygon points="732.80,53.63 739.60,64.63 739.60,71.00 732.80,60.00" fill="#072214"/>
<polygon points="721.60,64.63 739.60,64.63 739.60,71.00 721.60,71.00" fill="#092c1a"/>
<polygon points="714.80,53.63 732.80,53.63 739.60,64.63 721.60,64.63" fill="#0e4429" stroke="#0d1117" stroke-width="0.7"/>
<polygon points="750.80,45.20 757.60,56.20 757.60,71.00 750.80,60.00" fill="#003619"/>
<polygon points="739.60,56.20 757.60,56.20 757.60,71.00 739.60,71.00" fill="#004620"/>
<polygon points="732.80,45.20 750.80,45.20 757.60,56.20 739.60,56.20" fill="#006d32" stroke="#0d1117" stroke-width="0.7"/>
<polygon points="768.80,53.63 775.60,64.63 775.60,71.00 768.80,60.00" fill="#072214"/>
<polygon points="757.60,64.63 775.60,64.63 775.60,71.00 757.60,71.00" fill="#092c1a"/>
<polygon points="750.80,53.63 768.80,53.63 775.60,64.63 757.60,64.63" fill="#0e4429" stroke="#0d1117" stroke-width="0.7"/>
<polygon points="768.80,60.00 786.80,60.00 793.60,71.00 775.60,71.00" fill="#161b22" stroke="#0d1117" stroke-width="0.7"/>
<polygon points="786.80,60.00 804.80,60.00 811.60,71.00 793.60,71.00" fill="#161b22" stroke="#0d1117" stroke-width="0.7"/>
<polygon points="804.80,60.00 822.80,60.00 829.60,71.00 811.60,71.00" fill="#161b22" stroke="#0d1117" stroke-width="0.7"/>
<polygon points="822.80,60.00 840.80,60.00 847.60,71.00 829.60,71.00" fill="#161b22" stroke="#0d1117" stroke-width="0.7"/>
<polygon points="840.80,60.00 858.80,60.00 865.60,71.00 847.60,71.00" fill="#161b22" stroke="#0d1117" stroke-width="0.7"/>
<polygon points="858.80,60.00 876.80,60.00 883.60,71.00 865.60,71.00" fill="#161b22" stroke="#0d1117" stroke-width="0.7"/>
<polygon points="876.80,60.00 894.80,60.00 901.60,71.00 883.60,71.00" fill="#161b22" stroke="#0d1117" stroke-width="0.7"/>
<polygon points="894.80,60.00 912.80,60.00 919.60,71.00 901.60,71.00" fill="#161b22" stroke="#0d1117" stroke-width="0.7"/>
<polygon points="912.80,60.00 930.80,60.00 937.60,71.00 919.60,71.00" fill="#161b22" stroke="#0d1117" stroke-width="0.7"/>
<polygon points="930.80,60.00 948.80,60.00 955.60,71.00 937.60,71.00" fill="#161b22" stroke="#0d1117" stroke-width="0.7"/>
<polygon points="966.80,53.63 973.60,64.63 973.60,71.00 966.80,60.00" fill="#072214"/>
<polygon points="955.60,64.63 973.60,64.63 973.60,71.00 955.60,71.00" fill="#092c1a"/>
<polygon points="948.80,53.63 966.80,53.63 973.60,64.63 955.60,64.63" fill="#0e4429" stroke="#0d1117" stroke-width="0.7"/>
<polygon points="966.80,60.00 984.80,60.00 991.60,71.00 973.60,71.00" fill="#161b22" stroke="#0d1117" stroke-width="0.7"/>
<polygon points="24.00,49.00 42.00,49.00 48.80,60.00 30.80,60.00" fill="#161b22" stroke="#0d1117" stroke-width="0.7"/>
<polygon points="42.00,49.00 60.00,49.00 66.80,60.00 48.80,60.00" fill="#161b22" stroke="#0d1117" stroke-width="0.7"/>
<polygon points="78.00,25.41 84.80,36.41 84.80,60.00 78.00,49.00" fill="#135320"/>
<polygon points="66.80,36.41 84.80,36.41 84.80,60.00 66.80,60.00" fill="#186b2a"/>
<polygon points="60.00,25.41 78.00,25.41 84.80,36.41 66.80,36.41" fill="#26a641" stroke="#0d1117" stroke-width="0.7"/>
<polygon points="78.00,49.00 96.00,49.00 102.80,60.00 84.80,60.00" fill="#161b22" stroke="#0d1117" stroke-width="0.7"/>
<polygon points="114.00,34.20 120.80,45.20 120.80,60.00 114.00,49.00" fill="#003619"/>
<polygon points="102.80,45.20 120.80,45.20 120.80,60.00 102.80,60.00" fill="#004620"/>
<polygon points="96.00,34.20 114.00,34.20 120.80,45.20 102.80,45.20" fill="#006d32" stroke="#0d1117" stroke-width="0.7"/>
<polygon points="132.00,38.90 138.80,49.90 138.80,60.00 132.00,49.00" fill="#072214"/>
<polygon points="120.80,49.90 138.80,49.90 138.80,60.00 120.80,60.00" fill="#092c1a"/>
<polygon points="114.00,38.90 132.00,38.90 138.80,49.90 120.80,49.90" fill="#0e4429" stroke="#0d1117" stroke-width="0.7"/>
<polygon points="150.00,42.63 156.80,53.63 156.80,60.00 150.00,49.00" fill="#072214"/>
<polygon points="138.80,53.63 156.80,53.63 156.80,60.00 138.80,60.00" fill="#092c1a"/>
<polygon points="132.00,42.63 150.00,42.63 156.80,53.63 138.80,53.63" fill="#0e4429" stroke="#0d1117" stroke-width="0.7"/>
<polygon points="168.00,26.15 174.80,37.15 174.80,60.00 168.00,49.00" fill="#135320"/>
<polygon points="156.80,37.15 174.80,37.15 174.80,60.00 156.80,60.00" fill="#186b2a"/>
<polygon points="150.00,26.15 168.00,26.15 174.80,37.15 156.80,37.15" fill="#26a641" stroke="#0d1117" stroke-width="0.7"/>
<polygon points="186.00,36.25 192.80,47.25 192.80,60.00 186.00,49.00" fill="#003619"/>
<polygon points="174.80,47.25 192.80,47.25 192.80,60.00 174.80,60.00" fill="#004620"/>
<polygon points="168.00,36.25 186.00,36.25 192.80,47.25 174.80,47.25" fill="#006d32" stroke="#0d1117" stroke-width="0.7"/>
<polygon points="186.00,49.00 204.00,49.00 210.80,60.00 192.80,60.00" fill="#161b22" stroke="#0d1117" stroke-width="0.7"/>
<polygon points="204.00,49.00 222.00,49.00 228.80,60.00 210.80,60.00" fill="#161b22" stroke="#0d1117" stroke-width="0.7"/>
<polygon points="240.00,42.63 246.80,53.63 246.80,60.00 240.00,49.00" fill="#072214"/>
<polygon points="228.80,53.63 246.80,53.63 246.80,60.00 228.80,60.00" fill="#092c1a"/>
<polygon points="222.00,42.63 240.00,42.63 246.80,53.63 228.80,53.63" fill="#0e4429" stroke="#0d1117" stroke-width="0.7"/>
<polygon points="240.00,49.00 258.00,49.00 264.80,60.00 246.80,60.00" fill="#161b22" stroke="#0d1117" stroke-width="0.7"/>
<polygon points="258.00,49.00 276.00,49.00 282.80,60.00 264.80,60.00" fill="#161b22" stroke="#0d1117" stroke-width="0.7"/>
<polygon points="276.00,49.00 294.00,49.00 300.80,60.00 282.80,60.00" fill="#161b22" stroke="#0d1117" stroke-width="0.7"/>
<polygon points="294.00,49.00 312.00,49.00 318.80,60.00 300.80,60.00" fill="#161b22" stroke="#0d1117" stroke-width="0.7"/>
<polygon points="312.00,49.00 330.00,49.00 336.80,60.00 318.80,60.00" fill="#161b22" stroke="#0d1117" stroke-width="0.7"/>
<polygon points="330.00,49.00 348.00,49.00 354.80,60.00 336.80,60.00" fill="#161b22" stroke="#0d1117" stroke-width="0.7"/>
<polygon points="348.00,49.00 366.00,49.00 372.80,60.00 354.80,60.00" fill="#161b22" stroke="#0d1117" stroke-width="0.7"/>
<polygon points="366.00,49.00 384.00,49.00 390.80,60.00 372.80,60.00" fill="#161b22" stroke="#0d1117" stroke-width="0.7"/>
<polygon points="402.00,36.25 408.80,47.25 408.80,60.00 402.00,49.00" fill="#003619"/>
<polygon points="390.80,47.25 408.80,47.25 408.80,60.00 390.80,60.00" fill="#004620"/>
<polygon points="384.00,36.25 402.00,36.25 408.80,47.25 390.80,47.25" fill="#006d32" stroke="#0d1117" stroke-width="0.7"/>
<polygon points="402.00,49.00 420.00,49.00 426.80,60.00 408.80,60.00" fill="#161b22" stroke="#0d1117" stroke-width="0.7"/>
<polygon points="420.00,49.00 438.00,49.00 444.80,60.00 426.80,60.00" fill="#161b22" stroke="#0d1117" stroke-width="0.7"/>
<polygon points="438.00,49.00 456.00,49.00 462.80,60.00 444.80,60.00" fill="#161b22" stroke="#0d1117" stroke-width="0.7"/>
<polygon points="456.00,49.00 474.00,49.00 480.80,60.00 462.80,60.00" fill="#161b22" stroke="#0d1117" stroke-width="0.7"/>
<polygon points="474.00,49.00 492.00,49.00 498.80,60.00 480.80,60.00" fill="#161b22" stroke="#0d1117" stroke-width="0.7"/>
<polygon points="492.00,49.00 510.00,49.00 516.80,60.00 498.80,60.00" fill="#161b22" stroke="#0d1117" stroke-width="0.7"/>
<polygon points="510.00,49.00 528.00,49.00 534.80,60.00 516.80,60.00" fill="#161b22" stroke="#0d1117" stroke-width="0.7"/>
<polygon points="528.00,49.00 546.00,49.00 552.80,60.00 534.80,60.00" fill="#161b22" stroke="#0d1117" stroke-width="0.7"/>
<polygon points="546.00,49.00 564.00,49.00 570.80,60.00 552.80,60.00" fill="#161b22" stroke="#0d1117" stroke-width="0.7"/>
<polygon points="564.00,49.00 582.00,49.00 588.80,60.00 570.80,60.00" fill="#161b22" stroke="#0d1117" stroke-width="0.7"/>
<polygon points="582.00,49.00 600.00,49.00 606.80,60.00 588.80,60.00" fill="#161b22" stroke="#0d1117" stroke-width="0.7"/>
<polygon points="600.00,49.00 618.00,49.00 624.80,60.00 606.80,60.00" fill="#161b22" stroke="#0d1117" stroke-width="0.7"/>
<polygon points="618.00,49.00 636.00,49.00 642.80,60.00 624.80,60.00" fill="#161b22" stroke="#0d1117" stroke-width="0.7"/>
<polygon points="636.00,49.00 654.00,49.00 660.80,60.00 642.80,60.00" fill="#161b22" stroke="#0d1117" stroke-width="0.7"/>
<polygon points="654.00,49.00 672.00,49.00 678.80,60.00 660.80,60.00" fill="#161b22" stroke="#0d1117" stroke-width="0.7"/>
<polygon points="672.00,49.00 690.00,49.00 696.80,60.00 678.80,60.00" fill="#161b22" stroke="#0d1117" stroke-width="0.7"/>
<polygon points="690.00,49.00 708.00,49.00 714.80,60.00 696.80,60.00" fill="#161b22" stroke="#0d1117" stroke-width="0.7"/>
<polygon points="708.00,49.00 726.00,49.00 732.80,60.00 714.80,60.00" fill="#161b22" stroke="#0d1117" stroke-width="0.7"/>
<polygon points="726.00,49.00 744.00,49.00 750.80,60.00 732.80,60.00" fill="#161b22" stroke="#0d1117" stroke-width="0.7"/>
<polygon points="744.00,49.00 762.00,49.00 768.80,60.00 750.80,60.00" fill="#161b22" stroke="#0d1117" stroke-width="0.7"/>
<polygon points="762.00,49.00 780.00,49.00 786.80,60.00 768.80,60.00" fill="#161b22" stroke="#0d1117" stroke-width="0.7"/>
<polygon points="780.00,49.00 798.00,49.00 804.80,60.00 786.80,60.00" fill="#161b22" stroke="#0d1117" stroke-width="0.7"/>
<polygon points="798.00,49.00 816.00,49.00 822.80,60.00 804.80,60.00" fill="#161b22" stroke="#0d1117" stroke-width="0.7"/>
<polygon points="816.00,49.00 834.00,49.00 840.80,60.00 822.80,60.00" fill="#161b22" stroke="#0d1117" stroke-width="0.7"/>
<polygon points="834.00,49.00 852.00,49.00 858.80,60.00 840.80,60.00" fill="#161b22" stroke="#0d1117" stroke-width="0.7"/>
<polygon points="852.00,49.00 870.00,49.00 876.80,60.00 858.80,60.00" fill="#161b22" stroke="#0d1117" stroke-width="0.7"/>
<polygon points="870.00,49.00 888.00,49.00 894.80,60.00 876.80,60.00" fill="#161b22" stroke="#0d1117" stroke-width="0.7"/>
<polygon points="888.00,49.00 906.00,49.00 912.80,60.00 894.80,60.00" fill="#161b22" stroke="#0d1117" stroke-width="0.7"/>
<polygon points="906.00,49.00 924.00,49.00 930.80,60.00 912.80,60.00" fill="#161b22" stroke="#0d1117" stroke-width="0.7"/>
<polygon points="924.00,49.00 942.00,49.00 948.80,60.00 930.80,60.00" fill="#161b22" stroke="#0d1117" stroke-width="0.7"/>
<polygon points="960.00,27.82 966.80,38.82 966.80,60.00 960.00,49.00" fill="#135320"/>
<polygon points="948.80,38.82 966.80,38.82 966.80,60.00 948.80,60.00" fill="#186b2a"/>
<polygon points="942.00,27.82 960.00,27.82 966.80,38.82 948.80,38.82" fill="#26a641" stroke="#0d1117" stroke-width="0.7"/>
<polygon points="960.00,49.00 978.00,49.00 984.80,60.00 966.80,60.00" fill="#161b22" stroke="#0d1117" stroke-width="0.7"/>
<polyline points="56.80,87.25 74.80,87.25 92.80,87.25 99.60,98.25 117.60,98.25 135.60,98.25 153.60,91.88 171.60,85.50 189.60,98.25 207.60,98.25 200.80,87.25 218.80,87.25 236.80,87.25 254.80,87.25 272.80,87.25 266.00,76.25 284.00,76.25 302.00,76.25 320.00,76.25 338.00,76.25 356.00,76.25 374.00,76.25 392.00,76.25 385.20,65.25 403.20,65.25 421.20,65.25 439.20,65.25 457.20,65.25 475.20,65.25 493.20,65.25 511.20,65.25 504.40,54.25 522.40,54.25 540.40,54.25 558.40,54.25 576.40,54.25 594.40,54.25 612.40,54.25 630.40,54.25 648.40,54.25 666.40,54.25 684.40,54.25 702.40,54.25 720.40,54.25 738.40,54.25 756.40,54.25 774.40,54.25 781.20,65.25 788.00,76.25 806.00,76.25 824.00,76.25 842.00,76.25 860.00,76.25 878.00,76.25 896.00,76.25 914.00,76.25 932.00,76.25 950.00,76.25 968.00,69.88 974.80,87.25 992.80,87.25" fill="none" stroke="#f2cc60" stroke-width="3.2" stroke-linecap="round" stroke-linejoin="round"/>
<circle cx="56.80" cy="87.25" r="3.8" fill="#f2cc60" stroke="#0d1117" stroke-width="1"/>
<circle cx="992.80" cy="87.25" r="3.8" fill="#f2cc60" stroke="#0d1117" stroke-width="1"/>
</svg>