<svg xmlns="http://www.w3.org/2000/svg" width="1047" height="123" viewBox="0 0 1047 123" role="img">
<rect width="1047" height="123" rx="12" fill="#0d1117"/>
<polygon points="46.40,92.80 64.40,92.80 67.80,97.10 49.80,97.10" fill="#161b22" stroke="#0d1117" stroke-width="0.7"/>
<polygon points="64.40,92.80 82.40,92.80 85.80,97.10 67.80,97.10" fill="#161b22" stroke="#0d1117" stroke-width="0.7"/>
<polygon points="82.40,92.80 100.40,92.80 103.80,97.10 85.80,97.10" fill="#161b22" stroke="#0d1117" stroke-width="0.7"/>
<polygon points="100.40,92.80 118.40,92.80 121.80,97.10 103.80,97.10" fill="#161b22" stroke="#0d1117" stroke-width="0.7"/>
<polygon points="136.40,81.77 139.80,86.07 139.80,97.10 136.40,92.80" fill="#072214"/>
<polygon points="121.80,86.07 139.80,86.07 139.80,97.10 121.80,97.10" fill="#092c1a"/>
<polygon points="118.40,81.77 136.40,81.77 139.80,86.07 121.80,86.07" fill="#0e4429" stroke="#0d1117" stroke-width="0.7"/>
<polygon points="154.40,75.32 157.80,79.62 157.80,97.10 154.40,92.80" fill="#003619"/>
<polygon points="139.80,79.62 157.80,79.62 157.80,97.10 139.80,97.10" fill="#004620"/>
<polygon points="136.40,75.32 154.40,75.32 157.80,79.62 139.80,79.62" fill="#006d32" stroke="#0d1117" stroke-width="0.7"/>
<polygon points="172.40,56.15 175.80,60.45 175.80,97.10 172.40,92.80" fill="#135320"/>
<polygon points="157.80,60.45 175.80,60.45 175.80,97.10 157.80,97.10" fill="#186b2a"/>
<polygon points="154.40,56.15 172.40,56.15 175.80,60.45 157.80,60.45" fill="#26a641" stroke="#0d1117" stroke-width="0.7"/>
<polygon points="190.40,81.77 193.80,86.07 193.80,97.10 190.40,92.80" fill="#072214"/>
<polygon points="175.80,86.07 193.80,86.07 193.80,97.10 175.80,97.10" fill="#092c1a"/>
<polygon points="172.40,81.77 190.40,81.77 193.80,86.07 175.80,86.07" fill="#0e4429" stroke="#0d1117" stroke-width="0.7"/>
<polygon points="190.40,92.80 208.40,92.80 211.80,97.10 193.80,97.10" fill="#161b22" stroke="#0d1117" stroke-width="0.7"/>
<polygon points="226.40,75.32 229.80,79.62 229.80,97.10 226.40,92.80" fill="#003619"/>
<polygon points="211.80,79.62 229.80,79.62 229.80,97.10 211.80,97.10" fill="#004620"/>
<polygon points="208.40,75.32 226.40,75.32 229.80,79.62 211.80,79.62" fill="#006d32" stroke="#0d1117" stroke-width="0.7"/>
<polygon points="244.40,75.32 247.80,79.62 247.80,97.10 244.40,92.80" fill="#003619"/>
<polygon points="229.80,79.62 247.80,79.62 247.80,97.10 229.80,97.10" fill="#004620"/>
<polygon points="226.40,75.32 244.40,75.32 247.80,79.62 229.80,79.62" fill="#006d32" stroke="#0d1117" stroke-width="0.7"/>
<polygon points="244.40,92.80 262.40,92.80 265.80,97.10 247.80,97.10" fill="#161b22" stroke="#0d1117" stroke-width="0.7"/>
<polygon points="262.40,92.80 280.40,92.80 283.80,97.10 265.80,97.10" fill="#161b22" stroke="#0d1117" stroke-width="0.7"/>
<polygon points="280.40,92.80 298.40,92.80 301.80,97.10 283.80,97.10" fill="#161b22" stroke="#0d1117" stroke-width="0.7"/>
<polygon points="298.40,92.80 316.40,92.80 319.80,97.10 301.80,97.10" fill="#161b22" stroke="#0d1117" stroke-width="0.7"/>
<polygon points="316.40,92.80 334.40,92.80 337.80,97.10 319.80,97.10" fill="#161b22" stroke="#0d1117" stroke-width="0.7"/>
<polygon points="334.40,92.80 352.40,92.80 355.80,97.10 337.80,97.10" fill="#161b22" stroke="#0d1117" stroke-width="0.7"/>
<polygon points="352.40,92.80 370.40,92.80 373.80,97.10 355.80,97.10" fill="#161b22" stroke="#0d1117" stroke-width="0.7"/>
<polygon points="370.40,92.80 388.40,92.80 391.80,97.10 373.80,97.10" fill="#161b22" stroke="#0d1117" stroke-width="0.7"/>
<polygon points="406.40,75.32 409.80,79.62 409.80,97.10 406.40,92.80" fill="#003619"/>
<polygon points="391.80,79.62 409.80,79.62 409.80,97.10 391.80,97.10" fill="#004620"/>
<polygon points="388.40,75.32 406.40,75.32 409.80,79.62 391.80,79.62" fill="#006d32" stroke="#0d1117" stroke-width="0.7"/>
<polygon points="406.40,92.80 424.40,92.80 427.80,97.10 409.80,97.10" fill="#161b22" stroke="#0d1117" stroke-width="0.7"/>
<polygon points="424.40,92.80 442.40,92.80 445.80,97.10 427.80,97.10" fill="#161b22" stroke="#0d1117" stroke-width="0.7"/>
<polygon points="442.40,92.80 460.40,92.80 463.80,97.10 445.80,97.10" fill="#161b22" stroke="#0d1117" stroke-width="0.7"/>
<polygon points="460.40,92.80 478.40,92.80 481.80,97.10 463.80,97.10" fill="#161b22" stroke="#0d1117" stroke-width="0.7"/>
<polygon points="478.40,92.80 496.40,92.80 499.80,97.10 481.80,97.10" fill="#161b22" stroke="#0d1117" stroke-width="0.7"/>
<polygon points="514.40,75.32 517.80,79.62 517.80,97.10 514.40,92.80" fill="#003619"/>
<polygon points="499.80,79.62 517.80,79.62 517.80,97.10 499.80,97.10" fill="#004620"/>
<polygon points="496.40,75.32 514.40,75.32 517.80,79.62 499.80,79.62" fill="#006d32" stroke="#0d1117" stroke-width="0.7"/>
<polygon points="514.40,92.80 532.40,92.80 535.80,97.10 517.80,97.10" fill="#161b22" stroke="#0d1117" stroke-width="0.7"/>
<polygon points="550.40,75.32 553.80,79.62 553.80,97.10 550.40,92.80" fill="#003619"/>
<polygon points="535.80,79.62 553.80,79.62 553.80,97.10 535.80,97.10" fill="#004620"/>
<polygon points="532.40,75.32 550.40,75.32 553.80,79.62 535.80,79.62" fill="#006d32" stroke="#0d1117" stroke-width="0.7"/>
<polygon points="568.40,75.32 571.80,79.62 571.80,97.10 568.40,92.80" fill="#003619"/>
<polygon points="553.80,79.62 571.80,79.62 571.80,97.10 553.80,97.10" fill="#004620"/>
<polygon points="550.40,75.32 568.40,75.32 571.80,79.62 553.80,79.62" fill="#006d32" stroke="#0d1117" stroke-width="0.7"/>
<polygon points="568.40,92.80 586.40,92.80 589.80,97.10 571.80,97.10" fill="#161b22" stroke="#0d1117" stroke-width="0.7"/>
<polygon points="604.40,75.32 607.80,79.62 607.80,97.10 604.40,92.80" fill="#003619"/>
<polygon points="589.80,79.62 607.80,79.62 607.80,97.10 589.80,97.10" fill="#004620"/>
<polygon points="586.40,75.32 604.40,75.32 607.80,79.62 589.80,79.62" fill="#006d32" stroke="#0d1117" stroke-width="0.7"/>
<polygon points="622.40,81.77 625.80,86.07 625.80,97.10 622.40,92.80" fill="#072214"/>
<polygon points="607.80,86.07 625.80,86.07 625.80,97.10 607.80,97.10" fill="#092c1a"/>
<polygon points="604.40,81.77 622.40,81.77 625.80,86.07 607.80,86.07" fill="#0e4429" stroke="#0d1117" stroke-width="0.7"/>
<polygon points="622.40,92.80 640.40,92.80 643.80,97.10 625.80,97.10" fill="#161b22" stroke="#0d1117" stroke-width="0.7"/>
<polygon points="640.40,92.80 658.40,92.80 661.80,97.10 643.80,97.10" fill="#161b22" stroke="#0d1117" stroke-width="0.7"/>
<polygon points="658.40,92.80 676.40,92.80 679.80,97.10 661.80,97.10" fill="#161b22" stroke="#0d1117" stroke-width="0.7"/>
<polygon points="676.40,92.80 694.40,92.80 697.80,97.10 679.80,97.10" fill="#161b22" stroke="#0d1117" stroke-width="0.7"/>
<polygon points="694.40,92.80 712.40,92.80 715.80,97.10 697.80,97.10" fill="#161b22" stroke="#0d1117" stroke-width="0.7"/>
<polygon points="730.40,75.32 733.80,79.62 733.80,97.10 730.40,92.80" fill="#003619"/>
<polygon points="715.80,79.62 733.80,79.62 733.80,97.10 715.80,97.10" fill="#004620"/>
<polygon points="712.40,75.32 730.40,75.32 733.80,79.62 715.80,79.62" fill="#006d32" stroke="#0d1117" stroke-width="0.7"/>
<polygon points="730.40,92.80 748.40,92.80 751.80,97.10 733.80,97.10" fill="#161b22" stroke="#0d1117" stroke-width="0.7"/>
<polygon points="766.40,81.77 769.80,86.07 769.80,97.10 766.40,92.80" fill="#072214"/>
<polygon points="751.80,86.07 769.80,86.07 769.80,97.10 751.80,97.10" fill="#092c1a"/>
<polygon points="748.40,81.77 766.40,81.77 769.80,86.07 751.80,86.07" fill="#0e4429" stroke="#0d1117" stroke-width="0.7"/>
<polygon points="766.40,92.80 784.40,92.80 787.80,97.10 769.80,97.10" fill="#161b22" stroke="#0d1117" stroke-width="0.7"/>
<polygon points="784.40,92.80 802.40,92.80 805.80,97.10 787.80,97.10" fill="#161b22" stroke="#0d1117" stroke-width="0.7"/>
<polygon points="802.40,92.80 820.40,92.80 823.80,97.10 805.80,97.10" fill="#161b22" stroke="#0d1117" stroke-width="0.7"/>
<polygon points="820.40,92.80 838.40,92.80 841.80,97.10 823.80,97.10" fill="#161b22" stroke="#0d1117" stroke-width="0.7"/>
<polygon points="838.40,92.80 856.40,92.80 859.80,97.10 841.80,97.10" fill="#161b22" stroke="#0d1117" stroke-width="0.7"/>
<polygon points="856.40,92.80 874.40,92.80 877.80,97.10 859.80,97.10" fill="#161b22" stroke="#0d1117" stroke-width="0.7"/>
<polygon points="874.40,92.80 892.40,92.80 895.80,97.10 877.80,97.10" fill="#161b22" stroke="#0d1117" stroke-width="0.7"/>
<polygon points="892.40,92.80 910.40,92.80 913.80,97.10 895.80,97.10" fill="#161b22" stroke="#0d1117" stroke-width="0.7"/>
<polygon points="910.40,92.80 928.40,92.80 931.80,97.10 913.80,97.10" fill="#161b22" stroke="#0d1117" stroke-width="0.7"/>
<polygon points="946.40,61.83 949.80,66.13 949.80,97.10 946.40,92.80" fill="#135320"/>
<polygon points="931.80,66.13 949.80,66.13 949.80,97.10 931.80,97.10" fill="#186b2a"/>
<polygon points="928.40,61.83 946.40,61.83 949.80,66.13 931.80,66.13" fill="#26a641" stroke="#0d1117" stroke-width="0.7"/>
<polygon points="964.40,75.32 967.80,79.62 967.80,97.10 964.40,92.80" fill="#003619"/>
<polygon points="949.80,79.62 967.80,79.62 967.80,97.10 949.80,97.10" fill="#004620"/>
<polygon points="946.40,75.32 964.40,75.32 967.80,79.62 949.80,79.62" fill="#006d32" stroke="#0d1117" stroke-width="0.7"/>
<polygon points="964.40,92.80 982.40,92.80 985.80,97.10 967.80,97.10" fill="#161b22" stroke="#0d1117" stroke-width="0.7"/>
<polygon points="982.40,92.80 1000.40,92.80 1003.80,97.10 985.80,97.10" fill="#161b22" stroke="#0d1117" stroke-width="0.7"/>
<polygon points="43.00,88.50 61.00,88.50 64.40,92.80 46.40,92.80" fill="#161b22" stroke="#0d1117" stroke-width="0.7"/>
<polygon points="61.00,88.50 79.00,88.50 82.40,92.80 64.40,92.80" fill="#161b22" stroke="#0d1117" stroke-width="0.7"/>
<polygon points="97.00,66.44 100.40,70.74 100.40,92.80 97.00,88.50" fill="#003619"/>
<polygon points="82.40,70.74 100.40,70.74 100.40,92.80 82.40,92.80" fill="#004620"/>
<polygon points="79.00,66.44 97.00,66.44 100.40,70.74 82.40,70.74" fill="#006d32" stroke="#0d1117" stroke-width="0.7"/>
<polygon points="97.00,88.50 115.00,88.50 118.40,92.80 100.40,92.80" fill="#161b22" stroke="#0d1117" stroke-width="0.7"/>
<polygon points="115.00,88.50 133.00,88.50 136.40,92.80 118.40,92.80" fill="#161b22" stroke="#0d1117" stroke-width="0.7"/>
<polygon points="133.00,88.50 151.00,88.50 154.40,92.80 136.40,92.80" fill="#161b22" stroke="#0d1117" stroke-width="0.7"/>
<polygon points="169.00,62.89 172.40,67.19 172.40,92.80 169.00,88.50" fill="#003619"/>
<polygon points="154.40,67.19 172.40,67.19 172.40,92.80 154.40,92.80" fill="#004620"/>
<polygon points="151.00,62.89 169.00,62.89 172.40,67.19 154.40,67.19" fill="#006d32" stroke="#0d1117" stroke-width="0.7"/>
<polygon points="187.00,66.44 190.40,70.74 190.40,92.80 187.00,88.50" fill="#003619"/>
<polygon points="172.40,70.74 190.40,70.74 190.40,92.80 172.40,92.80" fill="#004620"/>
<polygon points="169.00,66.44 187.00,66.44 190.40,70.74 172.40,70.74" fill="#006d32" stroke="#0d1117" stroke-width="0.7"/>
<polygon points="187.00,88.50 205.00,88.50 208.40,92.80 190.40,92.80" fill="#161b22" stroke="#0d1117" stroke-width="0.7"/>
<polygon points="223.00,77.47 226.40,81.77 226.40,92.80 223.00,88.50" fill="#072214"/>
<polygon points="208.40,81.77 226.40,81.77 226.40,92.80 208.40,92.80" fill="#092c1a"/>
<polygon points="205.00,77.47 223.00,77.47 226.40,81.77 208.40,81.77" fill="#0e4429" stroke="#0d1117" stroke-width="0.7"/>
<polygon points="241.00,71.02 244.40,75.32 244.40,92.80 241.00,88.50" fill="#003619"/>
<polygon points="226.40,75.32 244.40,75.32 244.40,92.80 226.40,92.80" fill="#004620"/>
<polygon points="223.00,71.02 241.00,71.02 244.40,75.32 226.40,75.32" fill="#006d32" stroke="#0d1117" stroke-width="0.7"/>
<polygon points="241.00,88.50 259.00,88.50 262.40,92.80 244.40,92.80" fill="#161b22" stroke="#0d1117" stroke-width="0.7"/>
<polygon points="259.00,88.50 277.00,88.50 280.40,92.80 262.40,92.80" fill="#161b22" stroke="#0d1117" stroke-width="0.7"/>
<polygon points="295.00,77.47 298.40,81.77 298.40,92.80 295.00,88.50" fill="#072214"/>
<polygon points="280.40,81.77 298.40,81.77 298.40,92.80 280.40,92.80" fill="#092c1a"/>
<polygon points="277.00,77.47 295.00,77.47 298.40,81.77 280.40,81.77" fill="#0e4429" stroke="#0d1117" stroke-width="0.7"/>
<polygon points="295.00,88.50 313.00,88.50 316.40,92.80 298.40,92.80" fill="#161b22" stroke="#0d1117" stroke-width="0.7"/>
<polygon points="313.00,88.50 331.00,88.50 334.40,92.80 316.40,92.80" fill="#161b22" stroke="#0d1117" stroke-width="0.7"/>
<polygon points="331.00,88.50 349.00,88.50 352.40,92.80 334.40,92.80" fill="#161b22" stroke="#0d1117" stroke-width="0.7"/>
<polygon points="349.00,88.50 367.00,88.50 370.40,92.80 352.40,92.80" fill="#161b22" stroke="#0d1117" stroke-width="0.7"/>
<polygon points="367.00,88.50 385.00,88.50 388.40,92.80 370.40,92.80" fill="#161b22" stroke="#0d1117" stroke-width="0.7"/>
<polygon points="385.00,88.50 403.00,88.50 406.40,92.80 388.40,92.80" fill="#161b22" stroke="#0d1117" stroke-width="0.7"/>
<polygon points="421.00,77.47 424.40,81.77 424.40,92.80 421.00,88.50" fill="#072214"/>
<polygon points="406.40,81.77 424.40,81.77 424.40,92.80 406.40,92.80" fill="#092c1a"/>
<polygon points="403.00,77.47 421.00,77.47 424.40,81.77 406.40,81.77" fill="#0e4429" stroke="#0d1117" stroke-width="0.7"/>
<polygon points="421.00,88.50 439.00,88.50 442.40,92.80 424.40,92.80" fill="#161b22" stroke="#0d1117" stroke-width="0.7"/>
<polygon points="439.00,88.50 457.00,88.50 460.40,92.80 442.40,92.80" fill="#161b22" stroke="#0d1117" stroke-width="0.7"/>
<polygon points="475.00,77.47 478.40,81.77 478.40,92.80 475.00,88.50" fill="#072214"/>
<polygon points="460.40,81.77 478.40,81.77 478.40,92.80 460.40,92.80" fill="#092c1a"/>
<polygon points="457.00,77.47 475.00,77.47 478.40,81.77 460.40,81.77" fill="#0e4429" stroke="#0d1117" stroke-width="0.7"/>
<polygon points="475.00,88.50 493.00,88.50 496.40,92.80 478.40,92.80" fill="#161b22" stroke="#0d1117" stroke-width="0.7"/>
<polygon points="493.00,88.50 511.00,88.50 514.40,92.80 496.40,92.80" fill="#161b22" stroke="#0d1117" stroke-width="0.7"/>
<polygon points="529.00,59.98 532.40,64.28 532.40,92.80 529.00,88.50" fill="#003619"/>
<polygon points="514.40,64.28 532.40,64.28 532.40,92.80 514.40,92.80" fill="#004620"/>
<polygon points="511.00,59.98 529.00,59.98 532.40,64.28 514.40,64.28" fill="#006d32" stroke="#0d1117" stroke-width="0.7"/>
<polygon points="547.00,71.02 550.40,75.32 550.40,92.80 547.00,88.50" fill="#003619"/>
<polygon points="532.40,75.32 550.40,75.32 550.40,92.80 532.40,92.80" fill="#004620"/>
<polygon points="529.00,71.02 547.00,71.02 550.40,75.32 532.40,75.32" fill="#006d32" stroke="#0d1117" stroke-width="0.7"/>
<polygon points="565.00,77.47 568.40,81.77 568.40,92.80 565.00,88.50" fill="#072214"/>
<polygon points="550.40,81.77 568.40,81.77 568.40,92.80 550.40,92.80" fill="#092c1a"/>
<polygon points="547.00,77.47 565.00,77.47 568.40,81.77 550.40,81.77" fill="#0e4429" stroke="#0d1117" stroke-width="0.7"/>
<polygon points="565.00,88.50 583.00,88.50 586.40,92.80 568.40,92.80" fill="#161b22" stroke="#0d1117" stroke-width="0.7"/>
<polygon points="583.00,88.50 601.00,88.50 604.40,92.80 586.40,92.80" fill="#161b22" stroke="#0d1117" stroke-width="0.7"/>
<polygon points="601.00,88.50 619.00,88.50 622.40,92.80 604.40,92.80" fill="#161b22" stroke="#0d1117" stroke-width="0.7"/>
<polygon points="619.00,88.50 637.00,88.50 640.40,92.80 622.40,92.80" fill="#161b22" stroke="#0d1117" stroke-width="0.7"/>
<polygon points="637.00,88.50 655.00,88.50 658.40,92.80 640.40,92.80" fill="#161b22" stroke="#0d1117" stroke-width="0.7"/>
<polygon points="655.00,88.50 673.00,88.50 676.40,92.80 658.40,92.80" fill="#161b22" stroke="#0d1117" stroke-width="0.7"/>
<polygon points="673.00,88.50 691.00,88.50 694.40,92.80 676.40,92.80" fill="#161b22" stroke="#0d1117" stroke-width="0.7"/>
<polygon points="691.00,88.50 709.00,88.50 712.40,92.80 694.40,92.80" fill="#161b22" stroke="#0d1117" stroke-width="0.7"/>
<polygon points="709.00,88.50 727.00,88.50 730.40,92.80 712.40,92.80" fill="#161b22" stroke="#0d1117" stroke-width="0.7"/>
<polygon points="727.00,88.50 745.00,88.50 748.40,92.80 730.40,92.80" fill="#161b22" stroke="#0d1117" stroke-width="0.7"/>
<polygon points="763.00,71.02 766.40,75.32 766.40,92.80 763.00,88.50" fill="#003619"/>
<polygon points="748.40,75.32 766.40,75.32 766.40,92.80 748.40,92.80" fill="#004620"/>
<polygon points="745.00,71.02 763.00,71.02 766.40,75.32 748.40,75.32" fill="#006d32" stroke="#0d1117" stroke-width="0.7"/>
<polygon points="781.00,77.47 784.40,81.77 784.40,92.80 781.00,88.50" fill="#072214"/>
<polygon points="766.40,81.77 784.40,81.77 784.40,92.80 766.40,92.80" fill="#092c1a"/>
<polygon points="763.00,77.47 781.00,77.47 784.40,81.77 766.40,81.77" fill="#0e4429" stroke="#0d1117" stroke-width="0.7"/>
<polygon points="781.00,88.50 799.00,88.50 802.40,92.80 784.40,92.80" fill="#161b22" stroke="#0d1117" stroke-width="0.7"/>
<polygon points="799.00,88.50 817.00,88.50 820.40,92.80 802.40,92.80" fill="#161b22" stroke="#0d1117" stroke-width="0.7"/>
<polygon points="817.00,88.50 835.00,88.50 838.40,92.80 820.40,92.80" fill="#161b22" stroke="#0d1117" stroke-width="0.7"/>
<polygon points="835.00,88.50 853.00,88.50 856.40,92.80 838.40,92.80" fill="#161b22" stroke="#0d1117" stroke-width="0.7"/>
<polygon points="853.00,88.50 871.00,88.50 874.40,92.80 856.40,92.80" fill="#161b22" stroke="#0d1117" stroke-width="0.7"/>
<polygon points="871.00,88.50 889.00,88.50 892.40,92.80 874.40,92.80" fill="#161b22" stroke="#0d1117" stroke-width="0.7"/>
<polygon points="889.00,88.50 907.00,88.50 910.40,92.80 892.40,92.80" fill="#161b22" stroke="#0d1117" stroke-width="0.7"/>
<polygon points="907.00,88.50 925.00,88.50 928.40,92.80 910.40,92.80" fill="#161b22" stroke="#0d1117" stroke-width="0.7"/>
<polygon points="925.00,88.50 943.00,88.50 946.40,92.80 928.40,92.80" fill="#161b22" stroke="#0d1117" stroke-width="0.7"/>
<polygon points="943.00,88.50 961.00,88.50 964.40,92.80 946.40,92.80" fill="#161b22" stroke="#0d1117" stroke-width="0.7"/>
<polygon points="979.00,77.47 982.40,81.77 982.40,92.80 979.00,88.50" fill="#072214"/>
<polygon points="964.40,81.77 982.40,81.77 982.40,92.80 964.40,92.80" fill="#092c1a"/>
<polygon points="961.00,77.47 979.00,77.47 982.40,81.77 964.40,81.77" fill="#0e4429" stroke="#0d1117" stroke-width="0.7"/>
<polygon points="997.00,42.50 1000.40,46.80 1000.40,92.80 997.00,88.50" fill="#1c6929"/>
<polygon points="982.40,46.80 1000.40,46.80 1000.40,92.80 982.40,92.80" fill="#258935"/>
<polygon points="979.00,42.50 997.00,42.50 1000.40,46.80 982.40,46.80" fill="#39d353" stroke="#0d1117" stroke-width="0.7"/>
<polygon points="39.60,84.20 57.60,84.20 61.00,88.50 43.00,88.50" fill="#161b22" stroke="#0d1117" stroke-width="0.7"/>
<polygon points="57.60,84.20 75.60,84.20 79.00,88.50 61.00,88.50" fill="#161b22" stroke="#0d1117" stroke-width="0.7"/>
<polygon points="75.60,84.20 93.60,84.20 97.00,88.50 79.00,88.50" fill="#161b22" stroke="#0d1117" stroke-width="0.7"/>
<polygon points="93.60,84.20 111.60,84.20 115.00,88.50 97.00,88.50" fill="#161b22" stroke="#0d1117" stroke-width="0.7"/>
<polygon points="111.60,84.20 129.60,84.20 133.00,88.50 115.00,88.50" fill="#161b22" stroke="#0d1117" stroke-width="0.7"/>
<polygon points="147.60,73.17 151.00,77.47 151.00,88.50 147.60,84.20" fill="#072214"/>
<polygon points="133.00,77.47 151.00,77.47 151.00,88.50 133.00,88.50" fill="#092c1a"/>
<polygon points="129.60,73.17 147.60,73.17 151.00,77.47 133.00,77.47" fill="#0e4429" stroke="#0d1117" stroke-width="0.7"/>
<polygon points="165.60,62.14 169.00,66.44 169.00,88.50 165.60,84.20" fill="#003619"/>
<polygon points="151.00,66.44 169.00,66.44 169.00,88.50 151.00,88.50" fill="#004620"/>
<polygon points="147.60,62.14 165.60,62.14 169.00,66.44 151.00,66.44" fill="#006d32" stroke="#0d1117" stroke-width="0.7"/>
<polygon points="165.60,84.20 183.60,84.20 187.00,88.50 169.00,88.50" fill="#161b22" stroke="#0d1117" stroke-width="0.7"/>
<polygon points="183.60,84.20 201.60,84.20 205.00,88.50 187.00,88.50" fill="#161b22" stroke="#0d1117" stroke-width="0.7"/>
<polygon points="201.60,84.20 219.60,84.20 223.00,88.50 205.00,88.50" fill="#161b22" stroke="#0d1117" stroke-width="0.7"/>
<polygon points="219.60,84.20 237.60,84.20 241.00,88.50 223.00,88.50" fill="#161b22" stroke="#0d1117" stroke-width="0.7"/>
<polygon points="237.60,84.20 255.60,84.20 259.00,88.50 241.00,88.50" fill="#161b22" stroke="#0d1117" stroke-width="0.7"/>
<polygon points="273.60,53.23 277.00,57.53 277.00,88.50 273.60,84.20" fill="#135320"/>
<polygon points="259.00,57.53 277.00,57.53 277.00,88.50 259.00,88.50" fill="#186b2a"/>
<polygon points="255.60,53.23 273.60,53.23 277.00,57.53 259.00,57.53" fill="#26a641" stroke="#0d1117" stroke-width="0.7"/>
<polygon points="291.60,47.55 295.00,51.85 295.00,88.50 291.60,84.20" fill="#135320"/>
<polygon points="277.00,51.85 295.00,51.85 295.00,88.50 277.00,88.50" fill="#186b2a"/>
<polygon points="273.60,47.55 291.60,47.55 295.00,51.85 277.00,51.85" fill="#26a641" stroke="#0d1117" stroke-width="0.7"/>
<polygon points="291.60,84.20 309.60,84.20 313.00,88.50 295.00,88.50" fill="#161b22" stroke="#0d1117" stroke-width="0.7"/>
<polygon points="309.60,84.20 327.60,84.20 331.00,88.50 313.00,88.50" fill="#161b22" stroke="#0d1117" stroke-width="0.7"/>
<polygon points="327.60,84.20 345.60,84.20 349.00,88.50 331.00,88.50" fill="#161b22" stroke="#0d1117" stroke-width="0.7"/>
<polygon points="345.60,84.20 363.60,84.20 367.00,88.50 349.00,88.50" fill="#161b22" stroke="#0d1117" stroke-width="0.7"/>
<polygon points="363.60,84.20 381.60,84.20 385.00,88.50 367.00,88.50" fill="#161b22" stroke="#0d1117" stroke-width="0.7"/>
<polygon points="381.60,84.20 399.60,84.20 403.00,88.50 385.00,88.50" fill="#161b22" stroke="#0d1117" stroke-width="0.7"/>
<polygon points="417.60,66.72 421.00,71.02 421.00,88.50 417.60,84.20" fill="#003619"/>
<polygon points="403.00,71.02 421.00,71.02 421.00,88.50 403.00,88.50" fill="#004620"/>
<polygon points="399.60,66.72 417.60,66.72 421.00,71.02 403.00,71.02" fill="#006d32" stroke="#0d1117" stroke-width="0.7"/>
<polygon points="417.60,84.20 435.60,84.20 439.00,88.50 421.00,88.50" fill="#161b22" stroke="#0d1117" stroke-width="0.7"/>
<polygon points="435.60,84.20 453.60,84.20 457.00,88.50 439.00,88.50" fill="#161b22" stroke="#0d1117" stroke-width="0.7"/>
<polygon points="453.60,84.20 471.60,84.20 475.00,88.50 457.00,88.50" fill="#161b22" stroke="#0d1117" stroke-width="0.7"/>
<polygon points="471.60,84.20 489.60,84.20 493.00,88.50 475.00,88.50" fill="#161b22" stroke="#0d1117" stroke-width="0.7"/>
<polygon points="489.60,84.20 507.60,84.20 511.00,88.50 493.00,88.50" fill="#161b22" stroke="#0d1117" stroke-width="0.7"/>
<polygon points="507.60,84.20 525.60,84.20 529.00,88.50 511.00,88.50" fill="#161b22" stroke="#0d1117" stroke-width="0.7"/>
<polygon points="525.60,84.20 543.60,84.20 547.00,88.50 529.00,88.50" fill="#161b22" stroke="#0d1117" stroke-width="0.7"/>
<polygon points="561.60,66.72 565.00,71.02 565.00,88.50 561.60,84.20" fill="#003619"/>
<polygon points="547.00,71.02 565.00,71.02 565.00,88.50 547.00,88.50" fill="#004620"/>
<polygon points="543.60,66.72 561.60,66.72 565.00,71.02 547.00,71.02" fill="#006d32" stroke="#0d1117" stroke-width="0.7"/>
<polygon points="561.60,84.20 579.60,84.20 583.00,88.50 565.00,88.50" fill="#161b22" stroke="#0d1117" stroke-width="0.7"/>
<polygon points="597.60,73.17 601.00,77.47 601.00,88.50 597.60,84.20" fill="#072214"/>
<polygon points="583.00,77.47 601.00,77.47 601.00,88.50 583.00,88.50" fill="#092c1a"/>
<polygon points="579.60,73.17 597.60,73.17 601.00,77.47 583.00,77.47" fill="#0e4429" stroke="#0d1117" stroke-width="0.7"/>
<polygon points="597.60,84.20 615.60,84.20 619.00,88.50 601.00,88.50" fill="#161b22" stroke="#0d1117" stroke-width="0.7"/>
<polygon points="615.60,84.20 633.60,84.20 637.00,88.50 619.00,88.50" fill="#161b22" stroke="#0d1117" stroke-width="0.7"/>
<polygon points="651.60,62.14 655.00,66.44 655.00,88.50 651.60,84.20" fill="#003619"/>
<polygon points="637.00,66.44 655.00,66.44 655.00,88.50 637.00,88.50" fill="#004620"/>
<polygon points="633.60,62.14 651.60,62.14 655.00,66.44 637.00,66.44" fill="#006d32" stroke="#0d1117" stroke-width="0.7"/>
<polygon points="651.60,84.20 669.60,84.20 673.00,88.50 655.00,88.50" fill="#161b22" stroke="#0d1117" stroke-width="0.7"/>
<polygon points="687.60,73.17 691.00,77.47 691.00,88.50 687.60,84.20" fill="#072214"/>
<polygon points="673.00,77.47 691.00,77.47 691.00,88.50 673.00,88.50" fill="#092c1a"/>
<polygon points="669.60,73.17 687.60,73.17 691.00,77.47 673.00,77.47" fill="#0e4429" stroke="#0d1117" stroke-width="0.7"/>
<polygon points="687.60,84.20 705.60,84.20 709.00,88.50 691.00,88.50" fill="#161b22" stroke="#0d1117" stroke-width="0.7"/>
<polygon points="705.60,84.20 723.60,84.20 727.00,88.50 709.00,88.50" fill="#161b22" stroke="#0d1117" stroke-width="0.7"/>
<polygon points="723.60,84.20 741.60,84.20 745.00,88.50 727.00,88.50" fill="#161b22" stroke="#0d1117" stroke-width="0.7"/>
<polygon points="741.60,84.20 759.60,84.20 763.00,88.50 745.00,88.50" fill="#161b22" stroke="#0d1117" stroke-width="0.7"/>
<polygon points="759.60,84.20 777.60,84.20 781.00,88.50 763.00,88.50" fill="#161b22" stroke="#0d1117" stroke-width="0.7"/>
<polygon points="777.60,84.20 795.60,84.20 799.00,88.50 781.00,88.50" fill="#161b22" stroke="#0d1117" stroke-width="0.7"/>
<polygon points="795.60,84.20 813.60,84.20 817.00,88.50 799.00,88.50" fill="#161b22" stroke="#0d1117" stroke-width="0.7"/>
<polygon points="831.60,62.14 835.00,66.44 835.00,88.50 831.60,84.20" fill="#003619"/>
<polygon points="817.00,66.44 835.00,66.44 835.00,88.50 817.00,88.50" fill="#004620"/>
<polygon points="813.60,62.14 831.60,62.14 835.00,66.44 817.00,66.44" fill="#006d32" stroke="#0d1117" stroke-width="0.7"/>
<polygon points="831.60,84.20 849.60,84.20 853.00,88.50 835.00,88.50" fill="#161b22" stroke="#0d1117" stroke-width="0.7"/>
<polygon points="849.60,84.20 867.60,84.20 871.00,88.50 853.00,88.50" fill="#161b22" stroke="#0d1117" stroke-width="0.7"/>
<polygon points="867.60,84.20 885.60,84.20 889.00,88.50 871.00,88.50" fill="#161b22" stroke="#0d1117" stroke-width="0.7"/>
<polygon points="885.60,84.20 903.60,84.20 907.00,88.50 889.00,88.50" fill="#161b22" stroke="#0d1117" stroke-width="0.7"/>
<polygon points="903.60,84.20 921.60,84.20 925.00,88.50 907.00,88.50" fill="#161b22" stroke="#0d1117" stroke-width="0.7"/>
<polygon points="921.60,84.20 939.60,84.20 943.00,88.50 925.00,88.50" fill="#161b22" stroke="#0d1117" stroke-width="0.7"/>
<polygon points="957.60,73.17 961.00,77.47 961.00,88.50 957.60,84.20" fill="#072214"/>
<polygon points="943.00,77.47 961.00,77.47 961.00,88.50 943.00,88.50" fill="#092c1a"/>
<polygon points="939.60,73.17 957.60,73.17 961.00,77.47 943.00,77.47" fill="#0e4429" stroke="#0d1117" stroke-width="0.7"/>
<polygon points="957.60,84.20 975.60,84.20 979.00,88.50 961.00,88.50" fill="#161b22" stroke="#0d1117" stroke-width="0.7"/>
<polygon points="975.60,84.20 993.60,84.20 997.00,88.50 979.00,88.50" fill="#161b22" stroke="#0d1117" stroke-width="0.7"/>
<polygon points="36.20,79.90 54.20,79.90 57.60,84.20 39.60,84.20" fill="#161b22" stroke="#0d1117" stroke-width="0.7"/>
<polygon points="54.20,79.90 72.20,79.90 75.60,84.20 57.60,84.20" fill="#161b22" stroke="#0d1117" stroke-width="0.7"/>
<polygon points="72.20,79.90 90.20,79.90 93.60,84.20 75.60,84.20" fill="#161b22" stroke="#0d1117" stroke-width="0.7"/>
<polygon points="108.20,68.87 111.60,73.17 111.60,84.20 108.20,79.90" fill="#072214"/>
<polygon points="93.60,73.17 111.60,73.17 111.60,84.20 93.60,84.20" fill="#092c1a"/>
<polygon points="90.20,68.87 108.20,68.87 111.60,73.17 93.60,73.17" fill="#0e4429" stroke="#0d1117" stroke-width="0.7"/>
<polygon points="108.20,79.90 126.20,79.90 129.60,84.20 111.60,84.20" fill="#161b22" stroke="#0d1117" stroke-width="0.7"/>
<polygon points="144.20,68.87 147.60,73.17 147.60,84.20 144.20,79.90" fill="#072214"/>
<polygon points="129.60,73.17 147.60,73.17 147.60,84.20 129.60,84.20" fill="#092c1a"/>
<polygon points="126.20,68.87 144.20,68.87 147.60,73.17 129.60,73.17" fill="#0e4429" stroke="#0d1117" stroke-width="0.7"/>
<polygon points="144.20,79.90 162.20,79.90 165.60,84.20 147.60,84.20" fill="#161b22" stroke="#0d1117" stroke-width="0.7"/>
<polygon points="180.20,54.29 183.60,58.59 183.60,84.20 180.20,79.90" fill="#003619"/>
<polygon points="165.60,58.59 183.60,58.59 183.60,84.20 165.60,84.20" fill="#004620"/>
<polygon points="162.20,54.29 180.20,54.29 183.60,58.59 165.60,58.59" fill="#006d32" stroke="#0d1117" stroke-width="0.7"/>
<polygon points="180.20,79.90 198.20,79.90 201.60,84.20 183.60,84.20" fill="#161b22" stroke="#0d1117" stroke-width="0.7"/>
<polygon points="198.20,79.90 216.20,79.90 219.60,84.20 201.60,84.20" fill="#161b22" stroke="#0d1117" stroke-width="0.7"/>
<polygon points="216.20,79.90 234.20,79.90 237.60,84.20 219.60,84.20" fill="#161b22" stroke="#0d1117" stroke-width="0.7"/>
<polygon points="234.20,79.90 252.20,79.90 255.60,84.20 237.60,84.20" fill="#161b22" stroke="#0d1117" stroke-width="0.7"/>
<polygon points="252.20,79.90 270.20,79.90 273.60,84.20 255.60,84.20" fill="#161b22" stroke="#0d1117" stroke-width="0.7"/>
<polygon points="288.20,46.81 291.60,51.11 291.60,84.20 288.20,79.90" fill="#135320"/>
<polygon points="273.60,51.11 291.60,51.11 291.60,84.20 273.60,84.20" fill="#186b2a"/>
<polygon points="270.20,46.81 288.20,46.81 291.60,51.11 273.60,51.11" fill="#26a641" stroke="#0d1117" stroke-width="0.7"/>
<polygon points="288.20,79.90 306.20,79.90 309.60,84.20 291.60,84.20" fill="#161b22" stroke="#0d1117" stroke-width="0.7"/>
<polygon points="306.20,79.90 324.20,79.90 327.60,84.20 309.60,84.20" fill="#161b22" stroke="#0d1117" stroke-width="0.7"/>
<polygon points="324.20,79.90 342.20,79.90 345.60,84.20 327.60,84.20" fill="#161b22" stroke="#0d1117" stroke-width="0.7"/>
<polygon points="342.20,79.90 360.20,79.90 363.60,84.20 345.60,84.20" fill="#161b22" stroke="#0d1117" stroke-width="0.7"/>
<polygon points="378.20,62.42 381.60,66.72 381.60,84.20 378.20,79.90" fill="#003619"/>
<polygon points="363.60,66.72 381.60,66.72 381.60,84.20 363.60,84.20" fill="#004620"/>
<polygon points="360.20,62.42 378.20,62.42 381.60,66.72 363.60,66.72" fill="#006d32" stroke="#0d1117" stroke-width="0.7"/>
<polygon points="378.20,79.90 396.20,79.90 399.60,84.20 381.60,84.20" fill="#161b22" stroke="#0d1117" stroke-width="0.7"/>
<polygon points="414.20,51.38 417.60,55.68 417.60,84.20 414.20,79.90" fill="#003619"/>
<polygon points="399.60,55.68 417.60,55.68 417.60,84.20 399.60,84.20" fill="#004620"/>
<polygon points="396.20,51.38 414.20,51.38 417.60,55.68 399.60,55.68" fill="#006d32" stroke="#0d1117" stroke-width="0.7"/>
<polygon points="432.20,68.87 435.60,73.17 435.60,84.20 432.20,79.90" fill="#072214"/>
<polygon points="417.60,73.17 435.60,73.17 435.60,84.20 417.60,84.20" fill="#092c1a"/>
<polygon points="414.20,68.87 432.20,68.87 435.60,73.17 417.60,73.17" fill="#0e4429" stroke="#0d1117" stroke-width="0.7"/>
<polygon points="450.20,68.87 453.60,73.17 453.60,84.20 450.20,79.90" fill="#072214"/>
<polygon points="435.60,73.17 453.60,73.17 453.60,84.20 435.60,84.20" fill="#092c1a"/>
<polygon points="432.20,68.87 450.20,68.87 453.60,73.17 435.60,73.17" fill="#0e4429" stroke="#0d1117" stroke-width="0.7"/>
<polygon points="450.20,79.90 468.20,79.90 471.60,84.20 453.60,84.20" fill="#161b22" stroke="#0d1117" stroke-width="0.7"/>
<polygon points="486.20,68.87 489.60,73.17 489.60,84.20 486.20,79.90" fill="#072214"/>
<polygon points="471.60,73.17 489.60,73.17 489.60,84.20 471.60,84.20" fill="#092c1a"/>
<polygon points="468.20,68.87 486.20,68.87 489.60,73.17 471.60,73.17" fill="#0e4429" stroke="#0d1117" stroke-width="0.7"/>
<polygon points="486.20,79.90 504.20,79.90 507.60,84.20 489.60,84.20" fill="#161b22" stroke="#0d1117" stroke-width="0.7"/>
<polygon points="522.20,68.87 525.60,73.17 525.60,84.20 522.20,79.90" fill="#072214"/>
<polygon points="507.60,73.17 525.60,73.17 525.60,84.20 507.60,84.20" fill="#092c1a"/>
<polygon points="504.20,68.87 522.20,68.87 525.60,73.17 507.60,73.17" fill="#0e4429" stroke="#0d1117" stroke-width="0.7"/>
<polygon points="522.20,79.90 540.20,79.90 543.60,84.20 525.60,84.20" fill="#161b22" stroke="#0d1117" stroke-width="0.7"/>
<polygon points="558.20,68.87 561.60,73.17 561.60,84.20 558.20,79.90" fill="#072214"/>
<polygon points="543.60,73.17 561.60,73.17 561.60,84.20 543.60,84.20" fill="#092c1a"/>
<polygon points="540.20,68.87 558.20,68.87 561.60,73.17 543.60,73.17" fill="#0e4429" stroke="#0d1117" stroke-width="0.7"/>
<polygon points="558.20,79.90 576.20,79.90 579.60,84.20 561.60,84.20" fill="#161b22" stroke="#0d1117" stroke-width="0.7"/>
<polygon points="594.20,68.87 597.60,73.17 597.60,84.20 594.20,79.90" fill="#072214"/>
<polygon points="579.60,73.17 597.60,73.17 597.60,84.20 579.60,84.20" fill="#092c1a"/>
<polygon points="576.20,68.87 594.20,68.87 597.60,73.17 579.60,73.17" fill="#0e4429" stroke="#0d1117" stroke-width="0.7"/>
<polygon points="594.20,79.90 612.20,79.90 615.60,84.20 597.60,84.20" fill="#161b22" stroke="#0d1117" stroke-width="0.7"/>
<polygon points="630.20,68.87 633.60,73.17 633.60,84.20 630.20,79.90" fill="#072214"/>
<polygon points="615.60,73.17 633.60,73.17 633.60,84.20 615.60,84.20" fill="#092c1a"/>
<polygon points="612.20,68.87 630.20,68.87 633.60,73.17 615.60,73.17" fill="#0e4429" stroke="#0d1117" stroke-width="0.7"/>
<polygon points="630.20,79.90 648.20,79.90 651.60,84.20 633.60,84.20" fill="#161b22" stroke="#0d1117" stroke-width="0.7"/>
<polygon points="648.20,79.90 666.20,79.90 669.60,84.20 651.60,84.20" fill="#161b22" stroke="#0d1117" stroke-width="0.7"/>
<polygon points="666.20,79.90 684.20,79.90 687.60,84.20 669.60,84.20" fill="#161b22" stroke="#0d1117" stroke-width="0.7"/>
<polygon points="684.20,79.90 702.20,79.90 705.60,84.20 687.60,84.20" fill="#161b22" stroke="#0d1117" stroke-width="0.7"/>
<polygon points="702.20,79.90 720.20,79.90 723.60,84.20 705.60,84.20" fill="#161b22" stroke="#0d1117" stroke-width="0.7"/>
<polygon points="720.20,79.90 738.20,79.90 741.60,84.20 723.60,84.20" fill="#161b22" stroke="#0d1117" stroke-width="0.7"/>
<polygon points="738.20,79.90 756.20,79.90 759.60,84.20 741.60,84.20" fill="#161b22" stroke="#0d1117" stroke-width="0.7"/>
<polygon points="756.20,79.90 774.20,79.90 777.60,84.20 759.60,84.20" fill="#161b22" stroke="#0d1117" stroke-width="0.7"/>
<polygon points="774.20,79.90 792.20,79.90 795.60,84.20 777.60,84.20" fill="#161b22" stroke="#0d1117" stroke-width="0.7"/>
<polygon points="792.20,79.90 810.20,79.90 813.60,84.20 795.60,84.20" fill="#161b22" stroke="#0d1117" stroke-width="0.7"/>
<polygon points="810.20,79.90 828.20,79.90 831.60,84.20 813.60,84.20" fill="#161b22" stroke="#0d1117" stroke-width="0.7"/>
<polygon points="828.20,79.90 846.20,79.90 849.60,84.20 831.60,84.20" fill="#161b22" stroke="#0d1117" stroke-width="0.7"/>
<polygon points="846.20,79.90 864.20,79.90 867.60,84.20 849.60,84.20" fill="#161b22" stroke="#0d1117" stroke-width="0.7"/>
<polygon points="864.20,79.90 882.20,79.90 885.60,84.20 867.60,84.20" fill="#161b22" stroke="#0d1117" stroke-width="0.7"/>
<polygon points="882.20,79.90 900.20,79.90 903.60,84.20 885.60,84.20" fill="#161b22" stroke="#0d1117" stroke-width="0.7"/>
<polygon points="900.20,79.90 918.20,79.90 921.60,84.20 903.60,84.20" fill="#161b22" stroke="#0d1117" stroke-width="0.7"/>
<polygon points="936.20,54.29 939.60,58.59 939.60,84.20 936.20,79.90" fill="#003619"/>
<polygon points="921.60,58.59 939.60,58.59 939.60,84.20 921.60,84.20" fill="#004620"/>
<polygon points="918.20,54.29 936.20,54.29 939.60,58.59 921.60,58.59" fill="#006d32" stroke="#0d1117" stroke-width="0.7"/>
<polygon points="954.20,36.80 957.60,41.10 957.60,84.20 954.20,79.90" fill="#1c6929"/>
<polygon points="939.60,41.10 957.60,41.10 957.60,84.20 939.60,84.20" fill="#258935"/>
<polygon points="936.20,36.80 954.20,36.80 957.60,41.10 939.60,41.10" fill="#39d353" stroke="#0d1117" stroke-width="0.7"/>
<polygon points="954.20,79.90 972.20,79.90 975.60,84.20 957.60,84.20" fill="#161b22" stroke="#0d1117" stroke-width="0.7"/>
<polygon points="972.20,79.90 990.20,79.90 993.60,84.20 975.60,84.20" fill="#161b22" stroke="#0d1117" stroke-width="0.7"/>
<polygon points="32.80,75.60 50.80,75.60 54.20,79.90 36.20,79.90" fill="#161b22" stroke="#0d1117" stroke-width="0.7"/>
<polygon points="50.80,75.60 68.80,75.60 72.20,79.90 54.20,79.90" fill="#161b22" stroke="#0d1117" stroke-width="0.7"/>
<polygon points="68.80,75.60 86.80,75.60 90.20,79.90 72.20,79.90" fill="#161b22" stroke="#0d1117" stroke-width="0.7"/>
<polygon points="86.80,75.60 104.80,75.60 108.20,79.90 90.20,79.90" fill="#161b22" stroke="#0d1117" stroke-width="0.7"/>
<polygon points="104.80,75.60 122.80,75.60 126.20,79.90 108.20,79.90" fill="#161b22" stroke="#0d1117" stroke-width="0.7"/>
<polygon points="140.80,53.54 144.20,57.84 144.20,79.90 140.80,75.60" fill="#003619"/>
<polygon points="126.20,57.84 144.20,57.84 144.20,79.90 126.20,79.90" fill="#004620"/>
<polygon points="122.80,53.54 140.80,53.54 144.20,57.84 126.20,57.84" fill="#006d32" stroke="#0d1117" stroke-width="0.7"/>
<polygon points="158.80,47.08 162.20,51.38 162.20,79.90 158.80,75.60" fill="#003619"/>
<polygon points="144.20,51.38 162.20,51.38 162.20,79.90 144.20,79.90" fill="#004620"/>
<polygon points="140.80,47.08 158.80,47.08 162.20,51.38 144.20,51.38" fill="#006d32" stroke="#0d1117" stroke-width="0.7"/>
<polygon points="176.80,49.99 180.20,54.29 180.20,79.90 176.80,75.60" fill="#003619"/>
<polygon points="162.20,54.29 180.20,54.29 180.20,79.90 162.20,79.90" fill="#004620"/>
<polygon points="158.80,49.99 176.80,49.99 180.20,54.29 162.20,54.29" fill="#006d32" stroke="#0d1117" stroke-width="0.7"/>
<polygon points="176.80,75.60 194.80,75.60 198.20,79.90 180.20,79.90" fill="#161b22" stroke="#0d1117" stroke-width="0.7"/>
<polygon points="212.80,58.12 216.20,62.42 216.20,79.90 212.80,75.60" fill="#003619"/>
<polygon points="198.20,62.42 216.20,62.42 216.20,79.90 198.20,79.90" fill="#004620"/>
<polygon points="194.80,58.12 212.80,58.12 216.20,62.42 198.20,62.42" fill="#006d32" stroke="#0d1117" stroke-width="0.7"/>
<polygon points="230.80,64.57 234.20,68.87 234.20,79.90 230.80,75.60" fill="#072214"/>
<polygon points="216.20,68.87 234.20,68.87 234.20,79.90 216.20,79.90" fill="#092c1a"/>
<polygon points="212.80,64.57 230.80,64.57 234.20,68.87 216.20,68.87" fill="#0e4429" stroke="#0d1117" stroke-width="0.7"/>
<polygon points="230.80,75.60 248.80,75.60 252.20,79.90 234.20,79.90" fill="#161b22" stroke="#0d1117" stroke-width="0.7"/>
<polygon points="248.80,75.60 266.80,75.60 270.20,79.90 252.20,79.90" fill="#161b22" stroke="#0d1117" stroke-width="0.7"/>
<polygon points="266.80,75.60 284.80,75.60 288.20,79.90 270.20,79.90" fill="#161b22" stroke="#0d1117" stroke-width="0.7"/>
<polygon points="284.80,75.60 302.80,75.60 306.20,79.90 288.20,79.90" fill="#161b22" stroke="#0d1117" stroke-width="0.7"/>
<polygon points="302.80,75.60 320.80,75.60 324.20,79.90 306.20,79.90" fill="#161b22" stroke="#0d1117" stroke-width="0.7"/>
<polygon points="320.80,75.60 338.80,75.60 342.20,79.90 324.20,79.90" fill="#161b22" stroke="#0d1117" stroke-width="0.7"/>
<polygon points="338.80,75.60 356.80,75.60 360.20,79.90 342.20,79.90" fill="#161b22" stroke="#0d1117" stroke-width="0.7"/>
<polygon points="356.80,75.60 374.80,75.60 378.20,79.90 360.20,79.90" fill="#161b22" stroke="#0d1117" stroke-width="0.7"/>
<polygon points="374.80,75.60 392.80,75.60 396.20,79.90 378.20,79.90" fill="#161b22" stroke="#0d1117" stroke-width="0.7"/>
<polygon points="410.80,37.44 414.20,41.74 414.20,79.90 410.80,75.60" fill="#135320"/>
<polygon points="396.20,41.74 414.20,41.74 414.20,79.90 396.20,79.90" fill="#186b2a"/>
<polygon points="392.80,37.44 410.80,37.44 414.20,41.74 396.20,41.74" fill="#26a641" stroke="#0d1117" stroke-width="0.7"/>
<polygon points="410.80,75.60 428.80,75.60 432.20,79.90 414.20,79.90" fill="#161b22" stroke="#0d1117" stroke-width="0.7"/>
<polygon points="428.80,75.60 446.80,75.60 450.20,79.90 432.20,79.90" fill="#161b22" stroke="#0d1117" stroke-width="0.7"/>
<polygon points="464.80,64.57 468.20,68.87 468.20,79.90 464.80,75.60" fill="#072214"/>
<polygon points="450.20,68.87 468.20,68.87 468.20,79.90 450.20,79.90" fill="#092c1a"/>
<polygon points="446.80,64.57 464.80,64.57 468.20,68.87 450.20,68.87" fill="#0e4429" stroke="#0d1117" stroke-width="0.7"/>
<polygon points="464.80,75.60 482.80,75.60 486.20,79.90 468.20,79.90" fill="#161b22" stroke="#0d1117" stroke-width="0.7"/>
<polygon points="482.80,75.60 500.80,75.60 504.20,79.90 486.20,79.90" fill="#161b22" stroke="#0d1117" stroke-width="0.7"/>
<polygon points="518.80,58.12 522.20,62.42 522.20,79.90 518.80,75.60" fill="#003619"/>
<polygon points="504.20,62.42 522.20,62.42 522.20,79.90 504.20,79.90" fill="#004620"/>
<polygon points="500.80,58.12 518.80,58.12 522.20,62.42 504.20,62.42" fill="#006d32" stroke="#0d1117" stroke-width="0.7"/>
<polygon points="518.80,75.60 536.80,75.60 540.20,79.90 522.20,79.90" fill="#161b22" stroke="#0d1117" stroke-width="0.7"/>
<polygon points="554.80,64.57 558.20,68.87 558.20,79.90 554.80,75.60" fill="#072214"/>
<polygon points="540.20,68.87 558.20,68.87 558.20,79.90 540.20,79.90" fill="#092c1a"/>
<polygon points="536.80,64.57 554.80,64.57 558.20,68.87 540.20,68.87" fill="#0e4429" stroke="#0d1117" stroke-width="0.7"/>
<polygon points="572.80,58.12 576.20,62.42 576.20,79.90 572.80,75.60" fill="#003619"/>
<polygon points="558.20,62.42 576.20,62.42 576.20,79.90 558.20,79.90" fill="#004620"/>
<polygon points="554.80,58.12 572.80,58.12 576.20,62.42 558.20,62.42" fill="#006d32" stroke="#0d1117" stroke-width="0.7"/>
<polygon points="572.80,75.60 590.80,75.60 594.20,79.90 576.20,79.90" fill="#161b22" stroke="#0d1117" stroke-width="0.7"/>
<polygon points="590.80,75.60 608.80,75.60 612.20,79.90 594.20,79.90" fill="#161b22" stroke="#0d1117" stroke-width="0.7"/>
<polygon points="626.80,64.57 630.20,68.87 630.20,79.90 626.80,75.60" fill="#072214"/>
<polygon points="612.20,68.87 630.20,68.87 630.20,79.90 612.20,79.90" fill="#092c1a"/>
<polygon points="608.80,64.57 626.80,64.57 630.20,68.87 612.20,68.87" fill="#0e4429" stroke="#0d1117" stroke-width="0.7"/>
<polygon points="626.80,75.60 644.80,75.60 648.20,79.90 630.20,79.90" fill="#161b22" stroke="#0d1117" stroke-width="0.7"/>
<polygon points="644.80,75.60 662.80,75.60 666.20,79.90 648.20,79.90" fill="#161b22" stroke="#0d1117" stroke-width="0.7"/>
<polygon points="662.80,75.60 680.80,75.60 684.20,79.90 666.20,79.90" fill="#161b22" stroke="#0d1117" stroke-width="0.7"/>
<polygon points="680.80,75.60 698.80,75.60 702.20,79.90 684.20,79.90" fill="#161b22" stroke="#0d1117" stroke-width="0.7"/>
<polygon points="698.80,75.60 716.80,75.60 720.20,79.90 702.20,79.90" fill="#161b22" stroke="#0d1117" stroke-width="0.7"/>
<polygon points="734.80,64.57 738.20,68.87 738.20,79.90 734.80,75.60" fill="#072214"/>
<polygon points="720.20,68.87 738.20,68.87 738.20,79.90 720.20,79.90" fill="#092c1a"/>
<polygon points="716.80,64.57 734.80,64.57 738.20,68.87 720.20,68.87" fill="#0e4429" stroke="#0d1117" stroke-width="0.7"/>
<polygon points="734.80,75.60 752.80,75.60 756.20,79.90 738.20,79.90" fill="#161b22" stroke="#0d1117" stroke-width="0.7"/>
<polygon points="752.80,75.60 770.80,75.60 774.20,79.90 756.20,79.90" fill="#161b22" stroke="#0d1117" stroke-width="0.7"/>
<polygon points="770.80,75.60 788.80,75.60 792.20,79.90 774.20,79.90" fill="#161b22" stroke="#0d1117" stroke-width="0.7"/>
<polygon points="788.80,75.60 806.80,75.60 810.20,79.90 792.20,79.90" fill="#161b22" stroke="#0d1117" stroke-width="0.7"/>
<polygon points="806.80,75.60 824.80,75.60 828.20,79.90 810.20,79.90" fill="#161b22" stroke="#0d1117" stroke-width="0.7"/>
<polygon points="824.80,75.60 842.80,75.60 846.20,79.90 828.20,79.90" fill="#161b22" stroke="#0d1117" stroke-width="0.7"/>
<polygon points="842.80,75.60 860.80,75.60 864.20,79.90 846.20,79.90" fill="#161b22" stroke="#0d1117" stroke-width="0.7"/>
<polygon points="860.80,75.60 878.80,75.60 882.20,79.90 864.20,79.90" fill="#161b22" stroke="#0d1117" stroke-width="0.7"/>
<polygon points="878.80,75.60 896.80,75.60 900.20,79.90 882.20,79.90" fill="#161b22" stroke="#0d1117" stroke-width="0.7"/>
<polygon points="896.80,75.60 914.80,75.60 918.20,79.90 900.20,79.90" fill="#161b22" stroke="#0d1117" stroke-width="0.7"/>
<polygon points="914.80,75.60 932.80,75.60 936.20,79.90 918.20,79.90" fill="#161b22" stroke="#0d1117" stroke-width="0.7"/>
<polygon points="932.80,75.60 950.80,75.60 954.20,79.90 936.20,79.90" fill="#161b22" stroke="#0d1117" stroke-width="0.7"/>
<polygon points="968.80,64.57 972.20,68.87 972.20,79.90 968.80,75.60" fill="#072214"/>
<polygon points="954.20,68.87 972.20,68.87 972.20,79.90 954.20,79.90" fill="#092c1a"/>
<polygon points="950.80,64.57 968.80,64.57 972.20,68.87 954.20,68.87" fill="#0e4429" stroke="#0d1117" stroke-width="0.7"/>
<polygon points="986.80,64.57 990.20,68.87 990.20,79.90 986.80,75.60" fill="#072214"/>
<polygon points="972.20,68.87 990.20,68.87 990.20,79.90 972.20,79.90" fill="#092c1a"/>
<polygon points="968.80,64.57 986.80,64.57 990.20,68.87 972.20,68.87" fill="#0e4429" stroke="#0d1117" stroke-width="0.7"/>
<polygon points="29.40,71.30 47.40,71.30 50.80,75.60 32.80,75.60" fill="#161b22" stroke="#0d1117" stroke-width="0.7"/>
<polygon points="47.40,71.30 65.40,71.30 68.80,75.60 50.80,75.60" fill="#161b22" stroke="#0d1117" stroke-width="0.7"/>
<polygon points="83.40,49.24 86.80,53.54 86.80,75.60 83.40,71.30" fill="#003619"/>
<polygon points="68.80,53.54 86.80,53.54 86.80,75.60 68.80,75.60" fill="#004620"/>
<polygon points="65.40,49.24 83.40,49.24 86.80,53.54 68.80,53.54" fill="#006d32" stroke="#0d1117" stroke-width="0.7"/>
<polygon points="83.40,71.30 101.40,71.30 104.80,75.60 86.80,75.60" fill="#161b22" stroke="#0d1117" stroke-width="0.7"/>
<polygon points="101.40,71.30 119.40,71.30 122.80,75.60 104.80,75.60" fill="#161b22" stroke="#0d1117" stroke-width="0.7"/>
<polygon points="137.40,38.21 140.80,42.51 140.80,75.60 137.40,71.30" fill="#135320"/>
<polygon points="122.80,42.51 140.80,42.51 140.80,75.60 122.80,75.60" fill="#186b2a"/>
<polygon points="119.40,38.21 137.40,38.21 140.80,42.51 122.80,42.51" fill="#26a641" stroke="#0d1117" stroke-width="0.7"/>
<polygon points="155.40,42.78 158.80,47.08 158.80,75.60 155.40,71.30" fill="#003619"/>
<polygon points="140.80,47.08 158.80,47.08 158.80,75.60 140.80,75.60" fill="#004620"/>
<polygon points="137.40,42.78 155.40,42.78 158.80,47.08 140.80,47.08" fill="#006d32" stroke="#0d1117" stroke-width="0.7"/>
<polygon points="173.40,40.33 176.80,44.63 176.80,75.60 173.40,71.30" fill="#135320"/>
<polygon points="158.80,44.63 176.80,44.63 176.80,75.60 158.80,75.60" fill="#186b2a"/>
<polygon points="155.40,40.33 173.40,40.33 176.80,44.63 158.80,44.63" fill="#26a641" stroke="#0d1117" stroke-width="0.7"/>
<polygon points="173.40,71.30 191.40,71.30 194.80,75.60 176.80,75.60" fill="#161b22" stroke="#0d1117" stroke-width="0.7"/>
<polygon points="191.40,71.30 209.40,71.30 212.80,75.60 194.80,75.60" fill="#161b22" stroke="#0d1117" stroke-width="0.7"/>
<polygon points="227.40,60.27 230.80,64.57 230.80,75.60 227.40,71.30" fill="#072214"/>
<polygon points="212.80,64.57 230.80,64.57 230.80,75.60 212.80,75.60" fill="#092c1a"/>
<polygon points="209.40,60.27 227.40,60.27 230.80,64.57 212.80,64.57" fill="#0e4429" stroke="#0d1117" stroke-width="0.7"/>
<polygon points="245.40,60.27 248.80,64.57 248.80,75.60 245.40,71.30" fill="#072214"/>
<polygon points="230.80,64.57 248.80,64.57 248.80,75.60 230.80,75.60" fill="#092c1a"/>
<polygon points="227.40,60.27 245.40,60.27 248.80,64.57 230.80,64.57" fill="#0e4429" stroke="#0d1117" stroke-width="0.7"/>
<polygon points="245.40,71.30 263.40,71.30 266.80,75.60 248.80,75.60" fill="#161b22" stroke="#0d1117" stroke-width="0.7"/>
<polygon points="281.40,45.69 284.80,49.99 284.80,75.60 281.40,71.30" fill="#003619"/>
<polygon points="266.80,49.99 284.80,49.99 284.80,75.60 266.80,75.60" fill="#004620"/>
<polygon points="263.40,45.69 281.40,45.69 284.80,49.99 266.80,49.99" fill="#006d32" stroke="#0d1117" stroke-width="0.7"/>
<polygon points="299.40,60.27 302.80,64.57 302.80,75.60 299.40,71.30" fill="#072214"/>
<polygon points="284.80,64.57 302.80,64.57 302.80,75.60 284.80,75.60" fill="#092c1a"/>
<polygon points="281.40,60.27 299.40,60.27 302.80,64.57 284.80,64.57" fill="#0e4429" stroke="#0d1117" stroke-width="0.7"/>
<polygon points="299.40,71.30 317.40,71.30 320.80,75.60 302.80,75.60" fill="#161b22" stroke="#0d1117" stroke-width="0.7"/>
<polygon points="317.40,71.30 335.40,71.30 338.80,75.60 320.80,75.60" fill="#161b22" stroke="#0d1117" stroke-width="0.7"/>
<polygon points="335.40,71.30 353.40,71.30 356.80,75.60 338.80,75.60" fill="#161b22" stroke="#0d1117" stroke-width="0.7"/>
<polygon points="371.40,60.27 374.80,64.57 374.80,75.60 371.40,71.30" fill="#072214"/>
<polygon points="356.80,64.57 374.80,64.57 374.80,75.60 356.80,75.60" fill="#092c1a"/>
<polygon points="353.40,60.27 371.40,60.27 374.80,64.57 356.80,64.57" fill="#0e4429" stroke="#0d1117" stroke-width="0.7"/>
<polygon points="371.40,71.30 389.40,71.30 392.80,75.60 374.80,75.60" fill="#161b22" stroke="#0d1117" stroke-width="0.7"/>
<polygon points="389.40,71.30 407.40,71.30 410.80,75.60 392.80,75.60" fill="#161b22" stroke="#0d1117" stroke-width="0.7"/>
<polygon points="407.40,71.30 425.40,71.30 428.80,75.60 410.80,75.60" fill="#161b22" stroke="#0d1117" stroke-width="0.7"/>
<polygon points="425.40,71.30 443.40,71.30 446.80,75.60 428.80,75.60" fill="#161b22" stroke="#0d1117" stroke-width="0.7"/>
<polygon points="443.40,71.30 461.40,71.30 464.80,75.60 446.80,75.60" fill="#161b22" stroke="#0d1117" stroke-width="0.7"/>
<polygon points="461.40,71.30 479.40,71.30 482.80,75.60 464.80,75.60" fill="#161b22" stroke="#0d1117" stroke-width="0.7"/>
<polygon points="479.40,71.30 497.40,71.30 500.80,75.60 482.80,75.60" fill="#161b22" stroke="#0d1117" stroke-width="0.7"/>
<polygon points="497.40,71.30 515.40,71.30 518.80,75.60 500.80,75.60" fill="#161b22" stroke="#0d1117" stroke-width="0.7"/>
<polygon points="533.40,45.69 536.80,49.99 536.80,75.60 533.40,71.30" fill="#003619"/>
<polygon points="518.80,49.99 536.80,49.99 536.80,75.60 518.80,75.60" fill="#004620"/>
<polygon points="515.40,45.69 533.40,45.69 536.80,49.99 518.80,49.99" fill="#006d32" stroke="#0d1117" stroke-width="0.7"/>
<polygon points="551.40,60.27 554.80,64.57 554.80,75.60 551.40,71.30" fill="#072214"/>
<polygon points="536.80,64.57 554.80,64.57 554.80,75.60 536.80,75.60" fill="#092c1a"/>
<polygon points="533.40,60.27 551.40,60.27 554.80,64.57 536.80,64.57" fill="#0e4429" stroke="#0d1117" stroke-width="0.7"/>
<polygon points="569.40,60.27 572.80,64.57 572.80,75.60 569.40,71.30" fill="#072214"/>
<polygon points="554.80,64.57 572.80,64.57 572.80,75.60 554.80,75.60" fill="#092c1a"/>
<polygon points="551.40,60.27 569.40,60.27 572.80,64.57 554.80,64.57" fill="#0e4429" stroke="#0d1117" stroke-width="0.7"/>
<polygon points="569.40,71.30 587.40,71.30 590.80,75.60 572.80,75.60" fill="#161b22" stroke="#0d1117" stroke-width="0.7"/>
<polygon points="605.40,60.27 608.80,64.57 608.80,75.60 605.40,71.30" fill="#072214"/>
<polygon points="590.80,64.57 608.80,64.57 608.80,75.60 590.80,75.60" fill="#092c1a"/>
<polygon points="587.40,60.27 605.40,60.27 608.80,64.57 590.80,64.57" fill="#0e4429" stroke="#0d1117" stroke-width="0.7"/>
<polygon points="605.40,71.30 623.40,71.30 626.80,75.60 608.80,75.60" fill="#161b22" stroke="#0d1117" stroke-width="0.7"/>
<polygon points="641.40,60.27 644.80,64.57 644.80,75.60 641.40,71.30" fill="#072214"/>
<polygon points="626.80,64.57 644.80,64.57 644.80,75.60 626.80,75.60" fill="#092c1a"/>
<polygon points="623.40,60.27 641.40,60.27 644.80,64.57 626.80,64.57" fill="#0e4429" stroke="#0d1117" stroke-width="0.7"/>
<polygon points="641.40,71.30 659.40,71.30 662.80,75.60 644.80,75.60" fill="#161b22" stroke="#0d1117" stroke-width="0.7"/>
<polygon points="659.40,71.30 677.40,71.30 680.80,75.60 662.80,75.60" fill="#161b22" stroke="#0d1117" stroke-width="0.7"/>
<polygon points="677.40,71.30 695.40,71.30 698.80,75.60 680.80,75.60" fill="#161b22" stroke="#0d1117" stroke-width="0.7"/>
<polygon points="695.40,71.30 713.40,71.30 716.80,75.60 698.80,75.60" fill="#161b22" stroke="#0d1117" stroke-width="0.7"/>
<polygon points="731.40,60.27 734.80,64.57 734.80,75.60 731.40,71.30" fill="#072214"/>
<polygon points="716.80,64.57 734.80,64.57 734.80,75.60 716.80,75.60" fill="#092c1a"/>
<polygon points="713.40,60.27 731.40,60.27 734.80,64.57 716.80,64.57" fill="#0e4429" stroke="#0d1117" stroke-width="0.7"/>
<polygon points="749.40,45.69 752.80,49.99 752.80,75.60 749.40,71.30" fill="#003619"/>
<polygon points="734.80,49.99 752.80,49.99 752.80,75.60 734.80,75.60" fill="#004620"/>
<polygon points="731.40,45.69 749.40,45.69 752.80,49.99 734.80,49.99" fill="#006d32" stroke="#0d1117" stroke-width="0.7"/>
<polygon points="767.40,60.27 770.80,64.57 770.80,75.60 767.40,71.30" fill="#072214"/>
<polygon points="752.80,64.57 770.80,64.57 770.80,75.60 752.80,75.60" fill="#092c1a"/>
<polygon points="749.40,60.27 767.40,60.27 770.80,64.57 752.80,64.57" fill="#0e4429" stroke="#0d1117" stroke-width="0.7"/>
<polygon points="767.40,71.30 785.40,71.30 788.80,75.60 770.80,75.60" fill="#161b22" stroke="#0d1117" stroke-width="0.7"/>
<polygon points="785.40,71.30 803.40,71.30 806.80,75.60 788.80,75.60" fill="#161b22" stroke="#0d1117" stroke-width="0.7"/>
<polygon points="803.40,71.30 821.40,71.30 824.80,75.60 806.80,75.60" fill="#161b22" stroke="#0d1117" stroke-width="0.7"/>
<polygon points="821.40,71.30 839.40,71.30 842.80,75.60 824.80,75.60" fill="#161b22" stroke="#0d1117" stroke-width="0.7"/>
<polygon points="839.40,71.30 857.40,71.30 860.80,75.60 842.80,75.60" fill="#161b22" stroke="#0d1117" stroke-width="0.7"/>
<polygon points="857.40,71.30 875.40,71.30 878.80,75.60 860.80,75.60" fill="#161b22" stroke="#0d1117" stroke-width="0.7"/>
<polygon points="875.40,71.30 893.40,71.30 896.80,75.60 878.80,75.60" fill="#161b22" stroke="#0d1117" stroke-width="0.7"/>
<polygon points="893.40,71.30 911.40,71.30 914.80,75.60 896.80,75.60" fill="#161b22" stroke="#0d1117" stroke-width="0.7"/>
<polygon points="911.40,71.30 929.40,71.30 932.80,75.60 914.80,75.60" fill="#161b22" stroke="#0d1117" stroke-width="0.7"/>
<polygon points="929.40,71.30 947.40,71.30 950.80,75.60 932.80,75.60" fill="#161b22" stroke="#0d1117" stroke-width="0.7"/>
<polygon points="965.40,60.27 968.80,64.57 968.80,75.60 965.40,71.30" fill="#072214"/>
<polygon points="950.80,64.57 968.80,64.57 968.80,75.60 950.80,75.60" fill="#092c1a"/>
<polygon points="947.40,60.27 965.40,60.27 968.80,64.57 950.80,64.57" fill="#0e4429" stroke="#0d1117" stroke-width="0.7"/>
<polygon points="965.40,71.30 983.40,71.30 986.80,75.60 968.80,75.60" fill="#161b22" stroke="#0d1117" stroke-width="0.7"/>
<polygon points="26.00,67.00 44.00,67.00 47.40,71.30 29.40,71.30" fill="#161b22" stroke="#0d1117" stroke-width="0.7"/>
<polygon points="44.00,67.00 62.00,67.00 65.40,71.30 47.40,71.30" fill="#161b22" stroke="#0d1117" stroke-width="0.7"/>
<polygon points="80.00,26.18 83.40,30.48 83.40,71.30 80.00,67.00" fill="#1c6929"/>
<polygon points="65.40,30.48 83.40,30.48 83.40,71.30 65.40,71.30" fill="#258935"/>
<polygon points="62.00,26.18 80.00,26.18 83.40,30.48 65.40,30.48" fill="#39d353" stroke="#0d1117" stroke-width="0.7"/>
<polygon points="80.00,67.00 98.00,67.00 101.40,71.30 83.40,71.30" fill="#161b22" stroke="#0d1117" stroke-width="0.7"/>
<polygon points="116.00,41.39 119.40,45.69 119.40,71.30 116.00,67.00" fill="#003619"/>
<polygon points="101.40,45.69 119.40,45.69 119.40,71.30 101.40,71.30" fill="#004620"/>
<polygon points="98.00,41.39 116.00,41.39 119.40,45.69 101.40,45.69" fill="#006d32" stroke="#0d1117" stroke-width="0.7"/>
<polygon points="134.00,49.52 137.40,53.82 137.40,71.30 134.00,67.00" fill="#003619"/>
<polygon points="119.40,53.82 137.40,53.82 137.40,71.30 119.40,71.30" fill="#004620"/>
<polygon points="116.00,49.52 134.00,49.52 137.40,53.82 119.40,53.82" fill="#006d32" stroke="#0d1117" stroke-width="0.7"/>
<polygon points="152.00,55.97 155.40,60.27 155.40,71.30 152.00,67.00" fill="#072214"/>
<polygon points="137.40,60.27 155.40,60.27 155.40,71.30 137.40,71.30" fill="#092c1a"/>
<polygon points="134.00,55.97 152.00,55.97 155.40,60.27 137.40,60.27" fill="#0e4429" stroke="#0d1117" stroke-width="0.7"/>
<polygon points="170.00,27.45 173.40,31.75 173.40,71.30 170.00,67.00" fill="#135320"/>
<polygon points="155.40,31.75 173.40,31.75 173.40,71.30 155.40,71.30" fill="#186b2a"/>
<polygon points="152.00,27.45 170.00,27.45 173.40,31.75 155.40,31.75" fill="#26a641" stroke="#0d1117" stroke-width="0.7"/>
<polygon points="188.00,44.94 191.40,49.24 191.40,71.30 188.00,67.00" fill="#003619"/>
<polygon points="173.40,49.24 191.40,49.24 191.40,71.30 173.40,71.30" fill="#004620"/>
<polygon points="170.00,44.94 188.00,44.94 191.40,49.24 173.40,49.24" fill="#006d32" stroke="#0d1117" stroke-width="0.7"/>
<polygon points="188.00,67.00 206.00,67.00 209.40,71.30 191.40,71.30" fill="#161b22" stroke="#0d1117" stroke-width="0.7"/>
<polygon points="206.00,67.00 224.00,67.00 227.40,71.30 209.40,71.30" fill="#161b22" stroke="#0d1117" stroke-width="0.7"/>
<polygon points="242.00,55.97 245.40,60.27 245.40,71.30 242.00,67.00" fill="#072214"/>
<polygon points="227.40,60.27 245.40,60.27 245.40,71.30 227.40,71.30" fill="#092c1a"/>
<polygon points="224.00,55.97 242.00,55.97 245.40,60.27 227.40,60.27" fill="#0e4429" stroke="#0d1117" stroke-width="0.7"/>
<polygon points="242.00,67.00 260.00,67.00 263.40,71.30 245.40,71.30" fill="#161b22" stroke="#0d1117" stroke-width="0.7"/>
<polygon points="260.00,67.00 278.00,67.00 281.40,71.30 263.40,71.30" fill="#161b22" stroke="#0d1117" stroke-width="0.7"/>
<polygon points="278.00,67.00 296.00,67.00 299.40,71.30 281.40,71.30" fill="#161b22" stroke="#0d1117" stroke-width="0.7"/>
<polygon points="296.00,67.00 314.00,67.00 317.40,71.30 299.40,71.30" fill="#161b22" stroke="#0d1117" stroke-width="0.7"/>
<polygon points="314.00,67.00 332.00,67.00 335.40,71.30 317.40,71.30" fill="#161b22" stroke="#0d1117" stroke-width="0.7"/>
<polygon points="332.00,67.00 350.00,67.00 353.40,71.30 335.40,71.30" fill="#161b22" stroke="#0d1117" stroke-width="0.7"/>
<polygon points="350.00,67.00 368.00,67.00 371.40,71.30 353.40,71.30" fill="#161b22" stroke="#0d1117" stroke-width="0.7"/>
<polygon points="368.00,67.00 386.00,67.00 389.40,71.30 371.40,71.30" fill="#161b22" stroke="#0d1117" stroke-width="0.7"/>
<polygon points="404.00,44.94 407.40,49.24 407.40,71.30 404.00,67.00" fill="#003619"/>
<polygon points="389.40,49.24 407.40,49.24 407.40,71.30 389.40,71.30" fill="#004620"/>
<polygon points="386.00,44.94 404.00,44.94 407.40,49.24 389.40,49.24" fill="#006d32" stroke="#0d1117" stroke-width="0.7"/>
<polygon points="404.00,67.00 422.00,67.00 425.40,71.30 407.40,71.30" fill="#161b22" stroke="#0d1117" stroke-width="0.7"/>
<polygon points="422.00,67.00 440.00,67.00 443.40,71.30 425.40,71.30" fill="#161b22" stroke="#0d1117" stroke-width="0.7"/>
<polygon points="440.00,67.00 458.00,67.00 461.40,71.30 443.40,71.30" fill="#161b22" stroke="#0d1117" stroke-width="0.7"/>
<polygon points="458.00,67.00 476.00,67.00 479.40,71.30 461.40,71.30" fill="#161b22" stroke="#0d1117" stroke-width="0.7"/>
<polygon points="476.00,67.00 494.00,67.00 497.40,71.30 479.40,71.30" fill="#161b22" stroke="#0d1117" stroke-width="0.7"/>
<polygon points="494.00,67.00 512.00,67.00 515.40,71.30 497.40,71.30" fill="#161b22" stroke="#0d1117" stroke-width="0.7"/>
<polygon points="512.00,67.00 530.00,67.00 533.40,71.30 515.40,71.30" fill="#161b22" stroke="#0d1117" stroke-width="0.7"/>
<polygon points="530.00,67.00 548.00,67.00 551.40,71.30 533.40,71.30" fill="#161b22" stroke="#0d1117" stroke-width="0.7"/>
<polygon points="548.00,67.00 566.00,67.00 569.40,71.30 551.40,71.30" fill="#161b22" stroke="#0d1117" stroke-width="0.7"/>
<polygon points="566.00,67.00 584.00,67.00 587.40,71.30 569.40,71.30" fill="#161b22" stroke="#0d1117" stroke-width="0.7"/>
<polygon points="584.00,67.00 602.00,67.00 605.40,71.30 587.40,71.30" fill="#161b22" stroke="#0d1117" stroke-width="0.7"/>
<polygon points="602.00,67.00 620.00,67.00 623.40,71.30 605.40,71.30" fill="#161b22" stroke="#0d1117" stroke-width="0.7"/>
<polygon points="620.00,67.00 638.00,67.00 641.40,71.30 623.40,71.30" fill="#161b22" stroke="#0d1117" stroke-width="0.7"/>
<polygon points="638.00,67.00 656.00,67.00 659.40,71.30 641.40,71.30" fill="#161b22" stroke="#0d1117" stroke-width="0.7"/>
<polygon points="656.00,67.00 674.00,67.00 677.40,71.30 659.40,71.30" fill="#161b22" stroke="#0d1117" stroke-width="0.7"/>
<polygon points="674.00,67.00 692.00,67.00 695.40,71.30 677.40,71.30" fill="#161b22" stroke="#0d1117" stroke-width="0.7"/>
<polygon points="692.00,67.00 710.00,67.00 713.40,71.30 695.40,71.30" fill="#161b22" stroke="#0d1117" stroke-width="0.7"/>
<polygon points="710.00,67.00 728.00,67.00 731.40,71.30 713.40,71.30" fill="#161b22" stroke="#0d1117" stroke-width="0.7"/>
<polygon points="728.00,67.00 746.00,67.00 749.40,71.30 731.40,71.30" fill="#161b22" stroke="#0d1117" stroke-width="0.7"/>
<polygon points="746.00,67.00 764.00,67.00 767.40,71.30 749.40,71.30" fill="#161b22" stroke="#0d1117" stroke-width="0.7"/>
<polygon points="764.00,67.00 782.00,67.00 785.40,71.30 767.40,71.30" fill="#161b22" stroke="#0d1117" stroke-width="0.7"/>
<polygon points="782.00,67.00 800.00,67.00 803.40,71.30 785.40,71.30" fill="#161b22" stroke="#0d1117" stroke-width="0.7"/>
<polygon points="800.00,67.00 818.00,67.00 821.40,71.30 803.40,71.30" fill="#161b22" stroke="#0d1117" stroke-width="0.7"/>
<polygon points="818.00,67.00 836.00,67.00 839.40,71.30 821.40,71.30" fill="#161b22" stroke="#0d1117" stroke-width="0.7"/>
<polygon points="836.00,67.00 854.00,67.00 857.40,71.30 839.40,71.30" fill="#161b22" stroke="#0d1117" stroke-width="0.7"/>
<polygon points="854.00,67.00 872.00,67.00 875.40,71.30 857.40,71.30" fill="#161b22" stroke="#0d1117" stroke-width="0.7"/>
<polygon points="872.00,67.00 890.00,67.00 893.40,71.30 875.40,71.30" fill="#161b22" stroke="#0d1117" stroke-width="0.7"/>
<polygon points="890.00,67.00 908.00,67.00 911.40,71.30 893.40,71.30" fill="#161b22" stroke="#0d1117" stroke-width="0.7"/>
<polygon points="908.00,67.00 926.00,67.00 929.40,71.30 911.40,71.30" fill="#161b22" stroke="#0d1117" stroke-width="0.7"/>
<polygon points="926.00,67.00 944.00,67.00 947.40,71.30 929.40,71.30" fill="#161b22" stroke="#0d1117" stroke-width="0.7"/>
<polygon points="962.00,30.35 965.40,34.65 965.40,71.30 962.00,67.00" fill="#135320"/>
<polygon points="947.40,34.65 965.40,34.65 965.40,71.30 947.40,71.30" fill="#186b2a"/>
<polygon points="944.00,30.35 962.00,30.35 965.40,34.65 947.40,34.65" fill="#26a641" stroke="#0d1117" stroke-width="0.7"/>
<polygon points="962.00,67.00 980.00,67.00 983.40,71.30 965.40,71.30" fill="#161b22" stroke="#0d1117" stroke-width="0.7"/>
<polyline points="46.90,83.40 64.90,83.40 82.90,83.40 86.30,87.70 104.30,87.70 122.30,87.70 140.30,76.67 158.30,65.64 176.30,87.70 194.30,87.70 190.90,83.40 208.90,83.40 226.90,83.40 244.90,83.40 262.90,83.40 259.50,79.10 277.50,79.10 295.50,79.10 313.50,79.10 331.50,79.10 349.50,79.10 367.50,79.10 385.50,79.10 382.10,74.80 400.10,74.80 418.10,74.80 436.10,74.80 454.10,74.80 472.10,74.80 490.10,74.80 508.10,74.80 504.70,70.50 522.70,70.50 540.70,70.50 558.70,70.50 576.70,70.50 594.70,70.50 612.70,70.50 630.70,70.50 648.70,70.50 666.70,70.50 684.70,70.50 702.70,70.50 720.70,70.50 738.70,70.50 756.70,70.50 774.70,70.50 778.10,74.80 781.50,79.10 799.50,79.10 817.50,79.10 835.50,79.10 853.50,79.10 871.50,79.10 889.50,79.10 907.50,79.10 925.50,79.10 943.50,79.10 961.50,68.07 964.90,83.40 982.90,83.40" fill="none" stroke="#f2cc60" stroke-width="3.2" stroke-linecap="round" stroke-linejoin="round"/>
<circle cx="46.90" cy="83.40" r="3.8" fill="#f2cc60" stroke="#0d1117" stroke-width="1"/>
<circle cx="982.90" cy="83.40" r="3.8" fill="#f2cc60" stroke="#0d1117" stroke-width="1"/>
</svg>