<svg xmlns="http://www.w3.org/2000/svg" width="1103" height="156" viewBox="0 0 1103 156" role="img">
<defs>
<linearGradient id="bgGrad" x1="0" y1="0" x2="0" y2="1">
<stop offset="0%" stop-color="#04070f"/>
<stop offset="100%" stop-color="#071225"/>
</linearGradient>
<linearGradient id="fogGrad" x1="0" y1="0" x2="1" y2="1">
<stop offset="0%" stop-color="#7dd3fc" stop-opacity="0.12"/>
<stop offset="70%" stop-color="#34d399" stop-opacity="0.00"/>
</linearGradient>
<radialGradient id="sunGlow" cx="78%" cy="16%" r="32%">
<stop offset="0%" stop-color="#67e8f9" stop-opacity="0.24"/>
<stop offset="100%" stop-color="#67e8f9" stop-opacity="0.00"/>
</radialGradient>
<filter id="neonBlur" x="-50%" y="-50%" width="200%" height="200%">
<feGaussianBlur stdDeviation="3"/>
</filter>
</defs>
<rect width="1103" height="156" rx="12" fill="url(#bgGrad)"/>
<rect width="1103" height="156" rx="12" fill="url(#fogGrad)"/>
<circle cx="983" cy="26" r="84" fill="url(#sunGlow)"/>
<circle cx="751.69" cy="27.56" r="0.92" fill="#e2e8f0" opacity="0.27"/>
<circle cx="801.75" cy="11.34" r="0.82" fill="#e2e8f0" opacity="0.10"/>
<circle cx="486.53" cy="25.98" r="1.61" fill="#e2e8f0" opacity="0.23"/>
<circle cx="229.34" cy="31.78" r="0.80" fill="#e2e8f0" opacity="0.16"/>
<circle cx="520.69" cy="36.98" r="0.52" fill="#e2e8f0" opacity="0.31"/>
<circle cx="492.87" cy="39.77" r="0.70" fill="#e2e8f0" opacity="0.19"/>
<circle cx="522.06" cy="61.13" r="0.56" fill="#e2e8f0" opacity="0.20"/>
<circle cx="873.32" cy="56.45" r="0.58" fill="#e2e8f0" opacity="0.28"/>
<circle cx="135.36" cy="54.68" r="1.74" fill="#e2e8f0" opacity="0.24"/>
<circle cx="214.94" cy="66.28" r="1.44" fill="#e2e8f0" opacity="0.21"/>
<circle cx="648.43" cy="69.53" r="1.04" fill="#e2e8f0" opacity="0.12"/>
<circle cx="499.07" cy="22.65" r="0.94" fill="#e2e8f0" opacity="0.18"/>
<circle cx="401.35" cy="52.43" r="0.76" fill="#e2e8f0" opacity="0.24"/>
<circle cx="25.45" cy="22.33" r="1.56" fill="#e2e8f0" opacity="0.15"/>
<circle cx="755.93" cy="59.04" r="1.35" fill="#e2e8f0" opacity="0.26"/>
<circle cx="229.83" cy="23.62" r="1.52" fill="#e2e8f0" opacity="0.11"/>
<circle cx="175.97" cy="11.97" r="0.62" fill="#e2e8f0" opacity="0.23"/>
<circle cx="818.61" cy="55.59" r="0.84" fill="#e2e8f0" opacity="0.22"/>
<circle cx="1030.24" cy="29.59" r="1.55" fill="#e2e8f0" opacity="0.22"/>
<circle cx="404.63" cy="44.81" r="1.38" fill="#e2e8f0" opacity="0.17"/>
<circle cx="85.70" cy="36.97" r="1.75" fill="#e2e8f0" opacity="0.12"/>
<circle cx="443.06" cy="45.74" r="1.72" fill="#e2e8f0" opacity="0.19"/>
<polygon points="30.20,67.00 44.20,67.00 48.20,71.20 34.20,71.20" fill="#020617" opacity="0.11"/>
<polygon points="36.00,48.48 43.00,58.48 43.00,66.00 36.00,56.00" fill="#071f18"/>
<polygon points="29.00,58.48 43.00,58.48 43.00,66.00 29.00,66.00" fill="#0a2920"/>
<polygon points="22.00,48.48 36.00,48.48 43.00,58.48 29.00,58.48" fill="#124a3a" stroke="#022c22" stroke-width="0.52"/>
<polygon points="23.00,49.28 35.00,49.28 41.20,57.68 30.20,57.68" fill="#ecfeff" opacity="0.08"/>
<polygon points="30.12,49.08 41.80,54.68 41.80,56.28 30.12,49.24" fill="#40909a" opacity="0.22"/>
<polygon points="41.00,56.00 55.00,56.00 62.00,66.00 48.00,66.00" fill="#0b1020" stroke="#022c22" stroke-width="0.52"/>
<polygon points="60.00,56.00 74.00,56.00 81.00,66.00 67.00,66.00" fill="#0b1020" stroke="#022c22" stroke-width="0.52"/>
<polygon points="79.00,56.00 93.00,56.00 100.00,66.00 86.00,66.00" fill="#0b1020" stroke="#022c22" stroke-width="0.52"/>
<polygon points="98.00,56.00 112.00,56.00 119.00,66.00 105.00,66.00" fill="#0b1020" stroke="#022c22" stroke-width="0.52"/>
<polygon points="117.00,56.00 131.00,56.00 138.00,66.00 124.00,66.00" fill="#0b1020" stroke="#022c22" stroke-width="0.52"/>
<polygon points="136.00,56.00 150.00,56.00 157.00,66.00 143.00,66.00" fill="#0b1020" stroke="#022c22" stroke-width="0.52"/>
<polygon points="155.00,56.00 169.00,56.00 176.00,66.00 162.00,66.00" fill="#0b1020" stroke="#022c22" stroke-width="0.52"/>
<polygon points="174.00,56.00 188.00,56.00 195.00,66.00 181.00,66.00" fill="#0b1020" stroke="#022c22" stroke-width="0.52"/>
<polygon points="201.20,67.00 215.20,67.00 219.20,71.20 205.20,71.20" fill="#020617" opacity="0.17"/>
<polygon points="207.00,40.97 214.00,50.97 214.00,66.00 207.00,56.00" fill="#0c3425"/>
<polygon points="200.00,50.97 214.00,50.97 214.00,66.00 200.00,66.00" fill="#104531"/>
<polygon points="193.00,40.97 207.00,40.97 214.00,50.97 200.00,50.97" fill="#1d7c59" stroke="#022c22" stroke-width="0.52"/>
<polygon points="194.00,41.77 206.00,41.77 212.20,50.17 201.20,50.17" fill="#ecfeff" opacity="0.11"/>
<polygon points="201.12,41.57 212.80,47.17 212.80,48.77 201.12,41.73" fill="#4cacb9" opacity="0.28"/>
<polygon points="212.00,56.00 226.00,56.00 233.00,66.00 219.00,66.00" fill="#0b1020" stroke="#022c22" stroke-width="0.52"/>
<polygon points="231.00,56.00 245.00,56.00 252.00,66.00 238.00,66.00" fill="#0b1020" stroke="#022c22" stroke-width="0.52"/>
<polygon points="250.00,56.00 264.00,56.00 271.00,66.00 257.00,66.00" fill="#0b1020" stroke="#022c22" stroke-width="0.52"/>
<polygon points="269.00,56.00 283.00,56.00 290.00,66.00 276.00,66.00" fill="#0b1020" stroke="#022c22" stroke-width="0.52"/>
<polygon points="288.00,56.00 302.00,56.00 309.00,66.00 295.00,66.00" fill="#0b1020" stroke="#022c22" stroke-width="0.52"/>
<polygon points="307.00,56.00 321.00,56.00 328.00,66.00 314.00,66.00" fill="#0b1020" stroke="#022c22" stroke-width="0.52"/>
<polygon points="326.00,56.00 340.00,56.00 347.00,66.00 333.00,66.00" fill="#0b1020" stroke="#022c22" stroke-width="0.52"/>
<polygon points="345.00,56.00 359.00,56.00 366.00,66.00 352.00,66.00" fill="#0b1020" stroke="#022c22" stroke-width="0.52"/>
<polygon points="364.00,56.00 378.00,56.00 385.00,66.00 371.00,66.00" fill="#0b1020" stroke="#022c22" stroke-width="0.52"/>
<polygon points="383.00,56.00 397.00,56.00 404.00,66.00 390.00,66.00" fill="#0b1020" stroke="#022c22" stroke-width="0.52"/>
<polygon points="402.00,56.00 416.00,56.00 423.00,66.00 409.00,66.00" fill="#0b1020" stroke="#022c22" stroke-width="0.52"/>
<polygon points="421.00,56.00 435.00,56.00 442.00,66.00 428.00,66.00" fill="#0b1020" stroke="#022c22" stroke-width="0.52"/>
<polygon points="440.00,56.00 454.00,56.00 461.00,66.00 447.00,66.00" fill="#0b1020" stroke="#022c22" stroke-width="0.52"/>
<polygon points="459.00,56.00 473.00,56.00 480.00,66.00 466.00,66.00" fill="#0b1020" stroke="#022c22" stroke-width="0.52"/>
<polygon points="478.00,56.00 492.00,56.00 499.00,66.00 485.00,66.00" fill="#0b1020" stroke="#022c22" stroke-width="0.52"/>
<polygon points="497.00,56.00 511.00,56.00 518.00,66.00 504.00,66.00" fill="#0b1020" stroke="#022c22" stroke-width="0.52"/>
<polygon points="516.00,56.00 530.00,56.00 537.00,66.00 523.00,66.00" fill="#0b1020" stroke="#022c22" stroke-width="0.52"/>
<polygon points="535.00,56.00 549.00,56.00 556.00,66.00 542.00,66.00" fill="#0b1020" stroke="#022c22" stroke-width="0.52"/>
<polygon points="554.00,56.00 568.00,56.00 575.00,66.00 561.00,66.00" fill="#0b1020" stroke="#022c22" stroke-width="0.52"/>
<polygon points="573.00,56.00 587.00,56.00 594.00,66.00 580.00,66.00" fill="#0b1020" stroke="#022c22" stroke-width="0.52"/>
<polygon points="592.00,56.00 606.00,56.00 613.00,66.00 599.00,66.00" fill="#0b1020" stroke="#022c22" stroke-width="0.52"/>
<polygon points="611.00,56.00 625.00,56.00 632.00,66.00 618.00,66.00" fill="#0b1020" stroke="#022c22" stroke-width="0.52"/>
<polygon points="630.00,56.00 644.00,56.00 651.00,66.00 637.00,66.00" fill="#0b1020" stroke="#022c22" stroke-width="0.52"/>
<polygon points="649.00,56.00 663.00,56.00 670.00,66.00 656.00,66.00" fill="#0b1020" stroke="#022c22" stroke-width="0.52"/>
<polygon points="668.00,56.00 682.00,56.00 689.00,66.00 675.00,66.00" fill="#0b1020" stroke="#022c22" stroke-width="0.52"/>
<polygon points="687.00,56.00 701.00,56.00 708.00,66.00 694.00,66.00" fill="#0b1020" stroke="#022c22" stroke-width="0.52"/>
<polygon points="706.00,56.00 720.00,56.00 727.00,66.00 713.00,66.00" fill="#0b1020" stroke="#022c22" stroke-width="0.52"/>
<polygon points="725.00,56.00 739.00,56.00 746.00,66.00 732.00,66.00" fill="#0b1020" stroke="#022c22" stroke-width="0.52"/>
<polygon points="744.00,56.00 758.00,56.00 765.00,66.00 751.00,66.00" fill="#0b1020" stroke="#022c22" stroke-width="0.52"/>
<polygon points="763.00,56.00 777.00,56.00 784.00,66.00 770.00,66.00" fill="#0b1020" stroke="#022c22" stroke-width="0.52"/>
<polygon points="790.20,67.00 804.20,67.00 808.20,71.20 794.20,71.20" fill="#020617" opacity="0.24"/>
<polygon points="796.00,31.03 803.00,41.03 803.00,66.00 796.00,56.00" fill="#154b33"/>
<polygon points="789.00,41.03 803.00,41.03 803.00,66.00 789.00,66.00" fill="#1d6444"/>
<polygon points="782.00,31.03 796.00,31.03 803.00,41.03 789.00,41.03" fill="#34b37a" stroke="#022c22" stroke-width="0.52"/>
<polygon points="783.00,31.83 795.00,31.83 801.20,40.23 790.20,40.23" fill="#ecfeff" opacity="0.15"/>
<polygon points="790.12,31.63 801.80,37.23 801.80,38.83 790.12,31.79" fill="#5dd1e1" opacity="0.37"/>
<polygon points="801.00,56.00 815.00,56.00 822.00,66.00 808.00,66.00" fill="#0b1020" stroke="#022c22" stroke-width="0.52"/>
<polygon points="820.00,56.00 834.00,56.00 841.00,66.00 827.00,66.00" fill="#0b1020" stroke="#022c22" stroke-width="0.52"/>
<polygon points="839.00,56.00 853.00,56.00 860.00,66.00 846.00,66.00" fill="#0b1020" stroke="#022c22" stroke-width="0.52"/>
<polygon points="858.00,56.00 872.00,56.00 879.00,66.00 865.00,66.00" fill="#0b1020" stroke="#022c22" stroke-width="0.52"/>
<polygon points="885.20,67.00 899.20,67.00 903.20,71.20 889.20,71.20" fill="#020617" opacity="0.18"/>
<polygon points="891.00,38.55 898.00,48.55 898.00,66.00 891.00,56.00" fill="#0c3425"/>
<polygon points="884.00,48.55 898.00,48.55 898.00,66.00 884.00,66.00" fill="#104531"/>
<polygon points="877.00,38.55 891.00,38.55 898.00,48.55 884.00,48.55" fill="#1d7c59" stroke="#022c22" stroke-width="0.52"/>
<polygon points="878.00,39.35 890.00,39.35 896.20,47.75 885.20,47.75" fill="#ecfeff" opacity="0.12"/>
<polygon points="885.12,39.15 896.80,44.75 896.80,46.35 885.12,39.31" fill="#50b5c2" opacity="0.30"/>
<polygon points="904.20,67.00 918.20,67.00 922.20,71.20 908.20,71.20" fill="#020617" opacity="0.18"/>
<polygon points="910.00,38.55 917.00,48.55 917.00,66.00 910.00,56.00" fill="#0c3425"/>
<polygon points="903.00,48.55 917.00,48.55 917.00,66.00 903.00,66.00" fill="#104531"/>
<polygon points="896.00,38.55 910.00,38.55 917.00,48.55 903.00,48.55" fill="#1d7c59" stroke="#022c22" stroke-width="0.52"/>
<polygon points="897.00,39.35 909.00,39.35 915.20,47.75 904.20,47.75" fill="#ecfeff" opacity="0.12"/>
<polygon points="904.12,39.15 915.80,44.75 915.80,46.35 904.12,39.31" fill="#50b5c2" opacity="0.30"/>
<polygon points="923.20,67.00 937.20,67.00 941.20,71.20 927.20,71.20" fill="#020617" opacity="0.18"/>
<polygon points="929.00,38.55 936.00,48.55 936.00,66.00 929.00,56.00" fill="#0c3425"/>
<polygon points="922.00,48.55 936.00,48.55 936.00,66.00 922.00,66.00" fill="#104531"/>
<polygon points="915.00,38.55 929.00,38.55 936.00,48.55 922.00,48.55" fill="#1d7c59" stroke="#022c22" stroke-width="0.52"/>
<polygon points="916.00,39.35 928.00,39.35 934.20,47.75 923.20,47.75" fill="#ecfeff" opacity="0.12"/>
<polygon points="923.12,39.15 934.80,44.75 934.80,46.35 923.12,39.31" fill="#50b5c2" opacity="0.30"/>
<polygon points="942.20,67.00 956.20,67.00 960.20,71.20 946.20,71.20" fill="#020617" opacity="0.18"/>
<polygon points="948.00,38.55 955.00,48.55 955.00,66.00 948.00,56.00" fill="#0c3425"/>
<polygon points="941.00,48.55 955.00,48.55 955.00,66.00 941.00,66.00" fill="#104531"/>
<polygon points="934.00,38.55 948.00,38.55 955.00,48.55 941.00,48.55" fill="#1d7c59" stroke="#022c22" stroke-width="0.52"/>
<polygon points="935.00,39.35 947.00,39.35 953.20,47.75 942.20,47.75" fill="#ecfeff" opacity="0.12"/>
<polygon points="942.12,39.15 953.80,44.75 953.80,46.35 942.12,39.31" fill="#50b5c2" opacity="0.30"/>
<polygon points="953.00,56.00 967.00,56.00 974.00,66.00 960.00,66.00" fill="#0b1020" stroke="#022c22" stroke-width="0.52"/>
<polygon points="972.00,56.00 986.00,56.00 993.00,66.00 979.00,66.00" fill="#0b1020" stroke="#022c22" stroke-width="0.52"/>
<polygon points="991.00,56.00 1005.00,56.00 1012.00,66.00 998.00,66.00" fill="#0b1020" stroke="#022c22" stroke-width="0.52"/>
<polygon points="1010.00,56.00 1024.00,56.00 1031.00,66.00 1017.00,66.00" fill="#0b1020" stroke="#022c22" stroke-width="0.52"/>
<polygon points="37.20,77.00 51.20,77.00 55.20,81.20 41.20,81.20" fill="#020617" opacity="0.11"/>
<polygon points="43.00,58.48 50.00,68.48 50.00,76.00 43.00,66.00" fill="#071f18"/>
<polygon points="36.00,68.48 50.00,68.48 50.00,76.00 36.00,76.00" fill="#0a2920"/>
<polygon points="29.00,58.48 43.00,58.48 50.00,68.48 36.00,68.48" fill="#124a3a" stroke="#022c22" stroke-width="0.52"/>
<polygon points="30.00,59.28 42.00,59.28 48.20,67.68 37.20,67.68" fill="#ecfeff" opacity="0.08"/>
<polygon points="37.12,59.08 48.80,64.68 48.80,66.28 37.12,59.24" fill="#40909a" opacity="0.22"/>
<polygon points="48.00,66.00 62.00,66.00 69.00,76.00 55.00,76.00" fill="#0b1020" stroke="#022c22" stroke-width="0.52"/>
<polygon points="75.20,77.00 89.20,77.00 93.20,81.20 79.20,81.20" fill="#020617" opacity="0.18"/>
<polygon points="81.00,48.55 88.00,58.55 88.00,76.00 81.00,66.00" fill="#0c3425"/>
<polygon points="74.00,58.55 88.00,58.55 88.00,76.00 74.00,76.00" fill="#104531"/>
<polygon points="67.00,48.55 81.00,48.55 88.00,58.55 74.00,58.55" fill="#1d7c59" stroke="#022c22" stroke-width="0.52"/>
<polygon points="68.00,49.35 80.00,49.35 86.20,57.75 75.20,57.75" fill="#ecfeff" opacity="0.12"/>
<polygon points="75.12,49.15 86.80,54.75 86.80,56.35 75.12,49.31" fill="#50b5c2" opacity="0.30"/>
<polygon points="94.20,77.00 108.20,77.00 112.20,81.20 98.20,81.20" fill="#020617" opacity="0.11"/>
<polygon points="100.00,58.48 107.00,68.48 107.00,76.00 100.00,66.00" fill="#071f18"/>
<polygon points="93.00,68.48 107.00,68.48 107.00,76.00 93.00,76.00" fill="#0a2920"/>
<polygon points="86.00,58.48 100.00,58.48 107.00,68.48 93.00,68.48" fill="#124a3a" stroke="#022c22" stroke-width="0.52"/>
<polygon points="87.00,59.28 99.00,59.28 105.20,67.68 94.20,67.68" fill="#ecfeff" opacity="0.08"/>
<polygon points="94.12,59.08 105.80,64.68 105.80,66.28 94.12,59.24" fill="#40909a" opacity="0.22"/>
<polygon points="105.00,66.00 119.00,66.00 126.00,76.00 112.00,76.00" fill="#0b1020" stroke="#022c22" stroke-width="0.52"/>
<polygon points="124.00,66.00 138.00,66.00 145.00,76.00 131.00,76.00" fill="#0b1020" stroke="#022c22" stroke-width="0.52"/>
<polygon points="143.00,66.00 157.00,66.00 164.00,76.00 150.00,76.00" fill="#0b1020" stroke="#022c22" stroke-width="0.52"/>
<polygon points="170.20,77.00 184.20,77.00 188.20,81.20 174.20,81.20" fill="#020617" opacity="0.11"/>
<polygon points="176.00,58.48 183.00,68.48 183.00,76.00 176.00,66.00" fill="#071f18"/>
<polygon points="169.00,68.48 183.00,68.48 183.00,76.00 169.00,76.00" fill="#0a2920"/>
<polygon points="162.00,58.48 176.00,58.48 183.00,68.48 169.00,68.48" fill="#124a3a" stroke="#022c22" stroke-width="0.52"/>
<polygon points="163.00,59.28 175.00,59.28 181.20,67.68 170.20,67.68" fill="#ecfeff" opacity="0.08"/>
<polygon points="170.12,59.08 181.80,64.68 181.80,66.28 170.12,59.24" fill="#40909a" opacity="0.22"/>
<polygon points="181.00,66.00 195.00,66.00 202.00,76.00 188.00,76.00" fill="#0b1020" stroke="#022c22" stroke-width="0.52"/>
<polygon points="200.00,66.00 214.00,66.00 221.00,76.00 207.00,76.00" fill="#0b1020" stroke="#022c22" stroke-width="0.52"/>
<polygon points="219.00,66.00 233.00,66.00 240.00,76.00 226.00,76.00" fill="#0b1020" stroke="#022c22" stroke-width="0.52"/>
<polygon points="238.00,66.00 252.00,66.00 259.00,76.00 245.00,76.00" fill="#0b1020" stroke="#022c22" stroke-width="0.52"/>
<polygon points="257.00,66.00 271.00,66.00 278.00,76.00 264.00,76.00" fill="#0b1020" stroke="#022c22" stroke-width="0.52"/>
<polygon points="276.00,66.00 290.00,66.00 297.00,76.00 283.00,76.00" fill="#0b1020" stroke="#022c22" stroke-width="0.52"/>
<polygon points="295.00,66.00 309.00,66.00 316.00,76.00 302.00,76.00" fill="#0b1020" stroke="#022c22" stroke-width="0.52"/>
<polygon points="314.00,66.00 328.00,66.00 335.00,76.00 321.00,76.00" fill="#0b1020" stroke="#022c22" stroke-width="0.52"/>
<polygon points="341.20,77.00 355.20,77.00 359.20,81.20 345.20,81.20" fill="#020617" opacity="0.18"/>
<polygon points="347.00,48.55 354.00,58.55 354.00,76.00 347.00,66.00" fill="#0c3425"/>
<polygon points="340.00,58.55 354.00,58.55 354.00,76.00 340.00,76.00" fill="#104531"/>
<polygon points="333.00,48.55 347.00,48.55 354.00,58.55 340.00,58.55" fill="#1d7c59" stroke="#022c22" stroke-width="0.52"/>
<polygon points="334.00,49.35 346.00,49.35 352.20,57.75 341.20,57.75" fill="#ecfeff" opacity="0.12"/>
<polygon points="341.12,49.15 352.80,54.75 352.80,56.35 341.12,49.31" fill="#50b5c2" opacity="0.30"/>
<polygon points="360.20,77.00 374.20,77.00 378.20,81.20 364.20,81.20" fill="#020617" opacity="0.11"/>
<polygon points="366.00,58.48 373.00,68.48 373.00,76.00 366.00,66.00" fill="#071f18"/>
<polygon points="359.00,68.48 373.00,68.48 373.00,76.00 359.00,76.00" fill="#0a2920"/>
<polygon points="352.00,58.48 366.00,58.48 373.00,68.48 359.00,68.48" fill="#124a3a" stroke="#022c22" stroke-width="0.52"/>
<polygon points="353.00,59.28 365.00,59.28 371.20,67.68 360.20,67.68" fill="#ecfeff" opacity="0.08"/>
<polygon points="360.12,59.08 371.80,64.68 371.80,66.28 360.12,59.24" fill="#40909a" opacity="0.22"/>
<polygon points="379.20,77.00 393.20,77.00 397.20,81.20 383.20,81.20" fill="#020617" opacity="0.11"/>
<polygon points="385.00,58.48 392.00,68.48 392.00,76.00 385.00,66.00" fill="#071f18"/>
<polygon points="378.00,68.48 392.00,68.48 392.00,76.00 378.00,76.00" fill="#0a2920"/>
<polygon points="371.00,58.48 385.00,58.48 392.00,68.48 378.00,68.48" fill="#124a3a" stroke="#022c22" stroke-width="0.52"/>
<polygon points="372.00,59.28 384.00,59.28 390.20,67.68 379.20,67.68" fill="#ecfeff" opacity="0.08"/>
<polygon points="379.12,59.08 390.80,64.68 390.80,66.28 379.12,59.24" fill="#40909a" opacity="0.22"/>
<polygon points="390.00,66.00 404.00,66.00 411.00,76.00 397.00,76.00" fill="#0b1020" stroke="#022c22" stroke-width="0.52"/>
<polygon points="417.20,77.00 431.20,77.00 435.20,81.20 421.20,81.20" fill="#020617" opacity="0.11"/>
<polygon points="423.00,58.48 430.00,68.48 430.00,76.00 423.00,66.00" fill="#071f18"/>
<polygon points="416.00,68.48 430.00,68.48 430.00,76.00 416.00,76.00" fill="#0a2920"/>
<polygon points="409.00,58.48 423.00,58.48 430.00,68.48 416.00,68.48" fill="#124a3a" stroke="#022c22" stroke-width="0.52"/>
<polygon points="410.00,59.28 422.00,59.28 428.20,67.68 417.20,67.68" fill="#ecfeff" opacity="0.08"/>
<polygon points="417.12,59.08 428.80,64.68 428.80,66.28 417.12,59.24" fill="#40909a" opacity="0.22"/>
<polygon points="428.00,66.00 442.00,66.00 449.00,76.00 435.00,76.00" fill="#0b1020" stroke="#022c22" stroke-width="0.52"/>
<polygon points="455.20,77.00 469.20,77.00 473.20,81.20 459.20,81.20" fill="#020617" opacity="0.11"/>
<polygon points="461.00,58.48 468.00,68.48 468.00,76.00 461.00,66.00" fill="#071f18"/>
<polygon points="454.00,68.48 468.00,68.48 468.00,76.00 454.00,76.00" fill="#0a2920"/>
<polygon points="447.00,58.48 461.00,58.48 468.00,68.48 454.00,68.48" fill="#124a3a" stroke="#022c22" stroke-width="0.52"/>
<polygon points="448.00,59.28 460.00,59.28 466.20,67.68 455.20,67.68" fill="#ecfeff" opacity="0.08"/>
<polygon points="455.12,59.08 466.80,64.68 466.80,66.28 455.12,59.24" fill="#40909a" opacity="0.22"/>
<polygon points="466.00,66.00 480.00,66.00 487.00,76.00 473.00,76.00" fill="#0b1020" stroke="#022c22" stroke-width="0.52"/>
<polygon points="485.00,66.00 499.00,66.00 506.00,76.00 492.00,76.00" fill="#0b1020" stroke="#022c22" stroke-width="0.52"/>
<polygon points="504.00,66.00 518.00,66.00 525.00,76.00 511.00,76.00" fill="#0b1020" stroke="#022c22" stroke-width="0.52"/>
<polygon points="523.00,66.00 537.00,66.00 544.00,76.00 530.00,76.00" fill="#0b1020" stroke="#022c22" stroke-width="0.52"/>
<polygon points="550.20,77.00 564.20,77.00 568.20,81.20 554.20,81.20" fill="#020617" opacity="0.11"/>
<polygon points="556.00,58.48 563.00,68.48 563.00,76.00 556.00,66.00" fill="#071f18"/>
<polygon points="549.00,68.48 563.00,68.48 563.00,76.00 549.00,76.00" fill="#0a2920"/>
<polygon points="542.00,58.48 556.00,58.48 563.00,68.48 549.00,68.48" fill="#124a3a" stroke="#022c22" stroke-width="0.52"/>
<polygon points="543.00,59.28 555.00,59.28 561.20,67.68 550.20,67.68" fill="#ecfeff" opacity="0.08"/>
<polygon points="550.12,59.08 561.80,64.68 561.80,66.28 550.12,59.24" fill="#40909a" opacity="0.22"/>
<polygon points="569.20,77.00 583.20,77.00 587.20,81.20 573.20,81.20" fill="#020617" opacity="0.18"/>
<polygon points="575.00,48.55 582.00,58.55 582.00,76.00 575.00,66.00" fill="#0c3425"/>
<polygon points="568.00,58.55 582.00,58.55 582.00,76.00 568.00,76.00" fill="#104531"/>
<polygon points="561.00,48.55 575.00,48.55 582.00,58.55 568.00,58.55" fill="#1d7c59" stroke="#022c22" stroke-width="0.52"/>
<polygon points="562.00,49.35 574.00,49.35 580.20,57.75 569.20,57.75" fill="#ecfeff" opacity="0.12"/>
<polygon points="569.12,49.15 580.80,54.75 580.80,56.35 569.12,49.31" fill="#50b5c2" opacity="0.30"/>
<polygon points="588.20,77.00 602.20,77.00 606.20,81.20 592.20,81.20" fill="#020617" opacity="0.11"/>
<polygon points="594.00,58.48 601.00,68.48 601.00,76.00 594.00,66.00" fill="#071f18"/>
<polygon points="587.00,68.48 601.00,68.48 601.00,76.00 587.00,76.00" fill="#0a2920"/>
<polygon points="580.00,58.48 594.00,58.48 601.00,68.48 587.00,68.48" fill="#124a3a" stroke="#022c22" stroke-width="0.52"/>
<polygon points="581.00,59.28 593.00,59.28 599.20,67.68 588.20,67.68" fill="#ecfeff" opacity="0.08"/>
<polygon points="588.12,59.08 599.80,64.68 599.80,66.28 588.12,59.24" fill="#40909a" opacity="0.22"/>
<polygon points="599.00,66.00 613.00,66.00 620.00,76.00 606.00,76.00" fill="#0b1020" stroke="#022c22" stroke-width="0.52"/>
<polygon points="618.00,66.00 632.00,66.00 639.00,76.00 625.00,76.00" fill="#0b1020" stroke="#022c22" stroke-width="0.52"/>
<polygon points="637.00,66.00 651.00,66.00 658.00,76.00 644.00,76.00" fill="#0b1020" stroke="#022c22" stroke-width="0.52"/>
<polygon points="656.00,66.00 670.00,66.00 677.00,76.00 663.00,76.00" fill="#0b1020" stroke="#022c22" stroke-width="0.52"/>
<polygon points="675.00,66.00 689.00,66.00 696.00,76.00 682.00,76.00" fill="#0b1020" stroke="#022c22" stroke-width="0.52"/>
<polygon points="694.00,66.00 708.00,66.00 715.00,76.00 701.00,76.00" fill="#0b1020" stroke="#022c22" stroke-width="0.52"/>
<polygon points="713.00,66.00 727.00,66.00 734.00,76.00 720.00,76.00" fill="#0b1020" stroke="#022c22" stroke-width="0.52"/>
<polygon points="732.00,66.00 746.00,66.00 753.00,76.00 739.00,76.00" fill="#0b1020" stroke="#022c22" stroke-width="0.52"/>
<polygon points="751.00,66.00 765.00,66.00 772.00,76.00 758.00,76.00" fill="#0b1020" stroke="#022c22" stroke-width="0.52"/>
<polygon points="770.00,66.00 784.00,66.00 791.00,76.00 777.00,76.00" fill="#0b1020" stroke="#022c22" stroke-width="0.52"/>
<polygon points="797.20,77.00 811.20,77.00 815.20,81.20 801.20,81.20" fill="#020617" opacity="0.11"/>
<polygon points="803.00,58.48 810.00,68.48 810.00,76.00 803.00,66.00" fill="#071f18"/>
<polygon points="796.00,68.48 810.00,68.48 810.00,76.00 796.00,76.00" fill="#0a2920"/>
<polygon points="789.00,58.48 803.00,58.48 810.00,68.48 796.00,68.48" fill="#124a3a" stroke="#022c22" stroke-width="0.52"/>
<polygon points="790.00,59.28 802.00,59.28 808.20,67.68 797.20,67.68" fill="#ecfeff" opacity="0.08"/>
<polygon points="797.12,59.08 808.80,64.68 808.80,66.28 797.12,59.24" fill="#40909a" opacity="0.22"/>
<polygon points="808.00,66.00 822.00,66.00 829.00,76.00 815.00,76.00" fill="#0b1020" stroke="#022c22" stroke-width="0.52"/>
<polygon points="835.20,77.00 849.20,77.00 853.20,81.20 839.20,81.20" fill="#020617" opacity="0.17"/>
<polygon points="841.00,50.97 848.00,60.97 848.00,76.00 841.00,66.00" fill="#0c3425"/>
<polygon points="834.00,60.97 848.00,60.97 848.00,76.00 834.00,76.00" fill="#104531"/>
<polygon points="827.00,50.97 841.00,50.97 848.00,60.97 834.00,60.97" fill="#1d7c59" stroke="#022c22" stroke-width="0.52"/>
<polygon points="828.00,51.77 840.00,51.77 846.20,60.17 835.20,60.17" fill="#ecfeff" opacity="0.11"/>
<polygon points="835.12,51.57 846.80,57.17 846.80,58.77 835.12,51.73" fill="#4cacb9" opacity="0.28"/>
<polygon points="854.20,77.00 868.20,77.00 872.20,81.20 858.20,81.20" fill="#020617" opacity="0.22"/>
<polygon points="860.00,43.45 867.00,53.45 867.00,76.00 860.00,66.00" fill="#154b33"/>
<polygon points="853.00,53.45 867.00,53.45 867.00,76.00 853.00,76.00" fill="#1d6444"/>
<polygon points="846.00,43.45 860.00,43.45 867.00,53.45 853.00,53.45" fill="#34b37a" stroke="#022c22" stroke-width="0.52"/>
<polygon points="847.00,44.25 859.00,44.25 865.20,52.65 854.20,52.65" fill="#ecfeff" opacity="0.14"/>
<polygon points="854.12,44.05 865.80,49.65 865.80,51.25 854.12,44.21" fill="#59c8d7" opacity="0.35"/>
<circle cx="856.50" cy="46.25" r="1.86" fill="#59c8d7" opacity="0.45" filter="url(#neonBlur)"/>
<polygon points="865.00,66.00 879.00,66.00 886.00,76.00 872.00,76.00" fill="#0b1020" stroke="#022c22" stroke-width="0.52"/>
<polygon points="892.20,77.00 906.20,77.00 910.20,81.20 896.20,81.20" fill="#020617" opacity="0.18"/>
<polygon points="898.00,48.55 905.00,58.55 905.00,76.00 898.00,66.00" fill="#0c3425"/>
<polygon points="891.00,58.55 905.00,58.55 905.00,76.00 891.00,76.00" fill="#104531"/>
<polygon points="884.00,48.55 898.00,48.55 905.00,58.55 891.00,58.55" fill="#1d7c59" stroke="#022c22" stroke-width="0.52"/>
<polygon points="885.00,49.35 897.00,49.35 903.20,57.75 892.20,57.75" fill="#ecfeff" opacity="0.12"/>
<polygon points="892.12,49.15 903.80,54.75 903.80,56.35 892.12,49.31" fill="#50b5c2" opacity="0.30"/>
<polygon points="911.20,77.00 925.20,77.00 929.20,81.20 915.20,81.20" fill="#020617" opacity="0.18"/>
<polygon points="917.00,48.55 924.00,58.55 924.00,76.00 917.00,66.00" fill="#0c3425"/>
<polygon points="910.00,58.55 924.00,58.55 924.00,76.00 910.00,76.00" fill="#104531"/>
<polygon points="903.00,48.55 917.00,48.55 924.00,58.55 910.00,58.55" fill="#1d7c59" stroke="#022c22" stroke-width="0.52"/>
<polygon points="904.00,49.35 916.00,49.35 922.20,57.75 911.20,57.75" fill="#ecfeff" opacity="0.12"/>
<polygon points="911.12,49.15 922.80,54.75 922.80,56.35 911.12,49.31" fill="#50b5c2" opacity="0.30"/>
<polygon points="930.20,77.00 944.20,77.00 948.20,81.20 934.20,81.20" fill="#020617" opacity="0.14"/>
<polygon points="936.00,54.09 943.00,64.09 943.00,76.00 936.00,66.00" fill="#071f18"/>
<polygon points="929.00,64.09 943.00,64.09 943.00,76.00 929.00,76.00" fill="#0a2920"/>
<polygon points="922.00,54.09 936.00,54.09 943.00,64.09 929.00,64.09" fill="#124a3a" stroke="#022c22" stroke-width="0.52"/>
<polygon points="923.00,54.89 935.00,54.89 941.20,63.29 930.20,63.29" fill="#ecfeff" opacity="0.10"/>
<polygon points="930.12,54.69 941.80,60.29 941.80,61.89 930.12,54.85" fill="#47a0ac" opacity="0.26"/>
<polygon points="949.20,77.00 963.20,77.00 967.20,81.20 953.20,81.20" fill="#020617" opacity="0.14"/>
<polygon points="955.00,54.09 962.00,64.09 962.00,76.00 955.00,66.00" fill="#071f18"/>
<polygon points="948.00,64.09 962.00,64.09 962.00,76.00 948.00,76.00" fill="#0a2920"/>
<polygon points="941.00,54.09 955.00,54.09 962.00,64.09 948.00,64.09" fill="#124a3a" stroke="#022c22" stroke-width="0.52"/>
<polygon points="942.00,54.89 954.00,54.89 960.20,63.29 949.20,63.29" fill="#ecfeff" opacity="0.10"/>
<polygon points="949.12,54.69 960.80,60.29 960.80,61.89 949.12,54.85" fill="#47a0ac" opacity="0.26"/>
<polygon points="960.00,66.00 974.00,66.00 981.00,76.00 967.00,76.00" fill="#0b1020" stroke="#022c22" stroke-width="0.52"/>
<polygon points="979.00,66.00 993.00,66.00 1000.00,76.00 986.00,76.00" fill="#0b1020" stroke="#022c22" stroke-width="0.52"/>
<polygon points="998.00,66.00 1012.00,66.00 1019.00,76.00 1005.00,76.00" fill="#0b1020" stroke="#022c22" stroke-width="0.52"/>
<polygon points="1017.00,66.00 1031.00,66.00 1038.00,76.00 1024.00,76.00" fill="#0b1020" stroke="#022c22" stroke-width="0.52"/>
<polygon points="36.00,76.00 50.00,76.00 57.00,86.00 43.00,86.00" fill="#0b1020" stroke="#022c22" stroke-width="0.52"/>
<polygon points="55.00,76.00 69.00,76.00 76.00,86.00 62.00,86.00" fill="#0b1020" stroke="#022c22" stroke-width="0.52"/>
<polygon points="74.00,76.00 88.00,76.00 95.00,86.00 81.00,86.00" fill="#0b1020" stroke="#022c22" stroke-width="0.52"/>
<polygon points="93.00,76.00 107.00,76.00 114.00,86.00 100.00,86.00" fill="#0b1020" stroke="#022c22" stroke-width="0.52"/>
<polygon points="112.00,76.00 126.00,76.00 133.00,86.00 119.00,86.00" fill="#0b1020" stroke="#022c22" stroke-width="0.52"/>
<polygon points="131.00,76.00 145.00,76.00 152.00,86.00 138.00,86.00" fill="#0b1020" stroke="#022c22" stroke-width="0.52"/>
<polygon points="150.00,76.00 164.00,76.00 171.00,86.00 157.00,86.00" fill="#0b1020" stroke="#022c22" stroke-width="0.52"/>
<polygon points="169.00,76.00 183.00,76.00 190.00,86.00 176.00,86.00" fill="#0b1020" stroke="#022c22" stroke-width="0.52"/>
<polygon points="188.00,76.00 202.00,76.00 209.00,86.00 195.00,86.00" fill="#0b1020" stroke="#022c22" stroke-width="0.52"/>
<polygon points="215.20,87.00 229.20,87.00 233.20,91.20 219.20,91.20" fill="#020617" opacity="0.24"/>
<polygon points="221.00,50.00 228.00,60.00 228.00,86.00 221.00,76.00" fill="#154b33"/>
<polygon points="214.00,60.00 228.00,60.00 228.00,86.00 214.00,86.00" fill="#1d6444"/>
<polygon points="207.00,50.00 221.00,50.00 228.00,60.00 214.00,60.00" fill="#34b37a" stroke="#022c22" stroke-width="0.52"/>
<polygon points="208.00,50.80 220.00,50.80 226.20,59.20 215.20,59.20" fill="#ecfeff" opacity="0.16"/>
<polygon points="215.12,50.60 226.80,56.20 226.80,57.80 215.12,50.76" fill="#5ed5e5" opacity="0.38"/>
<polygon points="226.00,76.00 240.00,76.00 247.00,86.00 233.00,86.00" fill="#0b1020" stroke="#022c22" stroke-width="0.52"/>
<polygon points="245.00,76.00 259.00,76.00 266.00,86.00 252.00,86.00" fill="#0b1020" stroke="#022c22" stroke-width="0.52"/>
<polygon points="272.20,87.00 286.20,87.00 290.20,91.20 276.20,91.20" fill="#020617" opacity="0.11"/>
<polygon points="278.00,68.48 285.00,78.48 285.00,86.00 278.00,76.00" fill="#071f18"/>
<polygon points="271.00,78.48 285.00,78.48 285.00,86.00 271.00,86.00" fill="#0a2920"/>
<polygon points="264.00,68.48 278.00,68.48 285.00,78.48 271.00,78.48" fill="#124a3a" stroke="#022c22" stroke-width="0.52"/>
<polygon points="265.00,69.28 277.00,69.28 283.20,77.68 272.20,77.68" fill="#ecfeff" opacity="0.08"/>
<polygon points="272.12,69.08 283.80,74.68 283.80,76.28 272.12,69.24" fill="#40909a" opacity="0.22"/>
<polygon points="283.00,76.00 297.00,76.00 304.00,86.00 290.00,86.00" fill="#0b1020" stroke="#022c22" stroke-width="0.52"/>
<polygon points="302.00,76.00 316.00,76.00 323.00,86.00 309.00,86.00" fill="#0b1020" stroke="#022c22" stroke-width="0.52"/>
<polygon points="329.20,87.00 343.20,87.00 347.20,91.20 333.20,91.20" fill="#020617" opacity="0.14"/>
<polygon points="335.00,64.09 342.00,74.09 342.00,86.00 335.00,76.00" fill="#071f18"/>
<polygon points="328.00,74.09 342.00,74.09 342.00,86.00 328.00,86.00" fill="#0a2920"/>
<polygon points="321.00,64.09 335.00,64.09 342.00,74.09 328.00,74.09" fill="#124a3a" stroke="#022c22" stroke-width="0.52"/>
<polygon points="322.00,64.89 334.00,64.89 340.20,73.29 329.20,73.29" fill="#ecfeff" opacity="0.10"/>
<polygon points="329.12,64.69 340.80,70.29 340.80,71.89 329.12,64.85" fill="#47a0ac" opacity="0.26"/>
<polygon points="340.00,76.00 354.00,76.00 361.00,86.00 347.00,86.00" fill="#0b1020" stroke="#022c22" stroke-width="0.52"/>
<polygon points="367.20,87.00 381.20,87.00 385.20,91.20 371.20,91.20" fill="#020617" opacity="0.11"/>
<polygon points="373.00,68.48 380.00,78.48 380.00,86.00 373.00,76.00" fill="#071f18"/>
<polygon points="366.00,78.48 380.00,78.48 380.00,86.00 366.00,86.00" fill="#0a2920"/>
<polygon points="359.00,68.48 373.00,68.48 380.00,78.48 366.00,78.48" fill="#124a3a" stroke="#022c22" stroke-width="0.52"/>
<polygon points="360.00,69.28 372.00,69.28 378.20,77.68 367.20,77.68" fill="#ecfeff" opacity="0.08"/>
<polygon points="367.12,69.08 378.80,74.68 378.80,76.28 367.12,69.24" fill="#40909a" opacity="0.22"/>
<polygon points="386.20,87.00 400.20,87.00 404.20,91.20 390.20,91.20" fill="#020617" opacity="0.14"/>
<polygon points="392.00,64.09 399.00,74.09 399.00,86.00 392.00,76.00" fill="#071f18"/>
<polygon points="385.00,74.09 399.00,74.09 399.00,86.00 385.00,86.00" fill="#0a2920"/>
<polygon points="378.00,64.09 392.00,64.09 399.00,74.09 385.00,74.09" fill="#124a3a" stroke="#022c22" stroke-width="0.52"/>
<polygon points="379.00,64.89 391.00,64.89 397.20,73.29 386.20,73.29" fill="#ecfeff" opacity="0.10"/>
<polygon points="386.12,64.69 397.80,70.29 397.80,71.89 386.12,64.85" fill="#47a0ac" opacity="0.26"/>
<polygon points="397.00,76.00 411.00,76.00 418.00,86.00 404.00,86.00" fill="#0b1020" stroke="#022c22" stroke-width="0.52"/>
<polygon points="416.00,76.00 430.00,76.00 437.00,86.00 423.00,86.00" fill="#0b1020" stroke="#022c22" stroke-width="0.52"/>
<polygon points="443.20,87.00 457.20,87.00 461.20,91.20 447.20,91.20" fill="#020617" opacity="0.11"/>
<polygon points="449.00,68.48 456.00,78.48 456.00,86.00 449.00,76.00" fill="#071f18"/>
<polygon points="442.00,78.48 456.00,78.48 456.00,86.00 442.00,86.00" fill="#0a2920"/>
<polygon points="435.00,68.48 449.00,68.48 456.00,78.48 442.00,78.48" fill="#124a3a" stroke="#022c22" stroke-width="0.52"/>
<polygon points="436.00,69.28 448.00,69.28 454.20,77.68 443.20,77.68" fill="#ecfeff" opacity="0.08"/>
<polygon points="443.12,69.08 454.80,74.68 454.80,76.28 443.12,69.24" fill="#40909a" opacity="0.22"/>
<polygon points="454.00,76.00 468.00,76.00 475.00,86.00 461.00,86.00" fill="#0b1020" stroke="#022c22" stroke-width="0.52"/>
<polygon points="473.00,76.00 487.00,76.00 494.00,86.00 480.00,86.00" fill="#0b1020" stroke="#022c22" stroke-width="0.52"/>
<polygon points="492.00,76.00 506.00,76.00 513.00,86.00 499.00,86.00" fill="#0b1020" stroke="#022c22" stroke-width="0.52"/>
<polygon points="511.00,76.00 525.00,76.00 532.00,86.00 518.00,86.00" fill="#0b1020" stroke="#022c22" stroke-width="0.52"/>
<polygon points="530.00,76.00 544.00,76.00 551.00,86.00 537.00,86.00" fill="#0b1020" stroke="#022c22" stroke-width="0.52"/>
<polygon points="557.20,87.00 571.20,87.00 575.20,91.20 561.20,91.20" fill="#020617" opacity="0.11"/>
<polygon points="563.00,68.48 570.00,78.48 570.00,86.00 563.00,76.00" fill="#071f18"/>
<polygon points="556.00,78.48 570.00,78.48 570.00,86.00 556.00,86.00" fill="#0a2920"/>
<polygon points="549.00,68.48 563.00,68.48 570.00,78.48 556.00,78.48" fill="#124a3a" stroke="#022c22" stroke-width="0.52"/>
<polygon points="550.00,69.28 562.00,69.28 568.20,77.68 557.20,77.68" fill="#ecfeff" opacity="0.08"/>
<polygon points="557.12,69.08 568.80,74.68 568.80,76.28 557.12,69.24" fill="#40909a" opacity="0.22"/>
<polygon points="568.00,76.00 582.00,76.00 589.00,86.00 575.00,86.00" fill="#0b1020" stroke="#022c22" stroke-width="0.52"/>
<polygon points="587.00,76.00 601.00,76.00 608.00,86.00 594.00,86.00" fill="#0b1020" stroke="#022c22" stroke-width="0.52"/>
<polygon points="606.00,76.00 620.00,76.00 627.00,86.00 613.00,86.00" fill="#0b1020" stroke="#022c22" stroke-width="0.52"/>
<polygon points="625.00,76.00 639.00,76.00 646.00,86.00 632.00,86.00" fill="#0b1020" stroke="#022c22" stroke-width="0.52"/>
<polygon points="644.00,76.00 658.00,76.00 665.00,86.00 651.00,86.00" fill="#0b1020" stroke="#022c22" stroke-width="0.52"/>
<polygon points="663.00,76.00 677.00,76.00 684.00,86.00 670.00,86.00" fill="#0b1020" stroke="#022c22" stroke-width="0.52"/>
<polygon points="682.00,76.00 696.00,76.00 703.00,86.00 689.00,86.00" fill="#0b1020" stroke="#022c22" stroke-width="0.52"/>
<polygon points="701.00,76.00 715.00,76.00 722.00,86.00 708.00,86.00" fill="#0b1020" stroke="#022c22" stroke-width="0.52"/>
<polygon points="720.00,76.00 734.00,76.00 741.00,86.00 727.00,86.00" fill="#0b1020" stroke="#022c22" stroke-width="0.52"/>
<polygon points="739.00,76.00 753.00,76.00 760.00,86.00 746.00,86.00" fill="#0b1020" stroke="#022c22" stroke-width="0.52"/>
<polygon points="758.00,76.00 772.00,76.00 779.00,86.00 765.00,86.00" fill="#0b1020" stroke="#022c22" stroke-width="0.52"/>
<polygon points="777.00,76.00 791.00,76.00 798.00,86.00 784.00,86.00" fill="#0b1020" stroke="#022c22" stroke-width="0.52"/>
<polygon points="804.20,87.00 818.20,87.00 822.20,91.20 808.20,91.20" fill="#020617" opacity="0.11"/>
<polygon points="810.00,68.48 817.00,78.48 817.00,86.00 810.00,76.00" fill="#071f18"/>
<polygon points="803.00,78.48 817.00,78.48 817.00,86.00 803.00,86.00" fill="#0a2920"/>
<polygon points="796.00,68.48 810.00,68.48 817.00,78.48 803.00,78.48" fill="#124a3a" stroke="#022c22" stroke-width="0.52"/>
<polygon points="797.00,69.28 809.00,69.28 815.20,77.68 804.20,77.68" fill="#ecfeff" opacity="0.08"/>
<polygon points="804.12,69.08 815.80,74.68 815.80,76.28 804.12,69.24" fill="#40909a" opacity="0.22"/>
<polygon points="823.20,87.00 837.20,87.00 841.20,91.20 827.20,91.20" fill="#020617" opacity="0.11"/>
<polygon points="829.00,68.48 836.00,78.48 836.00,86.00 829.00,76.00" fill="#071f18"/>
<polygon points="822.00,78.48 836.00,78.48 836.00,86.00 822.00,86.00" fill="#0a2920"/>
<polygon points="815.00,68.48 829.00,68.48 836.00,78.48 822.00,78.48" fill="#124a3a" stroke="#022c22" stroke-width="0.52"/>
<polygon points="816.00,69.28 828.00,69.28 834.20,77.68 823.20,77.68" fill="#ecfeff" opacity="0.08"/>
<polygon points="823.12,69.08 834.80,74.68 834.80,76.28 823.12,69.24" fill="#40909a" opacity="0.22"/>
<polygon points="842.20,87.00 856.20,87.00 860.20,91.20 846.20,91.20" fill="#020617" opacity="0.18"/>
<polygon points="848.00,58.55 855.00,68.55 855.00,86.00 848.00,76.00" fill="#0c3425"/>
<polygon points="841.00,68.55 855.00,68.55 855.00,86.00 841.00,86.00" fill="#104531"/>
<polygon points="834.00,58.55 848.00,58.55 855.00,68.55 841.00,68.55" fill="#1d7c59" stroke="#022c22" stroke-width="0.52"/>
<polygon points="835.00,59.35 847.00,59.35 853.20,67.75 842.20,67.75" fill="#ecfeff" opacity="0.12"/>
<polygon points="842.12,59.15 853.80,64.75 853.80,66.35 842.12,59.31" fill="#50b5c2" opacity="0.30"/>
<polygon points="853.00,76.00 867.00,76.00 874.00,86.00 860.00,86.00" fill="#0b1020" stroke="#022c22" stroke-width="0.52"/>
<polygon points="880.20,87.00 894.20,87.00 898.20,91.20 884.20,91.20" fill="#020617" opacity="0.18"/>
<polygon points="886.00,58.55 893.00,68.55 893.00,86.00 886.00,76.00" fill="#0c3425"/>
<polygon points="879.00,68.55 893.00,68.55 893.00,86.00 879.00,86.00" fill="#104531"/>
<polygon points="872.00,58.55 886.00,58.55 893.00,68.55 879.00,68.55" fill="#1d7c59" stroke="#022c22" stroke-width="0.52"/>
<polygon points="873.00,59.35 885.00,59.35 891.20,67.75 880.20,67.75" fill="#ecfeff" opacity="0.12"/>
<polygon points="880.12,59.15 891.80,64.75 891.80,66.35 880.12,59.31" fill="#50b5c2" opacity="0.30"/>
<polygon points="899.20,87.00 913.20,87.00 917.20,91.20 903.20,91.20" fill="#020617" opacity="0.18"/>
<polygon points="905.00,58.55 912.00,68.55 912.00,86.00 905.00,76.00" fill="#0c3425"/>
<polygon points="898.00,68.55 912.00,68.55 912.00,86.00 898.00,86.00" fill="#104531"/>
<polygon points="891.00,58.55 905.00,58.55 912.00,68.55 898.00,68.55" fill="#1d7c59" stroke="#022c22" stroke-width="0.52"/>
<polygon points="892.00,59.35 904.00,59.35 910.20,67.75 899.20,67.75" fill="#ecfeff" opacity="0.12"/>
<polygon points="899.12,59.15 910.80,64.75 910.80,66.35 899.12,59.31" fill="#50b5c2" opacity="0.30"/>
<polygon points="918.20,87.00 932.20,87.00 936.20,91.20 922.20,91.20" fill="#020617" opacity="0.18"/>
<polygon points="924.00,58.55 931.00,68.55 931.00,86.00 924.00,76.00" fill="#0c3425"/>
<polygon points="917.00,68.55 931.00,68.55 931.00,86.00 917.00,86.00" fill="#104531"/>
<polygon points="910.00,58.55 924.00,58.55 931.00,68.55 917.00,68.55" fill="#1d7c59" stroke="#022c22" stroke-width="0.52"/>
<polygon points="911.00,59.35 923.00,59.35 929.20,67.75 918.20,67.75" fill="#ecfeff" opacity="0.12"/>
<polygon points="918.12,59.15 929.80,64.75 929.80,66.35 918.12,59.31" fill="#50b5c2" opacity="0.30"/>
<polygon points="929.00,76.00 943.00,76.00 950.00,86.00 936.00,86.00" fill="#0b1020" stroke="#022c22" stroke-width="0.52"/>
<polygon points="948.00,76.00 962.00,76.00 969.00,86.00 955.00,86.00" fill="#0b1020" stroke="#022c22" stroke-width="0.52"/>
<polygon points="967.00,76.00 981.00,76.00 988.00,86.00 974.00,86.00" fill="#0b1020" stroke="#022c22" stroke-width="0.52"/>
<polygon points="986.00,76.00 1000.00,76.00 1007.00,86.00 993.00,86.00" fill="#0b1020" stroke="#022c22" stroke-width="0.52"/>
<polygon points="1005.00,76.00 1019.00,76.00 1026.00,86.00 1012.00,86.00" fill="#0b1020" stroke="#022c22" stroke-width="0.52"/>
<polygon points="1024.00,76.00 1038.00,76.00 1045.00,86.00 1031.00,86.00" fill="#0b1020" stroke="#022c22" stroke-width="0.52"/>
<polygon points="43.00,86.00 57.00,86.00 64.00,96.00 50.00,96.00" fill="#0b1020" stroke="#022c22" stroke-width="0.52"/>
<polygon points="62.00,86.00 76.00,86.00 83.00,96.00 69.00,96.00" fill="#0b1020" stroke="#022c22" stroke-width="0.52"/>
<polygon points="89.20,97.00 103.20,97.00 107.20,101.20 93.20,101.20" fill="#020617" opacity="0.22"/>
<polygon points="95.00,63.45 102.00,73.45 102.00,96.00 95.00,86.00" fill="#154b33"/>
<polygon points="88.00,73.45 102.00,73.45 102.00,96.00 88.00,96.00" fill="#1d6444"/>
<polygon points="81.00,63.45 95.00,63.45 102.00,73.45 88.00,73.45" fill="#34b37a" stroke="#022c22" stroke-width="0.52"/>
<polygon points="82.00,64.25 94.00,64.25 100.20,72.65 89.20,72.65" fill="#ecfeff" opacity="0.14"/>
<polygon points="89.12,64.05 100.80,69.65 100.80,71.25 89.12,64.21" fill="#59c8d7" opacity="0.35"/>
<polygon points="100.00,86.00 114.00,86.00 121.00,96.00 107.00,96.00" fill="#0b1020" stroke="#022c22" stroke-width="0.52"/>
<polygon points="119.00,86.00 133.00,86.00 140.00,96.00 126.00,96.00" fill="#0b1020" stroke="#022c22" stroke-width="0.52"/>
<polygon points="138.00,86.00 152.00,86.00 159.00,96.00 145.00,96.00" fill="#0b1020" stroke="#022c22" stroke-width="0.52"/>
<polygon points="157.00,86.00 171.00,86.00 178.00,96.00 164.00,96.00" fill="#0b1020" stroke="#022c22" stroke-width="0.52"/>
<polygon points="184.20,97.00 198.20,97.00 202.20,101.20 188.20,101.20" fill="#020617" opacity="0.14"/>
<polygon points="190.00,74.09 197.00,84.09 197.00,96.00 190.00,86.00" fill="#071f18"/>
<polygon points="183.00,84.09 197.00,84.09 197.00,96.00 183.00,96.00" fill="#0a2920"/>
<polygon points="176.00,74.09 190.00,74.09 197.00,84.09 183.00,84.09" fill="#124a3a" stroke="#022c22" stroke-width="0.52"/>
<polygon points="177.00,74.89 189.00,74.89 195.20,83.29 184.20,83.29" fill="#ecfeff" opacity="0.10"/>
<polygon points="184.12,74.69 195.80,80.29 195.80,81.89 184.12,74.85" fill="#47a0ac" opacity="0.26"/>
<polygon points="195.00,86.00 209.00,86.00 216.00,96.00 202.00,96.00" fill="#0b1020" stroke="#022c22" stroke-width="0.52"/>
<polygon points="222.20,97.00 236.20,97.00 240.20,101.20 226.20,101.20" fill="#020617" opacity="0.20"/>
<polygon points="228.00,66.57 235.00,76.57 235.00,96.00 228.00,86.00" fill="#0c3425"/>
<polygon points="221.00,76.57 235.00,76.57 235.00,96.00 221.00,96.00" fill="#104531"/>
<polygon points="214.00,66.57 228.00,66.57 235.00,76.57 221.00,76.57" fill="#1d7c59" stroke="#022c22" stroke-width="0.52"/>
<polygon points="215.00,67.37 227.00,67.37 233.20,75.77 222.20,75.77" fill="#ecfeff" opacity="0.13"/>
<polygon points="222.12,67.17 233.80,72.77 233.80,74.37 222.12,67.33" fill="#53bcca" opacity="0.32"/>
<polygon points="241.20,97.00 255.20,97.00 259.20,101.20 245.20,101.20" fill="#020617" opacity="0.11"/>
<polygon points="247.00,78.48 254.00,88.48 254.00,96.00 247.00,86.00" fill="#071f18"/>
<polygon points="240.00,88.48 254.00,88.48 254.00,96.00 240.00,96.00" fill="#0a2920"/>
<polygon points="233.00,78.48 247.00,78.48 254.00,88.48 240.00,88.48" fill="#124a3a" stroke="#022c22" stroke-width="0.52"/>
<polygon points="234.00,79.28 246.00,79.28 252.20,87.68 241.20,87.68" fill="#ecfeff" opacity="0.08"/>
<polygon points="241.12,79.08 252.80,84.68 252.80,86.28 241.12,79.24" fill="#40909a" opacity="0.22"/>
<polygon points="260.20,97.00 274.20,97.00 278.20,101.20 264.20,101.20" fill="#020617" opacity="0.11"/>
<polygon points="266.00,78.48 273.00,88.48 273.00,96.00 266.00,86.00" fill="#071f18"/>
<polygon points="259.00,88.48 273.00,88.48 273.00,96.00 259.00,96.00" fill="#0a2920"/>
<polygon points="252.00,78.48 266.00,78.48 273.00,88.48 259.00,88.48" fill="#124a3a" stroke="#022c22" stroke-width="0.52"/>
<polygon points="253.00,79.28 265.00,79.28 271.20,87.68 260.20,87.68" fill="#ecfeff" opacity="0.08"/>
<polygon points="260.12,79.08 271.80,84.68 271.80,86.28 260.12,79.24" fill="#40909a" opacity="0.22"/>
<polygon points="271.00,86.00 285.00,86.00 292.00,96.00 278.00,96.00" fill="#0b1020" stroke="#022c22" stroke-width="0.52"/>
<polygon points="298.20,97.00 312.20,97.00 316.20,101.20 302.20,101.20" fill="#020617" opacity="0.11"/>
<polygon points="304.00,78.48 311.00,88.48 311.00,96.00 304.00,86.00" fill="#071f18"/>
<polygon points="297.00,88.48 311.00,88.48 311.00,96.00 297.00,96.00" fill="#0a2920"/>
<polygon points="290.00,78.48 304.00,78.48 311.00,88.48 297.00,88.48" fill="#124a3a" stroke="#022c22" stroke-width="0.52"/>
<polygon points="291.00,79.28 303.00,79.28 309.20,87.68 298.20,87.68" fill="#ecfeff" opacity="0.08"/>
<polygon points="298.12,79.08 309.80,84.68 309.80,86.28 298.12,79.24" fill="#40909a" opacity="0.22"/>
<polygon points="309.00,86.00 323.00,86.00 330.00,96.00 316.00,96.00" fill="#0b1020" stroke="#022c22" stroke-width="0.52"/>
<polygon points="336.20,97.00 350.20,97.00 354.20,101.20 340.20,101.20" fill="#020617" opacity="0.11"/>
<polygon points="342.00,78.48 349.00,88.48 349.00,96.00 342.00,86.00" fill="#071f18"/>
<polygon points="335.00,88.48 349.00,88.48 349.00,96.00 335.00,96.00" fill="#0a2920"/>
<polygon points="328.00,78.48 342.00,78.48 349.00,88.48 335.00,88.48" fill="#124a3a" stroke="#022c22" stroke-width="0.52"/>
<polygon points="329.00,79.28 341.00,79.28 347.20,87.68 336.20,87.68" fill="#ecfeff" opacity="0.08"/>
<polygon points="336.12,79.08 347.80,84.68 347.80,86.28 336.12,79.24" fill="#40909a" opacity="0.22"/>
<polygon points="347.00,86.00 361.00,86.00 368.00,96.00 354.00,96.00" fill="#0b1020" stroke="#022c22" stroke-width="0.52"/>
<polygon points="374.20,97.00 388.20,97.00 392.20,101.20 378.20,101.20" fill="#020617" opacity="0.11"/>
<polygon points="380.00,78.48 387.00,88.48 387.00,96.00 380.00,86.00" fill="#071f18"/>
<polygon points="373.00,88.48 387.00,88.48 387.00,96.00 373.00,96.00" fill="#0a2920"/>
<polygon points="366.00,78.48 380.00,78.48 387.00,88.48 373.00,88.48" fill="#124a3a" stroke="#022c22" stroke-width="0.52"/>
<polygon points="367.00,79.28 379.00,79.28 385.20,87.68 374.20,87.68" fill="#ecfeff" opacity="0.08"/>
<polygon points="374.12,79.08 385.80,84.68 385.80,86.28 374.12,79.24" fill="#40909a" opacity="0.22"/>
<polygon points="385.00,86.00 399.00,86.00 406.00,96.00 392.00,96.00" fill="#0b1020" stroke="#022c22" stroke-width="0.52"/>
<polygon points="412.20,97.00 426.20,97.00 430.20,101.20 416.20,101.20" fill="#020617" opacity="0.11"/>
<polygon points="418.00,78.48 425.00,88.48 425.00,96.00 418.00,86.00" fill="#071f18"/>
<polygon points="411.00,88.48 425.00,88.48 425.00,96.00 411.00,96.00" fill="#0a2920"/>
<polygon points="404.00,78.48 418.00,78.48 425.00,88.48 411.00,88.48" fill="#124a3a" stroke="#022c22" stroke-width="0.52"/>
<polygon points="405.00,79.28 417.00,79.28 423.20,87.68 412.20,87.68" fill="#ecfeff" opacity="0.08"/>
<polygon points="412.12,79.08 423.80,84.68 423.80,86.28 412.12,79.24" fill="#40909a" opacity="0.22"/>
<polygon points="423.00,86.00 437.00,86.00 444.00,96.00 430.00,96.00" fill="#0b1020" stroke="#022c22" stroke-width="0.52"/>
<polygon points="450.20,97.00 464.20,97.00 468.20,101.20 454.20,101.20" fill="#020617" opacity="0.11"/>
<polygon points="456.00,78.48 463.00,88.48 463.00,96.00 456.00,86.00" fill="#071f18"/>
<polygon points="449.00,88.48 463.00,88.48 463.00,96.00 449.00,96.00" fill="#0a2920"/>
<polygon points="442.00,78.48 456.00,78.48 463.00,88.48 449.00,88.48" fill="#124a3a" stroke="#022c22" stroke-width="0.52"/>
<polygon points="443.00,79.28 455.00,79.28 461.20,87.68 450.20,87.68" fill="#ecfeff" opacity="0.08"/>
<polygon points="450.12,79.08 461.80,84.68 461.80,86.28 450.12,79.24" fill="#40909a" opacity="0.22"/>
<polygon points="461.00,86.00 475.00,86.00 482.00,96.00 468.00,96.00" fill="#0b1020" stroke="#022c22" stroke-width="0.52"/>
<polygon points="480.00,86.00 494.00,86.00 501.00,96.00 487.00,96.00" fill="#0b1020" stroke="#022c22" stroke-width="0.52"/>
<polygon points="499.00,86.00 513.00,86.00 520.00,96.00 506.00,96.00" fill="#0b1020" stroke="#022c22" stroke-width="0.52"/>
<polygon points="518.00,86.00 532.00,86.00 539.00,96.00 525.00,96.00" fill="#0b1020" stroke="#022c22" stroke-width="0.52"/>
<polygon points="537.00,86.00 551.00,86.00 558.00,96.00 544.00,96.00" fill="#0b1020" stroke="#022c22" stroke-width="0.52"/>
<polygon points="556.00,86.00 570.00,86.00 577.00,96.00 563.00,96.00" fill="#0b1020" stroke="#022c22" stroke-width="0.52"/>
<polygon points="575.00,86.00 589.00,86.00 596.00,96.00 582.00,96.00" fill="#0b1020" stroke="#022c22" stroke-width="0.52"/>
<polygon points="594.00,86.00 608.00,86.00 615.00,96.00 601.00,96.00" fill="#0b1020" stroke="#022c22" stroke-width="0.52"/>
<polygon points="613.00,86.00 627.00,86.00 634.00,96.00 620.00,96.00" fill="#0b1020" stroke="#022c22" stroke-width="0.52"/>
<polygon points="632.00,86.00 646.00,86.00 653.00,96.00 639.00,96.00" fill="#0b1020" stroke="#022c22" stroke-width="0.52"/>
<polygon points="651.00,86.00 665.00,86.00 672.00,96.00 658.00,96.00" fill="#0b1020" stroke="#022c22" stroke-width="0.52"/>
<polygon points="670.00,86.00 684.00,86.00 691.00,96.00 677.00,96.00" fill="#0b1020" stroke="#022c22" stroke-width="0.52"/>
<polygon points="689.00,86.00 703.00,86.00 710.00,96.00 696.00,96.00" fill="#0b1020" stroke="#022c22" stroke-width="0.52"/>
<polygon points="708.00,86.00 722.00,86.00 729.00,96.00 715.00,96.00" fill="#0b1020" stroke="#022c22" stroke-width="0.52"/>
<polygon points="727.00,86.00 741.00,86.00 748.00,96.00 734.00,96.00" fill="#0b1020" stroke="#022c22" stroke-width="0.52"/>
<polygon points="746.00,86.00 760.00,86.00 767.00,96.00 753.00,96.00" fill="#0b1020" stroke="#022c22" stroke-width="0.52"/>
<polygon points="773.20,97.00 787.20,97.00 791.20,101.20 777.20,101.20" fill="#020617" opacity="0.18"/>
<polygon points="779.00,68.55 786.00,78.55 786.00,96.00 779.00,86.00" fill="#0c3425"/>
<polygon points="772.00,78.55 786.00,78.55 786.00,96.00 772.00,96.00" fill="#104531"/>
<polygon points="765.00,68.55 779.00,68.55 786.00,78.55 772.00,78.55" fill="#1d7c59" stroke="#022c22" stroke-width="0.52"/>
<polygon points="766.00,69.35 778.00,69.35 784.20,77.75 773.20,77.75" fill="#ecfeff" opacity="0.12"/>
<polygon points="773.12,69.15 784.80,74.75 784.80,76.35 773.12,69.31" fill="#50b5c2" opacity="0.30"/>
<polygon points="792.20,97.00 806.20,97.00 810.20,101.20 796.20,101.20" fill="#020617" opacity="0.26"/>
<polygon points="798.00,56.64 805.00,66.64 805.00,96.00 798.00,86.00" fill="#154b33"/>
<polygon points="791.00,66.64 805.00,66.64 805.00,96.00 791.00,96.00" fill="#1d6444"/>
<polygon points="784.00,56.64 798.00,56.64 805.00,66.64 791.00,66.64" fill="#34b37a" stroke="#022c22" stroke-width="0.52"/>
<polygon points="785.00,57.44 797.00,57.44 803.20,65.84 792.20,65.84" fill="#ecfeff" opacity="0.17"/>
<polygon points="792.12,57.24 803.80,62.84 803.80,64.44 792.12,57.40" fill="#64e2f2" opacity="0.41"/>
<polygon points="803.00,86.00 817.00,86.00 824.00,96.00 810.00,96.00" fill="#0b1020" stroke="#022c22" stroke-width="0.52"/>
<polygon points="822.00,86.00 836.00,86.00 843.00,96.00 829.00,96.00" fill="#0b1020" stroke="#022c22" stroke-width="0.52"/>
<polygon points="841.00,86.00 855.00,86.00 862.00,96.00 848.00,96.00" fill="#0b1020" stroke="#022c22" stroke-width="0.52"/>
<polygon points="860.00,86.00 874.00,86.00 881.00,96.00 867.00,96.00" fill="#0b1020" stroke="#022c22" stroke-width="0.52"/>
<polygon points="887.20,97.00 901.20,97.00 905.20,101.20 891.20,101.20" fill="#020617" opacity="0.18"/>
<polygon points="893.00,68.55 900.00,78.55 900.00,96.00 893.00,86.00" fill="#0c3425"/>
<polygon points="886.00,78.55 900.00,78.55 900.00,96.00 886.00,96.00" fill="#104531"/>
<polygon points="879.00,68.55 893.00,68.55 900.00,78.55 886.00,78.55" fill="#1d7c59" stroke="#022c22" stroke-width="0.52"/>
<polygon points="880.00,69.35 892.00,69.35 898.20,77.75 887.20,77.75" fill="#ecfeff" opacity="0.12"/>
<polygon points="887.12,69.15 898.80,74.75 898.80,76.35 887.12,69.31" fill="#50b5c2" opacity="0.30"/>
<polygon points="906.20,97.00 920.20,97.00 924.20,101.20 910.20,101.20" fill="#020617" opacity="0.18"/>
<polygon points="912.00,68.55 919.00,78.55 919.00,96.00 912.00,86.00" fill="#0c3425"/>
<polygon points="905.00,78.55 919.00,78.55 919.00,96.00 905.00,96.00" fill="#104531"/>
<polygon points="898.00,68.55 912.00,68.55 919.00,78.55 905.00,78.55" fill="#1d7c59" stroke="#022c22" stroke-width="0.52"/>
<polygon points="899.00,69.35 911.00,69.35 917.20,77.75 906.20,77.75" fill="#ecfeff" opacity="0.12"/>
<polygon points="906.12,69.15 917.80,74.75 917.80,76.35 906.12,69.31" fill="#50b5c2" opacity="0.30"/>
<polygon points="925.20,97.00 939.20,97.00 943.20,101.20 929.20,101.20" fill="#020617" opacity="0.18"/>
<polygon points="931.00,68.55 938.00,78.55 938.00,96.00 931.00,86.00" fill="#0c3425"/>
<polygon points="924.00,78.55 938.00,78.55 938.00,96.00 924.00,96.00" fill="#104531"/>
<polygon points="917.00,68.55 931.00,68.55 938.00,78.55 924.00,78.55" fill="#1d7c59" stroke="#022c22" stroke-width="0.52"/>
<polygon points="918.00,69.35 930.00,69.35 936.20,77.75 925.20,77.75" fill="#ecfeff" opacity="0.12"/>
<polygon points="925.12,69.15 936.80,74.75 936.80,76.35 925.12,69.31" fill="#50b5c2" opacity="0.30"/>
<polygon points="936.00,86.00 950.00,86.00 957.00,96.00 943.00,96.00" fill="#0b1020" stroke="#022c22" stroke-width="0.52"/>
<polygon points="955.00,86.00 969.00,86.00 976.00,96.00 962.00,96.00" fill="#0b1020" stroke="#022c22" stroke-width="0.52"/>
<polygon points="974.00,86.00 988.00,86.00 995.00,96.00 981.00,96.00" fill="#0b1020" stroke="#022c22" stroke-width="0.52"/>
<polygon points="993.00,86.00 1007.00,86.00 1014.00,96.00 1000.00,96.00" fill="#0b1020" stroke="#022c22" stroke-width="0.52"/>
<polygon points="1012.00,86.00 1026.00,86.00 1033.00,96.00 1019.00,96.00" fill="#0b1020" stroke="#022c22" stroke-width="0.52"/>
<polygon points="1031.00,86.00 1045.00,86.00 1052.00,96.00 1038.00,96.00" fill="#0b1020" stroke="#022c22" stroke-width="0.52"/>
<polygon points="50.00,96.00 64.00,96.00 71.00,106.00 57.00,106.00" fill="#0b1020" stroke="#022c22" stroke-width="0.52"/>
<polygon points="77.20,107.00 91.20,107.00 95.20,111.20 81.20,111.20" fill="#020617" opacity="0.21"/>
<polygon points="83.00,74.90 90.00,84.90 90.00,106.00 83.00,96.00" fill="#0c3425"/>
<polygon points="76.00,84.90 90.00,84.90 90.00,106.00 76.00,106.00" fill="#104531"/>
<polygon points="69.00,74.90 83.00,74.90 90.00,84.90 76.00,84.90" fill="#1d7c59" stroke="#022c22" stroke-width="0.52"/>
<polygon points="70.00,75.70 82.00,75.70 88.20,84.10 77.20,84.10" fill="#ecfeff" opacity="0.14"/>
<polygon points="77.12,75.50 88.80,81.10 88.80,82.70 77.12,75.66" fill="#56c3d1" opacity="0.34"/>
<circle cx="79.50" cy="77.70" r="1.82" fill="#56c3d1" opacity="0.45" filter="url(#neonBlur)"/>
<polygon points="96.20,107.00 110.20,107.00 114.20,111.20 100.20,111.20" fill="#020617" opacity="0.24"/>
<polygon points="102.00,71.03 109.00,81.03 109.00,106.00 102.00,96.00" fill="#154b33"/>
<polygon points="95.00,81.03 109.00,81.03 109.00,106.00 95.00,106.00" fill="#1d6444"/>
<polygon points="88.00,71.03 102.00,71.03 109.00,81.03 95.00,81.03" fill="#34b37a" stroke="#022c22" stroke-width="0.52"/>
<polygon points="89.00,71.83 101.00,71.83 107.20,80.23 96.20,80.23" fill="#ecfeff" opacity="0.15"/>
<polygon points="96.12,71.63 107.80,77.23 107.80,78.83 96.12,71.79" fill="#5dd1e1" opacity="0.37"/>
<polygon points="107.00,96.00 121.00,96.00 128.00,106.00 114.00,106.00" fill="#0b1020" stroke="#022c22" stroke-width="0.52"/>
<polygon points="126.00,96.00 140.00,96.00 147.00,106.00 133.00,106.00" fill="#0b1020" stroke="#022c22" stroke-width="0.52"/>
<polygon points="145.00,96.00 159.00,96.00 166.00,106.00 152.00,106.00" fill="#0b1020" stroke="#022c22" stroke-width="0.52"/>
<polygon points="164.00,96.00 178.00,96.00 185.00,106.00 171.00,106.00" fill="#0b1020" stroke="#022c22" stroke-width="0.52"/>
<polygon points="183.00,96.00 197.00,96.00 204.00,106.00 190.00,106.00" fill="#0b1020" stroke="#022c22" stroke-width="0.52"/>
<polygon points="202.00,96.00 216.00,96.00 223.00,106.00 209.00,106.00" fill="#0b1020" stroke="#022c22" stroke-width="0.52"/>
<polygon points="229.20,107.00 243.20,107.00 247.20,111.20 233.20,111.20" fill="#020617" opacity="0.14"/>
<polygon points="235.00,84.09 242.00,94.09 242.00,106.00 235.00,96.00" fill="#071f18"/>
<polygon points="228.00,94.09 242.00,94.09 242.00,106.00 228.00,106.00" fill="#0a2920"/>
<polygon points="221.00,84.09 235.00,84.09 242.00,94.09 228.00,94.09" fill="#124a3a" stroke="#022c22" stroke-width="0.52"/>
<polygon points="222.00,84.89 234.00,84.89 240.20,93.29 229.20,93.29" fill="#ecfeff" opacity="0.10"/>
<polygon points="229.12,84.69 240.80,90.29 240.80,91.89 229.12,84.85" fill="#47a0ac" opacity="0.26"/>
<polygon points="240.00,96.00 254.00,96.00 261.00,106.00 247.00,106.00" fill="#0b1020" stroke="#022c22" stroke-width="0.52"/>
<polygon points="259.00,96.00 273.00,96.00 280.00,106.00 266.00,106.00" fill="#0b1020" stroke="#022c22" stroke-width="0.52"/>
<polygon points="278.00,96.00 292.00,96.00 299.00,106.00 285.00,106.00" fill="#0b1020" stroke="#022c22" stroke-width="0.52"/>
<polygon points="297.00,96.00 311.00,96.00 318.00,106.00 304.00,106.00" fill="#0b1020" stroke="#022c22" stroke-width="0.52"/>
<polygon points="316.00,96.00 330.00,96.00 337.00,106.00 323.00,106.00" fill="#0b1020" stroke="#022c22" stroke-width="0.52"/>
<polygon points="335.00,96.00 349.00,96.00 356.00,106.00 342.00,106.00" fill="#0b1020" stroke="#022c22" stroke-width="0.52"/>
<polygon points="354.00,96.00 368.00,96.00 375.00,106.00 361.00,106.00" fill="#0b1020" stroke="#022c22" stroke-width="0.52"/>
<polygon points="381.20,107.00 395.20,107.00 399.20,111.20 385.20,111.20" fill="#020617" opacity="0.14"/>
<polygon points="387.00,84.09 394.00,94.09 394.00,106.00 387.00,96.00" fill="#071f18"/>
<polygon points="380.00,94.09 394.00,94.09 394.00,106.00 380.00,106.00" fill="#0a2920"/>
<polygon points="373.00,84.09 387.00,84.09 394.00,94.09 380.00,94.09" fill="#124a3a" stroke="#022c22" stroke-width="0.52"/>
<polygon points="374.00,84.89 386.00,84.89 392.20,93.29 381.20,93.29" fill="#ecfeff" opacity="0.10"/>
<polygon points="381.12,84.69 392.80,90.29 392.80,91.89 381.12,84.85" fill="#47a0ac" opacity="0.26"/>
<polygon points="392.00,96.00 406.00,96.00 413.00,106.00 399.00,106.00" fill="#0b1020" stroke="#022c22" stroke-width="0.52"/>
<polygon points="419.20,107.00 433.20,107.00 437.20,111.20 423.20,111.20" fill="#020617" opacity="0.11"/>
<polygon points="425.00,88.48 432.00,98.48 432.00,106.00 425.00,96.00" fill="#071f18"/>
<polygon points="418.00,98.48 432.00,98.48 432.00,106.00 418.00,106.00" fill="#0a2920"/>
<polygon points="411.00,88.48 425.00,88.48 432.00,98.48 418.00,98.48" fill="#124a3a" stroke="#022c22" stroke-width="0.52"/>
<polygon points="412.00,89.28 424.00,89.28 430.20,97.68 419.20,97.68" fill="#ecfeff" opacity="0.08"/>
<polygon points="419.12,89.08 430.80,94.68 430.80,96.28 419.12,89.24" fill="#40909a" opacity="0.22"/>
<polygon points="430.00,96.00 444.00,96.00 451.00,106.00 437.00,106.00" fill="#0b1020" stroke="#022c22" stroke-width="0.52"/>
<polygon points="449.00,96.00 463.00,96.00 470.00,106.00 456.00,106.00" fill="#0b1020" stroke="#022c22" stroke-width="0.52"/>
<polygon points="476.20,107.00 490.20,107.00 494.20,111.20 480.20,111.20" fill="#020617" opacity="0.17"/>
<polygon points="482.00,80.97 489.00,90.97 489.00,106.00 482.00,96.00" fill="#0c3425"/>
<polygon points="475.00,90.97 489.00,90.97 489.00,106.00 475.00,106.00" fill="#104531"/>
<polygon points="468.00,80.97 482.00,80.97 489.00,90.97 475.00,90.97" fill="#1d7c59" stroke="#022c22" stroke-width="0.52"/>
<polygon points="469.00,81.77 481.00,81.77 487.20,90.17 476.20,90.17" fill="#ecfeff" opacity="0.11"/>
<polygon points="476.12,81.57 487.80,87.17 487.80,88.77 476.12,81.73" fill="#4cacb9" opacity="0.28"/>
<polygon points="487.00,96.00 501.00,96.00 508.00,106.00 494.00,106.00" fill="#0b1020" stroke="#022c22" stroke-width="0.52"/>
<polygon points="514.20,107.00 528.20,107.00 532.20,111.20 518.20,111.20" fill="#020617" opacity="0.11"/>
<polygon points="520.00,88.48 527.00,98.48 527.00,106.00 520.00,96.00" fill="#071f18"/>
<polygon points="513.00,98.48 527.00,98.48 527.00,106.00 513.00,106.00" fill="#0a2920"/>
<polygon points="506.00,88.48 520.00,88.48 527.00,98.48 513.00,98.48" fill="#124a3a" stroke="#022c22" stroke-width="0.52"/>
<polygon points="507.00,89.28 519.00,89.28 525.20,97.68 514.20,97.68" fill="#ecfeff" opacity="0.08"/>
<polygon points="514.12,89.08 525.80,94.68 525.80,96.28 514.12,89.24" fill="#40909a" opacity="0.22"/>
<polygon points="525.00,96.00 539.00,96.00 546.00,106.00 532.00,106.00" fill="#0b1020" stroke="#022c22" stroke-width="0.52"/>
<polygon points="544.00,96.00 558.00,96.00 565.00,106.00 551.00,106.00" fill="#0b1020" stroke="#022c22" stroke-width="0.52"/>
<polygon points="563.00,96.00 577.00,96.00 584.00,106.00 570.00,106.00" fill="#0b1020" stroke="#022c22" stroke-width="0.52"/>
<polygon points="582.00,96.00 596.00,96.00 603.00,106.00 589.00,106.00" fill="#0b1020" stroke="#022c22" stroke-width="0.52"/>
<polygon points="601.00,96.00 615.00,96.00 622.00,106.00 608.00,106.00" fill="#0b1020" stroke="#022c22" stroke-width="0.52"/>
<polygon points="620.00,96.00 634.00,96.00 641.00,106.00 627.00,106.00" fill="#0b1020" stroke="#022c22" stroke-width="0.52"/>
<polygon points="639.00,96.00 653.00,96.00 660.00,106.00 646.00,106.00" fill="#0b1020" stroke="#022c22" stroke-width="0.52"/>
<polygon points="666.20,107.00 680.20,107.00 684.20,111.20 670.20,111.20" fill="#020617" opacity="0.17"/>
<polygon points="672.00,80.97 679.00,90.97 679.00,106.00 672.00,96.00" fill="#0c3425"/>
<polygon points="665.00,90.97 679.00,90.97 679.00,106.00 665.00,106.00" fill="#104531"/>
<polygon points="658.00,80.97 672.00,80.97 679.00,90.97 665.00,90.97" fill="#1d7c59" stroke="#022c22" stroke-width="0.52"/>
<polygon points="659.00,81.77 671.00,81.77 677.20,90.17 666.20,90.17" fill="#ecfeff" opacity="0.11"/>
<polygon points="666.12,81.57 677.80,87.17 677.80,88.77 666.12,81.73" fill="#4cacb9" opacity="0.28"/>
<polygon points="677.00,96.00 691.00,96.00 698.00,106.00 684.00,106.00" fill="#0b1020" stroke="#022c22" stroke-width="0.52"/>
<polygon points="696.00,96.00 710.00,96.00 717.00,106.00 703.00,106.00" fill="#0b1020" stroke="#022c22" stroke-width="0.52"/>
<polygon points="715.00,96.00 729.00,96.00 736.00,106.00 722.00,106.00" fill="#0b1020" stroke="#022c22" stroke-width="0.52"/>
<polygon points="734.00,96.00 748.00,96.00 755.00,106.00 741.00,106.00" fill="#0b1020" stroke="#022c22" stroke-width="0.52"/>
<polygon points="753.00,96.00 767.00,96.00 774.00,106.00 760.00,106.00" fill="#0b1020" stroke="#022c22" stroke-width="0.52"/>
<polygon points="772.00,96.00 786.00,96.00 793.00,106.00 779.00,106.00" fill="#0b1020" stroke="#022c22" stroke-width="0.52"/>
<polygon points="799.20,107.00 813.20,107.00 817.20,111.20 803.20,111.20" fill="#020617" opacity="0.11"/>
<polygon points="805.00,88.48 812.00,98.48 812.00,106.00 805.00,96.00" fill="#071f18"/>
<polygon points="798.00,98.48 812.00,98.48 812.00,106.00 798.00,106.00" fill="#0a2920"/>
<polygon points="791.00,88.48 805.00,88.48 812.00,98.48 798.00,98.48" fill="#124a3a" stroke="#022c22" stroke-width="0.52"/>
<polygon points="792.00,89.28 804.00,89.28 810.20,97.68 799.20,97.68" fill="#ecfeff" opacity="0.08"/>
<polygon points="799.12,89.08 810.80,94.68 810.80,96.28 799.12,89.24" fill="#40909a" opacity="0.22"/>
<polygon points="810.00,96.00 824.00,96.00 831.00,106.00 817.00,106.00" fill="#0b1020" stroke="#022c22" stroke-width="0.52"/>
<polygon points="829.00,96.00 843.00,96.00 850.00,106.00 836.00,106.00" fill="#0b1020" stroke="#022c22" stroke-width="0.52"/>
<polygon points="848.00,96.00 862.00,96.00 869.00,106.00 855.00,106.00" fill="#0b1020" stroke="#022c22" stroke-width="0.52"/>
<polygon points="875.20,107.00 889.20,107.00 893.20,111.20 879.20,111.20" fill="#020617" opacity="0.24"/>
<polygon points="881.00,71.03 888.00,81.03 888.00,106.00 881.00,96.00" fill="#154b33"/>
<polygon points="874.00,81.03 888.00,81.03 888.00,106.00 874.00,106.00" fill="#1d6444"/>
<polygon points="867.00,71.03 881.00,71.03 888.00,81.03 874.00,81.03" fill="#34b37a" stroke="#022c22" stroke-width="0.52"/>
<polygon points="868.00,71.83 880.00,71.83 886.20,80.23 875.20,80.23" fill="#ecfeff" opacity="0.15"/>
<polygon points="875.12,71.63 886.80,77.23 886.80,78.83 875.12,71.79" fill="#5dd1e1" opacity="0.37"/>
<polygon points="894.20,107.00 908.20,107.00 912.20,111.20 898.20,111.20" fill="#020617" opacity="0.18"/>
<polygon points="900.00,78.55 907.00,88.55 907.00,106.00 900.00,96.00" fill="#0c3425"/>
<polygon points="893.00,88.55 907.00,88.55 907.00,106.00 893.00,106.00" fill="#104531"/>
<polygon points="886.00,78.55 900.00,78.55 907.00,88.55 893.00,88.55" fill="#1d7c59" stroke="#022c22" stroke-width="0.52"/>
<polygon points="887.00,79.35 899.00,79.35 905.20,87.75 894.20,87.75" fill="#ecfeff" opacity="0.12"/>
<polygon points="894.12,79.15 905.80,84.75 905.80,86.35 894.12,79.31" fill="#50b5c2" opacity="0.30"/>
<polygon points="913.20,107.00 927.20,107.00 931.20,111.20 917.20,111.20" fill="#020617" opacity="0.18"/>
<polygon points="919.00,78.55 926.00,88.55 926.00,106.00 919.00,96.00" fill="#0c3425"/>
<polygon points="912.00,88.55 926.00,88.55 926.00,106.00 912.00,106.00" fill="#104531"/>
<polygon points="905.00,78.55 919.00,78.55 926.00,88.55 912.00,88.55" fill="#1d7c59" stroke="#022c22" stroke-width="0.52"/>
<polygon points="906.00,79.35 918.00,79.35 924.20,87.75 913.20,87.75" fill="#ecfeff" opacity="0.12"/>
<polygon points="913.12,79.15 924.80,84.75 924.80,86.35 913.12,79.31" fill="#50b5c2" opacity="0.30"/>
<polygon points="932.20,107.00 946.20,107.00 950.20,111.20 936.20,111.20" fill="#020617" opacity="0.18"/>
<polygon points="938.00,78.55 945.00,88.55 945.00,106.00 938.00,96.00" fill="#0c3425"/>
<polygon points="931.00,88.55 945.00,88.55 945.00,106.00 931.00,106.00" fill="#104531"/>
<polygon points="924.00,78.55 938.00,78.55 945.00,88.55 931.00,88.55" fill="#1d7c59" stroke="#022c22" stroke-width="0.52"/>
<polygon points="925.00,79.35 937.00,79.35 943.20,87.75 932.20,87.75" fill="#ecfeff" opacity="0.12"/>
<polygon points="932.12,79.15 943.80,84.75 943.80,86.35 932.12,79.31" fill="#50b5c2" opacity="0.30"/>
<polygon points="951.20,107.00 965.20,107.00 969.20,111.20 955.20,111.20" fill="#020617" opacity="0.18"/>
<polygon points="957.00,78.55 964.00,88.55 964.00,106.00 957.00,96.00" fill="#0c3425"/>
<polygon points="950.00,88.55 964.00,88.55 964.00,106.00 950.00,106.00" fill="#104531"/>
<polygon points="943.00,78.55 957.00,78.55 964.00,88.55 950.00,88.55" fill="#1d7c59" stroke="#022c22" stroke-width="0.52"/>
<polygon points="944.00,79.35 956.00,79.35 962.20,87.75 951.20,87.75" fill="#ecfeff" opacity="0.12"/>
<polygon points="951.12,79.15 962.80,84.75 962.80,86.35 951.12,79.31" fill="#50b5c2" opacity="0.30"/>
<polygon points="962.00,96.00 976.00,96.00 983.00,106.00 969.00,106.00" fill="#0b1020" stroke="#022c22" stroke-width="0.52"/>
<polygon points="981.00,96.00 995.00,96.00 1002.00,106.00 988.00,106.00" fill="#0b1020" stroke="#022c22" stroke-width="0.52"/>
<polygon points="1008.20,107.00 1022.20,107.00 1026.20,111.20 1012.20,111.20" fill="#020617" opacity="0.14"/>
<polygon points="1014.00,84.09 1021.00,94.09 1021.00,106.00 1014.00,96.00" fill="#071f18"/>
<polygon points="1007.00,94.09 1021.00,94.09 1021.00,106.00 1007.00,106.00" fill="#0a2920"/>
<polygon points="1000.00,84.09 1014.00,84.09 1021.00,94.09 1007.00,94.09" fill="#124a3a" stroke="#022c22" stroke-width="0.52"/>
<polygon points="1001.00,84.89 1013.00,84.89 1019.20,93.29 1008.20,93.29" fill="#ecfeff" opacity="0.10"/>
<polygon points="1008.12,84.69 1019.80,90.29 1019.80,91.89 1008.12,84.85" fill="#47a0ac" opacity="0.26"/>
<polygon points="1019.00,96.00 1033.00,96.00 1040.00,106.00 1026.00,106.00" fill="#0b1020" stroke="#022c22" stroke-width="0.52"/>
<polygon points="1038.00,96.00 1052.00,96.00 1059.00,106.00 1045.00,106.00" fill="#0b1020" stroke="#022c22" stroke-width="0.52"/>
<polygon points="57.00,106.00 71.00,106.00 78.00,116.00 64.00,116.00" fill="#0b1020" stroke="#022c22" stroke-width="0.52"/>
<polygon points="76.00,106.00 90.00,106.00 97.00,116.00 83.00,116.00" fill="#0b1020" stroke="#022c22" stroke-width="0.52"/>
<polygon points="103.20,117.00 117.20,117.00 121.20,121.20 107.20,121.20" fill="#020617" opacity="0.11"/>
<polygon points="109.00,98.48 116.00,108.48 116.00,116.00 109.00,106.00" fill="#071f18"/>
<polygon points="102.00,108.48 116.00,108.48 116.00,116.00 102.00,116.00" fill="#0a2920"/>
<polygon points="95.00,98.48 109.00,98.48 116.00,108.48 102.00,108.48" fill="#124a3a" stroke="#022c22" stroke-width="0.52"/>
<polygon points="96.00,99.28 108.00,99.28 114.20,107.68 103.20,107.68" fill="#ecfeff" opacity="0.08"/>
<polygon points="103.12,99.08 114.80,104.68 114.80,106.28 103.12,99.24" fill="#40909a" opacity="0.22"/>
<polygon points="114.00,106.00 128.00,106.00 135.00,116.00 121.00,116.00" fill="#0b1020" stroke="#022c22" stroke-width="0.52"/>
<polygon points="133.00,106.00 147.00,106.00 154.00,116.00 140.00,116.00" fill="#0b1020" stroke="#022c22" stroke-width="0.52"/>
<polygon points="152.00,106.00 166.00,106.00 173.00,116.00 159.00,116.00" fill="#0b1020" stroke="#022c22" stroke-width="0.52"/>
<polygon points="171.00,106.00 185.00,106.00 192.00,116.00 178.00,116.00" fill="#0b1020" stroke="#022c22" stroke-width="0.52"/>
<polygon points="190.00,106.00 204.00,106.00 211.00,116.00 197.00,116.00" fill="#0b1020" stroke="#022c22" stroke-width="0.52"/>
<polygon points="209.00,106.00 223.00,106.00 230.00,116.00 216.00,116.00" fill="#0b1020" stroke="#022c22" stroke-width="0.52"/>
<polygon points="236.20,117.00 250.20,117.00 254.20,121.20 240.20,121.20" fill="#020617" opacity="0.11"/>
<polygon points="242.00,98.48 249.00,108.48 249.00,116.00 242.00,106.00" fill="#071f18"/>
<polygon points="235.00,108.48 249.00,108.48 249.00,116.00 235.00,116.00" fill="#0a2920"/>
<polygon points="228.00,98.48 242.00,98.48 249.00,108.48 235.00,108.48" fill="#124a3a" stroke="#022c22" stroke-width="0.52"/>
<polygon points="229.00,99.28 241.00,99.28 247.20,107.68 236.20,107.68" fill="#ecfeff" opacity="0.08"/>
<polygon points="236.12,99.08 247.80,104.68 247.80,106.28 236.12,99.24" fill="#40909a" opacity="0.22"/>
<polygon points="247.00,106.00 261.00,106.00 268.00,116.00 254.00,116.00" fill="#0b1020" stroke="#022c22" stroke-width="0.52"/>
<polygon points="266.00,106.00 280.00,106.00 287.00,116.00 273.00,116.00" fill="#0b1020" stroke="#022c22" stroke-width="0.52"/>
<polygon points="293.20,117.00 307.20,117.00 311.20,121.20 297.20,121.20" fill="#020617" opacity="0.11"/>
<polygon points="299.00,98.48 306.00,108.48 306.00,116.00 299.00,106.00" fill="#071f18"/>
<polygon points="292.00,108.48 306.00,108.48 306.00,116.00 292.00,116.00" fill="#0a2920"/>
<polygon points="285.00,98.48 299.00,98.48 306.00,108.48 292.00,108.48" fill="#124a3a" stroke="#022c22" stroke-width="0.52"/>
<polygon points="286.00,99.28 298.00,99.28 304.20,107.68 293.20,107.68" fill="#ecfeff" opacity="0.08"/>
<polygon points="293.12,99.08 304.80,104.68 304.80,106.28 293.12,99.24" fill="#40909a" opacity="0.22"/>
<polygon points="304.00,106.00 318.00,106.00 325.00,116.00 311.00,116.00" fill="#0b1020" stroke="#022c22" stroke-width="0.52"/>
<polygon points="323.00,106.00 337.00,106.00 344.00,116.00 330.00,116.00" fill="#0b1020" stroke="#022c22" stroke-width="0.52"/>
<polygon points="350.20,117.00 364.20,117.00 368.20,121.20 354.20,121.20" fill="#020617" opacity="0.20"/>
<polygon points="356.00,86.57 363.00,96.57 363.00,116.00 356.00,106.00" fill="#0c3425"/>
<polygon points="349.00,96.57 363.00,96.57 363.00,116.00 349.00,116.00" fill="#104531"/>
<polygon points="342.00,86.57 356.00,86.57 363.00,96.57 349.00,96.57" fill="#1d7c59" stroke="#022c22" stroke-width="0.52"/>
<polygon points="343.00,87.37 355.00,87.37 361.20,95.77 350.20,95.77" fill="#ecfeff" opacity="0.13"/>
<polygon points="350.12,87.17 361.80,92.77 361.80,94.37 350.12,87.33" fill="#53bcca" opacity="0.32"/>
<polygon points="369.20,117.00 383.20,117.00 387.20,121.20 373.20,121.20" fill="#020617" opacity="0.14"/>
<polygon points="375.00,94.09 382.00,104.09 382.00,116.00 375.00,106.00" fill="#071f18"/>
<polygon points="368.00,104.09 382.00,104.09 382.00,116.00 368.00,116.00" fill="#0a2920"/>
<polygon points="361.00,94.09 375.00,94.09 382.00,104.09 368.00,104.09" fill="#124a3a" stroke="#022c22" stroke-width="0.52"/>
<polygon points="362.00,94.89 374.00,94.89 380.20,103.29 369.20,103.29" fill="#ecfeff" opacity="0.10"/>
<polygon points="369.12,94.69 380.80,100.29 380.80,101.89 369.12,94.85" fill="#47a0ac" opacity="0.26"/>
<polygon points="388.20,117.00 402.20,117.00 406.20,121.20 392.20,121.20" fill="#020617" opacity="0.11"/>
<polygon points="394.00,98.48 401.00,108.48 401.00,116.00 394.00,106.00" fill="#071f18"/>
<polygon points="387.00,108.48 401.00,108.48 401.00,116.00 387.00,116.00" fill="#0a2920"/>
<polygon points="380.00,98.48 394.00,98.48 401.00,108.48 387.00,108.48" fill="#124a3a" stroke="#022c22" stroke-width="0.52"/>
<polygon points="381.00,99.28 393.00,99.28 399.20,107.68 388.20,107.68" fill="#ecfeff" opacity="0.08"/>
<polygon points="388.12,99.08 399.80,104.68 399.80,106.28 388.12,99.24" fill="#40909a" opacity="0.22"/>
<polygon points="399.00,106.00 413.00,106.00 420.00,116.00 406.00,116.00" fill="#0b1020" stroke="#022c22" stroke-width="0.52"/>
<polygon points="418.00,106.00 432.00,106.00 439.00,116.00 425.00,116.00" fill="#0b1020" stroke="#022c22" stroke-width="0.52"/>
<polygon points="437.00,106.00 451.00,106.00 458.00,116.00 444.00,116.00" fill="#0b1020" stroke="#022c22" stroke-width="0.52"/>
<polygon points="456.00,106.00 470.00,106.00 477.00,116.00 463.00,116.00" fill="#0b1020" stroke="#022c22" stroke-width="0.52"/>
<polygon points="475.00,106.00 489.00,106.00 496.00,116.00 482.00,116.00" fill="#0b1020" stroke="#022c22" stroke-width="0.52"/>
<polygon points="494.00,106.00 508.00,106.00 515.00,116.00 501.00,116.00" fill="#0b1020" stroke="#022c22" stroke-width="0.52"/>
<polygon points="513.00,106.00 527.00,106.00 534.00,116.00 520.00,116.00" fill="#0b1020" stroke="#022c22" stroke-width="0.52"/>
<polygon points="532.00,106.00 546.00,106.00 553.00,116.00 539.00,116.00" fill="#0b1020" stroke="#022c22" stroke-width="0.52"/>
<polygon points="551.00,106.00 565.00,106.00 572.00,116.00 558.00,116.00" fill="#0b1020" stroke="#022c22" stroke-width="0.52"/>
<polygon points="570.00,106.00 584.00,106.00 591.00,116.00 577.00,116.00" fill="#0b1020" stroke="#022c22" stroke-width="0.52"/>
<polygon points="597.20,117.00 611.20,117.00 615.20,121.20 601.20,121.20" fill="#020617" opacity="0.14"/>
<polygon points="603.00,94.09 610.00,104.09 610.00,116.00 603.00,106.00" fill="#071f18"/>
<polygon points="596.00,104.09 610.00,104.09 610.00,116.00 596.00,116.00" fill="#0a2920"/>
<polygon points="589.00,94.09 603.00,94.09 610.00,104.09 596.00,104.09" fill="#124a3a" stroke="#022c22" stroke-width="0.52"/>
<polygon points="590.00,94.89 602.00,94.89 608.20,103.29 597.20,103.29" fill="#ecfeff" opacity="0.10"/>
<polygon points="597.12,94.69 608.80,100.29 608.80,101.89 597.12,94.85" fill="#47a0ac" opacity="0.26"/>
<polygon points="616.20,117.00 630.20,117.00 634.20,121.20 620.20,121.20" fill="#020617" opacity="0.11"/>
<polygon points="622.00,98.48 629.00,108.48 629.00,116.00 622.00,106.00" fill="#071f18"/>
<polygon points="615.00,108.48 629.00,108.48 629.00,116.00 615.00,116.00" fill="#0a2920"/>
<polygon points="608.00,98.48 622.00,98.48 629.00,108.48 615.00,108.48" fill="#124a3a" stroke="#022c22" stroke-width="0.52"/>
<polygon points="609.00,99.28 621.00,99.28 627.20,107.68 616.20,107.68" fill="#ecfeff" opacity="0.08"/>
<polygon points="616.12,99.08 627.80,104.68 627.80,106.28 616.12,99.24" fill="#40909a" opacity="0.22"/>
<polygon points="627.00,106.00 641.00,106.00 648.00,116.00 634.00,116.00" fill="#0b1020" stroke="#022c22" stroke-width="0.52"/>
<polygon points="646.00,106.00 660.00,106.00 667.00,116.00 653.00,116.00" fill="#0b1020" stroke="#022c22" stroke-width="0.52"/>
<polygon points="665.00,106.00 679.00,106.00 686.00,116.00 672.00,116.00" fill="#0b1020" stroke="#022c22" stroke-width="0.52"/>
<polygon points="684.00,106.00 698.00,106.00 705.00,116.00 691.00,116.00" fill="#0b1020" stroke="#022c22" stroke-width="0.52"/>
<polygon points="703.00,106.00 717.00,106.00 724.00,116.00 710.00,116.00" fill="#0b1020" stroke="#022c22" stroke-width="0.52"/>
<polygon points="722.00,106.00 736.00,106.00 743.00,116.00 729.00,116.00" fill="#0b1020" stroke="#022c22" stroke-width="0.52"/>
<polygon points="741.00,106.00 755.00,106.00 762.00,116.00 748.00,116.00" fill="#0b1020" stroke="#022c22" stroke-width="0.52"/>
<polygon points="760.00,106.00 774.00,106.00 781.00,116.00 767.00,116.00" fill="#0b1020" stroke="#022c22" stroke-width="0.52"/>
<polygon points="779.00,106.00 793.00,106.00 800.00,116.00 786.00,116.00" fill="#0b1020" stroke="#022c22" stroke-width="0.52"/>
<polygon points="798.00,106.00 812.00,106.00 819.00,116.00 805.00,116.00" fill="#0b1020" stroke="#022c22" stroke-width="0.52"/>
<polygon points="825.20,117.00 839.20,117.00 843.20,121.20 829.20,121.20" fill="#020617" opacity="0.11"/>
<polygon points="831.00,98.48 838.00,108.48 838.00,116.00 831.00,106.00" fill="#071f18"/>
<polygon points="824.00,108.48 838.00,108.48 838.00,116.00 824.00,116.00" fill="#0a2920"/>
<polygon points="817.00,98.48 831.00,98.48 838.00,108.48 824.00,108.48" fill="#124a3a" stroke="#022c22" stroke-width="0.52"/>
<polygon points="818.00,99.28 830.00,99.28 836.20,107.68 825.20,107.68" fill="#ecfeff" opacity="0.08"/>
<polygon points="825.12,99.08 836.80,104.68 836.80,106.28 825.12,99.24" fill="#40909a" opacity="0.22"/>
<polygon points="844.20,117.00 858.20,117.00 862.20,121.20 848.20,121.20" fill="#020617" opacity="0.26"/>
<polygon points="850.00,72.00 857.00,82.00 857.00,116.00 850.00,106.00" fill="#39664a"/>
<polygon points="843.00,82.00 857.00,82.00 857.00,116.00 843.00,116.00" fill="#4d8963"/>
<polygon points="836.00,72.00 850.00,72.00 857.00,82.00 843.00,82.00" fill="#8af5b2" stroke="#022c22" stroke-width="0.52"/>
<polygon points="837.00,72.80 849.00,72.80 855.20,81.20 844.20,81.20" fill="#ecfeff" opacity="0.19"/>
<polygon points="844.12,72.60 855.80,78.20 855.80,79.80 844.12,72.76" fill="#6cf3ff" opacity="0.45"/>
<polygon points="863.20,117.00 877.20,117.00 881.20,121.20 867.20,121.20" fill="#020617" opacity="0.21"/>
<polygon points="869.00,84.90 876.00,94.90 876.00,116.00 869.00,106.00" fill="#0c3425"/>
<polygon points="862.00,94.90 876.00,94.90 876.00,116.00 862.00,116.00" fill="#104531"/>
<polygon points="855.00,84.90 869.00,84.90 876.00,94.90 862.00,94.90" fill="#1d7c59" stroke="#022c22" stroke-width="0.52"/>
<polygon points="856.00,85.70 868.00,85.70 874.20,94.10 863.20,94.10" fill="#ecfeff" opacity="0.14"/>
<polygon points="863.12,85.50 874.80,91.10 874.80,92.70 863.12,85.66" fill="#56c3d1" opacity="0.34"/>
<polygon points="874.00,106.00 888.00,106.00 895.00,116.00 881.00,116.00" fill="#0b1020" stroke="#022c22" stroke-width="0.52"/>
<polygon points="901.20,117.00 915.20,117.00 919.20,121.20 905.20,121.20" fill="#020617" opacity="0.18"/>
<polygon points="907.00,88.55 914.00,98.55 914.00,116.00 907.00,106.00" fill="#0c3425"/>
<polygon points="900.00,98.55 914.00,98.55 914.00,116.00 900.00,116.00" fill="#104531"/>
<polygon points="893.00,88.55 907.00,88.55 914.00,98.55 900.00,98.55" fill="#1d7c59" stroke="#022c22" stroke-width="0.52"/>
<polygon points="894.00,89.35 906.00,89.35 912.20,97.75 901.20,97.75" fill="#ecfeff" opacity="0.12"/>
<polygon points="901.12,89.15 912.80,94.75 912.80,96.35 901.12,89.31" fill="#50b5c2" opacity="0.30"/>
<polygon points="920.20,117.00 934.20,117.00 938.20,121.20 924.20,121.20" fill="#020617" opacity="0.18"/>
<polygon points="926.00,88.55 933.00,98.55 933.00,116.00 926.00,106.00" fill="#0c3425"/>
<polygon points="919.00,98.55 933.00,98.55 933.00,116.00 919.00,116.00" fill="#104531"/>
<polygon points="912.00,88.55 926.00,88.55 933.00,98.55 919.00,98.55" fill="#1d7c59" stroke="#022c22" stroke-width="0.52"/>
<polygon points="913.00,89.35 925.00,89.35 931.20,97.75 920.20,97.75" fill="#ecfeff" opacity="0.12"/>
<polygon points="920.12,89.15 931.80,94.75 931.80,96.35 920.12,89.31" fill="#50b5c2" opacity="0.30"/>
<polygon points="939.20,117.00 953.20,117.00 957.20,121.20 943.20,121.20" fill="#020617" opacity="0.18"/>
<polygon points="945.00,88.55 952.00,98.55 952.00,116.00 945.00,106.00" fill="#0c3425"/>
<polygon points="938.00,98.55 952.00,98.55 952.00,116.00 938.00,116.00" fill="#104531"/>
<polygon points="931.00,88.55 945.00,88.55 952.00,98.55 938.00,98.55" fill="#1d7c59" stroke="#022c22" stroke-width="0.52"/>
<polygon points="932.00,89.35 944.00,89.35 950.20,97.75 939.20,97.75" fill="#ecfeff" opacity="0.12"/>
<polygon points="939.12,89.15 950.80,94.75 950.80,96.35 939.12,89.31" fill="#50b5c2" opacity="0.30"/>
<polygon points="958.20,117.00 972.20,117.00 976.20,121.20 962.20,121.20" fill="#020617" opacity="0.18"/>
<polygon points="964.00,88.55 971.00,98.55 971.00,116.00 964.00,106.00" fill="#0c3425"/>
<polygon points="957.00,98.55 971.00,98.55 971.00,116.00 957.00,116.00" fill="#104531"/>
<polygon points="950.00,88.55 964.00,88.55 971.00,98.55 957.00,98.55" fill="#1d7c59" stroke="#022c22" stroke-width="0.52"/>
<polygon points="951.00,89.35 963.00,89.35 969.20,97.75 958.20,97.75" fill="#ecfeff" opacity="0.12"/>
<polygon points="958.12,89.15 969.80,94.75 969.80,96.35 958.12,89.31" fill="#50b5c2" opacity="0.30"/>
<polygon points="969.00,106.00 983.00,106.00 990.00,116.00 976.00,116.00" fill="#0b1020" stroke="#022c22" stroke-width="0.52"/>
<polygon points="988.00,106.00 1002.00,106.00 1009.00,116.00 995.00,116.00" fill="#0b1020" stroke="#022c22" stroke-width="0.52"/>
<polygon points="1007.00,106.00 1021.00,106.00 1028.00,116.00 1014.00,116.00" fill="#0b1020" stroke="#022c22" stroke-width="0.52"/>
<polygon points="1026.00,106.00 1040.00,106.00 1047.00,116.00 1033.00,116.00" fill="#0b1020" stroke="#022c22" stroke-width="0.52"/>
<polygon points="1045.00,106.00 1059.00,106.00 1066.00,116.00 1052.00,116.00" fill="#0b1020" stroke="#022c22" stroke-width="0.52"/>
<polygon points="64.00,116.00 78.00,116.00 85.00,126.00 71.00,126.00" fill="#0b1020" stroke="#022c22" stroke-width="0.52"/>
<polygon points="83.00,116.00 97.00,116.00 104.00,126.00 90.00,126.00" fill="#0b1020" stroke="#022c22" stroke-width="0.52"/>
<polygon points="102.00,116.00 116.00,116.00 123.00,126.00 109.00,126.00" fill="#0b1020" stroke="#022c22" stroke-width="0.52"/>
<polygon points="121.00,116.00 135.00,116.00 142.00,126.00 128.00,126.00" fill="#0b1020" stroke="#022c22" stroke-width="0.52"/>
<polygon points="140.00,116.00 154.00,116.00 161.00,126.00 147.00,126.00" fill="#0b1020" stroke="#022c22" stroke-width="0.52"/>
<polygon points="159.00,116.00 173.00,116.00 180.00,126.00 166.00,126.00" fill="#0b1020" stroke="#022c22" stroke-width="0.52"/>
<polygon points="178.00,116.00 192.00,116.00 199.00,126.00 185.00,126.00" fill="#0b1020" stroke="#022c22" stroke-width="0.52"/>
<polygon points="197.00,116.00 211.00,116.00 218.00,126.00 204.00,126.00" fill="#0b1020" stroke="#022c22" stroke-width="0.52"/>
<polygon points="224.20,127.00 238.20,127.00 242.20,131.20 228.20,131.20" fill="#020617" opacity="0.14"/>
<polygon points="230.00,104.09 237.00,114.09 237.00,126.00 230.00,116.00" fill="#071f18"/>
<polygon points="223.00,114.09 237.00,114.09 237.00,126.00 223.00,126.00" fill="#0a2920"/>
<polygon points="216.00,104.09 230.00,104.09 237.00,114.09 223.00,114.09" fill="#124a3a" stroke="#022c22" stroke-width="0.52"/>
<polygon points="217.00,104.89 229.00,104.89 235.20,113.29 224.20,113.29" fill="#ecfeff" opacity="0.10"/>
<polygon points="224.12,104.69 235.80,110.29 235.80,111.89 224.12,104.85" fill="#47a0ac" opacity="0.26"/>
<polygon points="235.00,116.00 249.00,116.00 256.00,126.00 242.00,126.00" fill="#0b1020" stroke="#022c22" stroke-width="0.52"/>
<polygon points="254.00,116.00 268.00,116.00 275.00,126.00 261.00,126.00" fill="#0b1020" stroke="#022c22" stroke-width="0.52"/>
<polygon points="273.00,116.00 287.00,116.00 294.00,126.00 280.00,126.00" fill="#0b1020" stroke="#022c22" stroke-width="0.52"/>
<polygon points="292.00,116.00 306.00,116.00 313.00,126.00 299.00,126.00" fill="#0b1020" stroke="#022c22" stroke-width="0.52"/>
<polygon points="311.00,116.00 325.00,116.00 332.00,126.00 318.00,126.00" fill="#0b1020" stroke="#022c22" stroke-width="0.52"/>
<polygon points="338.20,127.00 352.20,127.00 356.20,131.20 342.20,131.20" fill="#020617" opacity="0.14"/>
<polygon points="344.00,104.09 351.00,114.09 351.00,126.00 344.00,116.00" fill="#071f18"/>
<polygon points="337.00,114.09 351.00,114.09 351.00,126.00 337.00,126.00" fill="#0a2920"/>
<polygon points="330.00,104.09 344.00,104.09 351.00,114.09 337.00,114.09" fill="#124a3a" stroke="#022c22" stroke-width="0.52"/>
<polygon points="331.00,104.89 343.00,104.89 349.20,113.29 338.20,113.29" fill="#ecfeff" opacity="0.10"/>
<polygon points="338.12,104.69 349.80,110.29 349.80,111.89 338.12,104.85" fill="#47a0ac" opacity="0.26"/>
<polygon points="349.00,116.00 363.00,116.00 370.00,126.00 356.00,126.00" fill="#0b1020" stroke="#022c22" stroke-width="0.52"/>
<polygon points="376.20,127.00 390.20,127.00 394.20,131.20 380.20,131.20" fill="#020617" opacity="0.14"/>
<polygon points="382.00,104.09 389.00,114.09 389.00,126.00 382.00,116.00" fill="#071f18"/>
<polygon points="375.00,114.09 389.00,114.09 389.00,126.00 375.00,126.00" fill="#0a2920"/>
<polygon points="368.00,104.09 382.00,104.09 389.00,114.09 375.00,114.09" fill="#124a3a" stroke="#022c22" stroke-width="0.52"/>
<polygon points="369.00,104.89 381.00,104.89 387.20,113.29 376.20,113.29" fill="#ecfeff" opacity="0.10"/>
<polygon points="376.12,104.69 387.80,110.29 387.80,111.89 376.12,104.85" fill="#47a0ac" opacity="0.26"/>
<polygon points="395.20,127.00 409.20,127.00 413.20,131.20 399.20,131.20" fill="#020617" opacity="0.14"/>
<polygon points="401.00,104.09 408.00,114.09 408.00,126.00 401.00,116.00" fill="#071f18"/>
<polygon points="394.00,114.09 408.00,114.09 408.00,126.00 394.00,126.00" fill="#0a2920"/>
<polygon points="387.00,104.09 401.00,104.09 408.00,114.09 394.00,114.09" fill="#124a3a" stroke="#022c22" stroke-width="0.52"/>
<polygon points="388.00,104.89 400.00,104.89 406.20,113.29 395.20,113.29" fill="#ecfeff" opacity="0.10"/>
<polygon points="395.12,104.69 406.80,110.29 406.80,111.89 395.12,104.85" fill="#47a0ac" opacity="0.26"/>
<polygon points="406.00,116.00 420.00,116.00 427.00,126.00 413.00,126.00" fill="#0b1020" stroke="#022c22" stroke-width="0.52"/>
<polygon points="433.20,127.00 447.20,127.00 451.20,131.20 437.20,131.20" fill="#020617" opacity="0.14"/>
<polygon points="439.00,104.09 446.00,114.09 446.00,126.00 439.00,116.00" fill="#071f18"/>
<polygon points="432.00,114.09 446.00,114.09 446.00,126.00 432.00,126.00" fill="#0a2920"/>
<polygon points="425.00,104.09 439.00,104.09 446.00,114.09 432.00,114.09" fill="#124a3a" stroke="#022c22" stroke-width="0.52"/>
<polygon points="426.00,104.89 438.00,104.89 444.20,113.29 433.20,113.29" fill="#ecfeff" opacity="0.10"/>
<polygon points="433.12,104.69 444.80,110.29 444.80,111.89 433.12,104.85" fill="#47a0ac" opacity="0.26"/>
<polygon points="452.20,127.00 466.20,127.00 470.20,131.20 456.20,131.20" fill="#020617" opacity="0.11"/>
<polygon points="458.00,108.48 465.00,118.48 465.00,126.00 458.00,116.00" fill="#071f18"/>
<polygon points="451.00,118.48 465.00,118.48 465.00,126.00 451.00,126.00" fill="#0a2920"/>
<polygon points="444.00,108.48 458.00,108.48 465.00,118.48 451.00,118.48" fill="#124a3a" stroke="#022c22" stroke-width="0.52"/>
<polygon points="445.00,109.28 457.00,109.28 463.20,117.68 452.20,117.68" fill="#ecfeff" opacity="0.08"/>
<polygon points="452.12,109.08 463.80,114.68 463.80,116.28 452.12,109.24" fill="#40909a" opacity="0.22"/>
<polygon points="463.00,116.00 477.00,116.00 484.00,126.00 470.00,126.00" fill="#0b1020" stroke="#022c22" stroke-width="0.52"/>
<polygon points="482.00,116.00 496.00,116.00 503.00,126.00 489.00,126.00" fill="#0b1020" stroke="#022c22" stroke-width="0.52"/>
<polygon points="501.00,116.00 515.00,116.00 522.00,126.00 508.00,126.00" fill="#0b1020" stroke="#022c22" stroke-width="0.52"/>
<polygon points="520.00,116.00 534.00,116.00 541.00,126.00 527.00,126.00" fill="#0b1020" stroke="#022c22" stroke-width="0.52"/>
<polygon points="539.00,116.00 553.00,116.00 560.00,126.00 546.00,126.00" fill="#0b1020" stroke="#022c22" stroke-width="0.52"/>
<polygon points="566.20,127.00 580.20,127.00 584.20,131.20 570.20,131.20" fill="#020617" opacity="0.14"/>
<polygon points="572.00,104.09 579.00,114.09 579.00,126.00 572.00,116.00" fill="#071f18"/>
<polygon points="565.00,114.09 579.00,114.09 579.00,126.00 565.00,126.00" fill="#0a2920"/>
<polygon points="558.00,104.09 572.00,104.09 579.00,114.09 565.00,114.09" fill="#124a3a" stroke="#022c22" stroke-width="0.52"/>
<polygon points="559.00,104.89 571.00,104.89 577.20,113.29 566.20,113.29" fill="#ecfeff" opacity="0.10"/>
<polygon points="566.12,104.69 577.80,110.29 577.80,111.89 566.12,104.85" fill="#47a0ac" opacity="0.26"/>
<polygon points="577.00,116.00 591.00,116.00 598.00,126.00 584.00,126.00" fill="#0b1020" stroke="#022c22" stroke-width="0.52"/>
<polygon points="604.20,127.00 618.20,127.00 622.20,131.20 608.20,131.20" fill="#020617" opacity="0.11"/>
<polygon points="610.00,108.48 617.00,118.48 617.00,126.00 610.00,116.00" fill="#071f18"/>
<polygon points="603.00,118.48 617.00,118.48 617.00,126.00 603.00,126.00" fill="#0a2920"/>
<polygon points="596.00,108.48 610.00,108.48 617.00,118.48 603.00,118.48" fill="#124a3a" stroke="#022c22" stroke-width="0.52"/>
<polygon points="597.00,109.28 609.00,109.28 615.20,117.68 604.20,117.68" fill="#ecfeff" opacity="0.08"/>
<polygon points="604.12,109.08 615.80,114.68 615.80,116.28 604.12,109.24" fill="#40909a" opacity="0.22"/>
<polygon points="615.00,116.00 629.00,116.00 636.00,126.00 622.00,126.00" fill="#0b1020" stroke="#022c22" stroke-width="0.52"/>
<polygon points="634.00,116.00 648.00,116.00 655.00,126.00 641.00,126.00" fill="#0b1020" stroke="#022c22" stroke-width="0.52"/>
<polygon points="653.00,116.00 667.00,116.00 674.00,126.00 660.00,126.00" fill="#0b1020" stroke="#022c22" stroke-width="0.52"/>
<polygon points="672.00,116.00 686.00,116.00 693.00,126.00 679.00,126.00" fill="#0b1020" stroke="#022c22" stroke-width="0.52"/>
<polygon points="691.00,116.00 705.00,116.00 712.00,126.00 698.00,126.00" fill="#0b1020" stroke="#022c22" stroke-width="0.52"/>
<polygon points="710.00,116.00 724.00,116.00 731.00,126.00 717.00,126.00" fill="#0b1020" stroke="#022c22" stroke-width="0.52"/>
<polygon points="729.00,116.00 743.00,116.00 750.00,126.00 736.00,126.00" fill="#0b1020" stroke="#022c22" stroke-width="0.52"/>
<polygon points="748.00,116.00 762.00,116.00 769.00,126.00 755.00,126.00" fill="#0b1020" stroke="#022c22" stroke-width="0.52"/>
<polygon points="767.00,116.00 781.00,116.00 788.00,126.00 774.00,126.00" fill="#0b1020" stroke="#022c22" stroke-width="0.52"/>
<polygon points="794.20,127.00 808.20,127.00 812.20,131.20 798.20,131.20" fill="#020617" opacity="0.21"/>
<polygon points="800.00,94.90 807.00,104.90 807.00,126.00 800.00,116.00" fill="#0c3425"/>
<polygon points="793.00,104.90 807.00,104.90 807.00,126.00 793.00,126.00" fill="#104531"/>
<polygon points="786.00,94.90 800.00,94.90 807.00,104.90 793.00,104.90" fill="#1d7c59" stroke="#022c22" stroke-width="0.52"/>
<polygon points="787.00,95.70 799.00,95.70 805.20,104.10 794.20,104.10" fill="#ecfeff" opacity="0.14"/>
<polygon points="794.12,95.50 805.80,101.10 805.80,102.70 794.12,95.66" fill="#56c3d1" opacity="0.34"/>
<polygon points="813.20,127.00 827.20,127.00 831.20,131.20 817.20,131.20" fill="#020617" opacity="0.14"/>
<polygon points="819.00,104.09 826.00,114.09 826.00,126.00 819.00,116.00" fill="#071f18"/>
<polygon points="812.00,114.09 826.00,114.09 826.00,126.00 812.00,126.00" fill="#0a2920"/>
<polygon points="805.00,104.09 819.00,104.09 826.00,114.09 812.00,114.09" fill="#124a3a" stroke="#022c22" stroke-width="0.52"/>
<polygon points="806.00,104.89 818.00,104.89 824.20,113.29 813.20,113.29" fill="#ecfeff" opacity="0.10"/>
<polygon points="813.12,104.69 824.80,110.29 824.80,111.89 813.12,104.85" fill="#47a0ac" opacity="0.26"/>
<polygon points="824.00,116.00 838.00,116.00 845.00,126.00 831.00,126.00" fill="#0b1020" stroke="#022c22" stroke-width="0.52"/>
<polygon points="851.20,127.00 865.20,127.00 869.20,131.20 855.20,131.20" fill="#020617" opacity="0.11"/>
<polygon points="857.00,108.48 864.00,118.48 864.00,126.00 857.00,116.00" fill="#071f18"/>
<polygon points="850.00,118.48 864.00,118.48 864.00,126.00 850.00,126.00" fill="#0a2920"/>
<polygon points="843.00,108.48 857.00,108.48 864.00,118.48 850.00,118.48" fill="#124a3a" stroke="#022c22" stroke-width="0.52"/>
<polygon points="844.00,109.28 856.00,109.28 862.20,117.68 851.20,117.68" fill="#ecfeff" opacity="0.08"/>
<polygon points="851.12,109.08 862.80,114.68 862.80,116.28 851.12,109.24" fill="#40909a" opacity="0.22"/>
<polygon points="862.00,116.00 876.00,116.00 883.00,126.00 869.00,126.00" fill="#0b1020" stroke="#022c22" stroke-width="0.52"/>
<polygon points="889.20,127.00 903.20,127.00 907.20,131.20 893.20,131.20" fill="#020617" opacity="0.20"/>
<polygon points="895.00,96.57 902.00,106.57 902.00,126.00 895.00,116.00" fill="#0c3425"/>
<polygon points="888.00,106.57 902.00,106.57 902.00,126.00 888.00,126.00" fill="#104531"/>
<polygon points="881.00,96.57 895.00,96.57 902.00,106.57 888.00,106.57" fill="#1d7c59" stroke="#022c22" stroke-width="0.52"/>
<polygon points="882.00,97.37 894.00,97.37 900.20,105.77 889.20,105.77" fill="#ecfeff" opacity="0.13"/>
<polygon points="889.12,97.17 900.80,102.77 900.80,104.37 889.12,97.33" fill="#53bcca" opacity="0.32"/>
<polygon points="908.20,127.00 922.20,127.00 926.20,131.20 912.20,131.20" fill="#020617" opacity="0.18"/>
<polygon points="914.00,98.55 921.00,108.55 921.00,126.00 914.00,116.00" fill="#0c3425"/>
<polygon points="907.00,108.55 921.00,108.55 921.00,126.00 907.00,126.00" fill="#104531"/>
<polygon points="900.00,98.55 914.00,98.55 921.00,108.55 907.00,108.55" fill="#1d7c59" stroke="#022c22" stroke-width="0.52"/>
<polygon points="901.00,99.35 913.00,99.35 919.20,107.75 908.20,107.75" fill="#ecfeff" opacity="0.12"/>
<polygon points="908.12,99.15 919.80,104.75 919.80,106.35 908.12,99.31" fill="#50b5c2" opacity="0.30"/>
<polygon points="927.20,127.00 941.20,127.00 945.20,131.20 931.20,131.20" fill="#020617" opacity="0.18"/>
<polygon points="933.00,98.55 940.00,108.55 940.00,126.00 933.00,116.00" fill="#0c3425"/>
<polygon points="926.00,108.55 940.00,108.55 940.00,126.00 926.00,126.00" fill="#104531"/>
<polygon points="919.00,98.55 933.00,98.55 940.00,108.55 926.00,108.55" fill="#1d7c59" stroke="#022c22" stroke-width="0.52"/>
<polygon points="920.00,99.35 932.00,99.35 938.20,107.75 927.20,107.75" fill="#ecfeff" opacity="0.12"/>
<polygon points="927.12,99.15 938.80,104.75 938.80,106.35 927.12,99.31" fill="#50b5c2" opacity="0.30"/>
<polygon points="946.20,127.00 960.20,127.00 964.20,131.20 950.20,131.20" fill="#020617" opacity="0.18"/>
<polygon points="952.00,98.55 959.00,108.55 959.00,126.00 952.00,116.00" fill="#0c3425"/>
<polygon points="945.00,108.55 959.00,108.55 959.00,126.00 945.00,126.00" fill="#104531"/>
<polygon points="938.00,98.55 952.00,98.55 959.00,108.55 945.00,108.55" fill="#1d7c59" stroke="#022c22" stroke-width="0.52"/>
<polygon points="939.00,99.35 951.00,99.35 957.20,107.75 946.20,107.75" fill="#ecfeff" opacity="0.12"/>
<polygon points="946.12,99.15 957.80,104.75 957.80,106.35 946.12,99.31" fill="#50b5c2" opacity="0.30"/>
<polygon points="965.20,127.00 979.20,127.00 983.20,131.20 969.20,131.20" fill="#020617" opacity="0.18"/>
<polygon points="971.00,98.55 978.00,108.55 978.00,126.00 971.00,116.00" fill="#0c3425"/>
<polygon points="964.00,108.55 978.00,108.55 978.00,126.00 964.00,126.00" fill="#104531"/>
<polygon points="957.00,98.55 971.00,98.55 978.00,108.55 964.00,108.55" fill="#1d7c59" stroke="#022c22" stroke-width="0.52"/>
<polygon points="958.00,99.35 970.00,99.35 976.20,107.75 965.20,107.75" fill="#ecfeff" opacity="0.12"/>
<polygon points="965.12,99.15 976.80,104.75 976.80,106.35 965.12,99.31" fill="#50b5c2" opacity="0.30"/>
<polygon points="976.00,116.00 990.00,116.00 997.00,126.00 983.00,126.00" fill="#0b1020" stroke="#022c22" stroke-width="0.52"/>
<polygon points="995.00,116.00 1009.00,116.00 1016.00,126.00 1002.00,126.00" fill="#0b1020" stroke="#022c22" stroke-width="0.52"/>
<polygon points="1014.00,116.00 1028.00,116.00 1035.00,126.00 1021.00,126.00" fill="#0b1020" stroke="#022c22" stroke-width="0.52"/>
<polygon points="1033.00,116.00 1047.00,116.00 1054.00,126.00 1040.00,126.00" fill="#0b1020" stroke="#022c22" stroke-width="0.52"/>
<polygon points="1052.00,116.00 1066.00,116.00 1073.00,126.00 1059.00,126.00" fill="#0b1020" stroke="#022c22" stroke-width="0.52"/>
<polyline points="53.50,90.00 72.50,90.00 65.50,80.00 84.50,80.00 103.50,80.00 122.50,80.00 141.50,80.00 160.50,80.00 179.50,80.00 198.50,80.00 191.50,70.00 210.50,70.00 229.50,70.00 248.50,70.00 267.50,70.00 286.50,70.00 305.50,70.00 324.50,70.00 317.50,60.00 336.50,60.00 355.50,60.00 374.50,60.00 393.50,60.00 412.50,60.00 431.50,60.00 450.50,60.00 469.50,60.00 488.50,60.00 507.50,60.00 526.50,60.00 545.50,60.00 564.50,60.00 583.50,60.00 602.50,60.00 609.50,70.00 616.50,80.00 635.50,80.00 654.50,80.00 673.50,80.00 692.50,80.00 711.50,80.00 730.50,80.00 749.50,80.00 768.50,80.00 787.50,80.00 806.50,72.48 813.50,90.00 832.50,90.00 851.50,90.00 870.50,90.00 889.50,72.55 908.50,72.55 927.50,72.55 946.50,90.00 965.50,90.00 984.50,90.00 1003.50,90.00 1022.50,90.00 1041.50,90.00" fill="none" stroke="#67e8f9" stroke-opacity="0.35" stroke-width="7" stroke-linecap="round" stroke-linejoin="round" filter="url(#neonBlur)"/>
<polyline points="53.50,90.00 72.50,90.00 65.50,80.00 84.50,80.00 103.50,80.00 122.50,80.00 141.50,80.00 160.50,80.00 179.50,80.00 198.50,80.00 191.50,70.00 210.50,70.00 229.50,70.00 248.50,70.00 267.50,70.00 286.50,70.00 305.50,70.00 324.50,70.00 317.50,60.00 336.50,60.00 355.50,60.00 374.50,60.00 393.50,60.00 412.50,60.00 431.50,60.00 450.50,60.00 469.50,60.00 488.50,60.00 507.50,60.00 526.50,60.00 545.50,60.00 564.50,60.00 583.50,60.00 602.50,60.00 609.50,70.00 616.50,80.00 635.50,80.00 654.50,80.00 673.50,80.00 692.50,80.00 711.50,80.00 730.50,80.00 749.50,80.00 768.50,80.00 787.50,80.00 806.50,72.48 813.50,90.00 832.50,90.00 851.50,90.00 870.50,90.00 889.50,72.55 908.50,72.55 927.50,72.55 946.50,90.00 965.50,90.00 984.50,90.00 1003.50,90.00 1022.50,90.00 1041.50,90.00" fill="none" stroke="#a7f3d0" stroke-width="2.6" stroke-linecap="round" stroke-linejoin="round"/>
<circle cx="53.50" cy="90.00" r="3.9" fill="#a7f3d0" stroke="#083344" stroke-width="1"/>
<circle cx="1041.50" cy="90.00" r="3.9" fill="#a7f3d0" stroke="#083344" stroke-width="1"/>
<text x="1087" y="142" text-anchor="end" font-family="ui-monospace, SFMono-Regular, Menlo, monospace" font-size="10" fill="#94a3b8" opacity="0.85">2026-07-21</text>
</svg>