<svg xmlns="http://www.w3.org/2000/svg" width="466" height="282" viewBox="0 0 466 282" role="img">
<rect width="466" height="282" rx="12" fill="#0d1117"/>
<polygon points="79.50,40.50 86.00,44.00 79.50,47.50 73.00,44.00" fill="#161b22" stroke="#0d1117" stroke-width="0.65"/>
<polygon points="86.00,44.00 92.50,47.50 86.00,51.00 79.50,47.50" fill="#161b22" stroke="#0d1117" stroke-width="0.65"/>
<polygon points="73.00,44.00 79.50,47.50 73.00,51.00 66.50,47.50" fill="#161b22" stroke="#0d1117" stroke-width="0.65"/>
<polygon points="92.50,33.66 86.00,30.16 86.00,51.00 92.50,54.50" fill="#1b6527"/>
<polygon points="99.00,30.16 92.50,33.66 92.50,54.50 99.00,51.00" fill="#248735"/>
<polygon points="92.50,26.66 99.00,30.16 92.50,33.66 86.00,30.16" fill="#39d353" stroke="#0d1117" stroke-width="0.65"/>
<polygon points="79.50,47.50 86.00,51.00 79.50,54.50 73.00,51.00" fill="#161b22" stroke="#0d1117" stroke-width="0.65"/>
<polygon points="66.50,47.50 73.00,51.00 66.50,54.50 60.00,51.00" fill="#161b22" stroke="#0d1117" stroke-width="0.65"/>
<polygon points="99.00,51.00 105.50,54.50 99.00,58.00 92.50,54.50" fill="#161b22" stroke="#0d1117" stroke-width="0.65"/>
<polygon points="86.00,46.74 79.50,43.24 79.50,54.50 86.00,58.00" fill="#003418"/>
<polygon points="92.50,43.24 86.00,46.74 86.00,58.00 92.50,54.50" fill="#004520"/>
<polygon points="86.00,39.74 92.50,43.24 86.00,46.74 79.50,43.24" fill="#006d32" stroke="#0d1117" stroke-width="0.65"/>
<polygon points="73.00,51.00 79.50,54.50 73.00,58.00 66.50,54.50" fill="#161b22" stroke="#0d1117" stroke-width="0.65"/>
<polygon points="60.00,51.00 66.50,54.50 60.00,58.00 53.50,54.50" fill="#161b22" stroke="#0d1117" stroke-width="0.65"/>
<polygon points="105.50,48.43 99.00,44.93 99.00,58.00 105.50,61.50" fill="#003418"/>
<polygon points="112.00,44.93 105.50,48.43 105.50,61.50 112.00,58.00" fill="#004520"/>
<polygon points="105.50,41.43 112.00,44.93 105.50,48.43 99.00,44.93" fill="#006d32" stroke="#0d1117" stroke-width="0.65"/>
<polygon points="92.50,54.50 99.00,58.00 92.50,61.50 86.00,58.00" fill="#161b22" stroke="#0d1117" stroke-width="0.65"/>
<polygon points="79.50,54.50 86.00,58.00 79.50,61.50 73.00,58.00" fill="#161b22" stroke="#0d1117" stroke-width="0.65"/>
<polygon points="66.50,54.50 73.00,58.00 66.50,61.50 60.00,58.00" fill="#161b22" stroke="#0d1117" stroke-width="0.65"/>
<polygon points="53.50,54.50 60.00,58.00 53.50,61.50 47.00,58.00" fill="#161b22" stroke="#0d1117" stroke-width="0.65"/>
<polygon points="112.00,56.07 105.50,52.57 105.50,61.50 112.00,65.00" fill="#003418"/>
<polygon points="118.50,52.57 112.00,56.07 112.00,65.00 118.50,61.50" fill="#004520"/>
<polygon points="112.00,49.07 118.50,52.57 112.00,56.07 105.50,52.57" fill="#006d32" stroke="#0d1117" stroke-width="0.65"/>
<polygon points="99.00,58.00 105.50,61.50 99.00,65.00 92.50,61.50" fill="#161b22" stroke="#0d1117" stroke-width="0.65"/>
<polygon points="86.00,58.00 92.50,61.50 86.00,65.00 79.50,61.50" fill="#161b22" stroke="#0d1117" stroke-width="0.65"/>
<polygon points="73.00,58.00 79.50,61.50 73.00,65.00 66.50,61.50" fill="#161b22" stroke="#0d1117" stroke-width="0.65"/>
<polygon points="60.00,58.00 66.50,61.50 60.00,65.00 53.50,61.50" fill="#161b22" stroke="#0d1117" stroke-width="0.65"/>
<polygon points="47.00,58.00 53.50,61.50 47.00,65.00 40.50,61.50" fill="#161b22" stroke="#0d1117" stroke-width="0.65"/>
<polygon points="118.50,62.87 112.00,59.37 112.00,65.00 118.50,68.50" fill="#062013"/>
<polygon points="125.00,59.37 118.50,62.87 118.50,68.50 125.00,65.00" fill="#082b1a"/>
<polygon points="118.50,55.87 125.00,59.37 118.50,62.87 112.00,59.37" fill="#0e4429" stroke="#0d1117" stroke-width="0.65"/>
<polygon points="105.50,51.61 99.00,48.11 99.00,65.00 105.50,68.50" fill="#124f1f"/>
<polygon points="112.00,48.11 105.50,51.61 105.50,68.50 112.00,65.00" fill="#186a29"/>
<polygon points="105.50,44.61 112.00,48.11 105.50,51.61 99.00,48.11" fill="#26a641" stroke="#0d1117" stroke-width="0.65"/>
<polygon points="92.50,61.50 99.00,65.00 92.50,68.50 86.00,65.00" fill="#161b22" stroke="#0d1117" stroke-width="0.65"/>
<polygon points="79.50,62.87 73.00,59.37 73.00,65.00 79.50,68.50" fill="#062013"/>
<polygon points="86.00,59.37 79.50,62.87 79.50,68.50 86.00,65.00" fill="#082b1a"/>
<polygon points="79.50,55.87 86.00,59.37 79.50,62.87 73.00,59.37" fill="#0e4429" stroke="#0d1117" stroke-width="0.65"/>
<polygon points="66.50,61.50 73.00,65.00 66.50,68.50 60.00,65.00" fill="#161b22" stroke="#0d1117" stroke-width="0.65"/>
<polygon points="53.50,61.50 60.00,65.00 53.50,68.50 47.00,65.00" fill="#161b22" stroke="#0d1117" stroke-width="0.65"/>
<polygon points="40.50,61.50 47.00,65.00 40.50,68.50 34.00,65.00" fill="#161b22" stroke="#0d1117" stroke-width="0.65"/>
<polygon points="125.00,51.81 118.50,48.31 118.50,68.50 125.00,72.00" fill="#1b6527"/>
<polygon points="131.50,48.31 125.00,51.81 125.00,72.00 131.50,68.50" fill="#248735"/>
<polygon points="125.00,44.81 131.50,48.31 125.00,51.81 118.50,48.31" fill="#39d353" stroke="#0d1117" stroke-width="0.65"/>
<polygon points="112.00,57.44 105.50,53.94 105.50,68.50 112.00,72.00" fill="#124f1f"/>
<polygon points="118.50,53.94 112.00,57.44 112.00,72.00 118.50,68.50" fill="#186a29"/>
<polygon points="112.00,50.44 118.50,53.94 112.00,57.44 105.50,53.94" fill="#26a641" stroke="#0d1117" stroke-width="0.65"/>
<polygon points="99.00,60.74 92.50,57.24 92.50,68.50 99.00,72.00" fill="#003418"/>
<polygon points="105.50,57.24 99.00,60.74 99.00,72.00 105.50,68.50" fill="#004520"/>
<polygon points="99.00,53.74 105.50,57.24 99.00,60.74 92.50,57.24" fill="#006d32" stroke="#0d1117" stroke-width="0.65"/>
<polygon points="86.00,65.00 92.50,68.50 86.00,72.00 79.50,68.50" fill="#161b22" stroke="#0d1117" stroke-width="0.65"/>
<polygon points="73.00,65.00 79.50,68.50 73.00,72.00 66.50,68.50" fill="#161b22" stroke="#0d1117" stroke-width="0.65"/>
<polygon points="60.00,60.74 53.50,57.24 53.50,68.50 60.00,72.00" fill="#003418"/>
<polygon points="66.50,57.24 60.00,60.74 60.00,72.00 66.50,68.50" fill="#004520"/>
<polygon points="60.00,53.74 66.50,57.24 60.00,60.74 53.50,57.24" fill="#006d32" stroke="#0d1117" stroke-width="0.65"/>
<polygon points="47.00,65.00 53.50,68.50 47.00,72.00 40.50,68.50" fill="#161b22" stroke="#0d1117" stroke-width="0.65"/>
<polygon points="131.50,64.24 125.00,60.74 125.00,72.00 131.50,75.50" fill="#003418"/>
<polygon points="138.00,60.74 131.50,64.24 131.50,75.50 138.00,72.00" fill="#004520"/>
<polygon points="131.50,57.24 138.00,60.74 131.50,64.24 125.00,60.74" fill="#006d32" stroke="#0d1117" stroke-width="0.65"/>
<polygon points="118.50,59.69 112.00,56.19 112.00,72.00 118.50,75.50" fill="#124f1f"/>
<polygon points="125.00,56.19 118.50,59.69 118.50,75.50 125.00,72.00" fill="#186a29"/>
<polygon points="118.50,52.69 125.00,56.19 118.50,59.69 112.00,56.19" fill="#26a641" stroke="#0d1117" stroke-width="0.65"/>
<polygon points="105.50,60.94 99.00,57.44 99.00,72.00 105.50,75.50" fill="#124f1f"/>
<polygon points="112.00,57.44 105.50,60.94 105.50,75.50 112.00,72.00" fill="#186a29"/>
<polygon points="105.50,53.94 112.00,57.44 105.50,60.94 99.00,57.44" fill="#26a641" stroke="#0d1117" stroke-width="0.65"/>
<polygon points="92.50,69.87 86.00,66.37 86.00,72.00 92.50,75.50" fill="#062013"/>
<polygon points="99.00,66.37 92.50,69.87 92.50,75.50 99.00,72.00" fill="#082b1a"/>
<polygon points="92.50,62.87 99.00,66.37 92.50,69.87 86.00,66.37" fill="#0e4429" stroke="#0d1117" stroke-width="0.65"/>
<polygon points="79.50,68.50 86.00,72.00 79.50,75.50 73.00,72.00" fill="#161b22" stroke="#0d1117" stroke-width="0.65"/>
<polygon points="66.50,68.50 73.00,72.00 66.50,75.50 60.00,72.00" fill="#161b22" stroke="#0d1117" stroke-width="0.65"/>
<polygon points="53.50,68.50 60.00,72.00 53.50,75.50 47.00,72.00" fill="#161b22" stroke="#0d1117" stroke-width="0.65"/>
<polygon points="138.00,72.00 144.50,75.50 138.00,79.00 131.50,75.50" fill="#161b22" stroke="#0d1117" stroke-width="0.65"/>
<polygon points="125.00,72.00 131.50,75.50 125.00,79.00 118.50,75.50" fill="#161b22" stroke="#0d1117" stroke-width="0.65"/>
<polygon points="112.00,65.93 105.50,62.43 105.50,75.50 112.00,79.00" fill="#003418"/>
<polygon points="118.50,62.43 112.00,65.93 112.00,79.00 118.50,75.50" fill="#004520"/>
<polygon points="112.00,58.93 118.50,62.43 112.00,65.93 105.50,62.43" fill="#006d32" stroke="#0d1117" stroke-width="0.65"/>
<polygon points="99.00,72.00 105.50,75.50 99.00,79.00 92.50,75.50" fill="#161b22" stroke="#0d1117" stroke-width="0.65"/>
<polygon points="86.00,73.37 79.50,69.87 79.50,75.50 86.00,79.00" fill="#062013"/>
<polygon points="92.50,69.87 86.00,73.37 86.00,79.00 92.50,75.50" fill="#082b1a"/>
<polygon points="86.00,66.37 92.50,69.87 86.00,73.37 79.50,69.87" fill="#0e4429" stroke="#0d1117" stroke-width="0.65"/>
<polygon points="73.00,72.00 79.50,75.50 73.00,79.00 66.50,75.50" fill="#161b22" stroke="#0d1117" stroke-width="0.65"/>
<polygon points="60.00,72.00 66.50,75.50 60.00,79.00 53.50,75.50" fill="#161b22" stroke="#0d1117" stroke-width="0.65"/>
<polygon points="144.50,75.50 151.00,79.00 144.50,82.50 138.00,79.00" fill="#161b22" stroke="#0d1117" stroke-width="0.65"/>
<polygon points="131.50,75.50 138.00,79.00 131.50,82.50 125.00,79.00" fill="#161b22" stroke="#0d1117" stroke-width="0.65"/>
<polygon points="118.50,75.50 125.00,79.00 118.50,82.50 112.00,79.00" fill="#161b22" stroke="#0d1117" stroke-width="0.65"/>
<polygon points="105.50,69.43 99.00,65.93 99.00,79.00 105.50,82.50" fill="#003418"/>
<polygon points="112.00,65.93 105.50,69.43 105.50,82.50 112.00,79.00" fill="#004520"/>
<polygon points="105.50,62.43 112.00,65.93 105.50,69.43 99.00,65.93" fill="#006d32" stroke="#0d1117" stroke-width="0.65"/>
<polygon points="92.50,71.24 86.00,67.74 86.00,79.00 92.50,82.50" fill="#003418"/>
<polygon points="99.00,67.74 92.50,71.24 92.50,82.50 99.00,79.00" fill="#004520"/>
<polygon points="92.50,64.24 99.00,67.74 92.50,71.24 86.00,67.74" fill="#006d32" stroke="#0d1117" stroke-width="0.65"/>
<polygon points="79.50,75.50 86.00,79.00 79.50,82.50 73.00,79.00" fill="#161b22" stroke="#0d1117" stroke-width="0.65"/>
<polygon points="66.50,76.87 60.00,73.37 60.00,79.00 66.50,82.50" fill="#062013"/>
<polygon points="73.00,73.37 66.50,76.87 66.50,82.50 73.00,79.00" fill="#082b1a"/>
<polygon points="66.50,69.87 73.00,73.37 66.50,76.87 60.00,73.37" fill="#0e4429" stroke="#0d1117" stroke-width="0.65"/>
<polygon points="151.00,80.37 144.50,76.87 144.50,82.50 151.00,86.00" fill="#062013"/>
<polygon points="157.50,76.87 151.00,80.37 151.00,86.00 157.50,82.50" fill="#082b1a"/>
<polygon points="151.00,73.37 157.50,76.87 151.00,80.37 144.50,76.87" fill="#0e4429" stroke="#0d1117" stroke-width="0.65"/>
<polygon points="138.00,80.37 131.50,76.87 131.50,82.50 138.00,86.00" fill="#062013"/>
<polygon points="144.50,76.87 138.00,80.37 138.00,86.00 144.50,82.50" fill="#082b1a"/>
<polygon points="138.00,73.37 144.50,76.87 138.00,80.37 131.50,76.87" fill="#0e4429" stroke="#0d1117" stroke-width="0.65"/>
<polygon points="125.00,77.07 118.50,73.57 118.50,82.50 125.00,86.00" fill="#003418"/>
<polygon points="131.50,73.57 125.00,77.07 125.00,86.00 131.50,82.50" fill="#004520"/>
<polygon points="125.00,70.07 131.50,73.57 125.00,77.07 118.50,73.57" fill="#006d32" stroke="#0d1117" stroke-width="0.65"/>
<polygon points="112.00,79.00 118.50,82.50 112.00,86.00 105.50,82.50" fill="#161b22" stroke="#0d1117" stroke-width="0.65"/>
<polygon points="99.00,79.00 105.50,82.50 99.00,86.00 92.50,82.50" fill="#161b22" stroke="#0d1117" stroke-width="0.65"/>
<polygon points="86.00,72.93 79.50,69.43 79.50,82.50 86.00,86.00" fill="#003418"/>
<polygon points="92.50,69.43 86.00,72.93 86.00,86.00 92.50,82.50" fill="#004520"/>
<polygon points="86.00,65.93 92.50,69.43 86.00,72.93 79.50,69.43" fill="#006d32" stroke="#0d1117" stroke-width="0.65"/>
<polygon points="73.00,77.07 66.50,73.57 66.50,82.50 73.00,86.00" fill="#003418"/>
<polygon points="79.50,73.57 73.00,77.07 73.00,86.00 79.50,82.50" fill="#004520"/>
<polygon points="73.00,70.07 79.50,73.57 73.00,77.07 66.50,73.57" fill="#006d32" stroke="#0d1117" stroke-width="0.65"/>
<polygon points="157.50,82.50 164.00,86.00 157.50,89.50 151.00,86.00" fill="#161b22" stroke="#0d1117" stroke-width="0.65"/>
<polygon points="144.50,83.87 138.00,80.37 138.00,86.00 144.50,89.50" fill="#062013"/>
<polygon points="151.00,80.37 144.50,83.87 144.50,89.50 151.00,86.00" fill="#082b1a"/>
<polygon points="144.50,76.87 151.00,80.37 144.50,83.87 138.00,80.37" fill="#0e4429" stroke="#0d1117" stroke-width="0.65"/>
<polygon points="131.50,83.87 125.00,80.37 125.00,86.00 131.50,89.50" fill="#062013"/>
<polygon points="138.00,80.37 131.50,83.87 131.50,89.50 138.00,86.00" fill="#082b1a"/>
<polygon points="131.50,76.87 138.00,80.37 131.50,83.87 125.00,80.37" fill="#0e4429" stroke="#0d1117" stroke-width="0.65"/>
<polygon points="118.50,82.50 125.00,86.00 118.50,89.50 112.00,86.00" fill="#161b22" stroke="#0d1117" stroke-width="0.65"/>
<polygon points="105.50,82.50 112.00,86.00 105.50,89.50 99.00,86.00" fill="#161b22" stroke="#0d1117" stroke-width="0.65"/>
<polygon points="92.50,78.24 86.00,74.74 86.00,86.00 92.50,89.50" fill="#003418"/>
<polygon points="99.00,74.74 92.50,78.24 92.50,89.50 99.00,86.00" fill="#004520"/>
<polygon points="92.50,71.24 99.00,74.74 92.50,78.24 86.00,74.74" fill="#006d32" stroke="#0d1117" stroke-width="0.65"/>
<polygon points="79.50,70.79 73.00,67.29 73.00,86.00 79.50,89.50" fill="#124f1f"/>
<polygon points="86.00,67.29 79.50,70.79 79.50,89.50 86.00,86.00" fill="#186a29"/>
<polygon points="79.50,63.79 86.00,67.29 79.50,70.79 73.00,67.29" fill="#26a641" stroke="#0d1117" stroke-width="0.65"/>
<polygon points="164.00,86.00 170.50,89.50 164.00,93.00 157.50,89.50" fill="#161b22" stroke="#0d1117" stroke-width="0.65"/>
<polygon points="151.00,86.00 157.50,89.50 151.00,93.00 144.50,89.50" fill="#161b22" stroke="#0d1117" stroke-width="0.65"/>
<polygon points="138.00,86.00 144.50,89.50 138.00,93.00 131.50,89.50" fill="#161b22" stroke="#0d1117" stroke-width="0.65"/>
<polygon points="125.00,86.00 131.50,89.50 125.00,93.00 118.50,89.50" fill="#161b22" stroke="#0d1117" stroke-width="0.65"/>
<polygon points="112.00,86.00 118.50,89.50 112.00,93.00 105.50,89.50" fill="#161b22" stroke="#0d1117" stroke-width="0.65"/>
<polygon points="99.00,86.00 105.50,89.50 99.00,93.00 92.50,89.50" fill="#161b22" stroke="#0d1117" stroke-width="0.65"/>
<polygon points="86.00,87.37 79.50,83.87 79.50,89.50 86.00,93.00" fill="#062013"/>
<polygon points="92.50,83.87 86.00,87.37 86.00,93.00 92.50,89.50" fill="#082b1a"/>
<polygon points="86.00,80.37 92.50,83.87 86.00,87.37 79.50,83.87" fill="#0e4429" stroke="#0d1117" stroke-width="0.65"/>
<polygon points="170.50,89.50 177.00,93.00 170.50,96.50 164.00,93.00" fill="#161b22" stroke="#0d1117" stroke-width="0.65"/>
<polygon points="157.50,83.43 151.00,79.93 151.00,93.00 157.50,96.50" fill="#003418"/>
<polygon points="164.00,79.93 157.50,83.43 157.50,96.50 164.00,93.00" fill="#004520"/>
<polygon points="157.50,76.43 164.00,79.93 157.50,83.43 151.00,79.93" fill="#006d32" stroke="#0d1117" stroke-width="0.65"/>
<polygon points="144.50,89.50 151.00,93.00 144.50,96.50 138.00,93.00" fill="#161b22" stroke="#0d1117" stroke-width="0.65"/>
<polygon points="131.50,89.50 138.00,93.00 131.50,96.50 125.00,93.00" fill="#161b22" stroke="#0d1117" stroke-width="0.65"/>
<polygon points="118.50,89.50 125.00,93.00 118.50,96.50 112.00,93.00" fill="#161b22" stroke="#0d1117" stroke-width="0.65"/>
<polygon points="105.50,90.87 99.00,87.37 99.00,93.00 105.50,96.50" fill="#062013"/>
<polygon points="112.00,87.37 105.50,90.87 105.50,96.50 112.00,93.00" fill="#082b1a"/>
<polygon points="105.50,83.87 112.00,87.37 105.50,90.87 99.00,87.37" fill="#0e4429" stroke="#0d1117" stroke-width="0.65"/>
<polygon points="92.50,89.50 99.00,93.00 92.50,96.50 86.00,93.00" fill="#161b22" stroke="#0d1117" stroke-width="0.65"/>
<polygon points="177.00,93.00 183.50,96.50 177.00,100.00 170.50,96.50" fill="#161b22" stroke="#0d1117" stroke-width="0.65"/>
<polygon points="164.00,94.37 157.50,90.87 157.50,96.50 164.00,100.00" fill="#062013"/>
<polygon points="170.50,90.87 164.00,94.37 164.00,100.00 170.50,96.50" fill="#082b1a"/>
<polygon points="164.00,87.37 170.50,90.87 164.00,94.37 157.50,90.87" fill="#0e4429" stroke="#0d1117" stroke-width="0.65"/>
<polygon points="151.00,93.00 157.50,96.50 151.00,100.00 144.50,96.50" fill="#161b22" stroke="#0d1117" stroke-width="0.65"/>
<polygon points="138.00,93.00 144.50,96.50 138.00,100.00 131.50,96.50" fill="#161b22" stroke="#0d1117" stroke-width="0.65"/>
<polygon points="125.00,93.00 131.50,96.50 125.00,100.00 118.50,96.50" fill="#161b22" stroke="#0d1117" stroke-width="0.65"/>
<polygon points="112.00,91.07 105.50,87.57 105.50,96.50 112.00,100.00" fill="#003418"/>
<polygon points="118.50,87.57 112.00,91.07 112.00,100.00 118.50,96.50" fill="#004520"/>
<polygon points="112.00,84.07 118.50,87.57 112.00,91.07 105.50,87.57" fill="#006d32" stroke="#0d1117" stroke-width="0.65"/>
<polygon points="99.00,91.07 92.50,87.57 92.50,96.50 99.00,100.00" fill="#003418"/>
<polygon points="105.50,87.57 99.00,91.07 99.00,100.00 105.50,96.50" fill="#004520"/>
<polygon points="99.00,84.07 105.50,87.57 99.00,91.07 92.50,87.57" fill="#006d32" stroke="#0d1117" stroke-width="0.65"/>
<polygon points="183.50,96.50 190.00,100.00 183.50,103.50 177.00,100.00" fill="#161b22" stroke="#0d1117" stroke-width="0.65"/>
<polygon points="170.50,96.50 177.00,100.00 170.50,103.50 164.00,100.00" fill="#161b22" stroke="#0d1117" stroke-width="0.65"/>
<polygon points="157.50,96.50 164.00,100.00 157.50,103.50 151.00,100.00" fill="#161b22" stroke="#0d1117" stroke-width="0.65"/>
<polygon points="144.50,86.61 138.00,83.11 138.00,100.00 144.50,103.50" fill="#124f1f"/>
<polygon points="151.00,83.11 144.50,86.61 144.50,103.50 151.00,100.00" fill="#186a29"/>
<polygon points="144.50,79.61 151.00,83.11 144.50,86.61 138.00,83.11" fill="#26a641" stroke="#0d1117" stroke-width="0.65"/>
<polygon points="131.50,87.69 125.00,84.19 125.00,100.00 131.50,103.50" fill="#124f1f"/>
<polygon points="138.00,84.19 131.50,87.69 131.50,103.50 138.00,100.00" fill="#186a29"/>
<polygon points="131.50,80.69 138.00,84.19 131.50,87.69 125.00,84.19" fill="#26a641" stroke="#0d1117" stroke-width="0.65"/>
<polygon points="118.50,96.50 125.00,100.00 118.50,103.50 112.00,100.00" fill="#161b22" stroke="#0d1117" stroke-width="0.65"/>
<polygon points="105.50,94.57 99.00,91.07 99.00,100.00 105.50,103.50" fill="#003418"/>
<polygon points="112.00,91.07 105.50,94.57 105.50,103.50 112.00,100.00" fill="#004520"/>
<polygon points="105.50,87.57 112.00,91.07 105.50,94.57 99.00,91.07" fill="#006d32" stroke="#0d1117" stroke-width="0.65"/>
<polygon points="190.00,100.00 196.50,103.50 190.00,107.00 183.50,103.50" fill="#161b22" stroke="#0d1117" stroke-width="0.65"/>
<polygon points="177.00,100.00 183.50,103.50 177.00,107.00 170.50,103.50" fill="#161b22" stroke="#0d1117" stroke-width="0.65"/>
<polygon points="164.00,100.00 170.50,103.50 164.00,107.00 157.50,103.50" fill="#161b22" stroke="#0d1117" stroke-width="0.65"/>
<polygon points="151.00,100.00 157.50,103.50 151.00,107.00 144.50,103.50" fill="#161b22" stroke="#0d1117" stroke-width="0.65"/>
<polygon points="138.00,88.29 131.50,84.79 131.50,103.50 138.00,107.00" fill="#124f1f"/>
<polygon points="144.50,84.79 138.00,88.29 138.00,107.00 144.50,103.50" fill="#186a29"/>
<polygon points="138.00,81.29 144.50,84.79 138.00,88.29 131.50,84.79" fill="#26a641" stroke="#0d1117" stroke-width="0.65"/>
<polygon points="125.00,100.00 131.50,103.50 125.00,107.00 118.50,103.50" fill="#161b22" stroke="#0d1117" stroke-width="0.65"/>
<polygon points="112.00,100.00 118.50,103.50 112.00,107.00 105.50,103.50" fill="#161b22" stroke="#0d1117" stroke-width="0.65"/>
<polygon points="196.50,103.50 203.00,107.00 196.50,110.50 190.00,107.00" fill="#161b22" stroke="#0d1117" stroke-width="0.65"/>
<polygon points="183.50,103.50 190.00,107.00 183.50,110.50 177.00,107.00" fill="#161b22" stroke="#0d1117" stroke-width="0.65"/>
<polygon points="170.50,103.50 177.00,107.00 170.50,110.50 164.00,107.00" fill="#161b22" stroke="#0d1117" stroke-width="0.65"/>
<polygon points="157.50,103.50 164.00,107.00 157.50,110.50 151.00,107.00" fill="#161b22" stroke="#0d1117" stroke-width="0.65"/>
<polygon points="144.50,103.50 151.00,107.00 144.50,110.50 138.00,107.00" fill="#161b22" stroke="#0d1117" stroke-width="0.65"/>
<polygon points="131.50,104.87 125.00,101.37 125.00,107.00 131.50,110.50" fill="#062013"/>
<polygon points="138.00,101.37 131.50,104.87 131.50,110.50 138.00,107.00" fill="#082b1a"/>
<polygon points="131.50,97.87 138.00,101.37 131.50,104.87 125.00,101.37" fill="#0e4429" stroke="#0d1117" stroke-width="0.65"/>
<polygon points="118.50,103.50 125.00,107.00 118.50,110.50 112.00,107.00" fill="#161b22" stroke="#0d1117" stroke-width="0.65"/>
<polygon points="203.00,107.00 209.50,110.50 203.00,114.00 196.50,110.50" fill="#161b22" stroke="#0d1117" stroke-width="0.65"/>
<polygon points="190.00,108.37 183.50,104.87 183.50,110.50 190.00,114.00" fill="#062013"/>
<polygon points="196.50,104.87 190.00,108.37 190.00,114.00 196.50,110.50" fill="#082b1a"/>
<polygon points="190.00,101.37 196.50,104.87 190.00,108.37 183.50,104.87" fill="#0e4429" stroke="#0d1117" stroke-width="0.65"/>
<polygon points="177.00,107.00 183.50,110.50 177.00,114.00 170.50,110.50" fill="#161b22" stroke="#0d1117" stroke-width="0.65"/>
<polygon points="164.00,107.00 170.50,110.50 164.00,114.00 157.50,110.50" fill="#161b22" stroke="#0d1117" stroke-width="0.65"/>
<polygon points="151.00,107.00 157.50,110.50 151.00,114.00 144.50,110.50" fill="#161b22" stroke="#0d1117" stroke-width="0.65"/>
<polygon points="138.00,107.00 144.50,110.50 138.00,114.00 131.50,110.50" fill="#161b22" stroke="#0d1117" stroke-width="0.65"/>
<polygon points="125.00,107.00 131.50,110.50 125.00,114.00 118.50,110.50" fill="#161b22" stroke="#0d1117" stroke-width="0.65"/>
<polygon points="209.50,106.24 203.00,102.74 203.00,114.00 209.50,117.50" fill="#003418"/>
<polygon points="216.00,102.74 209.50,106.24 209.50,117.50 216.00,114.00" fill="#004520"/>
<polygon points="209.50,99.24 216.00,102.74 209.50,106.24 203.00,102.74" fill="#006d32" stroke="#0d1117" stroke-width="0.65"/>
<polygon points="196.50,110.50 203.00,114.00 196.50,117.50 190.00,114.00" fill="#161b22" stroke="#0d1117" stroke-width="0.65"/>
<polygon points="183.50,110.50 190.00,114.00 183.50,117.50 177.00,114.00" fill="#161b22" stroke="#0d1117" stroke-width="0.65"/>
<polygon points="170.50,110.50 177.00,114.00 170.50,117.50 164.00,114.00" fill="#161b22" stroke="#0d1117" stroke-width="0.65"/>
<polygon points="157.50,110.50 164.00,114.00 157.50,117.50 151.00,114.00" fill="#161b22" stroke="#0d1117" stroke-width="0.65"/>
<polygon points="144.50,110.50 151.00,114.00 144.50,117.50 138.00,114.00" fill="#161b22" stroke="#0d1117" stroke-width="0.65"/>
<polygon points="131.50,110.50 138.00,114.00 131.50,117.50 125.00,114.00" fill="#161b22" stroke="#0d1117" stroke-width="0.65"/>
<polygon points="216.00,114.00 222.50,117.50 216.00,121.00 209.50,117.50" fill="#161b22" stroke="#0d1117" stroke-width="0.65"/>
<polygon points="203.00,114.00 209.50,117.50 203.00,121.00 196.50,117.50" fill="#161b22" stroke="#0d1117" stroke-width="0.65"/>
<polygon points="190.00,114.00 196.50,117.50 190.00,121.00 183.50,117.50" fill="#161b22" stroke="#0d1117" stroke-width="0.65"/>
<polygon points="177.00,112.07 170.50,108.57 170.50,117.50 177.00,121.00" fill="#003418"/>
<polygon points="183.50,108.57 177.00,112.07 177.00,121.00 183.50,117.50" fill="#004520"/>
<polygon points="177.00,105.07 183.50,108.57 177.00,112.07 170.50,108.57" fill="#006d32" stroke="#0d1117" stroke-width="0.65"/>
<polygon points="164.00,114.00 170.50,117.50 164.00,121.00 157.50,117.50" fill="#161b22" stroke="#0d1117" stroke-width="0.65"/>
<polygon points="151.00,114.00 157.50,117.50 151.00,121.00 144.50,117.50" fill="#161b22" stroke="#0d1117" stroke-width="0.65"/>
<polygon points="138.00,114.00 144.50,117.50 138.00,121.00 131.50,117.50" fill="#161b22" stroke="#0d1117" stroke-width="0.65"/>
<polygon points="222.50,117.50 229.00,121.00 222.50,124.50 216.00,121.00" fill="#161b22" stroke="#0d1117" stroke-width="0.65"/>
<polygon points="209.50,117.50 216.00,121.00 209.50,124.50 203.00,121.00" fill="#161b22" stroke="#0d1117" stroke-width="0.65"/>
<polygon points="196.50,105.02 190.00,101.52 190.00,121.00 196.50,124.50" fill="#1b6527"/>
<polygon points="203.00,101.52 196.50,105.02 196.50,124.50 203.00,121.00" fill="#248735"/>
<polygon points="196.50,98.02 203.00,101.52 196.50,105.02 190.00,101.52" fill="#39d353" stroke="#0d1117" stroke-width="0.65"/>
<polygon points="183.50,117.50 190.00,121.00 183.50,124.50 177.00,121.00" fill="#161b22" stroke="#0d1117" stroke-width="0.65"/>
<polygon points="170.50,117.50 177.00,121.00 170.50,124.50 164.00,121.00" fill="#161b22" stroke="#0d1117" stroke-width="0.65"/>
<polygon points="157.50,117.50 164.00,121.00 157.50,124.50 151.00,121.00" fill="#161b22" stroke="#0d1117" stroke-width="0.65"/>
<polygon points="144.50,117.50 151.00,121.00 144.50,124.50 138.00,121.00" fill="#161b22" stroke="#0d1117" stroke-width="0.65"/>
<polygon points="229.00,121.00 235.50,124.50 229.00,128.00 222.50,124.50" fill="#161b22" stroke="#0d1117" stroke-width="0.65"/>
<polygon points="216.00,121.00 222.50,124.50 216.00,128.00 209.50,124.50" fill="#161b22" stroke="#0d1117" stroke-width="0.65"/>
<polygon points="203.00,121.00 209.50,124.50 203.00,128.00 196.50,124.50" fill="#161b22" stroke="#0d1117" stroke-width="0.65"/>
<polygon points="190.00,113.44 183.50,109.94 183.50,124.50 190.00,128.00" fill="#124f1f"/>
<polygon points="196.50,109.94 190.00,113.44 190.00,128.00 196.50,124.50" fill="#186a29"/>
<polygon points="190.00,106.44 196.50,109.94 190.00,113.44 183.50,109.94" fill="#26a641" stroke="#0d1117" stroke-width="0.65"/>
<polygon points="177.00,121.00 183.50,124.50 177.00,128.00 170.50,124.50" fill="#161b22" stroke="#0d1117" stroke-width="0.65"/>
<polygon points="164.00,121.00 170.50,124.50 164.00,128.00 157.50,124.50" fill="#161b22" stroke="#0d1117" stroke-width="0.65"/>
<polygon points="151.00,121.00 157.50,124.50 151.00,128.00 144.50,124.50" fill="#161b22" stroke="#0d1117" stroke-width="0.65"/>
<polygon points="235.50,124.50 242.00,128.00 235.50,131.50 229.00,128.00" fill="#161b22" stroke="#0d1117" stroke-width="0.65"/>
<polygon points="222.50,124.50 229.00,128.00 222.50,131.50 216.00,128.00" fill="#161b22" stroke="#0d1117" stroke-width="0.65"/>
<polygon points="209.50,124.50 216.00,128.00 209.50,131.50 203.00,128.00" fill="#161b22" stroke="#0d1117" stroke-width="0.65"/>
<polygon points="196.50,125.87 190.00,122.37 190.00,128.00 196.50,131.50" fill="#062013"/>
<polygon points="203.00,122.37 196.50,125.87 196.50,131.50 203.00,128.00" fill="#082b1a"/>
<polygon points="196.50,118.87 203.00,122.37 196.50,125.87 190.00,122.37" fill="#0e4429" stroke="#0d1117" stroke-width="0.65"/>
<polygon points="183.50,122.57 177.00,119.07 177.00,128.00 183.50,131.50" fill="#003418"/>
<polygon points="190.00,119.07 183.50,122.57 183.50,131.50 190.00,128.00" fill="#004520"/>
<polygon points="183.50,115.57 190.00,119.07 183.50,122.57 177.00,119.07" fill="#006d32" stroke="#0d1117" stroke-width="0.65"/>
<polygon points="170.50,124.50 177.00,128.00 170.50,131.50 164.00,128.00" fill="#161b22" stroke="#0d1117" stroke-width="0.65"/>
<polygon points="157.50,124.50 164.00,128.00 157.50,131.50 151.00,128.00" fill="#161b22" stroke="#0d1117" stroke-width="0.65"/>
<polygon points="242.00,128.00 248.50,131.50 242.00,135.00 235.50,131.50" fill="#161b22" stroke="#0d1117" stroke-width="0.65"/>
<polygon points="229.00,128.00 235.50,131.50 229.00,135.00 222.50,131.50" fill="#161b22" stroke="#0d1117" stroke-width="0.65"/>
<polygon points="216.00,129.37 209.50,125.87 209.50,131.50 216.00,135.00" fill="#062013"/>
<polygon points="222.50,125.87 216.00,129.37 216.00,135.00 222.50,131.50" fill="#082b1a"/>
<polygon points="216.00,122.37 222.50,125.87 216.00,129.37 209.50,125.87" fill="#0e4429" stroke="#0d1117" stroke-width="0.65"/>
<polygon points="203.00,129.37 196.50,125.87 196.50,131.50 203.00,135.00" fill="#062013"/>
<polygon points="209.50,125.87 203.00,129.37 203.00,135.00 209.50,131.50" fill="#082b1a"/>
<polygon points="203.00,122.37 209.50,125.87 203.00,129.37 196.50,125.87" fill="#0e4429" stroke="#0d1117" stroke-width="0.65"/>
<polygon points="190.00,128.00 196.50,131.50 190.00,135.00 183.50,131.50" fill="#161b22" stroke="#0d1117" stroke-width="0.65"/>
<polygon points="177.00,129.37 170.50,125.87 170.50,131.50 177.00,135.00" fill="#062013"/>
<polygon points="183.50,125.87 177.00,129.37 177.00,135.00 183.50,131.50" fill="#082b1a"/>
<polygon points="177.00,122.37 183.50,125.87 177.00,129.37 170.50,125.87" fill="#0e4429" stroke="#0d1117" stroke-width="0.65"/>
<polygon points="164.00,126.07 157.50,122.57 157.50,131.50 164.00,135.00" fill="#003418"/>
<polygon points="170.50,122.57 164.00,126.07 164.00,135.00 170.50,131.50" fill="#004520"/>
<polygon points="164.00,119.07 170.50,122.57 164.00,126.07 157.50,122.57" fill="#006d32" stroke="#0d1117" stroke-width="0.65"/>
<polygon points="248.50,131.50 255.00,135.00 248.50,138.50 242.00,135.00" fill="#161b22" stroke="#0d1117" stroke-width="0.65"/>
<polygon points="235.50,131.50 242.00,135.00 235.50,138.50 229.00,135.00" fill="#161b22" stroke="#0d1117" stroke-width="0.65"/>
<polygon points="222.50,131.50 229.00,135.00 222.50,138.50 216.00,135.00" fill="#161b22" stroke="#0d1117" stroke-width="0.65"/>
<polygon points="209.50,131.50 216.00,135.00 209.50,138.50 203.00,135.00" fill="#161b22" stroke="#0d1117" stroke-width="0.65"/>
<polygon points="196.50,131.50 203.00,135.00 196.50,138.50 190.00,135.00" fill="#161b22" stroke="#0d1117" stroke-width="0.65"/>
<polygon points="183.50,131.50 190.00,135.00 183.50,138.50 177.00,135.00" fill="#161b22" stroke="#0d1117" stroke-width="0.65"/>
<polygon points="170.50,131.50 177.00,135.00 170.50,138.50 164.00,135.00" fill="#161b22" stroke="#0d1117" stroke-width="0.65"/>
<polygon points="255.00,135.00 261.50,138.50 255.00,142.00 248.50,138.50" fill="#161b22" stroke="#0d1117" stroke-width="0.65"/>
<polygon points="242.00,135.00 248.50,138.50 242.00,142.00 235.50,138.50" fill="#161b22" stroke="#0d1117" stroke-width="0.65"/>
<polygon points="229.00,135.00 235.50,138.50 229.00,142.00 222.50,138.50" fill="#161b22" stroke="#0d1117" stroke-width="0.65"/>
<polygon points="216.00,136.37 209.50,132.87 209.50,138.50 216.00,142.00" fill="#062013"/>
<polygon points="222.50,132.87 216.00,136.37 216.00,142.00 222.50,138.50" fill="#082b1a"/>
<polygon points="216.00,129.37 222.50,132.87 216.00,136.37 209.50,132.87" fill="#0e4429" stroke="#0d1117" stroke-width="0.65"/>
<polygon points="203.00,135.00 209.50,138.50 203.00,142.00 196.50,138.50" fill="#161b22" stroke="#0d1117" stroke-width="0.65"/>
<polygon points="190.00,135.00 196.50,138.50 190.00,142.00 183.50,138.50" fill="#161b22" stroke="#0d1117" stroke-width="0.65"/>
<polygon points="177.00,135.00 183.50,138.50 177.00,142.00 170.50,138.50" fill="#161b22" stroke="#0d1117" stroke-width="0.65"/>
<polygon points="261.50,138.50 268.00,142.00 261.50,145.50 255.00,142.00" fill="#161b22" stroke="#0d1117" stroke-width="0.65"/>
<polygon points="248.50,132.43 242.00,128.93 242.00,142.00 248.50,145.50" fill="#003418"/>
<polygon points="255.00,128.93 248.50,132.43 248.50,145.50 255.00,142.00" fill="#004520"/>
<polygon points="248.50,125.43 255.00,128.93 248.50,132.43 242.00,128.93" fill="#006d32" stroke="#0d1117" stroke-width="0.65"/>
<polygon points="235.50,136.57 229.00,133.07 229.00,142.00 235.50,145.50" fill="#003418"/>
<polygon points="242.00,133.07 235.50,136.57 235.50,145.50 242.00,142.00" fill="#004520"/>
<polygon points="235.50,129.57 242.00,133.07 235.50,136.57 229.00,133.07" fill="#006d32" stroke="#0d1117" stroke-width="0.65"/>
<polygon points="222.50,138.50 229.00,142.00 222.50,145.50 216.00,142.00" fill="#161b22" stroke="#0d1117" stroke-width="0.65"/>
<polygon points="209.50,138.50 216.00,142.00 209.50,145.50 203.00,142.00" fill="#161b22" stroke="#0d1117" stroke-width="0.65"/>
<polygon points="196.50,139.87 190.00,136.37 190.00,142.00 196.50,145.50" fill="#062013"/>
<polygon points="203.00,136.37 196.50,139.87 196.50,145.50 203.00,142.00" fill="#082b1a"/>
<polygon points="196.50,132.87 203.00,136.37 196.50,139.87 190.00,136.37" fill="#0e4429" stroke="#0d1117" stroke-width="0.65"/>
<polygon points="183.50,138.50 190.00,142.00 183.50,145.50 177.00,142.00" fill="#161b22" stroke="#0d1117" stroke-width="0.65"/>
<polygon points="268.00,142.00 274.50,145.50 268.00,149.00 261.50,145.50" fill="#161b22" stroke="#0d1117" stroke-width="0.65"/>
<polygon points="255.00,143.37 248.50,139.87 248.50,145.50 255.00,149.00" fill="#062013"/>
<polygon points="261.50,139.87 255.00,143.37 255.00,149.00 261.50,145.50" fill="#082b1a"/>
<polygon points="255.00,136.37 261.50,139.87 255.00,143.37 248.50,139.87" fill="#0e4429" stroke="#0d1117" stroke-width="0.65"/>
<polygon points="242.00,142.00 248.50,145.50 242.00,149.00 235.50,145.50" fill="#161b22" stroke="#0d1117" stroke-width="0.65"/>
<polygon points="229.00,143.37 222.50,139.87 222.50,145.50 229.00,149.00" fill="#062013"/>
<polygon points="235.50,139.87 229.00,143.37 229.00,149.00 235.50,145.50" fill="#082b1a"/>
<polygon points="229.00,136.37 235.50,139.87 229.00,143.37 222.50,139.87" fill="#0e4429" stroke="#0d1117" stroke-width="0.65"/>
<polygon points="216.00,142.00 222.50,145.50 216.00,149.00 209.50,145.50" fill="#161b22" stroke="#0d1117" stroke-width="0.65"/>
<polygon points="203.00,142.00 209.50,145.50 203.00,149.00 196.50,145.50" fill="#161b22" stroke="#0d1117" stroke-width="0.65"/>
<polygon points="190.00,142.00 196.50,145.50 190.00,149.00 183.50,145.50" fill="#161b22" stroke="#0d1117" stroke-width="0.65"/>
<polygon points="274.50,145.50 281.00,149.00 274.50,152.50 268.00,149.00" fill="#161b22" stroke="#0d1117" stroke-width="0.65"/>
<polygon points="261.50,146.87 255.00,143.37 255.00,149.00 261.50,152.50" fill="#062013"/>
<polygon points="268.00,143.37 261.50,146.87 261.50,152.50 268.00,149.00" fill="#082b1a"/>
<polygon points="261.50,139.87 268.00,143.37 261.50,146.87 255.00,143.37" fill="#0e4429" stroke="#0d1117" stroke-width="0.65"/>
<polygon points="248.50,146.87 242.00,143.37 242.00,149.00 248.50,152.50" fill="#062013"/>
<polygon points="255.00,143.37 248.50,146.87 248.50,152.50 255.00,149.00" fill="#082b1a"/>
<polygon points="248.50,139.87 255.00,143.37 248.50,146.87 242.00,143.37" fill="#0e4429" stroke="#0d1117" stroke-width="0.65"/>
<polygon points="235.50,145.50 242.00,149.00 235.50,152.50 229.00,149.00" fill="#161b22" stroke="#0d1117" stroke-width="0.65"/>
<polygon points="222.50,145.50 229.00,149.00 222.50,152.50 216.00,149.00" fill="#161b22" stroke="#0d1117" stroke-width="0.65"/>
<polygon points="209.50,145.50 216.00,149.00 209.50,152.50 203.00,149.00" fill="#161b22" stroke="#0d1117" stroke-width="0.65"/>
<polygon points="196.50,145.50 203.00,149.00 196.50,152.50 190.00,149.00" fill="#161b22" stroke="#0d1117" stroke-width="0.65"/>
<polygon points="281.00,149.00 287.50,152.50 281.00,156.00 274.50,152.50" fill="#161b22" stroke="#0d1117" stroke-width="0.65"/>
<polygon points="268.00,149.00 274.50,152.50 268.00,156.00 261.50,152.50" fill="#161b22" stroke="#0d1117" stroke-width="0.65"/>
<polygon points="255.00,147.07 248.50,143.57 248.50,152.50 255.00,156.00" fill="#003418"/>
<polygon points="261.50,143.57 255.00,147.07 255.00,156.00 261.50,152.50" fill="#004520"/>
<polygon points="255.00,140.07 261.50,143.57 255.00,147.07 248.50,143.57" fill="#006d32" stroke="#0d1117" stroke-width="0.65"/>
<polygon points="242.00,150.37 235.50,146.87 235.50,152.50 242.00,156.00" fill="#062013"/>
<polygon points="248.50,146.87 242.00,150.37 242.00,156.00 248.50,152.50" fill="#082b1a"/>
<polygon points="242.00,143.37 248.50,146.87 242.00,150.37 235.50,146.87" fill="#0e4429" stroke="#0d1117" stroke-width="0.65"/>
<polygon points="229.00,149.00 235.50,152.50 229.00,156.00 222.50,152.50" fill="#161b22" stroke="#0d1117" stroke-width="0.65"/>
<polygon points="216.00,141.44 209.50,137.94 209.50,152.50 216.00,156.00" fill="#124f1f"/>
<polygon points="222.50,137.94 216.00,141.44 216.00,156.00 222.50,152.50" fill="#186a29"/>
<polygon points="216.00,134.44 222.50,137.94 216.00,141.44 209.50,137.94" fill="#26a641" stroke="#0d1117" stroke-width="0.65"/>
<polygon points="203.00,147.07 196.50,143.57 196.50,152.50 203.00,156.00" fill="#003418"/>
<polygon points="209.50,143.57 203.00,147.07 203.00,156.00 209.50,152.50" fill="#004520"/>
<polygon points="203.00,140.07 209.50,143.57 203.00,147.07 196.50,143.57" fill="#006d32" stroke="#0d1117" stroke-width="0.65"/>
<polygon points="287.50,152.50 294.00,156.00 287.50,159.50 281.00,156.00" fill="#161b22" stroke="#0d1117" stroke-width="0.65"/>
<polygon points="274.50,153.87 268.00,150.37 268.00,156.00 274.50,159.50" fill="#062013"/>
<polygon points="281.00,150.37 274.50,153.87 274.50,159.50 281.00,156.00" fill="#082b1a"/>
<polygon points="274.50,146.87 281.00,150.37 274.50,153.87 268.00,150.37" fill="#0e4429" stroke="#0d1117" stroke-width="0.65"/>
<polygon points="261.50,152.50 268.00,156.00 261.50,159.50 255.00,156.00" fill="#161b22" stroke="#0d1117" stroke-width="0.65"/>
<polygon points="248.50,152.50 255.00,156.00 248.50,159.50 242.00,156.00" fill="#161b22" stroke="#0d1117" stroke-width="0.65"/>
<polygon points="235.50,150.57 229.00,147.07 229.00,156.00 235.50,159.50" fill="#003418"/>
<polygon points="242.00,147.07 235.50,150.57 235.50,159.50 242.00,156.00" fill="#004520"/>
<polygon points="235.50,143.57 242.00,147.07 235.50,150.57 229.00,147.07" fill="#006d32" stroke="#0d1117" stroke-width="0.65"/>
<polygon points="222.50,150.57 216.00,147.07 216.00,156.00 222.50,159.50" fill="#003418"/>
<polygon points="229.00,147.07 222.50,150.57 222.50,159.50 229.00,156.00" fill="#004520"/>
<polygon points="222.50,143.57 229.00,147.07 222.50,150.57 216.00,147.07" fill="#006d32" stroke="#0d1117" stroke-width="0.65"/>
<polygon points="209.50,152.50 216.00,156.00 209.50,159.50 203.00,156.00" fill="#161b22" stroke="#0d1117" stroke-width="0.65"/>
<polygon points="294.00,156.00 300.50,159.50 294.00,163.00 287.50,159.50" fill="#161b22" stroke="#0d1117" stroke-width="0.65"/>
<polygon points="281.00,156.00 287.50,159.50 281.00,163.00 274.50,159.50" fill="#161b22" stroke="#0d1117" stroke-width="0.65"/>
<polygon points="268.00,156.00 274.50,159.50 268.00,163.00 261.50,159.50" fill="#161b22" stroke="#0d1117" stroke-width="0.65"/>
<polygon points="255.00,157.37 248.50,153.87 248.50,159.50 255.00,163.00" fill="#062013"/>
<polygon points="261.50,153.87 255.00,157.37 255.00,163.00 261.50,159.50" fill="#082b1a"/>
<polygon points="255.00,150.37 261.50,153.87 255.00,157.37 248.50,153.87" fill="#0e4429" stroke="#0d1117" stroke-width="0.65"/>
<polygon points="242.00,156.00 248.50,159.50 242.00,163.00 235.50,159.50" fill="#161b22" stroke="#0d1117" stroke-width="0.65"/>
<polygon points="229.00,157.37 222.50,153.87 222.50,159.50 229.00,163.00" fill="#062013"/>
<polygon points="235.50,153.87 229.00,157.37 229.00,163.00 235.50,159.50" fill="#082b1a"/>
<polygon points="229.00,150.37 235.50,153.87 229.00,157.37 222.50,153.87" fill="#0e4429" stroke="#0d1117" stroke-width="0.65"/>
<polygon points="216.00,154.07 209.50,150.57 209.50,159.50 216.00,163.00" fill="#003418"/>
<polygon points="222.50,150.57 216.00,154.07 216.00,163.00 222.50,159.50" fill="#004520"/>
<polygon points="216.00,147.07 222.50,150.57 216.00,154.07 209.50,150.57" fill="#006d32" stroke="#0d1117" stroke-width="0.65"/>
<polygon points="300.50,159.50 307.00,163.00 300.50,166.50 294.00,163.00" fill="#161b22" stroke="#0d1117" stroke-width="0.65"/>
<polygon points="287.50,160.87 281.00,157.37 281.00,163.00 287.50,166.50" fill="#062013"/>
<polygon points="294.00,157.37 287.50,160.87 287.50,166.50 294.00,163.00" fill="#082b1a"/>
<polygon points="287.50,153.87 294.00,157.37 287.50,160.87 281.00,157.37" fill="#0e4429" stroke="#0d1117" stroke-width="0.65"/>
<polygon points="274.50,160.87 268.00,157.37 268.00,163.00 274.50,166.50" fill="#062013"/>
<polygon points="281.00,157.37 274.50,160.87 274.50,166.50 281.00,163.00" fill="#082b1a"/>
<polygon points="274.50,153.87 281.00,157.37 274.50,160.87 268.00,157.37" fill="#0e4429" stroke="#0d1117" stroke-width="0.65"/>
<polygon points="261.50,159.50 268.00,163.00 261.50,166.50 255.00,163.00" fill="#161b22" stroke="#0d1117" stroke-width="0.65"/>
<polygon points="248.50,160.87 242.00,157.37 242.00,163.00 248.50,166.50" fill="#062013"/>
<polygon points="255.00,157.37 248.50,160.87 248.50,166.50 255.00,163.00" fill="#082b1a"/>
<polygon points="248.50,153.87 255.00,157.37 248.50,160.87 242.00,157.37" fill="#0e4429" stroke="#0d1117" stroke-width="0.65"/>
<polygon points="235.50,159.50 242.00,163.00 235.50,166.50 229.00,163.00" fill="#161b22" stroke="#0d1117" stroke-width="0.65"/>
<polygon points="222.50,157.57 216.00,154.07 216.00,163.00 222.50,166.50" fill="#003418"/>
<polygon points="229.00,154.07 222.50,157.57 222.50,166.50 229.00,163.00" fill="#004520"/>
<polygon points="222.50,150.57 229.00,154.07 222.50,157.57 216.00,154.07" fill="#006d32" stroke="#0d1117" stroke-width="0.65"/>
<polygon points="307.00,163.00 313.50,166.50 307.00,170.00 300.50,166.50" fill="#161b22" stroke="#0d1117" stroke-width="0.65"/>
<polygon points="294.00,163.00 300.50,166.50 294.00,170.00 287.50,166.50" fill="#161b22" stroke="#0d1117" stroke-width="0.65"/>
<polygon points="281.00,163.00 287.50,166.50 281.00,170.00 274.50,166.50" fill="#161b22" stroke="#0d1117" stroke-width="0.65"/>
<polygon points="268.00,164.37 261.50,160.87 261.50,166.50 268.00,170.00" fill="#062013"/>
<polygon points="274.50,160.87 268.00,164.37 268.00,170.00 274.50,166.50" fill="#082b1a"/>
<polygon points="268.00,157.37 274.50,160.87 268.00,164.37 261.50,160.87" fill="#0e4429" stroke="#0d1117" stroke-width="0.65"/>
<polygon points="255.00,163.00 261.50,166.50 255.00,170.00 248.50,166.50" fill="#161b22" stroke="#0d1117" stroke-width="0.65"/>
<polygon points="242.00,163.00 248.50,166.50 242.00,170.00 235.50,166.50" fill="#161b22" stroke="#0d1117" stroke-width="0.65"/>
<polygon points="229.00,163.00 235.50,166.50 229.00,170.00 222.50,166.50" fill="#161b22" stroke="#0d1117" stroke-width="0.65"/>
<polygon points="313.50,166.50 320.00,170.00 313.50,173.50 307.00,170.00" fill="#161b22" stroke="#0d1117" stroke-width="0.65"/>
<polygon points="300.50,166.50 307.00,170.00 300.50,173.50 294.00,170.00" fill="#161b22" stroke="#0d1117" stroke-width="0.65"/>
<polygon points="287.50,166.50 294.00,170.00 287.50,173.50 281.00,170.00" fill="#161b22" stroke="#0d1117" stroke-width="0.65"/>
<polygon points="274.50,166.50 281.00,170.00 274.50,173.50 268.00,170.00" fill="#161b22" stroke="#0d1117" stroke-width="0.65"/>
<polygon points="261.50,166.50 268.00,170.00 261.50,173.50 255.00,170.00" fill="#161b22" stroke="#0d1117" stroke-width="0.65"/>
<polygon points="248.50,166.50 255.00,170.00 248.50,173.50 242.00,170.00" fill="#161b22" stroke="#0d1117" stroke-width="0.65"/>
<polygon points="235.50,164.57 229.00,161.07 229.00,170.00 235.50,173.50" fill="#003418"/>
<polygon points="242.00,161.07 235.50,164.57 235.50,173.50 242.00,170.00" fill="#004520"/>
<polygon points="235.50,157.57 242.00,161.07 235.50,164.57 229.00,161.07" fill="#006d32" stroke="#0d1117" stroke-width="0.65"/>
<polygon points="320.00,170.00 326.50,173.50 320.00,177.00 313.50,173.50" fill="#161b22" stroke="#0d1117" stroke-width="0.65"/>
<polygon points="307.00,170.00 313.50,173.50 307.00,177.00 300.50,173.50" fill="#161b22" stroke="#0d1117" stroke-width="0.65"/>
<polygon points="294.00,170.00 300.50,173.50 294.00,177.00 287.50,173.50" fill="#161b22" stroke="#0d1117" stroke-width="0.65"/>
<polygon points="281.00,170.00 287.50,173.50 281.00,177.00 274.50,173.50" fill="#161b22" stroke="#0d1117" stroke-width="0.65"/>
<polygon points="268.00,165.74 261.50,162.24 261.50,173.50 268.00,177.00" fill="#003418"/>
<polygon points="274.50,162.24 268.00,165.74 268.00,177.00 274.50,173.50" fill="#004520"/>
<polygon points="268.00,158.74 274.50,162.24 268.00,165.74 261.50,162.24" fill="#006d32" stroke="#0d1117" stroke-width="0.65"/>
<polygon points="255.00,170.00 261.50,173.50 255.00,177.00 248.50,173.50" fill="#161b22" stroke="#0d1117" stroke-width="0.65"/>
<polygon points="242.00,171.37 235.50,167.87 235.50,173.50 242.00,177.00" fill="#062013"/>
<polygon points="248.50,167.87 242.00,171.37 242.00,177.00 248.50,173.50" fill="#082b1a"/>
<polygon points="242.00,164.37 248.50,167.87 242.00,171.37 235.50,167.87" fill="#0e4429" stroke="#0d1117" stroke-width="0.65"/>
<polygon points="326.50,173.50 333.00,177.00 326.50,180.50 320.00,177.00" fill="#161b22" stroke="#0d1117" stroke-width="0.65"/>
<polygon points="313.50,173.50 320.00,177.00 313.50,180.50 307.00,177.00" fill="#161b22" stroke="#0d1117" stroke-width="0.65"/>
<polygon points="300.50,173.50 307.00,177.00 300.50,180.50 294.00,177.00" fill="#161b22" stroke="#0d1117" stroke-width="0.65"/>
<polygon points="287.50,173.50 294.00,177.00 287.50,180.50 281.00,177.00" fill="#161b22" stroke="#0d1117" stroke-width="0.65"/>
<polygon points="274.50,173.50 281.00,177.00 274.50,180.50 268.00,177.00" fill="#161b22" stroke="#0d1117" stroke-width="0.65"/>
<polygon points="261.50,173.50 268.00,177.00 261.50,180.50 255.00,177.00" fill="#161b22" stroke="#0d1117" stroke-width="0.65"/>
<polygon points="248.50,173.50 255.00,177.00 248.50,180.50 242.00,177.00" fill="#161b22" stroke="#0d1117" stroke-width="0.65"/>
<polygon points="333.00,177.00 339.50,180.50 333.00,184.00 326.50,180.50" fill="#161b22" stroke="#0d1117" stroke-width="0.65"/>
<polygon points="320.00,178.37 313.50,174.87 313.50,180.50 320.00,184.00" fill="#062013"/>
<polygon points="326.50,174.87 320.00,178.37 320.00,184.00 326.50,180.50" fill="#082b1a"/>
<polygon points="320.00,171.37 326.50,174.87 320.00,178.37 313.50,174.87" fill="#0e4429" stroke="#0d1117" stroke-width="0.65"/>
<polygon points="307.00,177.00 313.50,180.50 307.00,184.00 300.50,180.50" fill="#161b22" stroke="#0d1117" stroke-width="0.65"/>
<polygon points="294.00,177.00 300.50,180.50 294.00,184.00 287.50,180.50" fill="#161b22" stroke="#0d1117" stroke-width="0.65"/>
<polygon points="281.00,178.37 274.50,174.87 274.50,180.50 281.00,184.00" fill="#062013"/>
<polygon points="287.50,174.87 281.00,178.37 281.00,184.00 287.50,180.50" fill="#082b1a"/>
<polygon points="281.00,171.37 287.50,174.87 281.00,178.37 274.50,174.87" fill="#0e4429" stroke="#0d1117" stroke-width="0.65"/>
<polygon points="268.00,177.00 274.50,180.50 268.00,184.00 261.50,180.50" fill="#161b22" stroke="#0d1117" stroke-width="0.65"/>
<polygon points="255.00,177.00 261.50,180.50 255.00,184.00 248.50,180.50" fill="#161b22" stroke="#0d1117" stroke-width="0.65"/>
<polygon points="339.50,180.50 346.00,184.00 339.50,187.50 333.00,184.00" fill="#161b22" stroke="#0d1117" stroke-width="0.65"/>
<polygon points="326.50,174.43 320.00,170.93 320.00,184.00 326.50,187.50" fill="#003418"/>
<polygon points="333.00,170.93 326.50,174.43 326.50,187.50 333.00,184.00" fill="#004520"/>
<polygon points="326.50,167.43 333.00,170.93 326.50,174.43 320.00,170.93" fill="#006d32" stroke="#0d1117" stroke-width="0.65"/>
<polygon points="313.50,181.87 307.00,178.37 307.00,184.00 313.50,187.50" fill="#062013"/>
<polygon points="320.00,178.37 313.50,181.87 313.50,187.50 320.00,184.00" fill="#082b1a"/>
<polygon points="313.50,174.87 320.00,178.37 313.50,181.87 307.00,178.37" fill="#0e4429" stroke="#0d1117" stroke-width="0.65"/>
<polygon points="300.50,180.50 307.00,184.00 300.50,187.50 294.00,184.00" fill="#161b22" stroke="#0d1117" stroke-width="0.65"/>
<polygon points="287.50,180.50 294.00,184.00 287.50,187.50 281.00,184.00" fill="#161b22" stroke="#0d1117" stroke-width="0.65"/>
<polygon points="274.50,180.50 281.00,184.00 274.50,187.50 268.00,184.00" fill="#161b22" stroke="#0d1117" stroke-width="0.65"/>
<polygon points="261.50,180.50 268.00,184.00 261.50,187.50 255.00,184.00" fill="#161b22" stroke="#0d1117" stroke-width="0.65"/>
<polygon points="346.00,184.00 352.50,187.50 346.00,191.00 339.50,187.50" fill="#161b22" stroke="#0d1117" stroke-width="0.65"/>
<polygon points="333.00,185.37 326.50,181.87 326.50,187.50 333.00,191.00" fill="#062013"/>
<polygon points="339.50,181.87 333.00,185.37 333.00,191.00 339.50,187.50" fill="#082b1a"/>
<polygon points="333.00,178.37 339.50,181.87 333.00,185.37 326.50,181.87" fill="#0e4429" stroke="#0d1117" stroke-width="0.65"/>
<polygon points="320.00,184.00 326.50,187.50 320.00,191.00 313.50,187.50" fill="#161b22" stroke="#0d1117" stroke-width="0.65"/>
<polygon points="307.00,184.00 313.50,187.50 307.00,191.00 300.50,187.50" fill="#161b22" stroke="#0d1117" stroke-width="0.65"/>
<polygon points="294.00,184.00 300.50,187.50 294.00,191.00 287.50,187.50" fill="#161b22" stroke="#0d1117" stroke-width="0.65"/>
<polygon points="281.00,184.00 287.50,187.50 281.00,191.00 274.50,187.50" fill="#161b22" stroke="#0d1117" stroke-width="0.65"/>
<polygon points="268.00,184.00 274.50,187.50 268.00,191.00 261.50,187.50" fill="#161b22" stroke="#0d1117" stroke-width="0.65"/>
<polygon points="352.50,187.50 359.00,191.00 352.50,194.50 346.00,191.00" fill="#161b22" stroke="#0d1117" stroke-width="0.65"/>
<polygon points="339.50,187.50 346.00,191.00 339.50,194.50 333.00,191.00" fill="#161b22" stroke="#0d1117" stroke-width="0.65"/>
<polygon points="326.50,187.50 333.00,191.00 326.50,194.50 320.00,191.00" fill="#161b22" stroke="#0d1117" stroke-width="0.65"/>
<polygon points="313.50,187.50 320.00,191.00 313.50,194.50 307.00,191.00" fill="#161b22" stroke="#0d1117" stroke-width="0.65"/>
<polygon points="300.50,187.50 307.00,191.00 300.50,194.50 294.00,191.00" fill="#161b22" stroke="#0d1117" stroke-width="0.65"/>
<polygon points="287.50,187.50 294.00,191.00 287.50,194.50 281.00,191.00" fill="#161b22" stroke="#0d1117" stroke-width="0.65"/>
<polygon points="274.50,187.50 281.00,191.00 274.50,194.50 268.00,191.00" fill="#161b22" stroke="#0d1117" stroke-width="0.65"/>
<polygon points="359.00,191.00 365.50,194.50 359.00,198.00 352.50,194.50" fill="#161b22" stroke="#0d1117" stroke-width="0.65"/>
<polygon points="346.00,191.00 352.50,194.50 346.00,198.00 339.50,194.50" fill="#161b22" stroke="#0d1117" stroke-width="0.65"/>
<polygon points="333.00,191.00 339.50,194.50 333.00,198.00 326.50,194.50" fill="#161b22" stroke="#0d1117" stroke-width="0.65"/>
<polygon points="320.00,191.00 326.50,194.50 320.00,198.00 313.50,194.50" fill="#161b22" stroke="#0d1117" stroke-width="0.65"/>
<polygon points="307.00,191.00 313.50,194.50 307.00,198.00 300.50,194.50" fill="#161b22" stroke="#0d1117" stroke-width="0.65"/>
<polygon points="294.00,191.00 300.50,194.50 294.00,198.00 287.50,194.50" fill="#161b22" stroke="#0d1117" stroke-width="0.65"/>
<polygon points="281.00,189.07 274.50,185.57 274.50,194.50 281.00,198.00" fill="#003418"/>
<polygon points="287.50,185.57 281.00,189.07 281.00,198.00 287.50,194.50" fill="#004520"/>
<polygon points="281.00,182.07 287.50,185.57 281.00,189.07 274.50,185.57" fill="#006d32" stroke="#0d1117" stroke-width="0.65"/>
<polygon points="365.50,194.50 372.00,198.00 365.50,201.50 359.00,198.00" fill="#161b22" stroke="#0d1117" stroke-width="0.65"/>
<polygon points="352.50,194.50 359.00,198.00 352.50,201.50 346.00,198.00" fill="#161b22" stroke="#0d1117" stroke-width="0.65"/>
<polygon points="339.50,194.50 346.00,198.00 339.50,201.50 333.00,198.00" fill="#161b22" stroke="#0d1117" stroke-width="0.65"/>
<polygon points="326.50,194.50 333.00,198.00 326.50,201.50 320.00,198.00" fill="#161b22" stroke="#0d1117" stroke-width="0.65"/>
<polygon points="313.50,194.50 320.00,198.00 313.50,201.50 307.00,198.00" fill="#161b22" stroke="#0d1117" stroke-width="0.65"/>
<polygon points="300.50,192.57 294.00,189.07 294.00,198.00 300.50,201.50" fill="#003418"/>
<polygon points="307.00,189.07 300.50,192.57 300.50,201.50 307.00,198.00" fill="#004520"/>
<polygon points="300.50,185.57 307.00,189.07 300.50,192.57 294.00,189.07" fill="#006d32" stroke="#0d1117" stroke-width="0.65"/>
<polygon points="287.50,194.50 294.00,198.00 287.50,201.50 281.00,198.00" fill="#161b22" stroke="#0d1117" stroke-width="0.65"/>
<polygon points="372.00,198.00 378.50,201.50 372.00,205.00 365.50,201.50" fill="#161b22" stroke="#0d1117" stroke-width="0.65"/>
<polygon points="359.00,198.00 365.50,201.50 359.00,205.00 352.50,201.50" fill="#161b22" stroke="#0d1117" stroke-width="0.65"/>
<polygon points="346.00,198.00 352.50,201.50 346.00,205.00 339.50,201.50" fill="#161b22" stroke="#0d1117" stroke-width="0.65"/>
<polygon points="333.00,198.00 339.50,201.50 333.00,205.00 326.50,201.50" fill="#161b22" stroke="#0d1117" stroke-width="0.65"/>
<polygon points="320.00,198.00 326.50,201.50 320.00,205.00 313.50,201.50" fill="#161b22" stroke="#0d1117" stroke-width="0.65"/>
<polygon points="307.00,199.37 300.50,195.87 300.50,201.50 307.00,205.00" fill="#062013"/>
<polygon points="313.50,195.87 307.00,199.37 307.00,205.00 313.50,201.50" fill="#082b1a"/>
<polygon points="307.00,192.37 313.50,195.87 307.00,199.37 300.50,195.87" fill="#0e4429" stroke="#0d1117" stroke-width="0.65"/>
<polygon points="294.00,199.37 287.50,195.87 287.50,201.50 294.00,205.00" fill="#062013"/>
<polygon points="300.50,195.87 294.00,199.37 294.00,205.00 300.50,201.50" fill="#082b1a"/>
<polygon points="294.00,192.37 300.50,195.87 294.00,199.37 287.50,195.87" fill="#0e4429" stroke="#0d1117" stroke-width="0.65"/>
<polygon points="378.50,201.50 385.00,205.00 378.50,208.50 372.00,205.00" fill="#161b22" stroke="#0d1117" stroke-width="0.65"/>
<polygon points="365.50,201.50 372.00,205.00 365.50,208.50 359.00,205.00" fill="#161b22" stroke="#0d1117" stroke-width="0.65"/>
<polygon points="352.50,201.50 359.00,205.00 352.50,208.50 346.00,205.00" fill="#161b22" stroke="#0d1117" stroke-width="0.65"/>
<polygon points="339.50,201.50 346.00,205.00 339.50,208.50 333.00,205.00" fill="#161b22" stroke="#0d1117" stroke-width="0.65"/>
<polygon points="326.50,201.50 333.00,205.00 326.50,208.50 320.00,205.00" fill="#161b22" stroke="#0d1117" stroke-width="0.65"/>
<polygon points="313.50,201.50 320.00,205.00 313.50,208.50 307.00,205.00" fill="#161b22" stroke="#0d1117" stroke-width="0.65"/>
<polygon points="300.50,201.50 307.00,205.00 300.50,208.50 294.00,205.00" fill="#161b22" stroke="#0d1117" stroke-width="0.65"/>
<polygon points="385.00,205.00 391.50,208.50 385.00,212.00 378.50,208.50" fill="#161b22" stroke="#0d1117" stroke-width="0.65"/>
<polygon points="372.00,205.00 378.50,208.50 372.00,212.00 365.50,208.50" fill="#161b22" stroke="#0d1117" stroke-width="0.65"/>
<polygon points="359.00,205.00 365.50,208.50 359.00,212.00 352.50,208.50" fill="#161b22" stroke="#0d1117" stroke-width="0.65"/>
<polygon points="346.00,205.00 352.50,208.50 346.00,212.00 339.50,208.50" fill="#161b22" stroke="#0d1117" stroke-width="0.65"/>
<polygon points="333.00,200.74 326.50,197.24 326.50,208.50 333.00,212.00" fill="#003418"/>
<polygon points="339.50,197.24 333.00,200.74 333.00,212.00 339.50,208.50" fill="#004520"/>
<polygon points="333.00,193.74 339.50,197.24 333.00,200.74 326.50,197.24" fill="#006d32" stroke="#0d1117" stroke-width="0.65"/>
<polygon points="320.00,205.00 326.50,208.50 320.00,212.00 313.50,208.50" fill="#161b22" stroke="#0d1117" stroke-width="0.65"/>
<polygon points="307.00,205.00 313.50,208.50 307.00,212.00 300.50,208.50" fill="#161b22" stroke="#0d1117" stroke-width="0.65"/>
<polygon points="391.50,208.50 398.00,212.00 391.50,215.50 385.00,212.00" fill="#161b22" stroke="#0d1117" stroke-width="0.65"/>
<polygon points="378.50,208.50 385.00,212.00 378.50,215.50 372.00,212.00" fill="#161b22" stroke="#0d1117" stroke-width="0.65"/>
<polygon points="365.50,208.50 372.00,212.00 365.50,215.50 359.00,212.00" fill="#161b22" stroke="#0d1117" stroke-width="0.65"/>
<polygon points="352.50,208.50 359.00,212.00 352.50,215.50 346.00,212.00" fill="#161b22" stroke="#0d1117" stroke-width="0.65"/>
<polygon points="339.50,208.50 346.00,212.00 339.50,215.50 333.00,212.00" fill="#161b22" stroke="#0d1117" stroke-width="0.65"/>
<polygon points="326.50,208.50 333.00,212.00 326.50,215.50 320.00,212.00" fill="#161b22" stroke="#0d1117" stroke-width="0.65"/>
<polygon points="313.50,208.50 320.00,212.00 313.50,215.50 307.00,212.00" fill="#161b22" stroke="#0d1117" stroke-width="0.65"/>
<polygon points="398.00,212.00 404.50,215.50 398.00,219.00 391.50,215.50" fill="#161b22" stroke="#0d1117" stroke-width="0.65"/>
<polygon points="385.00,212.00 391.50,215.50 385.00,219.00 378.50,215.50" fill="#161b22" stroke="#0d1117" stroke-width="0.65"/>
<polygon points="372.00,212.00 378.50,215.50 372.00,219.00 365.50,215.50" fill="#161b22" stroke="#0d1117" stroke-width="0.65"/>
<polygon points="359.00,212.00 365.50,215.50 359.00,219.00 352.50,215.50" fill="#161b22" stroke="#0d1117" stroke-width="0.65"/>
<polygon points="346.00,212.00 352.50,215.50 346.00,219.00 339.50,215.50" fill="#161b22" stroke="#0d1117" stroke-width="0.65"/>
<polygon points="333.00,212.00 339.50,215.50 333.00,219.00 326.50,215.50" fill="#161b22" stroke="#0d1117" stroke-width="0.65"/>
<polygon points="320.00,212.00 326.50,215.50 320.00,219.00 313.50,215.50" fill="#161b22" stroke="#0d1117" stroke-width="0.65"/>
<polygon points="404.50,215.50 411.00,219.00 404.50,222.50 398.00,219.00" fill="#161b22" stroke="#0d1117" stroke-width="0.65"/>
<polygon points="391.50,215.50 398.00,219.00 391.50,222.50 385.00,219.00" fill="#161b22" stroke="#0d1117" stroke-width="0.65"/>
<polygon points="378.50,215.50 385.00,219.00 378.50,222.50 372.00,219.00" fill="#161b22" stroke="#0d1117" stroke-width="0.65"/>
<polygon points="365.50,215.50 372.00,219.00 365.50,222.50 359.00,219.00" fill="#161b22" stroke="#0d1117" stroke-width="0.65"/>
<polygon points="352.50,215.50 359.00,219.00 352.50,222.50 346.00,219.00" fill="#161b22" stroke="#0d1117" stroke-width="0.65"/>
<polygon points="339.50,215.50 346.00,219.00 339.50,222.50 333.00,219.00" fill="#161b22" stroke="#0d1117" stroke-width="0.65"/>
<polygon points="326.50,215.50 333.00,219.00 326.50,222.50 320.00,219.00" fill="#161b22" stroke="#0d1117" stroke-width="0.65"/>
<polygon points="411.00,207.29 404.50,203.79 404.50,222.50 411.00,226.00" fill="#124f1f"/>
<polygon points="417.50,203.79 411.00,207.29 411.00,226.00 417.50,222.50" fill="#186a29"/>
<polygon points="411.00,200.29 417.50,203.79 411.00,207.29 404.50,203.79" fill="#26a641" stroke="#0d1117" stroke-width="0.65"/>
<polygon points="398.00,219.00 404.50,222.50 398.00,226.00 391.50,222.50" fill="#161b22" stroke="#0d1117" stroke-width="0.65"/>
<polygon points="385.00,219.00 391.50,222.50 385.00,226.00 378.50,222.50" fill="#161b22" stroke="#0d1117" stroke-width="0.65"/>
<polygon points="372.00,219.00 378.50,222.50 372.00,226.00 365.50,222.50" fill="#161b22" stroke="#0d1117" stroke-width="0.65"/>
<polygon points="359.00,219.00 365.50,222.50 359.00,226.00 352.50,222.50" fill="#161b22" stroke="#0d1117" stroke-width="0.65"/>
<polygon points="346.00,219.00 352.50,222.50 346.00,226.00 339.50,222.50" fill="#161b22" stroke="#0d1117" stroke-width="0.65"/>
<polygon points="333.00,219.00 339.50,222.50 333.00,226.00 326.50,222.50" fill="#161b22" stroke="#0d1117" stroke-width="0.65"/>
<polygon points="417.50,222.50 424.00,226.00 417.50,229.50 411.00,226.00" fill="#161b22" stroke="#0d1117" stroke-width="0.65"/>
<polygon points="404.50,223.87 398.00,220.37 398.00,226.00 404.50,229.50" fill="#062013"/>
<polygon points="411.00,220.37 404.50,223.87 404.50,229.50 411.00,226.00" fill="#082b1a"/>
<polygon points="404.50,216.87 411.00,220.37 404.50,223.87 398.00,220.37" fill="#0e4429" stroke="#0d1117" stroke-width="0.65"/>
<polygon points="391.50,222.50 398.00,226.00 391.50,229.50 385.00,226.00" fill="#161b22" stroke="#0d1117" stroke-width="0.65"/>
<polygon points="378.50,216.43 372.00,212.93 372.00,226.00 378.50,229.50" fill="#003418"/>
<polygon points="385.00,212.93 378.50,216.43 378.50,229.50 385.00,226.00" fill="#004520"/>
<polygon points="378.50,209.43 385.00,212.93 378.50,216.43 372.00,212.93" fill="#006d32" stroke="#0d1117" stroke-width="0.65"/>
<polygon points="365.50,222.50 372.00,226.00 365.50,229.50 359.00,226.00" fill="#161b22" stroke="#0d1117" stroke-width="0.65"/>
<polygon points="352.50,222.50 359.00,226.00 352.50,229.50 346.00,226.00" fill="#161b22" stroke="#0d1117" stroke-width="0.65"/>
<polygon points="339.50,222.50 346.00,226.00 339.50,229.50 333.00,226.00" fill="#161b22" stroke="#0d1117" stroke-width="0.65"/>
<polygon points="411.00,226.00 417.50,229.50 411.00,233.00 404.50,229.50" fill="#161b22" stroke="#0d1117" stroke-width="0.65"/>
<polygon points="398.00,227.37 391.50,223.87 391.50,229.50 398.00,233.00" fill="#062013"/>
<polygon points="404.50,223.87 398.00,227.37 398.00,233.00 404.50,229.50" fill="#082b1a"/>
<polygon points="398.00,220.37 404.50,223.87 398.00,227.37 391.50,223.87" fill="#0e4429" stroke="#0d1117" stroke-width="0.65"/>
<polygon points="385.00,211.00 378.50,207.50 378.50,229.50 385.00,233.00" fill="#1b6527"/>
<polygon points="391.50,207.50 385.00,211.00 385.00,233.00 391.50,229.50" fill="#248735"/>
<polygon points="385.00,204.00 391.50,207.50 385.00,211.00 378.50,207.50" fill="#39d353" stroke="#0d1117" stroke-width="0.65"/>
<polygon points="372.00,226.00 378.50,229.50 372.00,233.00 365.50,229.50" fill="#161b22" stroke="#0d1117" stroke-width="0.65"/>
<polygon points="359.00,226.00 365.50,229.50 359.00,233.00 352.50,229.50" fill="#161b22" stroke="#0d1117" stroke-width="0.65"/>
<polygon points="346.00,226.00 352.50,229.50 346.00,233.00 339.50,229.50" fill="#161b22" stroke="#0d1117" stroke-width="0.65"/>
<polygon points="404.50,229.50 411.00,233.00 404.50,236.50 398.00,233.00" fill="#161b22" stroke="#0d1117" stroke-width="0.65"/>
<polygon points="391.50,229.50 398.00,233.00 391.50,236.50 385.00,233.00" fill="#161b22" stroke="#0d1117" stroke-width="0.65"/>
<polygon points="378.50,230.87 372.00,227.37 372.00,233.00 378.50,236.50" fill="#062013"/>
<polygon points="385.00,227.37 378.50,230.87 378.50,236.50 385.00,233.00" fill="#082b1a"/>
<polygon points="378.50,223.87 385.00,227.37 378.50,230.87 372.00,227.37" fill="#0e4429" stroke="#0d1117" stroke-width="0.65"/>
<polygon points="365.50,229.50 372.00,233.00 365.50,236.50 359.00,233.00" fill="#161b22" stroke="#0d1117" stroke-width="0.65"/>
<polygon points="352.50,229.50 359.00,233.00 352.50,236.50 346.00,233.00" fill="#161b22" stroke="#0d1117" stroke-width="0.65"/>
<polygon points="398.00,233.00 404.50,236.50 398.00,240.00 391.50,236.50" fill="#161b22" stroke="#0d1117" stroke-width="0.65"/>
<polygon points="385.00,233.00 391.50,236.50 385.00,240.00 378.50,236.50" fill="#161b22" stroke="#0d1117" stroke-width="0.65"/>
<polygon points="372.00,233.00 378.50,236.50 372.00,240.00 365.50,236.50" fill="#161b22" stroke="#0d1117" stroke-width="0.65"/>
<polygon points="359.00,224.19 352.50,220.69 352.50,236.50 359.00,240.00" fill="#124f1f"/>
<polygon points="365.50,220.69 359.00,224.19 359.00,240.00 365.50,236.50" fill="#186a29"/>
<polygon points="359.00,217.19 365.50,220.69 359.00,224.19 352.50,220.69" fill="#26a641" stroke="#0d1117" stroke-width="0.65"/>
<polygon points="391.50,236.50 398.00,240.00 391.50,243.50 385.00,240.00" fill="#161b22" stroke="#0d1117" stroke-width="0.65"/>
<polygon points="378.50,237.87 372.00,234.37 372.00,240.00 378.50,243.50" fill="#062013"/>
<polygon points="385.00,234.37 378.50,237.87 378.50,243.50 385.00,240.00" fill="#082b1a"/>
<polygon points="378.50,230.87 385.00,234.37 378.50,237.87 372.00,234.37" fill="#0e4429" stroke="#0d1117" stroke-width="0.65"/>
<polygon points="365.50,234.57 359.00,231.07 359.00,240.00 365.50,243.50" fill="#003418"/>
<polygon points="372.00,231.07 365.50,234.57 365.50,243.50 372.00,240.00" fill="#004520"/>
<polygon points="365.50,227.57 372.00,231.07 365.50,234.57 359.00,231.07" fill="#006d32" stroke="#0d1117" stroke-width="0.65"/>
<polygon points="385.00,227.52 378.50,224.02 378.50,243.50 385.00,247.00" fill="#1b6527"/>
<polygon points="391.50,224.02 385.00,227.52 385.00,247.00 391.50,243.50" fill="#248735"/>
<polygon points="385.00,220.52 391.50,224.02 385.00,227.52 378.50,224.02" fill="#39d353" stroke="#0d1117" stroke-width="0.65"/>
<polygon points="372.00,240.00 378.50,243.50 372.00,247.00 365.50,243.50" fill="#161b22" stroke="#0d1117" stroke-width="0.65"/>
<polygon points="378.50,243.50 385.00,247.00 378.50,250.50 372.00,247.00" fill="#161b22" stroke="#0d1117" stroke-width="0.65"/>
<polyline points="60.00,54.50 66.50,58.00 73.00,61.50 66.50,65.00 73.00,68.50 79.50,72.00 86.00,69.87 92.50,67.74 99.00,82.50 105.50,86.00 112.00,82.50 118.50,86.00 125.00,89.50 131.50,93.00 138.00,96.50 144.50,93.00 151.00,96.50 157.50,100.00 164.00,103.50 170.50,107.00 177.00,110.50 183.50,114.00 190.00,117.50 196.50,114.00 203.00,117.50 209.50,121.00 216.00,124.50 222.50,128.00 229.00,131.50 235.50,135.00 242.00,138.50 248.50,135.00 255.00,138.50 261.50,142.00 268.00,145.50 274.50,149.00 281.00,152.50 287.50,156.00 294.00,159.50 300.50,163.00 307.00,166.50 313.50,170.00 320.00,173.50 326.50,177.00 333.00,180.50 339.50,184.00 346.00,187.50 339.50,191.00 333.00,194.50 339.50,198.00 346.00,201.50 352.50,205.00 359.00,208.50 365.50,212.00 372.00,215.50 378.50,219.00 385.00,222.50 391.50,226.00 398.00,223.87 391.50,233.00 398.00,236.50" fill="none" stroke="#f2cc60" stroke-width="3" stroke-linecap="round" stroke-linejoin="round"/>
<circle cx="60.00" cy="54.50" r="3.5" fill="#f2cc60" stroke="#0d1117" stroke-width="1"/>
<circle cx="398.00" cy="236.50" r="3.5" fill="#f2cc60" stroke="#0d1117" stroke-width="1"/>
</svg>