<svg xmlns="http://www.w3.org/2000/svg" width="1103" height="152" viewBox="0 0 1103 152" role="img">
<defs>
<linearGradient id="bgGrad" x1="0" y1="0" x2="0" y2="1">
<stop offset="0%" stop-color="#111827"/>
<stop offset="100%" stop-color="#0b1220"/>
</linearGradient>
<linearGradient id="fogGrad" x1="0" y1="0" x2="1" y2="1">
<stop offset="0%" stop-color="#8ec5ff" stop-opacity="0.10"/>
<stop offset="70%" stop-color="#72f7d6" stop-opacity="0.00"/>
</linearGradient>
<radialGradient id="sunGlow" cx="78%" cy="16%" r="32%">
<stop offset="0%" stop-color="#fef08a" stop-opacity="0.22"/>
<stop offset="100%" stop-color="#fef08a" stop-opacity="0.00"/>
</radialGradient>
</defs>
<rect width="1103" height="152" rx="12" fill="url(#bgGrad)"/>
<rect width="1103" height="152" rx="12" fill="url(#fogGrad)"/>
<circle cx="983" cy="26" r="84" fill="url(#sunGlow)"/>
<circle cx="567.84" cy="27.88" r="1.71" fill="#e2e8f0" opacity="0.30"/>
<circle cx="833.60" cy="24.33" r="1.51" fill="#e2e8f0" opacity="0.23"/>
<circle cx="317.70" cy="57.92" r="1.68" fill="#e2e8f0" opacity="0.21"/>
<circle cx="995.11" cy="56.83" r="0.55" fill="#e2e8f0" opacity="0.17"/>
<circle cx="679.88" cy="33.38" r="0.54" fill="#e2e8f0" opacity="0.09"/>
<circle cx="889.15" cy="32.43" r="0.56" fill="#e2e8f0" opacity="0.10"/>
<circle cx="1050.29" cy="44.03" r="1.17" fill="#e2e8f0" opacity="0.30"/>
<circle cx="917.09" cy="50.53" r="1.05" fill="#e2e8f0" opacity="0.24"/>
<circle cx="424.61" cy="16.02" r="0.71" fill="#e2e8f0" opacity="0.17"/>
<circle cx="1017.90" cy="20.41" r="1.72" fill="#e2e8f0" opacity="0.20"/>
<circle cx="656.73" cy="30.88" r="1.45" fill="#e2e8f0" opacity="0.12"/>
<circle cx="312.38" cy="39.06" r="1.51" fill="#e2e8f0" opacity="0.20"/>
<circle cx="109.29" cy="30.82" r="1.41" fill="#e2e8f0" opacity="0.13"/>
<circle cx="408.49" cy="23.48" r="0.76" fill="#e2e8f0" opacity="0.24"/>
<circle cx="1056.43" cy="60.21" r="0.66" fill="#e2e8f0" opacity="0.25"/>
<circle cx="511.94" cy="37.31" r="1.26" fill="#e2e8f0" opacity="0.15"/>
<circle cx="879.50" cy="28.91" r="0.67" fill="#e2e8f0" opacity="0.14"/>
<circle cx="540.70" cy="21.12" r="0.73" fill="#e2e8f0" opacity="0.15"/>
<circle cx="587.34" cy="23.49" r="1.24" fill="#e2e8f0" opacity="0.10"/>
<circle cx="615.73" cy="45.40" r="0.90" fill="#e2e8f0" opacity="0.19"/>
<circle cx="121.11" cy="40.31" r="1.51" fill="#e2e8f0" opacity="0.29"/>
<circle cx="244.06" cy="21.76" r="0.89" fill="#e2e8f0" opacity="0.11"/>
<polygon points="30.20,63.00 44.20,63.00 48.20,67.20 34.20,67.20" fill="#020617" opacity="0.22"/>
<polygon points="36.00,27.46 43.00,37.46 43.00,62.00 36.00,52.00" fill="#124f1f"/>
<polygon points="29.00,37.46 43.00,37.46 43.00,62.00 29.00,62.00" fill="#176628"/>
<polygon points="22.00,27.46 36.00,27.46 43.00,37.46 29.00,37.46" fill="#26a641" stroke="#0d1117" stroke-width="0.55"/>
<polygon points="23.00,28.26 35.00,28.26 41.20,36.66 30.20,36.66" fill="#dcfce7" opacity="0.15"/>
<polygon points="41.00,52.00 55.00,52.00 62.00,62.00 48.00,62.00" fill="#161b22" stroke="#0d1117" stroke-width="0.55"/>
<polygon points="68.20,63.00 82.20,63.00 86.20,67.20 72.20,67.20" fill="#020617" opacity="0.16"/>
<polygon points="74.00,36.60 81.00,46.60 81.00,62.00 74.00,52.00" fill="#003418"/>
<polygon points="67.00,46.60 81.00,46.60 81.00,62.00 67.00,62.00" fill="#00431f"/>
<polygon points="60.00,36.60 74.00,36.60 81.00,46.60 67.00,46.60" fill="#006d32" stroke="#0d1117" stroke-width="0.55"/>
<polygon points="61.00,37.40 73.00,37.40 79.20,45.80 68.20,45.80" fill="#dcfce7" opacity="0.11"/>
<polygon points="87.20,63.00 101.20,63.00 105.20,67.20 91.20,67.20" fill="#020617" opacity="0.13"/>
<polygon points="93.00,41.49 100.00,51.49 100.00,62.00 93.00,52.00" fill="#062013"/>
<polygon points="86.00,51.49 100.00,51.49 100.00,62.00 86.00,62.00" fill="#082a19"/>
<polygon points="79.00,41.49 93.00,41.49 100.00,51.49 86.00,51.49" fill="#0e4429" stroke="#0d1117" stroke-width="0.55"/>
<polygon points="80.00,42.29 92.00,42.29 98.20,50.69 87.20,50.69" fill="#dcfce7" opacity="0.09"/>
<polygon points="106.20,63.00 120.20,63.00 124.20,67.20 110.20,67.20" fill="#020617" opacity="0.10"/>
<polygon points="112.00,45.37 119.00,55.37 119.00,62.00 112.00,52.00" fill="#062013"/>
<polygon points="105.00,55.37 119.00,55.37 119.00,62.00 105.00,62.00" fill="#082a19"/>
<polygon points="98.00,45.37 112.00,45.37 119.00,55.37 105.00,55.37" fill="#0e4429" stroke="#0d1117" stroke-width="0.55"/>
<polygon points="99.00,46.17 111.00,46.17 117.20,54.57 106.20,54.57" fill="#dcfce7" opacity="0.08"/>
<polygon points="125.20,63.00 139.20,63.00 143.20,67.20 129.20,67.20" fill="#020617" opacity="0.22"/>
<polygon points="131.00,28.22 138.00,38.22 138.00,62.00 131.00,52.00" fill="#124f1f"/>
<polygon points="124.00,38.22 138.00,38.22 138.00,62.00 124.00,62.00" fill="#176628"/>
<polygon points="117.00,28.22 131.00,28.22 138.00,38.22 124.00,38.22" fill="#26a641" stroke="#0d1117" stroke-width="0.55"/>
<polygon points="118.00,29.02 130.00,29.02 136.20,37.42 125.20,37.42" fill="#dcfce7" opacity="0.15"/>
<polygon points="144.20,63.00 158.20,63.00 162.20,67.20 148.20,67.20" fill="#020617" opacity="0.15"/>
<polygon points="150.00,38.74 157.00,48.74 157.00,62.00 150.00,52.00" fill="#003418"/>
<polygon points="143.00,48.74 157.00,48.74 157.00,62.00 143.00,62.00" fill="#00431f"/>
<polygon points="136.00,38.74 150.00,38.74 157.00,48.74 143.00,48.74" fill="#006d32" stroke="#0d1117" stroke-width="0.55"/>
<polygon points="137.00,39.54 149.00,39.54 155.20,47.94 144.20,47.94" fill="#dcfce7" opacity="0.10"/>
<polygon points="155.00,52.00 169.00,52.00 176.00,62.00 162.00,62.00" fill="#161b22" stroke="#0d1117" stroke-width="0.55"/>
<polygon points="174.00,52.00 188.00,52.00 195.00,62.00 181.00,62.00" fill="#161b22" stroke="#0d1117" stroke-width="0.55"/>
<polygon points="201.20,63.00 215.20,63.00 219.20,67.20 205.20,67.20" fill="#020617" opacity="0.10"/>
<polygon points="207.00,45.37 214.00,55.37 214.00,62.00 207.00,52.00" fill="#062013"/>
<polygon points="200.00,55.37 214.00,55.37 214.00,62.00 200.00,62.00" fill="#082a19"/>
<polygon points="193.00,45.37 207.00,45.37 214.00,55.37 200.00,55.37" fill="#0e4429" stroke="#0d1117" stroke-width="0.55"/>
<polygon points="194.00,46.17 206.00,46.17 212.20,54.57 201.20,54.57" fill="#dcfce7" opacity="0.08"/>
<polygon points="212.00,52.00 226.00,52.00 233.00,62.00 219.00,62.00" fill="#161b22" stroke="#0d1117" stroke-width="0.55"/>
<polygon points="231.00,52.00 245.00,52.00 252.00,62.00 238.00,62.00" fill="#161b22" stroke="#0d1117" stroke-width="0.55"/>
<polygon points="250.00,52.00 264.00,52.00 271.00,62.00 257.00,62.00" fill="#161b22" stroke="#0d1117" stroke-width="0.55"/>
<polygon points="269.00,52.00 283.00,52.00 290.00,62.00 276.00,62.00" fill="#161b22" stroke="#0d1117" stroke-width="0.55"/>
<polygon points="288.00,52.00 302.00,52.00 309.00,62.00 295.00,62.00" fill="#161b22" stroke="#0d1117" stroke-width="0.55"/>
<polygon points="307.00,52.00 321.00,52.00 328.00,62.00 314.00,62.00" fill="#161b22" stroke="#0d1117" stroke-width="0.55"/>
<polygon points="326.00,52.00 340.00,52.00 347.00,62.00 333.00,62.00" fill="#161b22" stroke="#0d1117" stroke-width="0.55"/>
<polygon points="345.00,52.00 359.00,52.00 366.00,62.00 352.00,62.00" fill="#161b22" stroke="#0d1117" stroke-width="0.55"/>
<polygon points="372.20,63.00 386.20,63.00 390.20,67.20 376.20,67.20" fill="#020617" opacity="0.15"/>
<polygon points="378.00,38.74 385.00,48.74 385.00,62.00 378.00,52.00" fill="#003418"/>
<polygon points="371.00,48.74 385.00,48.74 385.00,62.00 371.00,62.00" fill="#00431f"/>
<polygon points="364.00,38.74 378.00,38.74 385.00,48.74 371.00,48.74" fill="#006d32" stroke="#0d1117" stroke-width="0.55"/>
<polygon points="365.00,39.54 377.00,39.54 383.20,47.94 372.20,47.94" fill="#dcfce7" opacity="0.10"/>
<polygon points="383.00,52.00 397.00,52.00 404.00,62.00 390.00,62.00" fill="#161b22" stroke="#0d1117" stroke-width="0.55"/>
<polygon points="402.00,52.00 416.00,52.00 423.00,62.00 409.00,62.00" fill="#161b22" stroke="#0d1117" stroke-width="0.55"/>
<polygon points="421.00,52.00 435.00,52.00 442.00,62.00 428.00,62.00" fill="#161b22" stroke="#0d1117" stroke-width="0.55"/>
<polygon points="440.00,52.00 454.00,52.00 461.00,62.00 447.00,62.00" fill="#161b22" stroke="#0d1117" stroke-width="0.55"/>
<polygon points="459.00,52.00 473.00,52.00 480.00,62.00 466.00,62.00" fill="#161b22" stroke="#0d1117" stroke-width="0.55"/>
<polygon points="478.00,52.00 492.00,52.00 499.00,62.00 485.00,62.00" fill="#161b22" stroke="#0d1117" stroke-width="0.55"/>
<polygon points="497.00,52.00 511.00,52.00 518.00,62.00 504.00,62.00" fill="#161b22" stroke="#0d1117" stroke-width="0.55"/>
<polygon points="516.00,52.00 530.00,52.00 537.00,62.00 523.00,62.00" fill="#161b22" stroke="#0d1117" stroke-width="0.55"/>
<polygon points="535.00,52.00 549.00,52.00 556.00,62.00 542.00,62.00" fill="#161b22" stroke="#0d1117" stroke-width="0.55"/>
<polygon points="554.00,52.00 568.00,52.00 575.00,62.00 561.00,62.00" fill="#161b22" stroke="#0d1117" stroke-width="0.55"/>
<polygon points="573.00,52.00 587.00,52.00 594.00,62.00 580.00,62.00" fill="#161b22" stroke="#0d1117" stroke-width="0.55"/>
<polygon points="592.00,52.00 606.00,52.00 613.00,62.00 599.00,62.00" fill="#161b22" stroke="#0d1117" stroke-width="0.55"/>
<polygon points="611.00,52.00 625.00,52.00 632.00,62.00 618.00,62.00" fill="#161b22" stroke="#0d1117" stroke-width="0.55"/>
<polygon points="630.00,52.00 644.00,52.00 651.00,62.00 637.00,62.00" fill="#161b22" stroke="#0d1117" stroke-width="0.55"/>
<polygon points="649.00,52.00 663.00,52.00 670.00,62.00 656.00,62.00" fill="#161b22" stroke="#0d1117" stroke-width="0.55"/>
<polygon points="668.00,52.00 682.00,52.00 689.00,62.00 675.00,62.00" fill="#161b22" stroke="#0d1117" stroke-width="0.55"/>
<polygon points="687.00,52.00 701.00,52.00 708.00,62.00 694.00,62.00" fill="#161b22" stroke="#0d1117" stroke-width="0.55"/>
<polygon points="706.00,52.00 720.00,52.00 727.00,62.00 713.00,62.00" fill="#161b22" stroke="#0d1117" stroke-width="0.55"/>
<polygon points="725.00,52.00 739.00,52.00 746.00,62.00 732.00,62.00" fill="#161b22" stroke="#0d1117" stroke-width="0.55"/>
<polygon points="744.00,52.00 758.00,52.00 765.00,62.00 751.00,62.00" fill="#161b22" stroke="#0d1117" stroke-width="0.55"/>
<polygon points="763.00,52.00 777.00,52.00 784.00,62.00 770.00,62.00" fill="#161b22" stroke="#0d1117" stroke-width="0.55"/>
<polygon points="782.00,52.00 796.00,52.00 803.00,62.00 789.00,62.00" fill="#161b22" stroke="#0d1117" stroke-width="0.55"/>
<polygon points="801.00,52.00 815.00,52.00 822.00,62.00 808.00,62.00" fill="#161b22" stroke="#0d1117" stroke-width="0.55"/>
<polygon points="820.00,52.00 834.00,52.00 841.00,62.00 827.00,62.00" fill="#161b22" stroke="#0d1117" stroke-width="0.55"/>
<polygon points="839.00,52.00 853.00,52.00 860.00,62.00 846.00,62.00" fill="#161b22" stroke="#0d1117" stroke-width="0.55"/>
<polygon points="858.00,52.00 872.00,52.00 879.00,62.00 865.00,62.00" fill="#161b22" stroke="#0d1117" stroke-width="0.55"/>
<polygon points="877.00,52.00 891.00,52.00 898.00,62.00 884.00,62.00" fill="#161b22" stroke="#0d1117" stroke-width="0.55"/>
<polygon points="896.00,52.00 910.00,52.00 917.00,62.00 903.00,62.00" fill="#161b22" stroke="#0d1117" stroke-width="0.55"/>
<polygon points="915.00,52.00 929.00,52.00 936.00,62.00 922.00,62.00" fill="#161b22" stroke="#0d1117" stroke-width="0.55"/>
<polygon points="934.00,52.00 948.00,52.00 955.00,62.00 941.00,62.00" fill="#161b22" stroke="#0d1117" stroke-width="0.55"/>
<polygon points="961.20,63.00 975.20,63.00 979.20,67.20 965.20,67.20" fill="#020617" opacity="0.21"/>
<polygon points="967.00,29.97 974.00,39.97 974.00,62.00 967.00,52.00" fill="#124f1f"/>
<polygon points="960.00,39.97 974.00,39.97 974.00,62.00 960.00,62.00" fill="#176628"/>
<polygon points="953.00,29.97 967.00,29.97 974.00,39.97 960.00,39.97" fill="#26a641" stroke="#0d1117" stroke-width="0.55"/>
<polygon points="954.00,30.77 966.00,30.77 972.20,39.17 961.20,39.17" fill="#dcfce7" opacity="0.14"/>
<polygon points="972.00,52.00 986.00,52.00 993.00,62.00 979.00,62.00" fill="#161b22" stroke="#0d1117" stroke-width="0.55"/>
<polygon points="991.00,52.00 1005.00,52.00 1012.00,62.00 998.00,62.00" fill="#161b22" stroke="#0d1117" stroke-width="0.55"/>
<polygon points="1010.00,52.00 1024.00,52.00 1031.00,62.00 1017.00,62.00" fill="#161b22" stroke="#0d1117" stroke-width="0.55"/>
<polygon points="37.20,73.00 51.20,73.00 55.20,77.20 41.20,77.20" fill="#020617" opacity="0.15"/>
<polygon points="43.00,48.74 50.00,58.74 50.00,72.00 43.00,62.00" fill="#003418"/>
<polygon points="36.00,58.74 50.00,58.74 50.00,72.00 36.00,72.00" fill="#00431f"/>
<polygon points="29.00,48.74 43.00,48.74 50.00,58.74 36.00,58.74" fill="#006d32" stroke="#0d1117" stroke-width="0.55"/>
<polygon points="30.00,49.54 42.00,49.54 48.20,57.94 37.20,57.94" fill="#dcfce7" opacity="0.10"/>
<polygon points="48.00,62.00 62.00,62.00 69.00,72.00 55.00,72.00" fill="#161b22" stroke="#0d1117" stroke-width="0.55"/>
<polygon points="67.00,62.00 81.00,62.00 88.00,72.00 74.00,72.00" fill="#161b22" stroke="#0d1117" stroke-width="0.55"/>
<polygon points="94.20,73.00 108.20,73.00 112.20,77.20 98.20,77.20" fill="#020617" opacity="0.19"/>
<polygon points="100.00,42.10 107.00,52.10 107.00,72.00 100.00,62.00" fill="#124f1f"/>
<polygon points="93.00,52.10 107.00,52.10 107.00,72.00 93.00,72.00" fill="#176628"/>
<polygon points="86.00,42.10 100.00,42.10 107.00,52.10 93.00,52.10" fill="#26a641" stroke="#0d1117" stroke-width="0.55"/>
<polygon points="87.00,42.90 99.00,42.90 105.20,51.30 94.20,51.30" fill="#dcfce7" opacity="0.13"/>
<polygon points="113.20,73.00 127.20,73.00 131.20,77.20 117.20,77.20" fill="#020617" opacity="0.17"/>
<polygon points="119.00,44.86 126.00,54.86 126.00,72.00 119.00,62.00" fill="#003418"/>
<polygon points="112.00,54.86 126.00,54.86 126.00,72.00 112.00,72.00" fill="#00431f"/>
<polygon points="105.00,44.86 119.00,44.86 126.00,54.86 112.00,54.86" fill="#006d32" stroke="#0d1117" stroke-width="0.55"/>
<polygon points="106.00,45.66 118.00,45.66 124.20,54.06 113.20,54.06" fill="#dcfce7" opacity="0.12"/>
<polygon points="132.20,73.00 146.20,73.00 150.20,77.20 136.20,77.20" fill="#020617" opacity="0.18"/>
<polygon points="138.00,43.38 145.00,53.38 145.00,72.00 138.00,62.00" fill="#003418"/>
<polygon points="131.00,53.38 145.00,53.38 145.00,72.00 131.00,72.00" fill="#00431f"/>
<polygon points="124.00,43.38 138.00,43.38 145.00,53.38 131.00,53.38" fill="#006d32" stroke="#0d1117" stroke-width="0.55"/>
<polygon points="125.00,44.18 137.00,44.18 143.20,52.58 132.20,52.58" fill="#dcfce7" opacity="0.12"/>
<polygon points="143.00,62.00 157.00,62.00 164.00,72.00 150.00,72.00" fill="#161b22" stroke="#0d1117" stroke-width="0.55"/>
<polygon points="162.00,62.00 176.00,62.00 183.00,72.00 169.00,72.00" fill="#161b22" stroke="#0d1117" stroke-width="0.55"/>
<polygon points="189.20,73.00 203.20,73.00 207.20,77.20 193.20,77.20" fill="#020617" opacity="0.10"/>
<polygon points="195.00,55.37 202.00,65.37 202.00,72.00 195.00,62.00" fill="#062013"/>
<polygon points="188.00,65.37 202.00,65.37 202.00,72.00 188.00,72.00" fill="#082a19"/>
<polygon points="181.00,55.37 195.00,55.37 202.00,65.37 188.00,65.37" fill="#0e4429" stroke="#0d1117" stroke-width="0.55"/>
<polygon points="182.00,56.17 194.00,56.17 200.20,64.57 189.20,64.57" fill="#dcfce7" opacity="0.08"/>
<polygon points="208.20,73.00 222.20,73.00 226.20,77.20 212.20,77.20" fill="#020617" opacity="0.10"/>
<polygon points="214.00,55.37 221.00,65.37 221.00,72.00 214.00,62.00" fill="#062013"/>
<polygon points="207.00,65.37 221.00,65.37 221.00,72.00 207.00,72.00" fill="#082a19"/>
<polygon points="200.00,55.37 214.00,55.37 221.00,65.37 207.00,65.37" fill="#0e4429" stroke="#0d1117" stroke-width="0.55"/>
<polygon points="201.00,56.17 213.00,56.17 219.20,64.57 208.20,64.57" fill="#dcfce7" opacity="0.08"/>
<polygon points="219.00,62.00 233.00,62.00 240.00,72.00 226.00,72.00" fill="#161b22" stroke="#0d1117" stroke-width="0.55"/>
<polygon points="246.20,73.00 260.20,73.00 264.20,77.20 250.20,77.20" fill="#020617" opacity="0.16"/>
<polygon points="252.00,46.60 259.00,56.60 259.00,72.00 252.00,62.00" fill="#003418"/>
<polygon points="245.00,56.60 259.00,56.60 259.00,72.00 245.00,72.00" fill="#00431f"/>
<polygon points="238.00,46.60 252.00,46.60 259.00,56.60 245.00,56.60" fill="#006d32" stroke="#0d1117" stroke-width="0.55"/>
<polygon points="239.00,47.40 251.00,47.40 257.20,55.80 246.20,55.80" fill="#dcfce7" opacity="0.11"/>
<polygon points="265.20,73.00 279.20,73.00 283.20,77.20 269.20,77.20" fill="#020617" opacity="0.10"/>
<polygon points="271.00,55.37 278.00,65.37 278.00,72.00 271.00,62.00" fill="#062013"/>
<polygon points="264.00,65.37 278.00,65.37 278.00,72.00 264.00,72.00" fill="#082a19"/>
<polygon points="257.00,55.37 271.00,55.37 278.00,65.37 264.00,65.37" fill="#0e4429" stroke="#0d1117" stroke-width="0.55"/>
<polygon points="258.00,56.17 270.00,56.17 276.20,64.57 265.20,64.57" fill="#dcfce7" opacity="0.08"/>
<polygon points="276.00,62.00 290.00,62.00 297.00,72.00 283.00,72.00" fill="#161b22" stroke="#0d1117" stroke-width="0.55"/>
<polygon points="295.00,62.00 309.00,62.00 316.00,72.00 302.00,72.00" fill="#161b22" stroke="#0d1117" stroke-width="0.55"/>
<polygon points="314.00,62.00 328.00,62.00 335.00,72.00 321.00,72.00" fill="#161b22" stroke="#0d1117" stroke-width="0.55"/>
<polygon points="341.20,73.00 355.20,73.00 359.20,77.20 345.20,77.20" fill="#020617" opacity="0.10"/>
<polygon points="347.00,55.37 354.00,65.37 354.00,72.00 347.00,62.00" fill="#062013"/>
<polygon points="340.00,65.37 354.00,65.37 354.00,72.00 340.00,72.00" fill="#082a19"/>
<polygon points="333.00,55.37 347.00,55.37 354.00,65.37 340.00,65.37" fill="#0e4429" stroke="#0d1117" stroke-width="0.55"/>
<polygon points="334.00,56.17 346.00,56.17 352.20,64.57 341.20,64.57" fill="#dcfce7" opacity="0.08"/>
<polygon points="352.00,62.00 366.00,62.00 373.00,72.00 359.00,72.00" fill="#161b22" stroke="#0d1117" stroke-width="0.55"/>
<polygon points="371.00,62.00 385.00,62.00 392.00,72.00 378.00,72.00" fill="#161b22" stroke="#0d1117" stroke-width="0.55"/>
<polygon points="390.00,62.00 404.00,62.00 411.00,72.00 397.00,72.00" fill="#161b22" stroke="#0d1117" stroke-width="0.55"/>
<polygon points="409.00,62.00 423.00,62.00 430.00,72.00 416.00,72.00" fill="#161b22" stroke="#0d1117" stroke-width="0.55"/>
<polygon points="428.00,62.00 442.00,62.00 449.00,72.00 435.00,72.00" fill="#161b22" stroke="#0d1117" stroke-width="0.55"/>
<polygon points="447.00,62.00 461.00,62.00 468.00,72.00 454.00,72.00" fill="#161b22" stroke="#0d1117" stroke-width="0.55"/>
<polygon points="466.00,62.00 480.00,62.00 487.00,72.00 473.00,72.00" fill="#161b22" stroke="#0d1117" stroke-width="0.55"/>
<polygon points="485.00,62.00 499.00,62.00 506.00,72.00 492.00,72.00" fill="#161b22" stroke="#0d1117" stroke-width="0.55"/>
<polygon points="512.20,73.00 526.20,73.00 530.20,77.20 516.20,77.20" fill="#020617" opacity="0.16"/>
<polygon points="518.00,46.60 525.00,56.60 525.00,72.00 518.00,62.00" fill="#003418"/>
<polygon points="511.00,56.60 525.00,56.60 525.00,72.00 511.00,72.00" fill="#00431f"/>
<polygon points="504.00,46.60 518.00,46.60 525.00,56.60 511.00,56.60" fill="#006d32" stroke="#0d1117" stroke-width="0.55"/>
<polygon points="505.00,47.40 517.00,47.40 523.20,55.80 512.20,55.80" fill="#dcfce7" opacity="0.11"/>
<polygon points="531.20,73.00 545.20,73.00 549.20,77.20 535.20,77.20" fill="#020617" opacity="0.10"/>
<polygon points="537.00,55.37 544.00,65.37 544.00,72.00 537.00,62.00" fill="#062013"/>
<polygon points="530.00,65.37 544.00,65.37 544.00,72.00 530.00,72.00" fill="#082a19"/>
<polygon points="523.00,55.37 537.00,55.37 544.00,65.37 530.00,65.37" fill="#0e4429" stroke="#0d1117" stroke-width="0.55"/>
<polygon points="524.00,56.17 536.00,56.17 542.20,64.57 531.20,64.57" fill="#dcfce7" opacity="0.08"/>
<polygon points="550.20,73.00 564.20,73.00 568.20,77.20 554.20,77.20" fill="#020617" opacity="0.10"/>
<polygon points="556.00,55.37 563.00,65.37 563.00,72.00 556.00,62.00" fill="#062013"/>
<polygon points="549.00,65.37 563.00,65.37 563.00,72.00 549.00,72.00" fill="#082a19"/>
<polygon points="542.00,55.37 556.00,55.37 563.00,65.37 549.00,65.37" fill="#0e4429" stroke="#0d1117" stroke-width="0.55"/>
<polygon points="543.00,56.17 555.00,56.17 561.20,64.57 550.20,64.57" fill="#dcfce7" opacity="0.08"/>
<polygon points="561.00,62.00 575.00,62.00 582.00,72.00 568.00,72.00" fill="#161b22" stroke="#0d1117" stroke-width="0.55"/>
<polygon points="588.20,73.00 602.20,73.00 606.20,77.20 592.20,77.20" fill="#020617" opacity="0.10"/>
<polygon points="594.00,55.37 601.00,65.37 601.00,72.00 594.00,62.00" fill="#062013"/>
<polygon points="587.00,65.37 601.00,65.37 601.00,72.00 587.00,72.00" fill="#082a19"/>
<polygon points="580.00,55.37 594.00,55.37 601.00,65.37 587.00,65.37" fill="#0e4429" stroke="#0d1117" stroke-width="0.55"/>
<polygon points="581.00,56.17 593.00,56.17 599.20,64.57 588.20,64.57" fill="#dcfce7" opacity="0.08"/>
<polygon points="599.00,62.00 613.00,62.00 620.00,72.00 606.00,72.00" fill="#161b22" stroke="#0d1117" stroke-width="0.55"/>
<polygon points="626.20,73.00 640.20,73.00 644.20,77.20 630.20,77.20" fill="#020617" opacity="0.10"/>
<polygon points="632.00,55.37 639.00,65.37 639.00,72.00 632.00,62.00" fill="#062013"/>
<polygon points="625.00,65.37 639.00,65.37 639.00,72.00 625.00,72.00" fill="#082a19"/>
<polygon points="618.00,55.37 632.00,55.37 639.00,65.37 625.00,65.37" fill="#0e4429" stroke="#0d1117" stroke-width="0.55"/>
<polygon points="619.00,56.17 631.00,56.17 637.20,64.57 626.20,64.57" fill="#dcfce7" opacity="0.08"/>
<polygon points="637.00,62.00 651.00,62.00 658.00,72.00 644.00,72.00" fill="#161b22" stroke="#0d1117" stroke-width="0.55"/>
<polygon points="656.00,62.00 670.00,62.00 677.00,72.00 663.00,72.00" fill="#161b22" stroke="#0d1117" stroke-width="0.55"/>
<polygon points="675.00,62.00 689.00,62.00 696.00,72.00 682.00,72.00" fill="#161b22" stroke="#0d1117" stroke-width="0.55"/>
<polygon points="694.00,62.00 708.00,62.00 715.00,72.00 701.00,72.00" fill="#161b22" stroke="#0d1117" stroke-width="0.55"/>
<polygon points="721.20,73.00 735.20,73.00 739.20,77.20 725.20,77.20" fill="#020617" opacity="0.10"/>
<polygon points="727.00,55.37 734.00,65.37 734.00,72.00 727.00,62.00" fill="#062013"/>
<polygon points="720.00,65.37 734.00,65.37 734.00,72.00 720.00,72.00" fill="#082a19"/>
<polygon points="713.00,55.37 727.00,55.37 734.00,65.37 720.00,65.37" fill="#0e4429" stroke="#0d1117" stroke-width="0.55"/>
<polygon points="714.00,56.17 726.00,56.17 732.20,64.57 721.20,64.57" fill="#dcfce7" opacity="0.08"/>
<polygon points="740.20,73.00 754.20,73.00 758.20,77.20 744.20,77.20" fill="#020617" opacity="0.16"/>
<polygon points="746.00,46.60 753.00,56.60 753.00,72.00 746.00,62.00" fill="#003418"/>
<polygon points="739.00,56.60 753.00,56.60 753.00,72.00 739.00,72.00" fill="#00431f"/>
<polygon points="732.00,46.60 746.00,46.60 753.00,56.60 739.00,56.60" fill="#006d32" stroke="#0d1117" stroke-width="0.55"/>
<polygon points="733.00,47.40 745.00,47.40 751.20,55.80 740.20,55.80" fill="#dcfce7" opacity="0.11"/>
<polygon points="759.20,73.00 773.20,73.00 777.20,77.20 763.20,77.20" fill="#020617" opacity="0.10"/>
<polygon points="765.00,55.37 772.00,65.37 772.00,72.00 765.00,62.00" fill="#062013"/>
<polygon points="758.00,65.37 772.00,65.37 772.00,72.00 758.00,72.00" fill="#082a19"/>
<polygon points="751.00,55.37 765.00,55.37 772.00,65.37 758.00,65.37" fill="#0e4429" stroke="#0d1117" stroke-width="0.55"/>
<polygon points="752.00,56.17 764.00,56.17 770.20,64.57 759.20,64.57" fill="#dcfce7" opacity="0.08"/>
<polygon points="770.00,62.00 784.00,62.00 791.00,72.00 777.00,72.00" fill="#161b22" stroke="#0d1117" stroke-width="0.55"/>
<polygon points="789.00,62.00 803.00,62.00 810.00,72.00 796.00,72.00" fill="#161b22" stroke="#0d1117" stroke-width="0.55"/>
<polygon points="808.00,62.00 822.00,62.00 829.00,72.00 815.00,72.00" fill="#161b22" stroke="#0d1117" stroke-width="0.55"/>
<polygon points="827.00,62.00 841.00,62.00 848.00,72.00 834.00,72.00" fill="#161b22" stroke="#0d1117" stroke-width="0.55"/>
<polygon points="846.00,62.00 860.00,62.00 867.00,72.00 853.00,72.00" fill="#161b22" stroke="#0d1117" stroke-width="0.55"/>
<polygon points="865.00,62.00 879.00,62.00 886.00,72.00 872.00,72.00" fill="#161b22" stroke="#0d1117" stroke-width="0.55"/>
<polygon points="884.00,62.00 898.00,62.00 905.00,72.00 891.00,72.00" fill="#161b22" stroke="#0d1117" stroke-width="0.55"/>
<polygon points="903.00,62.00 917.00,62.00 924.00,72.00 910.00,72.00" fill="#161b22" stroke="#0d1117" stroke-width="0.55"/>
<polygon points="922.00,62.00 936.00,62.00 943.00,72.00 929.00,72.00" fill="#161b22" stroke="#0d1117" stroke-width="0.55"/>
<polygon points="941.00,62.00 955.00,62.00 962.00,72.00 948.00,72.00" fill="#161b22" stroke="#0d1117" stroke-width="0.55"/>
<polygon points="968.20,73.00 982.20,73.00 986.20,77.20 972.20,77.20" fill="#020617" opacity="0.10"/>
<polygon points="974.00,55.37 981.00,65.37 981.00,72.00 974.00,62.00" fill="#062013"/>
<polygon points="967.00,65.37 981.00,65.37 981.00,72.00 967.00,72.00" fill="#082a19"/>
<polygon points="960.00,55.37 974.00,55.37 981.00,65.37 967.00,65.37" fill="#0e4429" stroke="#0d1117" stroke-width="0.55"/>
<polygon points="961.00,56.17 973.00,56.17 979.20,64.57 968.20,64.57" fill="#dcfce7" opacity="0.08"/>
<polygon points="979.00,62.00 993.00,62.00 1000.00,72.00 986.00,72.00" fill="#161b22" stroke="#0d1117" stroke-width="0.55"/>
<polygon points="1006.20,73.00 1020.20,73.00 1024.20,77.20 1010.20,77.20" fill="#020617" opacity="0.15"/>
<polygon points="1012.00,48.74 1019.00,58.74 1019.00,72.00 1012.00,62.00" fill="#003418"/>
<polygon points="1005.00,58.74 1019.00,58.74 1019.00,72.00 1005.00,72.00" fill="#00431f"/>
<polygon points="998.00,48.74 1012.00,48.74 1019.00,58.74 1005.00,58.74" fill="#006d32" stroke="#0d1117" stroke-width="0.55"/>
<polygon points="999.00,49.54 1011.00,49.54 1017.20,57.94 1006.20,57.94" fill="#dcfce7" opacity="0.10"/>
<polygon points="1025.20,73.00 1039.20,73.00 1043.20,77.20 1029.20,77.20" fill="#020617" opacity="0.19"/>
<polygon points="1031.00,42.10 1038.00,52.10 1038.00,72.00 1031.00,62.00" fill="#124f1f"/>
<polygon points="1024.00,52.10 1038.00,52.10 1038.00,72.00 1024.00,72.00" fill="#176628"/>
<polygon points="1017.00,42.10 1031.00,42.10 1038.00,52.10 1024.00,52.10" fill="#26a641" stroke="#0d1117" stroke-width="0.55"/>
<polygon points="1018.00,42.90 1030.00,42.90 1036.20,51.30 1025.20,51.30" fill="#dcfce7" opacity="0.13"/>
<polygon points="36.00,72.00 50.00,72.00 57.00,82.00 43.00,82.00" fill="#161b22" stroke="#0d1117" stroke-width="0.55"/>
<polygon points="55.00,72.00 69.00,72.00 76.00,82.00 62.00,82.00" fill="#161b22" stroke="#0d1117" stroke-width="0.55"/>
<polygon points="74.00,72.00 88.00,72.00 95.00,82.00 81.00,82.00" fill="#161b22" stroke="#0d1117" stroke-width="0.55"/>
<polygon points="101.20,83.00 115.20,83.00 119.20,87.20 105.20,87.20" fill="#020617" opacity="0.15"/>
<polygon points="107.00,58.74 114.00,68.74 114.00,82.00 107.00,72.00" fill="#003418"/>
<polygon points="100.00,68.74 114.00,68.74 114.00,82.00 100.00,82.00" fill="#00431f"/>
<polygon points="93.00,58.74 107.00,58.74 114.00,68.74 100.00,68.74" fill="#006d32" stroke="#0d1117" stroke-width="0.55"/>
<polygon points="94.00,59.54 106.00,59.54 112.20,67.94 101.20,67.94" fill="#dcfce7" opacity="0.10"/>
<polygon points="120.20,83.00 134.20,83.00 138.20,87.20 124.20,87.20" fill="#020617" opacity="0.17"/>
<polygon points="126.00,54.86 133.00,64.86 133.00,82.00 126.00,72.00" fill="#003418"/>
<polygon points="119.00,64.86 133.00,64.86 133.00,82.00 119.00,82.00" fill="#00431f"/>
<polygon points="112.00,54.86 126.00,54.86 133.00,64.86 119.00,64.86" fill="#006d32" stroke="#0d1117" stroke-width="0.55"/>
<polygon points="113.00,55.66 125.00,55.66 131.20,64.06 120.20,64.06" fill="#dcfce7" opacity="0.12"/>
<polygon points="139.20,83.00 153.20,83.00 157.20,87.20 143.20,87.20" fill="#020617" opacity="0.16"/>
<polygon points="145.00,56.60 152.00,66.60 152.00,82.00 145.00,72.00" fill="#003418"/>
<polygon points="138.00,66.60 152.00,66.60 152.00,82.00 138.00,82.00" fill="#00431f"/>
<polygon points="131.00,56.60 145.00,56.60 152.00,66.60 138.00,66.60" fill="#006d32" stroke="#0d1117" stroke-width="0.55"/>
<polygon points="132.00,57.40 144.00,57.40 150.20,65.80 139.20,65.80" fill="#dcfce7" opacity="0.11"/>
<polygon points="150.00,72.00 164.00,72.00 171.00,82.00 157.00,82.00" fill="#161b22" stroke="#0d1117" stroke-width="0.55"/>
<polygon points="177.20,83.00 191.20,83.00 195.20,87.20 181.20,87.20" fill="#020617" opacity="0.13"/>
<polygon points="183.00,61.49 190.00,71.49 190.00,82.00 183.00,72.00" fill="#062013"/>
<polygon points="176.00,71.49 190.00,71.49 190.00,82.00 176.00,82.00" fill="#082a19"/>
<polygon points="169.00,61.49 183.00,61.49 190.00,71.49 176.00,71.49" fill="#0e4429" stroke="#0d1117" stroke-width="0.55"/>
<polygon points="170.00,62.29 182.00,62.29 188.20,70.69 177.20,70.69" fill="#dcfce7" opacity="0.09"/>
<polygon points="196.20,83.00 210.20,83.00 214.20,87.20 200.20,87.20" fill="#020617" opacity="0.10"/>
<polygon points="202.00,65.37 209.00,75.37 209.00,82.00 202.00,72.00" fill="#062013"/>
<polygon points="195.00,75.37 209.00,75.37 209.00,82.00 195.00,82.00" fill="#082a19"/>
<polygon points="188.00,65.37 202.00,65.37 209.00,75.37 195.00,75.37" fill="#0e4429" stroke="#0d1117" stroke-width="0.55"/>
<polygon points="189.00,66.17 201.00,66.17 207.20,74.57 196.20,74.57" fill="#dcfce7" opacity="0.08"/>
<polygon points="207.00,72.00 221.00,72.00 228.00,82.00 214.00,82.00" fill="#161b22" stroke="#0d1117" stroke-width="0.55"/>
<polygon points="226.00,72.00 240.00,72.00 247.00,82.00 233.00,82.00" fill="#161b22" stroke="#0d1117" stroke-width="0.55"/>
<polygon points="245.00,72.00 259.00,72.00 266.00,82.00 252.00,82.00" fill="#161b22" stroke="#0d1117" stroke-width="0.55"/>
<polygon points="264.00,72.00 278.00,72.00 285.00,82.00 271.00,82.00" fill="#161b22" stroke="#0d1117" stroke-width="0.55"/>
<polygon points="283.00,72.00 297.00,72.00 304.00,82.00 290.00,82.00" fill="#161b22" stroke="#0d1117" stroke-width="0.55"/>
<polygon points="302.00,72.00 316.00,72.00 323.00,82.00 309.00,82.00" fill="#161b22" stroke="#0d1117" stroke-width="0.55"/>
<polygon points="321.00,72.00 335.00,72.00 342.00,82.00 328.00,82.00" fill="#161b22" stroke="#0d1117" stroke-width="0.55"/>
<polygon points="340.00,72.00 354.00,72.00 361.00,82.00 347.00,82.00" fill="#161b22" stroke="#0d1117" stroke-width="0.55"/>
<polygon points="359.00,72.00 373.00,72.00 380.00,82.00 366.00,82.00" fill="#161b22" stroke="#0d1117" stroke-width="0.55"/>
<polygon points="386.20,83.00 400.20,83.00 404.20,87.20 390.20,87.20" fill="#020617" opacity="0.21"/>
<polygon points="392.00,49.06 399.00,59.06 399.00,82.00 392.00,72.00" fill="#124f1f"/>
<polygon points="385.00,59.06 399.00,59.06 399.00,82.00 385.00,82.00" fill="#176628"/>
<polygon points="378.00,49.06 392.00,49.06 399.00,59.06 385.00,59.06" fill="#26a641" stroke="#0d1117" stroke-width="0.55"/>
<polygon points="379.00,49.86 391.00,49.86 397.20,58.26 386.20,58.26" fill="#dcfce7" opacity="0.14"/>
<polygon points="397.00,72.00 411.00,72.00 418.00,82.00 404.00,82.00" fill="#161b22" stroke="#0d1117" stroke-width="0.55"/>
<polygon points="416.00,72.00 430.00,72.00 437.00,82.00 423.00,82.00" fill="#161b22" stroke="#0d1117" stroke-width="0.55"/>
<polygon points="443.20,83.00 457.20,83.00 461.20,87.20 447.20,87.20" fill="#020617" opacity="0.10"/>
<polygon points="449.00,65.37 456.00,75.37 456.00,82.00 449.00,72.00" fill="#062013"/>
<polygon points="442.00,75.37 456.00,75.37 456.00,82.00 442.00,82.00" fill="#082a19"/>
<polygon points="435.00,65.37 449.00,65.37 456.00,75.37 442.00,75.37" fill="#0e4429" stroke="#0d1117" stroke-width="0.55"/>
<polygon points="436.00,66.17 448.00,66.17 454.20,74.57 443.20,74.57" fill="#dcfce7" opacity="0.08"/>
<polygon points="454.00,72.00 468.00,72.00 475.00,82.00 461.00,82.00" fill="#161b22" stroke="#0d1117" stroke-width="0.55"/>
<polygon points="473.00,72.00 487.00,72.00 494.00,82.00 480.00,82.00" fill="#161b22" stroke="#0d1117" stroke-width="0.55"/>
<polygon points="500.20,83.00 514.20,83.00 518.20,87.20 504.20,87.20" fill="#020617" opacity="0.13"/>
<polygon points="506.00,61.49 513.00,71.49 513.00,82.00 506.00,72.00" fill="#062013"/>
<polygon points="499.00,71.49 513.00,71.49 513.00,82.00 499.00,82.00" fill="#082a19"/>
<polygon points="492.00,61.49 506.00,61.49 513.00,71.49 499.00,71.49" fill="#0e4429" stroke="#0d1117" stroke-width="0.55"/>
<polygon points="493.00,62.29 505.00,62.29 511.20,70.69 500.20,70.69" fill="#dcfce7" opacity="0.09"/>
<polygon points="511.00,72.00 525.00,72.00 532.00,82.00 518.00,82.00" fill="#161b22" stroke="#0d1117" stroke-width="0.55"/>
<polygon points="538.20,83.00 552.20,83.00 556.20,87.20 542.20,87.20" fill="#020617" opacity="0.10"/>
<polygon points="544.00,65.37 551.00,75.37 551.00,82.00 544.00,72.00" fill="#062013"/>
<polygon points="537.00,75.37 551.00,75.37 551.00,82.00 537.00,82.00" fill="#082a19"/>
<polygon points="530.00,65.37 544.00,65.37 551.00,75.37 537.00,75.37" fill="#0e4429" stroke="#0d1117" stroke-width="0.55"/>
<polygon points="531.00,66.17 543.00,66.17 549.20,74.57 538.20,74.57" fill="#dcfce7" opacity="0.08"/>
<polygon points="557.20,83.00 571.20,83.00 575.20,87.20 561.20,87.20" fill="#020617" opacity="0.13"/>
<polygon points="563.00,61.49 570.00,71.49 570.00,82.00 563.00,72.00" fill="#062013"/>
<polygon points="556.00,71.49 570.00,71.49 570.00,82.00 556.00,82.00" fill="#082a19"/>
<polygon points="549.00,61.49 563.00,61.49 570.00,71.49 556.00,71.49" fill="#0e4429" stroke="#0d1117" stroke-width="0.55"/>
<polygon points="550.00,62.29 562.00,62.29 568.20,70.69 557.20,70.69" fill="#dcfce7" opacity="0.09"/>
<polygon points="568.00,72.00 582.00,72.00 589.00,82.00 575.00,82.00" fill="#161b22" stroke="#0d1117" stroke-width="0.55"/>
<polygon points="587.00,72.00 601.00,72.00 608.00,82.00 594.00,82.00" fill="#161b22" stroke="#0d1117" stroke-width="0.55"/>
<polygon points="614.20,83.00 628.20,83.00 632.20,87.20 618.20,87.20" fill="#020617" opacity="0.10"/>
<polygon points="620.00,65.37 627.00,75.37 627.00,82.00 620.00,72.00" fill="#062013"/>
<polygon points="613.00,75.37 627.00,75.37 627.00,82.00 613.00,82.00" fill="#082a19"/>
<polygon points="606.00,65.37 620.00,65.37 627.00,75.37 613.00,75.37" fill="#0e4429" stroke="#0d1117" stroke-width="0.55"/>
<polygon points="607.00,66.17 619.00,66.17 625.20,74.57 614.20,74.57" fill="#dcfce7" opacity="0.08"/>
<polygon points="625.00,72.00 639.00,72.00 646.00,82.00 632.00,82.00" fill="#161b22" stroke="#0d1117" stroke-width="0.55"/>
<polygon points="644.00,72.00 658.00,72.00 665.00,82.00 651.00,82.00" fill="#161b22" stroke="#0d1117" stroke-width="0.55"/>
<polygon points="663.00,72.00 677.00,72.00 684.00,82.00 670.00,82.00" fill="#161b22" stroke="#0d1117" stroke-width="0.55"/>
<polygon points="682.00,72.00 696.00,72.00 703.00,82.00 689.00,82.00" fill="#161b22" stroke="#0d1117" stroke-width="0.55"/>
<polygon points="701.00,72.00 715.00,72.00 722.00,82.00 708.00,82.00" fill="#161b22" stroke="#0d1117" stroke-width="0.55"/>
<polygon points="728.20,83.00 742.20,83.00 746.20,87.20 732.20,87.20" fill="#020617" opacity="0.10"/>
<polygon points="734.00,65.37 741.00,75.37 741.00,82.00 734.00,72.00" fill="#062013"/>
<polygon points="727.00,75.37 741.00,75.37 741.00,82.00 727.00,82.00" fill="#082a19"/>
<polygon points="720.00,65.37 734.00,65.37 741.00,75.37 727.00,75.37" fill="#0e4429" stroke="#0d1117" stroke-width="0.55"/>
<polygon points="721.00,66.17 733.00,66.17 739.20,74.57 728.20,74.57" fill="#dcfce7" opacity="0.08"/>
<polygon points="739.00,72.00 753.00,72.00 760.00,82.00 746.00,82.00" fill="#161b22" stroke="#0d1117" stroke-width="0.55"/>
<polygon points="758.00,72.00 772.00,72.00 779.00,82.00 765.00,82.00" fill="#161b22" stroke="#0d1117" stroke-width="0.55"/>
<polygon points="777.00,72.00 791.00,72.00 798.00,82.00 784.00,82.00" fill="#161b22" stroke="#0d1117" stroke-width="0.55"/>
<polygon points="796.00,72.00 810.00,72.00 817.00,82.00 803.00,82.00" fill="#161b22" stroke="#0d1117" stroke-width="0.55"/>
<polygon points="815.00,72.00 829.00,72.00 836.00,82.00 822.00,82.00" fill="#161b22" stroke="#0d1117" stroke-width="0.55"/>
<polygon points="834.00,72.00 848.00,72.00 855.00,82.00 841.00,82.00" fill="#161b22" stroke="#0d1117" stroke-width="0.55"/>
<polygon points="853.00,72.00 867.00,72.00 874.00,82.00 860.00,82.00" fill="#161b22" stroke="#0d1117" stroke-width="0.55"/>
<polygon points="872.00,72.00 886.00,72.00 893.00,82.00 879.00,82.00" fill="#161b22" stroke="#0d1117" stroke-width="0.55"/>
<polygon points="891.00,72.00 905.00,72.00 912.00,82.00 898.00,82.00" fill="#161b22" stroke="#0d1117" stroke-width="0.55"/>
<polygon points="910.00,72.00 924.00,72.00 931.00,82.00 917.00,82.00" fill="#161b22" stroke="#0d1117" stroke-width="0.55"/>
<polygon points="929.00,72.00 943.00,72.00 950.00,82.00 936.00,82.00" fill="#161b22" stroke="#0d1117" stroke-width="0.55"/>
<polygon points="948.00,72.00 962.00,72.00 969.00,82.00 955.00,82.00" fill="#161b22" stroke="#0d1117" stroke-width="0.55"/>
<polygon points="975.20,83.00 989.20,83.00 993.20,87.20 979.20,87.20" fill="#020617" opacity="0.10"/>
<polygon points="981.00,65.37 988.00,75.37 988.00,82.00 981.00,72.00" fill="#062013"/>
<polygon points="974.00,75.37 988.00,75.37 988.00,82.00 974.00,82.00" fill="#082a19"/>
<polygon points="967.00,65.37 981.00,65.37 988.00,75.37 974.00,75.37" fill="#0e4429" stroke="#0d1117" stroke-width="0.55"/>
<polygon points="968.00,66.17 980.00,66.17 986.20,74.57 975.20,74.57" fill="#dcfce7" opacity="0.08"/>
<polygon points="994.20,83.00 1008.20,83.00 1012.20,87.20 998.20,87.20" fill="#020617" opacity="0.10"/>
<polygon points="1000.00,65.37 1007.00,75.37 1007.00,82.00 1000.00,72.00" fill="#062013"/>
<polygon points="993.00,75.37 1007.00,75.37 1007.00,82.00 993.00,82.00" fill="#082a19"/>
<polygon points="986.00,65.37 1000.00,65.37 1007.00,75.37 993.00,75.37" fill="#0e4429" stroke="#0d1117" stroke-width="0.55"/>
<polygon points="987.00,66.17 999.00,66.17 1005.20,74.57 994.20,74.57" fill="#dcfce7" opacity="0.08"/>
<polygon points="1013.20,83.00 1027.20,83.00 1031.20,87.20 1017.20,87.20" fill="#020617" opacity="0.16"/>
<polygon points="1019.00,56.60 1026.00,66.60 1026.00,82.00 1019.00,72.00" fill="#003418"/>
<polygon points="1012.00,66.60 1026.00,66.60 1026.00,82.00 1012.00,82.00" fill="#00431f"/>
<polygon points="1005.00,56.60 1019.00,56.60 1026.00,66.60 1012.00,66.60" fill="#006d32" stroke="#0d1117" stroke-width="0.55"/>
<polygon points="1006.00,57.40 1018.00,57.40 1024.20,65.80 1013.20,65.80" fill="#dcfce7" opacity="0.11"/>
<polygon points="1024.00,72.00 1038.00,72.00 1045.00,82.00 1031.00,82.00" fill="#161b22" stroke="#0d1117" stroke-width="0.55"/>
<polygon points="43.00,82.00 57.00,82.00 64.00,92.00 50.00,92.00" fill="#161b22" stroke="#0d1117" stroke-width="0.55"/>
<polygon points="70.20,93.00 84.20,93.00 88.20,97.20 74.20,97.20" fill="#020617" opacity="0.10"/>
<polygon points="76.00,75.37 83.00,85.37 83.00,92.00 76.00,82.00" fill="#062013"/>
<polygon points="69.00,85.37 83.00,85.37 83.00,92.00 69.00,92.00" fill="#082a19"/>
<polygon points="62.00,75.37 76.00,75.37 83.00,85.37 69.00,85.37" fill="#0e4429" stroke="#0d1117" stroke-width="0.55"/>
<polygon points="63.00,76.17 75.00,76.17 81.20,84.57 70.20,84.57" fill="#dcfce7" opacity="0.08"/>
<polygon points="81.00,82.00 95.00,82.00 102.00,92.00 88.00,92.00" fill="#161b22" stroke="#0d1117" stroke-width="0.55"/>
<polygon points="108.20,93.00 122.20,93.00 126.20,97.20 112.20,97.20" fill="#020617" opacity="0.10"/>
<polygon points="114.00,75.37 121.00,85.37 121.00,92.00 114.00,82.00" fill="#062013"/>
<polygon points="107.00,85.37 121.00,85.37 121.00,92.00 107.00,92.00" fill="#082a19"/>
<polygon points="100.00,75.37 114.00,75.37 121.00,85.37 107.00,85.37" fill="#0e4429" stroke="#0d1117" stroke-width="0.55"/>
<polygon points="101.00,76.17 113.00,76.17 119.20,84.57 108.20,84.57" fill="#dcfce7" opacity="0.08"/>
<polygon points="119.00,82.00 133.00,82.00 140.00,92.00 126.00,92.00" fill="#161b22" stroke="#0d1117" stroke-width="0.55"/>
<polygon points="146.20,93.00 160.20,93.00 164.20,97.20 150.20,97.20" fill="#020617" opacity="0.16"/>
<polygon points="152.00,66.60 159.00,76.60 159.00,92.00 152.00,82.00" fill="#003418"/>
<polygon points="145.00,76.60 159.00,76.60 159.00,92.00 145.00,92.00" fill="#00431f"/>
<polygon points="138.00,66.60 152.00,66.60 159.00,76.60 145.00,76.60" fill="#006d32" stroke="#0d1117" stroke-width="0.55"/>
<polygon points="139.00,67.40 151.00,67.40 157.20,75.80 146.20,75.80" fill="#dcfce7" opacity="0.11"/>
<polygon points="157.00,82.00 171.00,82.00 178.00,92.00 164.00,92.00" fill="#161b22" stroke="#0d1117" stroke-width="0.55"/>
<polygon points="176.00,82.00 190.00,82.00 197.00,92.00 183.00,92.00" fill="#161b22" stroke="#0d1117" stroke-width="0.55"/>
<polygon points="195.00,82.00 209.00,82.00 216.00,92.00 202.00,92.00" fill="#161b22" stroke="#0d1117" stroke-width="0.55"/>
<polygon points="214.00,82.00 228.00,82.00 235.00,92.00 221.00,92.00" fill="#161b22" stroke="#0d1117" stroke-width="0.55"/>
<polygon points="233.00,82.00 247.00,82.00 254.00,92.00 240.00,92.00" fill="#161b22" stroke="#0d1117" stroke-width="0.55"/>
<polygon points="260.20,93.00 274.20,93.00 278.20,97.20 264.20,97.20" fill="#020617" opacity="0.19"/>
<polygon points="266.00,62.10 273.00,72.10 273.00,92.00 266.00,82.00" fill="#124f1f"/>
<polygon points="259.00,72.10 273.00,72.10 273.00,92.00 259.00,92.00" fill="#176628"/>
<polygon points="252.00,62.10 266.00,62.10 273.00,72.10 259.00,72.10" fill="#26a641" stroke="#0d1117" stroke-width="0.55"/>
<polygon points="253.00,62.90 265.00,62.90 271.20,71.30 260.20,71.30" fill="#dcfce7" opacity="0.13"/>
<polygon points="271.00,82.00 285.00,82.00 292.00,92.00 278.00,92.00" fill="#161b22" stroke="#0d1117" stroke-width="0.55"/>
<polygon points="290.00,82.00 304.00,82.00 311.00,92.00 297.00,92.00" fill="#161b22" stroke="#0d1117" stroke-width="0.55"/>
<polygon points="309.00,82.00 323.00,82.00 330.00,92.00 316.00,92.00" fill="#161b22" stroke="#0d1117" stroke-width="0.55"/>
<polygon points="328.00,82.00 342.00,82.00 349.00,92.00 335.00,92.00" fill="#161b22" stroke="#0d1117" stroke-width="0.55"/>
<polygon points="355.20,93.00 369.20,93.00 373.20,97.20 359.20,97.20" fill="#020617" opacity="0.13"/>
<polygon points="361.00,71.49 368.00,81.49 368.00,92.00 361.00,82.00" fill="#062013"/>
<polygon points="354.00,81.49 368.00,81.49 368.00,92.00 354.00,92.00" fill="#082a19"/>
<polygon points="347.00,71.49 361.00,71.49 368.00,81.49 354.00,81.49" fill="#0e4429" stroke="#0d1117" stroke-width="0.55"/>
<polygon points="348.00,72.29 360.00,72.29 366.20,80.69 355.20,80.69" fill="#dcfce7" opacity="0.09"/>
<polygon points="366.00,82.00 380.00,82.00 387.00,92.00 373.00,92.00" fill="#161b22" stroke="#0d1117" stroke-width="0.55"/>
<polygon points="393.20,93.00 407.20,93.00 411.20,97.20 397.20,97.20" fill="#020617" opacity="0.17"/>
<polygon points="399.00,64.86 406.00,74.86 406.00,92.00 399.00,82.00" fill="#003418"/>
<polygon points="392.00,74.86 406.00,74.86 406.00,92.00 392.00,92.00" fill="#00431f"/>
<polygon points="385.00,64.86 399.00,64.86 406.00,74.86 392.00,74.86" fill="#006d32" stroke="#0d1117" stroke-width="0.55"/>
<polygon points="386.00,65.66 398.00,65.66 404.20,74.06 393.20,74.06" fill="#dcfce7" opacity="0.12"/>
<polygon points="412.20,93.00 426.20,93.00 430.20,97.20 416.20,97.20" fill="#020617" opacity="0.10"/>
<polygon points="418.00,75.37 425.00,85.37 425.00,92.00 418.00,82.00" fill="#062013"/>
<polygon points="411.00,85.37 425.00,85.37 425.00,92.00 411.00,92.00" fill="#082a19"/>
<polygon points="404.00,75.37 418.00,75.37 425.00,85.37 411.00,85.37" fill="#0e4429" stroke="#0d1117" stroke-width="0.55"/>
<polygon points="405.00,76.17 417.00,76.17 423.20,84.57 412.20,84.57" fill="#dcfce7" opacity="0.08"/>
<polygon points="431.20,93.00 445.20,93.00 449.20,97.20 435.20,97.20" fill="#020617" opacity="0.10"/>
<polygon points="437.00,75.37 444.00,85.37 444.00,92.00 437.00,82.00" fill="#062013"/>
<polygon points="430.00,85.37 444.00,85.37 444.00,92.00 430.00,92.00" fill="#082a19"/>
<polygon points="423.00,75.37 437.00,75.37 444.00,85.37 430.00,85.37" fill="#0e4429" stroke="#0d1117" stroke-width="0.55"/>
<polygon points="424.00,76.17 436.00,76.17 442.20,84.57 431.20,84.57" fill="#dcfce7" opacity="0.08"/>
<polygon points="442.00,82.00 456.00,82.00 463.00,92.00 449.00,92.00" fill="#161b22" stroke="#0d1117" stroke-width="0.55"/>
<polygon points="469.20,93.00 483.20,93.00 487.20,97.20 473.20,97.20" fill="#020617" opacity="0.10"/>
<polygon points="475.00,75.37 482.00,85.37 482.00,92.00 475.00,82.00" fill="#062013"/>
<polygon points="468.00,85.37 482.00,85.37 482.00,92.00 468.00,92.00" fill="#082a19"/>
<polygon points="461.00,75.37 475.00,75.37 482.00,85.37 468.00,85.37" fill="#0e4429" stroke="#0d1117" stroke-width="0.55"/>
<polygon points="462.00,76.17 474.00,76.17 480.20,84.57 469.20,84.57" fill="#dcfce7" opacity="0.08"/>
<polygon points="480.00,82.00 494.00,82.00 501.00,92.00 487.00,92.00" fill="#161b22" stroke="#0d1117" stroke-width="0.55"/>
<polygon points="507.20,93.00 521.20,93.00 525.20,97.20 511.20,97.20" fill="#020617" opacity="0.10"/>
<polygon points="513.00,75.37 520.00,85.37 520.00,92.00 513.00,82.00" fill="#062013"/>
<polygon points="506.00,85.37 520.00,85.37 520.00,92.00 506.00,92.00" fill="#082a19"/>
<polygon points="499.00,75.37 513.00,75.37 520.00,85.37 506.00,85.37" fill="#0e4429" stroke="#0d1117" stroke-width="0.55"/>
<polygon points="500.00,76.17 512.00,76.17 518.20,84.57 507.20,84.57" fill="#dcfce7" opacity="0.08"/>
<polygon points="518.00,82.00 532.00,82.00 539.00,92.00 525.00,92.00" fill="#161b22" stroke="#0d1117" stroke-width="0.55"/>
<polygon points="545.20,93.00 559.20,93.00 563.20,97.20 549.20,97.20" fill="#020617" opacity="0.10"/>
<polygon points="551.00,75.37 558.00,85.37 558.00,92.00 551.00,82.00" fill="#062013"/>
<polygon points="544.00,85.37 558.00,85.37 558.00,92.00 544.00,92.00" fill="#082a19"/>
<polygon points="537.00,75.37 551.00,75.37 558.00,85.37 544.00,85.37" fill="#0e4429" stroke="#0d1117" stroke-width="0.55"/>
<polygon points="538.00,76.17 550.00,76.17 556.20,84.57 545.20,84.57" fill="#dcfce7" opacity="0.08"/>
<polygon points="556.00,82.00 570.00,82.00 577.00,92.00 563.00,92.00" fill="#161b22" stroke="#0d1117" stroke-width="0.55"/>
<polygon points="583.20,93.00 597.20,93.00 601.20,97.20 587.20,97.20" fill="#020617" opacity="0.10"/>
<polygon points="589.00,75.37 596.00,85.37 596.00,92.00 589.00,82.00" fill="#062013"/>
<polygon points="582.00,85.37 596.00,85.37 596.00,92.00 582.00,92.00" fill="#082a19"/>
<polygon points="575.00,75.37 589.00,75.37 596.00,85.37 582.00,85.37" fill="#0e4429" stroke="#0d1117" stroke-width="0.55"/>
<polygon points="576.00,76.17 588.00,76.17 594.20,84.57 583.20,84.57" fill="#dcfce7" opacity="0.08"/>
<polygon points="594.00,82.00 608.00,82.00 615.00,92.00 601.00,92.00" fill="#161b22" stroke="#0d1117" stroke-width="0.55"/>
<polygon points="621.20,93.00 635.20,93.00 639.20,97.20 625.20,97.20" fill="#020617" opacity="0.10"/>
<polygon points="627.00,75.37 634.00,85.37 634.00,92.00 627.00,82.00" fill="#062013"/>
<polygon points="620.00,85.37 634.00,85.37 634.00,92.00 620.00,92.00" fill="#082a19"/>
<polygon points="613.00,75.37 627.00,75.37 634.00,85.37 620.00,85.37" fill="#0e4429" stroke="#0d1117" stroke-width="0.55"/>
<polygon points="614.00,76.17 626.00,76.17 632.20,84.57 621.20,84.57" fill="#dcfce7" opacity="0.08"/>
<polygon points="632.00,82.00 646.00,82.00 653.00,92.00 639.00,92.00" fill="#161b22" stroke="#0d1117" stroke-width="0.55"/>
<polygon points="651.00,82.00 665.00,82.00 672.00,92.00 658.00,92.00" fill="#161b22" stroke="#0d1117" stroke-width="0.55"/>
<polygon points="670.00,82.00 684.00,82.00 691.00,92.00 677.00,92.00" fill="#161b22" stroke="#0d1117" stroke-width="0.55"/>
<polygon points="689.00,82.00 703.00,82.00 710.00,92.00 696.00,92.00" fill="#161b22" stroke="#0d1117" stroke-width="0.55"/>
<polygon points="708.00,82.00 722.00,82.00 729.00,92.00 715.00,92.00" fill="#161b22" stroke="#0d1117" stroke-width="0.55"/>
<polygon points="727.00,82.00 741.00,82.00 748.00,92.00 734.00,92.00" fill="#161b22" stroke="#0d1117" stroke-width="0.55"/>
<polygon points="746.00,82.00 760.00,82.00 767.00,92.00 753.00,92.00" fill="#161b22" stroke="#0d1117" stroke-width="0.55"/>
<polygon points="765.00,82.00 779.00,82.00 786.00,92.00 772.00,92.00" fill="#161b22" stroke="#0d1117" stroke-width="0.55"/>
<polygon points="784.00,82.00 798.00,82.00 805.00,92.00 791.00,92.00" fill="#161b22" stroke="#0d1117" stroke-width="0.55"/>
<polygon points="803.00,82.00 817.00,82.00 824.00,92.00 810.00,92.00" fill="#161b22" stroke="#0d1117" stroke-width="0.55"/>
<polygon points="822.00,82.00 836.00,82.00 843.00,92.00 829.00,92.00" fill="#161b22" stroke="#0d1117" stroke-width="0.55"/>
<polygon points="841.00,82.00 855.00,82.00 862.00,92.00 848.00,92.00" fill="#161b22" stroke="#0d1117" stroke-width="0.55"/>
<polygon points="860.00,82.00 874.00,82.00 881.00,92.00 867.00,92.00" fill="#161b22" stroke="#0d1117" stroke-width="0.55"/>
<polygon points="879.00,82.00 893.00,82.00 900.00,92.00 886.00,92.00" fill="#161b22" stroke="#0d1117" stroke-width="0.55"/>
<polygon points="898.00,82.00 912.00,82.00 919.00,92.00 905.00,92.00" fill="#161b22" stroke="#0d1117" stroke-width="0.55"/>
<polygon points="917.00,82.00 931.00,82.00 938.00,92.00 924.00,92.00" fill="#161b22" stroke="#0d1117" stroke-width="0.55"/>
<polygon points="944.20,93.00 958.20,93.00 962.20,97.20 948.20,97.20" fill="#020617" opacity="0.16"/>
<polygon points="950.00,66.60 957.00,76.60 957.00,92.00 950.00,82.00" fill="#003418"/>
<polygon points="943.00,76.60 957.00,76.60 957.00,92.00 943.00,92.00" fill="#00431f"/>
<polygon points="936.00,66.60 950.00,66.60 957.00,76.60 943.00,76.60" fill="#006d32" stroke="#0d1117" stroke-width="0.55"/>
<polygon points="937.00,67.40 949.00,67.40 955.20,75.80 944.20,75.80" fill="#dcfce7" opacity="0.11"/>
<polygon points="963.20,93.00 977.20,93.00 981.20,97.20 967.20,97.20" fill="#020617" opacity="0.22"/>
<polygon points="969.00,56.09 976.00,66.09 976.00,92.00 969.00,82.00" fill="#124f1f"/>
<polygon points="962.00,66.09 976.00,66.09 976.00,92.00 962.00,92.00" fill="#176628"/>
<polygon points="955.00,56.09 969.00,56.09 976.00,66.09 962.00,66.09" fill="#26a641" stroke="#0d1117" stroke-width="0.55"/>
<polygon points="956.00,56.89 968.00,56.89 974.20,65.29 963.20,65.29" fill="#dcfce7" opacity="0.15"/>
<polygon points="974.00,82.00 988.00,82.00 995.00,92.00 981.00,92.00" fill="#161b22" stroke="#0d1117" stroke-width="0.55"/>
<polygon points="993.00,82.00 1007.00,82.00 1014.00,92.00 1000.00,92.00" fill="#161b22" stroke="#0d1117" stroke-width="0.55"/>
<polygon points="1012.00,82.00 1026.00,82.00 1033.00,92.00 1019.00,92.00" fill="#161b22" stroke="#0d1117" stroke-width="0.55"/>
<polygon points="1031.00,82.00 1045.00,82.00 1052.00,92.00 1038.00,92.00" fill="#161b22" stroke="#0d1117" stroke-width="0.55"/>
<polygon points="50.00,92.00 64.00,92.00 71.00,102.00 57.00,102.00" fill="#161b22" stroke="#0d1117" stroke-width="0.55"/>
<polygon points="69.00,92.00 83.00,92.00 90.00,102.00 76.00,102.00" fill="#161b22" stroke="#0d1117" stroke-width="0.55"/>
<polygon points="88.00,92.00 102.00,92.00 109.00,102.00 95.00,102.00" fill="#161b22" stroke="#0d1117" stroke-width="0.55"/>
<polygon points="115.20,103.00 129.20,103.00 133.20,107.20 119.20,107.20" fill="#020617" opacity="0.10"/>
<polygon points="121.00,85.37 128.00,95.37 128.00,102.00 121.00,92.00" fill="#062013"/>
<polygon points="114.00,95.37 128.00,95.37 128.00,102.00 114.00,102.00" fill="#082a19"/>
<polygon points="107.00,85.37 121.00,85.37 128.00,95.37 114.00,95.37" fill="#0e4429" stroke="#0d1117" stroke-width="0.55"/>
<polygon points="108.00,86.17 120.00,86.17 126.20,94.57 115.20,94.57" fill="#dcfce7" opacity="0.08"/>
<polygon points="134.20,103.00 148.20,103.00 152.20,107.20 138.20,107.20" fill="#020617" opacity="0.15"/>
<polygon points="140.00,78.74 147.00,88.74 147.00,102.00 140.00,92.00" fill="#003418"/>
<polygon points="133.00,88.74 147.00,88.74 147.00,102.00 133.00,102.00" fill="#00431f"/>
<polygon points="126.00,78.74 140.00,78.74 147.00,88.74 133.00,88.74" fill="#006d32" stroke="#0d1117" stroke-width="0.55"/>
<polygon points="127.00,79.54 139.00,79.54 145.20,87.94 134.20,87.94" fill="#dcfce7" opacity="0.10"/>
<polygon points="145.00,92.00 159.00,92.00 166.00,102.00 152.00,102.00" fill="#161b22" stroke="#0d1117" stroke-width="0.55"/>
<polygon points="164.00,92.00 178.00,92.00 185.00,102.00 171.00,102.00" fill="#161b22" stroke="#0d1117" stroke-width="0.55"/>
<polygon points="183.00,92.00 197.00,92.00 204.00,102.00 190.00,102.00" fill="#161b22" stroke="#0d1117" stroke-width="0.55"/>
<polygon points="202.00,92.00 216.00,92.00 223.00,102.00 209.00,102.00" fill="#161b22" stroke="#0d1117" stroke-width="0.55"/>
<polygon points="221.00,92.00 235.00,92.00 242.00,102.00 228.00,102.00" fill="#161b22" stroke="#0d1117" stroke-width="0.55"/>
<polygon points="248.20,103.00 262.20,103.00 266.20,107.20 252.20,107.20" fill="#020617" opacity="0.18"/>
<polygon points="254.00,73.38 261.00,83.38 261.00,102.00 254.00,92.00" fill="#003418"/>
<polygon points="247.00,83.38 261.00,83.38 261.00,102.00 247.00,102.00" fill="#00431f"/>
<polygon points="240.00,73.38 254.00,73.38 261.00,83.38 247.00,83.38" fill="#006d32" stroke="#0d1117" stroke-width="0.55"/>
<polygon points="241.00,74.18 253.00,74.18 259.20,82.58 248.20,82.58" fill="#dcfce7" opacity="0.12"/>
<polygon points="267.20,103.00 281.20,103.00 285.20,107.20 271.20,107.20" fill="#020617" opacity="0.21"/>
<polygon points="273.00,69.97 280.00,79.97 280.00,102.00 273.00,92.00" fill="#124f1f"/>
<polygon points="266.00,79.97 280.00,79.97 280.00,102.00 266.00,102.00" fill="#176628"/>
<polygon points="259.00,69.97 273.00,69.97 280.00,79.97 266.00,79.97" fill="#26a641" stroke="#0d1117" stroke-width="0.55"/>
<polygon points="260.00,70.77 272.00,70.77 278.20,79.17 267.20,79.17" fill="#dcfce7" opacity="0.14"/>
<polygon points="278.00,92.00 292.00,92.00 299.00,102.00 285.00,102.00" fill="#161b22" stroke="#0d1117" stroke-width="0.55"/>
<polygon points="297.00,92.00 311.00,92.00 318.00,102.00 304.00,102.00" fill="#161b22" stroke="#0d1117" stroke-width="0.55"/>
<polygon points="316.00,92.00 330.00,92.00 337.00,102.00 323.00,102.00" fill="#161b22" stroke="#0d1117" stroke-width="0.55"/>
<polygon points="335.00,92.00 349.00,92.00 356.00,102.00 342.00,102.00" fill="#161b22" stroke="#0d1117" stroke-width="0.55"/>
<polygon points="354.00,92.00 368.00,92.00 375.00,102.00 361.00,102.00" fill="#161b22" stroke="#0d1117" stroke-width="0.55"/>
<polygon points="373.00,92.00 387.00,92.00 394.00,102.00 380.00,102.00" fill="#161b22" stroke="#0d1117" stroke-width="0.55"/>
<polygon points="400.20,103.00 414.20,103.00 418.20,107.20 404.20,107.20" fill="#020617" opacity="0.13"/>
<polygon points="406.00,81.49 413.00,91.49 413.00,102.00 406.00,92.00" fill="#062013"/>
<polygon points="399.00,91.49 413.00,91.49 413.00,102.00 399.00,102.00" fill="#082a19"/>
<polygon points="392.00,81.49 406.00,81.49 413.00,91.49 399.00,91.49" fill="#0e4429" stroke="#0d1117" stroke-width="0.55"/>
<polygon points="393.00,82.29 405.00,82.29 411.20,90.69 400.20,90.69" fill="#dcfce7" opacity="0.09"/>
<polygon points="411.00,92.00 425.00,92.00 432.00,102.00 418.00,102.00" fill="#161b22" stroke="#0d1117" stroke-width="0.55"/>
<polygon points="430.00,92.00 444.00,92.00 451.00,102.00 437.00,102.00" fill="#161b22" stroke="#0d1117" stroke-width="0.55"/>
<polygon points="449.00,92.00 463.00,92.00 470.00,102.00 456.00,102.00" fill="#161b22" stroke="#0d1117" stroke-width="0.55"/>
<polygon points="468.00,92.00 482.00,92.00 489.00,102.00 475.00,102.00" fill="#161b22" stroke="#0d1117" stroke-width="0.55"/>
<polygon points="487.00,92.00 501.00,92.00 508.00,102.00 494.00,102.00" fill="#161b22" stroke="#0d1117" stroke-width="0.55"/>
<polygon points="506.00,92.00 520.00,92.00 527.00,102.00 513.00,102.00" fill="#161b22" stroke="#0d1117" stroke-width="0.55"/>
<polygon points="525.00,92.00 539.00,92.00 546.00,102.00 532.00,102.00" fill="#161b22" stroke="#0d1117" stroke-width="0.55"/>
<polygon points="552.20,103.00 566.20,103.00 570.20,107.20 556.20,107.20" fill="#020617" opacity="0.13"/>
<polygon points="558.00,81.49 565.00,91.49 565.00,102.00 558.00,92.00" fill="#062013"/>
<polygon points="551.00,91.49 565.00,91.49 565.00,102.00 551.00,102.00" fill="#082a19"/>
<polygon points="544.00,81.49 558.00,81.49 565.00,91.49 551.00,91.49" fill="#0e4429" stroke="#0d1117" stroke-width="0.55"/>
<polygon points="545.00,82.29 557.00,82.29 563.20,90.69 552.20,90.69" fill="#dcfce7" opacity="0.09"/>
<polygon points="563.00,92.00 577.00,92.00 584.00,102.00 570.00,102.00" fill="#161b22" stroke="#0d1117" stroke-width="0.55"/>
<polygon points="590.20,103.00 604.20,103.00 608.20,107.20 594.20,107.20" fill="#020617" opacity="0.10"/>
<polygon points="596.00,85.37 603.00,95.37 603.00,102.00 596.00,92.00" fill="#062013"/>
<polygon points="589.00,95.37 603.00,95.37 603.00,102.00 589.00,102.00" fill="#082a19"/>
<polygon points="582.00,85.37 596.00,85.37 603.00,95.37 589.00,95.37" fill="#0e4429" stroke="#0d1117" stroke-width="0.55"/>
<polygon points="583.00,86.17 595.00,86.17 601.20,94.57 590.20,94.57" fill="#dcfce7" opacity="0.08"/>
<polygon points="601.00,92.00 615.00,92.00 622.00,102.00 608.00,102.00" fill="#161b22" stroke="#0d1117" stroke-width="0.55"/>
<polygon points="620.00,92.00 634.00,92.00 641.00,102.00 627.00,102.00" fill="#161b22" stroke="#0d1117" stroke-width="0.55"/>
<polygon points="647.20,103.00 661.20,103.00 665.20,107.20 651.20,107.20" fill="#020617" opacity="0.15"/>
<polygon points="653.00,78.74 660.00,88.74 660.00,102.00 653.00,92.00" fill="#003418"/>
<polygon points="646.00,88.74 660.00,88.74 660.00,102.00 646.00,102.00" fill="#00431f"/>
<polygon points="639.00,78.74 653.00,78.74 660.00,88.74 646.00,88.74" fill="#006d32" stroke="#0d1117" stroke-width="0.55"/>
<polygon points="640.00,79.54 652.00,79.54 658.20,87.94 647.20,87.94" fill="#dcfce7" opacity="0.10"/>
<polygon points="658.00,92.00 672.00,92.00 679.00,102.00 665.00,102.00" fill="#161b22" stroke="#0d1117" stroke-width="0.55"/>
<polygon points="685.20,103.00 699.20,103.00 703.20,107.20 689.20,107.20" fill="#020617" opacity="0.10"/>
<polygon points="691.00,85.37 698.00,95.37 698.00,102.00 691.00,92.00" fill="#062013"/>
<polygon points="684.00,95.37 698.00,95.37 698.00,102.00 684.00,102.00" fill="#082a19"/>
<polygon points="677.00,85.37 691.00,85.37 698.00,95.37 684.00,95.37" fill="#0e4429" stroke="#0d1117" stroke-width="0.55"/>
<polygon points="678.00,86.17 690.00,86.17 696.20,94.57 685.20,94.57" fill="#dcfce7" opacity="0.08"/>
<polygon points="696.00,92.00 710.00,92.00 717.00,102.00 703.00,102.00" fill="#161b22" stroke="#0d1117" stroke-width="0.55"/>
<polygon points="715.00,92.00 729.00,92.00 736.00,102.00 722.00,102.00" fill="#161b22" stroke="#0d1117" stroke-width="0.55"/>
<polygon points="734.00,92.00 748.00,92.00 755.00,102.00 741.00,102.00" fill="#161b22" stroke="#0d1117" stroke-width="0.55"/>
<polygon points="753.00,92.00 767.00,92.00 774.00,102.00 760.00,102.00" fill="#161b22" stroke="#0d1117" stroke-width="0.55"/>
<polygon points="772.00,92.00 786.00,92.00 793.00,102.00 779.00,102.00" fill="#161b22" stroke="#0d1117" stroke-width="0.55"/>
<polygon points="791.00,92.00 805.00,92.00 812.00,102.00 798.00,102.00" fill="#161b22" stroke="#0d1117" stroke-width="0.55"/>
<polygon points="810.00,92.00 824.00,92.00 831.00,102.00 817.00,102.00" fill="#161b22" stroke="#0d1117" stroke-width="0.55"/>
<polygon points="837.20,103.00 851.20,103.00 855.20,107.20 841.20,107.20" fill="#020617" opacity="0.15"/>
<polygon points="843.00,78.74 850.00,88.74 850.00,102.00 843.00,92.00" fill="#003418"/>
<polygon points="836.00,88.74 850.00,88.74 850.00,102.00 836.00,102.00" fill="#00431f"/>
<polygon points="829.00,78.74 843.00,78.74 850.00,88.74 836.00,88.74" fill="#006d32" stroke="#0d1117" stroke-width="0.55"/>
<polygon points="830.00,79.54 842.00,79.54 848.20,87.94 837.20,87.94" fill="#dcfce7" opacity="0.10"/>
<polygon points="848.00,92.00 862.00,92.00 869.00,102.00 855.00,102.00" fill="#161b22" stroke="#0d1117" stroke-width="0.55"/>
<polygon points="867.00,92.00 881.00,92.00 888.00,102.00 874.00,102.00" fill="#161b22" stroke="#0d1117" stroke-width="0.55"/>
<polygon points="886.00,92.00 900.00,92.00 907.00,102.00 893.00,102.00" fill="#161b22" stroke="#0d1117" stroke-width="0.55"/>
<polygon points="905.00,92.00 919.00,92.00 926.00,102.00 912.00,102.00" fill="#161b22" stroke="#0d1117" stroke-width="0.55"/>
<polygon points="924.00,92.00 938.00,92.00 945.00,102.00 931.00,102.00" fill="#161b22" stroke="#0d1117" stroke-width="0.55"/>
<polygon points="943.00,92.00 957.00,92.00 964.00,102.00 950.00,102.00" fill="#161b22" stroke="#0d1117" stroke-width="0.55"/>
<polygon points="970.20,103.00 984.20,103.00 988.20,107.20 974.20,107.20" fill="#020617" opacity="0.10"/>
<polygon points="976.00,85.37 983.00,95.37 983.00,102.00 976.00,92.00" fill="#062013"/>
<polygon points="969.00,95.37 983.00,95.37 983.00,102.00 969.00,102.00" fill="#082a19"/>
<polygon points="962.00,85.37 976.00,85.37 983.00,95.37 969.00,95.37" fill="#0e4429" stroke="#0d1117" stroke-width="0.55"/>
<polygon points="963.00,86.17 975.00,86.17 981.20,94.57 970.20,94.57" fill="#dcfce7" opacity="0.08"/>
<polygon points="981.00,92.00 995.00,92.00 1002.00,102.00 988.00,102.00" fill="#161b22" stroke="#0d1117" stroke-width="0.55"/>
<polygon points="1000.00,92.00 1014.00,92.00 1021.00,102.00 1007.00,102.00" fill="#161b22" stroke="#0d1117" stroke-width="0.55"/>
<polygon points="1019.00,92.00 1033.00,92.00 1040.00,102.00 1026.00,102.00" fill="#161b22" stroke="#0d1117" stroke-width="0.55"/>
<polygon points="1046.20,103.00 1060.20,103.00 1064.20,107.20 1050.20,107.20" fill="#020617" opacity="0.15"/>
<polygon points="1052.00,78.74 1059.00,88.74 1059.00,102.00 1052.00,92.00" fill="#003418"/>
<polygon points="1045.00,88.74 1059.00,88.74 1059.00,102.00 1045.00,102.00" fill="#00431f"/>
<polygon points="1038.00,78.74 1052.00,78.74 1059.00,88.74 1045.00,88.74" fill="#006d32" stroke="#0d1117" stroke-width="0.55"/>
<polygon points="1039.00,79.54 1051.00,79.54 1057.20,87.94 1046.20,87.94" fill="#dcfce7" opacity="0.10"/>
<polygon points="65.20,113.00 79.20,113.00 83.20,117.20 69.20,117.20" fill="#020617" opacity="0.15"/>
<polygon points="71.00,88.74 78.00,98.74 78.00,112.00 71.00,102.00" fill="#003418"/>
<polygon points="64.00,98.74 78.00,98.74 78.00,112.00 64.00,112.00" fill="#00431f"/>
<polygon points="57.00,88.74 71.00,88.74 78.00,98.74 64.00,98.74" fill="#006d32" stroke="#0d1117" stroke-width="0.55"/>
<polygon points="58.00,89.54 70.00,89.54 76.20,97.94 65.20,97.94" fill="#dcfce7" opacity="0.10"/>
<polygon points="76.00,102.00 90.00,102.00 97.00,112.00 83.00,112.00" fill="#161b22" stroke="#0d1117" stroke-width="0.55"/>
<polygon points="95.00,102.00 109.00,102.00 116.00,112.00 102.00,112.00" fill="#161b22" stroke="#0d1117" stroke-width="0.55"/>
<polygon points="114.00,102.00 128.00,102.00 135.00,112.00 121.00,112.00" fill="#161b22" stroke="#0d1117" stroke-width="0.55"/>
<polygon points="141.20,113.00 155.20,113.00 159.20,117.20 145.20,117.20" fill="#020617" opacity="0.16"/>
<polygon points="147.00,86.60 154.00,96.60 154.00,112.00 147.00,102.00" fill="#003418"/>
<polygon points="140.00,96.60 154.00,96.60 154.00,112.00 140.00,112.00" fill="#00431f"/>
<polygon points="133.00,86.60 147.00,86.60 154.00,96.60 140.00,96.60" fill="#006d32" stroke="#0d1117" stroke-width="0.55"/>
<polygon points="134.00,87.40 146.00,87.40 152.20,95.80 141.20,95.80" fill="#dcfce7" opacity="0.11"/>
<polygon points="160.20,113.00 174.20,113.00 178.20,117.20 164.20,117.20" fill="#020617" opacity="0.15"/>
<polygon points="166.00,88.74 173.00,98.74 173.00,112.00 166.00,102.00" fill="#003418"/>
<polygon points="159.00,98.74 173.00,98.74 173.00,112.00 159.00,112.00" fill="#00431f"/>
<polygon points="152.00,88.74 166.00,88.74 173.00,98.74 159.00,98.74" fill="#006d32" stroke="#0d1117" stroke-width="0.55"/>
<polygon points="153.00,89.54 165.00,89.54 171.20,97.94 160.20,97.94" fill="#dcfce7" opacity="0.10"/>
<polygon points="171.00,102.00 185.00,102.00 192.00,112.00 178.00,112.00" fill="#161b22" stroke="#0d1117" stroke-width="0.55"/>
<polygon points="198.20,113.00 212.20,113.00 216.20,117.20 202.20,117.20" fill="#020617" opacity="0.10"/>
<polygon points="204.00,95.37 211.00,105.37 211.00,112.00 204.00,102.00" fill="#062013"/>
<polygon points="197.00,105.37 211.00,105.37 211.00,112.00 197.00,112.00" fill="#082a19"/>
<polygon points="190.00,95.37 204.00,95.37 211.00,105.37 197.00,105.37" fill="#0e4429" stroke="#0d1117" stroke-width="0.55"/>
<polygon points="191.00,96.17 203.00,96.17 209.20,104.57 198.20,104.57" fill="#dcfce7" opacity="0.08"/>
<polygon points="217.20,113.00 231.20,113.00 235.20,117.20 221.20,117.20" fill="#020617" opacity="0.13"/>
<polygon points="223.00,91.49 230.00,101.49 230.00,112.00 223.00,102.00" fill="#062013"/>
<polygon points="216.00,101.49 230.00,101.49 230.00,112.00 216.00,112.00" fill="#082a19"/>
<polygon points="209.00,91.49 223.00,91.49 230.00,101.49 216.00,101.49" fill="#0e4429" stroke="#0d1117" stroke-width="0.55"/>
<polygon points="210.00,92.29 222.00,92.29 228.20,100.69 217.20,100.69" fill="#dcfce7" opacity="0.09"/>
<polygon points="228.00,102.00 242.00,102.00 249.00,112.00 235.00,112.00" fill="#161b22" stroke="#0d1117" stroke-width="0.55"/>
<polygon points="247.00,102.00 261.00,102.00 268.00,112.00 254.00,112.00" fill="#161b22" stroke="#0d1117" stroke-width="0.55"/>
<polygon points="274.20,113.00 288.20,113.00 292.20,117.20 278.20,117.20" fill="#020617" opacity="0.10"/>
<polygon points="280.00,95.37 287.00,105.37 287.00,112.00 280.00,102.00" fill="#062013"/>
<polygon points="273.00,105.37 287.00,105.37 287.00,112.00 273.00,112.00" fill="#082a19"/>
<polygon points="266.00,95.37 280.00,95.37 287.00,105.37 273.00,105.37" fill="#0e4429" stroke="#0d1117" stroke-width="0.55"/>
<polygon points="267.00,96.17 279.00,96.17 285.20,104.57 274.20,104.57" fill="#dcfce7" opacity="0.08"/>
<polygon points="285.00,102.00 299.00,102.00 306.00,112.00 292.00,112.00" fill="#161b22" stroke="#0d1117" stroke-width="0.55"/>
<polygon points="304.00,102.00 318.00,102.00 325.00,112.00 311.00,112.00" fill="#161b22" stroke="#0d1117" stroke-width="0.55"/>
<polygon points="323.00,102.00 337.00,102.00 344.00,112.00 330.00,112.00" fill="#161b22" stroke="#0d1117" stroke-width="0.55"/>
<polygon points="342.00,102.00 356.00,102.00 363.00,112.00 349.00,112.00" fill="#161b22" stroke="#0d1117" stroke-width="0.55"/>
<polygon points="361.00,102.00 375.00,102.00 382.00,112.00 368.00,112.00" fill="#161b22" stroke="#0d1117" stroke-width="0.55"/>
<polygon points="380.00,102.00 394.00,102.00 401.00,112.00 387.00,112.00" fill="#161b22" stroke="#0d1117" stroke-width="0.55"/>
<polygon points="407.20,113.00 421.20,113.00 425.20,117.20 411.20,117.20" fill="#020617" opacity="0.10"/>
<polygon points="413.00,95.37 420.00,105.37 420.00,112.00 413.00,102.00" fill="#062013"/>
<polygon points="406.00,105.37 420.00,105.37 420.00,112.00 406.00,112.00" fill="#082a19"/>
<polygon points="399.00,95.37 413.00,95.37 420.00,105.37 406.00,105.37" fill="#0e4429" stroke="#0d1117" stroke-width="0.55"/>
<polygon points="400.00,96.17 412.00,96.17 418.20,104.57 407.20,104.57" fill="#dcfce7" opacity="0.08"/>
<polygon points="418.00,102.00 432.00,102.00 439.00,112.00 425.00,112.00" fill="#161b22" stroke="#0d1117" stroke-width="0.55"/>
<polygon points="437.00,102.00 451.00,102.00 458.00,112.00 444.00,112.00" fill="#161b22" stroke="#0d1117" stroke-width="0.55"/>
<polygon points="464.20,113.00 478.20,113.00 482.20,117.20 468.20,117.20" fill="#020617" opacity="0.10"/>
<polygon points="470.00,95.37 477.00,105.37 477.00,112.00 470.00,102.00" fill="#062013"/>
<polygon points="463.00,105.37 477.00,105.37 477.00,112.00 463.00,112.00" fill="#082a19"/>
<polygon points="456.00,95.37 470.00,95.37 477.00,105.37 463.00,105.37" fill="#0e4429" stroke="#0d1117" stroke-width="0.55"/>
<polygon points="457.00,96.17 469.00,96.17 475.20,104.57 464.20,104.57" fill="#dcfce7" opacity="0.08"/>
<polygon points="475.00,102.00 489.00,102.00 496.00,112.00 482.00,112.00" fill="#161b22" stroke="#0d1117" stroke-width="0.55"/>
<polygon points="494.00,102.00 508.00,102.00 515.00,112.00 501.00,112.00" fill="#161b22" stroke="#0d1117" stroke-width="0.55"/>
<polygon points="521.20,113.00 535.20,113.00 539.20,117.20 525.20,117.20" fill="#020617" opacity="0.17"/>
<polygon points="527.00,84.86 534.00,94.86 534.00,112.00 527.00,102.00" fill="#003418"/>
<polygon points="520.00,94.86 534.00,94.86 534.00,112.00 520.00,112.00" fill="#00431f"/>
<polygon points="513.00,84.86 527.00,84.86 534.00,94.86 520.00,94.86" fill="#006d32" stroke="#0d1117" stroke-width="0.55"/>
<polygon points="514.00,85.66 526.00,85.66 532.20,94.06 521.20,94.06" fill="#dcfce7" opacity="0.12"/>
<polygon points="540.20,113.00 554.20,113.00 558.20,117.20 544.20,117.20" fill="#020617" opacity="0.13"/>
<polygon points="546.00,91.49 553.00,101.49 553.00,112.00 546.00,102.00" fill="#062013"/>
<polygon points="539.00,101.49 553.00,101.49 553.00,112.00 539.00,112.00" fill="#082a19"/>
<polygon points="532.00,91.49 546.00,91.49 553.00,101.49 539.00,101.49" fill="#0e4429" stroke="#0d1117" stroke-width="0.55"/>
<polygon points="533.00,92.29 545.00,92.29 551.20,100.69 540.20,100.69" fill="#dcfce7" opacity="0.09"/>
<polygon points="559.20,113.00 573.20,113.00 577.20,117.20 563.20,117.20" fill="#020617" opacity="0.10"/>
<polygon points="565.00,95.37 572.00,105.37 572.00,112.00 565.00,102.00" fill="#062013"/>
<polygon points="558.00,105.37 572.00,105.37 572.00,112.00 558.00,112.00" fill="#082a19"/>
<polygon points="551.00,95.37 565.00,95.37 572.00,105.37 558.00,105.37" fill="#0e4429" stroke="#0d1117" stroke-width="0.55"/>
<polygon points="552.00,96.17 564.00,96.17 570.20,104.57 559.20,104.57" fill="#dcfce7" opacity="0.08"/>
<polygon points="570.00,102.00 584.00,102.00 591.00,112.00 577.00,112.00" fill="#161b22" stroke="#0d1117" stroke-width="0.55"/>
<polygon points="589.00,102.00 603.00,102.00 610.00,112.00 596.00,112.00" fill="#161b22" stroke="#0d1117" stroke-width="0.55"/>
<polygon points="608.00,102.00 622.00,102.00 629.00,112.00 615.00,112.00" fill="#161b22" stroke="#0d1117" stroke-width="0.55"/>
<polygon points="627.00,102.00 641.00,102.00 648.00,112.00 634.00,112.00" fill="#161b22" stroke="#0d1117" stroke-width="0.55"/>
<polygon points="646.00,102.00 660.00,102.00 667.00,112.00 653.00,112.00" fill="#161b22" stroke="#0d1117" stroke-width="0.55"/>
<polygon points="665.00,102.00 679.00,102.00 686.00,112.00 672.00,112.00" fill="#161b22" stroke="#0d1117" stroke-width="0.55"/>
<polygon points="684.00,102.00 698.00,102.00 705.00,112.00 691.00,112.00" fill="#161b22" stroke="#0d1117" stroke-width="0.55"/>
<polygon points="703.00,102.00 717.00,102.00 724.00,112.00 710.00,112.00" fill="#161b22" stroke="#0d1117" stroke-width="0.55"/>
<polygon points="722.00,102.00 736.00,102.00 743.00,112.00 729.00,112.00" fill="#161b22" stroke="#0d1117" stroke-width="0.55"/>
<polygon points="741.00,102.00 755.00,102.00 762.00,112.00 748.00,112.00" fill="#161b22" stroke="#0d1117" stroke-width="0.55"/>
<polygon points="768.20,113.00 782.20,113.00 786.20,117.20 772.20,117.20" fill="#020617" opacity="0.13"/>
<polygon points="774.00,91.49 781.00,101.49 781.00,112.00 774.00,102.00" fill="#062013"/>
<polygon points="767.00,101.49 781.00,101.49 781.00,112.00 767.00,112.00" fill="#082a19"/>
<polygon points="760.00,91.49 774.00,91.49 781.00,101.49 767.00,101.49" fill="#0e4429" stroke="#0d1117" stroke-width="0.55"/>
<polygon points="761.00,92.29 773.00,92.29 779.20,100.69 768.20,100.69" fill="#dcfce7" opacity="0.09"/>
<polygon points="787.20,113.00 801.20,113.00 805.20,117.20 791.20,117.20" fill="#020617" opacity="0.10"/>
<polygon points="793.00,95.37 800.00,105.37 800.00,112.00 793.00,102.00" fill="#062013"/>
<polygon points="786.00,105.37 800.00,105.37 800.00,112.00 786.00,112.00" fill="#082a19"/>
<polygon points="779.00,95.37 793.00,95.37 800.00,105.37 786.00,105.37" fill="#0e4429" stroke="#0d1117" stroke-width="0.55"/>
<polygon points="780.00,96.17 792.00,96.17 798.20,104.57 787.20,104.57" fill="#dcfce7" opacity="0.08"/>
<polygon points="798.00,102.00 812.00,102.00 819.00,112.00 805.00,112.00" fill="#161b22" stroke="#0d1117" stroke-width="0.55"/>
<polygon points="817.00,102.00 831.00,102.00 838.00,112.00 824.00,112.00" fill="#161b22" stroke="#0d1117" stroke-width="0.55"/>
<polygon points="836.00,102.00 850.00,102.00 857.00,112.00 843.00,112.00" fill="#161b22" stroke="#0d1117" stroke-width="0.55"/>
<polygon points="855.00,102.00 869.00,102.00 876.00,112.00 862.00,112.00" fill="#161b22" stroke="#0d1117" stroke-width="0.55"/>
<polygon points="874.00,102.00 888.00,102.00 895.00,112.00 881.00,112.00" fill="#161b22" stroke="#0d1117" stroke-width="0.55"/>
<polygon points="893.00,102.00 907.00,102.00 914.00,112.00 900.00,112.00" fill="#161b22" stroke="#0d1117" stroke-width="0.55"/>
<polygon points="912.00,102.00 926.00,102.00 933.00,112.00 919.00,112.00" fill="#161b22" stroke="#0d1117" stroke-width="0.55"/>
<polygon points="931.00,102.00 945.00,102.00 952.00,112.00 938.00,112.00" fill="#161b22" stroke="#0d1117" stroke-width="0.55"/>
<polygon points="950.00,102.00 964.00,102.00 971.00,112.00 957.00,112.00" fill="#161b22" stroke="#0d1117" stroke-width="0.55"/>
<polygon points="969.00,102.00 983.00,102.00 990.00,112.00 976.00,112.00" fill="#161b22" stroke="#0d1117" stroke-width="0.55"/>
<polygon points="996.20,113.00 1010.20,113.00 1014.20,117.20 1000.20,117.20" fill="#020617" opacity="0.10"/>
<polygon points="1002.00,95.37 1009.00,105.37 1009.00,112.00 1002.00,102.00" fill="#062013"/>
<polygon points="995.00,105.37 1009.00,105.37 1009.00,112.00 995.00,112.00" fill="#082a19"/>
<polygon points="988.00,95.37 1002.00,95.37 1009.00,105.37 995.00,105.37" fill="#0e4429" stroke="#0d1117" stroke-width="0.55"/>
<polygon points="989.00,96.17 1001.00,96.17 1007.20,104.57 996.20,104.57" fill="#dcfce7" opacity="0.08"/>
<polygon points="1015.20,113.00 1029.20,113.00 1033.20,117.20 1019.20,117.20" fill="#020617" opacity="0.22"/>
<polygon points="1021.00,72.00 1028.00,82.00 1028.00,112.00 1021.00,102.00" fill="#1b6527"/>
<polygon points="1014.00,82.00 1028.00,82.00 1028.00,112.00 1014.00,112.00" fill="#238233"/>
<polygon points="1007.00,72.00 1021.00,72.00 1028.00,82.00 1014.00,82.00" fill="#39d353" stroke="#0d1117" stroke-width="0.55"/>
<polygon points="1008.00,72.80 1020.00,72.80 1026.20,81.20 1015.20,81.20" fill="#dcfce7" opacity="0.17"/>
<polygon points="1034.20,113.00 1048.20,113.00 1052.20,117.20 1038.20,117.20" fill="#020617" opacity="0.18"/>
<polygon points="1040.00,83.38 1047.00,93.38 1047.00,112.00 1040.00,102.00" fill="#003418"/>
<polygon points="1033.00,93.38 1047.00,93.38 1047.00,112.00 1033.00,112.00" fill="#00431f"/>
<polygon points="1026.00,83.38 1040.00,83.38 1047.00,93.38 1033.00,93.38" fill="#006d32" stroke="#0d1117" stroke-width="0.55"/>
<polygon points="1027.00,84.18 1039.00,84.18 1045.20,92.58 1034.20,92.58" fill="#dcfce7" opacity="0.12"/>
<polygon points="1045.00,102.00 1059.00,102.00 1066.00,112.00 1052.00,112.00" fill="#161b22" stroke="#0d1117" stroke-width="0.55"/>
<polygon points="64.00,112.00 78.00,112.00 85.00,122.00 71.00,122.00" fill="#161b22" stroke="#0d1117" stroke-width="0.55"/>
<polygon points="83.00,112.00 97.00,112.00 104.00,122.00 90.00,122.00" fill="#161b22" stroke="#0d1117" stroke-width="0.55"/>
<polygon points="110.20,123.00 124.20,123.00 128.20,127.20 114.20,127.20" fill="#020617" opacity="0.10"/>
<polygon points="116.00,105.37 123.00,115.37 123.00,122.00 116.00,112.00" fill="#062013"/>
<polygon points="109.00,115.37 123.00,115.37 123.00,122.00 109.00,122.00" fill="#082a19"/>
<polygon points="102.00,105.37 116.00,105.37 123.00,115.37 109.00,115.37" fill="#0e4429" stroke="#0d1117" stroke-width="0.55"/>
<polygon points="103.00,106.17 115.00,106.17 121.20,114.57 110.20,114.57" fill="#dcfce7" opacity="0.08"/>
<polygon points="129.20,123.00 143.20,123.00 147.20,127.20 133.20,127.20" fill="#020617" opacity="0.13"/>
<polygon points="135.00,101.49 142.00,111.49 142.00,122.00 135.00,112.00" fill="#062013"/>
<polygon points="128.00,111.49 142.00,111.49 142.00,122.00 128.00,122.00" fill="#082a19"/>
<polygon points="121.00,101.49 135.00,101.49 142.00,111.49 128.00,111.49" fill="#0e4429" stroke="#0d1117" stroke-width="0.55"/>
<polygon points="122.00,102.29 134.00,102.29 140.20,110.69 129.20,110.69" fill="#dcfce7" opacity="0.09"/>
<polygon points="148.20,123.00 162.20,123.00 166.20,127.20 152.20,127.20" fill="#020617" opacity="0.21"/>
<polygon points="154.00,89.97 161.00,99.97 161.00,122.00 154.00,112.00" fill="#124f1f"/>
<polygon points="147.00,99.97 161.00,99.97 161.00,122.00 147.00,122.00" fill="#176628"/>
<polygon points="140.00,89.97 154.00,89.97 161.00,99.97 147.00,99.97" fill="#26a641" stroke="#0d1117" stroke-width="0.55"/>
<polygon points="141.00,90.77 153.00,90.77 159.20,99.17 148.20,99.17" fill="#dcfce7" opacity="0.14"/>
<polygon points="167.20,123.00 181.20,123.00 185.20,127.20 171.20,127.20" fill="#020617" opacity="0.10"/>
<polygon points="173.00,105.37 180.00,115.37 180.00,122.00 173.00,112.00" fill="#062013"/>
<polygon points="166.00,115.37 180.00,115.37 180.00,122.00 166.00,122.00" fill="#082a19"/>
<polygon points="159.00,105.37 173.00,105.37 180.00,115.37 166.00,115.37" fill="#0e4429" stroke="#0d1117" stroke-width="0.55"/>
<polygon points="160.00,106.17 172.00,106.17 178.20,114.57 167.20,114.57" fill="#dcfce7" opacity="0.08"/>
<polygon points="178.00,112.00 192.00,112.00 199.00,122.00 185.00,122.00" fill="#161b22" stroke="#0d1117" stroke-width="0.55"/>
<polygon points="205.20,123.00 219.20,123.00 223.20,127.20 209.20,127.20" fill="#020617" opacity="0.13"/>
<polygon points="211.00,101.49 218.00,111.49 218.00,122.00 211.00,112.00" fill="#062013"/>
<polygon points="204.00,111.49 218.00,111.49 218.00,122.00 204.00,122.00" fill="#082a19"/>
<polygon points="197.00,101.49 211.00,101.49 218.00,111.49 204.00,111.49" fill="#0e4429" stroke="#0d1117" stroke-width="0.55"/>
<polygon points="198.00,102.29 210.00,102.29 216.20,110.69 205.20,110.69" fill="#dcfce7" opacity="0.09"/>
<polygon points="224.20,123.00 238.20,123.00 242.20,127.20 228.20,127.20" fill="#020617" opacity="0.13"/>
<polygon points="230.00,101.49 237.00,111.49 237.00,122.00 230.00,112.00" fill="#062013"/>
<polygon points="223.00,111.49 237.00,111.49 237.00,122.00 223.00,122.00" fill="#082a19"/>
<polygon points="216.00,101.49 230.00,101.49 237.00,111.49 223.00,111.49" fill="#0e4429" stroke="#0d1117" stroke-width="0.55"/>
<polygon points="217.00,102.29 229.00,102.29 235.20,110.69 224.20,110.69" fill="#dcfce7" opacity="0.09"/>
<polygon points="235.00,112.00 249.00,112.00 256.00,122.00 242.00,122.00" fill="#161b22" stroke="#0d1117" stroke-width="0.55"/>
<polygon points="254.00,112.00 268.00,112.00 275.00,122.00 261.00,122.00" fill="#161b22" stroke="#0d1117" stroke-width="0.55"/>
<polygon points="273.00,112.00 287.00,112.00 294.00,122.00 280.00,122.00" fill="#161b22" stroke="#0d1117" stroke-width="0.55"/>
<polygon points="292.00,112.00 306.00,112.00 313.00,122.00 299.00,122.00" fill="#161b22" stroke="#0d1117" stroke-width="0.55"/>
<polygon points="311.00,112.00 325.00,112.00 332.00,122.00 318.00,122.00" fill="#161b22" stroke="#0d1117" stroke-width="0.55"/>
<polygon points="330.00,112.00 344.00,112.00 351.00,122.00 337.00,122.00" fill="#161b22" stroke="#0d1117" stroke-width="0.55"/>
<polygon points="349.00,112.00 363.00,112.00 370.00,122.00 356.00,122.00" fill="#161b22" stroke="#0d1117" stroke-width="0.55"/>
<polygon points="368.00,112.00 382.00,112.00 389.00,122.00 375.00,122.00" fill="#161b22" stroke="#0d1117" stroke-width="0.55"/>
<polygon points="395.20,123.00 409.20,123.00 413.20,127.20 399.20,127.20" fill="#020617" opacity="0.13"/>
<polygon points="401.00,101.49 408.00,111.49 408.00,122.00 401.00,112.00" fill="#062013"/>
<polygon points="394.00,111.49 408.00,111.49 408.00,122.00 394.00,122.00" fill="#082a19"/>
<polygon points="387.00,101.49 401.00,101.49 408.00,111.49 394.00,111.49" fill="#0e4429" stroke="#0d1117" stroke-width="0.55"/>
<polygon points="388.00,102.29 400.00,102.29 406.20,110.69 395.20,110.69" fill="#dcfce7" opacity="0.09"/>
<polygon points="406.00,112.00 420.00,112.00 427.00,122.00 413.00,122.00" fill="#161b22" stroke="#0d1117" stroke-width="0.55"/>
<polygon points="425.00,112.00 439.00,112.00 446.00,122.00 432.00,122.00" fill="#161b22" stroke="#0d1117" stroke-width="0.55"/>
<polygon points="444.00,112.00 458.00,112.00 465.00,122.00 451.00,122.00" fill="#161b22" stroke="#0d1117" stroke-width="0.55"/>
<polygon points="463.00,112.00 477.00,112.00 484.00,122.00 470.00,122.00" fill="#161b22" stroke="#0d1117" stroke-width="0.55"/>
<polygon points="482.00,112.00 496.00,112.00 503.00,122.00 489.00,122.00" fill="#161b22" stroke="#0d1117" stroke-width="0.55"/>
<polygon points="509.20,123.00 523.20,123.00 527.20,127.20 513.20,127.20" fill="#020617" opacity="0.13"/>
<polygon points="515.00,101.49 522.00,111.49 522.00,122.00 515.00,112.00" fill="#062013"/>
<polygon points="508.00,111.49 522.00,111.49 522.00,122.00 508.00,122.00" fill="#082a19"/>
<polygon points="501.00,101.49 515.00,101.49 522.00,111.49 508.00,111.49" fill="#0e4429" stroke="#0d1117" stroke-width="0.55"/>
<polygon points="502.00,102.29 514.00,102.29 520.20,110.69 509.20,110.69" fill="#dcfce7" opacity="0.09"/>
<polygon points="520.00,112.00 534.00,112.00 541.00,122.00 527.00,122.00" fill="#161b22" stroke="#0d1117" stroke-width="0.55"/>
<polygon points="547.20,123.00 561.20,123.00 565.20,127.20 551.20,127.20" fill="#020617" opacity="0.13"/>
<polygon points="553.00,101.49 560.00,111.49 560.00,122.00 553.00,112.00" fill="#062013"/>
<polygon points="546.00,111.49 560.00,111.49 560.00,122.00 546.00,122.00" fill="#082a19"/>
<polygon points="539.00,101.49 553.00,101.49 560.00,111.49 546.00,111.49" fill="#0e4429" stroke="#0d1117" stroke-width="0.55"/>
<polygon points="540.00,102.29 552.00,102.29 558.20,110.69 547.20,110.69" fill="#dcfce7" opacity="0.09"/>
<polygon points="566.20,123.00 580.20,123.00 584.20,127.20 570.20,127.20" fill="#020617" opacity="0.13"/>
<polygon points="572.00,101.49 579.00,111.49 579.00,122.00 572.00,112.00" fill="#062013"/>
<polygon points="565.00,111.49 579.00,111.49 579.00,122.00 565.00,122.00" fill="#082a19"/>
<polygon points="558.00,101.49 572.00,101.49 579.00,111.49 565.00,111.49" fill="#0e4429" stroke="#0d1117" stroke-width="0.55"/>
<polygon points="559.00,102.29 571.00,102.29 577.20,110.69 566.20,110.69" fill="#dcfce7" opacity="0.09"/>
<polygon points="577.00,112.00 591.00,112.00 598.00,122.00 584.00,122.00" fill="#161b22" stroke="#0d1117" stroke-width="0.55"/>
<polygon points="604.20,123.00 618.20,123.00 622.20,127.20 608.20,127.20" fill="#020617" opacity="0.13"/>
<polygon points="610.00,101.49 617.00,111.49 617.00,122.00 610.00,112.00" fill="#062013"/>
<polygon points="603.00,111.49 617.00,111.49 617.00,122.00 603.00,122.00" fill="#082a19"/>
<polygon points="596.00,101.49 610.00,101.49 617.00,111.49 603.00,111.49" fill="#0e4429" stroke="#0d1117" stroke-width="0.55"/>
<polygon points="597.00,102.29 609.00,102.29 615.20,110.69 604.20,110.69" fill="#dcfce7" opacity="0.09"/>
<polygon points="623.20,123.00 637.20,123.00 641.20,127.20 627.20,127.20" fill="#020617" opacity="0.10"/>
<polygon points="629.00,105.37 636.00,115.37 636.00,122.00 629.00,112.00" fill="#062013"/>
<polygon points="622.00,115.37 636.00,115.37 636.00,122.00 622.00,122.00" fill="#082a19"/>
<polygon points="615.00,105.37 629.00,105.37 636.00,115.37 622.00,115.37" fill="#0e4429" stroke="#0d1117" stroke-width="0.55"/>
<polygon points="616.00,106.17 628.00,106.17 634.20,114.57 623.20,114.57" fill="#dcfce7" opacity="0.08"/>
<polygon points="634.00,112.00 648.00,112.00 655.00,122.00 641.00,122.00" fill="#161b22" stroke="#0d1117" stroke-width="0.55"/>
<polygon points="653.00,112.00 667.00,112.00 674.00,122.00 660.00,122.00" fill="#161b22" stroke="#0d1117" stroke-width="0.55"/>
<polygon points="672.00,112.00 686.00,112.00 693.00,122.00 679.00,122.00" fill="#161b22" stroke="#0d1117" stroke-width="0.55"/>
<polygon points="691.00,112.00 705.00,112.00 712.00,122.00 698.00,122.00" fill="#161b22" stroke="#0d1117" stroke-width="0.55"/>
<polygon points="710.00,112.00 724.00,112.00 731.00,122.00 717.00,122.00" fill="#161b22" stroke="#0d1117" stroke-width="0.55"/>
<polygon points="737.20,123.00 751.20,123.00 755.20,127.20 741.20,127.20" fill="#020617" opacity="0.13"/>
<polygon points="743.00,101.49 750.00,111.49 750.00,122.00 743.00,112.00" fill="#062013"/>
<polygon points="736.00,111.49 750.00,111.49 750.00,122.00 736.00,122.00" fill="#082a19"/>
<polygon points="729.00,101.49 743.00,101.49 750.00,111.49 736.00,111.49" fill="#0e4429" stroke="#0d1117" stroke-width="0.55"/>
<polygon points="730.00,102.29 742.00,102.29 748.20,110.69 737.20,110.69" fill="#dcfce7" opacity="0.09"/>
<polygon points="748.00,112.00 762.00,112.00 769.00,122.00 755.00,122.00" fill="#161b22" stroke="#0d1117" stroke-width="0.55"/>
<polygon points="775.20,123.00 789.20,123.00 793.20,127.20 779.20,127.20" fill="#020617" opacity="0.10"/>
<polygon points="781.00,105.37 788.00,115.37 788.00,122.00 781.00,112.00" fill="#062013"/>
<polygon points="774.00,115.37 788.00,115.37 788.00,122.00 774.00,122.00" fill="#082a19"/>
<polygon points="767.00,105.37 781.00,105.37 788.00,115.37 774.00,115.37" fill="#0e4429" stroke="#0d1117" stroke-width="0.55"/>
<polygon points="768.00,106.17 780.00,106.17 786.20,114.57 775.20,114.57" fill="#dcfce7" opacity="0.08"/>
<polygon points="786.00,112.00 800.00,112.00 807.00,122.00 793.00,122.00" fill="#161b22" stroke="#0d1117" stroke-width="0.55"/>
<polygon points="805.00,112.00 819.00,112.00 826.00,122.00 812.00,122.00" fill="#161b22" stroke="#0d1117" stroke-width="0.55"/>
<polygon points="824.00,112.00 838.00,112.00 845.00,122.00 831.00,122.00" fill="#161b22" stroke="#0d1117" stroke-width="0.55"/>
<polygon points="843.00,112.00 857.00,112.00 864.00,122.00 850.00,122.00" fill="#161b22" stroke="#0d1117" stroke-width="0.55"/>
<polygon points="862.00,112.00 876.00,112.00 883.00,122.00 869.00,122.00" fill="#161b22" stroke="#0d1117" stroke-width="0.55"/>
<polygon points="881.00,112.00 895.00,112.00 902.00,122.00 888.00,122.00" fill="#161b22" stroke="#0d1117" stroke-width="0.55"/>
<polygon points="900.00,112.00 914.00,112.00 921.00,122.00 907.00,122.00" fill="#161b22" stroke="#0d1117" stroke-width="0.55"/>
<polygon points="919.00,112.00 933.00,112.00 940.00,122.00 926.00,122.00" fill="#161b22" stroke="#0d1117" stroke-width="0.55"/>
<polygon points="938.00,112.00 952.00,112.00 959.00,122.00 945.00,122.00" fill="#161b22" stroke="#0d1117" stroke-width="0.55"/>
<polygon points="965.20,123.00 979.20,123.00 983.20,127.20 969.20,127.20" fill="#020617" opacity="0.18"/>
<polygon points="971.00,93.38 978.00,103.38 978.00,122.00 971.00,112.00" fill="#003418"/>
<polygon points="964.00,103.38 978.00,103.38 978.00,122.00 964.00,122.00" fill="#00431f"/>
<polygon points="957.00,93.38 971.00,93.38 978.00,103.38 964.00,103.38" fill="#006d32" stroke="#0d1117" stroke-width="0.55"/>
<polygon points="958.00,94.18 970.00,94.18 976.20,102.58 965.20,102.58" fill="#dcfce7" opacity="0.12"/>
<polygon points="984.20,123.00 998.20,123.00 1002.20,127.20 988.20,127.20" fill="#020617" opacity="0.13"/>
<polygon points="990.00,101.49 997.00,111.49 997.00,122.00 990.00,112.00" fill="#062013"/>
<polygon points="983.00,111.49 997.00,111.49 997.00,122.00 983.00,122.00" fill="#082a19"/>
<polygon points="976.00,101.49 990.00,101.49 997.00,111.49 983.00,111.49" fill="#0e4429" stroke="#0d1117" stroke-width="0.55"/>
<polygon points="977.00,102.29 989.00,102.29 995.20,110.69 984.20,110.69" fill="#dcfce7" opacity="0.09"/>
<polygon points="995.00,112.00 1009.00,112.00 1016.00,122.00 1002.00,122.00" fill="#161b22" stroke="#0d1117" stroke-width="0.55"/>
<polygon points="1022.20,123.00 1036.20,123.00 1040.20,127.20 1026.20,127.20" fill="#020617" opacity="0.10"/>
<polygon points="1028.00,105.37 1035.00,115.37 1035.00,122.00 1028.00,112.00" fill="#062013"/>
<polygon points="1021.00,115.37 1035.00,115.37 1035.00,122.00 1021.00,122.00" fill="#082a19"/>
<polygon points="1014.00,105.37 1028.00,105.37 1035.00,115.37 1021.00,115.37" fill="#0e4429" stroke="#0d1117" stroke-width="0.55"/>
<polygon points="1015.00,106.17 1027.00,106.17 1033.20,114.57 1022.20,114.57" fill="#dcfce7" opacity="0.08"/>
<polygon points="1033.00,112.00 1047.00,112.00 1054.00,122.00 1040.00,122.00" fill="#161b22" stroke="#0d1117" stroke-width="0.55"/>
<polygon points="1052.00,112.00 1066.00,112.00 1073.00,122.00 1059.00,122.00" fill="#161b22" stroke="#0d1117" stroke-width="0.55"/>
<polyline points="53.50,86.00 60.50,96.00 79.50,96.00 98.50,96.00 117.50,89.37 136.50,82.74 155.50,96.00 174.50,96.00 167.50,86.00 186.50,86.00 205.50,86.00 224.50,86.00 243.50,86.00 236.50,76.00 255.50,76.00 274.50,76.00 293.50,76.00 312.50,76.00 331.50,76.00 350.50,76.00 369.50,76.00 362.50,66.00 381.50,66.00 400.50,66.00 419.50,66.00 438.50,66.00 457.50,66.00 476.50,66.00 495.50,66.00 488.50,56.00 507.50,56.00 526.50,56.00 545.50,56.00 564.50,56.00 583.50,56.00 602.50,56.00 621.50,56.00 640.50,56.00 659.50,56.00 678.50,56.00 697.50,56.00 716.50,56.00 735.50,56.00 754.50,56.00 773.50,56.00 780.50,66.00 787.50,76.00 806.50,76.00 825.50,76.00 844.50,76.00 863.50,76.00 882.50,76.00 901.50,76.00 920.50,76.00 939.50,76.00 958.50,76.00 977.50,69.37 984.50,86.00 1003.50,86.00 1022.50,86.00 1041.50,86.00" fill="none" stroke="#fde68a" stroke-opacity="0.30" stroke-width="6" stroke-linecap="round" stroke-linejoin="round"/>
<polyline points="53.50,86.00 60.50,96.00 79.50,96.00 98.50,96.00 117.50,89.37 136.50,82.74 155.50,96.00 174.50,96.00 167.50,86.00 186.50,86.00 205.50,86.00 224.50,86.00 243.50,86.00 236.50,76.00 255.50,76.00 274.50,76.00 293.50,76.00 312.50,76.00 331.50,76.00 350.50,76.00 369.50,76.00 362.50,66.00 381.50,66.00 400.50,66.00 419.50,66.00 438.50,66.00 457.50,66.00 476.50,66.00 495.50,66.00 488.50,56.00 507.50,56.00 526.50,56.00 545.50,56.00 564.50,56.00 583.50,56.00 602.50,56.00 621.50,56.00 640.50,56.00 659.50,56.00 678.50,56.00 697.50,56.00 716.50,56.00 735.50,56.00 754.50,56.00 773.50,56.00 780.50,66.00 787.50,76.00 806.50,76.00 825.50,76.00 844.50,76.00 863.50,76.00 882.50,76.00 901.50,76.00 920.50,76.00 939.50,76.00 958.50,76.00 977.50,69.37 984.50,86.00 1003.50,86.00 1022.50,86.00 1041.50,86.00" fill="none" stroke="#f2cc60" stroke-width="3" stroke-linecap="round" stroke-linejoin="round"/>
<circle cx="53.50" cy="86.00" r="3.5" fill="#f2cc60" stroke="#0d1117" stroke-width="1"/>
<circle cx="1041.50" cy="86.00" r="3.5" fill="#f2cc60" stroke="#0d1117" stroke-width="1"/>
<text x="1087" y="138" text-anchor="end" font-family="ui-monospace, SFMono-Regular, Menlo, monospace" font-size="10" fill="#94a3b8" opacity="0.85">2026-05-21</text>
</svg>