<svg xmlns="http://www.w3.org/2000/svg" width="1067" height="157" viewBox="0 0 1067 157" role="img">
<rect width="1067" height="157" rx="12" fill="#0d1117"/>
<polygon points="24.00,49.00 42.00,49.00 48.80,60.00 30.80,60.00" fill="#161b22" stroke="#0d1117" stroke-width="0.7"/>
<polygon points="60.00,26.09 66.80,37.09 66.80,60.00 60.00,49.00" fill="#135320"/>
<polygon points="48.80,37.09 66.80,37.09 66.80,60.00 48.80,60.00" fill="#186b2a"/>
<polygon points="42.00,26.09 60.00,26.09 66.80,37.09 48.80,37.09" fill="#26a641" stroke="#0d1117" stroke-width="0.7"/>
<polygon points="60.00,49.00 78.00,49.00 84.80,60.00 66.80,60.00" fill="#161b22" stroke="#0d1117" stroke-width="0.7"/>
<polygon points="96.00,34.63 102.80,45.63 102.80,60.00 96.00,49.00" fill="#003619"/>
<polygon points="84.80,45.63 102.80,45.63 102.80,60.00 84.80,60.00" fill="#004620"/>
<polygon points="78.00,34.63 96.00,34.63 102.80,45.63 84.80,45.63" fill="#006d32" stroke="#0d1117" stroke-width="0.7"/>
<polygon points="114.00,39.19 120.80,50.19 120.80,60.00 114.00,49.00" fill="#072214"/>
<polygon points="102.80,50.19 120.80,50.19 120.80,60.00 102.80,60.00" fill="#092c1a"/>
<polygon points="96.00,39.19 114.00,39.19 120.80,50.19 102.80,50.19" fill="#0e4429" stroke="#0d1117" stroke-width="0.7"/>
<polygon points="132.00,42.81 138.80,53.81 138.80,60.00 132.00,49.00" fill="#072214"/>
<polygon points="120.80,53.81 138.80,53.81 138.80,60.00 120.80,60.00" fill="#092c1a"/>
<polygon points="114.00,42.81 132.00,42.81 138.80,53.81 120.80,53.81" fill="#0e4429" stroke="#0d1117" stroke-width="0.7"/>
<polygon points="150.00,26.81 156.80,37.81 156.80,60.00 150.00,49.00" fill="#135320"/>
<polygon points="138.80,37.81 156.80,37.81 156.80,60.00 138.80,60.00" fill="#186b2a"/>
<polygon points="132.00,26.81 150.00,26.81 156.80,37.81 138.80,37.81" fill="#26a641" stroke="#0d1117" stroke-width="0.7"/>
<polygon points="168.00,36.62 174.80,47.62 174.80,60.00 168.00,49.00" fill="#003619"/>
<polygon points="156.80,47.62 174.80,47.62 174.80,60.00 156.80,60.00" fill="#004620"/>
<polygon points="150.00,36.62 168.00,36.62 174.80,47.62 156.80,47.62" fill="#006d32" stroke="#0d1117" stroke-width="0.7"/>
<polygon points="168.00,49.00 186.00,49.00 192.80,60.00 174.80,60.00" fill="#161b22" stroke="#0d1117" stroke-width="0.7"/>
<polygon points="186.00,49.00 204.00,49.00 210.80,60.00 192.80,60.00" fill="#161b22" stroke="#0d1117" stroke-width="0.7"/>
<polygon points="222.00,42.81 228.80,53.81 228.80,60.00 222.00,49.00" fill="#072214"/>
<polygon points="210.80,53.81 228.80,53.81 228.80,60.00 210.80,60.00" fill="#092c1a"/>
<polygon points="204.00,42.81 222.00,42.81 228.80,53.81 210.80,53.81" fill="#0e4429" stroke="#0d1117" stroke-width="0.7"/>
<polygon points="222.00,49.00 240.00,49.00 246.80,60.00 228.80,60.00" fill="#161b22" stroke="#0d1117" stroke-width="0.7"/>
<polygon points="240.00,49.00 258.00,49.00 264.80,60.00 246.80,60.00" fill="#161b22" stroke="#0d1117" stroke-width="0.7"/>
<polygon points="258.00,49.00 276.00,49.00 282.80,60.00 264.80,60.00" fill="#161b22" stroke="#0d1117" stroke-width="0.7"/>
<polygon points="276.00,49.00 294.00,49.00 300.80,60.00 282.80,60.00" fill="#161b22" stroke="#0d1117" stroke-width="0.7"/>
<polygon points="294.00,49.00 312.00,49.00 318.80,60.00 300.80,60.00" fill="#161b22" stroke="#0d1117" stroke-width="0.7"/>
<polygon points="312.00,49.00 330.00,49.00 336.80,60.00 318.80,60.00" fill="#161b22" stroke="#0d1117" stroke-width="0.7"/>
<polygon points="330.00,49.00 348.00,49.00 354.80,60.00 336.80,60.00" fill="#161b22" stroke="#0d1117" stroke-width="0.7"/>
<polygon points="348.00,49.00 366.00,49.00 372.80,60.00 354.80,60.00" fill="#161b22" stroke="#0d1117" stroke-width="0.7"/>
<polygon points="384.00,36.62 390.80,47.62 390.80,60.00 384.00,49.00" fill="#003619"/>
<polygon points="372.80,47.62 390.80,47.62 390.80,60.00 372.80,60.00" fill="#004620"/>
<polygon points="366.00,36.62 384.00,36.62 390.80,47.62 372.80,47.62" fill="#006d32" stroke="#0d1117" stroke-width="0.7"/>
<polygon points="384.00,49.00 402.00,49.00 408.80,60.00 390.80,60.00" fill="#161b22" stroke="#0d1117" stroke-width="0.7"/>
<polygon points="402.00,49.00 420.00,49.00 426.80,60.00 408.80,60.00" fill="#161b22" stroke="#0d1117" stroke-width="0.7"/>
<polygon points="420.00,49.00 438.00,49.00 444.80,60.00 426.80,60.00" fill="#161b22" stroke="#0d1117" stroke-width="0.7"/>
<polygon points="438.00,49.00 456.00,49.00 462.80,60.00 444.80,60.00" fill="#161b22" stroke="#0d1117" stroke-width="0.7"/>
<polygon points="456.00,49.00 474.00,49.00 480.80,60.00 462.80,60.00" fill="#161b22" stroke="#0d1117" stroke-width="0.7"/>
<polygon points="474.00,49.00 492.00,49.00 498.80,60.00 480.80,60.00" fill="#161b22" stroke="#0d1117" stroke-width="0.7"/>
<polygon points="492.00,49.00 510.00,49.00 516.80,60.00 498.80,60.00" fill="#161b22" stroke="#0d1117" stroke-width="0.7"/>
<polygon points="510.00,49.00 528.00,49.00 534.80,60.00 516.80,60.00" fill="#161b22" stroke="#0d1117" stroke-width="0.7"/>
<polygon points="528.00,49.00 546.00,49.00 552.80,60.00 534.80,60.00" fill="#161b22" stroke="#0d1117" stroke-width="0.7"/>
<polygon points="546.00,49.00 564.00,49.00 570.80,60.00 552.80,60.00" fill="#161b22" stroke="#0d1117" stroke-width="0.7"/>
<polygon points="564.00,49.00 582.00,49.00 588.80,60.00 570.80,60.00" fill="#161b22" stroke="#0d1117" stroke-width="0.7"/>
<polygon points="582.00,49.00 600.00,49.00 606.80,60.00 588.80,60.00" fill="#161b22" stroke="#0d1117" stroke-width="0.7"/>
<polygon points="600.00,49.00 618.00,49.00 624.80,60.00 606.80,60.00" fill="#161b22" stroke="#0d1117" stroke-width="0.7"/>
<polygon points="618.00,49.00 636.00,49.00 642.80,60.00 624.80,60.00" fill="#161b22" stroke="#0d1117" stroke-width="0.7"/>
<polygon points="636.00,49.00 654.00,49.00 660.80,60.00 642.80,60.00" fill="#161b22" stroke="#0d1117" stroke-width="0.7"/>
<polygon points="654.00,49.00 672.00,49.00 678.80,60.00 660.80,60.00" fill="#161b22" stroke="#0d1117" stroke-width="0.7"/>
<polygon points="672.00,49.00 690.00,49.00 696.80,60.00 678.80,60.00" fill="#161b22" stroke="#0d1117" stroke-width="0.7"/>
<polygon points="690.00,49.00 708.00,49.00 714.80,60.00 696.80,60.00" fill="#161b22" stroke="#0d1117" stroke-width="0.7"/>
<polygon points="708.00,49.00 726.00,49.00 732.80,60.00 714.80,60.00" fill="#161b22" stroke="#0d1117" stroke-width="0.7"/>
<polygon points="726.00,49.00 744.00,49.00 750.80,60.00 732.80,60.00" fill="#161b22" stroke="#0d1117" stroke-width="0.7"/>
<polygon points="744.00,49.00 762.00,49.00 768.80,60.00 750.80,60.00" fill="#161b22" stroke="#0d1117" stroke-width="0.7"/>
<polygon points="762.00,49.00 780.00,49.00 786.80,60.00 768.80,60.00" fill="#161b22" stroke="#0d1117" stroke-width="0.7"/>
<polygon points="780.00,49.00 798.00,49.00 804.80,60.00 786.80,60.00" fill="#161b22" stroke="#0d1117" stroke-width="0.7"/>
<polygon points="798.00,49.00 816.00,49.00 822.80,60.00 804.80,60.00" fill="#161b22" stroke="#0d1117" stroke-width="0.7"/>
<polygon points="816.00,49.00 834.00,49.00 840.80,60.00 822.80,60.00" fill="#161b22" stroke="#0d1117" stroke-width="0.7"/>
<polygon points="834.00,49.00 852.00,49.00 858.80,60.00 840.80,60.00" fill="#161b22" stroke="#0d1117" stroke-width="0.7"/>
<polygon points="852.00,49.00 870.00,49.00 876.80,60.00 858.80,60.00" fill="#161b22" stroke="#0d1117" stroke-width="0.7"/>
<polygon points="870.00,49.00 888.00,49.00 894.80,60.00 876.80,60.00" fill="#161b22" stroke="#0d1117" stroke-width="0.7"/>
<polygon points="888.00,49.00 906.00,49.00 912.80,60.00 894.80,60.00" fill="#161b22" stroke="#0d1117" stroke-width="0.7"/>
<polygon points="906.00,49.00 924.00,49.00 930.80,60.00 912.80,60.00" fill="#161b22" stroke="#0d1117" stroke-width="0.7"/>
<polygon points="942.00,28.44 948.80,39.44 948.80,60.00 942.00,49.00" fill="#135320"/>
<polygon points="930.80,39.44 948.80,39.44 948.80,60.00 930.80,60.00" fill="#186b2a"/>
<polygon points="924.00,28.44 942.00,28.44 948.80,39.44 930.80,39.44" fill="#26a641" stroke="#0d1117" stroke-width="0.7"/>
<polygon points="942.00,49.00 960.00,49.00 966.80,60.00 948.80,60.00" fill="#161b22" stroke="#0d1117" stroke-width="0.7"/>
<polygon points="960.00,49.00 978.00,49.00 984.80,60.00 966.80,60.00" fill="#161b22" stroke="#0d1117" stroke-width="0.7"/>
<polygon points="30.80,60.00 48.80,60.00 55.60,71.00 37.60,71.00" fill="#161b22" stroke="#0d1117" stroke-width="0.7"/>
<polygon points="66.80,47.62 73.60,58.62 73.60,71.00 66.80,60.00" fill="#003619"/>
<polygon points="55.60,58.62 73.60,58.62 73.60,71.00 55.60,71.00" fill="#004620"/>
<polygon points="48.80,47.62 66.80,47.62 73.60,58.62 55.60,58.62" fill="#006d32" stroke="#0d1117" stroke-width="0.7"/>
<polygon points="66.80,60.00 84.80,60.00 91.60,71.00 73.60,71.00" fill="#161b22" stroke="#0d1117" stroke-width="0.7"/>
<polygon points="84.80,60.00 102.80,60.00 109.60,71.00 91.60,71.00" fill="#161b22" stroke="#0d1117" stroke-width="0.7"/>
<polygon points="120.80,41.43 127.60,52.43 127.60,71.00 120.80,60.00" fill="#135320"/>
<polygon points="109.60,52.43 127.60,52.43 127.60,71.00 109.60,71.00" fill="#186b2a"/>
<polygon points="102.80,41.43 120.80,41.43 127.60,52.43 109.60,52.43" fill="#26a641" stroke="#0d1117" stroke-width="0.7"/>
<polygon points="138.80,44.00 145.60,55.00 145.60,71.00 138.80,60.00" fill="#003619"/>
<polygon points="127.60,55.00 145.60,55.00 145.60,71.00 127.60,71.00" fill="#004620"/>
<polygon points="120.80,44.00 138.80,44.00 145.60,55.00 127.60,55.00" fill="#006d32" stroke="#0d1117" stroke-width="0.7"/>
<polygon points="156.80,42.62 163.60,53.62 163.60,71.00 156.80,60.00" fill="#003619"/>
<polygon points="145.60,53.62 163.60,53.62 163.60,71.00 145.60,71.00" fill="#004620"/>
<polygon points="138.80,42.62 156.80,42.62 163.60,53.62 145.60,53.62" fill="#006d32" stroke="#0d1117" stroke-width="0.7"/>
<polygon points="156.80,60.00 174.80,60.00 181.60,71.00 163.60,71.00" fill="#161b22" stroke="#0d1117" stroke-width="0.7"/>
<polygon points="174.80,60.00 192.80,60.00 199.60,71.00 181.60,71.00" fill="#161b22" stroke="#0d1117" stroke-width="0.7"/>
<polygon points="210.80,53.81 217.60,64.81 217.60,71.00 210.80,60.00" fill="#072214"/>
<polygon points="199.60,64.81 217.60,64.81 217.60,71.00 199.60,71.00" fill="#092c1a"/>
<polygon points="192.80,53.81 210.80,53.81 217.60,64.81 199.60,64.81" fill="#0e4429" stroke="#0d1117" stroke-width="0.7"/>
<polygon points="228.80,53.81 235.60,64.81 235.60,71.00 228.80,60.00" fill="#072214"/>
<polygon points="217.60,64.81 235.60,64.81 235.60,71.00 217.60,71.00" fill="#092c1a"/>
<polygon points="210.80,53.81 228.80,53.81 235.60,64.81 217.60,64.81" fill="#0e4429" stroke="#0d1117" stroke-width="0.7"/>
<polygon points="228.80,60.00 246.80,60.00 253.60,71.00 235.60,71.00" fill="#161b22" stroke="#0d1117" stroke-width="0.7"/>
<polygon points="264.80,45.63 271.60,56.63 271.60,71.00 264.80,60.00" fill="#003619"/>
<polygon points="253.60,56.63 271.60,56.63 271.60,71.00 253.60,71.00" fill="#004620"/>
<polygon points="246.80,45.63 264.80,45.63 271.60,56.63 253.60,56.63" fill="#006d32" stroke="#0d1117" stroke-width="0.7"/>
<polygon points="282.80,53.81 289.60,64.81 289.60,71.00 282.80,60.00" fill="#072214"/>
<polygon points="271.60,64.81 289.60,64.81 289.60,71.00 271.60,71.00" fill="#092c1a"/>
<polygon points="264.80,53.81 282.80,53.81 289.60,64.81 271.60,64.81" fill="#0e4429" stroke="#0d1117" stroke-width="0.7"/>
<polygon points="282.80,60.00 300.80,60.00 307.60,71.00 289.60,71.00" fill="#161b22" stroke="#0d1117" stroke-width="0.7"/>
<polygon points="300.80,60.00 318.80,60.00 325.60,71.00 307.60,71.00" fill="#161b22" stroke="#0d1117" stroke-width="0.7"/>
<polygon points="318.80,60.00 336.80,60.00 343.60,71.00 325.60,71.00" fill="#161b22" stroke="#0d1117" stroke-width="0.7"/>
<polygon points="354.80,53.81 361.60,64.81 361.60,71.00 354.80,60.00" fill="#072214"/>
<polygon points="343.60,64.81 361.60,64.81 361.60,71.00 343.60,71.00" fill="#092c1a"/>
<polygon points="336.80,53.81 354.80,53.81 361.60,64.81 343.60,64.81" fill="#0e4429" stroke="#0d1117" stroke-width="0.7"/>
<polygon points="354.80,60.00 372.80,60.00 379.60,71.00 361.60,71.00" fill="#161b22" stroke="#0d1117" stroke-width="0.7"/>
<polygon points="372.80,60.00 390.80,60.00 397.60,71.00 379.60,71.00" fill="#161b22" stroke="#0d1117" stroke-width="0.7"/>
<polygon points="390.80,60.00 408.80,60.00 415.60,71.00 397.60,71.00" fill="#161b22" stroke="#0d1117" stroke-width="0.7"/>
<polygon points="408.80,60.00 426.80,60.00 433.60,71.00 415.60,71.00" fill="#161b22" stroke="#0d1117" stroke-width="0.7"/>
<polygon points="426.80,60.00 444.80,60.00 451.60,71.00 433.60,71.00" fill="#161b22" stroke="#0d1117" stroke-width="0.7"/>
<polygon points="444.80,60.00 462.80,60.00 469.60,71.00 451.60,71.00" fill="#161b22" stroke="#0d1117" stroke-width="0.7"/>
<polygon points="462.80,60.00 480.80,60.00 487.60,71.00 469.60,71.00" fill="#161b22" stroke="#0d1117" stroke-width="0.7"/>
<polygon points="480.80,60.00 498.80,60.00 505.60,71.00 487.60,71.00" fill="#161b22" stroke="#0d1117" stroke-width="0.7"/>
<polygon points="516.80,45.63 523.60,56.63 523.60,71.00 516.80,60.00" fill="#003619"/>
<polygon points="505.60,56.63 523.60,56.63 523.60,71.00 505.60,71.00" fill="#004620"/>
<polygon points="498.80,45.63 516.80,45.63 523.60,56.63 505.60,56.63" fill="#006d32" stroke="#0d1117" stroke-width="0.7"/>
<polygon points="534.80,53.81 541.60,64.81 541.60,71.00 534.80,60.00" fill="#072214"/>
<polygon points="523.60,64.81 541.60,64.81 541.60,71.00 523.60,71.00" fill="#092c1a"/>
<polygon points="516.80,53.81 534.80,53.81 541.60,64.81 523.60,64.81" fill="#0e4429" stroke="#0d1117" stroke-width="0.7"/>
<polygon points="552.80,53.81 559.60,64.81 559.60,71.00 552.80,60.00" fill="#072214"/>
<polygon points="541.60,64.81 559.60,64.81 559.60,71.00 541.60,71.00" fill="#092c1a"/>
<polygon points="534.80,53.81 552.80,53.81 559.60,64.81 541.60,64.81" fill="#0e4429" stroke="#0d1117" stroke-width="0.7"/>
<polygon points="552.80,60.00 570.80,60.00 577.60,71.00 559.60,71.00" fill="#161b22" stroke="#0d1117" stroke-width="0.7"/>
<polygon points="588.80,53.81 595.60,64.81 595.60,71.00 588.80,60.00" fill="#072214"/>
<polygon points="577.60,64.81 595.60,64.81 595.60,71.00 577.60,71.00" fill="#092c1a"/>
<polygon points="570.80,53.81 588.80,53.81 595.60,64.81 577.60,64.81" fill="#0e4429" stroke="#0d1117" stroke-width="0.7"/>
<polygon points="588.80,60.00 606.80,60.00 613.60,71.00 595.60,71.00" fill="#161b22" stroke="#0d1117" stroke-width="0.7"/>
<polygon points="624.80,53.81 631.60,64.81 631.60,71.00 624.80,60.00" fill="#072214"/>
<polygon points="613.60,64.81 631.60,64.81 631.60,71.00 613.60,71.00" fill="#092c1a"/>
<polygon points="606.80,53.81 624.80,53.81 631.60,64.81 613.60,64.81" fill="#0e4429" stroke="#0d1117" stroke-width="0.7"/>
<polygon points="624.80,60.00 642.80,60.00 649.60,71.00 631.60,71.00" fill="#161b22" stroke="#0d1117" stroke-width="0.7"/>
<polygon points="642.80,60.00 660.80,60.00 667.60,71.00 649.60,71.00" fill="#161b22" stroke="#0d1117" stroke-width="0.7"/>
<polygon points="660.80,60.00 678.80,60.00 685.60,71.00 667.60,71.00" fill="#161b22" stroke="#0d1117" stroke-width="0.7"/>
<polygon points="678.80,60.00 696.80,60.00 703.60,71.00 685.60,71.00" fill="#161b22" stroke="#0d1117" stroke-width="0.7"/>
<polygon points="714.80,53.81 721.60,64.81 721.60,71.00 714.80,60.00" fill="#072214"/>
<polygon points="703.60,64.81 721.60,64.81 721.60,71.00 703.60,71.00" fill="#092c1a"/>
<polygon points="696.80,53.81 714.80,53.81 721.60,64.81 703.60,64.81" fill="#0e4429" stroke="#0d1117" stroke-width="0.7"/>
<polygon points="732.80,45.63 739.60,56.63 739.60,71.00 732.80,60.00" fill="#003619"/>
<polygon points="721.60,56.63 739.60,56.63 739.60,71.00 721.60,71.00" fill="#004620"/>
<polygon points="714.80,45.63 732.80,45.63 739.60,56.63 721.60,56.63" fill="#006d32" stroke="#0d1117" stroke-width="0.7"/>
<polygon points="750.80,53.81 757.60,64.81 757.60,71.00 750.80,60.00" fill="#072214"/>
<polygon points="739.60,64.81 757.60,64.81 757.60,71.00 739.60,71.00" fill="#092c1a"/>
<polygon points="732.80,53.81 750.80,53.81 757.60,64.81 739.60,64.81" fill="#0e4429" stroke="#0d1117" stroke-width="0.7"/>
<polygon points="750.80,60.00 768.80,60.00 775.60,71.00 757.60,71.00" fill="#161b22" stroke="#0d1117" stroke-width="0.7"/>
<polygon points="768.80,60.00 786.80,60.00 793.60,71.00 775.60,71.00" fill="#161b22" stroke="#0d1117" stroke-width="0.7"/>
<polygon points="786.80,60.00 804.80,60.00 811.60,71.00 793.60,71.00" fill="#161b22" stroke="#0d1117" stroke-width="0.7"/>
<polygon points="804.80,60.00 822.80,60.00 829.60,71.00 811.60,71.00" fill="#161b22" stroke="#0d1117" stroke-width="0.7"/>
<polygon points="822.80,60.00 840.80,60.00 847.60,71.00 829.60,71.00" fill="#161b22" stroke="#0d1117" stroke-width="0.7"/>
<polygon points="840.80,60.00 858.80,60.00 865.60,71.00 847.60,71.00" fill="#161b22" stroke="#0d1117" stroke-width="0.7"/>
<polygon points="858.80,60.00 876.80,60.00 883.60,71.00 865.60,71.00" fill="#161b22" stroke="#0d1117" stroke-width="0.7"/>
<polygon points="876.80,60.00 894.80,60.00 901.60,71.00 883.60,71.00" fill="#161b22" stroke="#0d1117" stroke-width="0.7"/>
<polygon points="894.80,60.00 912.80,60.00 919.60,71.00 901.60,71.00" fill="#161b22" stroke="#0d1117" stroke-width="0.7"/>
<polygon points="912.80,60.00 930.80,60.00 937.60,71.00 919.60,71.00" fill="#161b22" stroke="#0d1117" stroke-width="0.7"/>
<polygon points="948.80,53.81 955.60,64.81 955.60,71.00 948.80,60.00" fill="#072214"/>
<polygon points="937.60,64.81 955.60,64.81 955.60,71.00 937.60,71.00" fill="#092c1a"/>
<polygon points="930.80,53.81 948.80,53.81 955.60,64.81 937.60,64.81" fill="#0e4429" stroke="#0d1117" stroke-width="0.7"/>
<polygon points="948.80,60.00 966.80,60.00 973.60,71.00 955.60,71.00" fill="#161b22" stroke="#0d1117" stroke-width="0.7"/>
<polygon points="984.80,53.81 991.60,64.81 991.60,71.00 984.80,60.00" fill="#072214"/>
<polygon points="973.60,64.81 991.60,64.81 991.60,71.00 973.60,71.00" fill="#092c1a"/>
<polygon points="966.80,53.81 984.80,53.81 991.60,64.81 973.60,64.81" fill="#0e4429" stroke="#0d1117" stroke-width="0.7"/>
<polygon points="37.60,71.00 55.60,71.00 62.40,82.00 44.40,82.00" fill="#161b22" stroke="#0d1117" stroke-width="0.7"/>
<polygon points="55.60,71.00 73.60,71.00 80.40,82.00 62.40,82.00" fill="#161b22" stroke="#0d1117" stroke-width="0.7"/>
<polygon points="73.60,71.00 91.60,71.00 98.40,82.00 80.40,82.00" fill="#161b22" stroke="#0d1117" stroke-width="0.7"/>
<polygon points="91.60,71.00 109.60,71.00 116.40,82.00 98.40,82.00" fill="#161b22" stroke="#0d1117" stroke-width="0.7"/>
<polygon points="127.60,58.62 134.40,69.62 134.40,82.00 127.60,71.00" fill="#003619"/>
<polygon points="116.40,69.62 134.40,69.62 134.40,82.00 116.40,82.00" fill="#004620"/>
<polygon points="109.60,58.62 127.60,58.62 134.40,69.62 116.40,69.62" fill="#006d32" stroke="#0d1117" stroke-width="0.7"/>
<polygon points="145.60,55.00 152.40,66.00 152.40,82.00 145.60,71.00" fill="#003619"/>
<polygon points="134.40,66.00 152.40,66.00 152.40,82.00 134.40,82.00" fill="#004620"/>
<polygon points="127.60,55.00 145.60,55.00 152.40,66.00 134.40,66.00" fill="#006d32" stroke="#0d1117" stroke-width="0.7"/>
<polygon points="163.60,56.63 170.40,67.63 170.40,82.00 163.60,71.00" fill="#003619"/>
<polygon points="152.40,67.63 170.40,67.63 170.40,82.00 152.40,82.00" fill="#004620"/>
<polygon points="145.60,56.63 163.60,56.63 170.40,67.63 152.40,67.63" fill="#006d32" stroke="#0d1117" stroke-width="0.7"/>
<polygon points="163.60,71.00 181.60,71.00 188.40,82.00 170.40,82.00" fill="#161b22" stroke="#0d1117" stroke-width="0.7"/>
<polygon points="199.60,61.19 206.40,72.19 206.40,82.00 199.60,71.00" fill="#072214"/>
<polygon points="188.40,72.19 206.40,72.19 206.40,82.00 188.40,82.00" fill="#092c1a"/>
<polygon points="181.60,61.19 199.60,61.19 206.40,72.19 188.40,72.19" fill="#0e4429" stroke="#0d1117" stroke-width="0.7"/>
<polygon points="217.60,64.81 224.40,75.81 224.40,82.00 217.60,71.00" fill="#072214"/>
<polygon points="206.40,75.81 224.40,75.81 224.40,82.00 206.40,82.00" fill="#092c1a"/>
<polygon points="199.60,64.81 217.60,64.81 224.40,75.81 206.40,75.81" fill="#0e4429" stroke="#0d1117" stroke-width="0.7"/>
<polygon points="217.60,71.00 235.60,71.00 242.40,82.00 224.40,82.00" fill="#161b22" stroke="#0d1117" stroke-width="0.7"/>
<polygon points="235.60,71.00 253.60,71.00 260.40,82.00 242.40,82.00" fill="#161b22" stroke="#0d1117" stroke-width="0.7"/>
<polygon points="253.60,71.00 271.60,71.00 278.40,82.00 260.40,82.00" fill="#161b22" stroke="#0d1117" stroke-width="0.7"/>
<polygon points="271.60,71.00 289.60,71.00 296.40,82.00 278.40,82.00" fill="#161b22" stroke="#0d1117" stroke-width="0.7"/>
<polygon points="289.60,71.00 307.60,71.00 314.40,82.00 296.40,82.00" fill="#161b22" stroke="#0d1117" stroke-width="0.7"/>
<polygon points="307.60,71.00 325.60,71.00 332.40,82.00 314.40,82.00" fill="#161b22" stroke="#0d1117" stroke-width="0.7"/>
<polygon points="325.60,71.00 343.60,71.00 350.40,82.00 332.40,82.00" fill="#161b22" stroke="#0d1117" stroke-width="0.7"/>
<polygon points="343.60,71.00 361.60,71.00 368.40,82.00 350.40,82.00" fill="#161b22" stroke="#0d1117" stroke-width="0.7"/>
<polygon points="361.60,71.00 379.60,71.00 386.40,82.00 368.40,82.00" fill="#161b22" stroke="#0d1117" stroke-width="0.7"/>
<polygon points="397.60,49.59 404.40,60.59 404.40,82.00 397.60,71.00" fill="#135320"/>
<polygon points="386.40,60.59 404.40,60.59 404.40,82.00 386.40,82.00" fill="#186b2a"/>
<polygon points="379.60,49.59 397.60,49.59 404.40,60.59 386.40,60.59" fill="#26a641" stroke="#0d1117" stroke-width="0.7"/>
<polygon points="397.60,71.00 415.60,71.00 422.40,82.00 404.40,82.00" fill="#161b22" stroke="#0d1117" stroke-width="0.7"/>
<polygon points="415.60,71.00 433.60,71.00 440.40,82.00 422.40,82.00" fill="#161b22" stroke="#0d1117" stroke-width="0.7"/>
<polygon points="451.60,64.81 458.40,75.81 458.40,82.00 451.60,71.00" fill="#072214"/>
<polygon points="440.40,75.81 458.40,75.81 458.40,82.00 440.40,82.00" fill="#092c1a"/>
<polygon points="433.60,64.81 451.60,64.81 458.40,75.81 440.40,75.81" fill="#0e4429" stroke="#0d1117" stroke-width="0.7"/>
<polygon points="451.60,71.00 469.60,71.00 476.40,82.00 458.40,82.00" fill="#161b22" stroke="#0d1117" stroke-width="0.7"/>
<polygon points="469.60,71.00 487.60,71.00 494.40,82.00 476.40,82.00" fill="#161b22" stroke="#0d1117" stroke-width="0.7"/>
<polygon points="505.60,61.19 512.40,72.19 512.40,82.00 505.60,71.00" fill="#072214"/>
<polygon points="494.40,72.19 512.40,72.19 512.40,82.00 494.40,82.00" fill="#092c1a"/>
<polygon points="487.60,61.19 505.60,61.19 512.40,72.19 494.40,72.19" fill="#0e4429" stroke="#0d1117" stroke-width="0.7"/>
<polygon points="505.60,71.00 523.60,71.00 530.40,82.00 512.40,82.00" fill="#161b22" stroke="#0d1117" stroke-width="0.7"/>
<polygon points="541.60,64.81 548.40,75.81 548.40,82.00 541.60,71.00" fill="#072214"/>
<polygon points="530.40,75.81 548.40,75.81 548.40,82.00 530.40,82.00" fill="#092c1a"/>
<polygon points="523.60,64.81 541.60,64.81 548.40,75.81 530.40,75.81" fill="#0e4429" stroke="#0d1117" stroke-width="0.7"/>
<polygon points="559.60,61.19 566.40,72.19 566.40,82.00 559.60,71.00" fill="#072214"/>
<polygon points="548.40,72.19 566.40,72.19 566.40,82.00 548.40,82.00" fill="#092c1a"/>
<polygon points="541.60,61.19 559.60,61.19 566.40,72.19 548.40,72.19" fill="#0e4429" stroke="#0d1117" stroke-width="0.7"/>
<polygon points="559.60,71.00 577.60,71.00 584.40,82.00 566.40,82.00" fill="#161b22" stroke="#0d1117" stroke-width="0.7"/>
<polygon points="577.60,71.00 595.60,71.00 602.40,82.00 584.40,82.00" fill="#161b22" stroke="#0d1117" stroke-width="0.7"/>
<polygon points="613.60,64.81 620.40,75.81 620.40,82.00 613.60,71.00" fill="#072214"/>
<polygon points="602.40,75.81 620.40,75.81 620.40,82.00 602.40,82.00" fill="#092c1a"/>
<polygon points="595.60,64.81 613.60,64.81 620.40,75.81 602.40,75.81" fill="#0e4429" stroke="#0d1117" stroke-width="0.7"/>
<polygon points="613.60,71.00 631.60,71.00 638.40,82.00 620.40,82.00" fill="#161b22" stroke="#0d1117" stroke-width="0.7"/>
<polygon points="631.60,71.00 649.60,71.00 656.40,82.00 638.40,82.00" fill="#161b22" stroke="#0d1117" stroke-width="0.7"/>
<polygon points="649.60,71.00 667.60,71.00 674.40,82.00 656.40,82.00" fill="#161b22" stroke="#0d1117" stroke-width="0.7"/>
<polygon points="667.60,71.00 685.60,71.00 692.40,82.00 674.40,82.00" fill="#161b22" stroke="#0d1117" stroke-width="0.7"/>
<polygon points="685.60,71.00 703.60,71.00 710.40,82.00 692.40,82.00" fill="#161b22" stroke="#0d1117" stroke-width="0.7"/>
<polygon points="721.60,64.81 728.40,75.81 728.40,82.00 721.60,71.00" fill="#072214"/>
<polygon points="710.40,75.81 728.40,75.81 728.40,82.00 710.40,82.00" fill="#092c1a"/>
<polygon points="703.60,64.81 721.60,64.81 728.40,75.81 710.40,75.81" fill="#0e4429" stroke="#0d1117" stroke-width="0.7"/>
<polygon points="721.60,71.00 739.60,71.00 746.40,82.00 728.40,82.00" fill="#161b22" stroke="#0d1117" stroke-width="0.7"/>
<polygon points="739.60,71.00 757.60,71.00 764.40,82.00 746.40,82.00" fill="#161b22" stroke="#0d1117" stroke-width="0.7"/>
<polygon points="757.60,71.00 775.60,71.00 782.40,82.00 764.40,82.00" fill="#161b22" stroke="#0d1117" stroke-width="0.7"/>
<polygon points="775.60,71.00 793.60,71.00 800.40,82.00 782.40,82.00" fill="#161b22" stroke="#0d1117" stroke-width="0.7"/>
<polygon points="793.60,71.00 811.60,71.00 818.40,82.00 800.40,82.00" fill="#161b22" stroke="#0d1117" stroke-width="0.7"/>
<polygon points="811.60,71.00 829.60,71.00 836.40,82.00 818.40,82.00" fill="#161b22" stroke="#0d1117" stroke-width="0.7"/>
<polygon points="829.60,71.00 847.60,71.00 854.40,82.00 836.40,82.00" fill="#161b22" stroke="#0d1117" stroke-width="0.7"/>
<polygon points="847.60,71.00 865.60,71.00 872.40,82.00 854.40,82.00" fill="#161b22" stroke="#0d1117" stroke-width="0.7"/>
<polygon points="865.60,71.00 883.60,71.00 890.40,82.00 872.40,82.00" fill="#161b22" stroke="#0d1117" stroke-width="0.7"/>
<polygon points="883.60,71.00 901.60,71.00 908.40,82.00 890.40,82.00" fill="#161b22" stroke="#0d1117" stroke-width="0.7"/>
<polygon points="901.60,71.00 919.60,71.00 926.40,82.00 908.40,82.00" fill="#161b22" stroke="#0d1117" stroke-width="0.7"/>
<polygon points="919.60,71.00 937.60,71.00 944.40,82.00 926.40,82.00" fill="#161b22" stroke="#0d1117" stroke-width="0.7"/>
<polygon points="955.60,64.81 962.40,75.81 962.40,82.00 955.60,71.00" fill="#072214"/>
<polygon points="944.40,75.81 962.40,75.81 962.40,82.00 944.40,82.00" fill="#092c1a"/>
<polygon points="937.60,64.81 955.60,64.81 962.40,75.81 944.40,75.81" fill="#0e4429" stroke="#0d1117" stroke-width="0.7"/>
<polygon points="973.60,64.81 980.40,75.81 980.40,82.00 973.60,71.00" fill="#072214"/>
<polygon points="962.40,75.81 980.40,75.81 980.40,82.00 962.40,82.00" fill="#092c1a"/>
<polygon points="955.60,64.81 973.60,64.81 980.40,75.81 962.40,75.81" fill="#0e4429" stroke="#0d1117" stroke-width="0.7"/>
<polygon points="973.60,71.00 991.60,71.00 998.40,82.00 980.40,82.00" fill="#161b22" stroke="#0d1117" stroke-width="0.7"/>
<polygon points="44.40,82.00 62.40,82.00 69.20,93.00 51.20,93.00" fill="#161b22" stroke="#0d1117" stroke-width="0.7"/>
<polygon points="62.40,82.00 80.40,82.00 87.20,93.00 69.20,93.00" fill="#161b22" stroke="#0d1117" stroke-width="0.7"/>
<polygon points="98.40,75.81 105.20,86.81 105.20,93.00 98.40,82.00" fill="#072214"/>
<polygon points="87.20,86.81 105.20,86.81 105.20,93.00 87.20,93.00" fill="#092c1a"/>
<polygon points="80.40,75.81 98.40,75.81 105.20,86.81 87.20,86.81" fill="#0e4429" stroke="#0d1117" stroke-width="0.7"/>
<polygon points="98.40,82.00 116.40,82.00 123.20,93.00 105.20,93.00" fill="#161b22" stroke="#0d1117" stroke-width="0.7"/>
<polygon points="134.40,75.81 141.20,86.81 141.20,93.00 134.40,82.00" fill="#072214"/>
<polygon points="123.20,86.81 141.20,86.81 141.20,93.00 123.20,93.00" fill="#092c1a"/>
<polygon points="116.40,75.81 134.40,75.81 141.20,86.81 123.20,86.81" fill="#0e4429" stroke="#0d1117" stroke-width="0.7"/>
<polygon points="134.40,82.00 152.40,82.00 159.20,93.00 141.20,93.00" fill="#161b22" stroke="#0d1117" stroke-width="0.7"/>
<polygon points="170.40,67.63 177.20,78.63 177.20,93.00 170.40,82.00" fill="#003619"/>
<polygon points="159.20,78.63 177.20,78.63 177.20,93.00 159.20,93.00" fill="#004620"/>
<polygon points="152.40,67.63 170.40,67.63 177.20,78.63 159.20,78.63" fill="#006d32" stroke="#0d1117" stroke-width="0.7"/>
<polygon points="170.40,82.00 188.40,82.00 195.20,93.00 177.20,93.00" fill="#161b22" stroke="#0d1117" stroke-width="0.7"/>
<polygon points="188.40,82.00 206.40,82.00 213.20,93.00 195.20,93.00" fill="#161b22" stroke="#0d1117" stroke-width="0.7"/>
<polygon points="206.40,82.00 224.40,82.00 231.20,93.00 213.20,93.00" fill="#161b22" stroke="#0d1117" stroke-width="0.7"/>
<polygon points="224.40,82.00 242.40,82.00 249.20,93.00 231.20,93.00" fill="#161b22" stroke="#0d1117" stroke-width="0.7"/>
<polygon points="242.40,82.00 260.40,82.00 267.20,93.00 249.20,93.00" fill="#161b22" stroke="#0d1117" stroke-width="0.7"/>
<polygon points="278.40,63.43 285.20,74.43 285.20,93.00 278.40,82.00" fill="#135320"/>
<polygon points="267.20,74.43 285.20,74.43 285.20,93.00 267.20,93.00" fill="#186b2a"/>
<polygon points="260.40,63.43 278.40,63.43 285.20,74.43 267.20,74.43" fill="#26a641" stroke="#0d1117" stroke-width="0.7"/>
<polygon points="278.40,82.00 296.40,82.00 303.20,93.00 285.20,93.00" fill="#161b22" stroke="#0d1117" stroke-width="0.7"/>
<polygon points="296.40,82.00 314.40,82.00 321.20,93.00 303.20,93.00" fill="#161b22" stroke="#0d1117" stroke-width="0.7"/>
<polygon points="314.40,82.00 332.40,82.00 339.20,93.00 321.20,93.00" fill="#161b22" stroke="#0d1117" stroke-width="0.7"/>
<polygon points="332.40,82.00 350.40,82.00 357.20,93.00 339.20,93.00" fill="#161b22" stroke="#0d1117" stroke-width="0.7"/>
<polygon points="368.40,72.19 375.20,83.19 375.20,93.00 368.40,82.00" fill="#072214"/>
<polygon points="357.20,83.19 375.20,83.19 375.20,93.00 357.20,93.00" fill="#092c1a"/>
<polygon points="350.40,72.19 368.40,72.19 375.20,83.19 357.20,83.19" fill="#0e4429" stroke="#0d1117" stroke-width="0.7"/>
<polygon points="368.40,82.00 386.40,82.00 393.20,93.00 375.20,93.00" fill="#161b22" stroke="#0d1117" stroke-width="0.7"/>
<polygon points="404.40,66.00 411.20,77.00 411.20,93.00 404.40,82.00" fill="#003619"/>
<polygon points="393.20,77.00 411.20,77.00 411.20,93.00 393.20,93.00" fill="#004620"/>
<polygon points="386.40,66.00 404.40,66.00 411.20,77.00 393.20,77.00" fill="#006d32" stroke="#0d1117" stroke-width="0.7"/>
<polygon points="422.40,75.81 429.20,86.81 429.20,93.00 422.40,82.00" fill="#072214"/>
<polygon points="411.20,86.81 429.20,86.81 429.20,93.00 411.20,93.00" fill="#092c1a"/>
<polygon points="404.40,75.81 422.40,75.81 429.20,86.81 411.20,86.81" fill="#0e4429" stroke="#0d1117" stroke-width="0.7"/>
<polygon points="440.40,75.81 447.20,86.81 447.20,93.00 440.40,82.00" fill="#072214"/>
<polygon points="429.20,86.81 447.20,86.81 447.20,93.00 429.20,93.00" fill="#092c1a"/>
<polygon points="422.40,75.81 440.40,75.81 447.20,86.81 429.20,86.81" fill="#0e4429" stroke="#0d1117" stroke-width="0.7"/>
<polygon points="440.40,82.00 458.40,82.00 465.20,93.00 447.20,93.00" fill="#161b22" stroke="#0d1117" stroke-width="0.7"/>
<polygon points="476.40,75.81 483.20,86.81 483.20,93.00 476.40,82.00" fill="#072214"/>
<polygon points="465.20,86.81 483.20,86.81 483.20,93.00 465.20,93.00" fill="#092c1a"/>
<polygon points="458.40,75.81 476.40,75.81 483.20,86.81 465.20,86.81" fill="#0e4429" stroke="#0d1117" stroke-width="0.7"/>
<polygon points="476.40,82.00 494.40,82.00 501.20,93.00 483.20,93.00" fill="#161b22" stroke="#0d1117" stroke-width="0.7"/>
<polygon points="512.40,75.81 519.20,86.81 519.20,93.00 512.40,82.00" fill="#072214"/>
<polygon points="501.20,86.81 519.20,86.81 519.20,93.00 501.20,93.00" fill="#092c1a"/>
<polygon points="494.40,75.81 512.40,75.81 519.20,86.81 501.20,86.81" fill="#0e4429" stroke="#0d1117" stroke-width="0.7"/>
<polygon points="512.40,82.00 530.40,82.00 537.20,93.00 519.20,93.00" fill="#161b22" stroke="#0d1117" stroke-width="0.7"/>
<polygon points="548.40,75.81 555.20,86.81 555.20,93.00 548.40,82.00" fill="#072214"/>
<polygon points="537.20,86.81 555.20,86.81 555.20,93.00 537.20,93.00" fill="#092c1a"/>
<polygon points="530.40,75.81 548.40,75.81 555.20,86.81 537.20,86.81" fill="#0e4429" stroke="#0d1117" stroke-width="0.7"/>
<polygon points="548.40,82.00 566.40,82.00 573.20,93.00 555.20,93.00" fill="#161b22" stroke="#0d1117" stroke-width="0.7"/>
<polygon points="584.40,75.81 591.20,86.81 591.20,93.00 584.40,82.00" fill="#072214"/>
<polygon points="573.20,86.81 591.20,86.81 591.20,93.00 573.20,93.00" fill="#092c1a"/>
<polygon points="566.40,75.81 584.40,75.81 591.20,86.81 573.20,86.81" fill="#0e4429" stroke="#0d1117" stroke-width="0.7"/>
<polygon points="584.40,82.00 602.40,82.00 609.20,93.00 591.20,93.00" fill="#161b22" stroke="#0d1117" stroke-width="0.7"/>
<polygon points="620.40,75.81 627.20,86.81 627.20,93.00 620.40,82.00" fill="#072214"/>
<polygon points="609.20,86.81 627.20,86.81 627.20,93.00 609.20,93.00" fill="#092c1a"/>
<polygon points="602.40,75.81 620.40,75.81 627.20,86.81 609.20,86.81" fill="#0e4429" stroke="#0d1117" stroke-width="0.7"/>
<polygon points="620.40,82.00 638.40,82.00 645.20,93.00 627.20,93.00" fill="#161b22" stroke="#0d1117" stroke-width="0.7"/>
<polygon points="638.40,82.00 656.40,82.00 663.20,93.00 645.20,93.00" fill="#161b22" stroke="#0d1117" stroke-width="0.7"/>
<polygon points="656.40,82.00 674.40,82.00 681.20,93.00 663.20,93.00" fill="#161b22" stroke="#0d1117" stroke-width="0.7"/>
<polygon points="674.40,82.00 692.40,82.00 699.20,93.00 681.20,93.00" fill="#161b22" stroke="#0d1117" stroke-width="0.7"/>
<polygon points="692.40,82.00 710.40,82.00 717.20,93.00 699.20,93.00" fill="#161b22" stroke="#0d1117" stroke-width="0.7"/>
<polygon points="710.40,82.00 728.40,82.00 735.20,93.00 717.20,93.00" fill="#161b22" stroke="#0d1117" stroke-width="0.7"/>
<polygon points="728.40,82.00 746.40,82.00 753.20,93.00 735.20,93.00" fill="#161b22" stroke="#0d1117" stroke-width="0.7"/>
<polygon points="746.40,82.00 764.40,82.00 771.20,93.00 753.20,93.00" fill="#161b22" stroke="#0d1117" stroke-width="0.7"/>
<polygon points="764.40,82.00 782.40,82.00 789.20,93.00 771.20,93.00" fill="#161b22" stroke="#0d1117" stroke-width="0.7"/>
<polygon points="782.40,82.00 800.40,82.00 807.20,93.00 789.20,93.00" fill="#161b22" stroke="#0d1117" stroke-width="0.7"/>
<polygon points="800.40,82.00 818.40,82.00 825.20,93.00 807.20,93.00" fill="#161b22" stroke="#0d1117" stroke-width="0.7"/>
<polygon points="818.40,82.00 836.40,82.00 843.20,93.00 825.20,93.00" fill="#161b22" stroke="#0d1117" stroke-width="0.7"/>
<polygon points="836.40,82.00 854.40,82.00 861.20,93.00 843.20,93.00" fill="#161b22" stroke="#0d1117" stroke-width="0.7"/>
<polygon points="854.40,82.00 872.40,82.00 879.20,93.00 861.20,93.00" fill="#161b22" stroke="#0d1117" stroke-width="0.7"/>
<polygon points="872.40,82.00 890.40,82.00 897.20,93.00 879.20,93.00" fill="#161b22" stroke="#0d1117" stroke-width="0.7"/>
<polygon points="890.40,82.00 908.40,82.00 915.20,93.00 897.20,93.00" fill="#161b22" stroke="#0d1117" stroke-width="0.7"/>
<polygon points="926.40,67.63 933.20,78.63 933.20,93.00 926.40,82.00" fill="#003619"/>
<polygon points="915.20,78.63 933.20,78.63 933.20,93.00 915.20,93.00" fill="#004620"/>
<polygon points="908.40,67.63 926.40,67.63 933.20,78.63 915.20,78.63" fill="#006d32" stroke="#0d1117" stroke-width="0.7"/>
<polygon points="944.40,57.82 951.20,68.82 951.20,93.00 944.40,82.00" fill="#135320"/>
<polygon points="933.20,68.82 951.20,68.82 951.20,93.00 933.20,93.00" fill="#186b2a"/>
<polygon points="926.40,57.82 944.40,57.82 951.20,68.82 933.20,68.82" fill="#26a641" stroke="#0d1117" stroke-width="0.7"/>
<polygon points="944.40,82.00 962.40,82.00 969.20,93.00 951.20,93.00" fill="#161b22" stroke="#0d1117" stroke-width="0.7"/>
<polygon points="962.40,82.00 980.40,82.00 987.20,93.00 969.20,93.00" fill="#161b22" stroke="#0d1117" stroke-width="0.7"/>
<polygon points="980.40,82.00 998.40,82.00 1005.20,93.00 987.20,93.00" fill="#161b22" stroke="#0d1117" stroke-width="0.7"/>
<polygon points="51.20,93.00 69.20,93.00 76.00,104.00 58.00,104.00" fill="#161b22" stroke="#0d1117" stroke-width="0.7"/>
<polygon points="69.20,93.00 87.20,93.00 94.00,104.00 76.00,104.00" fill="#161b22" stroke="#0d1117" stroke-width="0.7"/>
<polygon points="87.20,93.00 105.20,93.00 112.00,104.00 94.00,104.00" fill="#161b22" stroke="#0d1117" stroke-width="0.7"/>
<polygon points="105.20,93.00 123.20,93.00 130.00,104.00 112.00,104.00" fill="#161b22" stroke="#0d1117" stroke-width="0.7"/>
<polygon points="141.20,86.81 148.00,97.81 148.00,104.00 141.20,93.00" fill="#072214"/>
<polygon points="130.00,97.81 148.00,97.81 148.00,104.00 130.00,104.00" fill="#092c1a"/>
<polygon points="123.20,86.81 141.20,86.81 148.00,97.81 130.00,97.81" fill="#0e4429" stroke="#0d1117" stroke-width="0.7"/>
<polygon points="159.20,80.62 166.00,91.62 166.00,104.00 159.20,93.00" fill="#003619"/>
<polygon points="148.00,91.62 166.00,91.62 166.00,104.00 148.00,104.00" fill="#004620"/>
<polygon points="141.20,80.62 159.20,80.62 166.00,91.62 148.00,91.62" fill="#006d32" stroke="#0d1117" stroke-width="0.7"/>
<polygon points="159.20,93.00 177.20,93.00 184.00,104.00 166.00,104.00" fill="#161b22" stroke="#0d1117" stroke-width="0.7"/>
<polygon points="177.20,93.00 195.20,93.00 202.00,104.00 184.00,104.00" fill="#161b22" stroke="#0d1117" stroke-width="0.7"/>
<polygon points="195.20,93.00 213.20,93.00 220.00,104.00 202.00,104.00" fill="#161b22" stroke="#0d1117" stroke-width="0.7"/>
<polygon points="213.20,93.00 231.20,93.00 238.00,104.00 220.00,104.00" fill="#161b22" stroke="#0d1117" stroke-width="0.7"/>
<polygon points="231.20,93.00 249.20,93.00 256.00,104.00 238.00,104.00" fill="#161b22" stroke="#0d1117" stroke-width="0.7"/>
<polygon points="267.20,75.62 274.00,86.62 274.00,104.00 267.20,93.00" fill="#003619"/>
<polygon points="256.00,86.62 274.00,86.62 274.00,104.00 256.00,104.00" fill="#004620"/>
<polygon points="249.20,75.62 267.20,75.62 274.00,86.62 256.00,86.62" fill="#006d32" stroke="#0d1117" stroke-width="0.7"/>
<polygon points="285.20,72.44 292.00,83.44 292.00,104.00 285.20,93.00" fill="#135320"/>
<polygon points="274.00,83.44 292.00,83.44 292.00,104.00 274.00,104.00" fill="#186b2a"/>
<polygon points="267.20,72.44 285.20,72.44 292.00,83.44 274.00,83.44" fill="#26a641" stroke="#0d1117" stroke-width="0.7"/>
<polygon points="285.20,93.00 303.20,93.00 310.00,104.00 292.00,104.00" fill="#161b22" stroke="#0d1117" stroke-width="0.7"/>
<polygon points="303.20,93.00 321.20,93.00 328.00,104.00 310.00,104.00" fill="#161b22" stroke="#0d1117" stroke-width="0.7"/>
<polygon points="321.20,93.00 339.20,93.00 346.00,104.00 328.00,104.00" fill="#161b22" stroke="#0d1117" stroke-width="0.7"/>
<polygon points="339.20,93.00 357.20,93.00 364.00,104.00 346.00,104.00" fill="#161b22" stroke="#0d1117" stroke-width="0.7"/>
<polygon points="357.20,93.00 375.20,93.00 382.00,104.00 364.00,104.00" fill="#161b22" stroke="#0d1117" stroke-width="0.7"/>
<polygon points="375.20,93.00 393.20,93.00 400.00,104.00 382.00,104.00" fill="#161b22" stroke="#0d1117" stroke-width="0.7"/>
<polygon points="411.20,83.19 418.00,94.19 418.00,104.00 411.20,93.00" fill="#072214"/>
<polygon points="400.00,94.19 418.00,94.19 418.00,104.00 400.00,104.00" fill="#092c1a"/>
<polygon points="393.20,83.19 411.20,83.19 418.00,94.19 400.00,94.19" fill="#0e4429" stroke="#0d1117" stroke-width="0.7"/>
<polygon points="411.20,93.00 429.20,93.00 436.00,104.00 418.00,104.00" fill="#161b22" stroke="#0d1117" stroke-width="0.7"/>
<polygon points="429.20,93.00 447.20,93.00 454.00,104.00 436.00,104.00" fill="#161b22" stroke="#0d1117" stroke-width="0.7"/>
<polygon points="447.20,93.00 465.20,93.00 472.00,104.00 454.00,104.00" fill="#161b22" stroke="#0d1117" stroke-width="0.7"/>
<polygon points="465.20,93.00 483.20,93.00 490.00,104.00 472.00,104.00" fill="#161b22" stroke="#0d1117" stroke-width="0.7"/>
<polygon points="483.20,93.00 501.20,93.00 508.00,104.00 490.00,104.00" fill="#161b22" stroke="#0d1117" stroke-width="0.7"/>
<polygon points="501.20,93.00 519.20,93.00 526.00,104.00 508.00,104.00" fill="#161b22" stroke="#0d1117" stroke-width="0.7"/>
<polygon points="519.20,93.00 537.20,93.00 544.00,104.00 526.00,104.00" fill="#161b22" stroke="#0d1117" stroke-width="0.7"/>
<polygon points="555.20,83.19 562.00,94.19 562.00,104.00 555.20,93.00" fill="#072214"/>
<polygon points="544.00,94.19 562.00,94.19 562.00,104.00 544.00,104.00" fill="#092c1a"/>
<polygon points="537.20,83.19 555.20,83.19 562.00,94.19 544.00,94.19" fill="#0e4429" stroke="#0d1117" stroke-width="0.7"/>
<polygon points="555.20,93.00 573.20,93.00 580.00,104.00 562.00,104.00" fill="#161b22" stroke="#0d1117" stroke-width="0.7"/>
<polygon points="591.20,86.81 598.00,97.81 598.00,104.00 591.20,93.00" fill="#072214"/>
<polygon points="580.00,97.81 598.00,97.81 598.00,104.00 580.00,104.00" fill="#092c1a"/>
<polygon points="573.20,86.81 591.20,86.81 598.00,97.81 580.00,97.81" fill="#0e4429" stroke="#0d1117" stroke-width="0.7"/>
<polygon points="591.20,93.00 609.20,93.00 616.00,104.00 598.00,104.00" fill="#161b22" stroke="#0d1117" stroke-width="0.7"/>
<polygon points="609.20,93.00 627.20,93.00 634.00,104.00 616.00,104.00" fill="#161b22" stroke="#0d1117" stroke-width="0.7"/>
<polygon points="645.20,80.62 652.00,91.62 652.00,104.00 645.20,93.00" fill="#003619"/>
<polygon points="634.00,91.62 652.00,91.62 652.00,104.00 634.00,104.00" fill="#004620"/>
<polygon points="627.20,80.62 645.20,80.62 652.00,91.62 634.00,91.62" fill="#006d32" stroke="#0d1117" stroke-width="0.7"/>
<polygon points="645.20,93.00 663.20,93.00 670.00,104.00 652.00,104.00" fill="#161b22" stroke="#0d1117" stroke-width="0.7"/>
<polygon points="681.20,86.81 688.00,97.81 688.00,104.00 681.20,93.00" fill="#072214"/>
<polygon points="670.00,97.81 688.00,97.81 688.00,104.00 670.00,104.00" fill="#092c1a"/>
<polygon points="663.20,86.81 681.20,86.81 688.00,97.81 670.00,97.81" fill="#0e4429" stroke="#0d1117" stroke-width="0.7"/>
<polygon points="681.20,93.00 699.20,93.00 706.00,104.00 688.00,104.00" fill="#161b22" stroke="#0d1117" stroke-width="0.7"/>
<polygon points="699.20,93.00 717.20,93.00 724.00,104.00 706.00,104.00" fill="#161b22" stroke="#0d1117" stroke-width="0.7"/>
<polygon points="717.20,93.00 735.20,93.00 742.00,104.00 724.00,104.00" fill="#161b22" stroke="#0d1117" stroke-width="0.7"/>
<polygon points="735.20,93.00 753.20,93.00 760.00,104.00 742.00,104.00" fill="#161b22" stroke="#0d1117" stroke-width="0.7"/>
<polygon points="753.20,93.00 771.20,93.00 778.00,104.00 760.00,104.00" fill="#161b22" stroke="#0d1117" stroke-width="0.7"/>
<polygon points="771.20,93.00 789.20,93.00 796.00,104.00 778.00,104.00" fill="#161b22" stroke="#0d1117" stroke-width="0.7"/>
<polygon points="789.20,93.00 807.20,93.00 814.00,104.00 796.00,104.00" fill="#161b22" stroke="#0d1117" stroke-width="0.7"/>
<polygon points="825.20,80.62 832.00,91.62 832.00,104.00 825.20,93.00" fill="#003619"/>
<polygon points="814.00,91.62 832.00,91.62 832.00,104.00 814.00,104.00" fill="#004620"/>
<polygon points="807.20,80.62 825.20,80.62 832.00,91.62 814.00,91.62" fill="#006d32" stroke="#0d1117" stroke-width="0.7"/>
<polygon points="825.20,93.00 843.20,93.00 850.00,104.00 832.00,104.00" fill="#161b22" stroke="#0d1117" stroke-width="0.7"/>
<polygon points="843.20,93.00 861.20,93.00 868.00,104.00 850.00,104.00" fill="#161b22" stroke="#0d1117" stroke-width="0.7"/>
<polygon points="861.20,93.00 879.20,93.00 886.00,104.00 868.00,104.00" fill="#161b22" stroke="#0d1117" stroke-width="0.7"/>
<polygon points="879.20,93.00 897.20,93.00 904.00,104.00 886.00,104.00" fill="#161b22" stroke="#0d1117" stroke-width="0.7"/>
<polygon points="897.20,93.00 915.20,93.00 922.00,104.00 904.00,104.00" fill="#161b22" stroke="#0d1117" stroke-width="0.7"/>
<polygon points="915.20,93.00 933.20,93.00 940.00,104.00 922.00,104.00" fill="#161b22" stroke="#0d1117" stroke-width="0.7"/>
<polygon points="951.20,86.81 958.00,97.81 958.00,104.00 951.20,93.00" fill="#072214"/>
<polygon points="940.00,97.81 958.00,97.81 958.00,104.00 940.00,104.00" fill="#092c1a"/>
<polygon points="933.20,86.81 951.20,86.81 958.00,97.81 940.00,97.81" fill="#0e4429" stroke="#0d1117" stroke-width="0.7"/>
<polygon points="951.20,93.00 969.20,93.00 976.00,104.00 958.00,104.00" fill="#161b22" stroke="#0d1117" stroke-width="0.7"/>
<polygon points="969.20,93.00 987.20,93.00 994.00,104.00 976.00,104.00" fill="#161b22" stroke="#0d1117" stroke-width="0.7"/>
<polygon points="987.20,93.00 1005.20,93.00 1012.00,104.00 994.00,104.00" fill="#161b22" stroke="#0d1117" stroke-width="0.7"/>
<polygon points="58.00,104.00 76.00,104.00 82.80,115.00 64.80,115.00" fill="#161b22" stroke="#0d1117" stroke-width="0.7"/>
<polygon points="94.00,91.62 100.80,102.62 100.80,115.00 94.00,104.00" fill="#003619"/>
<polygon points="82.80,102.62 100.80,102.62 100.80,115.00 82.80,115.00" fill="#004620"/>
<polygon points="76.00,91.62 94.00,91.62 100.80,102.62 82.80,102.62" fill="#006d32" stroke="#0d1117" stroke-width="0.7"/>
<polygon points="94.00,104.00 112.00,104.00 118.80,115.00 100.80,115.00" fill="#161b22" stroke="#0d1117" stroke-width="0.7"/>
<polygon points="112.00,104.00 130.00,104.00 136.80,115.00 118.80,115.00" fill="#161b22" stroke="#0d1117" stroke-width="0.7"/>
<polygon points="130.00,104.00 148.00,104.00 154.80,115.00 136.80,115.00" fill="#161b22" stroke="#0d1117" stroke-width="0.7"/>
<polygon points="166.00,89.63 172.80,100.63 172.80,115.00 166.00,104.00" fill="#003619"/>
<polygon points="154.80,100.63 172.80,100.63 172.80,115.00 154.80,115.00" fill="#004620"/>
<polygon points="148.00,89.63 166.00,89.63 172.80,100.63 154.80,100.63" fill="#006d32" stroke="#0d1117" stroke-width="0.7"/>
<polygon points="184.00,91.62 190.80,102.62 190.80,115.00 184.00,104.00" fill="#003619"/>
<polygon points="172.80,102.62 190.80,102.62 190.80,115.00 172.80,115.00" fill="#004620"/>
<polygon points="166.00,91.62 184.00,91.62 190.80,102.62 172.80,102.62" fill="#006d32" stroke="#0d1117" stroke-width="0.7"/>
<polygon points="184.00,104.00 202.00,104.00 208.80,115.00 190.80,115.00" fill="#161b22" stroke="#0d1117" stroke-width="0.7"/>
<polygon points="220.00,97.81 226.80,108.81 226.80,115.00 220.00,104.00" fill="#072214"/>
<polygon points="208.80,108.81 226.80,108.81 226.80,115.00 208.80,115.00" fill="#092c1a"/>
<polygon points="202.00,97.81 220.00,97.81 226.80,108.81 208.80,108.81" fill="#0e4429" stroke="#0d1117" stroke-width="0.7"/>
<polygon points="238.00,94.19 244.80,105.19 244.80,115.00 238.00,104.00" fill="#072214"/>
<polygon points="226.80,105.19 244.80,105.19 244.80,115.00 226.80,115.00" fill="#092c1a"/>
<polygon points="220.00,94.19 238.00,94.19 244.80,105.19 226.80,105.19" fill="#0e4429" stroke="#0d1117" stroke-width="0.7"/>
<polygon points="238.00,104.00 256.00,104.00 262.80,115.00 244.80,115.00" fill="#161b22" stroke="#0d1117" stroke-width="0.7"/>
<polygon points="256.00,104.00 274.00,104.00 280.80,115.00 262.80,115.00" fill="#161b22" stroke="#0d1117" stroke-width="0.7"/>
<polygon points="292.00,97.81 298.80,108.81 298.80,115.00 292.00,104.00" fill="#072214"/>
<polygon points="280.80,108.81 298.80,108.81 298.80,115.00 280.80,115.00" fill="#092c1a"/>
<polygon points="274.00,97.81 292.00,97.81 298.80,108.81 280.80,108.81" fill="#0e4429" stroke="#0d1117" stroke-width="0.7"/>
<polygon points="292.00,104.00 310.00,104.00 316.80,115.00 298.80,115.00" fill="#161b22" stroke="#0d1117" stroke-width="0.7"/>
<polygon points="310.00,104.00 328.00,104.00 334.80,115.00 316.80,115.00" fill="#161b22" stroke="#0d1117" stroke-width="0.7"/>
<polygon points="328.00,104.00 346.00,104.00 352.80,115.00 334.80,115.00" fill="#161b22" stroke="#0d1117" stroke-width="0.7"/>
<polygon points="346.00,104.00 364.00,104.00 370.80,115.00 352.80,115.00" fill="#161b22" stroke="#0d1117" stroke-width="0.7"/>
<polygon points="364.00,104.00 382.00,104.00 388.80,115.00 370.80,115.00" fill="#161b22" stroke="#0d1117" stroke-width="0.7"/>
<polygon points="382.00,104.00 400.00,104.00 406.80,115.00 388.80,115.00" fill="#161b22" stroke="#0d1117" stroke-width="0.7"/>
<polygon points="418.00,97.81 424.80,108.81 424.80,115.00 418.00,104.00" fill="#072214"/>
<polygon points="406.80,108.81 424.80,108.81 424.80,115.00 406.80,115.00" fill="#092c1a"/>
<polygon points="400.00,97.81 418.00,97.81 424.80,108.81 406.80,108.81" fill="#0e4429" stroke="#0d1117" stroke-width="0.7"/>
<polygon points="418.00,104.00 436.00,104.00 442.80,115.00 424.80,115.00" fill="#161b22" stroke="#0d1117" stroke-width="0.7"/>
<polygon points="436.00,104.00 454.00,104.00 460.80,115.00 442.80,115.00" fill="#161b22" stroke="#0d1117" stroke-width="0.7"/>
<polygon points="472.00,97.81 478.80,108.81 478.80,115.00 472.00,104.00" fill="#072214"/>
<polygon points="460.80,108.81 478.80,108.81 478.80,115.00 460.80,115.00" fill="#092c1a"/>
<polygon points="454.00,97.81 472.00,97.81 478.80,108.81 460.80,108.81" fill="#0e4429" stroke="#0d1117" stroke-width="0.7"/>
<polygon points="472.00,104.00 490.00,104.00 496.80,115.00 478.80,115.00" fill="#161b22" stroke="#0d1117" stroke-width="0.7"/>
<polygon points="490.00,104.00 508.00,104.00 514.80,115.00 496.80,115.00" fill="#161b22" stroke="#0d1117" stroke-width="0.7"/>
<polygon points="526.00,88.00 532.80,99.00 532.80,115.00 526.00,104.00" fill="#003619"/>
<polygon points="514.80,99.00 532.80,99.00 532.80,115.00 514.80,115.00" fill="#004620"/>
<polygon points="508.00,88.00 526.00,88.00 532.80,99.00 514.80,99.00" fill="#006d32" stroke="#0d1117" stroke-width="0.7"/>
<polygon points="544.00,94.19 550.80,105.19 550.80,115.00 544.00,104.00" fill="#072214"/>
<polygon points="532.80,105.19 550.80,105.19 550.80,115.00 532.80,115.00" fill="#092c1a"/>
<polygon points="526.00,94.19 544.00,94.19 550.80,105.19 532.80,105.19" fill="#0e4429" stroke="#0d1117" stroke-width="0.7"/>
<polygon points="562.00,97.81 568.80,108.81 568.80,115.00 562.00,104.00" fill="#072214"/>
<polygon points="550.80,108.81 568.80,108.81 568.80,115.00 550.80,115.00" fill="#092c1a"/>
<polygon points="544.00,97.81 562.00,97.81 568.80,108.81 550.80,108.81" fill="#0e4429" stroke="#0d1117" stroke-width="0.7"/>
<polygon points="562.00,104.00 580.00,104.00 586.80,115.00 568.80,115.00" fill="#161b22" stroke="#0d1117" stroke-width="0.7"/>
<polygon points="580.00,104.00 598.00,104.00 604.80,115.00 586.80,115.00" fill="#161b22" stroke="#0d1117" stroke-width="0.7"/>
<polygon points="598.00,104.00 616.00,104.00 622.80,115.00 604.80,115.00" fill="#161b22" stroke="#0d1117" stroke-width="0.7"/>
<polygon points="616.00,104.00 634.00,104.00 640.80,115.00 622.80,115.00" fill="#161b22" stroke="#0d1117" stroke-width="0.7"/>
<polygon points="634.00,104.00 652.00,104.00 658.80,115.00 640.80,115.00" fill="#161b22" stroke="#0d1117" stroke-width="0.7"/>
<polygon points="652.00,104.00 670.00,104.00 676.80,115.00 658.80,115.00" fill="#161b22" stroke="#0d1117" stroke-width="0.7"/>
<polygon points="670.00,104.00 688.00,104.00 694.80,115.00 676.80,115.00" fill="#161b22" stroke="#0d1117" stroke-width="0.7"/>
<polygon points="688.00,104.00 706.00,104.00 712.80,115.00 694.80,115.00" fill="#161b22" stroke="#0d1117" stroke-width="0.7"/>
<polygon points="706.00,104.00 724.00,104.00 730.80,115.00 712.80,115.00" fill="#161b22" stroke="#0d1117" stroke-width="0.7"/>
<polygon points="724.00,104.00 742.00,104.00 748.80,115.00 730.80,115.00" fill="#161b22" stroke="#0d1117" stroke-width="0.7"/>
<polygon points="760.00,94.19 766.80,105.19 766.80,115.00 760.00,104.00" fill="#072214"/>
<polygon points="748.80,105.19 766.80,105.19 766.80,115.00 748.80,115.00" fill="#092c1a"/>
<polygon points="742.00,94.19 760.00,94.19 766.80,105.19 748.80,105.19" fill="#0e4429" stroke="#0d1117" stroke-width="0.7"/>
<polygon points="778.00,97.81 784.80,108.81 784.80,115.00 778.00,104.00" fill="#072214"/>
<polygon points="766.80,108.81 784.80,108.81 784.80,115.00 766.80,115.00" fill="#092c1a"/>
<polygon points="760.00,97.81 778.00,97.81 784.80,108.81 766.80,108.81" fill="#0e4429" stroke="#0d1117" stroke-width="0.7"/>
<polygon points="778.00,104.00 796.00,104.00 802.80,115.00 784.80,115.00" fill="#161b22" stroke="#0d1117" stroke-width="0.7"/>
<polygon points="796.00,104.00 814.00,104.00 820.80,115.00 802.80,115.00" fill="#161b22" stroke="#0d1117" stroke-width="0.7"/>
<polygon points="814.00,104.00 832.00,104.00 838.80,115.00 820.80,115.00" fill="#161b22" stroke="#0d1117" stroke-width="0.7"/>
<polygon points="832.00,104.00 850.00,104.00 856.80,115.00 838.80,115.00" fill="#161b22" stroke="#0d1117" stroke-width="0.7"/>
<polygon points="850.00,104.00 868.00,104.00 874.80,115.00 856.80,115.00" fill="#161b22" stroke="#0d1117" stroke-width="0.7"/>
<polygon points="868.00,104.00 886.00,104.00 892.80,115.00 874.80,115.00" fill="#161b22" stroke="#0d1117" stroke-width="0.7"/>
<polygon points="886.00,104.00 904.00,104.00 910.80,115.00 892.80,115.00" fill="#161b22" stroke="#0d1117" stroke-width="0.7"/>
<polygon points="904.00,104.00 922.00,104.00 928.80,115.00 910.80,115.00" fill="#161b22" stroke="#0d1117" stroke-width="0.7"/>
<polygon points="922.00,104.00 940.00,104.00 946.80,115.00 928.80,115.00" fill="#161b22" stroke="#0d1117" stroke-width="0.7"/>
<polygon points="940.00,104.00 958.00,104.00 964.80,115.00 946.80,115.00" fill="#161b22" stroke="#0d1117" stroke-width="0.7"/>
<polygon points="976.00,97.81 982.80,108.81 982.80,115.00 976.00,104.00" fill="#072214"/>
<polygon points="964.80,108.81 982.80,108.81 982.80,115.00 964.80,115.00" fill="#092c1a"/>
<polygon points="958.00,97.81 976.00,97.81 982.80,108.81 964.80,108.81" fill="#0e4429" stroke="#0d1117" stroke-width="0.7"/>
<polygon points="994.00,76.00 1000.80,87.00 1000.80,115.00 994.00,104.00" fill="#1c6929"/>
<polygon points="982.80,87.00 1000.80,87.00 1000.80,115.00 982.80,115.00" fill="#258935"/>
<polygon points="976.00,76.00 994.00,76.00 1000.80,87.00 982.80,87.00" fill="#39d353" stroke="#0d1117" stroke-width="0.7"/>
<polygon points="994.00,104.00 1012.00,104.00 1018.80,115.00 1000.80,115.00" fill="#161b22" stroke="#0d1117" stroke-width="0.7"/>
<polygon points="64.80,115.00 82.80,115.00 89.60,126.00 71.60,126.00" fill="#161b22" stroke="#0d1117" stroke-width="0.7"/>
<polygon points="82.80,115.00 100.80,115.00 107.60,126.00 89.60,126.00" fill="#161b22" stroke="#0d1117" stroke-width="0.7"/>
<polygon points="100.80,115.00 118.80,115.00 125.60,126.00 107.60,126.00" fill="#161b22" stroke="#0d1117" stroke-width="0.7"/>
<polygon points="136.80,108.81 143.60,119.81 143.60,126.00 136.80,115.00" fill="#072214"/>
<polygon points="125.60,119.81 143.60,119.81 143.60,126.00 125.60,126.00" fill="#092c1a"/>
<polygon points="118.80,108.81 136.80,108.81 143.60,119.81 125.60,119.81" fill="#0e4429" stroke="#0d1117" stroke-width="0.7"/>
<polygon points="154.80,105.19 161.60,116.19 161.60,126.00 154.80,115.00" fill="#072214"/>
<polygon points="143.60,116.19 161.60,116.19 161.60,126.00 143.60,126.00" fill="#092c1a"/>
<polygon points="136.80,105.19 154.80,105.19 161.60,116.19 143.60,116.19" fill="#0e4429" stroke="#0d1117" stroke-width="0.7"/>
<polygon points="172.80,94.44 179.60,105.44 179.60,126.00 172.80,115.00" fill="#135320"/>
<polygon points="161.60,105.44 179.60,105.44 179.60,126.00 161.60,126.00" fill="#186b2a"/>
<polygon points="154.80,94.44 172.80,94.44 179.60,105.44 161.60,105.44" fill="#26a641" stroke="#0d1117" stroke-width="0.7"/>
<polygon points="190.80,108.81 197.60,119.81 197.60,126.00 190.80,115.00" fill="#072214"/>
<polygon points="179.60,119.81 197.60,119.81 197.60,126.00 179.60,126.00" fill="#092c1a"/>
<polygon points="172.80,108.81 190.80,108.81 197.60,119.81 179.60,119.81" fill="#0e4429" stroke="#0d1117" stroke-width="0.7"/>
<polygon points="190.80,115.00 208.80,115.00 215.60,126.00 197.60,126.00" fill="#161b22" stroke="#0d1117" stroke-width="0.7"/>
<polygon points="226.80,105.19 233.60,116.19 233.60,126.00 226.80,115.00" fill="#072214"/>
<polygon points="215.60,116.19 233.60,116.19 233.60,126.00 215.60,126.00" fill="#092c1a"/>
<polygon points="208.80,105.19 226.80,105.19 233.60,116.19 215.60,116.19" fill="#0e4429" stroke="#0d1117" stroke-width="0.7"/>
<polygon points="244.80,105.19 251.60,116.19 251.60,126.00 244.80,115.00" fill="#072214"/>
<polygon points="233.60,116.19 251.60,116.19 251.60,126.00 233.60,126.00" fill="#092c1a"/>
<polygon points="226.80,105.19 244.80,105.19 251.60,116.19 233.60,116.19" fill="#0e4429" stroke="#0d1117" stroke-width="0.7"/>
<polygon points="244.80,115.00 262.80,115.00 269.60,126.00 251.60,126.00" fill="#161b22" stroke="#0d1117" stroke-width="0.7"/>
<polygon points="262.80,115.00 280.80,115.00 287.60,126.00 269.60,126.00" fill="#161b22" stroke="#0d1117" stroke-width="0.7"/>
<polygon points="280.80,115.00 298.80,115.00 305.60,126.00 287.60,126.00" fill="#161b22" stroke="#0d1117" stroke-width="0.7"/>
<polygon points="298.80,115.00 316.80,115.00 323.60,126.00 305.60,126.00" fill="#161b22" stroke="#0d1117" stroke-width="0.7"/>
<polygon points="316.80,115.00 334.80,115.00 341.60,126.00 323.60,126.00" fill="#161b22" stroke="#0d1117" stroke-width="0.7"/>
<polygon points="334.80,115.00 352.80,115.00 359.60,126.00 341.60,126.00" fill="#161b22" stroke="#0d1117" stroke-width="0.7"/>
<polygon points="352.80,115.00 370.80,115.00 377.60,126.00 359.60,126.00" fill="#161b22" stroke="#0d1117" stroke-width="0.7"/>
<polygon points="370.80,115.00 388.80,115.00 395.60,126.00 377.60,126.00" fill="#161b22" stroke="#0d1117" stroke-width="0.7"/>
<polygon points="406.80,105.19 413.60,116.19 413.60,126.00 406.80,115.00" fill="#072214"/>
<polygon points="395.60,116.19 413.60,116.19 413.60,126.00 395.60,126.00" fill="#092c1a"/>
<polygon points="388.80,105.19 406.80,105.19 413.60,116.19 395.60,116.19" fill="#0e4429" stroke="#0d1117" stroke-width="0.7"/>
<polygon points="406.80,115.00 424.80,115.00 431.60,126.00 413.60,126.00" fill="#161b22" stroke="#0d1117" stroke-width="0.7"/>
<polygon points="424.80,115.00 442.80,115.00 449.60,126.00 431.60,126.00" fill="#161b22" stroke="#0d1117" stroke-width="0.7"/>
<polygon points="442.80,115.00 460.80,115.00 467.60,126.00 449.60,126.00" fill="#161b22" stroke="#0d1117" stroke-width="0.7"/>
<polygon points="460.80,115.00 478.80,115.00 485.60,126.00 467.60,126.00" fill="#161b22" stroke="#0d1117" stroke-width="0.7"/>
<polygon points="478.80,115.00 496.80,115.00 503.60,126.00 485.60,126.00" fill="#161b22" stroke="#0d1117" stroke-width="0.7"/>
<polygon points="514.80,105.19 521.60,116.19 521.60,126.00 514.80,115.00" fill="#072214"/>
<polygon points="503.60,116.19 521.60,116.19 521.60,126.00 503.60,126.00" fill="#092c1a"/>
<polygon points="496.80,105.19 514.80,105.19 521.60,116.19 503.60,116.19" fill="#0e4429" stroke="#0d1117" stroke-width="0.7"/>
<polygon points="514.80,115.00 532.80,115.00 539.60,126.00 521.60,126.00" fill="#161b22" stroke="#0d1117" stroke-width="0.7"/>
<polygon points="550.80,105.19 557.60,116.19 557.60,126.00 550.80,115.00" fill="#072214"/>
<polygon points="539.60,116.19 557.60,116.19 557.60,126.00 539.60,126.00" fill="#092c1a"/>
<polygon points="532.80,105.19 550.80,105.19 557.60,116.19 539.60,116.19" fill="#0e4429" stroke="#0d1117" stroke-width="0.7"/>
<polygon points="568.80,105.19 575.60,116.19 575.60,126.00 568.80,115.00" fill="#072214"/>
<polygon points="557.60,116.19 575.60,116.19 575.60,126.00 557.60,126.00" fill="#092c1a"/>
<polygon points="550.80,105.19 568.80,105.19 575.60,116.19 557.60,116.19" fill="#0e4429" stroke="#0d1117" stroke-width="0.7"/>
<polygon points="568.80,115.00 586.80,115.00 593.60,126.00 575.60,126.00" fill="#161b22" stroke="#0d1117" stroke-width="0.7"/>
<polygon points="604.80,105.19 611.60,116.19 611.60,126.00 604.80,115.00" fill="#072214"/>
<polygon points="593.60,116.19 611.60,116.19 611.60,126.00 593.60,126.00" fill="#092c1a"/>
<polygon points="586.80,105.19 604.80,105.19 611.60,116.19 593.60,116.19" fill="#0e4429" stroke="#0d1117" stroke-width="0.7"/>
<polygon points="622.80,108.81 629.60,119.81 629.60,126.00 622.80,115.00" fill="#072214"/>
<polygon points="611.60,119.81 629.60,119.81 629.60,126.00 611.60,126.00" fill="#092c1a"/>
<polygon points="604.80,108.81 622.80,108.81 629.60,119.81 611.60,119.81" fill="#0e4429" stroke="#0d1117" stroke-width="0.7"/>
<polygon points="622.80,115.00 640.80,115.00 647.60,126.00 629.60,126.00" fill="#161b22" stroke="#0d1117" stroke-width="0.7"/>
<polygon points="640.80,115.00 658.80,115.00 665.60,126.00 647.60,126.00" fill="#161b22" stroke="#0d1117" stroke-width="0.7"/>
<polygon points="658.80,115.00 676.80,115.00 683.60,126.00 665.60,126.00" fill="#161b22" stroke="#0d1117" stroke-width="0.7"/>
<polygon points="676.80,115.00 694.80,115.00 701.60,126.00 683.60,126.00" fill="#161b22" stroke="#0d1117" stroke-width="0.7"/>
<polygon points="694.80,115.00 712.80,115.00 719.60,126.00 701.60,126.00" fill="#161b22" stroke="#0d1117" stroke-width="0.7"/>
<polygon points="730.80,105.19 737.60,116.19 737.60,126.00 730.80,115.00" fill="#072214"/>
<polygon points="719.60,116.19 737.60,116.19 737.60,126.00 719.60,126.00" fill="#092c1a"/>
<polygon points="712.80,105.19 730.80,105.19 737.60,116.19 719.60,116.19" fill="#0e4429" stroke="#0d1117" stroke-width="0.7"/>
<polygon points="730.80,115.00 748.80,115.00 755.60,126.00 737.60,126.00" fill="#161b22" stroke="#0d1117" stroke-width="0.7"/>
<polygon points="766.80,108.81 773.60,119.81 773.60,126.00 766.80,115.00" fill="#072214"/>
<polygon points="755.60,119.81 773.60,119.81 773.60,126.00 755.60,126.00" fill="#092c1a"/>
<polygon points="748.80,108.81 766.80,108.81 773.60,119.81 755.60,119.81" fill="#0e4429" stroke="#0d1117" stroke-width="0.7"/>
<polygon points="766.80,115.00 784.80,115.00 791.60,126.00 773.60,126.00" fill="#161b22" stroke="#0d1117" stroke-width="0.7"/>
<polygon points="784.80,115.00 802.80,115.00 809.60,126.00 791.60,126.00" fill="#161b22" stroke="#0d1117" stroke-width="0.7"/>
<polygon points="802.80,115.00 820.80,115.00 827.60,126.00 809.60,126.00" fill="#161b22" stroke="#0d1117" stroke-width="0.7"/>
<polygon points="820.80,115.00 838.80,115.00 845.60,126.00 827.60,126.00" fill="#161b22" stroke="#0d1117" stroke-width="0.7"/>
<polygon points="838.80,115.00 856.80,115.00 863.60,126.00 845.60,126.00" fill="#161b22" stroke="#0d1117" stroke-width="0.7"/>
<polygon points="856.80,115.00 874.80,115.00 881.60,126.00 863.60,126.00" fill="#161b22" stroke="#0d1117" stroke-width="0.7"/>
<polygon points="874.80,115.00 892.80,115.00 899.60,126.00 881.60,126.00" fill="#161b22" stroke="#0d1117" stroke-width="0.7"/>
<polygon points="892.80,115.00 910.80,115.00 917.60,126.00 899.60,126.00" fill="#161b22" stroke="#0d1117" stroke-width="0.7"/>
<polygon points="910.80,115.00 928.80,115.00 935.60,126.00 917.60,126.00" fill="#161b22" stroke="#0d1117" stroke-width="0.7"/>
<polygon points="946.80,97.62 953.60,108.62 953.60,126.00 946.80,115.00" fill="#003619"/>
<polygon points="935.60,108.62 953.60,108.62 953.60,126.00 935.60,126.00" fill="#004620"/>
<polygon points="928.80,97.62 946.80,97.62 953.60,108.62 935.60,108.62" fill="#006d32" stroke="#0d1117" stroke-width="0.7"/>
<polygon points="964.80,105.19 971.60,116.19 971.60,126.00 964.80,115.00" fill="#072214"/>
<polygon points="953.60,116.19 971.60,116.19 971.60,126.00 953.60,126.00" fill="#092c1a"/>
<polygon points="946.80,105.19 964.80,105.19 971.60,116.19 953.60,116.19" fill="#0e4429" stroke="#0d1117" stroke-width="0.7"/>
<polygon points="964.80,115.00 982.80,115.00 989.60,126.00 971.60,126.00" fill="#161b22" stroke="#0d1117" stroke-width="0.7"/>
<polygon points="1000.80,108.81 1007.60,119.81 1007.60,126.00 1000.80,115.00" fill="#072214"/>
<polygon points="989.60,119.81 1007.60,119.81 1007.60,126.00 989.60,126.00" fill="#092c1a"/>
<polygon points="982.80,108.81 1000.80,108.81 1007.60,119.81 989.60,119.81" fill="#0e4429" stroke="#0d1117" stroke-width="0.7"/>
<polygon points="1000.80,115.00 1018.80,115.00 1025.60,126.00 1007.60,126.00" fill="#161b22" stroke="#0d1117" stroke-width="0.7"/>
<polyline points="56.80,87.25 74.80,87.25 81.60,98.25 99.60,98.25 117.60,98.25 135.60,92.06 153.60,85.87 171.60,98.25 189.60,98.25 182.80,87.25 200.80,87.25 218.80,87.25 236.80,87.25 254.80,87.25 248.00,76.25 266.00,76.25 284.00,76.25 302.00,76.25 320.00,76.25 338.00,76.25 356.00,76.25 374.00,76.25 367.20,65.25 385.20,65.25 403.20,65.25 421.20,65.25 439.20,65.25 457.20,65.25 475.20,65.25 493.20,65.25 486.40,54.25 504.40,54.25 522.40,54.25 540.40,54.25 558.40,54.25 576.40,54.25 594.40,54.25 612.40,54.25 630.40,54.25 648.40,54.25 666.40,54.25 684.40,54.25 702.40,54.25 720.40,54.25 738.40,54.25 756.40,54.25 763.20,65.25 770.00,76.25 788.00,76.25 806.00,76.25 824.00,76.25 842.00,76.25 860.00,76.25 878.00,76.25 896.00,76.25 914.00,76.25 932.00,76.25 950.00,70.06 956.80,87.25 974.80,87.25 992.80,87.25" fill="none" stroke="#CECECE" stroke-width="3.2" stroke-linecap="round" stroke-linejoin="round"/>
<circle cx="56.80" cy="87.25" r="3.8" fill="#f2cc60" stroke="#818181" stroke-width="1"/>
<circle cx="992.80" cy="87.25" r="3.8" fill="#f2cc60" stroke="#818181" stroke-width="1"/>
</svg>