<svg xmlns="http://www.w3.org/2000/svg" width="1103" height="152" viewBox="0 0 1103 152" role="img">
<rect width="1103" height="152" rx="12" fill="#0d1117"/>
<polygon points="22.00,52.00 36.00,52.00 43.00,62.00 29.00,62.00" fill="#161b22" stroke="#0d1117" stroke-width="0.65"/>
<polygon points="55.00,27.46 62.00,37.46 62.00,62.00 55.00,52.00" fill="#124f1f"/>
<polygon points="48.00,37.46 62.00,37.46 62.00,62.00 48.00,62.00" fill="#176628"/>
<polygon points="41.00,27.46 55.00,27.46 62.00,37.46 48.00,37.46" fill="#26a641" stroke="#0d1117" stroke-width="0.65"/>
<polygon points="60.00,52.00 74.00,52.00 81.00,62.00 67.00,62.00" fill="#161b22" stroke="#0d1117" stroke-width="0.65"/>
<polygon points="93.00,36.60 100.00,46.60 100.00,62.00 93.00,52.00" fill="#003418"/>
<polygon points="86.00,46.60 100.00,46.60 100.00,62.00 86.00,62.00" fill="#00431f"/>
<polygon points="79.00,36.60 93.00,36.60 100.00,46.60 86.00,46.60" fill="#006d32" stroke="#0d1117" stroke-width="0.65"/>
<polygon points="112.00,41.49 119.00,51.49 119.00,62.00 112.00,52.00" fill="#062013"/>
<polygon points="105.00,51.49 119.00,51.49 119.00,62.00 105.00,62.00" fill="#082a19"/>
<polygon points="98.00,41.49 112.00,41.49 119.00,51.49 105.00,51.49" fill="#0e4429" stroke="#0d1117" stroke-width="0.65"/>
<polygon points="131.00,45.37 138.00,55.37 138.00,62.00 131.00,52.00" fill="#062013"/>
<polygon points="124.00,55.37 138.00,55.37 138.00,62.00 124.00,62.00" fill="#082a19"/>
<polygon points="117.00,45.37 131.00,45.37 138.00,55.37 124.00,55.37" fill="#0e4429" stroke="#0d1117" stroke-width="0.65"/>
<polygon points="150.00,28.22 157.00,38.22 157.00,62.00 150.00,52.00" fill="#124f1f"/>
<polygon points="143.00,38.22 157.00,38.22 157.00,62.00 143.00,62.00" fill="#176628"/>
<polygon points="136.00,28.22 150.00,28.22 157.00,38.22 143.00,38.22" fill="#26a641" stroke="#0d1117" stroke-width="0.65"/>
<polygon points="169.00,38.74 176.00,48.74 176.00,62.00 169.00,52.00" fill="#003418"/>
<polygon points="162.00,48.74 176.00,48.74 176.00,62.00 162.00,62.00" fill="#00431f"/>
<polygon points="155.00,38.74 169.00,38.74 176.00,48.74 162.00,48.74" fill="#006d32" stroke="#0d1117" stroke-width="0.65"/>
<polygon points="174.00,52.00 188.00,52.00 195.00,62.00 181.00,62.00" fill="#161b22" stroke="#0d1117" stroke-width="0.65"/>
<polygon points="193.00,52.00 207.00,52.00 214.00,62.00 200.00,62.00" fill="#161b22" stroke="#0d1117" stroke-width="0.65"/>
<polygon points="226.00,45.37 233.00,55.37 233.00,62.00 226.00,52.00" fill="#062013"/>
<polygon points="219.00,55.37 233.00,55.37 233.00,62.00 219.00,62.00" fill="#082a19"/>
<polygon points="212.00,45.37 226.00,45.37 233.00,55.37 219.00,55.37" fill="#0e4429" stroke="#0d1117" stroke-width="0.65"/>
<polygon points="231.00,52.00 245.00,52.00 252.00,62.00 238.00,62.00" fill="#161b22" stroke="#0d1117" stroke-width="0.65"/>
<polygon points="250.00,52.00 264.00,52.00 271.00,62.00 257.00,62.00" fill="#161b22" stroke="#0d1117" stroke-width="0.65"/>
<polygon points="269.00,52.00 283.00,52.00 290.00,62.00 276.00,62.00" fill="#161b22" stroke="#0d1117" stroke-width="0.65"/>
<polygon points="288.00,52.00 302.00,52.00 309.00,62.00 295.00,62.00" fill="#161b22" stroke="#0d1117" stroke-width="0.65"/>
<polygon points="307.00,52.00 321.00,52.00 328.00,62.00 314.00,62.00" fill="#161b22" stroke="#0d1117" stroke-width="0.65"/>
<polygon points="326.00,52.00 340.00,52.00 347.00,62.00 333.00,62.00" fill="#161b22" stroke="#0d1117" stroke-width="0.65"/>
<polygon points="345.00,52.00 359.00,52.00 366.00,62.00 352.00,62.00" fill="#161b22" stroke="#0d1117" stroke-width="0.65"/>
<polygon points="364.00,52.00 378.00,52.00 385.00,62.00 371.00,62.00" fill="#161b22" stroke="#0d1117" stroke-width="0.65"/>
<polygon points="397.00,38.74 404.00,48.74 404.00,62.00 397.00,52.00" fill="#003418"/>
<polygon points="390.00,48.74 404.00,48.74 404.00,62.00 390.00,62.00" fill="#00431f"/>
<polygon points="383.00,38.74 397.00,38.74 404.00,48.74 390.00,48.74" fill="#006d32" stroke="#0d1117" stroke-width="0.65"/>
<polygon points="402.00,52.00 416.00,52.00 423.00,62.00 409.00,62.00" fill="#161b22" stroke="#0d1117" stroke-width="0.65"/>
<polygon points="421.00,52.00 435.00,52.00 442.00,62.00 428.00,62.00" fill="#161b22" stroke="#0d1117" stroke-width="0.65"/>
<polygon points="440.00,52.00 454.00,52.00 461.00,62.00 447.00,62.00" fill="#161b22" stroke="#0d1117" stroke-width="0.65"/>
<polygon points="459.00,52.00 473.00,52.00 480.00,62.00 466.00,62.00" fill="#161b22" stroke="#0d1117" stroke-width="0.65"/>
<polygon points="478.00,52.00 492.00,52.00 499.00,62.00 485.00,62.00" fill="#161b22" stroke="#0d1117" stroke-width="0.65"/>
<polygon points="497.00,52.00 511.00,52.00 518.00,62.00 504.00,62.00" fill="#161b22" stroke="#0d1117" stroke-width="0.65"/>
<polygon points="516.00,52.00 530.00,52.00 537.00,62.00 523.00,62.00" fill="#161b22" stroke="#0d1117" stroke-width="0.65"/>
<polygon points="535.00,52.00 549.00,52.00 556.00,62.00 542.00,62.00" fill="#161b22" stroke="#0d1117" stroke-width="0.65"/>
<polygon points="554.00,52.00 568.00,52.00 575.00,62.00 561.00,62.00" fill="#161b22" stroke="#0d1117" stroke-width="0.65"/>
<polygon points="573.00,52.00 587.00,52.00 594.00,62.00 580.00,62.00" fill="#161b22" stroke="#0d1117" stroke-width="0.65"/>
<polygon points="592.00,52.00 606.00,52.00 613.00,62.00 599.00,62.00" fill="#161b22" stroke="#0d1117" stroke-width="0.65"/>
<polygon points="611.00,52.00 625.00,52.00 632.00,62.00 618.00,62.00" fill="#161b22" stroke="#0d1117" stroke-width="0.65"/>
<polygon points="630.00,52.00 644.00,52.00 651.00,62.00 637.00,62.00" fill="#161b22" stroke="#0d1117" stroke-width="0.65"/>
<polygon points="649.00,52.00 663.00,52.00 670.00,62.00 656.00,62.00" fill="#161b22" stroke="#0d1117" stroke-width="0.65"/>
<polygon points="668.00,52.00 682.00,52.00 689.00,62.00 675.00,62.00" fill="#161b22" stroke="#0d1117" stroke-width="0.65"/>
<polygon points="687.00,52.00 701.00,52.00 708.00,62.00 694.00,62.00" fill="#161b22" stroke="#0d1117" stroke-width="0.65"/>
<polygon points="706.00,52.00 720.00,52.00 727.00,62.00 713.00,62.00" fill="#161b22" stroke="#0d1117" stroke-width="0.65"/>
<polygon points="725.00,52.00 739.00,52.00 746.00,62.00 732.00,62.00" fill="#161b22" stroke="#0d1117" stroke-width="0.65"/>
<polygon points="744.00,52.00 758.00,52.00 765.00,62.00 751.00,62.00" fill="#161b22" stroke="#0d1117" stroke-width="0.65"/>
<polygon points="763.00,52.00 777.00,52.00 784.00,62.00 770.00,62.00" fill="#161b22" stroke="#0d1117" stroke-width="0.65"/>
<polygon points="782.00,52.00 796.00,52.00 803.00,62.00 789.00,62.00" fill="#161b22" stroke="#0d1117" stroke-width="0.65"/>
<polygon points="801.00,52.00 815.00,52.00 822.00,62.00 808.00,62.00" fill="#161b22" stroke="#0d1117" stroke-width="0.65"/>
<polygon points="820.00,52.00 834.00,52.00 841.00,62.00 827.00,62.00" fill="#161b22" stroke="#0d1117" stroke-width="0.65"/>
<polygon points="839.00,52.00 853.00,52.00 860.00,62.00 846.00,62.00" fill="#161b22" stroke="#0d1117" stroke-width="0.65"/>
<polygon points="858.00,52.00 872.00,52.00 879.00,62.00 865.00,62.00" fill="#161b22" stroke="#0d1117" stroke-width="0.65"/>
<polygon points="877.00,52.00 891.00,52.00 898.00,62.00 884.00,62.00" fill="#161b22" stroke="#0d1117" stroke-width="0.65"/>
<polygon points="896.00,52.00 910.00,52.00 917.00,62.00 903.00,62.00" fill="#161b22" stroke="#0d1117" stroke-width="0.65"/>
<polygon points="915.00,52.00 929.00,52.00 936.00,62.00 922.00,62.00" fill="#161b22" stroke="#0d1117" stroke-width="0.65"/>
<polygon points="934.00,52.00 948.00,52.00 955.00,62.00 941.00,62.00" fill="#161b22" stroke="#0d1117" stroke-width="0.65"/>
<polygon points="953.00,52.00 967.00,52.00 974.00,62.00 960.00,62.00" fill="#161b22" stroke="#0d1117" stroke-width="0.65"/>
<polygon points="986.00,29.97 993.00,39.97 993.00,62.00 986.00,52.00" fill="#124f1f"/>
<polygon points="979.00,39.97 993.00,39.97 993.00,62.00 979.00,62.00" fill="#176628"/>
<polygon points="972.00,29.97 986.00,29.97 993.00,39.97 979.00,39.97" fill="#26a641" stroke="#0d1117" stroke-width="0.65"/>
<polygon points="991.00,52.00 1005.00,52.00 1012.00,62.00 998.00,62.00" fill="#161b22" stroke="#0d1117" stroke-width="0.65"/>
<polygon points="1010.00,52.00 1024.00,52.00 1031.00,62.00 1017.00,62.00" fill="#161b22" stroke="#0d1117" stroke-width="0.65"/>
<polygon points="29.00,62.00 43.00,62.00 50.00,72.00 36.00,72.00" fill="#161b22" stroke="#0d1117" stroke-width="0.65"/>
<polygon points="62.00,48.74 69.00,58.74 69.00,72.00 62.00,62.00" fill="#003418"/>
<polygon points="55.00,58.74 69.00,58.74 69.00,72.00 55.00,72.00" fill="#00431f"/>
<polygon points="48.00,48.74 62.00,48.74 69.00,58.74 55.00,58.74" fill="#006d32" stroke="#0d1117" stroke-width="0.65"/>
<polygon points="67.00,62.00 81.00,62.00 88.00,72.00 74.00,72.00" fill="#161b22" stroke="#0d1117" stroke-width="0.65"/>
<polygon points="86.00,62.00 100.00,62.00 107.00,72.00 93.00,72.00" fill="#161b22" stroke="#0d1117" stroke-width="0.65"/>
<polygon points="119.00,42.10 126.00,52.10 126.00,72.00 119.00,62.00" fill="#124f1f"/>
<polygon points="112.00,52.10 126.00,52.10 126.00,72.00 112.00,72.00" fill="#176628"/>
<polygon points="105.00,42.10 119.00,42.10 126.00,52.10 112.00,52.10" fill="#26a641" stroke="#0d1117" stroke-width="0.65"/>
<polygon points="138.00,44.86 145.00,54.86 145.00,72.00 138.00,62.00" fill="#003418"/>
<polygon points="131.00,54.86 145.00,54.86 145.00,72.00 131.00,72.00" fill="#00431f"/>
<polygon points="124.00,44.86 138.00,44.86 145.00,54.86 131.00,54.86" fill="#006d32" stroke="#0d1117" stroke-width="0.65"/>
<polygon points="157.00,43.38 164.00,53.38 164.00,72.00 157.00,62.00" fill="#003418"/>
<polygon points="150.00,53.38 164.00,53.38 164.00,72.00 150.00,72.00" fill="#00431f"/>
<polygon points="143.00,43.38 157.00,43.38 164.00,53.38 150.00,53.38" fill="#006d32" stroke="#0d1117" stroke-width="0.65"/>
<polygon points="162.00,62.00 176.00,62.00 183.00,72.00 169.00,72.00" fill="#161b22" stroke="#0d1117" stroke-width="0.65"/>
<polygon points="181.00,62.00 195.00,62.00 202.00,72.00 188.00,72.00" fill="#161b22" stroke="#0d1117" stroke-width="0.65"/>
<polygon points="214.00,55.37 221.00,65.37 221.00,72.00 214.00,62.00" fill="#062013"/>
<polygon points="207.00,65.37 221.00,65.37 221.00,72.00 207.00,72.00" fill="#082a19"/>
<polygon points="200.00,55.37 214.00,55.37 221.00,65.37 207.00,65.37" fill="#0e4429" stroke="#0d1117" stroke-width="0.65"/>
<polygon points="233.00,55.37 240.00,65.37 240.00,72.00 233.00,62.00" fill="#062013"/>
<polygon points="226.00,65.37 240.00,65.37 240.00,72.00 226.00,72.00" fill="#082a19"/>
<polygon points="219.00,55.37 233.00,55.37 240.00,65.37 226.00,65.37" fill="#0e4429" stroke="#0d1117" stroke-width="0.65"/>
<polygon points="238.00,62.00 252.00,62.00 259.00,72.00 245.00,72.00" fill="#161b22" stroke="#0d1117" stroke-width="0.65"/>
<polygon points="271.00,46.60 278.00,56.60 278.00,72.00 271.00,62.00" fill="#003418"/>
<polygon points="264.00,56.60 278.00,56.60 278.00,72.00 264.00,72.00" fill="#00431f"/>
<polygon points="257.00,46.60 271.00,46.60 278.00,56.60 264.00,56.60" fill="#006d32" stroke="#0d1117" stroke-width="0.65"/>
<polygon points="290.00,55.37 297.00,65.37 297.00,72.00 290.00,62.00" fill="#062013"/>
<polygon points="283.00,65.37 297.00,65.37 297.00,72.00 283.00,72.00" fill="#082a19"/>
<polygon points="276.00,55.37 290.00,55.37 297.00,65.37 283.00,65.37" fill="#0e4429" stroke="#0d1117" stroke-width="0.65"/>
<polygon points="295.00,62.00 309.00,62.00 316.00,72.00 302.00,72.00" fill="#161b22" stroke="#0d1117" stroke-width="0.65"/>
<polygon points="314.00,62.00 328.00,62.00 335.00,72.00 321.00,72.00" fill="#161b22" stroke="#0d1117" stroke-width="0.65"/>
<polygon points="333.00,62.00 347.00,62.00 354.00,72.00 340.00,72.00" fill="#161b22" stroke="#0d1117" stroke-width="0.65"/>
<polygon points="366.00,55.37 373.00,65.37 373.00,72.00 366.00,62.00" fill="#062013"/>
<polygon points="359.00,65.37 373.00,65.37 373.00,72.00 359.00,72.00" fill="#082a19"/>
<polygon points="352.00,55.37 366.00,55.37 373.00,65.37 359.00,65.37" fill="#0e4429" stroke="#0d1117" stroke-width="0.65"/>
<polygon points="371.00,62.00 385.00,62.00 392.00,72.00 378.00,72.00" fill="#161b22" stroke="#0d1117" stroke-width="0.65"/>
<polygon points="390.00,62.00 404.00,62.00 411.00,72.00 397.00,72.00" fill="#161b22" stroke="#0d1117" stroke-width="0.65"/>
<polygon points="409.00,62.00 423.00,62.00 430.00,72.00 416.00,72.00" fill="#161b22" stroke="#0d1117" stroke-width="0.65"/>
<polygon points="428.00,62.00 442.00,62.00 449.00,72.00 435.00,72.00" fill="#161b22" stroke="#0d1117" stroke-width="0.65"/>
<polygon points="447.00,62.00 461.00,62.00 468.00,72.00 454.00,72.00" fill="#161b22" stroke="#0d1117" stroke-width="0.65"/>
<polygon points="466.00,62.00 480.00,62.00 487.00,72.00 473.00,72.00" fill="#161b22" stroke="#0d1117" stroke-width="0.65"/>
<polygon points="485.00,62.00 499.00,62.00 506.00,72.00 492.00,72.00" fill="#161b22" stroke="#0d1117" stroke-width="0.65"/>
<polygon points="504.00,62.00 518.00,62.00 525.00,72.00 511.00,72.00" fill="#161b22" stroke="#0d1117" stroke-width="0.65"/>
<polygon points="537.00,46.60 544.00,56.60 544.00,72.00 537.00,62.00" fill="#003418"/>
<polygon points="530.00,56.60 544.00,56.60 544.00,72.00 530.00,72.00" fill="#00431f"/>
<polygon points="523.00,46.60 537.00,46.60 544.00,56.60 530.00,56.60" fill="#006d32" stroke="#0d1117" stroke-width="0.65"/>
<polygon points="556.00,55.37 563.00,65.37 563.00,72.00 556.00,62.00" fill="#062013"/>
<polygon points="549.00,65.37 563.00,65.37 563.00,72.00 549.00,72.00" fill="#082a19"/>
<polygon points="542.00,55.37 556.00,55.37 563.00,65.37 549.00,65.37" fill="#0e4429" stroke="#0d1117" stroke-width="0.65"/>
<polygon points="575.00,55.37 582.00,65.37 582.00,72.00 575.00,62.00" fill="#062013"/>
<polygon points="568.00,65.37 582.00,65.37 582.00,72.00 568.00,72.00" fill="#082a19"/>
<polygon points="561.00,55.37 575.00,55.37 582.00,65.37 568.00,65.37" fill="#0e4429" stroke="#0d1117" stroke-width="0.65"/>
<polygon points="580.00,62.00 594.00,62.00 601.00,72.00 587.00,72.00" fill="#161b22" stroke="#0d1117" stroke-width="0.65"/>
<polygon points="613.00,55.37 620.00,65.37 620.00,72.00 613.00,62.00" fill="#062013"/>
<polygon points="606.00,65.37 620.00,65.37 620.00,72.00 606.00,72.00" fill="#082a19"/>
<polygon points="599.00,55.37 613.00,55.37 620.00,65.37 606.00,65.37" fill="#0e4429" stroke="#0d1117" stroke-width="0.65"/>
<polygon points="618.00,62.00 632.00,62.00 639.00,72.00 625.00,72.00" fill="#161b22" stroke="#0d1117" stroke-width="0.65"/>
<polygon points="651.00,55.37 658.00,65.37 658.00,72.00 651.00,62.00" fill="#062013"/>
<polygon points="644.00,65.37 658.00,65.37 658.00,72.00 644.00,72.00" fill="#082a19"/>
<polygon points="637.00,55.37 651.00,55.37 658.00,65.37 644.00,65.37" fill="#0e4429" stroke="#0d1117" stroke-width="0.65"/>
<polygon points="656.00,62.00 670.00,62.00 677.00,72.00 663.00,72.00" fill="#161b22" stroke="#0d1117" stroke-width="0.65"/>
<polygon points="675.00,62.00 689.00,62.00 696.00,72.00 682.00,72.00" fill="#161b22" stroke="#0d1117" stroke-width="0.65"/>
<polygon points="694.00,62.00 708.00,62.00 715.00,72.00 701.00,72.00" fill="#161b22" stroke="#0d1117" stroke-width="0.65"/>
<polygon points="713.00,62.00 727.00,62.00 734.00,72.00 720.00,72.00" fill="#161b22" stroke="#0d1117" stroke-width="0.65"/>
<polygon points="746.00,55.37 753.00,65.37 753.00,72.00 746.00,62.00" fill="#062013"/>
<polygon points="739.00,65.37 753.00,65.37 753.00,72.00 739.00,72.00" fill="#082a19"/>
<polygon points="732.00,55.37 746.00,55.37 753.00,65.37 739.00,65.37" fill="#0e4429" stroke="#0d1117" stroke-width="0.65"/>
<polygon points="765.00,46.60 772.00,56.60 772.00,72.00 765.00,62.00" fill="#003418"/>
<polygon points="758.00,56.60 772.00,56.60 772.00,72.00 758.00,72.00" fill="#00431f"/>
<polygon points="751.00,46.60 765.00,46.60 772.00,56.60 758.00,56.60" fill="#006d32" stroke="#0d1117" stroke-width="0.65"/>
<polygon points="784.00,55.37 791.00,65.37 791.00,72.00 784.00,62.00" fill="#062013"/>
<polygon points="777.00,65.37 791.00,65.37 791.00,72.00 777.00,72.00" fill="#082a19"/>
<polygon points="770.00,55.37 784.00,55.37 791.00,65.37 777.00,65.37" fill="#0e4429" stroke="#0d1117" stroke-width="0.65"/>
<polygon points="789.00,62.00 803.00,62.00 810.00,72.00 796.00,72.00" fill="#161b22" stroke="#0d1117" stroke-width="0.65"/>
<polygon points="808.00,62.00 822.00,62.00 829.00,72.00 815.00,72.00" fill="#161b22" stroke="#0d1117" stroke-width="0.65"/>
<polygon points="827.00,62.00 841.00,62.00 848.00,72.00 834.00,72.00" fill="#161b22" stroke="#0d1117" stroke-width="0.65"/>
<polygon points="846.00,62.00 860.00,62.00 867.00,72.00 853.00,72.00" fill="#161b22" stroke="#0d1117" stroke-width="0.65"/>
<polygon points="865.00,62.00 879.00,62.00 886.00,72.00 872.00,72.00" fill="#161b22" stroke="#0d1117" stroke-width="0.65"/>
<polygon points="884.00,62.00 898.00,62.00 905.00,72.00 891.00,72.00" fill="#161b22" stroke="#0d1117" stroke-width="0.65"/>
<polygon points="903.00,62.00 917.00,62.00 924.00,72.00 910.00,72.00" fill="#161b22" stroke="#0d1117" stroke-width="0.65"/>
<polygon points="922.00,62.00 936.00,62.00 943.00,72.00 929.00,72.00" fill="#161b22" stroke="#0d1117" stroke-width="0.65"/>
<polygon points="941.00,62.00 955.00,62.00 962.00,72.00 948.00,72.00" fill="#161b22" stroke="#0d1117" stroke-width="0.65"/>
<polygon points="960.00,62.00 974.00,62.00 981.00,72.00 967.00,72.00" fill="#161b22" stroke="#0d1117" stroke-width="0.65"/>
<polygon points="993.00,55.37 1000.00,65.37 1000.00,72.00 993.00,62.00" fill="#062013"/>
<polygon points="986.00,65.37 1000.00,65.37 1000.00,72.00 986.00,72.00" fill="#082a19"/>
<polygon points="979.00,55.37 993.00,55.37 1000.00,65.37 986.00,65.37" fill="#0e4429" stroke="#0d1117" stroke-width="0.65"/>
<polygon points="998.00,62.00 1012.00,62.00 1019.00,72.00 1005.00,72.00" fill="#161b22" stroke="#0d1117" stroke-width="0.65"/>
<polygon points="1031.00,51.49 1038.00,61.49 1038.00,72.00 1031.00,62.00" fill="#062013"/>
<polygon points="1024.00,61.49 1038.00,61.49 1038.00,72.00 1024.00,72.00" fill="#082a19"/>
<polygon points="1017.00,51.49 1031.00,51.49 1038.00,61.49 1024.00,61.49" fill="#0e4429" stroke="#0d1117" stroke-width="0.65"/>
<polygon points="36.00,72.00 50.00,72.00 57.00,82.00 43.00,82.00" fill="#161b22" stroke="#0d1117" stroke-width="0.65"/>
<polygon points="55.00,72.00 69.00,72.00 76.00,82.00 62.00,82.00" fill="#161b22" stroke="#0d1117" stroke-width="0.65"/>
<polygon points="74.00,72.00 88.00,72.00 95.00,82.00 81.00,82.00" fill="#161b22" stroke="#0d1117" stroke-width="0.65"/>
<polygon points="93.00,72.00 107.00,72.00 114.00,82.00 100.00,82.00" fill="#161b22" stroke="#0d1117" stroke-width="0.65"/>
<polygon points="126.00,58.74 133.00,68.74 133.00,82.00 126.00,72.00" fill="#003418"/>
<polygon points="119.00,68.74 133.00,68.74 133.00,82.00 119.00,82.00" fill="#00431f"/>
<polygon points="112.00,58.74 126.00,58.74 133.00,68.74 119.00,68.74" fill="#006d32" stroke="#0d1117" stroke-width="0.65"/>
<polygon points="145.00,54.86 152.00,64.86 152.00,82.00 145.00,72.00" fill="#003418"/>
<polygon points="138.00,64.86 152.00,64.86 152.00,82.00 138.00,82.00" fill="#00431f"/>
<polygon points="131.00,54.86 145.00,54.86 152.00,64.86 138.00,64.86" fill="#006d32" stroke="#0d1117" stroke-width="0.65"/>
<polygon points="164.00,56.60 171.00,66.60 171.00,82.00 164.00,72.00" fill="#003418"/>
<polygon points="157.00,66.60 171.00,66.60 171.00,82.00 157.00,82.00" fill="#00431f"/>
<polygon points="150.00,56.60 164.00,56.60 171.00,66.60 157.00,66.60" fill="#006d32" stroke="#0d1117" stroke-width="0.65"/>
<polygon points="169.00,72.00 183.00,72.00 190.00,82.00 176.00,82.00" fill="#161b22" stroke="#0d1117" stroke-width="0.65"/>
<polygon points="202.00,61.49 209.00,71.49 209.00,82.00 202.00,72.00" fill="#062013"/>
<polygon points="195.00,71.49 209.00,71.49 209.00,82.00 195.00,82.00" fill="#082a19"/>
<polygon points="188.00,61.49 202.00,61.49 209.00,71.49 195.00,71.49" fill="#0e4429" stroke="#0d1117" stroke-width="0.65"/>
<polygon points="221.00,65.37 228.00,75.37 228.00,82.00 221.00,72.00" fill="#062013"/>
<polygon points="214.00,75.37 228.00,75.37 228.00,82.00 214.00,82.00" fill="#082a19"/>
<polygon points="207.00,65.37 221.00,65.37 228.00,75.37 214.00,75.37" fill="#0e4429" stroke="#0d1117" stroke-width="0.65"/>
<polygon points="226.00,72.00 240.00,72.00 247.00,82.00 233.00,82.00" fill="#161b22" stroke="#0d1117" stroke-width="0.65"/>
<polygon points="245.00,72.00 259.00,72.00 266.00,82.00 252.00,82.00" fill="#161b22" stroke="#0d1117" stroke-width="0.65"/>
<polygon points="264.00,72.00 278.00,72.00 285.00,82.00 271.00,82.00" fill="#161b22" stroke="#0d1117" stroke-width="0.65"/>
<polygon points="283.00,72.00 297.00,72.00 304.00,82.00 290.00,82.00" fill="#161b22" stroke="#0d1117" stroke-width="0.65"/>
<polygon points="302.00,72.00 316.00,72.00 323.00,82.00 309.00,82.00" fill="#161b22" stroke="#0d1117" stroke-width="0.65"/>
<polygon points="321.00,72.00 335.00,72.00 342.00,82.00 328.00,82.00" fill="#161b22" stroke="#0d1117" stroke-width="0.65"/>
<polygon points="340.00,72.00 354.00,72.00 361.00,82.00 347.00,82.00" fill="#161b22" stroke="#0d1117" stroke-width="0.65"/>
<polygon points="359.00,72.00 373.00,72.00 380.00,82.00 366.00,82.00" fill="#161b22" stroke="#0d1117" stroke-width="0.65"/>
<polygon points="378.00,72.00 392.00,72.00 399.00,82.00 385.00,82.00" fill="#161b22" stroke="#0d1117" stroke-width="0.65"/>
<polygon points="411.00,49.06 418.00,59.06 418.00,82.00 411.00,72.00" fill="#124f1f"/>
<polygon points="404.00,59.06 418.00,59.06 418.00,82.00 404.00,82.00" fill="#176628"/>
<polygon points="397.00,49.06 411.00,49.06 418.00,59.06 404.00,59.06" fill="#26a641" stroke="#0d1117" stroke-width="0.65"/>
<polygon points="416.00,72.00 430.00,72.00 437.00,82.00 423.00,82.00" fill="#161b22" stroke="#0d1117" stroke-width="0.65"/>
<polygon points="435.00,72.00 449.00,72.00 456.00,82.00 442.00,82.00" fill="#161b22" stroke="#0d1117" stroke-width="0.65"/>
<polygon points="468.00,65.37 475.00,75.37 475.00,82.00 468.00,72.00" fill="#062013"/>
<polygon points="461.00,75.37 475.00,75.37 475.00,82.00 461.00,82.00" fill="#082a19"/>
<polygon points="454.00,65.37 468.00,65.37 475.00,75.37 461.00,75.37" fill="#0e4429" stroke="#0d1117" stroke-width="0.65"/>
<polygon points="473.00,72.00 487.00,72.00 494.00,82.00 480.00,82.00" fill="#161b22" stroke="#0d1117" stroke-width="0.65"/>
<polygon points="492.00,72.00 506.00,72.00 513.00,82.00 499.00,82.00" fill="#161b22" stroke="#0d1117" stroke-width="0.65"/>
<polygon points="525.00,61.49 532.00,71.49 532.00,82.00 525.00,72.00" fill="#062013"/>
<polygon points="518.00,71.49 532.00,71.49 532.00,82.00 518.00,82.00" fill="#082a19"/>
<polygon points="511.00,61.49 525.00,61.49 532.00,71.49 518.00,71.49" fill="#0e4429" stroke="#0d1117" stroke-width="0.65"/>
<polygon points="530.00,72.00 544.00,72.00 551.00,82.00 537.00,82.00" fill="#161b22" stroke="#0d1117" stroke-width="0.65"/>
<polygon points="563.00,65.37 570.00,75.37 570.00,82.00 563.00,72.00" fill="#062013"/>
<polygon points="556.00,75.37 570.00,75.37 570.00,82.00 556.00,82.00" fill="#082a19"/>
<polygon points="549.00,65.37 563.00,65.37 570.00,75.37 556.00,75.37" fill="#0e4429" stroke="#0d1117" stroke-width="0.65"/>
<polygon points="582.00,61.49 589.00,71.49 589.00,82.00 582.00,72.00" fill="#062013"/>
<polygon points="575.00,71.49 589.00,71.49 589.00,82.00 575.00,82.00" fill="#082a19"/>
<polygon points="568.00,61.49 582.00,61.49 589.00,71.49 575.00,71.49" fill="#0e4429" stroke="#0d1117" stroke-width="0.65"/>
<polygon points="587.00,72.00 601.00,72.00 608.00,82.00 594.00,82.00" fill="#161b22" stroke="#0d1117" stroke-width="0.65"/>
<polygon points="606.00,72.00 620.00,72.00 627.00,82.00 613.00,82.00" fill="#161b22" stroke="#0d1117" stroke-width="0.65"/>
<polygon points="639.00,65.37 646.00,75.37 646.00,82.00 639.00,72.00" fill="#062013"/>
<polygon points="632.00,75.37 646.00,75.37 646.00,82.00 632.00,82.00" fill="#082a19"/>
<polygon points="625.00,65.37 639.00,65.37 646.00,75.37 632.00,75.37" fill="#0e4429" stroke="#0d1117" stroke-width="0.65"/>
<polygon points="644.00,72.00 658.00,72.00 665.00,82.00 651.00,82.00" fill="#161b22" stroke="#0d1117" stroke-width="0.65"/>
<polygon points="663.00,72.00 677.00,72.00 684.00,82.00 670.00,82.00" fill="#161b22" stroke="#0d1117" stroke-width="0.65"/>
<polygon points="682.00,72.00 696.00,72.00 703.00,82.00 689.00,82.00" fill="#161b22" stroke="#0d1117" stroke-width="0.65"/>
<polygon points="701.00,72.00 715.00,72.00 722.00,82.00 708.00,82.00" fill="#161b22" stroke="#0d1117" stroke-width="0.65"/>
<polygon points="720.00,72.00 734.00,72.00 741.00,82.00 727.00,82.00" fill="#161b22" stroke="#0d1117" stroke-width="0.65"/>
<polygon points="753.00,65.37 760.00,75.37 760.00,82.00 753.00,72.00" fill="#062013"/>
<polygon points="746.00,75.37 760.00,75.37 760.00,82.00 746.00,82.00" fill="#082a19"/>
<polygon points="739.00,65.37 753.00,65.37 760.00,75.37 746.00,75.37" fill="#0e4429" stroke="#0d1117" stroke-width="0.65"/>
<polygon points="758.00,72.00 772.00,72.00 779.00,82.00 765.00,82.00" fill="#161b22" stroke="#0d1117" stroke-width="0.65"/>
<polygon points="777.00,72.00 791.00,72.00 798.00,82.00 784.00,82.00" fill="#161b22" stroke="#0d1117" stroke-width="0.65"/>
<polygon points="796.00,72.00 810.00,72.00 817.00,82.00 803.00,82.00" fill="#161b22" stroke="#0d1117" stroke-width="0.65"/>
<polygon points="815.00,72.00 829.00,72.00 836.00,82.00 822.00,82.00" fill="#161b22" stroke="#0d1117" stroke-width="0.65"/>
<polygon points="834.00,72.00 848.00,72.00 855.00,82.00 841.00,82.00" fill="#161b22" stroke="#0d1117" stroke-width="0.65"/>
<polygon points="853.00,72.00 867.00,72.00 874.00,82.00 860.00,82.00" fill="#161b22" stroke="#0d1117" stroke-width="0.65"/>
<polygon points="872.00,72.00 886.00,72.00 893.00,82.00 879.00,82.00" fill="#161b22" stroke="#0d1117" stroke-width="0.65"/>
<polygon points="891.00,72.00 905.00,72.00 912.00,82.00 898.00,82.00" fill="#161b22" stroke="#0d1117" stroke-width="0.65"/>
<polygon points="910.00,72.00 924.00,72.00 931.00,82.00 917.00,82.00" fill="#161b22" stroke="#0d1117" stroke-width="0.65"/>
<polygon points="929.00,72.00 943.00,72.00 950.00,82.00 936.00,82.00" fill="#161b22" stroke="#0d1117" stroke-width="0.65"/>
<polygon points="948.00,72.00 962.00,72.00 969.00,82.00 955.00,82.00" fill="#161b22" stroke="#0d1117" stroke-width="0.65"/>
<polygon points="967.00,72.00 981.00,72.00 988.00,82.00 974.00,82.00" fill="#161b22" stroke="#0d1117" stroke-width="0.65"/>
<polygon points="1000.00,65.37 1007.00,75.37 1007.00,82.00 1000.00,72.00" fill="#062013"/>
<polygon points="993.00,75.37 1007.00,75.37 1007.00,82.00 993.00,82.00" fill="#082a19"/>
<polygon points="986.00,65.37 1000.00,65.37 1007.00,75.37 993.00,75.37" fill="#0e4429" stroke="#0d1117" stroke-width="0.65"/>
<polygon points="1019.00,65.37 1026.00,75.37 1026.00,82.00 1019.00,72.00" fill="#062013"/>
<polygon points="1012.00,75.37 1026.00,75.37 1026.00,82.00 1012.00,82.00" fill="#082a19"/>
<polygon points="1005.00,65.37 1019.00,65.37 1026.00,75.37 1012.00,75.37" fill="#0e4429" stroke="#0d1117" stroke-width="0.65"/>
<polygon points="1024.00,72.00 1038.00,72.00 1045.00,82.00 1031.00,82.00" fill="#161b22" stroke="#0d1117" stroke-width="0.65"/>
<polygon points="43.00,82.00 57.00,82.00 64.00,92.00 50.00,92.00" fill="#161b22" stroke="#0d1117" stroke-width="0.65"/>
<polygon points="62.00,82.00 76.00,82.00 83.00,92.00 69.00,92.00" fill="#161b22" stroke="#0d1117" stroke-width="0.65"/>
<polygon points="95.00,75.37 102.00,85.37 102.00,92.00 95.00,82.00" fill="#062013"/>
<polygon points="88.00,85.37 102.00,85.37 102.00,92.00 88.00,92.00" fill="#082a19"/>
<polygon points="81.00,75.37 95.00,75.37 102.00,85.37 88.00,85.37" fill="#0e4429" stroke="#0d1117" stroke-width="0.65"/>
<polygon points="100.00,82.00 114.00,82.00 121.00,92.00 107.00,92.00" fill="#161b22" stroke="#0d1117" stroke-width="0.65"/>
<polygon points="133.00,75.37 140.00,85.37 140.00,92.00 133.00,82.00" fill="#062013"/>
<polygon points="126.00,85.37 140.00,85.37 140.00,92.00 126.00,92.00" fill="#082a19"/>
<polygon points="119.00,75.37 133.00,75.37 140.00,85.37 126.00,85.37" fill="#0e4429" stroke="#0d1117" stroke-width="0.65"/>
<polygon points="138.00,82.00 152.00,82.00 159.00,92.00 145.00,92.00" fill="#161b22" stroke="#0d1117" stroke-width="0.65"/>
<polygon points="171.00,66.60 178.00,76.60 178.00,92.00 171.00,82.00" fill="#003418"/>
<polygon points="164.00,76.60 178.00,76.60 178.00,92.00 164.00,92.00" fill="#00431f"/>
<polygon points="157.00,66.60 171.00,66.60 178.00,76.60 164.00,76.60" fill="#006d32" stroke="#0d1117" stroke-width="0.65"/>
<polygon points="176.00,82.00 190.00,82.00 197.00,92.00 183.00,92.00" fill="#161b22" stroke="#0d1117" stroke-width="0.65"/>
<polygon points="195.00,82.00 209.00,82.00 216.00,92.00 202.00,92.00" fill="#161b22" stroke="#0d1117" stroke-width="0.65"/>
<polygon points="214.00,82.00 228.00,82.00 235.00,92.00 221.00,92.00" fill="#161b22" stroke="#0d1117" stroke-width="0.65"/>
<polygon points="233.00,82.00 247.00,82.00 254.00,92.00 240.00,92.00" fill="#161b22" stroke="#0d1117" stroke-width="0.65"/>
<polygon points="252.00,82.00 266.00,82.00 273.00,92.00 259.00,92.00" fill="#161b22" stroke="#0d1117" stroke-width="0.65"/>
<polygon points="285.00,62.10 292.00,72.10 292.00,92.00 285.00,82.00" fill="#124f1f"/>
<polygon points="278.00,72.10 292.00,72.10 292.00,92.00 278.00,92.00" fill="#176628"/>
<polygon points="271.00,62.10 285.00,62.10 292.00,72.10 278.00,72.10" fill="#26a641" stroke="#0d1117" stroke-width="0.65"/>
<polygon points="290.00,82.00 304.00,82.00 311.00,92.00 297.00,92.00" fill="#161b22" stroke="#0d1117" stroke-width="0.65"/>
<polygon points="309.00,82.00 323.00,82.00 330.00,92.00 316.00,92.00" fill="#161b22" stroke="#0d1117" stroke-width="0.65"/>
<polygon points="328.00,82.00 342.00,82.00 349.00,92.00 335.00,92.00" fill="#161b22" stroke="#0d1117" stroke-width="0.65"/>
<polygon points="347.00,82.00 361.00,82.00 368.00,92.00 354.00,92.00" fill="#161b22" stroke="#0d1117" stroke-width="0.65"/>
<polygon points="380.00,71.49 387.00,81.49 387.00,92.00 380.00,82.00" fill="#062013"/>
<polygon points="373.00,81.49 387.00,81.49 387.00,92.00 373.00,92.00" fill="#082a19"/>
<polygon points="366.00,71.49 380.00,71.49 387.00,81.49 373.00,81.49" fill="#0e4429" stroke="#0d1117" stroke-width="0.65"/>
<polygon points="385.00,82.00 399.00,82.00 406.00,92.00 392.00,92.00" fill="#161b22" stroke="#0d1117" stroke-width="0.65"/>
<polygon points="418.00,64.86 425.00,74.86 425.00,92.00 418.00,82.00" fill="#003418"/>
<polygon points="411.00,74.86 425.00,74.86 425.00,92.00 411.00,92.00" fill="#00431f"/>
<polygon points="404.00,64.86 418.00,64.86 425.00,74.86 411.00,74.86" fill="#006d32" stroke="#0d1117" stroke-width="0.65"/>
<polygon points="437.00,75.37 444.00,85.37 444.00,92.00 437.00,82.00" fill="#062013"/>
<polygon points="430.00,85.37 444.00,85.37 444.00,92.00 430.00,92.00" fill="#082a19"/>
<polygon points="423.00,75.37 437.00,75.37 444.00,85.37 430.00,85.37" fill="#0e4429" stroke="#0d1117" stroke-width="0.65"/>
<polygon points="456.00,75.37 463.00,85.37 463.00,92.00 456.00,82.00" fill="#062013"/>
<polygon points="449.00,85.37 463.00,85.37 463.00,92.00 449.00,92.00" fill="#082a19"/>
<polygon points="442.00,75.37 456.00,75.37 463.00,85.37 449.00,85.37" fill="#0e4429" stroke="#0d1117" stroke-width="0.65"/>
<polygon points="461.00,82.00 475.00,82.00 482.00,92.00 468.00,92.00" fill="#161b22" stroke="#0d1117" stroke-width="0.65"/>
<polygon points="494.00,75.37 501.00,85.37 501.00,92.00 494.00,82.00" fill="#062013"/>
<polygon points="487.00,85.37 501.00,85.37 501.00,92.00 487.00,92.00" fill="#082a19"/>
<polygon points="480.00,75.37 494.00,75.37 501.00,85.37 487.00,85.37" fill="#0e4429" stroke="#0d1117" stroke-width="0.65"/>
<polygon points="499.00,82.00 513.00,82.00 520.00,92.00 506.00,92.00" fill="#161b22" stroke="#0d1117" stroke-width="0.65"/>
<polygon points="532.00,75.37 539.00,85.37 539.00,92.00 532.00,82.00" fill="#062013"/>
<polygon points="525.00,85.37 539.00,85.37 539.00,92.00 525.00,92.00" fill="#082a19"/>
<polygon points="518.00,75.37 532.00,75.37 539.00,85.37 525.00,85.37" fill="#0e4429" stroke="#0d1117" stroke-width="0.65"/>
<polygon points="537.00,82.00 551.00,82.00 558.00,92.00 544.00,92.00" fill="#161b22" stroke="#0d1117" stroke-width="0.65"/>
<polygon points="570.00,75.37 577.00,85.37 577.00,92.00 570.00,82.00" fill="#062013"/>
<polygon points="563.00,85.37 577.00,85.37 577.00,92.00 563.00,92.00" fill="#082a19"/>
<polygon points="556.00,75.37 570.00,75.37 577.00,85.37 563.00,85.37" fill="#0e4429" stroke="#0d1117" stroke-width="0.65"/>
<polygon points="575.00,82.00 589.00,82.00 596.00,92.00 582.00,92.00" fill="#161b22" stroke="#0d1117" stroke-width="0.65"/>
<polygon points="608.00,75.37 615.00,85.37 615.00,92.00 608.00,82.00" fill="#062013"/>
<polygon points="601.00,85.37 615.00,85.37 615.00,92.00 601.00,92.00" fill="#082a19"/>
<polygon points="594.00,75.37 608.00,75.37 615.00,85.37 601.00,85.37" fill="#0e4429" stroke="#0d1117" stroke-width="0.65"/>
<polygon points="613.00,82.00 627.00,82.00 634.00,92.00 620.00,92.00" fill="#161b22" stroke="#0d1117" stroke-width="0.65"/>
<polygon points="646.00,75.37 653.00,85.37 653.00,92.00 646.00,82.00" fill="#062013"/>
<polygon points="639.00,85.37 653.00,85.37 653.00,92.00 639.00,92.00" fill="#082a19"/>
<polygon points="632.00,75.37 646.00,75.37 653.00,85.37 639.00,85.37" fill="#0e4429" stroke="#0d1117" stroke-width="0.65"/>
<polygon points="651.00,82.00 665.00,82.00 672.00,92.00 658.00,92.00" fill="#161b22" stroke="#0d1117" stroke-width="0.65"/>
<polygon points="670.00,82.00 684.00,82.00 691.00,92.00 677.00,92.00" fill="#161b22" stroke="#0d1117" stroke-width="0.65"/>
<polygon points="689.00,82.00 703.00,82.00 710.00,92.00 696.00,92.00" fill="#161b22" stroke="#0d1117" stroke-width="0.65"/>
<polygon points="708.00,82.00 722.00,82.00 729.00,92.00 715.00,92.00" fill="#161b22" stroke="#0d1117" stroke-width="0.65"/>
<polygon points="727.00,82.00 741.00,82.00 748.00,92.00 734.00,92.00" fill="#161b22" stroke="#0d1117" stroke-width="0.65"/>
<polygon points="746.00,82.00 760.00,82.00 767.00,92.00 753.00,92.00" fill="#161b22" stroke="#0d1117" stroke-width="0.65"/>
<polygon points="765.00,82.00 779.00,82.00 786.00,92.00 772.00,92.00" fill="#161b22" stroke="#0d1117" stroke-width="0.65"/>
<polygon points="784.00,82.00 798.00,82.00 805.00,92.00 791.00,92.00" fill="#161b22" stroke="#0d1117" stroke-width="0.65"/>
<polygon points="803.00,82.00 817.00,82.00 824.00,92.00 810.00,92.00" fill="#161b22" stroke="#0d1117" stroke-width="0.65"/>
<polygon points="822.00,82.00 836.00,82.00 843.00,92.00 829.00,92.00" fill="#161b22" stroke="#0d1117" stroke-width="0.65"/>
<polygon points="841.00,82.00 855.00,82.00 862.00,92.00 848.00,92.00" fill="#161b22" stroke="#0d1117" stroke-width="0.65"/>
<polygon points="860.00,82.00 874.00,82.00 881.00,92.00 867.00,92.00" fill="#161b22" stroke="#0d1117" stroke-width="0.65"/>
<polygon points="879.00,82.00 893.00,82.00 900.00,92.00 886.00,92.00" fill="#161b22" stroke="#0d1117" stroke-width="0.65"/>
<polygon points="898.00,82.00 912.00,82.00 919.00,92.00 905.00,92.00" fill="#161b22" stroke="#0d1117" stroke-width="0.65"/>
<polygon points="917.00,82.00 931.00,82.00 938.00,92.00 924.00,92.00" fill="#161b22" stroke="#0d1117" stroke-width="0.65"/>
<polygon points="936.00,82.00 950.00,82.00 957.00,92.00 943.00,92.00" fill="#161b22" stroke="#0d1117" stroke-width="0.65"/>
<polygon points="969.00,66.60 976.00,76.60 976.00,92.00 969.00,82.00" fill="#003418"/>
<polygon points="962.00,76.60 976.00,76.60 976.00,92.00 962.00,92.00" fill="#00431f"/>
<polygon points="955.00,66.60 969.00,66.60 976.00,76.60 962.00,76.60" fill="#006d32" stroke="#0d1117" stroke-width="0.65"/>
<polygon points="988.00,56.09 995.00,66.09 995.00,92.00 988.00,82.00" fill="#124f1f"/>
<polygon points="981.00,66.09 995.00,66.09 995.00,92.00 981.00,92.00" fill="#176628"/>
<polygon points="974.00,56.09 988.00,56.09 995.00,66.09 981.00,66.09" fill="#26a641" stroke="#0d1117" stroke-width="0.65"/>
<polygon points="993.00,82.00 1007.00,82.00 1014.00,92.00 1000.00,92.00" fill="#161b22" stroke="#0d1117" stroke-width="0.65"/>
<polygon points="1012.00,82.00 1026.00,82.00 1033.00,92.00 1019.00,92.00" fill="#161b22" stroke="#0d1117" stroke-width="0.65"/>
<polygon points="1031.00,82.00 1045.00,82.00 1052.00,92.00 1038.00,92.00" fill="#161b22" stroke="#0d1117" stroke-width="0.65"/>
<polygon points="50.00,92.00 64.00,92.00 71.00,102.00 57.00,102.00" fill="#161b22" stroke="#0d1117" stroke-width="0.65"/>
<polygon points="69.00,92.00 83.00,92.00 90.00,102.00 76.00,102.00" fill="#161b22" stroke="#0d1117" stroke-width="0.65"/>
<polygon points="88.00,92.00 102.00,92.00 109.00,102.00 95.00,102.00" fill="#161b22" stroke="#0d1117" stroke-width="0.65"/>
<polygon points="107.00,92.00 121.00,92.00 128.00,102.00 114.00,102.00" fill="#161b22" stroke="#0d1117" stroke-width="0.65"/>
<polygon points="140.00,85.37 147.00,95.37 147.00,102.00 140.00,92.00" fill="#062013"/>
<polygon points="133.00,95.37 147.00,95.37 147.00,102.00 133.00,102.00" fill="#082a19"/>
<polygon points="126.00,85.37 140.00,85.37 147.00,95.37 133.00,95.37" fill="#0e4429" stroke="#0d1117" stroke-width="0.65"/>
<polygon points="159.00,78.74 166.00,88.74 166.00,102.00 159.00,92.00" fill="#003418"/>
<polygon points="152.00,88.74 166.00,88.74 166.00,102.00 152.00,102.00" fill="#00431f"/>
<polygon points="145.00,78.74 159.00,78.74 166.00,88.74 152.00,88.74" fill="#006d32" stroke="#0d1117" stroke-width="0.65"/>
<polygon points="164.00,92.00 178.00,92.00 185.00,102.00 171.00,102.00" fill="#161b22" stroke="#0d1117" stroke-width="0.65"/>
<polygon points="183.00,92.00 197.00,92.00 204.00,102.00 190.00,102.00" fill="#161b22" stroke="#0d1117" stroke-width="0.65"/>
<polygon points="202.00,92.00 216.00,92.00 223.00,102.00 209.00,102.00" fill="#161b22" stroke="#0d1117" stroke-width="0.65"/>
<polygon points="221.00,92.00 235.00,92.00 242.00,102.00 228.00,102.00" fill="#161b22" stroke="#0d1117" stroke-width="0.65"/>
<polygon points="240.00,92.00 254.00,92.00 261.00,102.00 247.00,102.00" fill="#161b22" stroke="#0d1117" stroke-width="0.65"/>
<polygon points="273.00,73.38 280.00,83.38 280.00,102.00 273.00,92.00" fill="#003418"/>
<polygon points="266.00,83.38 280.00,83.38 280.00,102.00 266.00,102.00" fill="#00431f"/>
<polygon points="259.00,73.38 273.00,73.38 280.00,83.38 266.00,83.38" fill="#006d32" stroke="#0d1117" stroke-width="0.65"/>
<polygon points="292.00,69.97 299.00,79.97 299.00,102.00 292.00,92.00" fill="#124f1f"/>
<polygon points="285.00,79.97 299.00,79.97 299.00,102.00 285.00,102.00" fill="#176628"/>
<polygon points="278.00,69.97 292.00,69.97 299.00,79.97 285.00,79.97" fill="#26a641" stroke="#0d1117" stroke-width="0.65"/>
<polygon points="297.00,92.00 311.00,92.00 318.00,102.00 304.00,102.00" fill="#161b22" stroke="#0d1117" stroke-width="0.65"/>
<polygon points="316.00,92.00 330.00,92.00 337.00,102.00 323.00,102.00" fill="#161b22" stroke="#0d1117" stroke-width="0.65"/>
<polygon points="335.00,92.00 349.00,92.00 356.00,102.00 342.00,102.00" fill="#161b22" stroke="#0d1117" stroke-width="0.65"/>
<polygon points="354.00,92.00 368.00,92.00 375.00,102.00 361.00,102.00" fill="#161b22" stroke="#0d1117" stroke-width="0.65"/>
<polygon points="373.00,92.00 387.00,92.00 394.00,102.00 380.00,102.00" fill="#161b22" stroke="#0d1117" stroke-width="0.65"/>
<polygon points="392.00,92.00 406.00,92.00 413.00,102.00 399.00,102.00" fill="#161b22" stroke="#0d1117" stroke-width="0.65"/>
<polygon points="425.00,81.49 432.00,91.49 432.00,102.00 425.00,92.00" fill="#062013"/>
<polygon points="418.00,91.49 432.00,91.49 432.00,102.00 418.00,102.00" fill="#082a19"/>
<polygon points="411.00,81.49 425.00,81.49 432.00,91.49 418.00,91.49" fill="#0e4429" stroke="#0d1117" stroke-width="0.65"/>
<polygon points="430.00,92.00 444.00,92.00 451.00,102.00 437.00,102.00" fill="#161b22" stroke="#0d1117" stroke-width="0.65"/>
<polygon points="449.00,92.00 463.00,92.00 470.00,102.00 456.00,102.00" fill="#161b22" stroke="#0d1117" stroke-width="0.65"/>
<polygon points="468.00,92.00 482.00,92.00 489.00,102.00 475.00,102.00" fill="#161b22" stroke="#0d1117" stroke-width="0.65"/>
<polygon points="487.00,92.00 501.00,92.00 508.00,102.00 494.00,102.00" fill="#161b22" stroke="#0d1117" stroke-width="0.65"/>
<polygon points="506.00,92.00 520.00,92.00 527.00,102.00 513.00,102.00" fill="#161b22" stroke="#0d1117" stroke-width="0.65"/>
<polygon points="525.00,92.00 539.00,92.00 546.00,102.00 532.00,102.00" fill="#161b22" stroke="#0d1117" stroke-width="0.65"/>
<polygon points="544.00,92.00 558.00,92.00 565.00,102.00 551.00,102.00" fill="#161b22" stroke="#0d1117" stroke-width="0.65"/>
<polygon points="577.00,81.49 584.00,91.49 584.00,102.00 577.00,92.00" fill="#062013"/>
<polygon points="570.00,91.49 584.00,91.49 584.00,102.00 570.00,102.00" fill="#082a19"/>
<polygon points="563.00,81.49 577.00,81.49 584.00,91.49 570.00,91.49" fill="#0e4429" stroke="#0d1117" stroke-width="0.65"/>
<polygon points="582.00,92.00 596.00,92.00 603.00,102.00 589.00,102.00" fill="#161b22" stroke="#0d1117" stroke-width="0.65"/>
<polygon points="615.00,85.37 622.00,95.37 622.00,102.00 615.00,92.00" fill="#062013"/>
<polygon points="608.00,95.37 622.00,95.37 622.00,102.00 608.00,102.00" fill="#082a19"/>
<polygon points="601.00,85.37 615.00,85.37 622.00,95.37 608.00,95.37" fill="#0e4429" stroke="#0d1117" stroke-width="0.65"/>
<polygon points="620.00,92.00 634.00,92.00 641.00,102.00 627.00,102.00" fill="#161b22" stroke="#0d1117" stroke-width="0.65"/>
<polygon points="639.00,92.00 653.00,92.00 660.00,102.00 646.00,102.00" fill="#161b22" stroke="#0d1117" stroke-width="0.65"/>
<polygon points="672.00,78.74 679.00,88.74 679.00,102.00 672.00,92.00" fill="#003418"/>
<polygon points="665.00,88.74 679.00,88.74 679.00,102.00 665.00,102.00" fill="#00431f"/>
<polygon points="658.00,78.74 672.00,78.74 679.00,88.74 665.00,88.74" fill="#006d32" stroke="#0d1117" stroke-width="0.65"/>
<polygon points="677.00,92.00 691.00,92.00 698.00,102.00 684.00,102.00" fill="#161b22" stroke="#0d1117" stroke-width="0.65"/>
<polygon points="710.00,85.37 717.00,95.37 717.00,102.00 710.00,92.00" fill="#062013"/>
<polygon points="703.00,95.37 717.00,95.37 717.00,102.00 703.00,102.00" fill="#082a19"/>
<polygon points="696.00,85.37 710.00,85.37 717.00,95.37 703.00,95.37" fill="#0e4429" stroke="#0d1117" stroke-width="0.65"/>
<polygon points="715.00,92.00 729.00,92.00 736.00,102.00 722.00,102.00" fill="#161b22" stroke="#0d1117" stroke-width="0.65"/>
<polygon points="734.00,92.00 748.00,92.00 755.00,102.00 741.00,102.00" fill="#161b22" stroke="#0d1117" stroke-width="0.65"/>
<polygon points="753.00,92.00 767.00,92.00 774.00,102.00 760.00,102.00" fill="#161b22" stroke="#0d1117" stroke-width="0.65"/>
<polygon points="772.00,92.00 786.00,92.00 793.00,102.00 779.00,102.00" fill="#161b22" stroke="#0d1117" stroke-width="0.65"/>
<polygon points="791.00,92.00 805.00,92.00 812.00,102.00 798.00,102.00" fill="#161b22" stroke="#0d1117" stroke-width="0.65"/>
<polygon points="810.00,92.00 824.00,92.00 831.00,102.00 817.00,102.00" fill="#161b22" stroke="#0d1117" stroke-width="0.65"/>
<polygon points="829.00,92.00 843.00,92.00 850.00,102.00 836.00,102.00" fill="#161b22" stroke="#0d1117" stroke-width="0.65"/>
<polygon points="862.00,78.74 869.00,88.74 869.00,102.00 862.00,92.00" fill="#003418"/>
<polygon points="855.00,88.74 869.00,88.74 869.00,102.00 855.00,102.00" fill="#00431f"/>
<polygon points="848.00,78.74 862.00,78.74 869.00,88.74 855.00,88.74" fill="#006d32" stroke="#0d1117" stroke-width="0.65"/>
<polygon points="867.00,92.00 881.00,92.00 888.00,102.00 874.00,102.00" fill="#161b22" stroke="#0d1117" stroke-width="0.65"/>
<polygon points="886.00,92.00 900.00,92.00 907.00,102.00 893.00,102.00" fill="#161b22" stroke="#0d1117" stroke-width="0.65"/>
<polygon points="905.00,92.00 919.00,92.00 926.00,102.00 912.00,102.00" fill="#161b22" stroke="#0d1117" stroke-width="0.65"/>
<polygon points="924.00,92.00 938.00,92.00 945.00,102.00 931.00,102.00" fill="#161b22" stroke="#0d1117" stroke-width="0.65"/>
<polygon points="943.00,92.00 957.00,92.00 964.00,102.00 950.00,102.00" fill="#161b22" stroke="#0d1117" stroke-width="0.65"/>
<polygon points="962.00,92.00 976.00,92.00 983.00,102.00 969.00,102.00" fill="#161b22" stroke="#0d1117" stroke-width="0.65"/>
<polygon points="995.00,85.37 1002.00,95.37 1002.00,102.00 995.00,92.00" fill="#062013"/>
<polygon points="988.00,95.37 1002.00,95.37 1002.00,102.00 988.00,102.00" fill="#082a19"/>
<polygon points="981.00,85.37 995.00,85.37 1002.00,95.37 988.00,95.37" fill="#0e4429" stroke="#0d1117" stroke-width="0.65"/>
<polygon points="1000.00,92.00 1014.00,92.00 1021.00,102.00 1007.00,102.00" fill="#161b22" stroke="#0d1117" stroke-width="0.65"/>
<polygon points="1019.00,92.00 1033.00,92.00 1040.00,102.00 1026.00,102.00" fill="#161b22" stroke="#0d1117" stroke-width="0.65"/>
<polygon points="1038.00,92.00 1052.00,92.00 1059.00,102.00 1045.00,102.00" fill="#161b22" stroke="#0d1117" stroke-width="0.65"/>
<polygon points="57.00,102.00 71.00,102.00 78.00,112.00 64.00,112.00" fill="#161b22" stroke="#0d1117" stroke-width="0.65"/>
<polygon points="90.00,88.74 97.00,98.74 97.00,112.00 90.00,102.00" fill="#003418"/>
<polygon points="83.00,98.74 97.00,98.74 97.00,112.00 83.00,112.00" fill="#00431f"/>
<polygon points="76.00,88.74 90.00,88.74 97.00,98.74 83.00,98.74" fill="#006d32" stroke="#0d1117" stroke-width="0.65"/>
<polygon points="95.00,102.00 109.00,102.00 116.00,112.00 102.00,112.00" fill="#161b22" stroke="#0d1117" stroke-width="0.65"/>
<polygon points="114.00,102.00 128.00,102.00 135.00,112.00 121.00,112.00" fill="#161b22" stroke="#0d1117" stroke-width="0.65"/>
<polygon points="133.00,102.00 147.00,102.00 154.00,112.00 140.00,112.00" fill="#161b22" stroke="#0d1117" stroke-width="0.65"/>
<polygon points="166.00,86.60 173.00,96.60 173.00,112.00 166.00,102.00" fill="#003418"/>
<polygon points="159.00,96.60 173.00,96.60 173.00,112.00 159.00,112.00" fill="#00431f"/>
<polygon points="152.00,86.60 166.00,86.60 173.00,96.60 159.00,96.60" fill="#006d32" stroke="#0d1117" stroke-width="0.65"/>
<polygon points="185.00,88.74 192.00,98.74 192.00,112.00 185.00,102.00" fill="#003418"/>
<polygon points="178.00,98.74 192.00,98.74 192.00,112.00 178.00,112.00" fill="#00431f"/>
<polygon points="171.00,88.74 185.00,88.74 192.00,98.74 178.00,98.74" fill="#006d32" stroke="#0d1117" stroke-width="0.65"/>
<polygon points="190.00,102.00 204.00,102.00 211.00,112.00 197.00,112.00" fill="#161b22" stroke="#0d1117" stroke-width="0.65"/>
<polygon points="223.00,95.37 230.00,105.37 230.00,112.00 223.00,102.00" fill="#062013"/>
<polygon points="216.00,105.37 230.00,105.37 230.00,112.00 216.00,112.00" fill="#082a19"/>
<polygon points="209.00,95.37 223.00,95.37 230.00,105.37 216.00,105.37" fill="#0e4429" stroke="#0d1117" stroke-width="0.65"/>
<polygon points="242.00,91.49 249.00,101.49 249.00,112.00 242.00,102.00" fill="#062013"/>
<polygon points="235.00,101.49 249.00,101.49 249.00,112.00 235.00,112.00" fill="#082a19"/>
<polygon points="228.00,91.49 242.00,91.49 249.00,101.49 235.00,101.49" fill="#0e4429" stroke="#0d1117" stroke-width="0.65"/>
<polygon points="247.00,102.00 261.00,102.00 268.00,112.00 254.00,112.00" fill="#161b22" stroke="#0d1117" stroke-width="0.65"/>
<polygon points="266.00,102.00 280.00,102.00 287.00,112.00 273.00,112.00" fill="#161b22" stroke="#0d1117" stroke-width="0.65"/>
<polygon points="299.00,95.37 306.00,105.37 306.00,112.00 299.00,102.00" fill="#062013"/>
<polygon points="292.00,105.37 306.00,105.37 306.00,112.00 292.00,112.00" fill="#082a19"/>
<polygon points="285.00,95.37 299.00,95.37 306.00,105.37 292.00,105.37" fill="#0e4429" stroke="#0d1117" stroke-width="0.65"/>
<polygon points="304.00,102.00 318.00,102.00 325.00,112.00 311.00,112.00" fill="#161b22" stroke="#0d1117" stroke-width="0.65"/>
<polygon points="323.00,102.00 337.00,102.00 344.00,112.00 330.00,112.00" fill="#161b22" stroke="#0d1117" stroke-width="0.65"/>
<polygon points="342.00,102.00 356.00,102.00 363.00,112.00 349.00,112.00" fill="#161b22" stroke="#0d1117" stroke-width="0.65"/>
<polygon points="361.00,102.00 375.00,102.00 382.00,112.00 368.00,112.00" fill="#161b22" stroke="#0d1117" stroke-width="0.65"/>
<polygon points="380.00,102.00 394.00,102.00 401.00,112.00 387.00,112.00" fill="#161b22" stroke="#0d1117" stroke-width="0.65"/>
<polygon points="399.00,102.00 413.00,102.00 420.00,112.00 406.00,112.00" fill="#161b22" stroke="#0d1117" stroke-width="0.65"/>
<polygon points="432.00,95.37 439.00,105.37 439.00,112.00 432.00,102.00" fill="#062013"/>
<polygon points="425.00,105.37 439.00,105.37 439.00,112.00 425.00,112.00" fill="#082a19"/>
<polygon points="418.00,95.37 432.00,95.37 439.00,105.37 425.00,105.37" fill="#0e4429" stroke="#0d1117" stroke-width="0.65"/>
<polygon points="437.00,102.00 451.00,102.00 458.00,112.00 444.00,112.00" fill="#161b22" stroke="#0d1117" stroke-width="0.65"/>
<polygon points="456.00,102.00 470.00,102.00 477.00,112.00 463.00,112.00" fill="#161b22" stroke="#0d1117" stroke-width="0.65"/>
<polygon points="489.00,95.37 496.00,105.37 496.00,112.00 489.00,102.00" fill="#062013"/>
<polygon points="482.00,105.37 496.00,105.37 496.00,112.00 482.00,112.00" fill="#082a19"/>
<polygon points="475.00,95.37 489.00,95.37 496.00,105.37 482.00,105.37" fill="#0e4429" stroke="#0d1117" stroke-width="0.65"/>
<polygon points="494.00,102.00 508.00,102.00 515.00,112.00 501.00,112.00" fill="#161b22" stroke="#0d1117" stroke-width="0.65"/>
<polygon points="513.00,102.00 527.00,102.00 534.00,112.00 520.00,112.00" fill="#161b22" stroke="#0d1117" stroke-width="0.65"/>
<polygon points="546.00,84.86 553.00,94.86 553.00,112.00 546.00,102.00" fill="#003418"/>
<polygon points="539.00,94.86 553.00,94.86 553.00,112.00 539.00,112.00" fill="#00431f"/>
<polygon points="532.00,84.86 546.00,84.86 553.00,94.86 539.00,94.86" fill="#006d32" stroke="#0d1117" stroke-width="0.65"/>
<polygon points="565.00,91.49 572.00,101.49 572.00,112.00 565.00,102.00" fill="#062013"/>
<polygon points="558.00,101.49 572.00,101.49 572.00,112.00 558.00,112.00" fill="#082a19"/>
<polygon points="551.00,91.49 565.00,91.49 572.00,101.49 558.00,101.49" fill="#0e4429" stroke="#0d1117" stroke-width="0.65"/>
<polygon points="584.00,95.37 591.00,105.37 591.00,112.00 584.00,102.00" fill="#062013"/>
<polygon points="577.00,105.37 591.00,105.37 591.00,112.00 577.00,112.00" fill="#082a19"/>
<polygon points="570.00,95.37 584.00,95.37 591.00,105.37 577.00,105.37" fill="#0e4429" stroke="#0d1117" stroke-width="0.65"/>
<polygon points="589.00,102.00 603.00,102.00 610.00,112.00 596.00,112.00" fill="#161b22" stroke="#0d1117" stroke-width="0.65"/>
<polygon points="608.00,102.00 622.00,102.00 629.00,112.00 615.00,112.00" fill="#161b22" stroke="#0d1117" stroke-width="0.65"/>
<polygon points="627.00,102.00 641.00,102.00 648.00,112.00 634.00,112.00" fill="#161b22" stroke="#0d1117" stroke-width="0.65"/>
<polygon points="646.00,102.00 660.00,102.00 667.00,112.00 653.00,112.00" fill="#161b22" stroke="#0d1117" stroke-width="0.65"/>
<polygon points="665.00,102.00 679.00,102.00 686.00,112.00 672.00,112.00" fill="#161b22" stroke="#0d1117" stroke-width="0.65"/>
<polygon points="684.00,102.00 698.00,102.00 705.00,112.00 691.00,112.00" fill="#161b22" stroke="#0d1117" stroke-width="0.65"/>
<polygon points="703.00,102.00 717.00,102.00 724.00,112.00 710.00,112.00" fill="#161b22" stroke="#0d1117" stroke-width="0.65"/>
<polygon points="722.00,102.00 736.00,102.00 743.00,112.00 729.00,112.00" fill="#161b22" stroke="#0d1117" stroke-width="0.65"/>
<polygon points="741.00,102.00 755.00,102.00 762.00,112.00 748.00,112.00" fill="#161b22" stroke="#0d1117" stroke-width="0.65"/>
<polygon points="760.00,102.00 774.00,102.00 781.00,112.00 767.00,112.00" fill="#161b22" stroke="#0d1117" stroke-width="0.65"/>
<polygon points="793.00,91.49 800.00,101.49 800.00,112.00 793.00,102.00" fill="#062013"/>
<polygon points="786.00,101.49 800.00,101.49 800.00,112.00 786.00,112.00" fill="#082a19"/>
<polygon points="779.00,91.49 793.00,91.49 800.00,101.49 786.00,101.49" fill="#0e4429" stroke="#0d1117" stroke-width="0.65"/>
<polygon points="812.00,95.37 819.00,105.37 819.00,112.00 812.00,102.00" fill="#062013"/>
<polygon points="805.00,105.37 819.00,105.37 819.00,112.00 805.00,112.00" fill="#082a19"/>
<polygon points="798.00,95.37 812.00,95.37 819.00,105.37 805.00,105.37" fill="#0e4429" stroke="#0d1117" stroke-width="0.65"/>
<polygon points="817.00,102.00 831.00,102.00 838.00,112.00 824.00,112.00" fill="#161b22" stroke="#0d1117" stroke-width="0.65"/>
<polygon points="836.00,102.00 850.00,102.00 857.00,112.00 843.00,112.00" fill="#161b22" stroke="#0d1117" stroke-width="0.65"/>
<polygon points="855.00,102.00 869.00,102.00 876.00,112.00 862.00,112.00" fill="#161b22" stroke="#0d1117" stroke-width="0.65"/>
<polygon points="874.00,102.00 888.00,102.00 895.00,112.00 881.00,112.00" fill="#161b22" stroke="#0d1117" stroke-width="0.65"/>
<polygon points="893.00,102.00 907.00,102.00 914.00,112.00 900.00,112.00" fill="#161b22" stroke="#0d1117" stroke-width="0.65"/>
<polygon points="912.00,102.00 926.00,102.00 933.00,112.00 919.00,112.00" fill="#161b22" stroke="#0d1117" stroke-width="0.65"/>
<polygon points="931.00,102.00 945.00,102.00 952.00,112.00 938.00,112.00" fill="#161b22" stroke="#0d1117" stroke-width="0.65"/>
<polygon points="950.00,102.00 964.00,102.00 971.00,112.00 957.00,112.00" fill="#161b22" stroke="#0d1117" stroke-width="0.65"/>
<polygon points="969.00,102.00 983.00,102.00 990.00,112.00 976.00,112.00" fill="#161b22" stroke="#0d1117" stroke-width="0.65"/>
<polygon points="988.00,102.00 1002.00,102.00 1009.00,112.00 995.00,112.00" fill="#161b22" stroke="#0d1117" stroke-width="0.65"/>
<polygon points="1021.00,95.37 1028.00,105.37 1028.00,112.00 1021.00,102.00" fill="#062013"/>
<polygon points="1014.00,105.37 1028.00,105.37 1028.00,112.00 1014.00,112.00" fill="#082a19"/>
<polygon points="1007.00,95.37 1021.00,95.37 1028.00,105.37 1014.00,105.37" fill="#0e4429" stroke="#0d1117" stroke-width="0.65"/>
<polygon points="1040.00,72.00 1047.00,82.00 1047.00,112.00 1040.00,102.00" fill="#1b6527"/>
<polygon points="1033.00,82.00 1047.00,82.00 1047.00,112.00 1033.00,112.00" fill="#238233"/>
<polygon points="1026.00,72.00 1040.00,72.00 1047.00,82.00 1033.00,82.00" fill="#39d353" stroke="#0d1117" stroke-width="0.65"/>
<polygon points="1045.00,102.00 1059.00,102.00 1066.00,112.00 1052.00,112.00" fill="#161b22" stroke="#0d1117" stroke-width="0.65"/>
<polygon points="64.00,112.00 78.00,112.00 85.00,122.00 71.00,122.00" fill="#161b22" stroke="#0d1117" stroke-width="0.65"/>
<polygon points="83.00,112.00 97.00,112.00 104.00,122.00 90.00,122.00" fill="#161b22" stroke="#0d1117" stroke-width="0.65"/>
<polygon points="102.00,112.00 116.00,112.00 123.00,122.00 109.00,122.00" fill="#161b22" stroke="#0d1117" stroke-width="0.65"/>
<polygon points="135.00,105.37 142.00,115.37 142.00,122.00 135.00,112.00" fill="#062013"/>
<polygon points="128.00,115.37 142.00,115.37 142.00,122.00 128.00,122.00" fill="#082a19"/>
<polygon points="121.00,105.37 135.00,105.37 142.00,115.37 128.00,115.37" fill="#0e4429" stroke="#0d1117" stroke-width="0.65"/>
<polygon points="154.00,101.49 161.00,111.49 161.00,122.00 154.00,112.00" fill="#062013"/>
<polygon points="147.00,111.49 161.00,111.49 161.00,122.00 147.00,122.00" fill="#082a19"/>
<polygon points="140.00,101.49 154.00,101.49 161.00,111.49 147.00,111.49" fill="#0e4429" stroke="#0d1117" stroke-width="0.65"/>
<polygon points="173.00,89.97 180.00,99.97 180.00,122.00 173.00,112.00" fill="#124f1f"/>
<polygon points="166.00,99.97 180.00,99.97 180.00,122.00 166.00,122.00" fill="#176628"/>
<polygon points="159.00,89.97 173.00,89.97 180.00,99.97 166.00,99.97" fill="#26a641" stroke="#0d1117" stroke-width="0.65"/>
<polygon points="192.00,105.37 199.00,115.37 199.00,122.00 192.00,112.00" fill="#062013"/>
<polygon points="185.00,115.37 199.00,115.37 199.00,122.00 185.00,122.00" fill="#082a19"/>
<polygon points="178.00,105.37 192.00,105.37 199.00,115.37 185.00,115.37" fill="#0e4429" stroke="#0d1117" stroke-width="0.65"/>
<polygon points="197.00,112.00 211.00,112.00 218.00,122.00 204.00,122.00" fill="#161b22" stroke="#0d1117" stroke-width="0.65"/>
<polygon points="230.00,101.49 237.00,111.49 237.00,122.00 230.00,112.00" fill="#062013"/>
<polygon points="223.00,111.49 237.00,111.49 237.00,122.00 223.00,122.00" fill="#082a19"/>
<polygon points="216.00,101.49 230.00,101.49 237.00,111.49 223.00,111.49" fill="#0e4429" stroke="#0d1117" stroke-width="0.65"/>
<polygon points="249.00,101.49 256.00,111.49 256.00,122.00 249.00,112.00" fill="#062013"/>
<polygon points="242.00,111.49 256.00,111.49 256.00,122.00 242.00,122.00" fill="#082a19"/>
<polygon points="235.00,101.49 249.00,101.49 256.00,111.49 242.00,111.49" fill="#0e4429" stroke="#0d1117" stroke-width="0.65"/>
<polygon points="254.00,112.00 268.00,112.00 275.00,122.00 261.00,122.00" fill="#161b22" stroke="#0d1117" stroke-width="0.65"/>
<polygon points="273.00,112.00 287.00,112.00 294.00,122.00 280.00,122.00" fill="#161b22" stroke="#0d1117" stroke-width="0.65"/>
<polygon points="292.00,112.00 306.00,112.00 313.00,122.00 299.00,122.00" fill="#161b22" stroke="#0d1117" stroke-width="0.65"/>
<polygon points="311.00,112.00 325.00,112.00 332.00,122.00 318.00,122.00" fill="#161b22" stroke="#0d1117" stroke-width="0.65"/>
<polygon points="330.00,112.00 344.00,112.00 351.00,122.00 337.00,122.00" fill="#161b22" stroke="#0d1117" stroke-width="0.65"/>
<polygon points="349.00,112.00 363.00,112.00 370.00,122.00 356.00,122.00" fill="#161b22" stroke="#0d1117" stroke-width="0.65"/>
<polygon points="368.00,112.00 382.00,112.00 389.00,122.00 375.00,122.00" fill="#161b22" stroke="#0d1117" stroke-width="0.65"/>
<polygon points="387.00,112.00 401.00,112.00 408.00,122.00 394.00,122.00" fill="#161b22" stroke="#0d1117" stroke-width="0.65"/>
<polygon points="420.00,101.49 427.00,111.49 427.00,122.00 420.00,112.00" fill="#062013"/>
<polygon points="413.00,111.49 427.00,111.49 427.00,122.00 413.00,122.00" fill="#082a19"/>
<polygon points="406.00,101.49 420.00,101.49 427.00,111.49 413.00,111.49" fill="#0e4429" stroke="#0d1117" stroke-width="0.65"/>
<polygon points="425.00,112.00 439.00,112.00 446.00,122.00 432.00,122.00" fill="#161b22" stroke="#0d1117" stroke-width="0.65"/>
<polygon points="444.00,112.00 458.00,112.00 465.00,122.00 451.00,122.00" fill="#161b22" stroke="#0d1117" stroke-width="0.65"/>
<polygon points="463.00,112.00 477.00,112.00 484.00,122.00 470.00,122.00" fill="#161b22" stroke="#0d1117" stroke-width="0.65"/>
<polygon points="482.00,112.00 496.00,112.00 503.00,122.00 489.00,122.00" fill="#161b22" stroke="#0d1117" stroke-width="0.65"/>
<polygon points="501.00,112.00 515.00,112.00 522.00,122.00 508.00,122.00" fill="#161b22" stroke="#0d1117" stroke-width="0.65"/>
<polygon points="534.00,101.49 541.00,111.49 541.00,122.00 534.00,112.00" fill="#062013"/>
<polygon points="527.00,111.49 541.00,111.49 541.00,122.00 527.00,122.00" fill="#082a19"/>
<polygon points="520.00,101.49 534.00,101.49 541.00,111.49 527.00,111.49" fill="#0e4429" stroke="#0d1117" stroke-width="0.65"/>
<polygon points="539.00,112.00 553.00,112.00 560.00,122.00 546.00,122.00" fill="#161b22" stroke="#0d1117" stroke-width="0.65"/>
<polygon points="572.00,101.49 579.00,111.49 579.00,122.00 572.00,112.00" fill="#062013"/>
<polygon points="565.00,111.49 579.00,111.49 579.00,122.00 565.00,122.00" fill="#082a19"/>
<polygon points="558.00,101.49 572.00,101.49 579.00,111.49 565.00,111.49" fill="#0e4429" stroke="#0d1117" stroke-width="0.65"/>
<polygon points="591.00,101.49 598.00,111.49 598.00,122.00 591.00,112.00" fill="#062013"/>
<polygon points="584.00,111.49 598.00,111.49 598.00,122.00 584.00,122.00" fill="#082a19"/>
<polygon points="577.00,101.49 591.00,101.49 598.00,111.49 584.00,111.49" fill="#0e4429" stroke="#0d1117" stroke-width="0.65"/>
<polygon points="596.00,112.00 610.00,112.00 617.00,122.00 603.00,122.00" fill="#161b22" stroke="#0d1117" stroke-width="0.65"/>
<polygon points="629.00,101.49 636.00,111.49 636.00,122.00 629.00,112.00" fill="#062013"/>
<polygon points="622.00,111.49 636.00,111.49 636.00,122.00 622.00,122.00" fill="#082a19"/>
<polygon points="615.00,101.49 629.00,101.49 636.00,111.49 622.00,111.49" fill="#0e4429" stroke="#0d1117" stroke-width="0.65"/>
<polygon points="648.00,105.37 655.00,115.37 655.00,122.00 648.00,112.00" fill="#062013"/>
<polygon points="641.00,115.37 655.00,115.37 655.00,122.00 641.00,122.00" fill="#082a19"/>
<polygon points="634.00,105.37 648.00,105.37 655.00,115.37 641.00,115.37" fill="#0e4429" stroke="#0d1117" stroke-width="0.65"/>
<polygon points="653.00,112.00 667.00,112.00 674.00,122.00 660.00,122.00" fill="#161b22" stroke="#0d1117" stroke-width="0.65"/>
<polygon points="672.00,112.00 686.00,112.00 693.00,122.00 679.00,122.00" fill="#161b22" stroke="#0d1117" stroke-width="0.65"/>
<polygon points="691.00,112.00 705.00,112.00 712.00,122.00 698.00,122.00" fill="#161b22" stroke="#0d1117" stroke-width="0.65"/>
<polygon points="710.00,112.00 724.00,112.00 731.00,122.00 717.00,122.00" fill="#161b22" stroke="#0d1117" stroke-width="0.65"/>
<polygon points="729.00,112.00 743.00,112.00 750.00,122.00 736.00,122.00" fill="#161b22" stroke="#0d1117" stroke-width="0.65"/>
<polygon points="762.00,101.49 769.00,111.49 769.00,122.00 762.00,112.00" fill="#062013"/>
<polygon points="755.00,111.49 769.00,111.49 769.00,122.00 755.00,122.00" fill="#082a19"/>
<polygon points="748.00,101.49 762.00,101.49 769.00,111.49 755.00,111.49" fill="#0e4429" stroke="#0d1117" stroke-width="0.65"/>
<polygon points="767.00,112.00 781.00,112.00 788.00,122.00 774.00,122.00" fill="#161b22" stroke="#0d1117" stroke-width="0.65"/>
<polygon points="800.00,105.37 807.00,115.37 807.00,122.00 800.00,112.00" fill="#062013"/>
<polygon points="793.00,115.37 807.00,115.37 807.00,122.00 793.00,122.00" fill="#082a19"/>
<polygon points="786.00,105.37 800.00,105.37 807.00,115.37 793.00,115.37" fill="#0e4429" stroke="#0d1117" stroke-width="0.65"/>
<polygon points="805.00,112.00 819.00,112.00 826.00,122.00 812.00,122.00" fill="#161b22" stroke="#0d1117" stroke-width="0.65"/>
<polygon points="824.00,112.00 838.00,112.00 845.00,122.00 831.00,122.00" fill="#161b22" stroke="#0d1117" stroke-width="0.65"/>
<polygon points="843.00,112.00 857.00,112.00 864.00,122.00 850.00,122.00" fill="#161b22" stroke="#0d1117" stroke-width="0.65"/>
<polygon points="862.00,112.00 876.00,112.00 883.00,122.00 869.00,122.00" fill="#161b22" stroke="#0d1117" stroke-width="0.65"/>
<polygon points="881.00,112.00 895.00,112.00 902.00,122.00 888.00,122.00" fill="#161b22" stroke="#0d1117" stroke-width="0.65"/>
<polygon points="900.00,112.00 914.00,112.00 921.00,122.00 907.00,122.00" fill="#161b22" stroke="#0d1117" stroke-width="0.65"/>
<polygon points="919.00,112.00 933.00,112.00 940.00,122.00 926.00,122.00" fill="#161b22" stroke="#0d1117" stroke-width="0.65"/>
<polygon points="938.00,112.00 952.00,112.00 959.00,122.00 945.00,122.00" fill="#161b22" stroke="#0d1117" stroke-width="0.65"/>
<polygon points="957.00,112.00 971.00,112.00 978.00,122.00 964.00,122.00" fill="#161b22" stroke="#0d1117" stroke-width="0.65"/>
<polygon points="990.00,93.38 997.00,103.38 997.00,122.00 990.00,112.00" fill="#003418"/>
<polygon points="983.00,103.38 997.00,103.38 997.00,122.00 983.00,122.00" fill="#00431f"/>
<polygon points="976.00,93.38 990.00,93.38 997.00,103.38 983.00,103.38" fill="#006d32" stroke="#0d1117" stroke-width="0.65"/>
<polygon points="1009.00,101.49 1016.00,111.49 1016.00,122.00 1009.00,112.00" fill="#062013"/>
<polygon points="1002.00,111.49 1016.00,111.49 1016.00,122.00 1002.00,122.00" fill="#082a19"/>
<polygon points="995.00,101.49 1009.00,101.49 1016.00,111.49 1002.00,111.49" fill="#0e4429" stroke="#0d1117" stroke-width="0.65"/>
<polygon points="1014.00,112.00 1028.00,112.00 1035.00,122.00 1021.00,122.00" fill="#161b22" stroke="#0d1117" stroke-width="0.65"/>
<polygon points="1047.00,105.37 1054.00,115.37 1054.00,122.00 1047.00,112.00" fill="#062013"/>
<polygon points="1040.00,115.37 1054.00,115.37 1054.00,122.00 1040.00,122.00" fill="#082a19"/>
<polygon points="1033.00,105.37 1047.00,105.37 1054.00,115.37 1040.00,115.37" fill="#0e4429" stroke="#0d1117" stroke-width="0.65"/>
<polygon points="1052.00,112.00 1066.00,112.00 1073.00,122.00 1059.00,122.00" fill="#161b22" stroke="#0d1117" stroke-width="0.65"/>
<polyline points="53.50,86.00 72.50,86.00 79.50,96.00 98.50,96.00 117.50,96.00 136.50,89.37 155.50,82.74 174.50,96.00 193.50,96.00 186.50,86.00 205.50,86.00 224.50,86.00 243.50,86.00 262.50,86.00 255.50,76.00 274.50,76.00 293.50,76.00 312.50,76.00 331.50,76.00 350.50,76.00 369.50,76.00 388.50,76.00 381.50,66.00 400.50,66.00 419.50,66.00 438.50,66.00 457.50,66.00 476.50,66.00 495.50,66.00 514.50,66.00 507.50,56.00 526.50,56.00 545.50,56.00 564.50,56.00 583.50,56.00 602.50,56.00 621.50,56.00 640.50,56.00 659.50,56.00 678.50,56.00 697.50,56.00 716.50,56.00 735.50,56.00 754.50,56.00 773.50,56.00 792.50,56.00 799.50,66.00 806.50,76.00 825.50,76.00 844.50,76.00 863.50,76.00 882.50,76.00 901.50,76.00 920.50,76.00 939.50,76.00 958.50,76.00 977.50,76.00 996.50,69.37 1003.50,86.00 1022.50,86.00 1041.50,86.00" fill="none" stroke="#f2cc60" stroke-width="3" stroke-linecap="round" stroke-linejoin="round"/>
<circle cx="53.50" cy="86.00" r="3.5" fill="#f2cc60" stroke="#0d1117" stroke-width="1"/>
<circle cx="1041.50" cy="86.00" r="3.5" fill="#f2cc60" stroke="#0d1117" stroke-width="1"/>
</svg>